<svg width="185" height="43" viewBox="0 0 185 43" fill="none" xmlns="http://www.w3.org/2000/svg">
<path d="M89.9603 3.73339C91.0358 3.51565 92.0906 3.13461 93.1867 3.10558C99.2395 2.93502 105.299 2.83704 111.359 2.74268C119.163 2.61567 126.96 2.45235 134.764 2.4088C141.409 2.37251 148.069 2.44509 154.715 2.58662C155.624 2.58662 156.548 3.25436 157.369 3.67532C158.504 4.20447 159.545 4.78759 160.478 5.41725C163.539 7.6527 168.64 7.16279 172.701 8.04826C174.197 8.37124 175.886 8.80309 176.796 9.45631C182.435 13.499 185.303 17.8973 182.648 22.9851C182.228 23.7871 182.58 24.7996 183.097 25.6198C184.475 27.7972 184.372 29.7641 182.118 31.789C181.518 32.337 182.421 33.3387 182.607 34.1334C182.966 35.6902 183.586 37.2471 183.579 38.8039C183.579 40.0196 181.656 40.4841 179.484 40.5349C160.609 40.9958 141.747 41.5728 122.865 41.8704C109.477 42.0808 96.0614 42.001 82.6667 41.8704C69.4994 41.7542 56.2976 41.6817 43.1854 41.1119C34.058 40.7164 25.0683 39.4716 15.9891 38.695C12.7421 38.4156 11.6874 37.3269 10.6533 35.8898C9.85212 34.8993 8.55906 34.0406 6.9099 33.404C3.33887 31.985 3.68353 29.8875 2.96657 27.9605C2.90452 27.8044 3.31819 27.5649 3.20099 27.4488C-0.114961 24.1827 2.63571 20.6045 1.23625 17.2513C0.6227 15.7997 1.23626 14.6457 2.70465 13.2848C4.2282 11.8587 4.62801 9.97524 4.70385 8.28051C4.7521 7.15915 5.8827 6.66559 6.77201 5.85633C10.4189 2.44871 16.7268 1.80276 23.0071 1.05882C24.0052 0.931124 25.0586 1.01313 25.9439 1.28745C28.8048 2.48502 31.9691 2.13297 35.1886 2.07491C40.9105 1.9733 46.6393 2.04591 52.3681 2.01688C62.0195 1.9697 71.6158 2.71727 81.281 1.82454C83.294 1.63583 85.8309 2.78258 87.9818 3.44669C88.5195 3.60999 88.5058 4.27408 88.7402 4.70593L89.9603 3.73339Z" fill="white" stroke="white"/>
</svg>
