<svg width="183" height="41" viewBox="0 0 183 41" fill="none" xmlns="http://www.w3.org/2000/svg">
<path d="M110.359 1.74268C104.299 1.83704 98.2395 1.93502 92.1867 2.10558C91.4385 2.1254 90.7095 2.30924 89.98 2.4932C89.6409 2.57873 89.3017 2.66428 88.9603 2.73339L89.0596 3.22344C89.0992 3.21542 89.1389 3.20714 89.1788 3.19863M110.359 1.74268L89.1788 3.19863M110.359 1.74268C112.177 1.71309 113.996 1.68152 115.814 1.64995C121.797 1.54606 127.778 1.4422 133.764 1.4088C140.409 1.37251 147.069 1.44509 153.715 1.58662L110.359 1.74268ZM89.1788 3.19863L88.0518 4.09693L87.5853 4.46876L87.3007 3.94445C87.2181 3.79231 87.1634 3.63147 87.1221 3.50199C87.1094 3.46228 87.0981 3.42591 87.0875 3.39194C87.0596 3.30247 87.0369 3.22963 87.0084 3.15612C86.9351 2.96664 86.8842 2.93957 86.8365 2.92511L86.8343 2.92444C86.3265 2.76764 85.7986 2.58475 85.271 2.40199L85.1469 2.359C84.5746 2.16086 84.0021 1.9644 83.4361 1.79475C82.2942 1.45248 81.2338 1.23741 80.3277 1.32236L80.327 1.32242C73.7897 1.92624 67.2614 1.78259 60.76 1.63952C57.6233 1.5705 54.4928 1.50161 51.3706 1.51687C49.2526 1.52761 47.1388 1.52449 45.0272 1.52137C41.414 1.51604 37.8073 1.51073 34.1976 1.57483C33.6951 1.58389 33.1865 1.60057 32.6758 1.61731C31.5836 1.65312 30.4824 1.68921 29.4143 1.65174C27.8393 1.59647 26.2743 1.38191 24.7738 0.758256C23.9669 0.512277 22.9954 0.436456 22.0705 0.554776L22.0659 0.555372C21.8683 0.578752 21.6709 0.60204 21.4737 0.625302C18.5256 0.973088 15.6273 1.315 13.0194 1.94473C10.237 2.61657 7.8454 3.60325 6.11338 5.22166L6.10855 5.22616C5.86823 5.4448 5.61443 5.63961 5.38456 5.81573L5.37828 5.82052C5.14469 5.9995 4.93888 6.15717 4.75949 6.32079C4.40355 6.64547 4.21926 6.93327 4.20339 7.30201L4.20334 7.30286C4.12516 9.05063 3.70981 11.0927 2.04636 12.6499L2.04453 12.6516C1.32762 13.316 0.871584 13.8845 0.652895 14.4224C0.445483 14.9325 0.438692 15.446 0.69681 16.0567L0.69768 16.0588C1.08319 16.9825 1.17699 17.9094 1.1673 18.8054C1.16138 19.3549 1.11379 19.9313 1.06803 20.4855C1.04169 20.8045 1.01596 21.1162 0.999132 21.4112C0.904329 23.0728 1.04367 24.6071 2.55185 26.0926L2.55293 26.0936C2.66165 26.2014 2.7218 26.3452 2.72202 26.497C2.7222 26.6276 2.6781 26.7296 2.64916 26.7856C2.60623 26.8685 2.54491 26.9441 2.50688 26.9887C2.63249 27.3614 2.72623 27.7366 2.81427 28.089C2.83223 28.1608 2.84995 28.2317 2.86765 28.3014C2.99103 28.7876 3.11702 29.2337 3.31921 29.6574C3.70664 30.4693 4.40717 31.2684 6.09255 31.9385C7.79202 32.595 9.16898 33.496 10.042 34.5754L10.0509 34.5863L10.0591 34.5978C10.5648 35.3005 11.0397 35.8658 11.7515 36.2995C12.4642 36.7338 13.4579 37.0614 15.032 37.1968C18.2848 37.4751 21.515 37.8119 24.7388 38.1481C30.5512 38.7543 36.3425 39.3582 42.2071 39.6124L42.1854 40.1119L42.2071 39.6124C54.2488 40.1356 66.3668 40.2392 78.4743 40.3428C79.54 40.3519 80.6056 40.361 81.6711 40.3704L81.6715 40.3704C95.0656 40.501 108.476 40.5808 121.857 40.3704C135.189 40.1603 148.509 39.8109 161.834 39.4614C167.379 39.316 172.924 39.1705 178.472 39.0351L178.472 39.0351C179.537 39.0101 180.498 38.8835 181.175 38.6365C181.877 38.3803 182.079 38.0793 182.079 37.8039L182.079 37.8017L182.079 37.8017C182.082 37.0871 181.941 36.3573 181.746 35.5925C181.67 35.2985 181.583 34.9863 181.494 34.6677C181.362 34.1952 181.226 33.7086 181.12 33.2466C181.087 33.1039 181.016 32.9338 180.916 32.7229C180.89 32.6689 180.862 32.6107 180.832 32.55C180.757 32.3941 180.673 32.2217 180.606 32.0608C180.512 31.8356 180.42 31.5634 180.415 31.2836C180.41 30.978 180.51 30.6672 180.78 30.4199L180.783 30.4171L180.783 30.4171C181.856 29.4536 182.359 28.5561 182.474 27.6956C182.588 26.8346 182.326 25.917 181.674 24.8873L181.674 24.8864C181.396 24.4456 181.149 23.933 181.033 23.4027C180.916 22.8704 180.925 22.2886 181.205 21.7533C182.459 19.3504 182.403 17.146 181.382 15.0475C180.346 12.9166 178.298 10.8652 175.504 8.86267L175.504 8.86249C175.114 8.58248 174.524 8.33021 173.816 8.10492C173.116 7.88222 172.338 7.69747 171.595 7.537L171.594 7.53678C170.26 7.24581 168.832 7.10884 167.37 6.96854C166.638 6.89821 165.896 6.82704 165.153 6.73522C162.982 6.46697 160.832 6.02164 159.191 4.82664C158.284 4.21516 157.269 3.6464 156.157 3.12854L156.149 3.12452L156.14 3.12017C155.949 3.02181 155.752 2.91095 155.562 2.80378C155.538 2.7902 155.514 2.77667 155.49 2.76323C155.274 2.64145 155.064 2.52482 154.855 2.42194C154.429 2.21288 154.054 2.08662 153.715 2.08662L153.704 2.08662L153.704 2.08651C147.062 1.94505 140.407 1.87254 133.766 1.90879C127.784 1.94218 121.807 2.04597 115.824 2.14985C114.006 2.18142 112.187 2.213 110.367 2.24262L110.367 2.24262C104.307 2.33698 98.25 2.43492 92.2008 2.60538L92.1999 2.6054C91.7031 2.61856 91.2046 2.71188 90.6805 2.83539C90.5014 2.87758 90.3136 2.92489 90.1214 2.97329C89.8124 3.05114 89.4921 3.13182 89.1788 3.19863Z" stroke="#232C6A"/>
</svg>
