<svg width="25" height="24" viewBox="0 0 25 24" fill="none" xmlns="http://www.w3.org/2000/svg">
<g clip-path="url(#clip0_980_6615)">
<path d="M11.2954 10.4166C11.2954 10.4166 11.318 10.4166 11.3255 10.4166C11.3481 10.4092 11.3481 10.3942 11.3406 10.3867C11.3105 10.3867 11.318 10.4092 11.2954 10.4092V10.4166Z" fill="#232C6A"/>
<path d="M11.431 5.5C11.431 5.5 11.4235 5.5 11.4159 5.5C11.4009 5.50748 11.4009 5.53741 11.4009 5.56733H11.4536L11.431 5.5Z" fill="#232C6A"/>
<path d="M12.6807 4.89431L12.5754 4.95416C12.5227 4.76713 12.6356 4.67735 12.5452 4.51276H12.5678C12.5678 4.51276 12.3495 4.48284 12.6431 4.22099H12.6506C12.6506 4.22099 12.628 4.21351 12.6506 4.19107L12.5829 4.23595C12.5829 4.23595 12.5076 4.18358 12.5001 4.14618C12.5151 4.1387 12.5377 4.1387 12.5528 4.1387L12.5377 4.04892L12.6055 4.019C12.5678 3.98907 12.4173 4.00403 12.5001 3.92922C12.3947 3.95915 12.4398 3.89181 12.3871 3.89929C12.4022 3.89929 12.4173 3.88433 12.4398 3.88433C12.4248 3.83944 12.4022 3.75715 12.3495 3.74219C12.3495 3.74219 12.1312 3.91426 12.0258 3.95915C12.0559 3.89929 12.0107 3.94418 11.9806 3.95915H12.0032C11.9806 3.99655 11.9129 3.99655 11.8978 4.019H11.9129H11.9053H11.9279C11.943 4.019 11.9505 4.019 11.9505 4.02648C11.9505 4.02648 11.9505 4.06388 11.9505 4.07885H11.8978C12.0032 4.10877 11.7397 4.2584 11.7397 4.2958C11.672 4.33321 11.7548 4.3781 11.7247 4.42299C11.7096 4.4978 11.6494 4.46039 11.5967 4.4978C11.5666 4.54269 11.6569 4.49032 11.6644 4.50528L11.5892 4.55765C11.5892 4.55765 11.5515 4.54269 11.5289 4.55017C11.5214 4.59506 11.4235 4.66987 11.5289 4.68483C11.4762 4.74468 11.4311 4.74468 11.4311 4.77461C11.4536 4.76713 11.4687 4.74468 11.4913 4.74468C11.4461 4.76713 11.5063 4.75964 11.5139 4.74468C11.559 4.78209 11.3181 4.94668 11.4386 4.95416H11.416C11.5063 4.96164 11.5892 4.95416 11.6418 4.9766L11.6042 4.99156L11.6418 5.02149C11.6418 5.02149 11.5892 5.02897 11.5816 5.02897C11.6193 5.07386 11.5741 5.13371 11.559 5.18608L11.7999 5.12623C11.7472 5.17111 11.6343 5.25341 11.7096 5.26089L11.6268 5.29082C11.4762 5.38059 11.6945 5.35067 11.6494 5.38807L11.559 5.43296V5.38807C11.5139 5.43296 11.4838 5.44792 11.4311 5.48533C11.4311 5.48533 11.4386 5.48533 11.4461 5.48533C11.4913 5.50029 11.5214 5.52274 11.5139 5.55266C11.4988 5.59755 11.5666 5.63496 11.4762 5.70229L11.5666 5.71725L11.5139 5.76962H11.4386C11.4386 5.71725 11.416 5.61999 11.4085 5.54518H11.3784C11.3784 5.58259 11.4085 5.62747 11.4009 5.6574C11.3859 5.67236 11.3106 5.70229 11.2654 5.67984L11.3332 5.70229C11.3407 5.83695 11.3482 5.83695 11.2654 5.9791L11.3031 5.96413C11.3031 5.96413 11.3482 6.0165 11.288 6.03146C11.273 6.11376 11.2278 6.20353 11.1375 6.2559L11.2203 6.27087C11.2203 6.27087 11.0848 6.31575 11.2052 6.32323L11.2429 6.36064C11.2429 6.36064 11.288 6.39805 11.2429 6.42797C11.2429 6.42797 11.2429 6.42797 11.2353 6.42797C11.1977 6.48034 11.3106 6.42797 11.2654 6.48782C11.2052 6.51027 11.3708 6.51027 11.3558 6.54019L11.2353 6.57012C11.1676 6.62249 11.288 6.63745 11.288 6.71974C11.2429 6.75715 11.145 6.77959 11.0471 6.74967C11.16 6.78708 11.1224 6.76463 11.1751 6.80952C11.1299 6.80952 11.1224 6.80952 11.0772 6.80204C11.0245 6.84693 11.1149 6.82448 11.1149 6.86189C11.1977 6.86937 11.3407 6.88433 11.3407 6.89181L11.3708 6.87685C11.416 6.90678 11.4386 6.94418 11.3934 6.98907H11.3482L11.3708 7.02648H11.3181L11.3332 7.08633H11.3482C11.3482 7.08633 11.3708 7.1387 11.3482 7.16114H11.3181C11.2203 7.23595 11.3482 7.2958 11.3558 7.3781L11.2956 7.36313C11.2353 7.39306 11.3934 7.37062 11.3633 7.40802H11.288C11.3859 7.43795 11.2654 7.45291 11.2278 7.46787H11.3257L11.3031 7.4978C11.273 7.54269 11.1751 7.52772 11.1224 7.52024L11.2052 7.55017H11.1149C11.2203 7.58009 11.0998 7.58009 11.1525 7.6175C11.1224 7.6175 11.0998 7.6175 11.0848 7.6175L11.2127 7.67735L11.16 7.63994H11.288C11.3859 7.68483 11.273 7.69979 11.3106 7.72972L11.273 7.70727C11.3031 7.75216 11.2504 7.75964 11.2203 7.78209C11.2429 7.77461 11.2805 7.75964 11.2956 7.78209C11.2956 7.79705 11.2504 7.78957 11.2353 7.80453C11.3257 7.80453 11.3708 7.84194 11.3257 7.87186C11.3106 7.87186 11.3031 7.87186 11.2956 7.87186C11.3106 7.87934 11.3332 7.88683 11.3106 7.89431H11.2127L11.3031 7.90927C11.273 7.92423 11.3482 7.95416 11.2805 7.94668H11.2579L11.2353 8.06638H11.16C11.2654 8.08134 11.1224 8.14119 11.2504 8.13371C11.1751 8.15615 11.3031 8.23097 11.1525 8.216C11.1375 8.2983 11.288 8.35067 11.2127 8.44792C11.0848 8.48533 11.1299 8.58259 11.1149 8.64992C11.1676 8.7771 11.2127 8.86688 11.2579 8.99406C11.0772 9.07635 11.3181 9.19605 11.2203 9.27835L11.288 9.30079C11.1751 9.36064 11.3106 9.44293 11.2052 9.52523C11.2353 9.54767 11.2429 9.55515 11.2504 9.56264C11.2504 9.56264 11.2654 9.55515 11.3106 9.55515C11.2805 9.5776 11.3181 9.62249 11.2278 9.62249H11.2203C11.1299 9.61501 11.2654 9.68982 11.1826 9.71226L11.2805 9.6973L11.2654 9.74219L11.2504 9.72722C11.4612 9.91426 11.16 10.004 11.3558 10.1761C11.2504 10.1537 11.4085 10.2135 11.2956 10.2135C11.1525 10.2584 11.3257 10.2958 11.3633 10.3332C11.3633 10.3332 11.3784 10.3332 11.3859 10.3332L11.3708 10.4005C11.2278 10.3631 11.4913 10.4454 11.3708 10.408C11.2654 10.5726 11.3708 10.7896 11.3257 10.9841H11.3633C11.3633 11.0215 11.4009 11.0888 11.3407 11.1262C11.2805 11.1636 11.4311 11.2085 11.4386 11.2235C11.4988 11.2609 11.3784 11.2983 11.3859 11.2833C11.4009 11.3282 11.5365 11.3656 11.4762 11.4255C11.3558 11.4479 11.5967 11.5901 11.4612 11.5901H11.4762C11.3784 11.6649 11.544 11.7397 11.4536 11.822C11.4536 11.822 11.4461 11.822 11.4311 11.822L11.8451 11.9941L12.3043 11.9492L12.6807 11.7995L12.5979 11.403L12.741 11.0888L12.6883 10.3182L12.5829 10.2659C12.7636 10.1163 12.5528 9.92174 12.6883 9.75715H12.5979C12.5979 9.70478 12.6506 9.71226 12.6657 9.6973C12.6431 9.27086 12.5302 8.82199 12.6431 8.44044C12.7033 8.40304 12.6657 8.29082 12.7334 8.26089C12.6205 8.13371 12.628 7.99904 12.6356 7.87934H12.6431L12.628 7.82697C12.628 7.82697 12.6431 7.82697 12.6506 7.82697C12.5754 7.75964 12.6506 7.65491 12.6807 7.57261H12.6883C12.7033 7.10129 12.5377 6.65989 12.6657 6.18109C12.8087 5.96413 12.613 5.70229 12.7334 5.4554C12.8238 5.41052 12.756 4.90179 12.7109 4.8569L12.6807 4.89431Z" fill="#232C6A"/>
<path d="M11.5363 5.19531L11.4836 5.21028L11.5363 5.19531Z" fill="#232C6A"/>
<path d="M11.5063 4.51953C11.5063 4.51953 11.5063 4.54946 11.5214 4.54946C11.5214 4.54198 11.5214 4.52701 11.5063 4.51953Z" fill="#232C6A"/>
<path d="M12.4924 3.89004C12.4924 3.89004 12.4699 3.88256 12.4473 3.89004C12.4473 3.90501 12.4473 3.91997 12.4473 3.91997C12.4548 3.91249 12.4774 3.90501 12.4849 3.89004H12.4924Z" fill="#232C6A"/>
<path d="M13.8325 11.3867C13.8325 11.3867 13.8325 11.4092 13.8325 11.4166C13.84 11.4391 13.8551 11.4391 13.8626 11.4316C13.8626 11.4017 13.84 11.4092 13.84 11.3867H13.8325Z" fill="#232C6A"/>
<path d="M18.7787 11.5143C18.7787 11.5143 18.7787 11.5068 18.7787 11.4993C18.7712 11.4844 18.7411 11.4844 18.7109 11.4844V11.5367L18.7787 11.5143Z" fill="#232C6A"/>
<path d="M18.7258 13.3109L18.6656 13.2062C18.8538 13.1538 18.9442 13.2661 19.1098 13.1763V13.1987C19.1098 13.1987 19.1399 12.9818 19.4034 13.2735C19.4034 13.2735 19.4109 13.2586 19.4335 13.2885L19.3883 13.2212C19.3883 13.2212 19.441 13.1464 19.4787 13.1389C19.4862 13.1538 19.4862 13.1763 19.4862 13.1912L19.5765 13.1763L19.6066 13.2436C19.6368 13.2062 19.6217 13.0566 19.697 13.1389C19.6669 13.0341 19.7346 13.079 19.7271 13.0267C19.7271 13.0416 19.7421 13.0566 19.7421 13.079C19.7873 13.0641 19.8701 13.0416 19.8852 12.9892C19.8852 12.9892 19.712 12.7723 19.6669 12.6676C19.7271 12.6975 19.6819 12.6526 19.6669 12.6227V12.6451C19.6292 12.6227 19.6292 12.5553 19.6066 12.5404V12.5553C19.6066 12.5553 19.6066 12.5628 19.6066 12.5703C19.6066 12.5853 19.6066 12.5927 19.5991 12.5927C19.5991 12.5927 19.5539 12.5853 19.5464 12.5778V12.5254C19.5163 12.6301 19.3657 12.3683 19.3281 12.3683C19.2905 12.301 19.2453 12.3833 19.2001 12.3533C19.1248 12.3384 19.1625 12.2785 19.1248 12.2262C19.0797 12.1887 19.1324 12.286 19.1173 12.2935L19.0646 12.2187C19.0646 12.2187 19.0797 12.1813 19.0721 12.1588C19.027 12.1513 18.9517 12.0541 18.9366 12.1588C18.8764 12.1065 18.8764 12.0616 18.8463 12.0616C18.8538 12.084 18.8764 12.099 18.8764 12.1214C18.8538 12.0765 18.8613 12.1364 18.8764 12.1439C18.8388 12.1887 18.6731 11.9493 18.6656 12.069V12.0466C18.6581 12.1364 18.6656 12.2187 18.643 12.271L18.628 12.2336L18.5979 12.271C18.5979 12.271 18.5903 12.2187 18.5903 12.2112C18.5452 12.2486 18.4849 12.2037 18.4322 12.1887L18.4925 12.4281C18.4473 12.3758 18.3645 12.2636 18.357 12.3384L18.3268 12.2561C18.2365 12.1065 18.2666 12.3234 18.229 12.2785L18.1838 12.1887H18.229C18.1838 12.1439 18.1687 12.1139 18.1311 12.0616C18.1311 12.0616 18.1311 12.069 18.1311 12.0765C18.1311 12.1214 18.101 12.1513 18.0709 12.1513C18.0257 12.1364 17.9881 12.2037 17.9203 12.1139L17.9053 12.2037L17.8526 12.1513V12.0765C17.9053 12.0765 18.0107 12.0541 18.0784 12.0466V12.0167C18.0408 12.0167 17.9956 12.0466 17.9655 12.0391C17.9504 12.0242 17.9203 11.9493 17.9429 11.9045L17.9203 11.9718C17.7848 11.9793 17.7848 11.9868 17.6418 11.9045L17.6568 11.9419C17.6568 11.9419 17.6041 11.9868 17.5891 11.9269C17.5063 11.9119 17.4159 11.8671 17.3632 11.7773L17.3482 11.8596C17.3482 11.8596 17.303 11.7249 17.2955 11.8446L17.2578 11.882C17.2578 11.882 17.2202 11.9269 17.1901 11.882C17.1901 11.882 17.1901 11.882 17.1901 11.8745C17.1374 11.8371 17.1901 11.9493 17.1298 11.9045C17.1073 11.8446 17.1073 12.0092 17.0772 11.9942L17.047 11.8745C16.9943 11.8072 16.9793 11.9269 16.8965 11.9269C16.8588 11.882 16.8362 11.7848 16.8664 11.6875C16.8287 11.7997 16.8513 11.7623 16.8061 11.8147C16.8061 11.7698 16.8061 11.7623 16.8137 11.7174C16.7685 11.6651 16.7911 11.7548 16.7534 11.7548C16.7459 11.8371 16.7309 11.9793 16.7233 11.9793L16.7384 12.0092C16.7083 12.0541 16.6706 12.0765 16.6255 12.0316V11.9868L16.5878 12.0092V11.9568L16.5276 11.9718V11.9868C16.5276 11.9868 16.4749 12.0167 16.4523 11.9868V11.9568C16.377 11.8596 16.3168 11.9868 16.234 11.9942L16.249 11.9344C16.2189 11.8745 16.2415 12.0316 16.2039 12.0017V11.9269C16.1738 12.0242 16.1587 11.9045 16.1437 11.8671V11.9643L16.1135 11.9419C16.0684 11.9119 16.0834 11.8147 16.091 11.7623L16.0608 11.8446V11.7548C16.0307 11.8596 16.0307 11.7399 15.9931 11.7922C15.9931 11.7623 15.9931 11.7399 15.9931 11.7249L15.9329 11.8521L15.9705 11.7997V11.9269C15.9253 12.0242 15.9103 11.9119 15.8802 11.9493L15.9027 11.9119C15.8576 11.9419 15.8501 11.8895 15.8275 11.8596C15.835 11.882 15.8501 11.9194 15.8275 11.9344C15.8124 11.9344 15.8199 11.8895 15.8049 11.8745C15.8049 11.9643 15.7672 12.0092 15.7371 11.9643C15.7371 11.9493 15.7371 11.9419 15.7371 11.9344C15.7296 11.9493 15.7221 11.9718 15.7145 11.9493V11.8521L15.6995 11.9419C15.6844 11.9119 15.6543 11.9868 15.6618 11.9194V11.897L15.5414 11.8745V11.7997C15.5263 11.9045 15.4661 11.7623 15.4736 11.8895C15.4511 11.8147 15.3758 11.9419 15.3908 11.7922C15.308 11.7773 15.2553 11.9269 15.1575 11.8521C15.1198 11.7249 15.0219 11.7698 14.9542 11.7548C14.8262 11.8072 14.7359 11.8521 14.6079 11.897C14.5251 11.7174 14.4046 11.9568 14.3218 11.8596L14.2992 11.9269C14.239 11.8147 14.1562 11.9493 14.0734 11.8446C14.0508 11.8745 14.0433 11.882 14.0357 11.8895C14.0357 11.8895 14.0433 11.9045 14.0433 11.9493C14.0207 11.9194 13.9755 11.9568 13.9755 11.8671C13.9755 11.7698 13.9078 11.897 13.8777 11.8222L13.8927 11.9194L13.8475 11.9045L13.8626 11.8895C13.6744 12.099 13.5841 11.7997 13.4109 11.9942C13.4335 11.8895 13.3733 12.0466 13.3733 11.9344C13.3281 11.7922 13.2905 11.9643 13.2528 12.0017C13.2528 12.0017 13.2528 12.0167 13.2528 12.0242L13.1851 12.0092C13.2227 11.8671 13.1399 12.1289 13.1775 12.0092C13.0119 11.9045 12.7936 12.0092 12.5979 11.9643V12.0017C12.5602 12.0017 12.4925 12.0391 12.4548 11.9793C12.4172 11.9194 12.372 12.069 12.357 12.0765C12.3193 12.1364 12.2817 12.0167 12.2967 12.0167C12.2516 12.0316 12.2139 12.1663 12.1537 12.1065C12.1311 11.9868 11.9881 12.2262 11.9881 12.0915V12.1065C11.9128 12.0092 11.8375 12.1738 11.7547 12.084C11.7547 12.084 11.7547 12.0765 11.7547 12.0616L11.5815 12.473L11.6267 12.9294L11.7773 13.3035L12.1763 13.2212L12.4925 13.3633L13.2679 13.3109L13.3206 13.2062C13.4711 13.3858 13.6669 13.1763 13.8325 13.3109V13.2212C13.8852 13.2212 13.8777 13.2735 13.8927 13.2885C14.3218 13.2661 14.7735 13.1538 15.1575 13.2661C15.1951 13.3259 15.308 13.2885 15.3381 13.3558C15.4661 13.2436 15.6016 13.2511 15.7221 13.2586H15.7823C15.7823 13.2586 15.7823 13.2735 15.7823 13.281C15.8501 13.2062 15.9554 13.281 16.0383 13.3109C16.5201 13.3334 16.9642 13.1688 17.4385 13.296C17.6568 13.4381 17.9203 13.2436 18.1687 13.3633C18.2139 13.4531 18.7258 13.3858 18.771 13.3409L18.7258 13.3109Z" fill="#232C6A"/>
<path d="M19.0874 11.6266H19.0949L19.0798 11.5742L19.0874 11.6266Z" fill="#232C6A"/>
<path d="M19.7647 11.5977C19.7647 11.5977 19.7346 11.5977 19.7346 11.6126C19.7421 11.6126 19.7572 11.6126 19.7647 11.5977Z" fill="#232C6A"/>
<path d="M20.3973 12.5761C20.3973 12.5761 20.4048 12.5537 20.3973 12.5312C20.3822 12.5312 20.3672 12.5312 20.3672 12.5312C20.3747 12.5387 20.3822 12.5612 20.3973 12.5687V12.5761Z" fill="#232C6A"/>
<path d="M4.91162 19.1602L4.92668 19.1751C4.92668 19.1751 4.97185 19.1751 4.9869 19.1751L4.91162 19.1602Z" fill="#232C6A"/>
<path d="M7.62915 21.3516L7.64421 21.3665C7.64421 21.3665 7.65926 21.3516 7.62915 21.3516Z" fill="#232C6A"/>
<path d="M16.1437 1.90234C16.1437 1.90234 16.1362 1.90234 16.1287 1.90234C16.1362 1.90983 16.1512 1.91731 16.1588 1.92479L16.1437 1.90234Z" fill="#232C6A"/>
<path d="M16.0684 1.90128C16.0006 1.86388 16.0985 1.88632 16.1286 1.8938C16.0533 1.84143 15.9705 1.81151 15.8877 1.78906C15.8802 1.81899 16.0383 1.87136 16.0684 1.90128Z" fill="#232C6A"/>
<path d="M23.2956 10.5921L23.2805 10.5547C23.2805 10.5547 23.288 10.5771 23.2956 10.5921Z" fill="#232C6A"/>
<path d="M0.507528 12.2903C0.507528 12.2903 0.507528 12.2529 0.5 12.2305C0.5 12.2604 0.5 12.2754 0.507528 12.2903Z" fill="#232C6A"/>
<path d="M10.7007 22.4141C10.7007 22.4141 10.7007 22.4365 10.7157 22.4515H10.7233L10.7007 22.4141Z" fill="#232C6A"/>
<path d="M23.7021 14.238H23.687L23.7021 14.3128C23.7021 14.3128 23.7096 14.2529 23.7021 14.2305V14.238Z" fill="#232C6A"/>
<path d="M15.1952 22.4368L15.2103 22.4219C15.1275 22.4219 14.9317 22.4817 14.6758 22.5341V22.5865C14.8489 22.5491 15.0221 22.4892 15.1952 22.4368Z" fill="#232C6A"/>
<path d="M20.4047 21.1426C20.2542 21.2398 20.081 21.3146 19.9154 21.3969C20.5779 20.8433 21.0446 20.4244 21.4511 19.983C21.8727 19.5565 22.219 19.0927 22.5954 18.4718L22.5729 18.554C22.6406 18.4718 22.6406 18.367 22.8062 18.0603C22.9718 17.7535 23.3031 17.2373 23.8677 16.1825H23.8752C23.9053 16.1077 23.8752 16.1002 23.9656 15.958L23.7623 16.3171C23.8225 16.0777 23.8451 15.8608 23.9505 15.554C23.9882 15.4942 24.0107 15.4718 24.0258 15.4718L24.2065 14.6937L24.3345 14.4693C24.3495 14.2224 24.1764 14.3047 24.357 13.6762C24.2215 13.9007 24.342 13.3471 24.2818 13.4219C24.2968 13.3845 24.3269 13.3171 24.357 13.2648C24.3796 12.8832 24.3796 12.1575 24.3345 11.978C24.3345 11.978 24.2592 12.3371 24.1764 12.7635C24.1086 13.1825 23.9279 13.6239 23.8527 13.8109C23.958 13.2947 23.8602 13.6762 23.815 13.766L23.8376 13.8034C23.7623 14.1102 23.7021 14.0952 23.6569 14.2448C23.6569 14.2448 23.672 14.2448 23.6795 14.2448V14.2224C23.6795 14.2224 23.6946 14.2224 23.6946 14.2373C23.7096 14.2373 23.7171 14.2523 23.6946 14.3346V14.3196C23.672 14.4468 23.6042 14.6638 23.5741 14.7535L23.5214 14.7386C23.5967 15.0004 22.9192 16.16 22.7761 16.4219C22.5729 16.6613 22.5051 17.0503 22.2868 17.3645C21.9555 17.8732 22.0609 17.5815 21.8652 17.8134C21.6394 18.1201 21.9555 17.7835 21.8803 17.9107C21.7824 18.0304 21.6845 18.1426 21.5641 18.2473C21.7146 18.0378 21.6017 18.1276 21.5641 18.1575C21.3156 18.4568 20.8941 18.8982 20.879 19.0403C20.4875 19.392 20.4574 19.362 20.2993 19.5266C20.3671 19.4817 20.48 19.3845 20.4951 19.3994C20.3219 19.5191 20.4348 19.4817 20.4951 19.4219C20.3294 19.7136 19.1626 20.4019 19.1701 20.5067L19.155 20.4917C19.155 20.6039 19.2981 20.6039 19.1475 20.776L19.0045 20.8358L18.8464 21.0004C18.7109 21.0678 18.756 21.0004 18.7485 21.0004C18.4549 21.2249 18.0032 21.4718 17.5967 21.6513C17.7774 21.6588 17.9505 21.6513 18.1312 21.6363C17.7774 21.8009 17.0998 21.958 17.0697 22.0703L16.8288 22.0927C16.0609 22.2049 16.3545 22.3321 16.0534 22.392C15.9254 22.4069 15.7974 22.4294 15.6695 22.4219C15.7899 22.3994 15.9104 22.3545 16.0308 22.3097C15.6695 22.4069 15.5038 22.3845 15.2027 22.4069H15.2404L15.1877 22.4219C15.1575 22.4742 14.9769 22.5565 14.7134 22.6089C14.3445 22.6463 14.0584 22.781 13.4562 22.7361L13.3131 22.8333L12.8614 22.8034V22.7286C13.0798 22.7136 13.3959 22.7062 13.7197 22.6688C14.0434 22.6164 14.3897 22.5565 14.6607 22.5117V22.4817C14.337 22.5341 13.9681 22.6164 13.7498 22.6463C13.6444 22.6613 13.3658 22.579 13.554 22.5266L13.3583 22.6089C12.8087 22.6388 12.5302 22.6688 12.2441 22.6314C11.9656 22.5939 11.672 22.6089 11.1074 22.4742L11.1977 22.5266C10.9718 22.5117 10.7385 22.4967 10.6858 22.4294C10.347 22.392 10.0158 22.2648 9.70711 22.1675C9.39845 22.0777 9.14249 21.9431 8.95428 21.8234L8.83383 21.8683C8.69832 21.8159 8.54776 21.6214 8.43484 21.7112C8.33697 21.6887 8.2391 21.6438 8.14123 21.6139C7.96808 21.5241 7.83258 21.5166 7.6519 21.3745L7.62179 21.3446C7.23785 21.1201 7.58415 21.4269 7.16256 21.1276C7.04964 20.9929 6.95177 21.1276 6.74851 20.978L6.59795 20.7461C6.27423 20.4244 6.13873 20.4842 5.62681 20.0728C5.42354 19.8259 5.37837 19.6538 5.59669 19.7211C5.31062 19.6164 5.45366 19.6912 5.13747 19.4742C5.12994 19.3994 5.16006 19.4219 5.25039 19.4518C5.0396 19.1974 5.07724 19.3396 4.9041 19.1525C4.79117 19.1525 4.63308 19.19 4.57285 19.1301L4.61802 19.2199C4.40723 19.0478 4.16633 18.8533 4.02329 18.569L4.06093 18.554L3.84261 18.2997L3.87273 18.2473C3.77486 18.1201 3.66947 18.0004 3.57913 17.8732L3.60171 17.9406C3.53396 17.8508 3.3307 17.5441 3.24036 17.3496H3.27047C3.15002 17.0728 3.02957 16.8333 2.88653 16.5865C2.74349 16.3396 2.57787 16.0927 2.46495 15.7635L2.55529 15.8234C2.5327 15.5765 2.44236 15.7934 2.37461 15.5241L2.44236 15.4867C2.26169 15.2847 2.3445 15.18 2.33697 15.0079L2.26169 15.1127L2.20146 14.7984C2.14876 14.4468 2.26921 14.559 2.33697 14.5964L2.20146 14.387L2.27674 14.3196C2.13371 14.17 2.2391 14.155 2.14123 13.8633C2.17135 13.8333 2.20146 13.9082 2.20146 13.8034L1.9982 13.3246L2.09607 13.6164L1.96056 13.6014C1.81752 13.3022 1.90033 13.175 1.84763 12.9506C1.86269 13.0029 1.87775 13.0553 1.90033 13.1002C1.84011 12.7336 1.90033 12.7037 1.91539 12.5017C1.8928 12.569 1.86269 12.6663 1.84011 12.5166C1.82505 12.4044 1.88527 12.4568 1.8928 12.3521C1.80999 12.3296 1.72718 12.0603 1.78741 11.8209C1.80246 11.8209 1.80999 11.8284 1.81752 11.8433C1.80999 11.7835 1.78741 11.7461 1.81752 11.6413L1.90786 11.7087L1.82505 11.4992C1.85516 11.3645 1.80246 11.155 1.86269 11.1775L1.87775 11.2598C1.88527 10.9082 1.96056 10.5715 2.02078 10.2274H2.09607C1.9982 10.1077 2.22405 9.68123 2.09607 9.68871C2.21652 9.51664 2.2391 8.92562 2.35203 9.08273C2.42731 8.75355 2.51765 8.50667 2.5854 8.22986C2.64563 7.95305 2.75855 7.66876 2.97687 7.31714C3.20272 7.10018 3.57913 6.38946 3.88778 5.96302C4.17386 5.52911 4.40723 5.17749 4.69331 4.85579C4.94927 4.51165 5.27298 4.2124 5.65692 3.83834C5.96558 3.70367 6.27423 3.46427 6.59042 3.20243C6.92919 2.97799 7.2529 2.71614 7.59167 2.60392L7.73471 2.46178C8.1864 2.34208 8.79619 1.96053 9.44362 1.87076C9.58665 1.80342 9.66947 1.7735 9.69958 1.75854C9.66947 1.75854 9.6243 1.75854 9.59418 1.72113C9.78239 1.70617 10.1362 1.5715 10.1287 1.66876L10.0835 1.6912C10.0835 1.73609 10.2115 1.6912 10.3771 1.63884C10.5427 1.60143 10.7385 1.55654 10.8439 1.57899L10.7159 1.50417L11.0622 1.46677L10.9718 1.49669C11.3407 1.37699 11.672 1.33958 11.9731 1.32462C12.2742 1.30218 12.5528 1.2947 12.8238 1.3321C13.1023 1.35455 13.3734 1.37699 13.6519 1.39943C13.938 1.44432 14.2466 1.47425 14.6155 1.47425C14.4047 1.54158 14.9091 1.47425 14.8941 1.60143C15.2102 1.83335 15.549 1.72113 15.8501 1.78846C15.8501 1.78846 15.8501 1.78098 15.8727 1.7735L16.3545 1.96801C16.0082 1.99794 16.7535 1.98298 16.4373 1.99794C17.6569 2.56652 19.2454 3.41938 20.2767 4.61639L20.2542 4.54158C20.5176 4.84083 20.8941 5.17001 21.0145 5.4543C21.1425 5.7311 21.4963 5.91814 21.5565 6.02288C21.7824 6.27724 21.8351 6.59893 21.7673 6.47175C21.9781 6.75604 22.2416 6.99544 22.3997 7.47425C22.3997 7.6538 22.9944 8.6937 22.8815 8.74607H22.8966C22.9267 9.06776 23.0245 9.35953 23.1149 9.65878C23.2052 9.95804 23.2579 10.2797 23.2655 10.6164C23.2655 10.6164 23.2504 10.6014 23.2429 10.5865C23.4612 11.0204 23.5816 11.4842 23.7623 11.963L24.199 11.5366C24.3043 11.1027 24.4097 10.6538 24.4474 10.1974C24.2592 9.00791 23.8677 7.84831 23.3106 6.78597C22.9568 5.88821 22.4373 5.07275 21.8803 4.27973C21.1048 3.38946 20.2165 2.59644 19.2378 1.93809C18.2441 1.2947 17.1601 0.808412 16.0308 0.456791L15.5114 0.426866C14.2617 -0.104306 12.4399 -0.0220121 10.9568 0.0602822L10.9417 0.150058C10.5277 0.217389 10.5503 0.157539 10.4373 0.157539C8.49506 0.479235 6.65817 1.39195 5.145 2.574C3.61677 3.75604 2.48001 5.29719 1.66696 6.84582C1.43358 7.11514 1.12492 8.10268 0.974359 8.3346C0.75604 9.46427 0.54525 10.6463 0.522665 11.791V11.7461C0.507608 11.9256 0.522665 12.1052 0.537721 12.2847C0.537721 12.3072 0.522665 12.3072 0.515137 12.2922C0.575363 12.5915 0.567834 12.9805 0.613004 13.3845C0.665701 13.7885 0.680758 14.2149 0.75604 14.5815L0.733455 14.5441C1.20773 16.6688 2.24663 18.569 3.69205 20.0728C5.10736 21.6064 6.93672 22.7136 8.96934 23.4393C10.874 24.1501 13.2981 24.1501 15.549 23.6638C15.7598 23.6563 17.0245 23.3496 18.1538 22.7286C19.2905 22.1301 20.2767 21.3072 20.4123 21.1501L20.4047 21.1426Z" fill="#232C6A"/>
<path d="M24.0332 15.4625V15.4774C24.0332 15.4774 24.0558 15.455 24.0332 15.4625Z" fill="#232C6A"/>
<path d="M17.5815 21.6673L17.6041 21.6523H17.4836L17.5815 21.6673Z" fill="#232C6A"/>
<path d="M21.6845 17.9688C21.5414 18.1707 21.5264 18.1782 21.564 18.1633C21.6242 18.0959 21.6619 18.0286 21.6845 17.9688Z" fill="#232C6A"/>
<path d="M24.4171 13.2645C24.4397 13.1224 24.4171 13.1747 24.3719 13.257C24.3569 13.3992 24.3418 13.5039 24.3418 13.5039C24.3644 13.4366 24.3945 13.3318 24.4171 13.272V13.2645Z" fill="#232C6A"/>
<path d="M23.8224 13.7675L23.7998 13.7227C23.7998 13.805 23.7998 13.805 23.8224 13.7675Z" fill="#232C6A"/>
</g>
<defs>
<clipPath id="clip0_980_6615">
<rect width="24" height="24" fill="white" transform="translate(0.5)"/>
</clipPath>
</defs>
</svg>
