<svg width="23" height="24" viewBox="0 0 23 24" fill="none" xmlns="http://www.w3.org/2000/svg">
<g clip-path="url(#clip0_1022_6546)">
<path d="M12.5547 22.785C12.5547 22.785 12.5662 22.785 12.5777 22.785C12.6007 22.7734 12.6122 22.7617 12.6353 22.75L12.5547 22.785Z" fill="#232C6A"/>
<path d="M16.7227 22.8646H16.7457C16.7457 22.8646 16.7457 22.8529 16.7227 22.8646Z" fill="#232C6A"/>
<path d="M3.60992 2.82396C3.51782 2.82396 3.63295 2.8006 3.679 2.8006C3.57539 2.77724 3.47177 2.77724 3.36816 2.78892C3.36816 2.81228 3.56387 2.81228 3.60992 2.82396Z" fill="#232C6A"/>
<path d="M15.3521 2.71875L15.3291 2.75379C15.3291 2.75379 15.3521 2.73043 15.3521 2.71875Z" fill="#232C6A"/>
<path d="M21.2354 3.62887C21.2354 3.62887 21.2354 3.62887 21.2354 3.64055L21.2929 3.69894C21.2929 3.69894 21.2584 3.64055 21.2469 3.61719L21.2354 3.62887Z" fill="#232C6A"/>
<path d="M21.109 17.9257L21.0975 17.9023C21.0975 17.9958 21.0859 18.241 21.0859 18.5447L21.132 18.568V17.9257H21.109Z" fill="#232C6A"/>
<path d="M22.0641 12.0742L21.9835 12.6465C21.949 10.8129 22.0296 9.96034 21.9605 8.39538L21.9835 8.47713C22.0065 8.24355 21.8108 8.11508 22.0411 5.59246C22.0411 5.5107 22.018 5.5107 22.0411 5.33552L21.995 5.76764C21.972 5.5107 21.9375 5.27713 21.9259 4.92676C21.9259 4.85669 21.949 4.82165 21.9605 4.82165C21.9605 4.52968 21.9259 4.14428 21.8108 3.81727C21.7878 3.71216 21.7763 3.60705 21.7418 3.50194C21.5576 3.23333 21.5921 3.38516 21.1086 2.70778C21.2697 2.98808 20.7862 2.45085 20.8208 2.56764C20.7862 2.5326 20.7287 2.46253 20.6711 2.41581C20.2797 2.10048 19.3587 1.9253 19.14 2.00705C19.14 2.00705 19.612 2.03041 20.0725 2.27567C20.533 2.50924 20.9014 2.94136 21.005 3.15158C20.602 2.69611 20.8898 3.03479 20.9474 3.15158H20.9935C21.2007 3.46691 21.1431 3.50194 21.2122 3.66545C21.2122 3.66545 21.2122 3.66545 21.2122 3.65377H21.2007C21.2007 3.65377 21.2007 3.61873 21.2237 3.64209C21.2237 3.64209 21.2467 3.64209 21.2813 3.73552H21.2697C21.3503 3.85231 21.4079 4.09756 21.4309 4.21435H21.3964C21.5691 4.47129 21.3158 5.96618 21.3273 6.31654C21.2697 6.66691 21.3388 7.09903 21.3158 7.54282C21.3043 8.24355 21.2582 7.89319 21.2237 8.24355C21.2007 8.67567 21.2697 8.15012 21.2697 8.3253L21.2122 8.85085C21.2122 8.5472 21.1777 8.7107 21.1661 8.7691C21.1661 9.22457 21.0856 9.93698 21.1661 10.0771C21.1316 10.6844 21.0971 10.6844 21.0856 10.953C21.0971 10.8596 21.1201 10.6961 21.1316 10.6844C21.0971 10.9297 21.1316 10.8012 21.1431 10.6961C21.1777 11.0698 20.9935 12.6348 21.0856 12.7049H21.074C21.1431 12.7866 21.2122 12.6582 21.2467 12.9151L21.2122 13.0903L21.2467 13.3472C21.2237 13.5224 21.2122 13.4406 21.2007 13.4406C21.2352 13.8727 21.2007 14.4567 21.1892 14.9822L21.3734 14.4333C21.3273 14.8654 21.2467 15.6596 21.3043 15.7414L21.2467 15.9983C21.1316 16.8742 21.2928 16.6056 21.2582 16.956L21.1892 17.3998V16.9676C21.1546 17.3998 21.1316 17.5749 21.0856 17.9253V17.8903V17.9487C21.0856 17.9487 21.1431 18.229 21.1431 18.5326C21.1431 18.9647 21.1776 19.3151 21.1086 20.0041L21.1776 20.1793L21.1316 20.7049H21.074C21.074 20.191 21.0625 19.2217 21.051 18.5676H21.028C21.028 18.9297 21.0395 19.3852 21.051 19.6538C21.051 19.7822 20.9819 20.0976 20.9474 19.864L21.005 20.1092C21.005 20.7516 21.028 21.1136 20.9819 21.3589C20.9244 21.6158 20.8553 21.9078 20.4869 22.3049L20.5675 22.2581C20.4409 22.4333 20.2797 22.5852 20.2106 22.5852C19.9458 22.7837 19.6235 22.8771 19.3357 22.8888C19.0709 22.8888 18.6565 22.8538 18.4147 22.8187L18.2996 22.8888C18.1269 22.8888 17.8736 22.7837 17.793 22.8888L17.4246 22.9122C17.1944 22.9122 17.0447 22.9472 16.78 22.9122C16.7684 22.9122 16.7454 22.9122 16.7339 22.9122C16.2043 22.8888 16.7339 22.9706 16.1353 22.9355C15.9396 22.8888 15.9165 23.0173 15.6287 23.0056L15.3294 22.9122C14.7998 22.8538 14.7077 22.9472 13.9364 22.9472C13.568 22.9122 13.3838 22.8304 13.6371 22.7603C13.3032 22.8421 13.4874 22.8187 13.0385 22.8538C12.9694 22.8187 13.0154 22.8071 13.119 22.7837C12.7161 22.737 12.8773 22.8187 12.578 22.8187C12.4859 22.8888 12.3938 22.9939 12.2902 22.9939L12.4053 23.0173C12.0829 23.0523 11.7376 23.064 11.3692 23.0406V23.0056L10.9893 23.0173L10.9662 22.9706H10.4021L10.4827 22.9939C10.3561 22.9939 9.91862 23.0173 9.67686 22.9939V22.9706C8.98613 22.9005 8.41051 22.9939 7.59314 23.0056L7.69675 22.9589C7.42045 22.9122 7.61616 23.029 7.29382 23.0056V22.9472C6.98299 23.029 6.9024 22.9355 6.69518 22.9005L6.78728 22.9822H6.40737C5.99293 22.9355 6.1541 22.8654 6.21166 22.8304L5.92386 22.8888L5.86629 22.8187C5.65907 22.9005 5.65907 22.8071 5.29068 22.8538C5.25614 22.8304 5.34824 22.8071 5.23312 22.8071L4.63448 22.9005L4.99136 22.8538L4.94531 22.9589C4.5654 23.0406 4.43877 22.9589 4.16247 22.9706L4.34667 22.9355C3.9092 22.9589 3.88618 22.9122 3.63291 22.9005C3.71349 22.9238 3.82862 22.9472 3.64442 22.9589C3.51779 22.9589 3.57535 22.9238 3.44871 22.9122C3.4372 22.9706 3.06881 23.0173 2.85007 22.9706C2.85007 22.9706 2.85007 22.9472 2.8731 22.9472C2.81554 22.9472 2.781 22.9706 2.6889 22.9472L2.75797 22.8771C2.6889 22.8888 2.61983 22.9122 2.56226 22.9122C2.44714 22.8654 2.25143 22.8421 2.28597 22.8071H2.35504C2.05572 22.7019 1.79094 22.4917 1.59523 22.2348L1.62977 22.1881C1.49162 22.1764 1.39952 21.7326 1.33045 21.8027C1.2844 21.6275 1.14625 21.1019 1.27289 21.1954C1.27289 20.4363 1.16928 19.9457 1.22684 18.9647C1.31894 18.6144 1.29591 17.6333 1.30742 16.991C1.26137 15.7414 1.23835 14.8654 1.20381 13.6509C1.34196 12.88 1.15776 11.7238 1.23835 10.8946L1.18079 10.6727C1.26137 10.1238 1.15776 9.28297 1.24986 8.51216C1.22684 8.29027 1.21533 8.20851 1.21533 8.17348C1.21533 8.20851 1.20381 8.26691 1.16928 8.27859C1.1923 8.05669 1.16928 7.61289 1.22684 7.64793V7.70632C1.30742 7.74136 1.20381 7.04063 1.26137 6.79538L1.1923 6.93552V6.51508L1.21533 6.63187C1.16928 6.1764 1.15776 5.791 1.15776 5.42895C1.15776 5.06691 1.15776 4.72822 1.20381 4.49465C1.30742 3.99246 1.57221 3.53698 2.1248 3.11654C1.99816 3.28005 2.34353 2.95304 2.40109 3.04647C2.74646 3.03479 2.96519 2.90632 3.35661 2.88297C3.35661 2.88297 3.35661 2.88297 3.37964 2.87129H3.98979C3.6214 2.98808 4.42726 2.78954 4.0934 2.88297C5.6821 2.96472 7.7428 2.88297 9.58477 2.918L9.50418 2.89465C9.96467 2.89465 10.5518 2.85961 10.8972 2.90632C11.254 2.95304 11.6685 2.83625 11.8066 2.82457C12.1981 2.77786 12.5434 2.87129 12.3823 2.87129C12.7967 2.85961 13.1881 2.7545 13.7637 2.80121C13.9594 2.89465 15.3294 2.70778 15.3524 2.81289C16.0892 2.88297 16.78 2.7545 17.5743 2.81289C17.5743 2.81289 17.5513 2.81289 17.5283 2.82457L19.14 2.49757L18.6795 2.13552L17.2865 1.84355L13.4989 1.90194L10.4712 1.78516L3.11485 1.82019C2.94217 1.84355 2.6889 1.89027 2.49319 1.94866C1.60674 2.03041 0.651223 2.74282 0.317366 3.77056C0.121657 4.27275 0.156194 4.85669 0.156194 5.23041C0.156194 5.65085 0.156194 6.05961 0.121657 6.45669L0.190731 6.49173C0.190731 6.93552 0.156194 6.91216 0.144682 7.01727C0.156194 11.1633 0.248293 15.426 0.167707 19.1516C0.121657 19.5136 0.144682 20.5998 0.0986328 20.88C0.0986328 21.5224 0.328879 22.41 0.83542 22.9589C1.33045 23.5545 2.05572 23.9282 2.79251 23.9866H2.73495C2.98822 24.01 3.17242 23.9866 3.35661 23.9866C3.37964 23.9866 3.37964 23.9983 3.35661 24.01C3.98979 23.9516 4.99136 24.01 5.7742 24.0333H5.72815C10.264 24.0567 14.4775 23.9282 18.9673 24.0217C19.5314 24.0917 20.3027 23.9165 20.8668 23.4961C21.4424 23.0757 21.8684 22.41 22.0065 21.6742C22.0411 21.4873 22.0526 21.3005 22.0526 21.1136V20.6581V19.7472C22.0526 19.1399 22.0526 18.5326 22.0871 17.9253C22.1562 17.4815 22.0986 12.553 22.0756 12.1209L22.0641 12.0742Z" fill="#232C6A"/>
<path d="M21.9717 4.82031V4.84367C21.9717 4.84367 21.9947 4.82031 21.9717 4.82031Z" fill="#232C6A"/>
<path d="M21.1888 14.9921V14.957L21.1543 15.0855L21.1888 14.9921Z" fill="#232C6A"/>
<path d="M20.7055 2.3816C20.5558 2.27649 20.6019 2.33488 20.6825 2.40496C20.8321 2.51007 20.9357 2.59182 20.9357 2.59182C20.8667 2.52175 20.7861 2.45167 20.7055 2.3816Z" fill="#232C6A"/>
<path d="M20.9591 3.14055L20.9131 3.11719C20.9822 3.18726 20.9822 3.17558 20.9591 3.14055Z" fill="#232C6A"/>
<path d="M16.1583 0.957031H16.1353C16.1123 0.957031 16.1123 0.96871 16.1238 0.980389C16.1468 0.980389 16.1468 0.980389 16.1583 0.96871V0.957031Z" fill="#232C6A"/>
<path d="M16.0553 3.72644C16.0553 3.72644 16.0553 3.72644 16.0668 3.72644C16.0668 3.72644 16.0783 3.70309 16.0783 3.69141H16.0322L16.0437 3.72644H16.0553Z" fill="#232C6A"/>
<path d="M15.0874 4.06435L15.168 4.02932C15.2025 4.13443 15.1219 4.18114 15.191 4.27457H15.168C15.168 4.27457 15.3407 4.28625 15.1104 4.43808C15.1104 4.43808 15.1334 4.43808 15.1104 4.44976L15.1565 4.4264C15.1565 4.4264 15.214 4.44976 15.2255 4.47311C15.2255 4.47311 15.2025 4.47311 15.191 4.47311V4.51983L15.1565 4.53151C15.191 4.54319 15.2946 4.53151 15.237 4.57822C15.3176 4.56654 15.2831 4.60158 15.3291 4.5899C15.3291 4.5899 15.3061 4.5899 15.2946 4.5899C15.2946 4.61326 15.3291 4.65997 15.3637 4.67165C15.3637 4.67165 15.5248 4.57822 15.6169 4.55486C15.5939 4.5899 15.6169 4.55486 15.6515 4.55486H15.6285C15.6285 4.55486 15.6975 4.53151 15.709 4.51983C15.709 4.51983 15.709 4.51983 15.6975 4.51983C15.6975 4.51983 15.686 4.51983 15.6745 4.51983C15.6745 4.51983 15.6515 4.51983 15.663 4.51983V4.49647H15.709C15.6285 4.48479 15.8242 4.39136 15.8357 4.37968C15.8932 4.35632 15.8242 4.33297 15.8472 4.30961C15.8587 4.27457 15.9048 4.28625 15.9393 4.27457C15.9623 4.25121 15.8932 4.27457 15.8932 4.27457L15.9508 4.23954C15.9508 4.23954 15.9853 4.23954 15.9969 4.23954C15.9969 4.21618 16.0774 4.16946 15.9969 4.15778C16.0314 4.12275 16.0659 4.12275 16.0774 4.11107C16.0659 4.11107 16.0544 4.12275 16.0314 4.12275C16.0659 4.11107 16.0314 4.12275 16.0199 4.12275C15.9853 4.09939 16.1695 4.00596 16.0774 4.00596H16.089C16.0199 4.00596 15.9508 4.00596 15.9163 3.99428H15.9508L15.9163 3.97092C15.9393 3.97092 15.9508 3.97092 15.9623 3.97092C15.9278 3.94757 15.9623 3.91253 15.9738 3.87749L15.7896 3.91253C15.7896 3.91253 15.9163 3.84246 15.8587 3.83078H15.9163C16.0314 3.7607 15.8702 3.78406 15.9048 3.7607L15.9738 3.73735V3.7607C15.9738 3.7607 16.0314 3.72567 16.0774 3.70231C16.0774 3.70231 16.0199 3.67895 16.0199 3.66727C16.0199 3.64392 15.9853 3.62056 16.0544 3.58552H15.9853L16.0314 3.55048H16.089C16.089 3.55048 16.112 3.63224 16.112 3.67895H16.135C16.135 3.67895 16.112 3.63224 16.112 3.62056C16.112 3.62056 16.181 3.5972 16.2156 3.60888H16.158C16.158 3.51545 16.158 3.51545 16.2156 3.4337H16.1926C16.1926 3.4337 16.158 3.41034 16.2041 3.41034C16.2041 3.36362 16.2501 3.31691 16.3192 3.28187H16.2501C16.2501 3.28187 16.3537 3.24684 16.2501 3.24684L16.2271 3.22348C16.2271 3.22348 16.1926 3.20012 16.2271 3.18844C16.2501 3.1534 16.1695 3.18844 16.2041 3.1534C16.2501 3.1534 16.1235 3.14173 16.135 3.11837H16.2271C16.2271 3.11837 16.1926 3.05997 16.1926 3.01326C16.2271 2.9899 16.3077 2.97822 16.3768 2.9899C16.2962 2.96654 16.3192 2.9899 16.2847 2.95486C16.3192 2.95486 16.3307 2.95486 16.3537 2.95486C16.3998 2.93151 16.3192 2.94319 16.3192 2.91983C16.2501 2.91983 16.1465 2.91983 16.1465 2.90815H16.1235C16.1235 2.90815 16.0774 2.87311 16.1005 2.84976H16.135L16.1235 2.8264H16.1695L16.158 2.79136H16.1465C16.1465 2.79136 16.1235 2.768 16.1465 2.74465H16.1695C16.2386 2.70961 16.1465 2.67457 16.135 2.61618H16.181C16.181 2.61618 16.112 2.61618 16.135 2.59282H16.1926C16.112 2.56946 16.2041 2.56946 16.2386 2.55778H16.158L16.1695 2.54611C16.1926 2.52275 16.2616 2.53443 16.3077 2.54611H16.2501L16.3192 2.52275C16.2386 2.51107 16.3307 2.51107 16.2847 2.48771C16.3077 2.48771 16.3307 2.48771 16.3307 2.48771L16.2386 2.45267L16.2847 2.47603H16.181C16.1005 2.45267 16.181 2.441 16.1695 2.42932H16.2041C16.2041 2.42932 16.2271 2.41764 16.2386 2.39428C16.2156 2.39428 16.1926 2.39428 16.181 2.39428C16.181 2.39428 16.2156 2.39428 16.2271 2.39428C16.158 2.39428 16.1235 2.37092 16.158 2.35924H16.181C16.181 2.35924 16.158 2.35924 16.1695 2.34757C16.1926 2.34757 16.135 2.32421 16.181 2.32421H16.1926L16.2156 2.25413H16.2731C16.1926 2.25413 16.3077 2.2191 16.2041 2.2191C16.2616 2.20742 16.1695 2.1607 16.2847 2.17238C16.2847 2.12567 16.181 2.10231 16.2386 2.04392C16.3307 2.02056 16.3077 1.96216 16.3192 1.92713C16.2731 1.85705 16.2386 1.81034 16.2156 1.72859C16.3537 1.68187 16.1695 1.6118 16.2501 1.56508H16.1926C16.2731 1.51837 16.1695 1.47165 16.2616 1.42494C16.2386 1.42494 16.2271 1.41326 16.2271 1.40158C16.2271 1.40158 16.2156 1.40158 16.181 1.40158C16.2041 1.3899 16.181 1.36654 16.2386 1.36654C16.3077 1.36654 16.2041 1.33151 16.2616 1.31983H16.1926L16.2041 1.30815H16.2156C16.0544 1.20304 16.2847 1.15632 16.135 1.06289C16.2156 1.07457 16.089 1.03954 16.181 1.03954C16.2962 1.01618 16.158 0.992821 16.1235 0.969463C16.1235 0.969463 16.1235 0.969463 16.112 0.969463V0.934426C16.2271 0.957784 16.0314 0.911069 16.1235 0.934426C16.2041 0.840996 16.1235 0.712529 16.158 0.607419H16.135C16.135 0.607419 16.1005 0.549025 16.1465 0.525667C16.1926 0.50231 16.0774 0.478952 16.0659 0.467273C16.0199 0.443915 16.112 0.420558 16.112 0.432237C16.1005 0.408879 15.9969 0.385521 16.0429 0.350485C16.135 0.350485 15.9508 0.257054 16.0544 0.257054C16.1235 0.210339 15.9969 0.175302 16.0659 0.128587C16.0659 0.128587 16.0659 0.128587 16.0774 0.128587L15.7551 0.0351562L15.3982 0.0585139L15.1104 0.140266L15.168 0.362164L15.0528 0.537346L15.0874 0.969463L15.168 1.0045C15.0298 1.08625 15.191 1.20304 15.0874 1.29647H15.1565C15.1565 1.29647 15.1219 1.31983 15.1104 1.33151C15.1219 1.57676 15.214 1.82202 15.1334 2.04392C15.0874 2.06727 15.1104 2.12567 15.0644 2.14902C15.1449 2.2191 15.1449 2.28917 15.1334 2.37092L15.1449 2.40596C15.1449 2.40596 15.1334 2.40596 15.1219 2.40596C15.1795 2.441 15.1219 2.49939 15.0989 2.54611C15.0874 2.81472 15.214 3.05997 15.1219 3.32859C15.0068 3.45705 15.168 3.5972 15.0759 3.73735C15.0068 3.7607 15.0644 4.05267 15.0874 4.07603V4.06435Z" fill="#232C6A"/>
<path d="M15.2373 4.62496C15.2373 4.62496 15.2488 4.62496 15.2718 4.62496V4.61328C15.2718 4.61328 15.2488 4.61328 15.2488 4.62496H15.2373Z" fill="#232C6A"/>
<path d="M6.94835 0.957031H6.92532C6.9023 0.957031 6.9023 0.96871 6.91381 0.980389C6.93684 0.980389 6.93684 0.980389 6.94835 0.96871V0.957031Z" fill="#232C6A"/>
<path d="M6.84529 3.72644C6.84529 3.72644 6.84529 3.72644 6.8568 3.72644C6.8568 3.72644 6.86831 3.70309 6.86831 3.69141H6.82227L6.83378 3.72644H6.84529Z" fill="#232C6A"/>
<path d="M5.8784 4.06435L5.95898 4.02932C5.99352 4.13443 5.91293 4.18114 5.98201 4.27457H5.95898C5.95898 4.27457 6.13167 4.28625 5.90142 4.43808C5.90142 4.43808 5.92445 4.43808 5.90142 4.44976L5.94747 4.4264C5.94747 4.4264 6.00503 4.44976 6.01654 4.47311C6.01654 4.47311 5.99352 4.47311 5.98201 4.47311V4.51983L5.94747 4.53151C5.98201 4.54319 6.08562 4.53151 6.02806 4.57822C6.10864 4.56654 6.0741 4.60158 6.12015 4.5899C6.12015 4.5899 6.09713 4.5899 6.08562 4.5899C6.08562 4.61326 6.12015 4.65997 6.15469 4.67165C6.15469 4.67165 6.31586 4.57822 6.40796 4.55486C6.38494 4.5899 6.40796 4.55486 6.4425 4.55486H6.41947C6.41947 4.55486 6.48855 4.53151 6.50006 4.51983C6.50006 4.51983 6.50006 4.51983 6.48855 4.51983C6.48855 4.51983 6.47704 4.51983 6.46552 4.51983C6.46552 4.51983 6.4425 4.51983 6.45401 4.51983V4.49647H6.50006C6.41947 4.48479 6.61518 4.39136 6.6267 4.37968C6.68426 4.35632 6.61518 4.33297 6.63821 4.30961C6.64972 4.27457 6.69577 4.28625 6.73031 4.27457C6.75333 4.25121 6.68426 4.27457 6.68426 4.27457L6.74182 4.23954C6.74182 4.23954 6.77636 4.23954 6.78787 4.23954C6.78787 4.21618 6.86845 4.16946 6.78787 4.15778C6.8224 4.12275 6.85694 4.12275 6.86845 4.11107C6.85694 4.11107 6.84543 4.12275 6.8224 4.12275C6.85694 4.11107 6.8224 4.12275 6.81089 4.12275C6.77636 4.09939 6.96055 4.00596 6.86845 4.00596H6.87997C6.81089 4.00596 6.74182 4.00596 6.70728 3.99428H6.74182L6.70728 3.97092C6.73031 3.97092 6.74182 3.97092 6.75333 3.97092C6.71879 3.94757 6.75333 3.91253 6.76484 3.87749L6.58065 3.91253C6.58065 3.91253 6.70728 3.84246 6.64972 3.83078H6.70728C6.8224 3.7607 6.66123 3.78406 6.69577 3.7607L6.76484 3.73735V3.7607C6.76484 3.7607 6.8224 3.72567 6.86845 3.70231C6.86845 3.70231 6.81089 3.67895 6.81089 3.66727C6.81089 3.64392 6.77636 3.62056 6.84543 3.58552H6.77636L6.8224 3.55048H6.87997C6.87997 3.55048 6.90299 3.63224 6.90299 3.67895H6.92602C6.92602 3.67895 6.90299 3.63224 6.90299 3.62056C6.90299 3.62056 6.97206 3.5972 7.0066 3.60888H6.94904C6.94904 3.51545 6.94904 3.51545 7.0066 3.4337H6.98358C6.98358 3.4337 6.94904 3.41034 6.99509 3.41034C6.99509 3.36362 7.04114 3.31691 7.11021 3.28187H7.04114C7.04114 3.28187 7.14475 3.24684 7.04114 3.24684L7.01811 3.22348C7.01811 3.22348 6.98358 3.20012 7.01811 3.18844C7.04114 3.1534 6.96055 3.18844 6.99509 3.1534C7.04114 3.1534 6.9145 3.14173 6.92602 3.11837H7.01811C7.01811 3.11837 6.98358 3.05997 6.98358 3.01326C7.01811 2.9899 7.0987 2.97822 7.16777 2.9899C7.08719 2.96654 7.11021 2.9899 7.07568 2.95486C7.11021 2.95486 7.12172 2.95486 7.14475 2.95486C7.1908 2.93151 7.11021 2.94319 7.11021 2.91983C7.04114 2.91983 6.93753 2.91983 6.93753 2.90815H6.9145C6.9145 2.90815 6.86845 2.87311 6.89148 2.84976H6.92602L6.9145 2.8264H6.96055L6.94904 2.79136H6.93753C6.93753 2.79136 6.9145 2.768 6.93753 2.74465H6.96055C7.02963 2.70961 6.93753 2.67457 6.92602 2.61618H6.97206C6.97206 2.61618 6.90299 2.61618 6.92602 2.59282H6.98358C6.90299 2.56946 6.99509 2.56946 7.02963 2.55778H6.94904L6.96055 2.54611C6.98358 2.52275 7.05265 2.53443 7.0987 2.54611H7.04114L7.11021 2.52275C7.02963 2.51107 7.12172 2.51107 7.07568 2.48771C7.0987 2.48771 7.12172 2.48771 7.12172 2.48771L7.02963 2.45267L7.07568 2.47603H6.97206C6.89148 2.45267 6.97206 2.441 6.96055 2.42932H6.99509C6.99509 2.42932 7.01811 2.41764 7.02963 2.39428C7.0066 2.39428 6.98358 2.39428 6.97206 2.39428C6.97206 2.39428 7.0066 2.39428 7.01811 2.39428C6.94904 2.39428 6.9145 2.37092 6.94904 2.35924H6.97206C6.97206 2.35924 6.94904 2.35924 6.96055 2.34757C6.98358 2.34757 6.92602 2.32421 6.97206 2.32421H6.98358L7.0066 2.25413H7.06416C6.98358 2.25413 7.0987 2.2191 6.99509 2.2191C7.05265 2.20742 6.96055 2.1607 7.07568 2.17238C7.07568 2.12567 6.97206 2.10231 7.02963 2.04392C7.12172 2.02056 7.0987 1.96216 7.11021 1.92713C7.06416 1.85705 7.02963 1.81034 7.0066 1.72859C7.14475 1.68187 6.96055 1.6118 7.04114 1.56508H6.98358C7.06416 1.51837 6.96055 1.47165 7.05265 1.42494C7.02963 1.42494 7.01811 1.41326 7.01811 1.40158C7.01811 1.40158 7.0066 1.40158 6.97206 1.40158C6.99509 1.3899 6.97206 1.36654 7.02963 1.36654C7.0987 1.36654 6.99509 1.33151 7.05265 1.31983H6.98358L6.99509 1.30815H7.0066C6.84543 1.20304 7.07568 1.15632 6.92602 1.06289C7.0066 1.07457 6.87997 1.03954 6.97206 1.03954C7.08719 1.01618 6.94904 0.992821 6.9145 0.969463C6.9145 0.969463 6.9145 0.969463 6.90299 0.969463V0.934426C7.01811 0.957784 6.8224 0.911069 6.9145 0.934426C6.99509 0.840996 6.9145 0.712529 6.94904 0.607419H6.92602C6.92602 0.607419 6.89148 0.549025 6.93753 0.525667C6.98358 0.50231 6.86845 0.478952 6.85694 0.467273C6.81089 0.443915 6.90299 0.420558 6.90299 0.432237C6.89148 0.408879 6.78787 0.385521 6.83392 0.350485C6.92602 0.350485 6.74182 0.257054 6.84543 0.257054C6.9145 0.210339 6.78787 0.175302 6.85694 0.128587C6.85694 0.128587 6.85694 0.128587 6.86845 0.128587L6.54611 0.0351562L6.18923 0.0585139L5.90142 0.140266L5.95898 0.362164L5.84386 0.537346L5.8784 0.969463L5.95898 1.0045C5.82083 1.08625 5.98201 1.20304 5.8784 1.29647H5.94747C5.94747 1.29647 5.91293 1.31983 5.90142 1.33151C5.91293 1.57676 6.00503 1.82202 5.92445 2.04392C5.8784 2.06727 5.90142 2.12567 5.85537 2.14902C5.93596 2.2191 5.93596 2.28917 5.92445 2.37092L5.93596 2.40596C5.93596 2.40596 5.92445 2.40596 5.91293 2.40596C5.97049 2.441 5.91293 2.49939 5.88991 2.54611C5.8784 2.81472 6.00503 3.05997 5.91293 3.32859C5.79781 3.45705 5.95898 3.5972 5.86688 3.73735C5.79781 3.7607 5.85537 4.05267 5.8784 4.07603V4.06435Z" fill="#232C6A"/>
<path d="M6.02734 4.62496C6.02734 4.62496 6.03886 4.62496 6.06188 4.62496V4.61328C6.06188 4.61328 6.03886 4.61328 6.03886 4.62496H6.02734Z" fill="#232C6A"/>
<path d="M13.5916 8.76941C13.5916 8.75773 13.5916 8.74605 13.6031 8.73438L13.5801 8.76941H13.5916Z" fill="#232C6A"/>
<path d="M4.79569 8.94527L4.78418 8.93359L4.79569 8.94527Z" fill="#232C6A"/>
<path d="M4.81892 8.92183C4.81892 8.92183 4.81892 8.94519 4.7959 8.94519C4.81892 8.96855 4.85346 8.96855 4.87648 8.94519C4.87648 8.92183 4.83044 8.92184 4.81892 8.91016V8.92183Z" fill="#232C6A"/>
<path d="M20.7984 9.41012C20.7984 9.41012 20.7984 9.41012 20.7984 9.39844L20.7754 9.42179H20.7984V9.41012Z" fill="#232C6A"/>
<path d="M17.0909 9.02726C17.0909 9.02726 17.0909 9.02726 17.0909 9.01558C17.0678 9.01558 17.0103 9.00391 16.9297 9.00391V9.05062L17.0909 9.03894V9.02726Z" fill="#232C6A"/>
<path d="M18.5991 9.99549L18.4494 9.91374C18.9214 9.8787 19.1402 9.96045 19.5546 9.89038L19.5316 9.91374C19.5892 9.9371 19.6237 9.73856 20.2799 9.97213C20.2799 9.97213 20.3029 9.97213 20.349 9.98381L20.2338 9.9371C20.3029 9.91374 20.3605 9.8787 20.4526 9.86702C20.4756 9.86702 20.4756 9.89038 20.4756 9.90206H20.6943L20.7634 9.9371C20.8325 9.90206 20.7979 9.79695 20.9821 9.85534C20.9131 9.77359 21.0742 9.80863 21.0512 9.76191C21.0512 9.76191 21.0857 9.78527 21.0973 9.79695C21.2009 9.79695 21.4081 9.76191 21.4541 9.72688C21.4541 9.72688 21.0282 9.56337 20.9246 9.46994C21.0742 9.4933 20.9591 9.46994 20.9246 9.43491V9.45826C20.821 9.43491 20.821 9.38819 20.7749 9.37651C20.7749 9.37651 20.7749 9.37651 20.7749 9.38819C20.7749 9.38819 20.7749 9.38819 20.7749 9.39987C20.7749 9.39987 20.7749 9.42323 20.7519 9.41155C20.7519 9.41155 20.6483 9.41155 20.6253 9.41155V9.36483C20.5562 9.44658 20.1763 9.24804 20.0842 9.23637C19.9921 9.17797 19.877 9.24804 19.7733 9.22469C19.5891 9.21301 19.6812 9.16629 19.5891 9.13126C19.474 9.1079 19.6122 9.17797 19.5661 9.17797L19.428 9.11958C19.5086 9.11958 19.4625 9.08454 19.451 9.07286C19.3359 9.07286 19.1517 8.99111 19.1171 9.07286C18.956 9.03783 18.956 9.00279 18.8869 8.99111C18.9099 9.00279 18.956 9.01447 18.956 9.03782C18.8984 9.00279 18.9214 9.03783 18.956 9.0495C18.8639 9.08454 18.4494 8.89768 18.4379 8.99111C18.4379 8.99111 18.4494 9.1079 18.3804 9.14293L18.3343 9.1079L18.2652 9.14293C18.2652 9.14293 18.2422 9.1079 18.2422 9.09622C18.1271 9.13126 17.9774 9.09622 17.8393 9.08454L17.9774 9.2714C17.8623 9.22469 17.6666 9.14293 17.6436 9.20133L17.5745 9.14293C17.3443 9.02615 17.4133 9.18965 17.3212 9.15461L17.2061 9.08454H17.3212C17.2061 9.0495 17.1601 9.02615 17.068 8.97943H17.0564C17.0564 8.97943 16.9874 9.03782 16.9068 9.03782C16.7917 9.03782 16.7111 9.07286 16.5269 9.00279L16.4808 9.07286L16.3427 9.02615V8.96775C16.4808 8.96775 16.7226 8.94439 16.8953 8.94439V8.92104C16.7917 8.92104 16.6765 8.94439 16.619 8.94439C16.5844 8.94439 16.5039 8.87432 16.5614 8.83929L16.5039 8.89768C16.17 8.89768 16.1585 8.89768 15.8131 8.83929L15.8477 8.86264C15.7786 8.87432 15.7095 8.89768 15.6865 8.85096C15.4793 8.85096 15.2605 8.80425 15.1224 8.73418L15.0878 8.80425C15.0878 8.80425 14.9727 8.69914 14.9497 8.80425L14.8576 8.82761C14.8 8.82761 14.754 8.86264 14.6849 8.82761C14.6849 8.82761 14.6849 8.82761 14.6734 8.82761C14.5353 8.80425 14.6734 8.886 14.5122 8.85096C14.4662 8.80425 14.4547 8.93272 14.3741 8.92104L14.2935 8.82761C14.1553 8.76921 14.1323 8.86264 13.9251 8.86264C13.833 8.82761 13.7754 8.74585 13.8445 8.67578C13.7524 8.75753 13.7985 8.73418 13.6833 8.76921C13.6603 8.73418 13.6833 8.7225 13.7064 8.69914C13.6028 8.65242 13.6373 8.73418 13.5682 8.73418C13.5452 8.80425 13.5222 8.90936 13.4991 8.90936L13.5337 8.93272C13.4531 8.96775 13.361 8.97943 13.2574 8.95607V8.92104L13.1538 8.93272V8.886L13.0041 8.89768H13.0271C13.0271 8.89768 12.8775 8.93272 12.8199 8.89768V8.87432C12.6357 8.80425 12.4861 8.89768 12.2788 8.90936L12.3019 8.86264C12.2328 8.81593 12.2788 8.93272 12.1983 8.90936V8.85096C12.1177 8.93272 12.0946 8.83929 12.0371 8.80425L12.0601 8.886H11.9565C11.8414 8.83929 11.8874 8.76921 11.9104 8.73418L11.8414 8.79257V8.7225C11.7723 8.80425 11.7723 8.71082 11.6802 8.75753C11.6802 8.73418 11.6917 8.71082 11.6687 8.71082L11.5075 8.80425L11.5996 8.75753V8.86264C11.4845 8.94439 11.45 8.86264 11.3809 8.87432L11.4269 8.83929C11.3118 8.86264 11.3003 8.81593 11.2427 8.80425C11.2658 8.82761 11.2888 8.85096 11.2427 8.86264C11.2082 8.86264 11.2197 8.82761 11.1967 8.81593C11.1967 8.886 11.1046 8.92104 11.0355 8.886V8.86264C11.0125 8.86264 11.001 8.886 10.978 8.87432L11.001 8.80425L10.9319 8.87432C10.9319 8.87432 10.8283 8.90936 10.8283 8.86264H10.8513L10.529 8.82761V8.76921C10.4944 8.85096 10.3448 8.73418 10.3563 8.83929C10.2987 8.78089 10.1145 8.87432 10.1491 8.75753C9.94185 8.75753 9.82672 8.86264 9.56194 8.80425C9.46984 8.71082 9.21657 8.73418 9.0554 8.7225C8.73306 8.76921 8.52583 8.80425 8.19198 8.82761C7.99627 8.68746 7.69695 8.87432 7.47821 8.79257L7.42065 8.85096C7.28251 8.76921 7.06377 8.87432 6.85655 8.78089C6.8105 8.80425 6.78748 8.81593 6.77596 8.81593C6.77596 8.81593 6.79899 8.82761 6.79899 8.86264C6.74143 8.83929 6.6263 8.86264 6.63782 8.80425H6.64933C6.64933 8.7225 6.47664 8.82761 6.40757 8.76921L6.44211 8.83929H6.3385L6.37303 8.81593C5.90103 8.97943 5.69381 8.74585 5.24483 8.89768C5.30239 8.81593 5.15273 8.94439 5.15273 8.85096C5.03761 8.73418 4.94551 8.87432 4.85341 8.90936C4.85341 8.90936 4.85341 8.90936 4.85341 8.92104H4.69224C4.78434 8.80425 4.57712 9.00279 4.66921 8.90936C4.25477 8.82761 3.71369 8.90936 3.23018 8.87432L3.2532 8.89768C3.12657 8.89768 2.97691 8.93272 2.88481 8.886C2.79271 8.83929 2.67759 8.95607 2.64305 8.96775C2.53944 9.01447 2.44734 8.92104 2.49339 8.92104C2.38978 8.93272 2.28617 9.03783 2.13651 8.99111C2.09046 8.89768 1.72207 9.08454 1.72207 8.97943C1.52636 8.90936 1.34216 9.03783 1.13494 8.97943C1.13494 8.97943 1.13494 8.97943 1.13494 8.96775L0.708984 9.29476L0.824107 9.6568L1.1925 9.94877L2.18256 9.89038L2.97691 10.0072L4.91097 9.97213L5.04912 9.89038C5.42903 10.0305 5.91254 9.86702 6.32698 9.97213V9.90206C6.45362 9.90206 6.44211 9.9371 6.47664 9.94877C7.54729 9.9371 8.65247 9.84366 9.6195 9.92542C9.7116 9.97213 9.99941 9.94877 10.0685 9.99549C10.3793 9.91374 10.7132 9.91374 11.024 9.92542H11.0125H11.1621C11.1621 9.92542 11.1621 9.9371 11.1621 9.94877C11.3233 9.89038 11.5881 9.94877 11.7953 9.97213H11.7838C12.9696 9.99549 14.0748 9.86702 15.2605 9.96045C15.8131 10.0772 16.4463 9.91374 17.0795 10.0072C17.1946 10.0772 18.4725 10.0188 18.5876 9.99549H18.5991Z" fill="#232C6A"/>
<path d="M17.8394 9.10922H17.8509L17.8164 9.0625L17.8394 9.10922Z" fill="#232C6A"/>
<path d="M21.0974 9.84363C21.0974 9.84363 21.1204 9.83195 21.0974 9.80859C21.0513 9.80859 21.0283 9.80859 21.0283 9.80859C21.0513 9.80859 21.0744 9.83195 21.0974 9.84363Z" fill="#232C6A"/>
</g>
<defs>
<clipPath id="clip0_1022_6546">
<rect width="22" height="24" fill="white" transform="translate(0.110352)"/>
</clipPath>
</defs>
</svg>
