<svg width="25" height="22" viewBox="0 0 25 22" fill="none" xmlns="http://www.w3.org/2000/svg">
<g clip-path="url(#clip0_980_6673)">
<path d="M7.12305 18.7074C7.12305 18.7074 7.13386 18.7074 7.13927 18.7074C7.15008 18.6969 7.16089 18.6863 7.17171 18.6758L7.12305 18.7074Z" fill="#232C6A"/>
<path d="M9.78857 18.7857C9.78857 18.7857 9.79939 18.7857 9.80479 18.7857C9.80479 18.7804 9.80479 18.7699 9.78857 18.7857Z" fill="#232C6A"/>
<path d="M0.786799 19.543C0.770579 19.5693 0.765172 19.5851 0.759766 19.601C0.765172 19.5851 0.770579 19.5641 0.786799 19.543Z" fill="#232C6A"/>
<path d="M14.5787 21.8412C14.5787 21.8412 14.5733 21.8412 14.5679 21.8412C14.5787 21.8412 14.5841 21.8412 14.5949 21.8465L14.5787 21.8359V21.8412Z" fill="#232C6A"/>
<path d="M14.5303 21.8629C14.4708 21.8524 14.5465 21.8471 14.5735 21.8418C14.5087 21.826 14.4438 21.826 14.3789 21.8313C14.3789 21.8524 14.5033 21.8471 14.5303 21.8629Z" fill="#232C6A"/>
<path d="M1.70564 19.918L1.69482 19.9338C1.69482 19.9338 1.70564 19.9232 1.70564 19.918Z" fill="#232C6A"/>
<path d="M22.0401 21.7695L22.0239 21.8012C22.0239 21.8012 22.0401 21.7801 22.0401 21.7695Z" fill="#232C6A"/>
<path d="M7.17188 18.6746L7.1935 18.6641C7.1935 18.6641 7.18269 18.6693 7.17188 18.6746Z" fill="#232C6A"/>
<path d="M12.2486 18.8047C12.2486 18.8047 12.254 18.8205 12.2594 18.8258H12.2648L12.2432 18.8047H12.2486Z" fill="#232C6A"/>
<path d="M24.3596 19.8937C24.3596 19.8937 24.365 19.8885 24.3704 19.8832L24.3271 19.8516C24.3271 19.8516 24.3488 19.8885 24.3596 19.8937Z" fill="#232C6A"/>
<path d="M15.6223 18.9391C15.6223 18.9391 15.6331 18.9338 15.6331 18.9285C15.5736 18.918 15.4222 18.918 15.2276 18.918L15.2168 18.9549L15.6223 18.9391Z" fill="#232C6A"/>
<path d="M19.3151 19.8184L18.9528 19.7446C20.1099 19.7077 20.6451 19.7868 21.6345 19.7235L21.5805 19.7394C21.7264 19.7552 21.8075 19.5865 23.3971 19.7921C23.4566 19.7973 23.4457 19.7868 23.4944 19.8079C23.4728 19.7973 23.462 19.7921 23.4241 19.7815L23.289 19.7604C23.4836 19.7446 23.516 19.6972 23.6458 19.7394C23.6674 19.7552 23.6674 19.7763 23.662 19.7868C23.7485 19.8184 23.8296 19.8817 23.8891 19.9555C23.8891 19.9871 23.8891 20.0188 23.8891 20.0504C23.9377 20.1189 24.0621 20.0188 24.0134 20.3298C24.0891 20.1664 24.0567 20.5407 24.0945 20.488C24.0837 20.5143 24.0729 20.5565 24.0567 20.5987C24.0675 20.8517 24.0837 21.3368 24.1216 21.4528C24.1216 21.4528 24.2784 20.4458 24.3541 20.1927C24.3378 20.5407 24.3703 20.2771 24.3865 20.2138L24.3649 20.1927C24.3649 19.9977 24.3865 19.9819 24.3649 19.8764C24.3649 19.8764 24.3595 19.8817 24.3541 19.887L24.3649 19.8975C24.3649 19.8975 24.3541 19.9081 24.3432 19.8975C24.3324 19.9028 24.327 19.8975 24.3 19.8448H24.3108C24.2676 19.7763 24.1865 19.6497 24.1432 19.6023L24.1702 19.5759C24.0891 19.5443 23.9107 19.3387 23.6242 19.2543C23.3322 19.1805 23.0511 19.1594 22.9375 19.1542C22.7159 19.1067 22.4455 19.1647 22.1698 19.1436C21.7318 19.1331 21.9481 19.0909 21.7318 19.054C21.4561 19.0276 21.7859 19.0962 21.6778 19.1014L21.348 19.0487C21.5372 19.0487 21.4345 19.0224 21.402 19.0066C21.1155 19.0013 20.6667 18.9327 20.5802 19.0066C20.1964 18.9696 20.1964 18.938 20.0288 18.938C20.0828 18.9538 20.1964 18.9644 20.1964 18.9802C20.0396 18.9486 20.1207 18.9907 20.1856 18.996C19.9477 19.0276 18.9637 18.8589 18.915 18.9433V18.9275C18.8609 18.9907 18.9474 19.0487 18.7852 19.0856L18.6771 19.0593L18.5095 19.0856C18.4014 19.0645 18.4554 19.0487 18.4554 19.0435C18.1851 19.0698 17.812 19.0382 17.4876 19.0276L17.8337 19.1963C17.5579 19.1594 17.0659 19.0804 17.0065 19.1331L16.8389 19.0751C16.2874 18.9696 16.455 19.1225 16.2333 19.0909L15.9576 19.0276H16.2333C15.9576 18.996 15.8494 18.9749 15.6278 18.938C15.6278 18.938 15.6548 18.9433 15.6548 18.9486H15.617C15.5845 18.9802 15.4385 19.0013 15.2439 19.0013C14.9682 18.9907 14.7519 19.0382 14.314 18.9749L14.2058 19.0382L13.876 19.0013V18.9486C14.2004 18.9486 14.8114 18.938 15.2223 18.9275V18.9064C14.9844 18.9064 14.7032 18.9275 14.541 18.9222C14.4599 18.9117 14.2599 18.8589 14.4059 18.8273L14.2545 18.8748C13.4327 18.88 13.4273 18.8853 12.5676 18.8273L12.6433 18.8537C12.4703 18.8695 12.3027 18.8853 12.254 18.8431C11.7404 18.8326 11.2052 18.8009 10.8699 18.7377L10.7942 18.7957C10.6861 18.7957 10.5239 18.7008 10.4698 18.7851L10.2374 18.8115C10.086 18.8115 9.99947 18.8431 9.82646 18.8115C9.82646 18.8115 9.80484 18.8115 9.79402 18.8062C9.45881 18.7851 9.79402 18.8642 9.41015 18.8326C9.2858 18.7904 9.27499 18.9064 9.08575 18.8958L8.89652 18.8115C8.5559 18.764 8.49643 18.8484 8.00443 18.8484C7.76654 18.8168 7.653 18.7482 7.80979 18.6797C7.59353 18.7588 7.71247 18.7324 7.42592 18.7693C7.38267 18.7377 7.4097 18.7324 7.47458 18.7008C7.22047 18.6639 7.31779 18.7271 7.12856 18.7271C7.07449 18.7851 7.00961 18.8853 6.94473 18.8853L7.02042 18.9064C6.81497 18.938 6.5933 18.9538 6.36082 18.9222L6.37163 18.8906L6.12292 18.9064L6.1067 18.8695L5.74987 18.88L5.79853 18.8906C5.71202 18.8906 5.43628 18.9064 5.27949 18.8906V18.8695C4.84155 18.8009 4.4739 18.8906 3.94946 18.8958L4.01975 18.8537C3.84133 18.8115 3.97109 18.9222 3.76023 18.9011L3.74942 18.8484C3.56018 18.9169 3.50612 18.8326 3.38177 18.8062L3.44124 18.8748L3.19794 18.8589C2.93302 18.8378 3.03574 18.7693 3.07359 18.7324L2.88976 18.7904L2.85192 18.7271C2.71675 18.8009 2.71675 18.7166 2.48427 18.7535C2.46264 18.7324 2.52211 18.7166 2.44642 18.706L2.06255 18.7957L2.29503 18.7588L2.268 18.8484C2.05174 18.9169 1.88954 18.8326 1.65705 18.9169C1.71112 18.8958 1.75978 18.8695 1.81925 18.8537C1.42997 18.9591 1.40294 18.9644 1.19208 19.0593C1.26237 19.0329 1.3705 19.0013 1.23534 19.0962C1.14342 19.17 1.15964 19.1067 1.06773 19.17C1.08395 19.2332 0.900126 19.4389 0.76496 19.655C0.759553 19.6497 0.754147 19.6392 0.754147 19.6234C0.73252 19.6866 0.73252 19.7183 0.678454 19.8237L0.635201 19.7341C0.624388 19.8132 0.624388 19.887 0.635201 19.9661C0.581135 20.1031 0.629795 20.3245 0.581135 20.2929C0.581135 20.2771 0.575728 20.2402 0.570322 20.2138L0.548695 21.1048L0.494629 21.1364C0.570322 21.2471 0.467596 21.9325 0.559508 21.8112C0.554102 21.8482 0.548695 21.8903 0.548695 21.9378C0.862279 21.9589 1.46782 21.9009 1.30022 21.9958C1.42457 21.9958 1.5327 21.9958 1.64624 21.9958C1.70031 21.9958 1.75978 21.9905 1.81385 21.9852C1.91657 21.9747 2.0247 21.9694 2.13284 21.9589C2.34369 21.943 2.57618 21.9272 2.88976 21.9589C3.11143 22.0485 3.72779 22.0169 4.13329 22.0274C4.92265 21.9905 5.45791 21.9641 6.24187 21.9272C6.72847 22.0538 7.45295 21.8851 7.9774 21.9536L8.11797 21.9061C8.46399 21.9852 8.99384 21.8903 9.48584 21.9641C9.60479 21.943 9.66967 21.9378 9.6967 21.9325C9.67508 21.9325 9.64264 21.922 9.63182 21.8903C9.77239 21.9114 10.0535 21.8851 10.0319 21.9483H9.99407C9.97244 22.0169 10.4158 21.9272 10.5726 21.98L10.4861 21.9114L10.751 21.922L10.6807 21.9325C11.8269 21.7849 12.3459 21.9958 13.4165 21.8587C13.2759 21.9325 13.6273 21.8218 13.6435 21.9009C13.9139 22.001 14.1464 21.8798 14.368 21.8534C14.368 21.8534 14.368 21.8429 14.3842 21.8376L14.7735 21.8482C14.541 21.9483 15.0547 21.7638 14.8384 21.8482C15.8548 21.922 17.1741 21.8482 18.3473 21.8798L18.2932 21.8534C18.5906 21.8534 18.9637 21.8271 19.1853 21.8692C19.4124 21.9114 19.6773 21.806 19.7692 21.8007C20.0179 21.7585 20.2396 21.8429 20.1369 21.8429C20.4018 21.8323 20.6505 21.7374 21.0182 21.7796C21.1425 21.864 22.0184 21.6953 22.0292 21.7902V21.7796C22.505 21.8482 22.9483 21.7322 23.4512 21.7954C23.4512 21.7954 23.4403 21.8007 23.4241 21.8112L24.4568 21.5213L24.1648 21.1997L23.2727 20.9361L20.8506 20.9941L18.9204 20.8939L14.2166 20.9308L13.8814 21.0046C12.9569 20.8781 11.7728 21.0257 10.778 20.9308L10.7564 20.9941C10.4753 20.9941 10.4969 20.9572 10.4266 20.9466C7.8152 20.9625 5.12811 21.0415 2.77622 20.9625C2.54915 20.9203 1.8625 20.9466 1.68409 20.8992C1.64624 20.8992 1.64083 20.9045 1.64624 20.9045H1.64083C1.64083 20.9045 1.63002 20.9203 1.62461 20.9256C1.60839 20.9361 1.59217 20.9414 1.57055 20.9466C1.56514 20.9361 1.55973 20.9203 1.55433 20.8992C1.55433 20.8834 1.55433 20.8939 1.55433 20.8517V20.6461V20.256C1.55433 20.1875 1.57595 20.1242 1.60839 20.0662V20.082C1.63002 20.0293 1.65705 19.9766 1.70031 19.9344C1.71112 19.9344 1.71653 19.9344 1.71653 19.945C1.76519 19.8553 1.89494 19.7815 2.03011 19.7868C2.27881 19.7973 2.56537 19.8132 2.79785 19.8237H2.77082C5.66877 19.8395 8.36127 19.7235 11.2376 19.8132C12.573 19.9133 14.1301 19.7763 15.6656 19.8606C15.9468 19.9239 19.0502 19.8764 19.3259 19.8448L19.3151 19.8184Z" fill="#232C6A"/>
<path d="M23.6675 19.7812H23.6621C23.6621 19.7812 23.6621 19.7971 23.6675 19.7812Z" fill="#232C6A"/>
<path d="M17.4715 19.0174H17.4932L17.4175 18.9805L17.4715 19.0174Z" fill="#232C6A"/>
<path d="M21.5805 18.9966C21.3967 18.986 21.3859 18.9966 21.4129 19.0071C21.4778 19.0071 21.5373 19.0071 21.5805 18.9966Z" fill="#232C6A"/>
<path d="M24.0298 20.5931C24.0298 20.688 24.046 20.6511 24.0622 20.5931C24.0622 20.4982 24.0622 20.4297 24.0622 20.4297C24.0568 20.4719 24.0406 20.5457 24.0352 20.5878L24.0298 20.5931Z" fill="#232C6A"/>
<path d="M24.3975 20.2104L24.4191 20.2368C24.4083 20.184 24.4029 20.1893 24.3975 20.2104Z" fill="#232C6A"/>
<path d="M12.3242 9.72539C12.3242 9.72539 12.3404 9.72539 12.3458 9.72539C12.3621 9.72539 12.3621 9.72012 12.3567 9.71484C12.335 9.71484 12.3404 9.72012 12.3242 9.72539Z" fill="#232C6A"/>
<path d="M12.4215 8.12109C12.4215 8.12109 12.4161 8.12109 12.4107 8.12109C12.3999 8.12109 12.3999 8.13164 12.3999 8.14218H12.4377L12.4215 8.12109Z" fill="#232C6A"/>
<path d="M13.3246 7.92627L13.2489 7.94735C13.211 7.88409 13.2921 7.85773 13.2273 7.80501H13.2435C13.2435 7.80501 13.0867 7.79447 13.2975 7.71012H13.3029C13.3029 7.71012 13.2867 7.71012 13.3029 7.69957L13.2543 7.71539C13.2543 7.71539 13.2002 7.69957 13.1948 7.68903C13.2056 7.68903 13.2218 7.68903 13.2327 7.68903L13.2218 7.66267L13.2705 7.65212C13.2435 7.64158 13.1353 7.65212 13.1948 7.62576C13.1191 7.63631 13.1516 7.61522 13.1137 7.61522C13.1245 7.61522 13.1353 7.61522 13.1516 7.60995C13.1407 7.59413 13.1245 7.56777 13.0867 7.5625C13.0867 7.5625 12.9299 7.61522 12.8542 7.63104C12.8758 7.60995 12.8434 7.63104 12.8218 7.63104H12.838C12.838 7.63104 12.7731 7.64158 12.7623 7.65212H12.7731H12.7677H12.7839C12.7947 7.65212 12.8001 7.65212 12.8001 7.65212C12.8001 7.65212 12.8001 7.66267 12.8001 7.66794H12.7623C12.838 7.67848 12.6487 7.72593 12.6487 7.73648C12.6001 7.74702 12.6596 7.76284 12.6379 7.77865C12.6271 7.79974 12.5839 7.7892 12.546 7.79974C12.5244 7.81556 12.5893 7.79974 12.5947 7.79974L12.5406 7.81556C12.5406 7.81556 12.5136 7.81556 12.4974 7.81556C12.4919 7.83137 12.4217 7.85246 12.4974 7.85773C12.4595 7.87882 12.4271 7.87882 12.4271 7.88936C12.4433 7.88936 12.4541 7.87882 12.4703 7.87882C12.4379 7.88936 12.4811 7.87882 12.4865 7.87882C12.519 7.88936 12.346 7.94208 12.4325 7.94735H12.4163C12.4811 7.94735 12.5406 7.94735 12.5785 7.95263H12.5514L12.5785 7.96844C12.5568 7.97371 12.5406 7.96844 12.5352 7.96844C12.5622 7.98426 12.5298 8.00535 12.519 8.02116L12.692 8.00007C12.6541 8.01589 12.573 8.04225 12.6271 8.04225L12.5676 8.05279C12.4541 8.08443 12.6163 8.07388 12.5839 8.08443L12.519 8.10024V8.08443C12.4865 8.10024 12.4649 8.10551 12.4271 8.11606C12.4271 8.11606 12.4325 8.11606 12.4379 8.11606C12.4703 8.11606 12.4919 8.1266 12.4865 8.13715C12.4757 8.15296 12.5244 8.16351 12.4595 8.18459H12.5244L12.4865 8.20568H12.4379C12.4379 8.20568 12.4217 8.15823 12.4163 8.13187H12.3946C12.3946 8.13187 12.4163 8.15823 12.4109 8.16878C12.4 8.16878 12.346 8.18459 12.3135 8.17405L12.3622 8.18459C12.3676 8.22677 12.373 8.22677 12.3135 8.27422H12.3406C12.3406 8.27422 12.373 8.29003 12.3298 8.29003C12.3189 8.31639 12.2865 8.34803 12.2216 8.36384H12.2811C12.2811 8.36384 12.1838 8.38493 12.2703 8.38493L12.2973 8.39547C12.2973 8.39547 12.3298 8.40602 12.2973 8.41656C12.2973 8.41656 12.2973 8.41656 12.2919 8.41656C12.2649 8.43238 12.346 8.41656 12.3135 8.43765C12.2703 8.44292 12.3892 8.44292 12.3784 8.45347L12.2919 8.46401C12.2432 8.47983 12.3298 8.4851 12.3298 8.51146C12.2973 8.522 12.227 8.53255 12.1567 8.522C12.2378 8.53255 12.2108 8.52727 12.2487 8.54309C12.2162 8.54309 12.2108 8.54309 12.1784 8.54309C12.1405 8.55891 12.2054 8.55363 12.2054 8.56418C12.2649 8.56418 12.3676 8.56945 12.3676 8.57472H12.3892C12.4217 8.57999 12.4379 8.59581 12.4054 8.60635H12.373L12.3892 8.6169H12.3514L12.3622 8.63798H12.373C12.373 8.63798 12.3892 8.6538 12.373 8.66435H12.3514C12.2811 8.68543 12.373 8.70652 12.3784 8.73815H12.3352C12.2919 8.74342 12.4054 8.73815 12.3838 8.7487H12.3298C12.4 8.75924 12.3135 8.76451 12.2865 8.76978H12.3568L12.3406 8.78033C12.3189 8.79614 12.2487 8.79087 12.2108 8.7856L12.2703 8.79614H12.2054C12.2811 8.80669 12.1946 8.80669 12.2324 8.81723C12.2108 8.81723 12.1946 8.81723 12.1838 8.81723L12.2757 8.83832L12.2378 8.82778H12.3298C12.4 8.84359 12.3189 8.84887 12.346 8.85414H12.3189C12.3189 8.85414 12.3027 8.86468 12.2811 8.86995C12.2973 8.86995 12.3243 8.86468 12.3352 8.86995C12.3352 8.86995 12.3027 8.86995 12.2919 8.87522C12.3568 8.87522 12.3892 8.88577 12.3568 8.89631C12.346 8.89631 12.3406 8.89631 12.3352 8.89631C12.346 8.89631 12.3622 8.89631 12.346 8.90686H12.2757L12.3406 8.91213C12.3243 8.9174 12.373 8.92794 12.3243 8.92267H12.3081L12.2919 8.95958H12.2378C12.3135 8.95958 12.2108 8.98066 12.3027 8.98066C12.2487 8.99121 12.3406 9.0123 12.2324 9.00702C12.2216 9.03338 12.3298 9.0492 12.2757 9.0861C12.1838 9.09665 12.2162 9.13355 12.2054 9.15464C12.2432 9.19682 12.2757 9.22318 12.3081 9.26535C12.1784 9.29171 12.3514 9.32862 12.2811 9.36025H12.3298C12.2487 9.38661 12.346 9.41297 12.2703 9.43933C12.2919 9.4446 12.2973 9.44987 12.3027 9.44987C12.3027 9.44987 12.3135 9.44987 12.346 9.44987C12.3243 9.45514 12.3514 9.47096 12.2865 9.47096H12.2811C12.2162 9.47096 12.3135 9.49205 12.2541 9.50259H12.3243L12.3135 9.51314H12.3027C12.4541 9.57113 12.2378 9.59749 12.3784 9.65548C12.3027 9.65021 12.4163 9.66602 12.3352 9.66602C12.2324 9.68184 12.3568 9.69238 12.3838 9.70293C12.3838 9.70293 12.3946 9.70293 12.4 9.70293L12.3892 9.72401C12.2865 9.71347 12.4757 9.73983 12.3892 9.72401C12.3135 9.77673 12.3892 9.85054 12.3568 9.91381H12.3838C12.3838 9.91381 12.4109 9.94544 12.3676 9.96125C12.3243 9.9718 12.4325 9.98761 12.4379 9.99289C12.4811 10.0087 12.3946 10.0192 12.4 10.014C12.4108 10.0298 12.5082 10.0403 12.4649 10.0614C12.3784 10.0667 12.5514 10.1141 12.4541 10.1141H12.4649C12.3946 10.1405 12.5136 10.1616 12.4487 10.1879C12.4487 10.1879 12.4433 10.1879 12.4325 10.1879L12.7298 10.2407L13.0596 10.2249L13.33 10.1774L13.2705 10.0456L13.3732 9.94017L13.3354 9.68711L13.2597 9.67129C13.3894 9.62385 13.2381 9.56058 13.3354 9.50259H13.2705C13.2705 9.50259 13.3083 9.48677 13.3192 9.4815C13.3029 9.33916 13.2218 9.19682 13.3029 9.07029C13.3462 9.05974 13.3192 9.02284 13.3678 9.0123C13.2867 8.97012 13.2921 8.92794 13.2975 8.88577H13.3029L13.2921 8.86995C13.2921 8.86995 13.3029 8.86995 13.3083 8.86995C13.2543 8.84886 13.3083 8.81196 13.33 8.7856H13.3354C13.3462 8.63271 13.2272 8.4851 13.3192 8.33221C13.4219 8.2584 13.2813 8.17932 13.3678 8.09497C13.4327 8.07915 13.384 7.91572 13.3516 7.89991L13.3246 7.92627Z" fill="#232C6A"/>
<path d="M12.4973 8.0248L12.5027 8.01953L12.4648 8.0248H12.4973Z" fill="#232C6A"/>
<path d="M12.4761 7.80469C12.4761 7.80469 12.4761 7.81523 12.4869 7.81523C12.4869 7.81523 12.4869 7.80996 12.4761 7.80469Z" fill="#232C6A"/>
<path d="M13.1843 7.59766C13.1843 7.59766 13.1681 7.59766 13.1519 7.59766C13.1519 7.60293 13.1519 7.6082 13.1519 7.6082C13.1573 7.6082 13.1735 7.60293 13.1789 7.59766H13.1843Z" fill="#232C6A"/>
<path d="M12.7461 6.86719C12.7461 6.86719 12.7461 6.86719 12.7407 6.87246L12.7461 6.86719Z" fill="#232C6A"/>
<path d="M10.7076 7.00137L10.6968 6.99609L10.7076 7.00137Z" fill="#232C6A"/>
<path d="M10.7075 6.97656C10.7075 6.97656 10.7075 6.99238 10.7075 6.99765C10.7237 7.00819 10.7346 7.00819 10.7454 6.99765C10.74 6.98183 10.7183 6.98711 10.7075 6.97656Z" fill="#232C6A"/>
<path d="M9.92401 7.91289L9.89697 7.90234C9.89697 7.90234 9.9186 7.91289 9.92401 7.91289Z" fill="#232C6A"/>
<path d="M14.6494 7.02909V7.01855C14.6494 7.01855 14.6224 6.99746 14.5899 6.99219L14.5791 7.02909H14.6494Z" fill="#232C6A"/>
<path d="M14.5789 7.9725L14.6113 7.89869C14.6924 7.92505 14.6546 7.99886 14.7411 8.01467H14.7248C14.7248 8.01467 14.8816 7.96723 14.7248 8.1412H14.7194C14.7194 8.1412 14.7357 8.1412 14.7194 8.15175L14.7573 8.12011C14.7573 8.12011 14.8168 8.12011 14.8276 8.13066C14.8222 8.13593 14.8059 8.1412 14.7951 8.14647L14.8168 8.17811L14.7681 8.19919C14.7951 8.19919 14.8979 8.18338 14.8438 8.22028C14.9141 8.19919 14.8925 8.23083 14.9249 8.22028C14.9141 8.22028 14.9033 8.23083 14.8925 8.23083C14.8925 8.24137 14.9033 8.25191 14.9141 8.26773C14.9195 8.273 14.9249 8.27827 14.9357 8.28355H14.9465L14.9519 8.29409H15.2925H14.9573C14.9573 8.29409 14.9681 8.28882 14.9736 8.28355C14.9898 8.273 15.0114 8.26246 15.033 8.24664C15.0763 8.21501 15.1358 8.17811 15.1682 8.15702C15.152 8.19919 15.179 8.16756 15.2006 8.15702H15.1844C15.2006 8.13066 15.2439 8.12011 15.2547 8.1043H15.2439H15.2493C15.2439 8.1043 15.2385 8.1043 15.2331 8.1043C15.2223 8.1043 15.2169 8.1043 15.2169 8.1043C15.2169 8.1043 15.2114 8.07794 15.2114 8.06739L15.2493 8.05685C15.179 8.05685 15.3196 7.89342 15.3034 7.86179C15.3358 7.81434 15.2655 7.80907 15.2655 7.76162C15.2439 7.70363 15.2979 7.7089 15.3088 7.66672C15.3088 7.61928 15.2763 7.69836 15.2655 7.68254L15.2871 7.614C15.2871 7.614 15.3196 7.614 15.325 7.59819C15.3034 7.56128 15.3196 7.46112 15.2493 7.49802C15.2385 7.42948 15.2601 7.4084 15.2439 7.38731C15.2439 7.40312 15.2439 7.42421 15.2331 7.43476C15.2439 7.39258 15.2169 7.43476 15.2223 7.4453C15.179 7.4453 15.179 7.20806 15.1141 7.26605L15.1249 7.25551C15.0763 7.29768 15.0492 7.35568 15.0114 7.36622V7.33459L14.979 7.33986C14.979 7.3135 14.9952 7.30296 15.0006 7.29768C14.9519 7.29768 14.9195 7.23969 14.8816 7.20806C14.8708 7.26605 14.8546 7.32404 14.8384 7.37676C14.833 7.32404 14.8005 7.22388 14.7681 7.26605V7.20279C14.7357 7.07099 14.6978 7.22388 14.6816 7.1817L14.6654 7.10789L14.7032 7.12371C14.6762 7.08153 14.6654 7.05517 14.6383 7.00773C14.6383 7.00773 14.6383 7.013 14.6383 7.01827H14.6329C14.6167 7.04463 14.5897 7.06045 14.5626 7.0499C14.5194 7.02881 14.4816 7.07099 14.4221 6.99718L14.4005 7.05517L14.3518 7.013V6.96028C14.4059 6.96028 14.5086 6.96028 14.5789 6.97082V6.94973C14.5464 6.93919 14.4924 6.95501 14.4653 6.94973C14.4545 6.93919 14.4275 6.8812 14.4545 6.84957L14.4221 6.89701C14.2761 6.89701 14.2707 6.89701 14.168 6.83902L14.1788 6.86538C14.1788 6.86538 14.1355 6.89701 14.1301 6.85484C14.0652 6.84429 14.0004 6.81266 13.9571 6.7494L13.9463 6.80739C13.9463 6.80739 13.9139 6.71249 13.9084 6.79685L13.8814 6.82321C13.8814 6.82321 13.849 6.85484 13.8328 6.82321C13.8328 6.82321 13.8328 6.82321 13.8328 6.81793C13.7895 6.79685 13.8328 6.87593 13.7841 6.84429C13.7679 6.80212 13.7679 6.9181 13.7462 6.90756L13.7246 6.82321C13.6814 6.77576 13.676 6.86011 13.6111 6.86011C13.5841 6.82848 13.5678 6.75994 13.5895 6.69141C13.5624 6.77049 13.5786 6.74413 13.5408 6.78103C13.5354 6.7494 13.5408 6.74413 13.5462 6.71249C13.5138 6.67559 13.5246 6.73885 13.503 6.73885C13.4975 6.79685 13.4867 6.89701 13.4813 6.89701L13.4921 6.9181C13.4651 6.94973 13.4381 6.96555 13.411 6.93392V6.90229L13.3786 6.9181V6.8812L13.3299 6.89174V6.90229C13.3299 6.90229 13.2921 6.92337 13.2705 6.90229V6.8812C13.2164 6.81266 13.1677 6.90229 13.1029 6.90756L13.1137 6.86538C13.092 6.82321 13.1083 6.93392 13.0812 6.91283V6.86011C13.0542 6.92865 13.0488 6.84429 13.0326 6.81793V6.88647L13.0109 6.87065C12.9785 6.84957 12.9893 6.78103 12.9947 6.74413L12.9731 6.80212V6.73885C12.9515 6.81266 12.9515 6.72831 12.9244 6.76521C12.9244 6.74413 12.9244 6.72831 12.9244 6.71777L12.8758 6.80739L12.9028 6.77049V6.86011C12.8704 6.92865 12.8596 6.84957 12.8379 6.87593L12.8542 6.84957C12.8217 6.87065 12.8163 6.83375 12.8001 6.81266C12.8055 6.82848 12.8163 6.85484 12.8001 6.86538C12.7893 6.86538 12.7947 6.83375 12.7839 6.82321C12.7839 6.88647 12.7568 6.9181 12.7352 6.88647C12.7352 6.87593 12.7352 6.87065 12.7352 6.86538C12.7298 6.87593 12.7244 6.89174 12.719 6.87593V6.80739L12.7082 6.87065C12.6974 6.84957 12.6757 6.90229 12.6757 6.85484V6.83902L12.5838 6.82321V6.77049C12.573 6.84429 12.5298 6.74413 12.5298 6.83375C12.5135 6.78103 12.4595 6.87065 12.4703 6.76521C12.4054 6.75467 12.373 6.86011 12.2919 6.80739C12.2648 6.71777 12.1891 6.7494 12.1351 6.73885C12.0378 6.77576 11.9729 6.80739 11.8702 6.83902C11.8107 6.71249 11.7188 6.8812 11.6539 6.81266L11.6377 6.86011C11.5944 6.78103 11.5295 6.87593 11.4701 6.80212C11.4538 6.82321 11.4484 6.82848 11.443 6.83375C11.443 6.83375 11.4484 6.84429 11.4538 6.87593C11.4376 6.85484 11.3998 6.8812 11.4052 6.81793C11.4052 6.7494 11.3511 6.83902 11.3349 6.7863L11.3457 6.85484L11.3133 6.84429L11.3241 6.83375C11.2051 6.98137 11.0483 6.77049 10.897 6.94446C10.9024 6.86538 10.8699 6.99191 10.8483 6.91283C10.7726 6.82848 10.7672 6.95501 10.7402 6.99718C10.7402 6.99718 10.7402 7.00773 10.7402 7.013L10.6753 7.02881C10.6753 6.92337 10.6645 7.12371 10.6645 7.02881C10.4644 7.02881 10.3076 7.22388 10.1508 7.34513L10.1779 7.35568C10.14 7.38731 10.1238 7.45584 10.0643 7.46112C10.0049 7.46639 10.0643 7.56656 10.0643 7.58237C10.0806 7.64036 9.98324 7.62455 9.99946 7.614C9.98324 7.65618 10.0535 7.73526 9.99405 7.77216C9.90214 7.75635 10.0157 7.95141 9.92377 7.91978H9.92917C9.84267 7.97777 9.93999 8.07267 9.8697 8.1412C9.8697 8.1412 9.86429 8.1412 9.85889 8.13593C9.90214 8.16756 9.9508 8.19919 9.99946 8.23083L10.0752 8.26773L10.113 8.28355L10.1292 8.29409H10.14V8.29936H10.1508H10.1725L10.2157 8.29409H10.2968L10.4644 8.27827C10.5563 8.25719 10.6428 8.24137 10.7348 8.2361C10.7185 8.18865 10.7185 8.13593 10.7239 8.08321C10.7726 8.06212 10.8267 8.05158 10.8699 8.04631C10.9132 7.97777 10.9781 7.91451 11.0538 7.8776V7.8038C11.1511 7.90924 11.1294 7.76162 11.297 7.85652V7.79325C11.3349 7.79325 11.3295 7.83016 11.3403 7.8407C11.6647 7.82488 11.9999 7.7458 12.2919 7.82488C12.3189 7.86706 12.4054 7.8407 12.427 7.88815C12.5244 7.80907 12.6217 7.81434 12.719 7.81961H12.7622C12.7622 7.81961 12.7622 7.83016 12.7622 7.83543C12.8109 7.78271 12.892 7.83543 12.9515 7.85652C13.3137 7.87233 13.6489 7.75635 14.0058 7.84597C14.0869 7.89869 14.1788 7.88815 14.2707 7.8776C14.3085 7.86706 14.3626 7.85652 14.3896 7.90924C14.3896 7.96196 14.5356 7.98831 14.5681 7.98831L14.5789 7.9725Z" fill="#232C6A"/>
<path d="M14.8926 7.20878L14.898 7.21405L14.9034 7.17188L14.8926 7.20878Z" fill="#232C6A"/>
<path d="M15.3737 7.61225C15.3629 7.58589 15.3575 7.58589 15.3521 7.59643C15.3521 7.60698 15.3629 7.61225 15.3737 7.61225Z" fill="#232C6A"/>
<path d="M14.8652 8.23711C14.8652 8.23711 14.8815 8.23711 14.8977 8.23711C14.8977 8.23183 14.8923 8.22656 14.8923 8.22656C14.8869 8.22656 14.876 8.23711 14.8652 8.24238V8.23711Z" fill="#232C6A"/>
<path d="M13.6758 2.69414C13.6758 2.69414 13.6974 2.68359 13.7028 2.68359L13.6704 2.69414H13.6758Z" fill="#232C6A"/>
<path d="M12.5135 1.30742L12.4973 1.29688C12.481 1.29688 12.4756 1.29687 12.481 1.30215C12.4973 1.31269 12.5027 1.30215 12.5135 1.30215V1.30742Z" fill="#232C6A"/>
<path d="M12.8813 0.769531L12.8976 0.795891C12.8976 0.795891 12.8868 0.780075 12.8813 0.769531Z" fill="#232C6A"/>
<path d="M13.903 3.4375C13.903 3.4375 13.8868 3.4375 13.8813 3.44277L13.903 3.4375Z" fill="#232C6A"/>
<path d="M12.9893 4.74101H13.0001L12.9839 4.73047C12.9839 4.73047 12.9839 4.73574 12.9839 4.74101H12.9893Z" fill="#232C6A"/>
<path d="M13.7789 3.93163H13.7897C13.7897 3.93163 13.8059 3.90527 13.8059 3.87891H13.7681L13.7789 3.93163Z" fill="#232C6A"/>
<path d="M12.811 4.04361H12.8921C12.8921 4.14905 12.7948 4.14905 12.8056 4.25449L12.7948 4.24395C12.7948 4.24395 12.9137 4.34939 12.6596 4.34412H12.6542C12.6542 4.34412 12.665 4.35466 12.6434 4.34412L12.6974 4.35466C12.6974 4.35466 12.7245 4.40738 12.7191 4.42847C12.7083 4.42847 12.6974 4.41792 12.6866 4.41265L12.665 4.4601L12.6163 4.43901C12.6272 4.46537 12.7137 4.52864 12.6434 4.52336C12.7083 4.555 12.665 4.56554 12.6974 4.58663C12.6866 4.58663 12.6758 4.57608 12.665 4.57081C12.6542 4.59717 12.638 4.64462 12.6596 4.67625C12.6596 4.67625 12.8434 4.69734 12.9245 4.7237C12.8813 4.73952 12.9245 4.73952 12.9462 4.74479L12.9353 4.72897C12.9624 4.7237 13.0002 4.75006 13.0164 4.75006H13.0056C13.0002 4.75006 12.9948 4.73952 12.9894 4.73952C12.984 4.73424 12.9786 4.72897 12.984 4.7237C12.984 4.7237 13.0002 4.70788 13.011 4.70261L13.0435 4.7237C12.9948 4.66571 13.2111 4.69734 13.2273 4.67098C13.2814 4.67625 13.2489 4.61826 13.2868 4.60772C13.3246 4.57081 13.3462 4.61826 13.3895 4.60772C13.4273 4.5919 13.3462 4.5919 13.3516 4.57608H13.4165C13.4165 4.57608 13.4327 4.5919 13.449 4.59717C13.4706 4.57081 13.5625 4.555 13.503 4.50755C13.5571 4.48119 13.5841 4.497 13.6004 4.48119C13.5841 4.48119 13.5679 4.48646 13.5517 4.48119C13.5895 4.48119 13.5517 4.47064 13.5355 4.47064C13.5193 4.43374 13.7301 4.38629 13.6544 4.34939H13.6706C13.6166 4.32303 13.5517 4.31249 13.5301 4.28085H13.5625L13.5463 4.24922C13.5679 4.24395 13.5841 4.25449 13.5895 4.25977C13.5733 4.21759 13.622 4.18596 13.6436 4.14905L13.4652 4.13851C13.5138 4.12269 13.6058 4.08579 13.5571 4.0647H13.6166C13.7409 4.01725 13.5787 4.00144 13.6166 3.98035L13.6869 3.95926V3.99617C13.7193 3.96453 13.7409 3.95399 13.7842 3.9329C13.7842 3.9329 13.7788 3.9329 13.7734 3.9329C13.7409 3.91709 13.7247 3.896 13.7301 3.86964C13.7463 3.83273 13.6977 3.8011 13.768 3.74311L13.7031 3.72729L13.7409 3.68512H13.795C13.795 3.72729 13.8112 3.81692 13.8058 3.87491H13.8274C13.8274 3.84328 13.8112 3.8011 13.8166 3.78001C13.8274 3.76947 13.8815 3.73784 13.9139 3.7642L13.8653 3.74311C13.8599 3.62185 13.8545 3.62186 13.8977 3.48478L13.8761 3.5006C13.8761 3.5006 13.8382 3.45315 13.8761 3.44261C13.8707 3.36353 13.8761 3.27918 13.9248 3.21064H13.8653C13.8653 3.21064 13.941 3.14738 13.8599 3.16846L13.822 3.14738C13.822 3.14738 13.7788 3.12629 13.8004 3.08938C13.8004 3.08938 13.8004 3.08938 13.8004 3.08411C13.8004 3.03139 13.7517 3.11047 13.7571 3.04194C13.7896 3.00503 13.6815 3.05775 13.6815 3.02612L13.7463 2.96286C13.7626 2.89432 13.6869 2.93122 13.649 2.86796C13.6598 2.82051 13.7085 2.76779 13.7788 2.75198C13.6923 2.76779 13.7247 2.76779 13.6706 2.75198C13.6923 2.73089 13.7031 2.73089 13.7301 2.72035C13.7409 2.66763 13.6923 2.72035 13.676 2.69399C13.622 2.72035 13.5355 2.77307 13.5247 2.76779L13.5138 2.78888C13.4706 2.78888 13.4436 2.77307 13.449 2.72562L13.476 2.7098L13.4436 2.69399L13.4706 2.66763L13.4327 2.64127V2.65181C13.4327 2.65181 13.3841 2.63072 13.3841 2.59909L13.4003 2.58327C13.4111 2.49365 13.3138 2.52001 13.2651 2.47783L13.303 2.45147C13.3192 2.40403 13.2489 2.49365 13.2489 2.46202L13.2868 2.42511C13.2165 2.45675 13.276 2.39348 13.2868 2.36185L13.2435 2.41457L13.2327 2.38294C13.2273 2.34603 13.2814 2.30386 13.3138 2.28277L13.2597 2.30913L13.303 2.26168C13.2381 2.30386 13.303 2.24059 13.2489 2.25114C13.2651 2.23005 13.2814 2.23005 13.276 2.21423L13.1786 2.24587L13.2273 2.23532L13.1624 2.29859C13.0921 2.33022 13.1408 2.26695 13.1084 2.27223L13.1354 2.26168C13.0975 2.25641 13.1192 2.22478 13.1192 2.19842C13.1138 2.21423 13.1029 2.24059 13.0813 2.24059C13.0705 2.24059 13.0975 2.21423 13.0975 2.19842C13.0543 2.24059 13.0164 2.25114 13.0164 2.21423C13.0218 2.20896 13.0273 2.20369 13.0327 2.19842C13.0218 2.19842 13.011 2.21423 13.011 2.19842L13.0597 2.15097L13.0002 2.18787C13.0002 2.18787 12.957 2.18787 12.9894 2.16151H13.0056L12.9516 2.08771L12.9894 2.04553C12.9299 2.09298 12.9732 1.99281 12.9137 2.06662C12.9353 2.01917 12.8434 2.0508 12.9245 1.98227C12.8921 1.94009 12.7948 1.99281 12.7894 1.91373C12.838 1.83465 12.7731 1.81884 12.7623 1.7872C12.6866 1.76612 12.638 1.75557 12.5785 1.72394C12.6704 1.62904 12.4974 1.68176 12.5515 1.62377L12.5028 1.63432C12.5623 1.59214 12.4758 1.59741 12.5407 1.55524C12.519 1.55524 12.5082 1.55524 12.5082 1.55524C12.5082 1.55524 12.4974 1.55524 12.465 1.56578C12.4866 1.55524 12.4596 1.54469 12.5244 1.53942H12.5298C12.5947 1.53415 12.4974 1.52888 12.5515 1.51833H12.4812H12.492H12.5082C12.3568 1.45507 12.5731 1.46034 12.4596 1.37072C12.5244 1.40235 12.4271 1.34436 12.5028 1.37072C12.6055 1.3918 12.492 1.33381 12.4758 1.30745C12.4758 1.30745 12.4704 1.30745 12.465 1.30218L12.4866 1.28109C12.4217 1.2231 12.5731 1.34436 12.4866 1.28109C12.5839 1.25473 12.5839 1.12821 12.6812 1.07549L12.6596 1.05967C12.6596 1.05967 12.6812 0.996405 12.7245 1.01222C12.7677 1.02804 12.7083 0.933142 12.7137 0.922598C12.6974 0.87515 12.7785 0.922598 12.7677 0.92787C12.7785 0.90151 12.7353 0.817158 12.7894 0.82243C12.8542 0.880422 12.811 0.695902 12.8759 0.76971C12.957 0.790798 12.9191 0.669542 13.0002 0.69063C13.0002 0.69063 13.0002 0.695902 13.0056 0.701174C12.9732 0.601007 12.9516 0.500839 12.9245 0.400671L12.7137 0.152888L12.4704 0C12.4001 0.0738078 12.3298 0.152888 12.2595 0.231967C12.173 0.258327 12.0865 0.289959 11.9946 0.332135C11.8486 0.495567 11.7026 0.69063 11.6053 0.933142L11.654 1.01222C11.4701 1.11239 11.5675 1.36017 11.481 1.53415H11.5458C11.5512 1.58687 11.5134 1.58687 11.5026 1.59741C11.5242 1.8452 11.6486 2.06662 11.7729 2.21951C11.8973 2.37767 12.0162 2.49892 12.0919 2.62545C12.0865 2.67817 12.1622 2.71507 12.146 2.76252C12.2703 2.76779 12.3352 2.82578 12.3893 2.88905H12.3839L12.4217 2.91014C12.4217 2.91014 12.4163 2.92068 12.4109 2.92595C12.4812 2.91541 12.492 2.99976 12.5136 3.04721H12.5082C12.7029 3.24227 12.9299 3.35298 12.9029 3.55859C12.8218 3.64821 12.9732 3.71675 12.8759 3.80637C12.8164 3.80637 12.811 4.00144 12.8164 4.03834L12.811 4.04361Z" fill="#232C6A"/>
<path d="M13.6489 4.15625V4.16152H13.6868L13.6489 4.15625Z" fill="#232C6A"/>
<path d="M13.4489 4.63046C13.4489 4.63046 13.4651 4.60938 13.4489 4.60938C13.4435 4.61465 13.4435 4.62519 13.4489 4.63046Z" fill="#232C6A"/>
<path d="M12.6324 4.55078C12.6324 4.55078 12.6378 4.5666 12.654 4.57187C12.654 4.56133 12.6594 4.55605 12.6594 4.55605C12.654 4.55605 12.6378 4.55605 12.627 4.55605L12.6324 4.55078Z" fill="#232C6A"/>
<path d="M12.9409 4.75L12.9571 4.76582C12.9571 4.76582 12.9517 4.75527 12.9409 4.75Z" fill="#232C6A"/>
<path d="M9.4639 2.69414C9.4639 2.69414 9.48553 2.68359 9.49094 2.68359L9.4585 2.69414H9.4639Z" fill="#232C6A"/>
<path d="M8.30156 1.30742L8.28534 1.29688C8.26912 1.29688 8.26371 1.29687 8.26912 1.30215C8.28534 1.31269 8.29074 1.30215 8.30156 1.30215V1.30742Z" fill="#232C6A"/>
<path d="M8.66943 0.769531L8.68565 0.795891C8.68565 0.795891 8.67484 0.780075 8.66943 0.769531Z" fill="#232C6A"/>
<path d="M9.69106 3.4375C9.69106 3.4375 9.67484 3.4375 9.66943 3.44277L9.69106 3.4375Z" fill="#232C6A"/>
<path d="M8.77738 4.74101H8.78819L8.77197 4.73047C8.77197 4.73047 8.77197 4.73574 8.77197 4.74101H8.77738Z" fill="#232C6A"/>
<path d="M9.56697 3.93163H9.57778C9.57778 3.93163 9.594 3.90527 9.594 3.87891H9.55615L9.56697 3.93163Z" fill="#232C6A"/>
<path d="M8.59907 4.04361H8.68017C8.68017 4.14905 8.58285 4.14905 8.59367 4.25449L8.58285 4.24395C8.58285 4.24395 8.7018 4.34939 8.44769 4.34412H8.44228C8.44228 4.34412 8.45309 4.35466 8.43147 4.34412L8.48553 4.35466C8.48553 4.35466 8.51257 4.40738 8.50716 4.42847C8.49635 4.42847 8.48553 4.41792 8.47472 4.41265L8.45309 4.4601L8.40443 4.43901C8.41525 4.46537 8.50175 4.52864 8.43147 4.52336C8.49635 4.555 8.45309 4.56554 8.48553 4.58663C8.47472 4.58663 8.46391 4.57608 8.45309 4.57081C8.44228 4.59717 8.42606 4.64462 8.44769 4.67625C8.44769 4.67625 8.63151 4.69734 8.71261 4.7237C8.66936 4.73952 8.71261 4.73952 8.73424 4.74479L8.72342 4.72897C8.75046 4.7237 8.7883 4.75006 8.80452 4.75006H8.79371C8.7883 4.75006 8.7829 4.73952 8.77749 4.73952C8.77208 4.73424 8.76668 4.72897 8.77208 4.7237C8.77208 4.7237 8.7883 4.70788 8.79912 4.70261L8.83156 4.7237C8.7829 4.66571 8.99916 4.69734 9.01538 4.67098C9.06945 4.67625 9.03701 4.61826 9.07485 4.60772C9.1127 4.57081 9.13433 4.61826 9.17758 4.60772C9.21543 4.5919 9.13433 4.5919 9.13973 4.57608H9.20461C9.20461 4.57608 9.22083 4.5919 9.23705 4.59717C9.25868 4.57081 9.35059 4.555 9.29112 4.50755C9.34519 4.48119 9.37222 4.497 9.38844 4.48119C9.37222 4.48119 9.356 4.48646 9.33978 4.48119C9.37763 4.48119 9.33978 4.47064 9.32356 4.47064C9.30734 4.43374 9.5182 4.38629 9.44251 4.34939H9.45872C9.40466 4.32303 9.33978 4.31249 9.31815 4.28085H9.35059L9.33437 4.24922C9.356 4.24395 9.37222 4.25449 9.37763 4.25977C9.36141 4.21759 9.41007 4.18596 9.43169 4.14905L9.25327 4.13851C9.30193 4.12269 9.39385 4.08579 9.34519 4.0647H9.40466C9.52901 4.01725 9.36681 4.00144 9.40466 3.98035L9.47495 3.95926V3.99617C9.50738 3.96453 9.52901 3.95399 9.57226 3.9329C9.57226 3.9329 9.56686 3.9329 9.56145 3.9329C9.52901 3.91709 9.51279 3.896 9.5182 3.86964C9.53442 3.83273 9.48576 3.8011 9.55604 3.74311L9.49116 3.72729L9.52901 3.68512H9.57767C9.57767 3.72729 9.59389 3.81692 9.58848 3.87491H9.61011C9.61011 3.84328 9.59389 3.8011 9.5993 3.78001C9.61011 3.76947 9.66418 3.73784 9.69662 3.7642L9.64796 3.74311C9.64255 3.62185 9.63714 3.62186 9.6804 3.48478L9.65877 3.5006C9.65877 3.5006 9.62092 3.45315 9.65877 3.44261C9.65336 3.36353 9.65877 3.27918 9.70743 3.21064H9.64796C9.64796 3.21064 9.72365 3.14738 9.64255 3.16846L9.6047 3.14738C9.6047 3.14738 9.56145 3.12629 9.58308 3.08938C9.58308 3.08938 9.58308 3.08938 9.58308 3.08411C9.58308 3.03139 9.53442 3.11047 9.53982 3.04194C9.57226 3.00503 9.46413 3.05775 9.46413 3.02612L9.52901 2.96286C9.54523 2.89432 9.46954 2.93122 9.43169 2.86796C9.44251 2.82051 9.49116 2.76779 9.56145 2.75198C9.47495 2.76779 9.50738 2.76779 9.45332 2.75198C9.47494 2.73089 9.48576 2.73089 9.51279 2.72035C9.5236 2.66763 9.47494 2.72035 9.45872 2.69399C9.40466 2.72035 9.31815 2.77307 9.30734 2.76779L9.29653 2.78888C9.25327 2.78888 9.22624 2.77307 9.23165 2.72562L9.25868 2.7098L9.22624 2.69399L9.25327 2.66763L9.21543 2.64127V2.65181C9.21543 2.65181 9.16677 2.63072 9.16677 2.59909L9.18299 2.58327C9.1938 2.49365 9.09648 2.52001 9.04782 2.47783L9.08567 2.45147C9.10189 2.40403 9.0316 2.49365 9.0316 2.46202L9.06945 2.42511C8.99916 2.45675 9.05864 2.39348 9.06945 2.36185L9.0262 2.41457L9.01538 2.38294C9.00998 2.34603 9.06404 2.30386 9.09648 2.28277L9.04242 2.30913L9.08567 2.26168C9.02079 2.30386 9.08567 2.24059 9.0316 2.25114C9.04782 2.23005 9.06404 2.23005 9.06404 2.21423L8.96672 2.24587L9.01538 2.23532L8.9505 2.29859C8.88022 2.33022 8.92888 2.26695 8.89644 2.27223L8.92347 2.26168C8.88562 2.25641 8.90725 2.22478 8.90725 2.19842C8.90184 2.21423 8.89103 2.24059 8.8694 2.24059C8.85859 2.24059 8.88562 2.21423 8.88562 2.19842C8.84237 2.24059 8.80452 2.25114 8.80452 2.21423C8.80993 2.20896 8.81534 2.20369 8.82074 2.19842C8.80993 2.19842 8.79912 2.21423 8.79912 2.19842L8.84778 2.15097L8.7883 2.18787C8.7883 2.18787 8.74505 2.18787 8.77749 2.16151H8.79371L8.73964 2.08771L8.77749 2.04553C8.71802 2.09298 8.76127 1.99281 8.7018 2.06662C8.72342 2.01917 8.63151 2.0508 8.71261 1.98227C8.68017 1.94009 8.58285 1.99281 8.57745 1.91373C8.6261 1.83465 8.56123 1.81884 8.55041 1.7872C8.47472 1.76612 8.42606 1.75557 8.36659 1.72394C8.4585 1.62904 8.28549 1.68176 8.33955 1.62377L8.29089 1.63432C8.35037 1.59214 8.26386 1.59741 8.32874 1.55524C8.30711 1.55524 8.2963 1.55524 8.2963 1.55524C8.2963 1.55524 8.28549 1.55524 8.25305 1.56578C8.27467 1.55524 8.24764 1.54469 8.31252 1.53942H8.31793C8.38281 1.53415 8.28549 1.52888 8.33955 1.51833H8.26927H8.28008H8.2963C8.14492 1.45507 8.36118 1.46034 8.24764 1.37072C8.31252 1.40235 8.2152 1.34436 8.29089 1.37072C8.39362 1.3918 8.28008 1.33381 8.26386 1.30745C8.26386 1.30745 8.25845 1.30745 8.25305 1.30218L8.27467 1.28109C8.2098 1.2231 8.36118 1.34436 8.27467 1.28109C8.37199 1.25473 8.37199 1.12821 8.46931 1.07549L8.44769 1.05967C8.44769 1.05967 8.46931 0.996405 8.51257 1.01222C8.55582 1.02804 8.49635 0.933142 8.50175 0.922598C8.48553 0.87515 8.56663 0.922598 8.55582 0.92787C8.56663 0.90151 8.52338 0.817158 8.57745 0.82243C8.64232 0.880422 8.59907 0.695902 8.66395 0.76971C8.74505 0.790798 8.7072 0.669542 8.7883 0.69063C8.7883 0.69063 8.7883 0.695902 8.79371 0.701174C8.76127 0.601007 8.73964 0.500839 8.71261 0.400671L8.50175 0.152888L8.25845 0C8.18817 0.0738078 8.11788 0.152888 8.0476 0.231967C7.96109 0.258327 7.87458 0.289959 7.78267 0.332135C7.63669 0.495567 7.49071 0.69063 7.3934 0.933142L7.44205 1.01222C7.25823 1.11239 7.35014 1.36017 7.26904 1.53415H7.33392C7.33933 1.58687 7.30148 1.58687 7.29067 1.59741C7.3123 1.8452 7.43665 2.06662 7.561 2.21951C7.68535 2.37767 7.8043 2.49892 7.87999 2.62545C7.87458 2.67817 7.95028 2.71507 7.93406 2.76252C8.05841 2.76779 8.12329 2.82578 8.17736 2.88905H8.17195L8.2098 2.91014C8.2098 2.91014 8.20439 2.92068 8.19898 2.92595C8.26927 2.91541 8.28008 2.99976 8.30171 3.04721H8.2963C8.49094 3.24227 8.71802 3.35298 8.69098 3.55859C8.60988 3.64821 8.76127 3.71675 8.66395 3.80637C8.60448 3.80637 8.59907 4.00144 8.60448 4.03834L8.59907 4.04361Z" fill="#232C6A"/>
<path d="M9.43701 4.15625V4.16152H9.47486L9.43701 4.15625Z" fill="#232C6A"/>
<path d="M9.23697 4.63046C9.23697 4.63046 9.25318 4.60938 9.23697 4.60938C9.23156 4.61465 9.23156 4.62519 9.23697 4.63046Z" fill="#232C6A"/>
<path d="M8.42045 4.55078C8.42045 4.55078 8.42585 4.5666 8.44207 4.57187C8.44207 4.56133 8.44748 4.55605 8.44748 4.55605C8.44207 4.55605 8.42585 4.55605 8.41504 4.55605L8.42045 4.55078Z" fill="#232C6A"/>
<path d="M8.729 4.75L8.74522 4.76582C8.74522 4.76582 8.73982 4.75527 8.729 4.75Z" fill="#232C6A"/>
<path d="M17.8877 2.69414C17.8877 2.69414 17.9094 2.68359 17.9148 2.68359L17.8823 2.69414H17.8877Z" fill="#232C6A"/>
<path d="M16.7254 1.30742L16.7092 1.29688C16.6929 1.29688 16.6875 1.29687 16.6929 1.30215C16.7092 1.31269 16.7146 1.30215 16.7254 1.30215V1.30742Z" fill="#232C6A"/>
<path d="M17.0933 0.769531L17.1095 0.795891C17.1095 0.795891 17.0987 0.780075 17.0933 0.769531Z" fill="#232C6A"/>
<path d="M18.1149 3.4375C18.1149 3.4375 18.0987 3.4375 18.0933 3.44277L18.1149 3.4375Z" fill="#232C6A"/>
<path d="M17.2012 4.74101H17.212L17.1958 4.73047C17.1958 4.73047 17.1958 4.73574 17.1958 4.74101H17.2012Z" fill="#232C6A"/>
<path d="M17.9908 3.93163H18.0016C18.0016 3.93163 18.0178 3.90527 18.0178 3.87891H17.98L17.9908 3.93163Z" fill="#232C6A"/>
<path d="M17.0229 4.04361H17.104C17.104 4.14905 17.0066 4.14905 17.0175 4.25449L17.0066 4.24395C17.0066 4.24395 17.1256 4.34939 16.8715 4.34412H16.8661C16.8661 4.34412 16.8769 4.35466 16.8553 4.34412L16.9093 4.35466C16.9093 4.35466 16.9364 4.40738 16.931 4.42847C16.9201 4.42847 16.9093 4.41792 16.8985 4.41265L16.8769 4.4601L16.8282 4.43901C16.839 4.46537 16.9255 4.52864 16.8553 4.52336C16.9201 4.555 16.8769 4.56554 16.9093 4.58663C16.8985 4.58663 16.8877 4.57608 16.8769 4.57081C16.8661 4.59717 16.8499 4.64462 16.8715 4.67625C16.8715 4.67625 17.0553 4.69734 17.1364 4.7237C17.0932 4.73952 17.1364 4.73952 17.1634 4.74479L17.1526 4.72897C17.1797 4.7237 17.2175 4.75006 17.2337 4.75006H17.2229C17.2175 4.75006 17.2121 4.73952 17.2067 4.73952C17.2013 4.73424 17.1959 4.72897 17.2013 4.7237C17.2013 4.7237 17.2175 4.70788 17.2283 4.70261L17.2608 4.7237C17.2121 4.66571 17.4284 4.69734 17.4446 4.67098C17.4986 4.67625 17.4662 4.61826 17.5041 4.60772C17.5419 4.57081 17.5635 4.61826 17.6068 4.60772C17.6446 4.5919 17.5635 4.5919 17.5689 4.57608H17.6338C17.6338 4.57608 17.65 4.5919 17.6663 4.59717C17.6879 4.57081 17.7798 4.555 17.7203 4.50755C17.7744 4.48119 17.8014 4.497 17.8176 4.48119C17.8014 4.48119 17.7852 4.48646 17.769 4.48119C17.8068 4.48119 17.769 4.47064 17.7528 4.47064C17.7365 4.43374 17.9474 4.38629 17.8717 4.34939H17.8879C17.8339 4.32303 17.769 4.31249 17.7474 4.28085H17.7798L17.7636 4.24922C17.7852 4.24395 17.8014 4.25449 17.8068 4.25977C17.7906 4.21759 17.8393 4.18596 17.8609 4.14905L17.6825 4.13851C17.7311 4.12269 17.823 4.08579 17.7744 4.0647H17.8339C17.9582 4.01725 17.796 4.00144 17.8339 3.98035L17.9041 3.95926V3.99617C17.9366 3.96453 17.9582 3.95399 18.0015 3.9329C18.0015 3.9329 17.9961 3.9329 17.9906 3.9329C17.9582 3.91709 17.942 3.896 17.9474 3.86964C17.9636 3.83273 17.915 3.8011 17.9852 3.74311L17.9204 3.72729L17.9582 3.68512H18.0123C18.0123 3.72729 18.0285 3.81692 18.0231 3.87491H18.0447C18.0447 3.84328 18.0285 3.8011 18.0339 3.78001C18.0447 3.76947 18.0988 3.73784 18.1312 3.7642L18.0826 3.74311C18.0772 3.62185 18.0718 3.62186 18.115 3.48478L18.0934 3.5006C18.0934 3.5006 18.0555 3.45315 18.0934 3.44261C18.088 3.36353 18.0934 3.27918 18.142 3.21064H18.0826C18.0826 3.21064 18.1583 3.14738 18.0772 3.16846L18.0393 3.14738C18.0393 3.14738 17.9961 3.12629 18.0177 3.08938C18.0177 3.08938 18.0177 3.08938 18.0177 3.08411C18.0177 3.03139 17.969 3.11047 17.9744 3.04194C18.0069 3.00503 17.8987 3.05775 17.8987 3.02612L17.9636 2.96286C17.9798 2.89432 17.9041 2.93122 17.8663 2.86796C17.8771 2.82051 17.9258 2.76779 17.9961 2.75198C17.9096 2.76779 17.942 2.76779 17.8879 2.75198C17.9096 2.73089 17.9204 2.73089 17.9474 2.72035C17.9582 2.66763 17.9095 2.72035 17.8933 2.69399C17.8393 2.72035 17.7528 2.77307 17.7419 2.76779L17.7311 2.78888C17.6879 2.78888 17.6608 2.77307 17.6663 2.72562L17.6933 2.7098L17.6608 2.69399L17.6879 2.66763L17.65 2.64127V2.65181C17.65 2.65181 17.6014 2.63072 17.6014 2.59909L17.6176 2.58327C17.6284 2.49365 17.5311 2.52001 17.4824 2.47783L17.5203 2.45147C17.5365 2.40403 17.4662 2.49365 17.4662 2.46202L17.5041 2.42511C17.4338 2.45675 17.4932 2.39348 17.5041 2.36185L17.4608 2.41457L17.45 2.38294C17.4446 2.34603 17.4986 2.30386 17.5311 2.28277L17.477 2.30913L17.5203 2.26168C17.4554 2.30386 17.5203 2.24059 17.4662 2.25114C17.4824 2.23005 17.4986 2.23005 17.4932 2.21423L17.3959 2.24587L17.4446 2.23532L17.3797 2.29859C17.3094 2.33022 17.3581 2.26695 17.3256 2.27223L17.3527 2.26168C17.3148 2.25641 17.3364 2.22478 17.3364 2.19842C17.331 2.21423 17.3202 2.24059 17.2986 2.24059C17.2878 2.24059 17.3148 2.21423 17.3148 2.19842C17.2716 2.24059 17.2337 2.25114 17.2337 2.21423C17.2391 2.20896 17.2445 2.20369 17.2499 2.19842C17.2391 2.19842 17.2283 2.21423 17.2283 2.19842L17.277 2.15097L17.2175 2.18787C17.2175 2.18787 17.1742 2.18787 17.2067 2.16151H17.2229L17.1688 2.08771L17.2067 2.04553C17.1472 2.09298 17.1905 1.99281 17.131 2.06662C17.1526 2.01917 17.0607 2.0508 17.1418 1.98227C17.1094 1.94009 17.0121 1.99281 17.0066 1.91373C17.0553 1.83465 16.9904 1.81884 16.9796 1.7872C16.9039 1.76612 16.8553 1.75557 16.7958 1.72394C16.8877 1.62904 16.7147 1.68176 16.7688 1.62377L16.7201 1.63432C16.7796 1.59214 16.6931 1.59741 16.7579 1.55524C16.7363 1.55524 16.7255 1.55524 16.7255 1.55524C16.7255 1.55524 16.7147 1.55524 16.6822 1.56578C16.7039 1.55524 16.6768 1.54469 16.7417 1.53942H16.7471C16.812 1.53415 16.7147 1.52888 16.7688 1.51833H16.6985H16.7093H16.7255C16.5741 1.45507 16.7904 1.46034 16.6768 1.37072C16.7417 1.40235 16.6444 1.34436 16.7201 1.37072C16.8228 1.3918 16.7093 1.33381 16.6931 1.30745C16.6931 1.30745 16.6877 1.30745 16.6822 1.30218L16.7039 1.28109C16.639 1.2231 16.7904 1.34436 16.7039 1.28109C16.8012 1.25473 16.8012 1.12821 16.8985 1.07549L16.8769 1.05967C16.8769 1.05967 16.8985 0.996405 16.9418 1.01222C16.985 1.02804 16.9255 0.933142 16.931 0.922598C16.9147 0.87515 16.9958 0.922598 16.985 0.92787C16.9958 0.90151 16.9526 0.817158 17.0066 0.82243C17.0715 0.880422 17.0283 0.695902 17.0932 0.76971C17.1743 0.790798 17.1364 0.669542 17.2175 0.69063C17.2175 0.69063 17.2175 0.695902 17.2229 0.701174C17.1905 0.601007 17.1688 0.500839 17.1418 0.400671L16.931 0.152888L16.6877 0C16.6174 0.0738078 16.5471 0.152888 16.4768 0.231967C16.3903 0.258327 16.3038 0.289959 16.2119 0.332135C16.0659 0.495567 15.9199 0.69063 15.8226 0.933142L15.8713 1.01222C15.6874 1.11239 15.7847 1.36017 15.6982 1.53415H15.7631C15.7685 1.58687 15.7307 1.58687 15.7199 1.59741C15.7415 1.8452 15.8658 2.06662 15.9902 2.21951C16.1146 2.37767 16.2335 2.49892 16.3092 2.62545C16.3038 2.67817 16.3795 2.71507 16.3633 2.76252C16.4876 2.76779 16.5525 2.82578 16.6066 2.88905H16.6011L16.639 2.91014C16.639 2.91014 16.6336 2.92068 16.6282 2.92595C16.6985 2.91541 16.7093 2.99976 16.7309 3.04721H16.7255C16.9201 3.24227 17.1472 3.35298 17.1202 3.55859C17.0391 3.64821 17.1905 3.71675 17.0932 3.80637C17.0337 3.80637 17.0283 4.00144 17.0337 4.03834L17.0229 4.04361Z" fill="#232C6A"/>
<path d="M17.8608 4.15625V4.16152H17.8987L17.8608 4.15625Z" fill="#232C6A"/>
<path d="M17.6608 4.63046C17.6608 4.63046 17.677 4.60938 17.6608 4.60938C17.6554 4.61465 17.6554 4.62519 17.6608 4.63046Z" fill="#232C6A"/>
<path d="M16.8443 4.55078C16.8443 4.55078 16.8497 4.5666 16.8659 4.57187C16.8659 4.56133 16.8713 4.55605 16.8713 4.55605C16.8659 4.55605 16.8497 4.55605 16.8389 4.55605L16.8443 4.55078Z" fill="#232C6A"/>
<path d="M17.1528 4.75L17.1691 4.76582C17.1691 4.76582 17.1636 4.75527 17.1528 4.75Z" fill="#232C6A"/>
<path d="M9.55619 11.4141H9.55078C9.55078 11.4141 9.55078 11.4457 9.55078 11.451L9.56159 11.4141H9.55619Z" fill="#232C6A"/>
<path d="M8.23689 11.9727H8.22607C8.22607 11.9727 8.23148 11.9885 8.23689 11.9727Z" fill="#232C6A"/>
<path d="M19.8934 14.2875C19.8826 14.2558 19.9151 14.2875 19.9259 14.2927C19.9205 14.2558 19.8988 14.2242 19.8718 14.2031C19.8556 14.2137 19.8988 14.2664 19.8988 14.2875H19.8934Z" fill="#232C6A"/>
<path d="M21.5479 18.7033L21.5371 18.6875C21.5371 18.6875 21.5425 18.698 21.5479 18.7033Z" fill="#232C6A"/>
<path d="M12.6216 9.74746C12.6216 9.74746 12.6378 9.74746 12.6432 9.74219C12.6324 9.74219 12.6216 9.74219 12.6216 9.74746Z" fill="#232C6A"/>
<path d="M7.1393 12.7137C7.1393 12.7137 7.12308 12.7031 7.11768 12.7031L7.1393 12.7137Z" fill="#232C6A"/>
<path d="M3.58161 18.3519H3.59243L3.5708 18.3203C3.5708 18.3361 3.5708 18.3467 3.58161 18.3519Z" fill="#232C6A"/>
<path d="M5.76615 13.9267V13.9373C5.79318 13.9162 5.84725 13.8529 5.90672 13.7685L5.87969 13.7422L5.76074 13.9267H5.76615Z" fill="#232C6A"/>
<path d="M3.88995 15.2579L4.05756 15.0997C3.91699 15.4107 3.80345 15.6322 3.72235 15.8589C3.64125 16.0803 3.53312 16.2859 3.49527 16.5759V16.539C3.45742 16.6233 3.57637 16.6918 3.18709 17.5723H3.18169C3.18169 17.6039 3.1925 17.6039 3.16006 17.6672L3.23035 17.5143C3.23035 17.6144 3.25738 17.7041 3.24116 17.8306C3.23035 17.8569 3.20872 17.8622 3.19791 17.8622L3.16006 18.1785C3.13843 18.2102 3.11681 18.2365 3.10059 18.2682C3.12221 18.3683 3.23034 18.3314 3.16006 18.5845C3.24116 18.4949 3.19791 18.7163 3.23575 18.6847C3.22494 18.6952 3.20872 18.7268 3.19791 18.7479C3.19791 18.9008 3.19791 19.1908 3.24116 19.254C3.24116 19.254 3.28441 19.1064 3.34388 18.943C3.40336 18.7795 3.46824 18.595 3.51149 18.5212C3.47905 18.7268 3.5169 18.5739 3.54393 18.537L3.52771 18.5212C3.55474 18.4 3.598 18.4 3.61422 18.342H3.6034V18.3525C3.6034 18.3525 3.59259 18.3525 3.59259 18.3472C3.58178 18.3472 3.57637 18.342 3.58178 18.3103C3.57637 18.2629 3.6034 18.1785 3.60881 18.1416H3.64665C3.58718 18.0415 3.85211 17.5564 3.87373 17.4405C3.94943 17.3298 3.93321 17.1716 3.99268 17.0292C4.06837 16.7973 4.07918 16.9238 4.13866 16.8184C4.19813 16.6813 4.09 16.8342 4.10081 16.7762L4.19813 16.618C4.1765 16.7182 4.21435 16.6708 4.23057 16.6602C4.28464 16.5126 4.44143 16.3123 4.38736 16.2384C4.49549 16.0539 4.52253 16.0645 4.56037 15.9854C4.53875 16.0065 4.50631 16.0592 4.49009 16.0539C4.54956 15.9854 4.49549 16.0118 4.47927 16.0434C4.47927 15.901 4.87936 15.4951 4.81449 15.4371H4.83071C4.78745 15.3897 4.71176 15.4055 4.71717 15.3106L4.77123 15.2684L4.78745 15.1735C4.83071 15.1261 4.83611 15.163 4.84152 15.1682C4.87396 15.0206 5.02534 14.8677 5.12266 14.7201L4.87396 14.7939C4.9875 14.6832 5.20376 14.4934 5.17132 14.4354L5.26864 14.388C5.52816 14.1982 5.35515 14.1929 5.45247 14.1086L5.59845 14.0242L5.50653 14.1455C5.62548 14.0453 5.67955 14.0084 5.78227 13.9399C5.78227 13.9399 5.77146 13.9451 5.76605 13.9399L5.77686 13.924C5.76064 13.8924 5.79308 13.8133 5.85796 13.7343C5.95528 13.6235 6.00935 13.5128 6.22561 13.3758V13.2914L6.37159 13.186L6.40944 13.2229C6.29049 13.3494 6.07423 13.6025 5.92825 13.7764L5.94447 13.7922C6.02557 13.6868 6.11748 13.5656 6.18236 13.5023C6.22021 13.4759 6.33375 13.4338 6.30671 13.5128L6.32293 13.4179C6.61489 13.0858 6.63111 13.0911 7.01498 12.8222H6.96632C7.02579 12.7589 7.08527 12.6851 7.12852 12.7009C7.34479 12.527 7.60971 12.3952 7.78813 12.3372V12.2634C7.83679 12.2317 7.95573 12.2528 7.93411 12.1685L8.02602 12.0841C8.09631 12.0472 8.12334 11.9945 8.22066 11.9734H8.23688C8.40448 11.8996 8.20984 11.926 8.40448 11.8469C8.48558 11.8469 8.43152 11.7414 8.52343 11.7045C8.56668 11.7098 8.60993 11.7204 8.65319 11.7309C8.84242 11.694 8.83161 11.6096 9.0749 11.4937C9.20466 11.4673 9.29117 11.5042 9.24251 11.5991C9.3128 11.4778 9.26954 11.5306 9.3939 11.4304C9.42634 11.4515 9.41552 11.462 9.3939 11.5042C9.53447 11.4884 9.45877 11.4462 9.55609 11.4146C9.55609 11.3513 9.55609 11.2459 9.58853 11.2353H9.54528C9.63719 11.1668 9.75073 11.1088 9.88049 11.093V11.1246L10.0103 11.0614L10.0319 11.093C10.0913 11.0666 10.1508 11.0403 10.2157 11.0192H10.1887C10.2319 10.9981 10.3725 10.9506 10.4644 10.9506V10.9717C10.7239 10.9876 10.8861 10.8241 11.1727 10.7819L11.1456 10.8294C11.2484 10.8558 11.1619 10.7609 11.2808 10.7661L11.297 10.8188C11.3835 10.7345 11.4322 10.8188 11.5025 10.8294L11.4592 10.7661H11.5944C11.7404 10.7661 11.6917 10.8347 11.6755 10.8768L11.7674 10.8083L11.7944 10.8663C11.8593 10.7872 11.8647 10.8663 11.9891 10.8188C11.9999 10.8399 11.9729 10.8558 12.0161 10.8663L12.2162 10.7661L12.0918 10.8136V10.724C12.227 10.6501 12.281 10.724 12.3729 10.6976L12.3081 10.7292C12.4595 10.6976 12.4703 10.7398 12.5568 10.7556C12.5297 10.7398 12.4865 10.7187 12.5514 10.7029C12.5946 10.6976 12.5784 10.7345 12.6216 10.7398C12.6325 10.6818 12.7406 10.6343 12.8433 10.6712C12.8433 10.6818 12.8433 10.687 12.8325 10.6923C12.8595 10.6818 12.8704 10.6712 12.9136 10.687L12.8866 10.7556L12.9731 10.6976C13.0271 10.7187 13.1137 10.6765 13.1028 10.7187L13.0704 10.7292L13.4975 10.7661V10.8188C13.5462 10.745 13.73 10.861 13.7246 10.7714C13.8003 10.8347 14.0436 10.7819 13.9841 10.8821C14.2544 10.9401 14.4329 10.8294 14.7519 10.977C14.8492 11.093 15.1736 11.1404 15.3844 11.209C15.7899 11.325 16.0765 11.3513 16.4766 11.5306C16.5685 11.6413 16.7199 11.6993 16.8767 11.7573C17.0335 11.8205 17.1848 11.8891 17.2876 11.9892H17.3795C17.4389 12.0683 17.5417 12.121 17.6552 12.1843C17.7633 12.2581 17.8769 12.3319 17.958 12.4426C18.0229 12.4637 18.0553 12.4795 18.0661 12.4848C18.0553 12.4743 18.0499 12.4584 18.0661 12.4321C18.1148 12.4953 18.2554 12.5639 18.2067 12.6061H18.1851C18.1364 12.6377 18.3851 12.7115 18.4067 12.8117L18.4175 12.7326L18.5149 12.838L18.477 12.8222C19.0555 13.1174 19.0826 13.4759 19.5746 13.8133C19.4718 13.7975 19.6773 13.8819 19.6178 13.9346C19.6232 14.1138 19.7962 14.1349 19.8936 14.214C19.8936 14.214 19.899 14.214 19.9098 14.214L20.0287 14.388C19.8665 14.3458 20.1909 14.4618 20.0503 14.4196C20.1639 14.6727 20.3315 14.9363 20.4991 15.2104C20.6397 15.5004 20.8235 15.7851 20.91 16.0908L20.9262 16.0539C20.9749 16.2068 21.0776 16.3808 21.0776 16.5073C21.083 16.6338 21.229 16.734 21.2452 16.7815C21.3209 16.8974 21.2668 17.0398 21.256 16.9818C21.3047 17.1136 21.429 17.2243 21.4398 17.4246C21.375 17.5037 21.6129 17.9466 21.5155 17.9677H21.5264C21.5101 18.0995 21.5426 18.2154 21.575 18.342C21.5966 18.4685 21.6129 18.595 21.5912 18.7321C21.5912 18.7321 21.5858 18.7321 21.575 18.7163C21.6831 18.8955 21.7967 19.08 21.8994 19.2698L22.2238 19.1011L22.4671 18.5687C22.4509 18.3314 22.413 18.0942 22.359 17.8622C22.3049 17.6303 22.2779 17.393 22.2022 17.1663C22.1319 16.792 22.0941 16.4072 21.9751 16.0381C21.6615 15.1577 21.1803 14.3353 20.6072 13.5972L20.4234 13.4812C20.3153 13.2176 20.0936 12.9909 19.8665 12.7642C19.6503 12.527 19.3853 12.3319 19.1961 12.0947L19.142 12.1316C19.0123 12.0209 19.0501 11.9998 19.0231 11.9681C17.7958 10.9717 16.2603 10.3707 14.8978 9.99115C14.7789 9.90152 14.3572 9.87516 14.2544 9.81717C13.7841 9.80663 13.2975 9.79608 12.8379 9.76445H12.8541C12.7838 9.75391 12.7082 9.76445 12.6379 9.76972C12.6271 9.76972 12.6271 9.75918 12.6379 9.75391C12.3946 9.82244 12.0053 9.78027 11.7025 9.78554L11.7187 9.77499C9.96159 9.9806 8.43152 10.6554 6.99335 11.6044C6.25805 11.984 5.67954 12.7431 5.04697 13.4021C4.97668 13.4548 4.63607 13.8397 4.39277 14.2878C4.11162 14.7148 3.93861 15.1946 3.90617 15.2684L3.88995 15.2579Z" fill="#232C6A"/>
<path d="M5.11722 14.7098L5.11182 14.715L5.16588 14.6992L5.11722 14.7098Z" fill="#232C6A"/>
<path d="M4.21436 16.7498C4.2468 16.6549 4.24139 16.6496 4.23058 16.6601C4.21976 16.697 4.21436 16.7234 4.21436 16.7498Z" fill="#232C6A"/>
<path d="M3.16016 18.7486C3.16016 18.8066 3.17097 18.7855 3.1926 18.7486C3.1926 18.6906 3.1926 18.6484 3.1926 18.6484C3.18719 18.6748 3.17097 18.717 3.16016 18.7433V18.7486Z" fill="#232C6A"/>
<path d="M3.53857 18.5415L3.5602 18.5626C3.5602 18.5309 3.54939 18.5309 3.53857 18.5415Z" fill="#232C6A"/>
</g>
<defs>
<clipPath id="clip0_980_6673">
<rect width="24" height="22" fill="white" transform="translate(0.5)"/>
</clipPath>
</defs>
</svg>
