<svg width="65" height="66" viewBox="0 0 65 66" fill="none" xmlns="http://www.w3.org/2000/svg">
<path fill-rule="evenodd" clip-rule="evenodd" d="M45.0749 1.08352C39.8616 3.08544 31.2687 11.1486 29.3616 26.3678C28.7479 26.2909 28.1182 26.248 27.4795 26.248C27.195 26.248 26.9105 26.2569 26.6243 26.273C24.8907 7.81741 31.9593 0.208685 31.9593 0.208685C31.9593 0.208685 38.8024 -0.639314 45.0749 1.08352Z" fill="#30A4A2"/>
<path fill-rule="evenodd" clip-rule="evenodd" d="M64.5849 13.841C57.8955 12.7801 47.8947 13.1253 36.6128 29.3107C35.9312 28.7919 35.2138 28.3357 34.4463 27.9474C43.6564 6.14278 52.7609 4.01562 52.7609 4.01562C52.7609 4.01562 59.6775 7.25376 64.5866 13.8427L64.5849 13.841Z" fill="#2A3580"/>
<path fill-rule="evenodd" clip-rule="evenodd" d="M21.618 27.4309C20.591 27.8549 19.6231 28.3898 18.7358 29.0285C10.4649 16.2191 12.5009 8.78389 12.5009 8.78389C12.5009 8.78389 17.3492 4.28448 23.3623 2.29688C20.2547 6.13792 17.5085 15.6913 21.6162 27.4309H21.618Z" fill="#F68B33"/>
<path fill-rule="evenodd" clip-rule="evenodd" d="M15.0841 32.6863C14.5152 33.4895 14.0214 34.3519 13.626 35.2678C1.78958 29.1547 1.60352 25.5194 1.60352 25.5194C1.60352 25.5194 3.70924 18.9734 6.71308 15.1484C6.04039 19.4135 6.95282 25.5803 15.0841 32.6845V32.6863Z" fill="#2A3580"/>
<path fill-rule="evenodd" clip-rule="evenodd" d="M12.8303 45.2895C1.22822 45.8763 1.02247 44.4827 1.02247 44.4827C1.02247 44.4827 -0.330059 39.9028 0.0760587 34.3711C1.39639 37.815 3.43771 40.9046 12.3902 42.7097C12.46 43.5899 12.6138 44.454 12.8303 45.2913V45.2895Z" fill="#30A4A2"/>
<path fill-rule="evenodd" clip-rule="evenodd" d="M17.3193 52.6358C8.51536 58.7739 6.95708 57.3284 6.95708 57.3284C6.95708 57.3284 4.24307 53.677 2.77246 49.8789C5.27536 51.9077 8.11639 54.389 16.033 51.3155C16.4391 51.7824 16.8613 52.2225 17.3193 52.6358Z" fill="#F68B33"/>
<path fill-rule="evenodd" clip-rule="evenodd" d="M24.2516 56.1989C20.2637 64.9347 17.0989 65.1781 17.0989 65.1781C14.4189 64.7952 13.6764 64.5161 10.9355 61.9167C13.7319 62.3568 18.1204 61.8451 22.8078 55.8125C23.2747 55.9681 23.7578 56.097 24.2498 56.2007L24.2516 56.1989Z" fill="#2A3580"/>
<path fill-rule="evenodd" clip-rule="evenodd" d="M30.6864 64.7826C30.6864 64.7826 27.2442 66.509 24.0078 65.8525C26.1225 65.0402 29.7328 62.3996 30.5361 56.2364C30.9064 56.1595 31.2875 56.0719 31.6489 55.9609C32.4254 63.6949 30.6864 64.7844 30.6864 64.7844V64.7826Z" fill="#30A4A2"/>
<path fill-rule="evenodd" clip-rule="evenodd" d="M39.7113 61.2408C39.7113 61.2408 38.7004 62.4591 36.1367 62.9582C37.2585 61.5771 38.4249 58.5644 36.1367 53.8163C36.3085 53.7036 36.482 53.5837 36.6466 53.4531C40.5486 58.5035 39.7113 61.239 39.7113 61.239V61.2408Z" fill="#F68B33"/>
<path fill-rule="evenodd" clip-rule="evenodd" d="M36.0829 45.2464C35.6553 46.3359 35.0309 47.3324 34.2098 48.2448C34.9647 48.3468 35.7323 48.4631 36.5105 48.6026C37.0794 47.8315 37.5338 47.0175 37.8881 46.1498L36.0811 45.2464H36.0829ZM35.242 33.0452C36.4175 34.2367 37.3013 35.5517 37.8899 36.9972L36.0829 37.9006C35.5891 36.643 34.8341 35.5033 33.818 34.4711C31.8518 32.5175 29.4813 31.5442 26.7136 31.5442C23.9459 31.5442 21.5825 32.521 19.6199 34.4836C17.6609 36.4426 16.6805 38.8041 16.6805 41.5717C16.6805 44.1104 17.5017 46.3019 19.1458 48.1589C18.3354 48.2645 17.5697 48.3808 16.8487 48.506C15.396 46.4969 14.6768 44.1891 14.6768 41.5717C14.6768 38.2441 15.8486 35.405 18.1958 33.0578C20.5431 30.7105 23.3859 29.5352 26.7136 29.5352C30.0412 29.5352 32.8876 30.707 35.2438 33.047L35.242 33.0452Z" fill="#2A3580"/>
<path fill-rule="evenodd" clip-rule="evenodd" d="M17.7466 49.62C17.4192 49.2586 17.1168 48.8883 16.8467 48.5072C17.5677 48.382 18.3334 48.2657 19.1438 48.1602C19.2959 48.3319 19.4516 48.4983 19.6179 48.6664C19.8362 48.8847 20.058 49.0904 20.287 49.2819C22.1083 50.8347 24.2498 51.6058 26.7098 51.6058C29.1697 51.6058 31.2451 50.858 33.052 49.3552C33.3132 49.1405 33.5655 48.908 33.8142 48.6575C33.9501 48.5215 34.0789 48.3856 34.2078 48.2442C34.9627 48.3462 35.7302 48.4625 36.5085 48.602C36.2312 48.9795 35.9288 49.3499 35.5979 49.7041C35.4851 49.8329 35.3635 49.9563 35.24 50.0816C32.8856 52.4377 30.0428 53.6131 26.7098 53.6131C23.3768 53.6131 20.5393 52.4377 18.1921 50.0905C18.0364 49.9349 17.8879 49.7792 17.7448 49.62H17.7466Z" fill="#0084AE"/>
</svg>
