<svg width="343" height="5" viewBox="0 0 343 5" fill="none" xmlns="http://www.w3.org/2000/svg">
<path opacity="0.1" d="M308.152 0.921187C314.756 0.819534 321.36 0.469006 327.965 0.20611L327.946 0.202604L328.141 0.19484C332.972 0.00266489 342.472 -0.375265 342.001 1.02635C340.952 1.66781 339.554 1.43121 338.303 1.46976C327.983 1.78173 317.644 2.11474 307.306 2.33907C300.647 2.48279 293.95 2.28299 287.309 2.54413C278.663 2.8859 270.035 2.71063 261.408 2.6195C251.787 2.51784 242.239 3.18385 232.636 3.15756C224.395 3.13477 216.153 3.3188 207.912 3.4555C201.915 3.55541 195.936 3.64128 189.939 3.66582C182.158 3.69912 174.376 3.89191 166.576 3.85511C163.228 3.83933 159.696 4.14079 156.366 4.00759C150.682 3.77974 145.034 3.81129 139.368 3.7517C132.654 3.6816 125.958 3.69737 119.243 3.54138C114.479 3.43097 109.677 3.47829 104.894 3.53262C99.3754 3.59572 93.8566 3.88841 88.3378 3.8183C80.8138 3.72191 73.2898 3.8148 65.7842 3.9813C57.4692 4.16532 49.1726 4.1145 40.876 4.03738C27.2445 3.90944 13.6131 3.60798 0 3.11549C-1.05221e-05 2.10614 0.755903 1.74697 2.72721 1.74257C8.25489 1.74585 13.7878 1.63071 19.3158 1.66606C26.3983 1.71163 33.4624 2.04989 40.5265 2.10597C56.8622 2.23567 73.1979 2.43372 89.5335 2.29526C101.123 2.19711 112.731 2.22866 124.32 2.1901C134.769 2.1568 145.182 1.60197 155.594 1.60547C170.991 1.61073 186.389 1.40918 201.786 1.14628C210.69 0.993803 219.575 1.88339 228.46 1.80277C236.297 1.73091 244.152 1.79926 251.971 1.48554C260.01 1.16305 268.03 1.41543 276.051 1.37687C280.963 1.35409 285.911 1.08944 290.823 1.00356C296.581 0.903661 302.376 1.01057 308.152 0.921187Z" fill="#232C6A"/>
</svg>
