<svg width="20" height="20" viewBox="0 0 20 20" fill="none" xmlns="http://www.w3.org/2000/svg">
<g clip-path="url(#clip0_649_3623)">
<path d="M5.90039 10.3447C5.90039 10.3447 5.90853 10.3447 5.91667 10.3447C5.92887 10.3366 5.93701 10.3285 5.94515 10.3203L5.90039 10.3447Z" fill="#232C6A"/>
<path d="M8.3053 10.4049C8.3053 10.4049 8.31344 10.4049 8.32157 10.4049C8.32157 10.4008 8.32157 10.3927 8.3053 10.4049Z" fill="#232C6A"/>
<path d="M0.21985 11.0156C0.203573 11.04 0.199504 11.0563 0.195435 11.0685C0.199504 11.0522 0.207642 11.036 0.21985 11.0156Z" fill="#232C6A"/>
<path d="M11.0154 14.7345C11.0154 14.7345 11.0113 14.7345 11.0032 14.7345C11.0113 14.7345 11.0195 14.7345 11.0276 14.7386L11.0113 14.7305L11.0154 14.7345Z" fill="#232C6A"/>
<path d="M10.9666 14.7534C10.9137 14.7453 10.9829 14.7412 11.0032 14.7371C10.9463 14.7249 10.8852 14.7249 10.8282 14.729C10.8282 14.7453 10.9422 14.7412 10.9666 14.7534Z" fill="#232C6A"/>
<path d="M0.932007 11.2852C0.932007 11.2852 0.923869 11.2933 0.9198 11.3014C0.927938 11.2933 0.927938 11.2892 0.932007 11.2852Z" fill="#232C6A"/>
<path d="M17.7458 14.6797L17.7336 14.7041C17.7336 14.7041 17.7499 14.6878 17.7458 14.6797Z" fill="#232C6A"/>
<path d="M5.94519 10.3206L5.96147 10.3125C5.96147 10.3125 5.94926 10.3166 5.94519 10.3206Z" fill="#232C6A"/>
<path d="M10.5271 10.418C10.5271 10.418 10.5312 10.4302 10.5393 10.4342H10.5474L10.5312 10.418H10.5271Z" fill="#232C6A"/>
<path d="M19.9106 12.9746C19.9106 12.9746 19.9147 12.9746 19.9187 12.9705L19.9025 12.9258C19.9025 12.9502 19.9065 12.9665 19.9106 12.9746Z" fill="#232C6A"/>
<path d="M13.5708 10.5241C13.5708 10.5241 13.579 10.52 13.583 10.516C13.5301 10.5078 13.3918 10.5078 13.2168 10.5078L13.2046 10.5363L13.5708 10.5241Z" fill="#232C6A"/>
<path d="M16.9035 11.1994L16.5779 11.1424C17.6156 11.118 18.1202 11.1709 18.9869 11.1302C18.9747 11.1302 18.9706 11.1384 18.9503 11.1424C18.9991 11.1547 19.0276 11.1099 19.1659 11.1424C19.231 11.1587 19.3287 11.1994 19.4182 11.3052C19.463 11.3581 19.5037 11.4273 19.524 11.5127C19.5322 11.5575 19.5403 11.6023 19.5403 11.6511C19.5403 11.6999 19.5322 11.7365 19.524 11.8423H19.52C19.52 11.8912 19.5322 11.8912 19.52 11.9929L19.5566 11.7447C19.5729 11.8912 19.6013 12.0214 19.6054 12.2208C19.5973 12.2615 19.5851 12.2777 19.5769 12.2818L19.5851 12.7661L19.5484 12.9166C19.5688 13.0631 19.6502 12.998 19.6054 13.3927C19.6624 13.2421 19.638 13.588 19.6665 13.5392C19.6583 13.5636 19.6502 13.6043 19.638 13.6409C19.6461 13.8769 19.6583 14.3205 19.6868 14.4303C19.6868 14.4303 19.8048 13.5066 19.8618 13.2584C19.8455 13.5921 19.8699 13.3479 19.8862 13.2788L19.874 13.2584C19.8862 13.059 19.9228 13.059 19.9309 12.9614C19.9309 12.9614 19.9228 12.9614 19.9228 12.9654V12.9776C19.9228 12.9776 19.9187 12.9776 19.9147 12.9695C19.9065 12.9695 19.9025 12.9614 19.9025 12.9085V12.9207C19.9025 12.8393 19.9065 12.6928 19.9106 12.6318H19.9391C19.9106 12.5585 19.9309 12.3103 19.9594 12.0539C19.9716 11.9237 19.992 11.8017 20.0001 11.6836C20.0083 11.5656 19.9879 11.468 19.9716 11.4151C19.9391 11.1913 19.7397 10.9797 19.5159 10.8291C19.3287 10.7193 19.2717 10.707 19.2473 10.6867C19.2229 10.6704 19.227 10.646 19.1171 10.6175C18.8323 10.5768 19.1741 10.6541 19.0561 10.646C18.9381 10.6257 18.8485 10.6175 18.7468 10.6012C18.9218 10.6012 18.8241 10.5809 18.7956 10.5687C18.5393 10.5646 18.1324 10.5117 18.0551 10.5687C17.7092 10.5402 17.7051 10.5158 17.5586 10.5158C17.6074 10.528 17.7092 10.5361 17.7092 10.5483C17.5708 10.5239 17.6441 10.5565 17.701 10.5606C17.4894 10.585 16.5983 10.4548 16.5535 10.5199V10.5077C16.5047 10.5565 16.582 10.6012 16.4355 10.6297L16.3379 10.6094L16.1873 10.6297C16.0856 10.6135 16.1385 10.6012 16.1385 10.5972C15.8943 10.6175 15.5566 10.5931 15.2636 10.585L15.5729 10.7152C15.3246 10.6867 14.877 10.6257 14.8282 10.6664L14.6776 10.6216C14.1812 10.5402 14.3318 10.6582 14.1324 10.6338L13.8842 10.585H14.1324C13.8842 10.5606 13.7865 10.5443 13.5871 10.5158C13.5871 10.5158 13.6115 10.5199 13.6115 10.5239H13.5749C13.5464 10.5483 13.4162 10.5646 13.2412 10.5646C12.993 10.5565 12.7977 10.5931 12.403 10.5443L12.3053 10.5931L12.0083 10.5646V10.5239C12.2972 10.5239 12.8506 10.5158 13.2249 10.5077L13.2331 10.4914C13.0093 10.4914 12.757 10.5077 12.6105 10.5036C12.5373 10.4955 12.3541 10.4548 12.4884 10.4303L12.3501 10.467C11.6095 10.471 11.6013 10.4751 10.8282 10.4303L10.8974 10.4507C10.7427 10.4629 10.5922 10.4751 10.5474 10.4426C10.0835 10.4344 9.59931 10.41 9.29819 10.3612L9.23308 10.4059C9.13542 10.4059 8.98893 10.3327 8.9401 10.3978L8.72851 10.4181C8.59422 10.4181 8.51284 10.4426 8.35821 10.4181C8.35821 10.4181 8.34193 10.4181 8.32973 10.4141C8.02454 10.3978 8.32973 10.4588 7.98385 10.4344C7.87398 10.4019 7.86177 10.4914 7.69086 10.4832L7.51996 10.4181C7.2107 10.3815 7.16187 10.4466 6.71426 10.4466C6.4986 10.4222 6.39687 10.3693 6.53929 10.3164C6.34397 10.3774 6.44977 10.3571 6.19341 10.3856C6.15272 10.3612 6.1812 10.3571 6.23817 10.3327C6.01029 10.3042 6.09575 10.353 5.92484 10.353C5.87601 10.3978 5.81497 10.4751 5.76208 10.4751L5.82718 10.4914C5.64407 10.5158 5.44468 10.528 5.22901 10.5036L5.23715 10.4792L5.00928 10.4914L4.993 10.4629L4.66747 10.471L4.71223 10.4792C4.63491 10.4792 4.38669 10.4955 4.24427 10.4792V10.4629C3.84549 10.41 3.51589 10.4792 3.04387 10.4832L3.1049 10.4507C2.94621 10.4181 3.06014 10.5036 2.86889 10.4873L2.86075 10.4466C2.69392 10.4995 2.64102 10.4344 2.52708 10.4141L2.57998 10.467L2.36024 10.4548C2.12016 10.4385 2.21375 10.3856 2.24631 10.3571L2.08354 10.4019L2.05099 10.353C1.93298 10.41 1.93298 10.3449 1.72138 10.3734C1.70511 10.3571 1.75801 10.3449 1.68476 10.3368L1.33888 10.4059L1.54641 10.3774L1.52199 10.4466C1.29819 10.5036 1.24936 10.4263 1.01742 10.4751C1.06625 10.4588 1.11508 10.4466 1.16391 10.4385C0.984863 10.4588 0.895341 10.4873 0.822096 10.5036C0.74885 10.5239 0.691882 10.5361 0.598291 10.5809C0.659329 10.5565 0.75292 10.5321 0.630844 10.6094C0.541322 10.6664 0.569807 10.6175 0.480285 10.6745C0.488423 10.7274 0.313449 10.9024 0.199512 11.1058C0.195443 11.1018 0.191373 11.0936 0.195443 11.0773C0.175097 11.1343 0.175097 11.1669 0.130336 11.2605L0.101851 11.1872C0.0937131 11.2564 0.0937131 11.3256 0.0977823 11.3947C0.0774364 11.4558 0.0774364 11.5412 0.0815056 11.5982C0.0815056 11.643 0.0815056 11.6755 0.0692981 11.6674L0.0570905 11.6145L0.044883 12.3266L0.00419125 12.3347C0.0611597 12.4039 -0.0161546 12.7213 0.0530214 12.7009C0.0123296 12.8352 0.0815056 13.2299 0.00012207 13.1486C0.00012207 13.3805 0.0163988 13.5636 0.0286063 13.7549L0.0367447 13.9014C0.0367447 13.9746 0.0367447 14.0519 0.0408138 14.1252C0.0408138 14.3327 0.044883 14.5239 0.223927 14.6867C0.280895 14.7518 0.362279 14.8128 0.512838 14.8413C0.655259 14.8576 0.907548 14.8535 0.968586 14.8576C1.18018 14.8576 1.40399 14.8576 1.59117 14.8576C2.30328 14.8291 2.78344 14.8088 3.49554 14.7803C3.93502 14.878 4.59015 14.7477 5.06218 14.8006L5.19239 14.764C5.50572 14.8251 5.98588 14.7518 6.42535 14.8088C6.53115 14.7925 6.58812 14.7884 6.6166 14.7844C6.59626 14.7844 6.56777 14.7762 6.55556 14.7518C6.68171 14.7681 6.934 14.7477 6.91772 14.7966H6.88517C6.86482 14.8495 7.26767 14.7803 7.40602 14.821L7.32871 14.7681L7.56472 14.7762L7.49961 14.7844C8.53318 14.6704 9.00114 14.8332 9.9696 14.7274C9.83939 14.7844 10.1609 14.6989 10.1731 14.7599C10.4172 14.8373 10.6247 14.7437 10.8282 14.7233C10.8282 14.7233 10.8282 14.7152 10.8404 14.7111L11.1904 14.7193C10.9788 14.7966 11.4426 14.6541 11.2514 14.7193C12.167 14.7762 13.3592 14.7193 14.4172 14.7437L14.3725 14.7233C14.641 14.7233 14.9747 14.703 15.1781 14.7355C15.3816 14.7681 15.6258 14.6867 15.7031 14.6826C15.9269 14.6501 16.1303 14.7152 16.0327 14.7152C16.2728 14.707 16.4966 14.6338 16.8262 14.6664C16.9401 14.7315 17.7295 14.6012 17.7417 14.6745V14.6664C18.169 14.7193 18.5718 14.6297 19.0276 14.6786C19.0276 14.6786 19.0195 14.6826 19.0032 14.6908L19.935 14.467L19.6705 14.2187L18.8648 14.0153L16.6797 14.06L14.934 13.9827L10.6898 14.0112L10.3887 14.0682C9.55455 13.9705 8.48435 14.0845 7.58507 14.0112L7.56472 14.06C7.31243 14.06 7.32871 14.0316 7.26767 14.0234C6.09168 14.0356 4.89127 14.0478 3.72749 14.056C3.14153 14.056 2.56777 14.056 2.00623 14.06C1.72545 14.06 1.44875 14.056 1.17204 14.0519H0.968586L0.866857 14.0478H0.85058C0.830234 14.0438 0.80175 14.0478 0.797681 14.0194C0.80175 14.0071 0.809888 13.9949 0.813957 13.9827C0.813957 13.9746 0.813957 13.9746 0.813957 13.9624V13.8118C0.822096 13.6124 0.822096 13.4171 0.842441 13.3357C0.813957 12.9899 0.797681 12.6358 0.793611 12.2818C0.793611 12.1028 0.793611 11.9278 0.789542 11.7528C0.789542 11.5412 0.789542 11.4965 0.830234 11.4029V11.4151C0.846511 11.3622 0.879064 11.3134 0.915687 11.2727C0.923825 11.2727 0.927894 11.2727 0.927894 11.2808C0.988932 11.1953 1.08659 11.1384 1.2575 11.1506C1.49758 11.1628 1.76208 11.1709 1.98588 11.1831H1.96147C4.57795 11.1953 7.00724 11.1058 9.60338 11.175C10.8119 11.2523 12.2158 11.1465 13.5993 11.2116C13.8516 11.2605 16.6553 11.2238 16.9035 11.1994Z" fill="#232C6A"/>
<path d="M19.5688 12.2778V12.2656C19.5484 12.2656 19.5566 12.2819 19.5688 12.2778Z" fill="#232C6A"/>
<path d="M15.2393 10.5793H15.2596L15.1904 10.5508L15.2393 10.5793Z" fill="#232C6A"/>
<path d="M18.9462 10.5659C18.7794 10.5577 18.7712 10.5659 18.7956 10.574C18.8567 10.574 18.9096 10.574 18.9462 10.5659Z" fill="#232C6A"/>
<path d="M19.6095 13.6388C19.6095 13.7284 19.6217 13.6917 19.6339 13.6388C19.6339 13.5493 19.6339 13.4883 19.6339 13.4883C19.6298 13.529 19.6176 13.5941 19.6136 13.6348L19.6095 13.6388Z" fill="#232C6A"/>
<path d="M19.8862 13.2835L19.9025 13.312C19.8984 13.2591 19.8944 13.2632 19.8862 13.2835Z" fill="#232C6A"/>
<path d="M3.22286 15.1685C3.21472 15.1644 3.20658 15.1603 3.20251 15.1562L3.22286 15.1685Z" fill="#232C6A"/>
<path d="M3.3408 15.0643C3.32859 15.0602 3.33673 15.0643 3.3408 15.0643V15.0643Z" fill="#232C6A"/>
<path d="M2.79956 16.25L2.81177 16.2581C2.82398 16.2581 2.82804 16.2581 2.82398 16.2541C2.81177 16.2459 2.8077 16.2541 2.79956 16.2541V16.25Z" fill="#232C6A"/>
<path d="M2.68575 16.645L2.66541 16.6328C2.66541 16.6328 2.68168 16.641 2.68575 16.645Z" fill="#232C6A"/>
<path d="M3.41406 14.957C3.41406 14.957 3.42627 14.9611 3.43034 14.9652L3.41406 14.957Z" fill="#232C6A"/>
<path d="M4.05294 14.5234C4.05294 14.5234 4.04887 14.5234 4.0448 14.5234L4.05701 14.5316C4.05701 14.5316 4.05701 14.5316 4.05294 14.5234Z" fill="#232C6A"/>
<path d="M3.58911 14.8361C3.58911 14.8361 3.58504 14.8361 3.58097 14.832C3.57284 14.832 3.56877 14.8361 3.5647 14.8483L3.58911 14.8605V14.8361Z" fill="#232C6A"/>
<path d="M4.28494 14.9639L4.2239 14.9558C4.2239 14.8866 4.29308 14.8866 4.2768 14.8174L4.28494 14.8255C4.28494 14.8255 4.18321 14.7604 4.36632 14.7564H4.37039C4.37039 14.7564 4.36225 14.7523 4.37853 14.7523H4.33784C4.33784 14.7523 4.30528 14.7157 4.30935 14.7035C4.31749 14.7035 4.32563 14.7075 4.33784 14.7116V14.6831L4.37853 14.6913C4.36225 14.675 4.28901 14.6424 4.34191 14.6424C4.28901 14.6262 4.31749 14.618 4.28901 14.6058C4.29715 14.6058 4.30528 14.6099 4.31749 14.614C4.31749 14.5977 4.31749 14.5692 4.29308 14.5488C4.29308 14.5488 4.16286 14.5488 4.10589 14.5326C4.13031 14.5204 4.10589 14.5244 4.08555 14.5204L4.09776 14.5285C4.09776 14.5285 4.04893 14.5163 4.03672 14.5204C4.03672 14.5204 4.04079 14.5204 4.04486 14.5204C4.04486 14.5204 4.05299 14.5204 4.05706 14.5204C4.0652 14.5204 4.06927 14.5285 4.0652 14.5285C4.0652 14.5285 4.05706 14.5366 4.05299 14.5407L4.02858 14.5285C4.07334 14.5611 3.92685 14.5448 3.91871 14.5529C3.88209 14.5488 3.91871 14.5814 3.89023 14.5855C3.86988 14.6017 3.84547 14.5773 3.81698 14.5773C3.79257 14.5814 3.84954 14.5895 3.84954 14.5977H3.80478C3.80478 14.5977 3.7885 14.5814 3.77629 14.5773C3.76408 14.5895 3.70711 14.5855 3.75594 14.618C3.72339 14.6262 3.69898 14.614 3.69491 14.618C3.70711 14.618 3.71525 14.618 3.72746 14.6262C3.69898 14.6221 3.72746 14.6343 3.73967 14.6302C3.75594 14.6546 3.61352 14.6424 3.67049 14.6709H3.65828C3.69898 14.6913 3.74374 14.7075 3.76408 14.7279H3.74374L3.76001 14.7401C3.74374 14.7401 3.73153 14.732 3.72746 14.7279C3.73967 14.7523 3.70711 14.7564 3.69491 14.7686L3.82105 14.8093C3.7885 14.8093 3.71932 14.8093 3.75594 14.8255L3.71118 14.8133C3.62166 14.8011 3.7356 14.85 3.70711 14.8459L3.65828 14.8378L3.66642 14.8255C3.63794 14.8255 3.62166 14.8255 3.58911 14.8255C3.58911 14.8255 3.59318 14.8255 3.59725 14.8255C3.61759 14.8418 3.6298 14.854 3.62166 14.8622C3.60945 14.8744 3.63387 14.8988 3.58097 14.8988L3.62166 14.9273H3.58911L3.55249 14.911C3.56062 14.8947 3.56469 14.8622 3.57283 14.8378L3.55656 14.8296C3.55656 14.8296 3.55656 14.8622 3.55249 14.8703C3.54435 14.8703 3.50366 14.8622 3.48331 14.8418L3.51179 14.8662C3.49552 14.9069 3.49552 14.911 3.43855 14.9313H3.4589C3.4589 14.9313 3.4711 14.9639 3.44262 14.9517C3.42634 14.972 3.38972 14.9883 3.33682 14.9842L3.37751 15.0087C3.37751 15.0087 3.30834 14.9883 3.36123 15.0209L3.37344 15.0412C3.37344 15.0412 3.38972 15.0616 3.36123 15.0575C3.36123 15.0575 3.36123 15.0575 3.35717 15.0575C3.33275 15.0656 3.39379 15.0738 3.35717 15.0819C3.32461 15.0738 3.406 15.1145 3.39379 15.1185L3.32868 15.0982C3.28799 15.0982 3.34496 15.1307 3.32868 15.1552C3.3002 15.1552 3.2473 15.1348 3.21068 15.1063C3.25951 15.1429 3.24323 15.1267 3.26357 15.1552C3.23916 15.147 3.23509 15.1429 3.21881 15.1307C3.18626 15.1307 3.23509 15.147 3.23102 15.1552C3.27171 15.1796 3.33682 15.2162 3.33682 15.2203H3.3531C3.36937 15.2447 3.37344 15.261 3.34903 15.261L3.32868 15.2487V15.265L3.30427 15.2528V15.2732H3.3124C3.3124 15.2772 3.31647 15.2976 3.3002 15.2976L3.28392 15.2894C3.22695 15.2894 3.27985 15.3342 3.27171 15.3627L3.24323 15.3423C3.21068 15.3342 3.28799 15.3668 3.26764 15.3708L3.23102 15.3545C3.27578 15.3871 3.21474 15.3627 3.1944 15.3545L3.24323 15.3749L3.22695 15.383C3.20254 15.3871 3.16185 15.3586 3.13743 15.3464L3.16998 15.3749L3.12522 15.3545C3.17405 15.3871 3.11302 15.3545 3.13336 15.383C3.11708 15.3749 3.10895 15.3668 3.10081 15.3668L3.15371 15.4156L3.13336 15.3912L3.1944 15.4237C3.23509 15.4603 3.17812 15.4359 3.1944 15.4522L3.17812 15.4359C3.18626 15.4563 3.15778 15.4441 3.1415 15.4441C3.15371 15.4441 3.17405 15.4522 3.17812 15.4603C3.17812 15.4644 3.15371 15.4522 3.14557 15.4522C3.18626 15.4725 3.20254 15.4929 3.18219 15.4929C3.17812 15.4929 3.16998 15.4848 3.16591 15.4848C3.16998 15.4888 3.18219 15.497 3.16591 15.497L3.12115 15.4725L3.16185 15.501C3.16185 15.501 3.17812 15.5254 3.14557 15.5092L3.13743 15.501L3.10895 15.5336L3.07232 15.5173C3.12115 15.5458 3.04384 15.5295 3.10895 15.558C3.07232 15.5458 3.12115 15.5987 3.04791 15.558C3.03163 15.5783 3.09267 15.6272 3.04384 15.6435C2.97873 15.6231 2.9828 15.6638 2.96652 15.6801C2.97466 15.733 2.9828 15.7655 2.9828 15.8144C2.88514 15.794 2.9828 15.8876 2.92176 15.8876L2.95432 15.912C2.89328 15.8998 2.94618 15.9609 2.88107 15.9568C2.89328 15.969 2.89735 15.9771 2.89735 15.9771C2.89735 15.9771 2.90549 15.9771 2.9299 15.9893C2.90956 15.9893 2.92176 16.0097 2.88107 15.9893C2.84038 15.9609 2.88921 16.0178 2.84852 16.0056L2.89735 16.026L2.88514 16.0341L2.877 16.026C2.95025 16.1318 2.79155 16.0829 2.86073 16.1847C2.8119 16.1521 2.88107 16.2091 2.82817 16.1847C2.75086 16.1643 2.82817 16.2172 2.84445 16.2376C2.84445 16.2376 2.84852 16.2376 2.85259 16.2416L2.83631 16.2579C2.7712 16.2131 2.88921 16.2986 2.83631 16.2579C2.759 16.2823 2.77934 16.3718 2.72644 16.4166L2.74679 16.4247C2.74679 16.4247 2.74679 16.4654 2.71424 16.4614C2.68168 16.4614 2.74679 16.5061 2.74679 16.5143C2.7712 16.5427 2.7061 16.5224 2.71017 16.5143C2.71017 16.5305 2.7712 16.5753 2.73458 16.5794C2.67354 16.555 2.76714 16.6567 2.70203 16.6241H2.7061C2.64913 16.6241 2.71831 16.6892 2.66134 16.6892C2.66134 16.6892 2.65727 16.6892 2.6532 16.6852L2.82817 16.8357L3.05605 16.9334L3.25951 16.9822L3.27985 16.8439L3.39786 16.7869L3.48738 16.5468L3.44669 16.5061C3.55656 16.5061 3.48331 16.3963 3.57283 16.38L3.53214 16.3556C3.53214 16.3556 3.56062 16.3556 3.57283 16.3556C3.62573 16.2253 3.63387 16.0666 3.74374 15.9812C3.77629 15.9812 3.77629 15.9446 3.81291 15.9486C3.78036 15.8835 3.80071 15.8469 3.82105 15.8103H3.82512V15.794C3.82512 15.794 3.83326 15.794 3.83733 15.7981C3.80884 15.7574 3.86174 15.7493 3.89023 15.733C3.96754 15.5987 3.95127 15.4319 4.08148 15.322C4.18321 15.2935 4.12624 15.1674 4.21983 15.1226C4.26866 15.1307 4.31342 14.9639 4.29715 14.9395L4.28494 14.9639Z" fill="#232C6A"/>
<path d="M3.68669 14.7738L3.6582 14.7656L3.68669 14.7738Z" fill="#232C6A"/>
<path d="M3.77219 14.5664C3.77219 14.5664 3.76813 14.5745 3.77219 14.5786C3.77219 14.5786 3.77219 14.5705 3.77219 14.5664Z" fill="#232C6A"/>
<path d="M4.34188 14.6216C4.34188 14.6216 4.33374 14.6134 4.32153 14.6094C4.32153 14.6134 4.32153 14.6175 4.32153 14.6175C4.3256 14.6175 4.33781 14.6175 4.34188 14.6175V14.6216Z" fill="#232C6A"/>
<path d="M4.08557 14.516L4.07336 14.5078C4.07336 14.5078 4.0815 14.516 4.08557 14.516Z" fill="#232C6A"/>
<path d="M16.3582 15.5469C16.35 15.5469 16.3419 15.555 16.3337 15.555L16.3582 15.5469Z" fill="#232C6A"/>
<path d="M16.3459 15.3906C16.3337 15.3947 16.3419 15.3906 16.3459 15.3906V15.3906Z" fill="#232C6A"/>
<path d="M16.9685 16.5358C16.9685 16.5358 16.9807 16.5317 16.9848 16.5317C16.997 16.5236 16.9929 16.5195 16.9848 16.5195C16.9726 16.5277 16.9766 16.5317 16.9685 16.5358Z" fill="#232C6A"/>
<path d="M17.2166 16.8633L17.1963 16.8714C17.1963 16.8714 17.2126 16.8633 17.2166 16.8633Z" fill="#232C6A"/>
<path d="M16.3011 15.266C16.3011 15.266 16.3134 15.2578 16.3174 15.2578L16.3011 15.266Z" fill="#232C6A"/>
<path d="M16.3379 14.4961C16.3379 14.4961 16.3338 14.4961 16.3297 14.5002H16.346C16.346 14.5002 16.3419 14.4961 16.3379 14.4961Z" fill="#232C6A"/>
<path d="M16.3093 15.0547C16.3093 15.0547 16.3052 15.0547 16.3011 15.0547C16.2971 15.0628 16.3011 15.071 16.3011 15.0791L16.3255 15.0669L16.3052 15.0547H16.3093Z" fill="#232C6A"/>
<path d="M16.8302 14.5745L16.7854 14.6192C16.7325 14.5745 16.7732 14.5216 16.7081 14.4972H16.7203C16.7203 14.4972 16.6104 14.5379 16.7162 14.3873H16.7203C16.7203 14.3873 16.7081 14.3873 16.7203 14.3751L16.6959 14.4036C16.6959 14.4036 16.6511 14.4077 16.643 14.3995C16.6471 14.3954 16.6593 14.3873 16.6674 14.3832L16.6471 14.3629L16.6756 14.3385C16.6552 14.3385 16.582 14.3792 16.6145 14.3385C16.5698 14.371 16.5779 14.3425 16.5535 14.3588C16.5575 14.3548 16.5657 14.3466 16.5738 14.3425C16.5616 14.3344 16.5372 14.3141 16.5087 14.3222C16.5087 14.3222 16.4273 14.4239 16.3826 14.4646C16.3866 14.4402 16.3744 14.4646 16.3582 14.4768H16.3704C16.3704 14.4768 16.3337 14.5053 16.3256 14.5134C16.3256 14.5134 16.3297 14.5134 16.3337 14.5094H16.3297C16.3297 14.5094 16.3378 14.5094 16.3419 14.5053C16.35 14.5053 16.3541 14.5012 16.3541 14.5053C16.3541 14.5053 16.3582 14.5175 16.3582 14.5216L16.3337 14.5338C16.3866 14.5175 16.2849 14.6233 16.289 14.6355C16.2605 14.664 16.3093 14.6559 16.3012 14.6762C16.3012 14.7006 16.2686 14.7047 16.2524 14.7291C16.2442 14.7495 16.2808 14.7128 16.2849 14.7169L16.2564 14.7495C16.2564 14.7495 16.2361 14.7535 16.2279 14.7617C16.2279 14.7779 16.1954 14.8227 16.2483 14.8024C16.232 14.8349 16.2117 14.8431 16.2117 14.8512C16.2198 14.8431 16.2239 14.8349 16.2361 14.8308C16.2157 14.8512 16.2442 14.8308 16.2483 14.8268C16.2768 14.8268 16.1832 14.9326 16.2402 14.9082H16.2279C16.2727 14.896 16.3093 14.8715 16.3378 14.8675L16.3215 14.8837H16.3419C16.3419 14.8837 16.3175 14.896 16.3134 14.9C16.3378 14.9 16.3256 14.9326 16.3256 14.9529L16.4355 14.8797C16.4151 14.9082 16.3744 14.957 16.4111 14.9407L16.3744 14.9692C16.3134 15.0343 16.4151 14.9692 16.3989 14.9936L16.3622 15.0302V15.018C16.3419 15.0424 16.3297 15.0547 16.3093 15.0791C16.3093 15.0791 16.3093 15.0791 16.3134 15.075C16.3337 15.0669 16.3541 15.0669 16.3582 15.075C16.3582 15.0913 16.3948 15.0872 16.3582 15.1279L16.4029 15.1116L16.3866 15.1401L16.35 15.1564C16.35 15.1564 16.3175 15.1157 16.3053 15.0994L16.289 15.1075C16.289 15.1075 16.3175 15.1238 16.3175 15.136C16.3134 15.1442 16.2808 15.1727 16.2564 15.1767L16.2931 15.1686C16.3175 15.2052 16.3175 15.2052 16.3012 15.2662L16.3175 15.254C16.3175 15.254 16.346 15.2622 16.3175 15.2785C16.3256 15.3069 16.3175 15.3436 16.2808 15.3802L16.3215 15.3639C16.3215 15.3639 16.2646 15.4087 16.3215 15.3843H16.346C16.346 15.3843 16.3704 15.3843 16.3541 15.4087C16.3541 15.4087 16.3541 15.4087 16.35 15.4087C16.3419 15.4331 16.3866 15.3883 16.3704 15.4209C16.346 15.4412 16.4273 15.4005 16.4192 15.4168L16.3663 15.4534C16.3419 15.486 16.4029 15.4616 16.4151 15.4819C16.3989 15.5023 16.3541 15.5348 16.3053 15.547C16.3663 15.5307 16.3419 15.5348 16.3744 15.5348C16.3541 15.547 16.35 15.547 16.3256 15.5552C16.3053 15.5796 16.35 15.5552 16.3541 15.5633C16.3989 15.547 16.464 15.5145 16.468 15.5185L16.4802 15.5104C16.5087 15.5104 16.525 15.5145 16.5087 15.5348L16.4884 15.543L16.5047 15.5511L16.4802 15.5633L16.4965 15.5755H16.5006C16.5006 15.5755 16.5209 15.5796 16.5128 15.5959L16.4965 15.604C16.4599 15.6487 16.5291 15.6365 16.5494 15.661L16.5169 15.6732C16.4924 15.6976 16.5657 15.6528 16.5535 15.6732L16.5169 15.6935C16.5698 15.6772 16.5128 15.7098 16.4965 15.7261L16.5453 15.6976V15.7139C16.5331 15.7342 16.4843 15.7545 16.4558 15.7627L16.5006 15.7505L16.4599 15.7749C16.5128 15.7545 16.4558 15.7871 16.4884 15.783C16.4721 15.7912 16.4599 15.7952 16.4558 15.7993L16.525 15.7871H16.4924L16.5575 15.7586C16.6104 15.7464 16.5575 15.779 16.582 15.779H16.5616C16.582 15.7871 16.5575 15.8034 16.5453 15.8156C16.5575 15.8074 16.5698 15.7952 16.582 15.7952C16.586 15.7952 16.5616 15.8074 16.5575 15.8156C16.5982 15.7952 16.6267 15.7952 16.6104 15.8156C16.6064 15.8156 16.5982 15.8197 16.5942 15.8237C16.6023 15.8237 16.6145 15.8197 16.6064 15.8237L16.5575 15.8441L16.6064 15.8278C16.6064 15.8278 16.6349 15.8278 16.6023 15.8441H16.5901L16.5982 15.8888L16.5616 15.9092C16.6145 15.8888 16.5535 15.9377 16.6145 15.9092C16.582 15.9336 16.6552 15.9255 16.5779 15.958C16.586 15.9865 16.6593 15.9661 16.643 16.0109C16.586 16.0516 16.6227 16.0719 16.6267 16.0964C16.6715 16.1208 16.7081 16.133 16.7447 16.1655C16.6715 16.2306 16.8017 16.2103 16.7691 16.2591L16.8058 16.251C16.761 16.2957 16.8383 16.2876 16.7976 16.3364C16.8139 16.3364 16.822 16.3364 16.822 16.3364C16.822 16.3364 16.8302 16.3283 16.8505 16.3202C16.8383 16.3364 16.8627 16.3405 16.822 16.3609H16.818C16.7732 16.3812 16.8465 16.3731 16.818 16.3975L16.8627 16.369V16.3853H16.8505C16.9807 16.3893 16.8505 16.487 16.9645 16.4911C16.9116 16.5073 16.997 16.4911 16.9401 16.5155C16.879 16.5643 16.9685 16.5318 16.993 16.5358C16.993 16.5358 16.997 16.5358 17.0052 16.5318V16.5521C16.9319 16.5765 17.0743 16.5358 17.0052 16.5521C16.9767 16.6254 17.0621 16.666 17.0662 16.7352L17.0825 16.723C17.0825 16.723 17.115 16.7474 17.0947 16.7718C17.0703 16.7963 17.1516 16.7718 17.1557 16.7718C17.1923 16.7718 17.1354 16.8085 17.1354 16.8044C17.1516 16.8125 17.2208 16.7922 17.2005 16.8247C17.1435 16.8614 17.2819 16.8451 17.2168 16.8776H17.2208C17.1842 16.9224 17.2778 16.9021 17.2452 16.9468C17.2452 16.9468 17.2412 16.9468 17.2371 16.9468L17.465 16.8939L17.6806 16.7678L17.8393 16.6335L17.7417 16.5358L17.7661 16.4056L17.6277 16.1899L17.5708 16.1981C17.6359 16.1086 17.5057 16.1045 17.5464 16.0231L17.5016 16.0435C17.5016 16.0435 17.5179 16.019 17.526 16.0109C17.4528 15.8888 17.3307 15.7871 17.3266 15.6487C17.351 15.6243 17.3144 15.5999 17.3429 15.5755C17.2697 15.5633 17.2534 15.5267 17.2412 15.486H17.2452L17.229 15.4738C17.229 15.4738 17.2371 15.4697 17.2412 15.4656C17.1923 15.4656 17.2168 15.4168 17.2208 15.3843H17.2249C17.1639 15.2378 17.0174 15.1482 17.0092 14.9814C17.0459 14.8797 16.9116 14.8553 16.936 14.7495C16.9726 14.7128 16.8627 14.5786 16.8383 14.5786L16.8302 14.5745Z" fill="#232C6A"/>
<path d="M16.3175 14.9416V14.9375L16.2971 14.9578L16.3175 14.9416Z" fill="#232C6A"/>
<path d="M16.2035 14.75C16.2035 14.75 16.2035 14.7581 16.2116 14.7541C16.2116 14.7541 16.2116 14.75 16.2035 14.75Z" fill="#232C6A"/>
<path d="M16.59 14.3281C16.59 14.3281 16.5778 14.3281 16.5697 14.3403C16.5738 14.3403 16.5778 14.3485 16.5778 14.3485C16.5778 14.3444 16.59 14.3363 16.59 14.3322V14.3281Z" fill="#232C6A"/>
<path d="M16.354 14.4688H16.3378C16.3378 14.4688 16.35 14.4728 16.354 14.4688Z" fill="#232C6A"/>
<path d="M6.84851 3.86719C6.84851 3.86719 6.84444 3.86719 6.84037 3.86719C6.83223 3.87533 6.82817 3.88346 6.8241 3.8916L6.85258 3.86719H6.84851Z" fill="#232C6A"/>
<path d="M5.39596 3.80859H5.38782C5.38782 3.80859 5.38782 3.81673 5.39596 3.80859Z" fill="#232C6A"/>
<path d="M10.1975 3.77751C10.1975 3.77751 10.2179 3.77751 10.2219 3.77344C10.2138 3.77344 10.2056 3.77344 10.1975 3.77751Z" fill="#232C6A"/>
<path d="M17.1884 5.38298C17.1884 5.38298 17.1884 5.38298 17.1884 5.37891C17.1884 5.38298 17.1884 5.38704 17.1843 5.39111L17.1925 5.38298H17.1884Z" fill="#232C6A"/>
<path d="M17.168 5.3584C17.1721 5.32992 17.1802 5.36654 17.1843 5.37875C17.1965 5.34619 17.1965 5.31771 17.1843 5.28516C17.1721 5.28516 17.1761 5.34619 17.1639 5.3584H17.168Z" fill="#232C6A"/>
<path d="M17.2494 9.44173L17.225 9.43359C17.225 9.43359 17.2413 9.44173 17.2494 9.44173Z" fill="#232C6A"/>
<path d="M6.82019 3.89062L6.80798 3.89876C6.80798 3.89876 6.81612 3.89469 6.82019 3.89062Z" fill="#232C6A"/>
<path d="M4.21179 3.93018C4.21179 3.93018 4.20365 3.91797 4.19958 3.91797L4.21586 3.93018H4.21179Z" fill="#232C6A"/>
<path d="M2.82015 9.88005C2.82015 9.88005 2.82422 9.88005 2.82829 9.88005L2.81201 9.85156C2.81201 9.85156 2.81608 9.87598 2.82015 9.88412V9.88005Z" fill="#232C6A"/>
<path d="M3.15381 5.02312C3.15381 5.02312 3.15381 5.03126 3.16195 5.03126C3.17415 5.00684 3.1945 4.93767 3.22705 4.85221L3.20264 4.83594C3.18229 4.89698 3.16602 4.96208 3.15381 5.02312Z" fill="#232C6A"/>
<path d="M2.41728 6.96794L2.47425 6.77261C2.50273 7.40334 2.44169 7.69632 2.49052 8.23752L2.47832 8.20903C2.46611 8.28635 2.59632 8.33111 2.43762 9.19784H2.43355C2.43355 9.22633 2.44576 9.22633 2.43355 9.28737L2.47018 9.13681C2.48645 9.22633 2.51087 9.30364 2.51494 9.42572C2.5068 9.45013 2.49459 9.45827 2.48645 9.46234L2.49459 9.75532L2.45797 9.84484C2.47832 9.93436 2.5597 9.89367 2.51494 10.1338C2.57191 10.0442 2.54749 10.2518 2.57598 10.2233C2.56784 10.2396 2.5597 10.264 2.54749 10.2843C2.55563 10.4267 2.56784 10.6953 2.59632 10.7645C2.59632 10.7645 2.71433 10.207 2.7713 10.0564C2.75502 10.2558 2.77943 10.1093 2.79571 10.0686L2.7835 10.0564C2.79571 9.93437 2.83233 9.93436 2.84047 9.8774H2.83233V9.88553C2.83233 9.88553 2.82826 9.88553 2.8242 9.88147C2.81606 9.88147 2.81199 9.8774 2.81199 9.84484V9.85298C2.81199 9.80415 2.81606 9.71463 2.82013 9.67801H2.84861C2.79164 9.58848 2.93406 9.07577 2.93406 8.95776C2.97069 8.83569 2.92593 8.6892 2.9422 8.53864C2.95034 8.29856 2.98289 8.42063 3.01138 8.29856C3.02765 8.148 2.97882 8.32704 2.97476 8.27007L3.01545 8.09103C3.01545 8.19683 3.03579 8.13986 3.048 8.11951C3.05207 7.96488 3.10497 7.71666 3.048 7.6719C3.07648 7.46031 3.1009 7.46031 3.1009 7.37078C3.08869 7.39927 3.08055 7.46031 3.06835 7.46031C3.09276 7.37485 3.06021 7.41961 3.05614 7.45624C3.03172 7.32602 3.16194 6.78889 3.09683 6.76448H3.10904C3.06021 6.73599 3.01545 6.78075 2.98696 6.69123L3.00731 6.63019L2.98696 6.54067C3.00324 6.47963 3.01545 6.50812 3.01952 6.50812C2.99917 6.36163 3.02359 6.15817 3.03172 5.97913L2.90151 6.16631C2.92999 6.01575 2.99103 5.74718 2.95034 5.71463L2.9951 5.62511C3.08055 5.32806 2.96662 5.42572 2.9951 5.30771C3.01138 5.26295 3.03986 5.21819 3.06021 5.1775C3.05614 5.22226 3.04393 5.26702 3.03986 5.31178C3.08055 5.18157 3.1009 5.12867 3.16194 5.03508L3.1538 5.04322V5.02694C3.13752 5.00659 3.13752 4.93335 3.17414 4.84383C3.22298 4.72175 3.24332 4.60374 3.40202 4.45318L3.39388 4.37994C3.43457 4.34332 3.47119 4.30263 3.52002 4.27007L3.54851 4.29449C3.43864 4.40435 3.29215 4.66071 3.23111 4.84789L3.24739 4.85603C3.28401 4.74617 3.33284 4.62002 3.3776 4.55898C3.40202 4.5305 3.48747 4.47353 3.47119 4.54678C3.47119 4.51829 3.47526 4.49388 3.47933 4.46946C3.5892 4.31483 3.66245 4.24566 3.73569 4.18462C3.80894 4.12358 3.89846 4.06661 4.0775 3.9893H4.04088C4.10192 3.94047 4.17109 3.89978 4.20365 3.92012C4.42338 3.82653 4.6716 3.81432 4.81809 3.85908L4.85065 3.81025C4.89541 3.81025 4.99307 3.87943 5.02155 3.81432L5.1477 3.79398C5.22908 3.79398 5.27791 3.76956 5.3715 3.79398C5.3715 3.79398 5.38371 3.79398 5.38778 3.79805C5.57089 3.81432 5.38778 3.75329 5.5953 3.7777C5.66448 3.81025 5.66855 3.72073 5.77435 3.72887L5.87608 3.79398C6.06326 3.8306 6.09174 3.76549 6.36438 3.76549C6.49459 3.78991 6.55563 3.84281 6.47018 3.89571C6.58818 3.83467 6.52308 3.85502 6.68177 3.82653C6.70619 3.85095 6.68991 3.85502 6.65329 3.87943C6.79164 3.90792 6.73874 3.85908 6.84454 3.85908C6.87303 3.81432 6.90965 3.73701 6.9422 3.73701L6.90151 3.72073C7.01138 3.69632 7.13345 3.68411 7.26367 3.70853V3.73294L7.39388 3.72073L7.40202 3.74922L7.59734 3.74108L7.56885 3.73294C7.61362 3.73294 7.76417 3.71666 7.8537 3.73294V3.74922C8.09378 3.80212 8.29317 3.73294 8.57801 3.72887L8.54139 3.76142C8.63905 3.79398 8.56987 3.70853 8.68381 3.7248V3.76549C8.78961 3.71259 8.82216 3.7777 8.89134 3.79805L8.85878 3.74515L8.989 3.75736C9.13549 3.77363 9.07852 3.82653 9.05817 3.85502L9.15583 3.81025L9.17618 3.85908C9.24942 3.80212 9.24942 3.86722 9.37557 3.83874C9.38778 3.85502 9.35522 3.86722 9.39592 3.87536L9.60344 3.80619L9.4773 3.83467L9.49357 3.76549C9.62379 3.71259 9.67262 3.77363 9.76621 3.75329L9.7011 3.77363C9.85573 3.75736 9.86387 3.78584 9.94932 3.80212C9.92084 3.78991 9.88015 3.76956 9.94525 3.76142C9.99001 3.76142 9.96967 3.78584 10.0144 3.79398C10.0266 3.74515 10.1365 3.72073 10.2342 3.74515C10.2342 3.75329 10.2342 3.75736 10.226 3.76142C10.2504 3.75329 10.2626 3.74108 10.3074 3.75329L10.283 3.80619L10.3684 3.75736C10.4254 3.77363 10.5068 3.73294 10.4987 3.76956L10.4661 3.78177L10.8974 3.79398V3.83467C10.9463 3.7777 11.1375 3.85502 11.1253 3.78584C11.2067 3.82653 11.4468 3.75736 11.3979 3.83874C11.6828 3.84688 11.8334 3.76549 12.1792 3.80619C12.3013 3.87536 12.639 3.85095 12.8588 3.85908C13.2901 3.8306 13.5668 3.80619 14.0104 3.78177C14.2749 3.87943 14.6736 3.74922 14.9585 3.80212L15.0358 3.76549C15.223 3.8306 15.5322 3.74108 15.7235 3.8306C15.7805 3.82246 15.8089 3.81839 15.8211 3.82246C15.813 3.81839 15.7967 3.81025 15.7967 3.78584C15.8537 3.81432 15.9839 3.8306 15.9636 3.87129H15.9473C15.9229 3.91198 16.1345 3.90792 16.1792 3.98116L16.167 3.91605L16.2728 3.97709H16.2403C16.4966 4.0422 16.6431 4.18869 16.7571 4.33518C16.871 4.48574 16.9564 4.6363 17.0948 4.85196C17.0175 4.81127 17.1558 4.93335 17.0989 4.96183C17.0582 5.10018 17.168 5.1775 17.2006 5.27923C17.2006 5.27923 17.2087 5.27923 17.2128 5.2833V5.46641C17.1355 5.3484 17.282 5.6129 17.2128 5.50303C17.1558 6.05644 17.2128 6.77668 17.1884 7.41961L17.2087 7.39113C17.2087 7.5539 17.2291 7.75736 17.1965 7.87943C17.164 8.00151 17.2454 8.148 17.2494 8.19683C17.282 8.33111 17.2169 8.45318 17.2169 8.39622C17.225 8.53864 17.2983 8.67699 17.2657 8.87638C17.2006 8.94555 17.3308 9.42165 17.2576 9.42979H17.2657C17.2128 9.69021 17.3023 9.9303 17.2535 10.207C17.2535 10.207 17.2494 10.2029 17.2413 10.1907L17.4651 10.7523L17.7133 10.5936L17.9168 10.1053L17.872 8.78279L17.9493 7.72887L17.9371 6.44708L17.929 5.80415V5.48269C17.9208 5.36061 17.9168 5.22633 17.8924 5.10018C17.8639 5.03101 17.8354 4.96183 17.7947 4.89672C17.7743 4.59561 17.6238 4.266 17.4081 3.99337C17.1884 3.71666 16.9117 3.49286 16.6431 3.30975L16.6065 3.34637C16.4437 3.26905 16.4641 3.24871 16.4275 3.22022C16.2281 3.14291 16.0205 3.0778 15.8089 3.05339C15.7031 3.03304 15.5973 3.03711 15.4875 3.03304H15.2148C14.8567 3.04118 14.4987 3.04932 14.1487 3.05746C13.4447 3.0656 12.7571 3.06966 12.1141 3.03711C11.992 3.00456 11.6136 3.0249 11.516 2.98828C11.1009 3.04932 10.6574 3.04525 10.2423 3.04118H10.2586H10.0633C10.0551 3.04118 10.0551 3.03304 10.0633 3.02897C9.84352 3.06966 9.49358 3.02897 9.22094 3.0127H9.23722C8.44373 3.00456 7.68279 3.0249 6.92186 3.03711C6.53935 3.03711 6.16092 3.04525 5.77842 3.04525C5.58717 3.04525 5.39591 3.04118 5.20059 3.03711C5.10293 3.03711 5.00934 3.03304 4.90761 3.02897C4.79775 3.02897 4.67567 3.02897 4.56173 3.04118C4.12226 3.05746 3.65431 3.26092 3.28401 3.59052C2.91779 3.92012 2.64108 4.36366 2.48645 4.85196C2.46204 4.89266 2.41728 5.05542 2.39693 5.27923C2.39693 5.3362 2.38879 5.39316 2.38879 5.45827C2.38879 5.51117 2.38879 5.56407 2.38879 5.61697C2.38879 5.72684 2.38879 5.84077 2.38879 5.95878C2.39286 6.4186 2.40914 6.88248 2.42135 6.95573L2.41728 6.96794Z" fill="#232C6A"/>
<path d="M2.47834 9.46126V9.45312C2.45799 9.45312 2.46613 9.46126 2.47834 9.46126Z" fill="#232C6A"/>
<path d="M3.03589 5.96208V5.97429L3.06437 5.93359L3.03589 5.96208Z" fill="#232C6A"/>
<path d="M3.05208 8.20611C3.06022 8.10438 3.05208 8.10031 3.04395 8.11659C3.04395 8.15321 3.04395 8.18577 3.05208 8.20611Z" fill="#232C6A"/>
<path d="M2.51904 10.2848C2.51904 10.3377 2.53125 10.3174 2.54346 10.2848C2.54346 10.2319 2.54346 10.1953 2.54346 10.1953C2.53939 10.2197 2.52718 10.2604 2.52311 10.2848H2.51904Z" fill="#232C6A"/>
<path d="M2.79565 10.0676L2.81193 10.0838C2.80786 10.0513 2.80379 10.0554 2.79565 10.0676Z" fill="#232C6A"/>
<path d="M7.76799 10.3408H7.77205C7.77205 10.3327 7.78019 10.3245 7.78019 10.3164L7.76392 10.3408H7.76799Z" fill="#232C6A"/>
<path d="M8.5697 10.4021H8.57377C8.57377 10.4021 8.57377 10.3939 8.5697 10.4021Z" fill="#232C6A"/>
<path d="M5.93294 10.4297C5.93294 10.4297 5.92887 10.4297 5.9248 10.4338C5.9248 10.4338 5.92887 10.4338 5.93294 10.4297Z" fill="#232C6A"/>
<path d="M6.55139 7.81641C6.55139 7.81641 6.55546 7.82048 6.55953 7.82454V7.81641H6.55139Z" fill="#232C6A"/>
<path d="M6.53512 7.83154C6.53512 7.83154 6.53919 7.81933 6.54733 7.81526C6.52698 7.80305 6.50663 7.80305 6.49036 7.80712C6.49036 7.8234 6.52698 7.81933 6.53512 7.83154Z" fill="#232C6A"/>
<path d="M9.30619 10.4141C9.30619 10.4141 9.30619 10.4263 9.30619 10.4303L9.30212 10.4141H9.30619Z" fill="#232C6A"/>
<path d="M9.98169 7.66406V7.6722H9.99797C9.98983 7.66813 9.98576 7.66406 9.98169 7.66406Z" fill="#232C6A"/>
<path d="M9.90035 10.25H9.89221C9.89221 10.25 9.87187 10.2785 9.85559 10.307L9.88001 10.3232C9.88814 10.2988 9.89628 10.2744 9.90035 10.25Z" fill="#232C6A"/>
<path d="M10.6043 9.22714L10.5474 9.33701C10.5189 8.99113 10.5799 8.82836 10.5311 8.53131L10.5433 8.54759C10.5514 8.52724 10.5189 8.51096 10.5107 8.43772C10.5067 8.4011 10.5026 8.35227 10.5107 8.28309C10.5148 8.24647 10.523 8.20984 10.5352 8.16101C10.5433 8.08777 10.5555 8.00232 10.5514 7.90466H10.5555C10.5474 7.87617 10.5392 7.88024 10.5352 7.82327C10.5352 7.86803 10.5352 7.91686 10.5352 7.96162C10.5026 7.88838 10.4578 7.83141 10.4131 7.74189C10.4131 7.72154 10.4172 7.70934 10.4253 7.7012C10.3846 7.62795 10.3358 7.55878 10.2788 7.49774L10.2544 7.41636C10.1771 7.37973 10.1649 7.45298 10.0224 7.31056C10.0591 7.39601 9.92072 7.29021 9.92886 7.3309C9.92479 7.3187 9.90851 7.30242 9.8963 7.28614C9.78644 7.23731 9.57077 7.2251 9.52194 7.25766C9.52194 7.25766 9.63181 7.28614 9.72947 7.35125C9.8312 7.41229 9.91258 7.50995 9.93293 7.56285C9.83527 7.48553 9.90444 7.55064 9.91258 7.57912L9.92886 7.57098C9.98176 7.62388 9.95734 7.65237 9.97362 7.68085C9.97362 7.68085 9.97362 7.67678 9.97769 7.67271H9.96955C9.96955 7.67271 9.97362 7.66458 9.98176 7.66458C9.98583 7.66051 9.99396 7.65644 10.0062 7.67271H10.0021C10.0265 7.68899 10.055 7.72968 10.0672 7.75003L10.0428 7.7663C10.0794 7.7663 10.112 7.85583 10.116 7.94128C10.116 8.0308 10.0916 8.10812 10.0916 8.1366C10.0591 8.19764 10.0998 8.28309 10.0835 8.36447C10.0753 8.49469 10.0428 8.42958 10.0143 8.49469C9.99803 8.57607 10.0469 8.47841 10.0509 8.51096L10.0102 8.60862C10.0102 8.55166 9.98989 8.58421 9.97769 8.59235C9.97362 8.6778 9.92072 8.81208 9.97769 8.84057C9.9492 8.9545 9.92479 8.9545 9.92479 9.0074C9.937 8.99113 9.94513 8.95857 9.95734 8.95857C9.93293 9.00333 9.96548 8.97892 9.96955 8.95857C9.99396 9.02775 9.86375 9.3248 9.92886 9.34108H9.91665C9.96548 9.35735 10.0102 9.33294 10.0387 9.38177L10.0184 9.41432L10.0387 9.46315C10.0224 9.4957 10.0102 9.47943 10.0062 9.47943C10.0265 9.56081 10.0021 9.67475 9.99396 9.77241L10.1242 9.67068C10.0957 9.75206 10.0347 9.90262 10.0753 9.9189L10.0306 9.96773C9.94513 10.1305 10.0672 10.0898 10.0387 10.1427C10.0224 10.163 10.0021 10.1834 9.98583 10.1997C9.98583 10.1793 9.99396 10.163 9.99396 10.1427C9.96548 10.1997 9.94513 10.2159 9.90444 10.2444C9.90444 10.2444 9.90851 10.2444 9.91258 10.2444V10.2526C9.91258 10.2526 9.937 10.3014 9.91258 10.334C9.88003 10.3746 9.87596 10.4438 9.77423 10.456L9.78237 10.5089C9.75795 10.513 9.73354 10.5171 9.70912 10.5171L9.69284 10.4804C9.74981 10.4601 9.8312 10.3746 9.86375 10.3095L9.84747 10.3014C9.82713 10.338 9.80678 10.3869 9.78237 10.4031C9.76609 10.4072 9.71726 10.395 9.71726 10.3624V10.4072C9.66843 10.4438 9.63588 10.456 9.59925 10.4601C9.55856 10.4601 9.55449 10.456 9.408 10.4316L9.43242 10.452C9.37952 10.4642 9.33069 10.4764 9.31441 10.4438C9.15978 10.4357 9.00108 10.4113 8.89936 10.3624L8.87901 10.4072C8.84646 10.4072 8.79763 10.334 8.78135 10.3991L8.71217 10.4194C8.66741 10.4194 8.63893 10.4438 8.5901 10.4194L8.58196 10.4153C8.48023 10.3991 8.58196 10.4601 8.46802 10.4357C8.4314 10.4031 8.42733 10.4927 8.37036 10.4845L8.31339 10.4194C8.21166 10.3828 8.19539 10.4479 8.04483 10.4479C7.97565 10.4235 7.93903 10.3706 7.98786 10.3177C7.92275 10.3787 7.95938 10.3584 7.87392 10.3869C7.86172 10.3624 7.87392 10.3584 7.8902 10.334C7.81289 10.3055 7.84137 10.3543 7.7844 10.3543C7.76812 10.3991 7.74778 10.4764 7.7315 10.4764L7.75185 10.4927C7.69081 10.5171 7.6257 10.5293 7.55246 10.5049V10.4804L7.47921 10.4927V10.4642L7.36528 10.4723L7.38155 10.4804C7.35714 10.4804 7.27168 10.4967 7.22692 10.4804V10.4642C7.09671 10.4113 6.98277 10.4804 6.82814 10.4845L6.84849 10.452C6.79559 10.4194 6.83221 10.5049 6.77118 10.4886V10.4479C6.71014 10.5008 6.69386 10.4357 6.65724 10.4153L6.67352 10.4682L6.60027 10.456C6.51889 10.4398 6.55144 10.3869 6.56365 10.3584L6.51075 10.4031L6.49854 10.3543C6.45785 10.4113 6.45785 10.3462 6.38867 10.3746C6.3846 10.3584 6.40088 10.3462 6.37647 10.338L6.26253 10.4072L6.33171 10.3787L6.32357 10.4479C6.25032 10.5008 6.22591 10.4398 6.17301 10.4601L6.20963 10.4398C6.12418 10.456 6.12011 10.4275 6.07128 10.4113C6.08755 10.4235 6.1079 10.4438 6.07128 10.452C6.04686 10.452 6.05907 10.4275 6.03466 10.4194C6.03466 10.4642 5.95327 10.4927 5.92886 10.4682C5.92886 10.4601 5.92886 10.456 5.92886 10.452C5.92072 10.4601 5.91665 10.4723 5.90444 10.4601L5.91665 10.4072C5.91665 10.4072 5.90037 10.4357 5.88816 10.452C5.87596 10.4357 5.8434 10.4642 5.85561 10.4316L5.86782 10.4235C5.83527 10.4113 5.80271 10.3909 5.77423 10.3665L5.79864 10.3299C5.75388 10.3706 5.77423 10.2811 5.7254 10.334C5.73761 10.2973 5.65622 10.2851 5.72947 10.2526C5.71726 10.2241 5.69284 10.2119 5.6725 10.1875C5.65215 10.1549 5.63995 10.159 5.66029 10.045C5.72947 9.97587 5.70505 9.79275 5.71319 9.67068C5.68471 9.43467 5.66029 9.28004 5.63588 9.03589C5.73354 8.8894 5.60332 8.67373 5.65622 8.51503L5.6196 8.47027C5.64808 8.41737 5.64808 8.35227 5.64401 8.27902C5.64401 8.2424 5.64401 8.20578 5.64401 8.16915C5.64401 8.14474 5.65215 8.13253 5.6725 8.12032C5.65622 8.10405 5.65622 8.09184 5.65622 8.08777C5.65622 8.08777 5.64401 8.09184 5.6196 8.08777C5.63995 8.07149 5.63588 8.02673 5.68064 8.04708C5.72133 8.07556 5.68064 7.99418 5.73354 8.00232L5.68471 7.98197C5.68471 7.98197 5.70505 7.96569 5.71726 7.95756V7.96976C5.72947 7.86803 5.81085 7.84362 5.87189 7.84362C5.91258 7.84362 5.90851 7.84769 5.98989 7.84769C6.055 7.84769 6.12418 7.83548 6.20556 7.81107C6.1608 7.86803 6.27067 7.78258 6.27474 7.84362C6.35612 7.92093 6.4253 7.82734 6.4904 7.807C6.4904 7.807 6.4904 7.79886 6.49447 7.79479L6.61248 7.80293C6.5433 7.88024 6.69793 7.73782 6.63282 7.80293C6.93801 7.8599 7.33272 7.80293 7.68674 7.82734L7.67046 7.807C7.75999 7.807 7.86985 7.78665 7.93903 7.8192C8.00821 7.85176 8.08552 7.77037 8.114 7.7663C8.18725 7.73375 8.25642 7.79886 8.22387 7.79886C8.30526 7.79072 8.3785 7.71747 8.48837 7.75003C8.52499 7.81513 8.78949 7.68492 8.79356 7.75817V7.75003C8.93598 7.80293 9.07026 7.71341 9.22082 7.76224C9.22082 7.76224 9.22082 7.7663 9.21268 7.77444L9.52194 7.55064L9.43242 7.30242L9.16385 7.09896L8.43547 7.14372L7.85358 7.06641L6.44157 7.09489L6.33984 7.15186C6.27067 7.12744 6.19742 7.11524 6.12011 7.11117C6.07942 7.11117 6.04279 7.11117 6.0021 7.11117H5.94106L5.84747 7.11931C5.58298 7.14779 5.34696 7.28207 5.15571 7.43263L5.1842 7.47332C5.09874 7.57505 5.08654 7.55471 5.05805 7.57505C4.96853 7.70934 4.91156 7.86396 4.89122 8.01859C4.87494 8.20578 4.89122 8.26274 4.89122 8.37261C4.89936 8.572 4.90342 8.76732 4.91156 8.95857C4.9197 9.34514 4.92377 9.72358 4.89122 10.0776C4.87494 10.0939 4.87087 10.22 4.89122 10.3258C4.90749 10.4357 4.94412 10.5374 4.95225 10.5822C5.16385 10.9077 5.5138 11.1356 5.8841 11.1559H5.87189C5.937 11.16 5.97362 11.1559 6.00617 11.1559C6.01024 11.1559 6.01024 11.1641 6.00617 11.1681C6.12825 11.1274 6.3195 11.1681 6.47006 11.1844H6.46192C7.33272 11.1966 8.14249 11.1071 9.00515 11.1763C9.10688 11.1966 9.20861 11.2048 9.31848 11.2048C9.37138 11.2048 9.42428 11.2048 9.48125 11.2048C9.51787 11.2048 9.64808 11.2007 9.72947 11.1803C10.0998 11.099 10.409 10.8263 10.5636 10.4682C10.5881 10.4398 10.6328 10.3177 10.641 10.1468C10.645 10.0247 10.641 9.91483 10.641 9.78055C10.6369 9.52826 10.6206 9.2719 10.6084 9.23121L10.6043 9.22714Z" fill="#232C6A"/>
<path d="M9.98173 9.78141V9.77734L9.95325 9.80176L9.98173 9.78141Z" fill="#232C6A"/>
<path d="M9.96541 8.54688C9.95727 8.60384 9.96541 8.60384 9.97355 8.59571C9.97355 8.57536 9.97355 8.55908 9.96541 8.54688Z" fill="#232C6A"/>
<path d="M9.90845 7.26055C9.86776 7.24427 9.87996 7.26055 9.89624 7.2809C9.93693 7.29717 9.96542 7.30938 9.96542 7.30938C9.94507 7.2931 9.92879 7.27276 9.90845 7.26055Z" fill="#232C6A"/>
<path d="M9.91252 7.57812L9.89624 7.58626C9.89624 7.58626 9.91659 7.58626 9.91252 7.57812Z" fill="#232C6A"/>
<path d="M12.6509 10.3408H12.655C12.655 10.3327 12.6631 10.3245 12.6631 10.3164L12.6469 10.3408H12.6509Z" fill="#232C6A"/>
<path d="M13.4526 10.4021H13.4567C13.4567 10.4021 13.4567 10.3939 13.4526 10.4021Z" fill="#232C6A"/>
<path d="M10.8159 10.4297C10.8159 10.4297 10.8118 10.4297 10.8077 10.4338C10.8077 10.4338 10.8118 10.4338 10.8159 10.4297Z" fill="#232C6A"/>
<path d="M11.4342 7.81641C11.4342 7.81641 11.4383 7.82048 11.4423 7.82454V7.81641H11.4342Z" fill="#232C6A"/>
<path d="M11.4181 7.83154C11.4181 7.83154 11.4221 7.81933 11.4303 7.81526C11.4099 7.80305 11.3896 7.80305 11.3733 7.80712C11.3733 7.8234 11.4099 7.81933 11.4181 7.83154Z" fill="#232C6A"/>
<path d="M14.1891 10.4141C14.1891 10.4141 14.1891 10.4263 14.1891 10.4303L14.1851 10.4141H14.1891Z" fill="#232C6A"/>
<path d="M14.8646 7.66406V7.6722H14.8809C14.8728 7.66813 14.8687 7.66406 14.8646 7.66406Z" fill="#232C6A"/>
<path d="M14.7833 10.25H14.7751C14.7751 10.25 14.7548 10.2785 14.7385 10.307L14.7629 10.3232C14.7711 10.2988 14.7792 10.2744 14.7833 10.25Z" fill="#232C6A"/>
<path d="M15.4873 9.22714L15.4303 9.33701C15.4018 8.99113 15.4629 8.82836 15.414 8.53131L15.4262 8.54759C15.4344 8.52724 15.4018 8.51096 15.3937 8.43772C15.3896 8.4011 15.3855 8.35227 15.3937 8.28309C15.3978 8.24647 15.4059 8.20984 15.4181 8.16101C15.4262 8.08777 15.4384 8.00232 15.4344 7.90466H15.4384C15.4303 7.87617 15.4222 7.88024 15.4181 7.82327C15.4181 7.86803 15.4181 7.91686 15.4181 7.96162C15.3855 7.88838 15.3408 7.83141 15.296 7.74189C15.296 7.72154 15.3001 7.70934 15.3082 7.7012C15.2675 7.62795 15.2187 7.55878 15.1617 7.49774L15.1373 7.41636C15.06 7.37973 15.0478 7.45298 14.9054 7.31056C14.942 7.39601 14.8037 7.29021 14.8118 7.3309C14.8077 7.3187 14.7914 7.30242 14.7792 7.28614C14.6694 7.23731 14.4537 7.2251 14.4049 7.25766C14.4049 7.25766 14.5147 7.28614 14.6124 7.35125C14.7141 7.41229 14.7955 7.50995 14.8159 7.56285C14.7182 7.48553 14.7874 7.55064 14.7955 7.57912L14.8118 7.57098C14.8647 7.62388 14.8403 7.65237 14.8566 7.68085C14.8566 7.68085 14.8566 7.67678 14.8606 7.67271H14.8525C14.8525 7.67271 14.8566 7.66458 14.8647 7.66458C14.8688 7.66051 14.8769 7.65644 14.8891 7.67271H14.885C14.9095 7.68899 14.9379 7.72968 14.9501 7.75003L14.9257 7.7663C14.9624 7.7663 14.9949 7.85583 14.999 7.94128C14.999 8.0308 14.9746 8.10812 14.9746 8.1366C14.942 8.19764 14.9827 8.28309 14.9664 8.36447C14.9583 8.49469 14.9257 8.42958 14.8972 8.49469C14.881 8.57607 14.9298 8.47841 14.9339 8.51096L14.8932 8.60862C14.8932 8.55166 14.8728 8.58421 14.8606 8.59235C14.8566 8.6778 14.8037 8.81208 14.8606 8.84057C14.8321 8.9545 14.8077 8.9545 14.8077 9.0074C14.8199 8.99113 14.8281 8.95857 14.8403 8.95857C14.8159 9.00333 14.8484 8.97892 14.8525 8.95857C14.8769 9.02775 14.7467 9.3248 14.8118 9.34108H14.7996C14.8484 9.35735 14.8932 9.33294 14.9217 9.38177L14.9013 9.41432L14.9217 9.46315C14.9054 9.4957 14.8932 9.47943 14.8891 9.47943C14.9095 9.56081 14.885 9.67475 14.8769 9.77241L15.0071 9.67068C14.9786 9.75206 14.9176 9.90262 14.9583 9.9189L14.9135 9.96773C14.8281 10.1305 14.9501 10.0898 14.9217 10.1427C14.9054 10.163 14.885 10.1834 14.8688 10.1997C14.8688 10.1793 14.8769 10.163 14.8769 10.1427C14.8484 10.1997 14.8281 10.2159 14.7874 10.2444C14.7874 10.2444 14.7914 10.2444 14.7955 10.2444V10.2526C14.7955 10.2526 14.8199 10.3014 14.7955 10.334C14.763 10.3746 14.7589 10.4438 14.6572 10.456L14.6653 10.5089C14.6409 10.513 14.6165 10.5171 14.5921 10.5171L14.5758 10.4804C14.6327 10.4601 14.7141 10.3746 14.7467 10.3095L14.7304 10.3014C14.7101 10.338 14.6897 10.3869 14.6653 10.4031C14.649 10.4072 14.6002 10.395 14.6002 10.3624V10.4072C14.5514 10.4438 14.5188 10.456 14.4822 10.4601C14.4415 10.4601 14.4374 10.456 14.2909 10.4316L14.3154 10.452C14.2625 10.4642 14.2136 10.4764 14.1973 10.4438C14.0427 10.4357 13.884 10.4113 13.7823 10.3624L13.7619 10.4072C13.7294 10.4072 13.6806 10.334 13.6643 10.3991L13.5951 10.4194C13.5503 10.4194 13.5219 10.4438 13.473 10.4194L13.4649 10.4153C13.3632 10.3991 13.4649 10.4601 13.351 10.4357C13.3143 10.4031 13.3103 10.4927 13.2533 10.4845L13.1963 10.4194C13.0946 10.3828 13.0783 10.4479 12.9278 10.4479C12.8586 10.4235 12.822 10.3706 12.8708 10.3177C12.8057 10.3787 12.8423 10.3584 12.7569 10.3869C12.7446 10.3624 12.7569 10.3584 12.7731 10.334C12.6958 10.3055 12.7243 10.3543 12.6673 10.3543C12.6511 10.3991 12.6307 10.4764 12.6144 10.4764L12.6348 10.4927C12.5737 10.5171 12.5086 10.5293 12.4354 10.5049V10.4804L12.3621 10.4927V10.4642L12.2482 10.4723L12.2645 10.4804C12.2401 10.4804 12.1546 10.4967 12.1099 10.4804V10.4642C11.9796 10.4113 11.8657 10.4804 11.7111 10.4845L11.7314 10.452C11.6785 10.4194 11.7151 10.5049 11.6541 10.4886V10.4479C11.5931 10.5008 11.5768 10.4357 11.5402 10.4153L11.5565 10.4682L11.4832 10.456C11.4018 10.4398 11.4344 10.3869 11.4466 10.3584L11.3937 10.4031L11.3815 10.3543C11.3408 10.4113 11.3408 10.3462 11.2716 10.3746C11.2675 10.3584 11.2838 10.3462 11.2594 10.338L11.1455 10.4072L11.2146 10.3787L11.2065 10.4479C11.1333 10.5008 11.1088 10.4398 11.0559 10.4601L11.0926 10.4398C11.0071 10.456 11.003 10.4275 10.9542 10.4113C10.9705 10.4235 10.9908 10.4438 10.9542 10.452C10.9298 10.452 10.942 10.4275 10.9176 10.4194C10.9176 10.4642 10.8362 10.4927 10.8118 10.4682C10.8118 10.4601 10.8118 10.456 10.8118 10.452C10.8037 10.4601 10.7996 10.4723 10.7874 10.4601L10.7996 10.4072C10.7996 10.4072 10.7833 10.4357 10.7711 10.452C10.7589 10.4357 10.7263 10.4642 10.7385 10.4316L10.7508 10.4235C10.7182 10.4113 10.6856 10.3909 10.6572 10.3665L10.6816 10.3299C10.6368 10.3706 10.6572 10.2811 10.6083 10.334C10.6205 10.2973 10.5392 10.2851 10.6124 10.2526C10.6002 10.2241 10.5758 10.2119 10.5554 10.1875C10.5351 10.1549 10.5229 10.159 10.5432 10.045C10.6124 9.97587 10.588 9.79275 10.5961 9.67068C10.5676 9.43467 10.5432 9.28004 10.5188 9.03589C10.6165 8.8894 10.4863 8.67373 10.5392 8.51503L10.5025 8.47027C10.531 8.41737 10.531 8.35227 10.5269 8.27902C10.5269 8.2424 10.5269 8.20578 10.5269 8.16915C10.5269 8.14474 10.5351 8.13253 10.5554 8.12032C10.5392 8.10405 10.5392 8.09184 10.5392 8.08777C10.5392 8.08777 10.5269 8.09184 10.5025 8.08777C10.5229 8.07149 10.5188 8.02673 10.5636 8.04708C10.6043 8.07556 10.5636 7.99418 10.6165 8.00232L10.5676 7.98197C10.5676 7.98197 10.588 7.96569 10.6002 7.95756V7.96976C10.6124 7.86803 10.6938 7.84362 10.7548 7.84362C10.7955 7.84362 10.7914 7.84769 10.8728 7.84769C10.9379 7.84769 11.0071 7.83548 11.0885 7.81107C11.0437 7.86803 11.1536 7.78258 11.1577 7.84362C11.2391 7.92093 11.3082 7.82734 11.3733 7.807C11.3733 7.807 11.3733 7.79886 11.3774 7.79479L11.4954 7.80293C11.4262 7.88024 11.5809 7.73782 11.5158 7.80293C11.8209 7.8599 12.2157 7.80293 12.5697 7.82734L12.5534 7.807C12.6429 7.807 12.7528 7.78665 12.822 7.8192C12.8911 7.85176 12.9685 7.77037 12.9969 7.7663C13.0702 7.73375 13.1394 7.79886 13.1068 7.79886C13.1882 7.79072 13.2614 7.71747 13.3713 7.75003C13.4079 7.81513 13.6724 7.68492 13.6765 7.75817V7.75003C13.8189 7.80293 13.9532 7.71341 14.1038 7.76224C14.1038 7.76224 14.1038 7.7663 14.0956 7.77444L14.4049 7.55064L14.3154 7.30242L14.0468 7.09896L13.3184 7.14372L12.7365 7.06641L11.3245 7.09489L11.2228 7.15186C11.1536 7.12744 11.0804 7.11524 11.003 7.11117C10.9624 7.11117 10.9257 7.11117 10.885 7.11117H10.824L10.7304 7.11931C10.4659 7.14779 10.2299 7.28207 10.0386 7.43263L10.0671 7.47332C9.98168 7.57505 9.96947 7.55471 9.94099 7.57505C9.85147 7.70934 9.7945 7.86396 9.77415 8.01859C9.75787 8.20578 9.77415 8.26274 9.77415 8.37261C9.78229 8.572 9.78636 8.76732 9.7945 8.95857C9.80264 9.34514 9.8067 9.72358 9.77415 10.0776C9.75787 10.0939 9.75381 10.22 9.77415 10.3258C9.79043 10.4357 9.82705 10.5374 9.83519 10.5822C10.0468 10.9077 10.3967 11.1356 10.767 11.1559H10.7548C10.8199 11.16 10.8566 11.1559 10.8891 11.1559C10.8932 11.1559 10.8932 11.1641 10.8891 11.1681C11.0112 11.1274 11.2024 11.1681 11.353 11.1844H11.3449C12.2157 11.1966 13.0254 11.1071 13.8881 11.1763C13.9898 11.1966 14.0915 11.2048 14.2014 11.2048C14.2543 11.2048 14.3072 11.2048 14.3642 11.2048C14.4008 11.2048 14.531 11.2007 14.6124 11.1803C14.9827 11.099 15.292 10.8263 15.4466 10.4682C15.471 10.4398 15.5158 10.3177 15.5239 10.1468C15.528 10.0247 15.5239 9.91483 15.5239 9.78055C15.5198 9.52826 15.5036 9.2719 15.4913 9.23121L15.4873 9.22714Z" fill="#232C6A"/>
<path d="M14.8647 9.78141V9.77734L14.8362 9.80176L14.8647 9.78141Z" fill="#232C6A"/>
<path d="M14.8483 8.54688C14.8402 8.60384 14.8483 8.60384 14.8565 8.59571C14.8565 8.57536 14.8565 8.55908 14.8483 8.54688Z" fill="#232C6A"/>
<path d="M14.7914 7.26055C14.7507 7.24427 14.7629 7.26055 14.7792 7.2809C14.8199 7.29717 14.8484 7.30938 14.8484 7.30938C14.828 7.2931 14.8117 7.27276 14.7914 7.26055Z" fill="#232C6A"/>
<path d="M14.7953 7.57812L14.7791 7.58626C14.7791 7.58626 14.7994 7.58626 14.7953 7.57812Z" fill="#232C6A"/>
</g>
<defs>
<clipPath id="clip0_649_3623">
<rect width="20" height="13.998" fill="white" transform="translate(0 3)"/>
</clipPath>
</defs>
</svg>
