<svg width="16" height="16" viewBox="0 0 16 16" fill="none" xmlns="http://www.w3.org/2000/svg">
<path d="M0.0375362 14.1841C0.0375362 14.1841 0.0208128 14.1758 0.0124512 14.1758L0.0375362 14.1841Z" fill="#232C6A"/>
<path d="M0.484863 15.5352C0.484863 15.5352 0.493225 15.5393 0.497406 15.5393C0.497406 15.5393 0.489044 15.5393 0.484863 15.5352Z" fill="#232C6A"/>
<path d="M3.59964 15.8398H3.59546L3.59964 15.844V15.8398Z" fill="#232C6A"/>
<path d="M3.58713 15.8596C3.58713 15.8596 3.58713 15.8471 3.59549 15.8429C3.58295 15.8304 3.5704 15.8304 3.55786 15.8345C3.55786 15.8513 3.58295 15.8471 3.58713 15.8596Z" fill="#232C6A"/>
<path d="M0.50177 10.8203H0.493408L0.510132 10.8329C0.510132 10.8287 0.505951 10.8245 0.50177 10.8203Z" fill="#232C6A"/>
<path d="M0.221557 12.5508H0.213196C0.213196 12.5508 0.204834 12.5884 0.204834 12.626H0.2341L0.221557 12.5508Z" fill="#232C6A"/>
<path d="M0.919905 11.8451L0.861373 11.9162C0.832108 11.6946 0.89482 11.5901 0.84465 11.402L0.857193 11.4145C0.869735 11.3853 0.735949 11.3727 0.899001 11.0675H0.903182C0.903182 11.0675 0.890639 11.055 0.903182 11.0341L0.865554 11.0884C0.848831 11.055 0.823746 11.0299 0.819565 10.9881C0.827927 10.9797 0.840469 10.9755 0.848831 10.9755L0.840469 10.871L0.878097 10.8376C0.857193 10.8041 0.773576 10.8208 0.819565 10.7372C0.761033 10.7707 0.786118 10.6954 0.756853 10.7038C0.765214 10.6996 0.773576 10.6912 0.786118 10.6829C0.777757 10.6327 0.765214 10.5365 0.735949 10.5156C0.735949 10.5156 0.614704 10.7121 0.556173 10.7665C0.572896 10.6954 0.547811 10.7498 0.531088 10.7623H0.54363C0.531088 10.8083 0.49346 10.8083 0.485099 10.8292H0.49346H0.48928C0.497641 10.8292 0.501822 10.8292 0.501822 10.8292C0.510184 10.8292 0.514365 10.8292 0.514365 10.8417C0.514365 10.8417 0.514365 10.8877 0.514365 10.9003H0.485099C0.54363 10.9337 0.397301 11.1093 0.397301 11.1553C0.359674 11.1971 0.405663 11.2515 0.38894 11.3016C0.380578 11.3853 0.347131 11.3434 0.317865 11.3853C0.296961 11.4396 0.351312 11.3727 0.355493 11.3978L0.313685 11.4605C0.313685 11.4229 0.29278 11.4438 0.280238 11.4521C0.276057 11.5065 0.221706 11.5943 0.280238 11.611C0.250972 11.6863 0.225887 11.6863 0.225887 11.7155C0.23843 11.703 0.246791 11.6821 0.259334 11.6821C0.234249 11.7114 0.267695 11.6946 0.271876 11.6821C0.296961 11.7281 0.163175 11.9162 0.230068 11.9246H0.217526C0.267696 11.9371 0.313685 11.9162 0.34295 11.9497L0.322046 11.9706L0.34295 12.004C0.326227 12.0249 0.313685 12.0166 0.309504 12.0166C0.330408 12.0667 0.305323 12.142 0.296961 12.2005L0.430748 12.1336C0.401482 12.188 0.33877 12.28 0.380578 12.2925L0.334589 12.326C0.246791 12.4305 0.372216 12.4012 0.347131 12.443L0.296961 12.4974V12.443C0.271876 12.4974 0.255153 12.5183 0.225887 12.5601C0.225887 12.5601 0.230068 12.5559 0.234249 12.5559V12.5643C0.259334 12.5726 0.276057 12.5977 0.276057 12.6353C0.267696 12.6897 0.305323 12.7273 0.255153 12.8151L0.305323 12.836L0.276057 12.8987H0.234249C0.234249 12.836 0.221706 12.719 0.217526 12.6395H0.200802C0.200802 12.6855 0.217526 12.7399 0.213345 12.7691C0.204983 12.7859 0.163175 12.8235 0.13809 12.7942L0.175717 12.8235C0.179898 12.9824 0.184079 12.9824 0.13809 13.1454L0.158994 13.1329C0.171536 13.1663 0.184079 13.1998 0.150632 13.2081C0.142271 13.3085 0.117186 13.4088 0.0670157 13.4715L0.113005 13.4841C0.113005 13.4841 0.0377499 13.5342 0.104643 13.5468L0.125547 13.5928C0.125547 13.622 0.150632 13.6388 0.125547 13.6722L0.121366 13.6806C0.100462 13.7433 0.163175 13.6806 0.13809 13.7516C0.104643 13.7767 0.196621 13.7767 0.18826 13.8144L0.121366 13.852C0.083739 13.9189 0.150632 13.9272 0.150632 14.0234C0.125547 14.0694 0.0711965 14.0903 0.0168457 14.061C0.0795582 14.1028 0.058654 14.0819 0.0879198 14.1363C0.0628348 14.1446 0.058654 14.1363 0.033569 14.1279C0.00430321 14.1781 0.0544732 14.1572 0.0544732 14.1948C0.100462 14.2074 0.179898 14.2157 0.179898 14.2283L0.196621 14.2157C0.221706 14.2533 0.234249 14.2952 0.209164 14.3411H0.184079L0.196621 14.3871H0.167356L0.175717 14.4582L0.184079 14.4498C0.184079 14.4498 0.196621 14.5209 0.184079 14.5502H0.167356C0.117186 14.638 0.179898 14.6923 0.196621 14.8387L0.158994 14.8261C0.129728 14.8763 0.213345 14.8345 0.204983 14.8888L0.163175 14.8972C0.225887 14.9348 0.163175 14.9641 0.150632 15.0017L0.200802 14.9725V15.0394C0.209164 15.1146 0.154813 15.1062 0.121366 15.1021L0.179898 15.1355L0.13809 15.1648C0.204983 15.1773 0.142271 15.2066 0.200802 15.2526C0.18826 15.2651 0.167356 15.2526 0.171536 15.2777C0.209164 15.3027 0.246791 15.3237 0.284419 15.3404L0.225887 15.2986L0.29278 15.2693C0.372216 15.2986 0.330408 15.3487 0.376397 15.378L0.33877 15.3655C0.397301 15.4156 0.376397 15.4365 0.38894 15.4825C0.38894 15.4616 0.39312 15.4365 0.418205 15.4533C0.434929 15.4658 0.405663 15.4783 0.418205 15.4992C0.460014 15.47 0.510184 15.4951 0.531088 15.5411C0.526907 15.5452 0.518545 15.5494 0.514365 15.5494C0.531088 15.5494 0.54363 15.5494 0.551992 15.5703L0.506003 15.5996L0.572896 15.5912C0.585439 15.6205 0.639789 15.6121 0.614704 15.6414H0.5938C0.648151 15.6874 0.706683 15.7292 0.769395 15.7668L0.752672 15.8045C0.798661 15.7626 0.853012 15.8797 0.878097 15.8045C0.903182 15.8588 1.03697 15.8295 0.990979 15.9006C1.12895 15.9466 1.24183 15.8714 1.37562 15.9132C1.41742 15.9842 1.53449 15.9591 1.61392 15.9675C1.76443 15.9382 1.86477 15.9132 2.01946 15.8881C2.11144 15.9884 2.25359 15.8546 2.34975 15.909L2.37901 15.8713C2.44591 15.9341 2.54625 15.8588 2.64241 15.9173C2.66331 15.9006 2.67585 15.8964 2.68422 15.8923C2.68003 15.8923 2.67167 15.8839 2.67167 15.8588C2.69676 15.8755 2.75111 15.8546 2.74693 15.9048H2.73857C2.73857 15.9591 2.818 15.8881 2.84727 15.9299L2.83054 15.8755L2.88071 15.8839L2.86817 15.8923C3.08976 15.7752 3.18591 15.9424 3.39496 15.8337C3.36569 15.8923 3.43676 15.8045 3.43676 15.8672C3.48693 15.9466 3.53292 15.8504 3.57473 15.8295C3.57473 15.8295 3.57473 15.8212 3.57473 15.817L3.64999 15.8254C3.604 15.9048 3.70434 15.7585 3.66253 15.8254C3.85485 15.8839 4.10988 15.8254 4.33564 15.8504L4.32728 15.8295C4.38581 15.8295 4.45689 15.8086 4.4987 15.8421C4.5405 15.8755 4.59485 15.7919 4.61158 15.7877C4.65757 15.7543 4.70356 15.8212 4.68265 15.8212C4.73282 15.8128 4.78299 15.7376 4.84989 15.771C4.87497 15.8379 5.0422 15.7041 5.0422 15.7794V15.771C5.13418 15.8254 5.2178 15.7334 5.31396 15.7836C5.31396 15.7836 5.31396 15.7877 5.30978 15.7961L5.50628 15.5661L5.45192 15.3111L5.28051 15.1021L4.81644 15.1481L4.44434 15.0686L3.54129 15.0979L3.47857 15.1564C3.30298 15.0561 3.07303 15.1731 2.8849 15.0979V15.1481C2.82636 15.1481 2.83054 15.1188 2.818 15.1104C2.3163 15.123 1.80206 15.1857 1.35053 15.123C1.30454 15.0895 1.25437 15.1062 1.24183 15.0644C1.16239 15.1104 1.0746 15.0644 1.02861 15.0101H1.03279C1.03279 15.0101 1.01188 14.9975 0.999341 14.9892C0.999341 14.9892 1.00352 14.9808 1.0077 14.9808C0.94499 14.9808 0.940809 14.893 0.94499 14.847H0.949171C0.940809 14.8178 0.928267 14.7843 0.924086 14.7509C0.915724 14.7216 0.915724 14.6882 0.911543 14.6087C0.903182 14.4749 0.899001 14.337 0.890639 14.2074C0.878097 13.9398 0.869735 13.6722 0.907363 13.3963C0.986798 13.1412 0.878097 12.8402 0.94499 12.5475C0.99516 12.4932 0.957533 11.8995 0.932448 11.8451H0.919905Z" fill="#232C6A"/>
<path d="M0.284393 12.1956V12.1914L0.255127 12.2081L0.284393 12.1956Z" fill="#232C6A"/>
<path d="M0.263473 11.4102C0.255112 11.4436 0.263473 11.4478 0.271835 11.4436C0.271835 11.4311 0.271835 11.4185 0.263473 11.4102Z" fill="#232C6A"/>
<path d="M0.815368 10.6774C0.815368 10.6774 0.802826 10.6649 0.790283 10.6774C0.790283 10.6984 0.790283 10.7109 0.790283 10.7109C0.794464 10.7025 0.807007 10.6858 0.811187 10.6774H0.815368Z" fill="#232C6A"/>
<path d="M0.530883 10.7539H0.51416C0.51416 10.7539 0.522522 10.7581 0.530883 10.7539Z" fill="#232C6A"/>
<path d="M14.1815 15.9648C14.1815 15.9648 14.1773 15.9816 14.1731 15.9899L14.1815 15.9648Z" fill="#232C6A"/>
<path d="M15.5361 15.5125C15.5361 15.5125 15.5403 15.5042 15.5403 15.5C15.5403 15.5 15.5403 15.5084 15.5361 15.5125Z" fill="#232C6A"/>
<path d="M15.8413 12.4026V12.4068L15.8455 12.3984L15.8413 12.4026Z" fill="#232C6A"/>
<path d="M15.8582 12.4107C15.8582 12.4107 15.8456 12.4107 15.8414 12.4023C15.8289 12.4149 15.8289 12.4274 15.8331 12.44C15.8498 12.44 15.8456 12.4149 15.8582 12.4107Z" fill="#232C6A"/>
<path d="M10.8201 15.4966V15.505L10.8326 15.4883C10.8284 15.4883 10.8242 15.4925 10.8201 15.4966Z" fill="#232C6A"/>
<path d="M12.551 15.7821V15.7904C12.551 15.7904 12.5887 15.7988 12.6263 15.7988V15.7695L12.551 15.7821Z" fill="#232C6A"/>
<path d="M11.8444 15.0828L11.9155 15.1413C11.6939 15.1706 11.5894 15.1079 11.4012 15.1581L11.4138 15.1455C11.3845 15.133 11.372 15.2668 11.0668 15.1037C11.0668 15.1037 11.0542 15.1121 11.0333 15.0954L11.0877 15.133C11.0542 15.1497 11.0291 15.1748 10.9873 15.179C10.979 15.1706 10.9748 15.1581 10.9748 15.1497L10.8703 15.1581L10.8368 15.1204C10.8034 15.1413 10.8201 15.225 10.7365 15.179C10.7699 15.2375 10.6947 15.2124 10.703 15.2417C10.6988 15.2333 10.6905 15.225 10.6821 15.2124C10.632 15.2208 10.5358 15.2333 10.5149 15.2626C10.5149 15.2626 10.7114 15.3838 10.7657 15.4424C10.6947 15.4256 10.749 15.4507 10.7616 15.4675V15.4549C10.8076 15.4675 10.8076 15.5051 10.8285 15.5134V15.5051V15.5093C10.8285 15.5009 10.8285 15.4967 10.8285 15.4967C10.8285 15.4884 10.8285 15.4842 10.841 15.4842C10.841 15.4842 10.8912 15.4884 10.9037 15.4925V15.5218C10.9372 15.4633 11.1128 15.6096 11.1587 15.6096C11.2005 15.6472 11.2549 15.6012 11.3051 15.618C11.3887 15.6263 11.3469 15.6598 11.3887 15.689C11.443 15.7099 11.3761 15.6556 11.4012 15.6514L11.4639 15.6932C11.4263 15.6932 11.4472 15.7141 11.4556 15.7267C11.5099 15.7308 11.5977 15.7852 11.6145 15.7267C11.6897 15.7559 11.6897 15.781 11.719 15.781C11.7064 15.7685 11.6855 15.7601 11.6855 15.7476C11.7148 15.7727 11.6981 15.7392 11.6855 15.735C11.7315 15.7099 11.9197 15.8437 11.928 15.7768V15.7894C11.9364 15.7392 11.9197 15.6932 11.9531 15.664L11.974 15.6849L12.0074 15.664C12.0284 15.6807 12.02 15.6932 12.02 15.6974C12.0702 15.6765 12.1454 15.7016 12.2039 15.7099L12.1371 15.5762C12.1914 15.6054 12.2834 15.6681 12.2959 15.6263L12.3294 15.6723C12.4339 15.7559 12.4046 15.6347 12.4464 15.6598L12.5008 15.7099H12.4464C12.5008 15.735 12.5217 15.7518 12.5635 15.781C12.5635 15.781 12.5593 15.7768 12.5593 15.7727H12.5677C12.576 15.7476 12.6011 15.7308 12.6388 15.7308C12.6931 15.7392 12.7307 15.7016 12.8185 15.7518L12.8394 15.7016L12.9021 15.7308V15.7727C12.8394 15.7727 12.7224 15.7852 12.6429 15.7894V15.8061C12.6889 15.8061 12.7433 15.7894 12.7725 15.7936C12.7893 15.8019 12.8269 15.8437 12.7976 15.8688L12.8269 15.8312C12.9858 15.827 12.9858 15.8228 13.1488 15.8688L13.1363 15.8479C13.1697 15.8354 13.2032 15.8228 13.2115 15.8563C13.3119 15.8646 13.4122 15.8897 13.4749 15.9399L13.4875 15.8939C13.5084 15.8939 13.5376 15.9692 13.5502 15.9023L13.5962 15.8814C13.6254 15.8814 13.6422 15.8563 13.6756 15.8814L13.6798 15.8855C13.7425 15.9023 13.6798 15.8396 13.755 15.8646C13.7801 15.8981 13.7801 15.8061 13.8177 15.8145L13.8554 15.8814C13.9223 15.919 13.9306 15.8521 14.0268 15.8521C14.0728 15.8772 14.0937 15.9315 14.0644 15.9859C14.1062 15.9232 14.0853 15.9441 14.1397 15.9148C14.148 15.9399 14.1397 15.9441 14.1313 15.9692C14.1815 15.9984 14.1606 15.9483 14.1982 15.9483C14.2107 15.9023 14.2191 15.8228 14.2317 15.8228L14.2191 15.8061C14.2567 15.781 14.2985 15.7685 14.3445 15.7936V15.8186L14.3905 15.8061V15.8354L14.4616 15.827L14.4532 15.8186C14.4532 15.8186 14.5243 15.8019 14.5536 15.8186V15.8354C14.6414 15.8855 14.6957 15.8228 14.8421 15.8061L14.8295 15.8437C14.8797 15.873 14.8379 15.7894 14.8922 15.7977L14.9006 15.8395C14.9382 15.7768 14.9675 15.8395 15.0051 15.8521L14.9758 15.8019H15.0427C15.118 15.7936 15.1096 15.8479 15.1054 15.8814L15.1389 15.8228L15.164 15.8646C15.1765 15.7977 15.2058 15.8605 15.2518 15.8019C15.2643 15.8145 15.2518 15.8354 15.2769 15.8312C15.3019 15.7936 15.3228 15.7559 15.3396 15.7183L15.2978 15.7768L15.2685 15.7099C15.2978 15.6305 15.3479 15.6723 15.3772 15.6263L15.3647 15.664C15.4148 15.6054 15.4357 15.6263 15.4817 15.6138C15.4608 15.6138 15.4357 15.6096 15.4525 15.5845C15.465 15.5678 15.4775 15.5971 15.4984 15.5845C15.4692 15.5427 15.4943 15.4925 15.5402 15.4716C15.5444 15.4758 15.5486 15.4842 15.5486 15.4884C15.5486 15.4716 15.5486 15.4591 15.5695 15.4507L15.5988 15.4967L15.5904 15.4298C15.6197 15.4173 15.6113 15.3629 15.6406 15.388V15.4089C15.6866 15.3546 15.7284 15.296 15.766 15.2333L15.8036 15.25C15.7618 15.2041 15.8789 15.1497 15.8036 15.1246C15.858 15.0995 15.8287 14.9657 15.8998 15.0117C15.9458 14.8738 15.8705 14.7609 15.9123 14.6271C15.9834 14.5853 15.9583 14.4682 15.9667 14.3888C15.9374 14.2383 15.9123 14.1379 15.8873 13.9832C15.9876 13.8913 15.8538 13.7491 15.9082 13.6488L15.8705 13.6195C15.9332 13.5526 15.858 13.4523 15.9165 13.3561C15.8998 13.3352 15.8956 13.3227 15.8914 13.3143C15.8914 13.3185 15.8831 13.3268 15.858 13.3268C15.8747 13.3017 15.8538 13.2474 15.904 13.2516V13.2599C15.9583 13.2599 15.8873 13.1805 15.9291 13.1512L15.8747 13.168L15.8831 13.1178L15.8914 13.1303C15.7744 12.9087 15.9416 12.8126 15.8329 12.6035C15.8914 12.6328 15.8036 12.5617 15.8664 12.5617C15.9458 12.5116 15.8496 12.4656 15.8287 12.4238C15.8287 12.4238 15.8204 12.4238 15.8162 12.4238L15.8245 12.3485C15.904 12.3945 15.7577 12.2942 15.8245 12.336C15.8831 12.1436 15.8245 11.8886 15.8496 11.6628L15.8287 11.6712C15.8287 11.6127 15.8078 11.5416 15.8413 11.4998C15.8747 11.458 15.7911 11.4036 15.7869 11.3869C15.7535 11.3409 15.8204 11.2949 15.8162 11.3158C15.8078 11.2657 15.7326 11.2155 15.766 11.1486C15.8329 11.1235 15.6991 10.9563 15.7744 10.9563H15.766C15.8204 10.8643 15.7284 10.7807 15.7786 10.6845C15.7786 10.6845 15.7827 10.6845 15.7911 10.6887L15.5612 10.4922L15.3061 10.5465L15.0971 10.718L15.1431 11.182L15.0636 11.5541L15.0929 12.4572L15.1514 12.5199C15.0511 12.6955 15.1682 12.9255 15.0929 13.1136H15.1431C15.1431 13.1721 15.1138 13.168 15.1054 13.1805C15.118 13.6822 15.1807 14.1965 15.118 14.648C15.0845 14.694 15.1013 14.7442 15.0595 14.7567C15.1054 14.8361 15.0595 14.9239 15.0051 14.9699C15.0051 14.9699 14.9926 14.9866 14.9842 14.995C14.9842 14.995 14.9758 14.9908 14.9758 14.9866C14.9758 15.0494 14.888 15.0535 14.8421 15.0494C14.8086 15.0494 14.7793 15.0661 14.7459 15.0703C14.7166 15.0786 14.6832 15.0786 14.6037 15.0828C14.47 15.0912 14.332 15.0954 14.2024 15.1037C13.9348 15.1163 13.6672 15.1246 13.3913 15.087C13.1363 15.0076 12.8353 15.1163 12.5426 15.0494C12.4882 14.9992 11.8946 15.0368 11.8402 15.0619L11.8444 15.0828Z" fill="#232C6A"/>
<path d="M12.1956 15.7188H12.1914L12.2081 15.748L12.1956 15.7188Z" fill="#232C6A"/>
<path d="M11.4097 15.7349C11.4431 15.7433 11.4473 15.7349 11.4431 15.7266C11.4306 15.7266 11.418 15.7266 11.4097 15.7349Z" fill="#232C6A"/>
<path d="M10.6779 15.1875C10.6779 15.1875 10.6654 15.2 10.6779 15.2126C10.6988 15.2126 10.7114 15.2126 10.7114 15.2126C10.703 15.2084 10.6863 15.1959 10.6779 15.1917V15.1875Z" fill="#232C6A"/>
<path d="M10.7532 15.4727V15.4894C10.7532 15.4894 10.7574 15.481 10.7532 15.4727Z" fill="#232C6A"/>
<path d="M15.9666 1.82422C15.9666 1.82422 15.9833 1.83258 15.9916 1.83258L15.9666 1.82422Z" fill="#232C6A"/>
<path d="M15.515 0.469025C15.515 0.469025 15.5066 0.464844 15.5024 0.464844C15.5024 0.464844 15.5108 0.464844 15.515 0.469025Z" fill="#232C6A"/>
<path d="M12.4046 0.164337H12.4088L12.4004 0.160156L12.4046 0.164337Z" fill="#232C6A"/>
<path d="M12.4129 0.144531C12.4129 0.144531 12.4129 0.157074 12.4045 0.161255C12.4171 0.173797 12.4296 0.173798 12.4422 0.169617C12.4422 0.152893 12.4171 0.157074 12.4129 0.144531Z" fill="#232C6A"/>
<path d="M15.4984 5.18832H15.5067L15.49 5.17578C15.49 5.17996 15.4942 5.18414 15.4984 5.18832Z" fill="#232C6A"/>
<path d="M15.7826 3.45416H15.7909C15.7909 3.45416 15.7993 3.41653 15.7993 3.37891H15.77L15.7826 3.45416Z" fill="#232C6A"/>
<path d="M15.0844 4.16087L15.143 4.09398C15.1722 4.31557 15.1095 4.42009 15.1597 4.60823L15.1472 4.59569C15.1346 4.62495 15.2684 4.6375 15.1054 4.9427H15.1012C15.1012 4.9427 15.1137 4.95524 15.1012 4.97615L15.1388 4.9218C15.1555 4.95524 15.1806 4.98033 15.1848 5.02214C15.1764 5.0305 15.1639 5.03468 15.1555 5.03468L15.1639 5.1392L15.1263 5.17265C15.1472 5.2061 15.2308 5.18937 15.1848 5.27299C15.2433 5.23954 15.2182 5.3148 15.2475 5.30644C15.2391 5.31062 15.2308 5.31898 15.2182 5.32734C15.2266 5.37751 15.2391 5.47367 15.2684 5.49458C15.2684 5.49458 15.3896 5.29808 15.4482 5.24373C15.4315 5.3148 15.4565 5.26045 15.4733 5.24791H15.4607C15.4733 5.20192 15.5109 5.20192 15.5193 5.18101H15.5109H15.5151C15.5067 5.18101 15.5025 5.18101 15.5025 5.18101C15.4942 5.18101 15.49 5.18101 15.49 5.16847C15.49 5.16847 15.49 5.12248 15.49 5.10994H15.5193C15.4607 5.07649 15.6071 4.90089 15.6071 4.8549C15.6447 4.81309 15.5987 4.75874 15.6154 4.70857C15.6238 4.62495 15.6572 4.66676 15.6865 4.62495C15.7032 4.5706 15.653 4.6375 15.6489 4.61241L15.6907 4.5497C15.6907 4.58733 15.7116 4.56642 15.7241 4.55806C15.7283 4.50371 15.7826 4.41591 15.7241 4.39919C15.7534 4.32393 15.7785 4.32393 15.7785 4.29466C15.7659 4.30721 15.7576 4.32811 15.745 4.32811C15.7701 4.29884 15.7367 4.31557 15.7325 4.32811C15.7074 4.28212 15.8412 4.09398 15.7743 4.08562H15.7868C15.7367 4.07308 15.6907 4.09398 15.6614 4.06053L15.6823 4.03963L15.6614 4.00618C15.6781 3.98528 15.6907 3.99364 15.6948 3.99364C15.6739 3.94347 15.699 3.86821 15.7074 3.80968L15.5736 3.87657C15.6029 3.82222 15.6656 3.73024 15.6238 3.7177L15.6698 3.68425C15.7534 3.57973 15.6321 3.609 15.6572 3.56719L15.7074 3.51284V3.56719C15.7325 3.51284 15.7492 3.49193 15.7785 3.45012C15.7785 3.45012 15.7743 3.4543 15.7701 3.4543V3.44594C15.745 3.43758 15.7283 3.41249 15.7283 3.37487C15.7367 3.32051 15.699 3.28289 15.7492 3.19509L15.699 3.17418L15.7283 3.11147H15.7701C15.7701 3.17418 15.7826 3.29125 15.7868 3.37069H15.8035C15.8035 3.3247 15.7868 3.27034 15.791 3.24108C15.7994 3.22435 15.8412 3.18673 15.8663 3.21599L15.8286 3.18673C15.8245 3.02785 15.8203 3.02785 15.8663 2.8648L15.8454 2.87734C15.8328 2.84389 15.8203 2.81045 15.8537 2.80208C15.8621 2.70174 15.8872 2.6014 15.9373 2.53869L15.8913 2.52614C15.8913 2.52614 15.9666 2.47597 15.8997 2.46343L15.8788 2.41744C15.8788 2.38818 15.8537 2.37145 15.8788 2.338L15.883 2.32964C15.9039 2.26693 15.8412 2.32964 15.8663 2.25857C15.8997 2.23348 15.8077 2.23348 15.8161 2.19585L15.883 2.15823C15.9206 2.09133 15.8537 2.08297 15.8537 1.98681C15.8788 1.94082 15.9332 1.91992 15.9875 1.94918C15.9248 1.90737 15.9457 1.93246 15.9164 1.87393C15.9415 1.86556 15.9457 1.87393 15.9708 1.88229C16 1.83212 15.9499 1.85302 15.9499 1.81539C15.9039 1.80285 15.8245 1.79449 15.8245 1.78195L15.8077 1.79449C15.7826 1.75686 15.7701 1.71505 15.7952 1.66906H15.8203L15.8077 1.62307H15.837L15.8286 1.552L15.8203 1.56036C15.8203 1.56036 15.8077 1.48928 15.8203 1.46002H15.837C15.8872 1.37222 15.8245 1.31787 15.8077 1.17154L15.8454 1.18408C15.8746 1.13391 15.791 1.17572 15.7994 1.12136L15.8412 1.113C15.7785 1.07537 15.8412 1.04611 15.8537 1.00848L15.8035 1.03775V0.970852C15.7952 0.895596 15.8495 0.903958 15.883 0.908139L15.8245 0.874692L15.8663 0.849607C15.7994 0.837064 15.8621 0.807798 15.8035 0.761808C15.8161 0.749265 15.837 0.761808 15.8328 0.736722C15.7952 0.711637 15.7576 0.690733 15.7199 0.674009L15.7785 0.715818L15.7116 0.745084C15.6321 0.715818 15.6739 0.665647 15.628 0.636381L15.6656 0.648924C15.6071 0.598753 15.628 0.577848 15.6154 0.531859C15.6154 0.552763 15.6112 0.577848 15.5861 0.561125C15.5694 0.548582 15.5987 0.53604 15.5861 0.515135C15.5443 0.544401 15.4942 0.519316 15.4733 0.473326C15.4774 0.469145 15.4816 0.464964 15.49 0.464964C15.4733 0.464964 15.4607 0.464964 15.4524 0.44406L15.4983 0.414794L15.4315 0.423155C15.4189 0.393889 15.3646 0.402251 15.3896 0.372985H15.4106C15.3562 0.326995 15.2977 0.285186 15.235 0.247558L15.2517 0.20993C15.2057 0.251739 15.1513 0.134674 15.1263 0.20993C15.1012 0.155578 14.9674 0.184844 15.0134 0.113769C14.8754 0.0677795 14.7625 0.143036 14.6287 0.101227C14.5869 0.0301514 14.4699 0.0552368 14.3904 0.046875C14.2399 0.0761413 14.1396 0.101227 13.9849 0.126312C13.8929 0.0259705 13.7508 0.159759 13.6504 0.105408L13.6212 0.143036C13.5543 0.0803221 13.4539 0.155578 13.3578 0.0970457C13.3369 0.113769 13.3243 0.11795 13.316 0.122131C13.3201 0.122131 13.3285 0.130493 13.3285 0.155578C13.3034 0.138855 13.2491 0.159759 13.2532 0.109588H13.2616C13.2616 0.0552368 13.1822 0.126312 13.1529 0.084503L13.1696 0.138855L13.1195 0.130493L13.132 0.122131C12.9104 0.239196 12.8143 0.0719604 12.6052 0.180664C12.6345 0.122131 12.5634 0.20993 12.5634 0.147216C12.5132 0.0677795 12.4672 0.16394 12.4254 0.184844C12.4254 0.184844 12.4254 0.193206 12.4254 0.197387L12.3502 0.189025C12.3962 0.109588 12.2958 0.25592 12.3376 0.189025C12.1453 0.130493 11.8903 0.189025 11.6645 0.16394L11.6729 0.184844C11.6144 0.184844 11.5433 0.205749 11.5015 0.172302C11.4597 0.138855 11.4053 0.222473 11.3886 0.226653C11.3426 0.260101 11.2966 0.193206 11.3175 0.193206C11.2673 0.201568 11.2172 0.276824 11.1503 0.243377C11.1252 0.176483 10.958 0.310271 10.958 0.235015V0.243377C10.866 0.189025 10.7824 0.281005 10.6862 0.230834C10.6862 0.230834 10.6862 0.226653 10.6904 0.218292L10.4939 0.448241L10.5482 0.703275L10.7197 0.91232L11.1837 0.86633L11.5558 0.945767L12.4589 0.916501L12.5216 0.857968C12.6972 0.95831 12.9271 0.841245 13.1153 0.916501V0.86633C13.1738 0.86633 13.1696 0.895596 13.1822 0.903958C13.6839 0.891416 14.1981 0.828702 14.6496 0.891416C14.6956 0.924863 14.7458 0.908139 14.7583 0.949948C14.8378 0.903958 14.9256 0.949948 14.9716 1.0043H14.9674C14.9674 1.0043 14.9883 1.01684 15.0008 1.0252C15.0008 1.0252 14.9967 1.03357 14.9925 1.03357C15.0552 1.03357 15.0594 1.12136 15.0552 1.16735H15.051C15.0594 1.19662 15.0719 1.23007 15.0761 1.26351C15.0844 1.29278 15.0844 1.32623 15.0886 1.40567C15.097 1.53945 15.1012 1.67742 15.1095 1.80703C15.1221 2.07461 15.1304 2.34219 15.0928 2.61812C15.0134 2.87316 15.1221 3.17418 15.0552 3.46685C15.005 3.5212 15.0426 4.11488 15.0677 4.16924L15.0844 4.16087Z" fill="#232C6A"/>
<path d="M15.72 3.80524V3.80942L15.7492 3.79688L15.72 3.80524Z" fill="#232C6A"/>
<path d="M15.7366 4.59338C15.745 4.55993 15.7366 4.55575 15.7283 4.55993C15.7283 4.57247 15.7283 4.58502 15.7366 4.59338Z" fill="#232C6A"/>
<path d="M15.189 5.32642C15.189 5.32642 15.2015 5.33896 15.214 5.32642C15.214 5.30551 15.214 5.29297 15.214 5.29297C15.2099 5.30133 15.1973 5.31805 15.1931 5.32642H15.189Z" fill="#232C6A"/>
<path d="M15.4731 5.24795H15.4899C15.4899 5.24795 15.4815 5.24377 15.4731 5.24795Z" fill="#232C6A"/>
<path d="M1.823 0.0368041C1.823 0.0368041 1.82718 0.0200805 1.83136 0.0117188L1.823 0.0368041Z" fill="#232C6A"/>
<path d="M0.468292 0.484375C0.468292 0.484375 0.464111 0.492737 0.464111 0.496918C0.464111 0.496918 0.464111 0.488556 0.468292 0.484375Z" fill="#232C6A"/>
<path d="M0.163116 3.60184V3.59766L0.158936 3.60184H0.163116Z" fill="#232C6A"/>
<path d="M0.14624 3.58786C0.14624 3.58786 0.158783 3.58786 0.162964 3.59622C0.175506 3.58368 0.175506 3.57114 0.171325 3.55859C0.154602 3.55859 0.158783 3.58368 0.14624 3.58786Z" fill="#232C6A"/>
<path d="M5.18417 0.500549V0.492188L5.17163 0.508911C5.17581 0.508911 5.17999 0.50473 5.18417 0.500549Z" fill="#232C6A"/>
<path d="M3.45343 0.219849V0.211487C3.45343 0.211487 3.4158 0.203125 3.37817 0.203125V0.232391L3.45343 0.219849Z" fill="#232C6A"/>
<path d="M4.15993 0.918698L4.08885 0.860165C4.31044 0.830899 4.41496 0.893613 4.60309 0.843442L4.59055 0.855985C4.61982 0.868527 4.63236 0.734739 4.93756 0.897794C4.93756 0.897794 4.9501 0.889432 4.97101 0.906155L4.91666 0.868527C4.9501 0.851804 4.97519 0.826718 5.017 0.822537C5.02536 0.830899 5.02954 0.843442 5.02954 0.851804L5.13406 0.843442L5.16751 0.88107C5.20095 0.860165 5.18423 0.776548 5.26785 0.822537C5.2344 0.764005 5.30965 0.78909 5.30129 0.759824C5.30547 0.768186 5.31384 0.776548 5.3222 0.78909C5.37237 0.780728 5.46853 0.768186 5.48943 0.73892C5.48943 0.73892 5.29293 0.617674 5.23858 0.559141C5.30965 0.575865 5.2553 0.550779 5.24276 0.534056V0.546598C5.19677 0.534056 5.19677 0.496428 5.17587 0.488066V0.496428V0.492247C5.17587 0.500609 5.17587 0.50479 5.17587 0.50479C5.17587 0.513151 5.17587 0.517332 5.16333 0.517332C5.16333 0.517332 5.11316 0.513151 5.10061 0.50897V0.479704C5.06717 0.538237 4.88739 0.391905 4.84558 0.391905C4.80377 0.354277 4.74942 0.400267 4.69925 0.383544C4.61564 0.375182 4.65744 0.341735 4.61564 0.312468C4.56129 0.291564 4.62818 0.345916 4.60309 0.350096L4.54038 0.308288C4.57801 0.308288 4.55711 0.287383 4.54874 0.27484C4.49439 0.27066 4.4066 0.216308 4.38987 0.27484C4.31462 0.245574 4.31462 0.220489 4.28535 0.220489C4.29789 0.233031 4.3188 0.241393 4.3188 0.253936C4.28953 0.228851 4.30626 0.262298 4.3188 0.266479C4.27281 0.291564 4.08467 0.157775 4.07631 0.22467V0.212127C4.06377 0.262298 4.08467 0.308288 4.05122 0.337554L4.03032 0.316649L3.99687 0.337554C3.97597 0.32083 3.98433 0.308288 3.98433 0.304107C3.93416 0.325011 3.85891 0.299926 3.80037 0.291564L3.86727 0.425353C3.81292 0.396086 3.72094 0.333373 3.7084 0.375182L3.67495 0.329192C3.57043 0.245574 3.5997 0.36682 3.55789 0.341735L3.50354 0.291564H3.55789C3.50354 0.266479 3.48263 0.249755 3.44082 0.220489C3.44082 0.220489 3.445 0.22467 3.445 0.228851H3.43664C3.42828 0.253936 3.4032 0.270659 3.36557 0.270659C3.31122 0.262298 3.27359 0.299926 3.18579 0.249755L3.16489 0.299926L3.10218 0.270659V0.228851C3.16489 0.228851 3.28195 0.216308 3.36139 0.212127V0.195403C3.3154 0.195403 3.26105 0.212127 3.23178 0.207946C3.21506 0.199584 3.17743 0.157775 3.2067 0.13269L3.17743 0.170318C3.01856 0.174499 3.01856 0.17868 2.85551 0.13269L2.86805 0.153594C2.8346 0.166137 2.80116 0.17868 2.79279 0.145233C2.69246 0.136871 2.59212 0.111786 2.5294 0.0616148L2.51686 0.107605C2.49596 0.107605 2.46669 0.0323486 2.45415 0.0992429L2.40816 0.120147C2.37889 0.120147 2.36217 0.145233 2.32872 0.120147L2.32454 0.115966C2.26183 0.0992429 2.32454 0.161956 2.24929 0.136871C2.2242 0.103424 2.2242 0.195403 2.18657 0.187042L2.14895 0.120147C2.08205 0.0825193 2.07369 0.149414 1.97753 0.149414C1.93154 0.124328 1.91064 0.0699766 1.93991 0.015625C1.8981 0.0783384 1.919 0.0574339 1.86465 0.0867002C1.85629 0.0616148 1.86465 0.0574339 1.87301 0.0323486C1.82284 0.00308232 1.84375 0.053253 1.80612 0.053253C1.79358 0.0992429 1.78521 0.17868 1.77267 0.17868L1.78522 0.195403C1.74759 0.220489 1.70578 0.233031 1.65979 0.207946V0.182861L1.6138 0.195403V0.166137L1.54273 0.174499L1.55109 0.182861C1.55109 0.182861 1.48001 0.199584 1.45075 0.182861V0.166137C1.36295 0.115966 1.3086 0.17868 1.16227 0.195403L1.17481 0.157775C1.12464 0.128509 1.16645 0.212127 1.1121 0.203765L1.10374 0.161956C1.06611 0.22467 1.03685 0.161956 0.999219 0.149414L1.02848 0.199584H0.961591C0.886337 0.207946 0.894698 0.153594 0.898879 0.120147L0.865432 0.17868L0.836167 0.136871C0.823624 0.203765 0.794358 0.141052 0.748369 0.199584C0.735827 0.187042 0.748369 0.166137 0.723284 0.170318C0.698199 0.207946 0.677295 0.245574 0.660572 0.283202L0.70238 0.22467L0.731646 0.291564C0.70238 0.371001 0.65221 0.329192 0.622944 0.375182L0.635487 0.337554C0.585317 0.396086 0.564413 0.375182 0.518423 0.387724C0.539328 0.387724 0.564413 0.391905 0.547689 0.416991C0.535147 0.433714 0.522604 0.404448 0.5017 0.416991C0.530966 0.4588 0.505881 0.50897 0.459892 0.529875C0.455711 0.525694 0.45153 0.517332 0.45153 0.513151C0.45153 0.529875 0.45153 0.542418 0.430626 0.550779L0.40136 0.50479L0.409722 0.571684C0.380456 0.584226 0.388818 0.638578 0.359552 0.613493V0.592588C0.313563 0.64694 0.271755 0.705472 0.234127 0.768186L0.1965 0.751462C0.238308 0.797452 0.121245 0.851804 0.1965 0.876889C0.142149 0.901974 0.171415 1.03576 0.100341 0.989773C0.0543514 1.12774 0.129606 1.24063 0.0877981 1.37442C0.0167239 1.41622 0.0418089 1.53329 0.0334473 1.61273C0.0627131 1.76324 0.0877981 1.86358 0.112883 2.01827C0.0125431 2.11025 0.14633 2.2524 0.0919789 2.35274L0.129606 2.38201C0.0668939 2.4489 0.142149 2.54925 0.0836172 2.64541C0.100341 2.66631 0.104521 2.67885 0.108702 2.68722C0.108702 2.68303 0.117064 2.67467 0.142149 2.67467C0.125426 2.69976 0.14633 2.75411 0.0961597 2.74993V2.74157C0.0418089 2.74157 0.112883 2.821 0.0710747 2.85027L0.125426 2.83355L0.117064 2.88372L0.108702 2.87118C0.225765 3.09276 0.0585322 3.18892 0.167234 3.39797C0.108702 3.3687 0.1965 3.43978 0.133787 3.43978C0.0543514 3.48995 0.15051 3.53594 0.171415 3.57775C0.171415 3.57775 0.179776 3.57775 0.183957 3.57775L0.175595 3.653C0.0961597 3.60701 0.242489 3.70735 0.175595 3.66554C0.117064 3.85787 0.175595 4.1129 0.150511 4.33867L0.171415 4.33031C0.171415 4.38884 0.192319 4.45991 0.158872 4.50172C0.125426 4.54353 0.209042 4.59788 0.213223 4.61461C0.24667 4.6606 0.179776 4.70659 0.179776 4.68568C0.188138 4.73585 0.263393 4.78602 0.229946 4.85292C0.163053 4.878 0.29684 5.04524 0.221585 5.04524H0.229946C0.175595 5.13722 0.267574 5.22084 0.217404 5.317C0.217404 5.317 0.213223 5.317 0.204861 5.31282L0.434807 5.50932L0.689838 5.45497L0.898879 5.28355L0.85289 4.81947L0.932326 4.44737L0.90306 3.5443L0.844528 3.48159C0.944868 3.30599 0.827805 3.07604 0.90306 2.8879H0.85289C0.85289 2.82937 0.882156 2.83355 0.890517 2.821C0.877975 2.3193 0.815262 1.80505 0.877975 1.35351C0.911422 1.30752 0.894698 1.25735 0.936507 1.24481C0.890517 1.16537 0.936507 1.07757 0.990857 1.03158C0.990857 1.03158 1.0034 1.01486 1.01176 1.0065C1.01176 1.0065 1.02012 1.01068 1.02012 1.01486C1.02012 0.952145 1.10792 0.947964 1.15391 0.952145C1.18736 0.952145 1.21662 0.935422 1.25007 0.931241C1.27933 0.922879 1.31278 0.922879 1.39222 0.918698C1.526 0.910336 1.66397 0.906155 1.79358 0.897794C2.06115 0.885251 2.32872 0.876889 2.60466 0.914517C2.85969 0.993954 3.16071 0.885251 3.45337 0.952145C3.50772 1.00232 4.10139 0.964688 4.15575 0.939602L4.15993 0.918698Z" fill="#232C6A"/>
<path d="M3.8045 0.283172H3.80868L3.79614 0.253906L3.8045 0.283172Z" fill="#232C6A"/>
<path d="M4.59484 0.265182C4.5614 0.256821 4.55722 0.265182 4.5614 0.273544C4.57394 0.273544 4.58648 0.273544 4.59484 0.265182Z" fill="#232C6A"/>
<path d="M5.32642 0.818054C5.32642 0.818054 5.33896 0.805511 5.32642 0.792969C5.30551 0.792969 5.29297 0.792969 5.29297 0.792969C5.30133 0.79715 5.31805 0.809692 5.32642 0.813873V0.818054Z" fill="#232C6A"/>
<path d="M5.24698 0.532349V0.515625C5.24698 0.515625 5.24279 0.523987 5.24698 0.532349Z" fill="#232C6A"/>
<path d="M2.83447 13.7695C2.83865 13.7779 2.84702 13.7863 2.84702 13.7904L2.83447 13.7695Z" fill="#232C6A"/>
<path d="M2.5376 13.9805C2.54178 13.9805 2.54596 13.9888 2.5376 13.9805V13.9805Z" fill="#232C6A"/>
<path d="M4.78271 11.6808C4.78271 11.6808 4.77435 11.6682 4.77435 11.6641C4.75763 11.6641 4.75345 11.6641 4.74927 11.6766C4.76181 11.6891 4.77017 11.6766 4.78271 11.6766V11.6808Z" fill="#232C6A"/>
<path d="M5.44336 10.9141L5.46008 10.9308C5.46008 10.9308 5.44754 10.9182 5.44336 10.9141Z" fill="#232C6A"/>
<path d="M2.29501 14.2C2.29501 14.2 2.28665 14.1917 2.28247 14.1875L2.29919 14.2H2.29501Z" fill="#232C6A"/>
<path d="M0.844482 15.0946C0.844482 15.0946 0.848663 15.0946 0.852844 15.0988L0.844482 15.082C0.844482 15.082 0.844482 15.0904 0.844482 15.0946Z" fill="#232C6A"/>
<path d="M1.89795 14.4405C1.89795 14.4405 1.89795 14.4447 1.90213 14.4489C1.91467 14.4489 1.92721 14.4363 1.94812 14.4154L1.92722 14.3945L1.89795 14.4405Z" fill="#232C6A"/>
<path d="M1.05761 14.2969L1.13286 14.3053C1.04507 14.4349 0.948908 14.4432 0.890377 14.5686V14.5561C0.861111 14.5561 0.948908 14.6648 0.685516 14.6983H0.681335C0.681335 14.6983 0.681335 14.7066 0.664612 14.7066H0.714782C0.710601 14.7317 0.714782 14.7652 0.698059 14.7902C0.689697 14.7902 0.677154 14.7819 0.672974 14.7777L0.631165 14.8362L0.589357 14.8237C0.589357 14.8529 0.652069 14.9073 0.580995 14.9157C0.635346 14.9407 0.580995 14.9617 0.610261 14.9742C0.601899 14.9742 0.589357 14.97 0.580995 14.9658C0.560091 14.9951 0.526644 15.0536 0.535006 15.0871C0.535006 15.0871 0.714782 15.0745 0.785856 15.0913C0.739867 15.1163 0.781675 15.1038 0.802579 15.1122L0.794218 15.0996C0.823483 15.0871 0.848568 15.1122 0.869473 15.1122C0.869473 15.1122 0.865292 15.108 0.861111 15.1038C0.861111 15.1038 0.852749 15.1038 0.852749 15.0996C0.848568 15.0954 0.844388 15.0871 0.852749 15.0871C0.852749 15.0871 0.877834 15.0662 0.886196 15.062L0.9071 15.0829C0.882015 15.0285 1.07433 15.0411 1.09524 15.0202C1.14123 15.0244 1.13705 14.9658 1.17467 14.9533C1.22484 14.9198 1.22484 14.9617 1.26665 14.9617C1.30428 14.9491 1.23739 14.9407 1.24575 14.9282H1.30846C1.30846 14.9282 1.31682 14.9491 1.32518 14.9533C1.35445 14.9282 1.43807 14.9282 1.40462 14.8739C1.46315 14.8571 1.47987 14.8739 1.4966 14.8613C1.48405 14.8613 1.46733 14.8613 1.45897 14.8529C1.49242 14.8571 1.45897 14.8404 1.45061 14.8446C1.45061 14.8028 1.64293 14.807 1.60112 14.7568L1.60948 14.7652C1.58021 14.7233 1.53841 14.6983 1.53422 14.6648H1.55931V14.6397C1.58021 14.6397 1.58439 14.6564 1.58858 14.6606C1.59694 14.6188 1.65129 14.6021 1.68892 14.577L1.56349 14.5143C1.60948 14.5143 1.70146 14.5059 1.67637 14.4725L1.72236 14.4892C1.83524 14.4976 1.73072 14.4265 1.77253 14.4223L1.83524 14.4307L1.81016 14.4558C1.85197 14.4474 1.87705 14.4474 1.91886 14.4516C1.91886 14.4516 1.91468 14.4516 1.9105 14.4516C1.89796 14.4265 1.89796 14.4014 1.91886 14.3847C1.94813 14.3638 1.94395 14.3178 2.02338 14.3136L1.9983 14.2676L2.04847 14.2593L2.07773 14.2885C2.04429 14.3178 1.9983 14.3847 1.96067 14.4265L1.97321 14.439C1.9983 14.414 2.01084 14.3763 2.02756 14.3638C2.04011 14.3638 2.09028 14.3721 2.09446 14.4056L2.08191 14.3638C2.15717 14.2843 2.15717 14.2802 2.27005 14.2342L2.24915 14.2258C2.25751 14.2007 2.26587 14.1756 2.29095 14.1965C2.34531 14.1506 2.4122 14.1213 2.47909 14.1255L2.45401 14.0837C2.45401 14.0837 2.53344 14.1088 2.49163 14.0586L2.5 14.021C2.5 14.021 2.50836 13.9833 2.5418 13.9833C2.5418 13.9833 2.54599 13.9833 2.55017 13.9833C2.59616 13.9666 2.5209 13.9541 2.57525 13.9373C2.6087 13.9499 2.54599 13.883 2.57525 13.8704L2.64214 13.8997C2.70068 13.8955 2.65887 13.8412 2.70486 13.7952C2.74248 13.791 2.79684 13.8203 2.81774 13.8704C2.79265 13.8077 2.79684 13.8328 2.8052 13.7868C2.8261 13.7994 2.83028 13.8077 2.83864 13.8286C2.88463 13.8286 2.83864 13.7994 2.85537 13.7826C2.8261 13.745 2.78011 13.6823 2.78429 13.6739H2.76757C2.76757 13.6321 2.78011 13.6029 2.82192 13.5987L2.83864 13.6154L2.85537 13.582L2.88045 13.6029L2.90972 13.5611H2.89718C2.89718 13.5611 2.92226 13.5151 2.94735 13.5109L2.95989 13.5234C3.03932 13.5192 3.02678 13.4356 3.07277 13.3813L3.08949 13.4105C3.1313 13.4189 3.05605 13.3687 3.08949 13.3604L3.11876 13.3896C3.09786 13.3311 3.14803 13.3771 3.17729 13.3771L3.1313 13.3436L3.16057 13.3311C3.19819 13.3186 3.22746 13.3646 3.24418 13.3896L3.23164 13.3395L3.26927 13.3729C3.24 13.3186 3.29017 13.3687 3.29017 13.3227C3.3069 13.3353 3.3069 13.3478 3.31944 13.3436L3.3069 13.26V13.3018L3.25673 13.2475C3.24 13.1848 3.29435 13.2224 3.29435 13.1931V13.2182C3.31108 13.1806 3.33616 13.2015 3.36125 13.1973C3.34871 13.1931 3.3278 13.1848 3.33198 13.168C3.33616 13.1555 3.35289 13.1806 3.36543 13.1806C3.33198 13.143 3.33616 13.1095 3.36543 13.1053C3.36961 13.1095 3.37379 13.1137 3.37797 13.1179C3.37797 13.1095 3.36961 13.097 3.38633 13.097L3.41978 13.1388L3.39887 13.0886C3.39887 13.0886 3.40724 13.0468 3.43232 13.0761V13.0886L3.52012 13.0217L3.54938 13.051C3.51594 13.0008 3.60792 13.0259 3.54938 12.9757C3.59119 12.9883 3.58283 12.9005 3.63718 12.9674C3.69153 12.9214 3.66227 12.8419 3.75006 12.8085C3.82114 12.8378 3.86295 12.7625 3.90476 12.7291C3.95911 12.6329 3.98837 12.566 4.05108 12.474C4.16815 12.4991 4.14306 12.3361 4.23086 12.3277L4.21832 12.2859C4.29357 12.2984 4.29357 12.1939 4.38137 12.1897C4.38137 12.1646 4.38137 12.1563 4.38137 12.1521C4.38137 12.1521 4.36883 12.1521 4.3521 12.1354C4.37719 12.1354 4.38973 12.0936 4.42318 12.1312V12.1396C4.45662 12.1772 4.44826 12.0852 4.49007 12.0977L4.44408 12.0685L4.47335 12.0518V12.0643C4.49843 11.872 4.66567 11.943 4.69493 11.7675C4.7242 11.8218 4.69493 11.7256 4.74092 11.7675C4.82454 11.7967 4.77437 11.7089 4.78273 11.6713C4.78273 11.6713 4.77855 11.6671 4.77437 11.6629L4.81618 11.6337C4.84962 11.7131 4.79527 11.5584 4.82454 11.6295C4.96251 11.5751 5.04612 11.4079 5.17573 11.3159L5.15482 11.3076C5.18409 11.2825 5.20499 11.2281 5.2468 11.2323C5.29279 11.2323 5.25516 11.1487 5.26353 11.1361C5.26353 11.086 5.3346 11.1152 5.32206 11.1236C5.33878 11.0901 5.3137 11.0149 5.36805 11.0023C5.42658 11.04 5.41404 10.8602 5.47257 10.9145H5.46839C5.552 10.902 5.52692 10.7975 5.61053 10.7849C5.61053 10.7849 5.61053 10.7891 5.61472 10.7933L5.54782 10.5299L5.33878 10.3752L5.10883 10.3125L4.91234 10.5717L4.67403 10.6971L4.24758 11.1612L4.25595 11.2323C4.09707 11.249 4.06781 11.4413 3.92148 11.4831L3.95493 11.5208C3.92984 11.55 3.90894 11.525 3.89639 11.525C3.65809 11.78 3.44904 12.081 3.18147 12.2566C3.13548 12.2566 3.08531 12.3319 3.0435 12.3235C3.01424 12.4406 2.93898 12.5158 2.85955 12.5827V12.5744L2.83028 12.6162C2.8261 12.6162 2.82192 12.612 2.82192 12.6078C2.81356 12.6789 2.72158 12.7082 2.66305 12.7416V12.7332C2.38293 13.0008 2.19061 13.3186 1.86869 13.5401C1.68473 13.607 1.61784 13.8328 1.42552 13.9332C1.36281 13.9248 1.09524 14.2425 1.08688 14.2843L1.05761 14.2969Z" fill="#232C6A"/>
<path d="M1.68042 14.5742V14.5784L1.7055 14.5909L1.68042 14.5742Z" fill="#232C6A"/>
<path d="M1.30444 14.974C1.32535 14.9615 1.32535 14.9573 1.31699 14.9531C1.30862 14.9573 1.30444 14.9657 1.30444 14.974Z" fill="#232C6A"/>
<path d="M0.555908 14.9453C0.555908 14.9453 0.555908 14.9579 0.572632 14.962C0.580993 14.9495 0.585174 14.9453 0.585174 14.9453C0.576812 14.9453 0.56427 14.9453 0.555908 14.9453Z" fill="#232C6A"/>
<path d="M0.794189 15.1055L0.802551 15.1222C0.802551 15.1222 0.802551 15.1096 0.794189 15.1055Z" fill="#232C6A"/>
<path d="M13.7925 13.1493C13.8008 13.1451 13.8092 13.1367 13.8134 13.1367L13.7925 13.1493Z" fill="#232C6A"/>
<path d="M14.0017 13.4462C14.0017 13.4421 14.0101 13.4379 14.0017 13.4462V13.4462Z" fill="#232C6A"/>
<path d="M11.7023 11.2031C11.7023 11.2031 11.6897 11.2115 11.6855 11.2115C11.6855 11.2282 11.6855 11.2324 11.6981 11.2366C11.7106 11.224 11.6981 11.2157 11.6981 11.2031H11.7023Z" fill="#232C6A"/>
<path d="M10.9414 10.5441L10.9581 10.5273C10.9581 10.5273 10.9456 10.5399 10.9414 10.5441Z" fill="#232C6A"/>
<path d="M14.2232 13.6878C14.2232 13.6878 14.2149 13.6961 14.2107 13.7003L14.2232 13.6836V13.6878Z" fill="#232C6A"/>
<path d="M15.118 15.1412C15.118 15.1412 15.118 15.137 15.1222 15.1328L15.1055 15.1412C15.1055 15.1412 15.1138 15.1412 15.118 15.1412Z" fill="#232C6A"/>
<path d="M14.4657 14.0853C14.4657 14.0853 14.4698 14.0853 14.474 14.0811C14.474 14.0686 14.4615 14.0561 14.4406 14.0352L14.4197 14.0561L14.4657 14.0853Z" fill="#232C6A"/>
<path d="M14.3194 14.9274L14.3277 14.8522C14.4574 14.94 14.4657 15.0361 14.5911 15.0947H14.5786C14.5786 15.1239 14.6873 15.0361 14.7166 15.2995H14.7124C14.7124 15.2995 14.7249 15.2995 14.7249 15.3204V15.2703C14.75 15.2745 14.7835 15.2703 14.8085 15.287C14.8085 15.2954 14.8002 15.3079 14.796 15.3121L14.8545 15.3539L14.842 15.3957C14.8713 15.3957 14.9256 15.333 14.934 15.4041C14.9591 15.3497 14.98 15.4041 14.9925 15.3748C14.9925 15.3832 14.9883 15.3957 14.9841 15.4041C15.0134 15.425 15.0719 15.4584 15.1054 15.4501C15.1054 15.4501 15.0928 15.2703 15.1096 15.1992C15.1346 15.2452 15.1221 15.2034 15.1305 15.1825L15.1179 15.1908C15.1054 15.1616 15.1305 15.1365 15.1305 15.1156C15.1305 15.1156 15.1263 15.1198 15.1221 15.1239H15.1263C15.1263 15.1239 15.1179 15.1281 15.1137 15.1323C15.1096 15.1365 15.1054 15.1407 15.1012 15.1323C15.1012 15.1323 15.0761 15.1072 15.0719 15.0989L15.0928 15.078C15.0385 15.103 15.051 14.9107 15.0301 14.8898C15.0343 14.8438 14.9758 14.848 14.9632 14.8104C14.9298 14.7602 14.9716 14.7602 14.9716 14.7184C14.9591 14.6808 14.9507 14.7477 14.9381 14.7393V14.6766C14.9381 14.6766 14.9591 14.6682 14.9632 14.6599C14.9381 14.6306 14.9381 14.547 14.888 14.5804C14.8713 14.5219 14.888 14.5052 14.8754 14.4884C14.8754 14.501 14.8754 14.5177 14.8671 14.5261C14.8713 14.4926 14.8545 14.5261 14.8587 14.5344C14.8169 14.5344 14.8211 14.3421 14.7709 14.3839L14.7793 14.3756C14.7375 14.4048 14.7124 14.4466 14.6789 14.4508V14.4257H14.6538C14.6538 14.4048 14.6706 14.4007 14.6748 14.3965C14.6329 14.3881 14.6162 14.3338 14.5911 14.2961L14.5284 14.4216C14.5284 14.3756 14.5201 14.2836 14.4866 14.3087L14.5033 14.2627C14.5117 14.1498 14.4406 14.2543 14.4364 14.2125L14.4448 14.1498L14.4699 14.1749C14.4615 14.1331 14.4615 14.108 14.4657 14.0662C14.4657 14.0662 14.4657 14.0704 14.4657 14.0745H14.4615C14.4615 14.0745 14.4155 14.0829 14.3988 14.0662C14.3779 14.0369 14.3319 14.0411 14.3277 13.9617L14.2818 13.9867L14.2734 13.9366L14.3027 13.9073C14.3319 13.9408 14.3988 13.9867 14.4406 14.0244L14.4532 14.0118C14.4281 13.9867 14.3905 13.9742 14.3779 13.9575C14.3779 13.9449 14.3863 13.8948 14.4197 13.8906L14.3779 13.9031C14.2985 13.8279 14.2943 13.8279 14.2483 13.715L14.2399 13.7359C14.2149 13.7275 14.1898 13.7192 14.2107 13.6941C14.1689 13.6397 14.1354 13.5728 14.1396 13.5059L14.0978 13.531C14.0978 13.531 14.1229 13.4516 14.0727 13.4934L14.0351 13.485C14.0351 13.485 13.9975 13.4767 13.9975 13.4432C13.9975 13.4432 13.9975 13.439 13.9975 13.4349C13.9807 13.3889 13.9682 13.4641 13.9515 13.4098C13.964 13.3763 13.8971 13.439 13.8846 13.4098L13.9138 13.3429C13.9097 13.2844 13.8553 13.3262 13.8093 13.2802C13.8051 13.2425 13.8344 13.1882 13.8846 13.1673C13.8219 13.1924 13.8469 13.1882 13.7968 13.1798C13.8093 13.1589 13.8177 13.1589 13.8386 13.1464C13.8386 13.1004 13.8093 13.1464 13.7926 13.1297C13.755 13.1589 13.6923 13.2049 13.6839 13.2007V13.2175C13.6421 13.2175 13.6128 13.2049 13.6086 13.1631L13.6254 13.1464L13.5919 13.1297L13.6128 13.1046L13.571 13.0753V13.0879C13.571 13.0879 13.525 13.0628 13.5208 13.0377L13.5334 13.0251C13.5292 12.9457 13.4456 12.9582 13.3912 12.9123L13.4205 12.8955C13.4289 12.8537 13.3787 12.929 13.3703 12.8955L13.3996 12.8663C13.3411 12.8872 13.3871 12.837 13.3871 12.8077L13.3536 12.8537L13.3411 12.8245C13.3285 12.7868 13.3745 12.7576 13.3996 12.7408L13.3494 12.7534L13.3829 12.7158C13.3285 12.745 13.3787 12.6948 13.3327 12.6948C13.3452 12.6781 13.3578 12.6781 13.3536 12.6656L13.27 12.6781H13.3118L13.2575 12.7283C13.1947 12.745 13.2324 12.6907 13.2031 12.6907H13.2282C13.1906 12.6739 13.2115 12.6489 13.2073 12.6238C13.2031 12.6363 13.1947 12.6572 13.178 12.653C13.1655 12.6489 13.1906 12.6321 13.1906 12.6196C13.1529 12.653 13.1195 12.6489 13.1153 12.6196C13.1195 12.6154 13.1237 12.6112 13.1278 12.607C13.1195 12.607 13.1069 12.6154 13.1069 12.5987L13.1488 12.5652L13.0986 12.5861C13.0986 12.5861 13.0568 12.5778 13.086 12.5527H13.0986L13.0317 12.4649L13.061 12.4356C13.0108 12.4691 13.0359 12.3771 12.9857 12.4356C12.9982 12.3938 12.9104 12.4022 12.9773 12.352C12.9313 12.2977 12.8519 12.3269 12.8185 12.2391C12.8477 12.1681 12.7725 12.1262 12.739 12.0844C12.6429 12.0301 12.576 12.0008 12.484 11.9423C12.5091 11.8252 12.346 11.8503 12.3377 11.7625L12.2959 11.775C12.3084 11.6998 12.2039 11.6998 12.1997 11.612C12.1746 11.612 12.1663 11.612 12.1621 11.612C12.1621 11.612 12.1621 11.6245 12.1454 11.6413C12.1454 11.6162 12.1035 11.6036 12.1412 11.5702H12.1495C12.1872 11.5367 12.0952 11.5451 12.1077 11.5033L12.0785 11.5493L12.0617 11.52H12.0743C11.882 11.4949 11.953 11.3277 11.7774 11.3026C11.8318 11.2733 11.7356 11.3026 11.7774 11.2566C11.8067 11.173 11.7189 11.2232 11.6813 11.2148C11.6813 11.2148 11.6771 11.219 11.6729 11.2232L11.6437 11.1814C11.7231 11.1479 11.5684 11.2023 11.6395 11.173C11.5851 11.035 11.4179 10.9514 11.3259 10.8218L11.3175 10.8427C11.2925 10.8134 11.2381 10.7925 11.2423 10.7507C11.2465 10.7089 11.1587 10.7424 11.1461 10.734C11.096 10.734 11.1252 10.6629 11.1336 10.6755C11.1001 10.6588 11.0249 10.6838 11.0123 10.6295C11.05 10.571 10.8702 10.5835 10.9245 10.525H10.9204C10.9162 10.4455 10.8075 10.4706 10.7949 10.387C10.7949 10.387 10.7991 10.387 10.8033 10.3828L10.5399 10.4497L10.3852 10.6588L10.3225 10.8887L10.5817 11.0852L10.7071 11.3235L11.1712 11.75L11.2423 11.7416C11.259 11.9005 11.4513 11.9297 11.4931 12.0761L11.5308 12.0426C11.56 12.0677 11.535 12.0886 11.535 12.1012C11.79 12.3395 12.0868 12.5485 12.2666 12.8161C12.2666 12.8621 12.3419 12.9123 12.3335 12.9541C12.4464 12.9833 12.5258 13.0586 12.5927 13.138H12.5843L12.6261 13.1673C12.6261 13.1715 12.622 13.1756 12.6178 13.1756C12.6889 13.184 12.7181 13.276 12.7516 13.3345H12.7432C13.0108 13.6146 13.3285 13.807 13.5501 14.1289C13.617 14.3129 13.8428 14.3797 13.9431 14.5721C13.9347 14.6348 14.2525 14.9024 14.2943 14.9107L14.3194 14.9274Z" fill="#232C6A"/>
<path d="M14.5952 14.3024H14.5994L14.6119 14.2773L14.5952 14.3024Z" fill="#232C6A"/>
<path d="M14.9965 14.6818C14.9839 14.6609 14.9798 14.6609 14.9756 14.6693C14.9798 14.6776 14.9881 14.6818 14.9965 14.6818Z" fill="#232C6A"/>
<path d="M14.9673 15.4316C14.9673 15.4316 14.9798 15.4316 14.984 15.4149C14.9715 15.4065 14.9673 15.4023 14.9673 15.4023C14.9673 15.4107 14.9673 15.4232 14.9673 15.4316Z" fill="#232C6A"/>
<path d="M15.1304 15.192L15.1471 15.1836C15.1471 15.1836 15.1346 15.1836 15.1304 15.192Z" fill="#232C6A"/>
<path d="M2.21988 2.83984C2.21152 2.84402 2.20316 2.85239 2.19897 2.85657L2.21988 2.84402V2.83984Z" fill="#232C6A"/>
<path d="M2.0108 2.54297C2.00243 2.55133 2.0108 2.54715 2.0108 2.54297V2.54297Z" fill="#232C6A"/>
<path d="M4.31853 4.77563C4.31853 4.77563 4.33107 4.76727 4.33526 4.76727C4.33526 4.75055 4.33526 4.74637 4.32271 4.74219C4.31017 4.75473 4.32271 4.76309 4.32271 4.77563H4.31853Z" fill="#232C6A"/>
<path d="M5.08386 5.43359L5.06714 5.45032C5.06714 5.45032 5.07968 5.43777 5.08386 5.43359Z" fill="#232C6A"/>
<path d="M1.78931 2.30161C1.78931 2.30161 1.79767 2.29324 1.80185 2.28906L1.78931 2.30579V2.30161Z" fill="#232C6A"/>
<path d="M0.886261 0.855469C0.886261 0.855469 0.886261 0.85965 0.88208 0.863831L0.898803 0.855469C0.898803 0.855469 0.890442 0.855469 0.886261 0.855469Z" fill="#232C6A"/>
<path d="M1.54279 1.91016C1.54279 1.91016 1.5386 1.91016 1.53442 1.91434C1.53442 1.92688 1.54697 1.93942 1.56787 1.96033L1.58877 1.93942L1.54279 1.91016Z" fill="#232C6A"/>
<path d="M1.68465 1.06299L1.67629 1.13824C1.54668 1.05045 1.53832 0.954286 1.41289 0.895753H1.42544C1.42544 0.866487 1.31673 0.958467 1.28329 0.690889H1.28747C1.28747 0.690889 1.27493 0.690889 1.27493 0.669985V0.720156C1.24984 0.715975 1.21639 0.720156 1.19131 0.703432C1.19131 0.69507 1.19967 0.682528 1.20385 0.678347L1.14532 0.636538L1.15786 0.594729C1.1286 0.594729 1.07843 0.657442 1.06588 0.586367C1.0408 0.640719 1.01989 0.586367 1.00735 0.615633C1.00735 0.607272 1.01153 0.594729 1.01571 0.586367C0.986448 0.565463 0.927916 0.532015 0.89447 0.540377C0.89447 0.540377 0.907012 0.720156 0.890289 0.791231C0.865204 0.745241 0.877746 0.78705 0.869385 0.807954L0.881927 0.799593C0.89447 0.828859 0.869385 0.853944 0.869385 0.874849C0.869385 0.874849 0.873566 0.870668 0.877746 0.866487H0.873566C0.873566 0.866487 0.881927 0.862306 0.886108 0.858125C0.890289 0.853944 0.89447 0.849763 0.898651 0.858125C0.898651 0.858125 0.923736 0.883211 0.927916 0.891572L0.907012 0.912477C0.961363 0.887391 0.948821 1.07971 0.969725 1.10062C0.965544 1.14661 1.02408 1.14243 1.03662 1.18005C1.07006 1.23022 1.02826 1.23022 1.02826 1.27203C1.0408 1.30966 1.04916 1.24277 1.05752 1.25113V1.31384C1.05752 1.31384 1.03662 1.3222 1.03244 1.33057C1.05752 1.35983 1.05752 1.44345 1.11187 1.41C1.1286 1.46854 1.11187 1.48526 1.12442 1.50198C1.12442 1.48944 1.12442 1.47272 1.13278 1.46435C1.13278 1.4978 1.14532 1.46435 1.14114 1.45599C1.18295 1.45599 1.17877 1.64831 1.22894 1.60651L1.22057 1.61487C1.2582 1.5856 1.28747 1.54379 1.32091 1.53961V1.5647H1.346C1.346 1.5856 1.32928 1.58978 1.3251 1.59396C1.3669 1.60232 1.38363 1.65668 1.40871 1.6943L1.47142 1.56888C1.47561 1.61487 1.47979 1.70685 1.51323 1.68176L1.49651 1.72775C1.48815 1.84064 1.55922 1.73611 1.5634 1.77792L1.55504 1.84064L1.52996 1.81555C1.53832 1.85736 1.53832 1.88244 1.53414 1.92425C1.53414 1.92425 1.53414 1.92007 1.53414 1.91589H1.53832C1.53832 1.91589 1.58431 1.90753 1.60103 1.92425C1.62193 1.95352 1.66792 1.94934 1.6721 2.02878L1.71809 2.00369L1.72646 2.05386L1.69719 2.08313C1.66792 2.04968 1.60103 2.00369 1.55922 1.96606L1.54668 1.9786C1.57176 2.00369 1.60939 2.01623 1.62193 2.03296C1.62193 2.0455 1.61357 2.09567 1.58013 2.09985L1.62193 2.08731C1.70137 2.16256 1.70555 2.16256 1.75572 2.27545L1.76408 2.25454C1.78917 2.26291 1.81425 2.27127 1.79335 2.29635C1.83934 2.3507 1.8686 2.4176 1.86442 2.48449L1.90623 2.45941C1.90623 2.45941 1.88115 2.53884 1.93132 2.49704L1.96894 2.5054C1.96894 2.5054 2.00657 2.50958 2.00657 2.54721C2.00657 2.54721 2.00657 2.55139 2.00657 2.55557C2.02329 2.60156 2.03584 2.5263 2.05256 2.58065C2.04002 2.6141 2.10691 2.55139 2.11945 2.58065L2.09019 2.64755C2.09437 2.70608 2.14872 2.66427 2.19471 2.71026C2.19889 2.74789 2.16962 2.80224 2.11945 2.82315C2.18217 2.79806 2.15708 2.80224 2.20307 2.8106C2.19053 2.83151 2.18217 2.83569 2.16126 2.84405C2.16126 2.89004 2.19053 2.84405 2.20725 2.86077C2.24488 2.83151 2.30759 2.78552 2.31595 2.7897V2.77297C2.35776 2.77297 2.38703 2.78552 2.39121 2.82733L2.37448 2.84405L2.40793 2.86077L2.38703 2.88586L2.42883 2.91094V2.8984C2.42883 2.8984 2.47482 2.92349 2.479 2.94857L2.46646 2.96111C2.47064 3.04055 2.55426 3.02801 2.60861 3.06982L2.57934 3.08654C2.57098 3.12835 2.62115 3.05309 2.62951 3.08654L2.60025 3.11999C2.65878 3.09908 2.61279 3.14925 2.61279 3.17852L2.64624 3.13253L2.65878 3.1618C2.67132 3.19943 2.62533 3.22869 2.60025 3.24542L2.65042 3.23287L2.61697 3.2705C2.67132 3.24123 2.62115 3.2914 2.66714 3.2914C2.6546 3.30813 2.64206 3.30813 2.64624 3.32067L2.72985 3.30813H2.68805L2.7424 3.25796C2.80511 3.24123 2.76748 3.29559 2.79675 3.29559H2.77166C2.80929 3.31231 2.78839 3.33739 2.79257 3.36248C2.79675 3.34994 2.80511 3.32903 2.82183 3.32903C2.83437 3.33321 2.80929 3.34994 2.80929 3.36248C2.84692 3.32903 2.88036 3.32903 2.88454 3.36248C2.88036 3.36666 2.87618 3.37084 2.872 3.37502C2.88036 3.37502 2.89291 3.36666 2.89291 3.38338L2.8511 3.41683L2.90127 3.39593C2.90127 3.39593 2.94308 3.40429 2.91381 3.42519H2.90127L2.96816 3.50881L2.9389 3.54226C2.98907 3.50881 2.96398 3.59661 3.01415 3.54226C3.00161 3.58407 3.08941 3.57571 3.02251 3.62588C3.0685 3.68023 3.14794 3.65096 3.18138 3.73876C3.15212 3.80984 3.22737 3.85164 3.26082 3.89345C3.35698 3.94781 3.42387 3.97707 3.51585 4.0356C3.49077 4.15267 3.65382 4.12758 3.66636 4.21538L3.70817 4.20284C3.69563 4.2781 3.80015 4.27392 3.80433 4.36589C3.82941 4.36589 3.83777 4.36589 3.84195 4.36589C3.84195 4.36589 3.84195 4.35335 3.85868 4.33663C3.85868 4.36171 3.90049 4.37426 3.86286 4.4077H3.8545C3.81687 4.44115 3.90885 4.43279 3.89631 4.4746L3.92557 4.42861L3.9423 4.45787H3.92975C4.12207 4.48296 4.051 4.6502 4.23077 4.67528C4.17642 4.70455 4.27258 4.67528 4.23077 4.72127C4.20151 4.80489 4.2893 4.75472 4.32693 4.76308C4.32693 4.76308 4.33111 4.7589 4.33529 4.75472L4.36874 4.79653C4.2893 4.82997 4.44399 4.77562 4.37292 4.80489C4.42727 4.94286 4.5945 5.02229 4.68648 5.15608L4.69484 5.13518C4.71993 5.16445 4.77428 5.18117 4.7701 5.22716C4.76592 5.27315 4.85372 5.23552 4.86626 5.24388C4.91643 5.24388 4.88716 5.31496 4.8788 5.30241C4.91225 5.31914 4.9875 5.29405 5.00004 5.3484C4.96242 5.40694 5.14219 5.39439 5.08784 5.44875H5.09202C5.10039 5.52818 5.20491 5.5031 5.21745 5.58672C5.21745 5.58672 5.21327 5.58672 5.20909 5.5909L5.4683 5.524L5.61881 5.31496L5.68152 5.08501L5.42231 4.88851L5.29688 4.6502L4.83281 4.22793L4.76174 4.23629C4.74501 4.07741 4.5527 4.04815 4.50671 3.90182L4.46908 3.93526C4.43981 3.91018 4.4649 3.88927 4.4649 3.87673C4.20987 3.63842 3.90885 3.43356 3.72907 3.16598C3.72907 3.11999 3.65382 3.06982 3.658 3.02801C3.54512 2.99874 3.46568 2.92349 3.39879 2.84823H3.40715L3.36534 2.81896C3.36534 2.81478 3.36952 2.8106 3.3737 2.8106C3.30263 2.80224 3.27336 2.71444 3.23992 2.65173H3.24828C2.9807 2.37161 2.65878 2.18347 2.4372 1.86154C2.36612 1.67758 2.14036 1.61069 2.0442 1.41836C2.05256 1.35565 1.73064 1.09226 1.68883 1.07971L1.68465 1.06299Z" fill="#232C6A"/>
<path d="M1.41296 1.68777L1.40878 1.68359L1.39624 1.71286L1.41296 1.68777Z" fill="#232C6A"/>
<path d="M1.01172 1.3125C1.02426 1.3334 1.02844 1.3334 1.03262 1.32504C1.02844 1.31668 1.02008 1.3125 1.01172 1.3125Z" fill="#232C6A"/>
<path d="M1.03674 0.570312C1.03674 0.570312 1.0242 0.570312 1.02002 0.587036C1.03256 0.595398 1.03674 0.599579 1.03674 0.599579C1.03674 0.591217 1.03674 0.578674 1.03674 0.570312Z" fill="#232C6A"/>
<path d="M0.873657 0.808594L0.856934 0.816956C0.856934 0.816956 0.869476 0.816956 0.873657 0.808594Z" fill="#232C6A"/>
<path d="M13.1698 2.22794C13.1656 2.21957 13.1573 2.21121 13.1531 2.20703L13.1656 2.22794H13.1698Z" fill="#232C6A"/>
<path d="M13.4623 2.01544C13.454 2.00707 13.4582 2.01544 13.4623 2.01544V2.01544Z" fill="#232C6A"/>
<path d="M11.2339 4.32561C11.2339 4.32561 11.2422 4.33815 11.2422 4.34234C11.259 4.34234 11.2632 4.34234 11.2673 4.32979C11.2548 4.31725 11.2464 4.32979 11.2339 4.32979V4.32561Z" fill="#232C6A"/>
<path d="M10.5819 5.08704L10.5652 5.07031C10.5652 5.07031 10.5777 5.08286 10.5819 5.08704Z" fill="#232C6A"/>
<path d="M13.7049 1.79297C13.7049 1.79297 13.7132 1.80133 13.7174 1.80551L13.7007 1.79297H13.7049Z" fill="#232C6A"/>
<path d="M15.1473 0.894806C15.1473 0.894806 15.1431 0.894806 15.1389 0.890625L15.1473 0.907349C15.1473 0.907349 15.1473 0.898987 15.1473 0.894806Z" fill="#232C6A"/>
<path d="M14.0978 1.55133C14.0978 1.55133 14.0978 1.54715 14.0936 1.54297C14.0811 1.54297 14.0685 1.55551 14.0476 1.57642L14.0685 1.59732L14.0978 1.55133Z" fill="#232C6A"/>
<path d="M14.9381 1.69418L14.8629 1.68582C14.9507 1.55621 15.0469 1.54785 15.1054 1.42242V1.43497C15.1346 1.43497 15.0427 1.32626 15.3102 1.29281H15.3144C15.3144 1.29281 15.3144 1.28445 15.3311 1.28445H15.281C15.2852 1.25937 15.281 1.22592 15.2977 1.20083C15.3061 1.20083 15.3186 1.2092 15.3228 1.21338L15.3646 1.15485L15.4064 1.16739C15.4064 1.13812 15.3437 1.08795 15.4148 1.07541C15.3604 1.05032 15.4148 1.02942 15.3855 1.01688C15.3939 1.01688 15.4064 1.02106 15.4148 1.02524C15.4357 0.995971 15.4691 0.937439 15.4608 0.903992C15.4608 0.903992 15.281 0.916534 15.2099 0.899811C15.2559 0.874725 15.2141 0.887268 15.1932 0.878906L15.2015 0.891449C15.1723 0.903992 15.1472 0.878906 15.1263 0.878906C15.1263 0.878906 15.1305 0.883087 15.1346 0.887268C15.1346 0.887268 15.143 0.887268 15.143 0.891449C15.1472 0.89563 15.1514 0.899811 15.143 0.903992C15.143 0.903992 15.1179 0.924896 15.1096 0.929077L15.0887 0.908173C15.1137 0.962524 14.9214 0.949981 14.9005 0.970886C14.8545 0.966705 14.8587 1.02524 14.8211 1.03778C14.7709 1.07123 14.7709 1.02942 14.7291 1.02942C14.6915 1.04196 14.7584 1.05032 14.75 1.05868H14.6873C14.6873 1.05868 14.6789 1.03778 14.6706 1.0336C14.6413 1.05868 14.5577 1.05868 14.5911 1.11304C14.5326 1.12976 14.5159 1.11304 14.4992 1.12558C14.5117 1.12558 14.5284 1.12558 14.5368 1.13394C14.5033 1.13394 14.5368 1.14648 14.5452 1.1423C14.5452 1.18411 14.3528 1.17993 14.3946 1.2301L14.3863 1.22174C14.4155 1.25937 14.4574 1.28863 14.4615 1.32208H14.4364V1.34717C14.4155 1.34717 14.4114 1.33044 14.4072 1.32626C14.3988 1.36807 14.3445 1.38479 14.3068 1.40988L14.4323 1.47259C14.3863 1.47677 14.2943 1.48095 14.3194 1.5144L14.2734 1.49768C14.1605 1.48932 14.265 1.56039 14.2232 1.56457L14.1605 1.55621L14.1856 1.53113C14.1438 1.53949 14.1187 1.53949 14.0769 1.53531C14.0769 1.53531 14.0811 1.53531 14.0853 1.53531C14.0978 1.56039 14.0978 1.58548 14.0769 1.6022C14.0476 1.62311 14.0518 1.6691 13.9724 1.67328L13.9975 1.71927L13.9473 1.72763L13.918 1.69836C13.9515 1.6691 13.9975 1.6022 14.0351 1.56039L14.0225 1.54785C13.9975 1.57293 13.9849 1.61056 13.9682 1.62311C13.9557 1.62311 13.9055 1.61474 13.9013 1.5813L13.9138 1.62311C13.8386 1.70254 13.8386 1.70672 13.7257 1.75689L13.7466 1.76526C13.7383 1.79034 13.7299 1.81543 13.7048 1.79452C13.6505 1.84051 13.5836 1.86978 13.5167 1.8656L13.5418 1.90741C13.5418 1.90741 13.4623 1.88232 13.5041 1.93249L13.4958 1.97012C13.4958 1.97012 13.4916 2.00775 13.454 2.00775C13.454 2.00775 13.4498 2.00775 13.4456 2.00775C13.3996 2.02447 13.4749 2.03701 13.4205 2.05374C13.3871 2.04119 13.4498 2.10809 13.4247 2.12063L13.3578 2.09137C13.2993 2.09555 13.3411 2.1499 13.2951 2.19589C13.2575 2.20007 13.2031 2.1708 13.1822 2.12063C13.2073 2.18334 13.2031 2.15826 13.1947 2.20425C13.1738 2.19171 13.1697 2.18334 13.1613 2.16244C13.1153 2.16244 13.1613 2.19171 13.1446 2.20843C13.1738 2.24606 13.2198 2.30877 13.2156 2.31713H13.2324C13.2324 2.35894 13.2198 2.38821 13.178 2.39239L13.1613 2.37567L13.1446 2.40911L13.1195 2.38821L13.0944 2.43002H13.1069C13.1069 2.43002 13.0819 2.47601 13.0568 2.48019L13.0442 2.46765C12.9648 2.47183 12.9773 2.55544 12.9355 2.6098L12.9188 2.58053C12.877 2.57217 12.9523 2.62234 12.9188 2.6307L12.8895 2.60143C12.9104 2.65997 12.8603 2.61398 12.831 2.61398L12.877 2.64742L12.8477 2.65997C12.8101 2.67251 12.7808 2.62652 12.7641 2.60143L12.7767 2.65161L12.739 2.61816C12.7683 2.67251 12.7181 2.62234 12.7181 2.66833C12.7014 2.65579 12.7014 2.64324 12.6889 2.64742L12.7014 2.73104V2.68923L12.7516 2.74358C12.7683 2.8063 12.7139 2.76867 12.7139 2.79794V2.77285C12.6972 2.81048 12.6721 2.78957 12.6471 2.79376C12.6596 2.79794 12.6805 2.8063 12.6805 2.82302C12.6763 2.83556 12.6596 2.81048 12.6471 2.81048C12.6805 2.84811 12.6805 2.88155 12.6471 2.88574C12.6429 2.88155 12.6387 2.87737 12.6345 2.87319C12.6345 2.88155 12.6429 2.8941 12.6261 2.8941L12.5927 2.85229L12.6136 2.90246C12.6136 2.90246 12.6052 2.94427 12.5843 2.915V2.90246L12.5007 2.96935L12.4673 2.94009C12.5007 2.99026 12.4129 2.96517 12.4673 3.01534C12.4255 3.0028 12.4338 3.0906 12.3837 3.0237C12.3293 3.06969 12.3628 3.14913 12.2708 3.18258C12.1997 3.15331 12.1579 3.22857 12.1161 3.26202C12.0617 3.35818 12.0325 3.42507 11.9739 3.51705C11.8569 3.49196 11.882 3.65502 11.7942 3.66756L11.8067 3.70937C11.7315 3.69683 11.7356 3.80135 11.6437 3.80553C11.6437 3.83062 11.6437 3.83898 11.6437 3.84316C11.6437 3.84316 11.6562 3.84316 11.6729 3.85988C11.6478 3.85988 11.6353 3.90169 11.6018 3.86406V3.8557C11.5684 3.81807 11.5768 3.91005 11.535 3.89751L11.5809 3.92678L11.5517 3.9435V3.93096C11.5266 4.12328 11.3594 4.0522 11.3343 4.23198C11.305 4.17763 11.3343 4.27379 11.2883 4.23198C11.2047 4.20272 11.2548 4.29051 11.2465 4.32814C11.2465 4.32814 11.2507 4.33232 11.2548 4.3365L11.213 4.36995C11.1796 4.29052 11.2339 4.44521 11.2047 4.37413C11.0667 4.42848 10.9873 4.59572 10.8577 4.6877L10.8786 4.69606C10.8493 4.72115 10.8326 4.7755 10.7866 4.77132C10.7406 4.77132 10.7782 4.85494 10.7699 4.86748C10.7699 4.91765 10.6988 4.88838 10.7113 4.88002C10.6946 4.91347 10.7239 4.98872 10.6653 5.00127C10.6068 4.96364 10.6194 5.14342 10.565 5.08907H10.5692C10.4856 5.10161 10.5106 5.20613 10.427 5.21867C10.427 5.21867 10.427 5.21449 10.4229 5.21031L10.4897 5.46953L10.6988 5.62004L10.9287 5.68275L11.1252 5.42354L11.3635 5.29811L11.7858 4.83403L11.7774 4.76296C11.9363 4.74623 11.9656 4.55391 12.1077 4.50792L12.0743 4.47029C12.0994 4.44103 12.1203 4.46611 12.1328 4.46611C12.3711 4.21108 12.576 3.91005 12.8436 3.73446C12.8895 3.73446 12.9397 3.6592 12.9815 3.66338C13.0108 3.5505 13.086 3.47106 13.1613 3.40417V3.41253L13.1906 3.37072C13.1947 3.37072 13.1989 3.3749 13.1989 3.37908C13.2073 3.30801 13.2951 3.27874 13.3578 3.24529V3.25365C13.6379 2.98608 13.826 2.66833 14.1438 2.44256C14.3277 2.37149 14.3946 2.14572 14.587 2.04956C14.6497 2.05792 14.9131 1.74017 14.9214 1.69418H14.9381Z" fill="#232C6A"/>
<path d="M14.3151 1.41879L14.29 1.40625L14.3151 1.41879Z" fill="#232C6A"/>
<path d="M14.6872 1.02344C14.6663 1.03598 14.6663 1.04016 14.6747 1.04434C14.683 1.04016 14.6872 1.0318 14.6872 1.02344Z" fill="#232C6A"/>
<path d="M15.4358 1.04797C15.4358 1.04797 15.4358 1.03543 15.419 1.03125C15.4107 1.04379 15.4065 1.04797 15.4065 1.04797C15.4149 1.04797 15.4274 1.04797 15.4358 1.04797Z" fill="#232C6A"/>
<path d="M15.1973 0.883911L15.189 0.867188C15.189 0.867188 15.189 0.87973 15.1973 0.883911Z" fill="#232C6A"/>
</svg>
