<svg width="21" height="20" viewBox="0 0 21 20" fill="none" xmlns="http://www.w3.org/2000/svg">
<path d="M12.5008 12.3343C13.0315 11.8037 13.3296 11.084 13.3296 10.3335C13.3296 9.58305 13.0315 8.86333 12.5008 8.33268C11.9702 7.80202 11.2505 7.50391 10.5 7.50391C9.74955 7.50391 9.02983 7.80202 8.49918 8.33268C7.96853 8.86333 7.67041 9.58305 7.67041 10.3335C7.67041 11.084 7.96853 11.8037 8.49918 12.3343C9.02983 12.865 9.74955 13.1631 10.5 13.1631C11.2505 13.1631 11.9702 12.865 12.5008 12.3343Z" stroke="#232C6A" stroke-linecap="round" stroke-linejoin="round"/>
<path d="M1.5 10.3329C2.70163 6.5063 6.2773 3.73047 10.5 3.73047C14.7236 3.73047 18.2984 6.5063 19.5 10.3329C18.2984 14.1594 14.7236 16.9352 10.5 16.9352C6.2773 16.9352 2.70163 14.1594 1.5 10.3329Z" stroke="#232C6A" stroke-linecap="round" stroke-linejoin="round"/>
</svg>
