<svg width="24" height="16" viewBox="0 0 24 16" fill="none" xmlns="http://www.w3.org/2000/svg">
<path d="M18.2568 12.7911C18.2568 12.7911 18.2664 12.7863 18.2712 12.7815C18.276 12.7623 18.2808 12.7479 18.2856 12.7383L18.2568 12.7911Z" fill="#232C6A"/>
<path d="M20.6133 11.0745C20.6133 11.0745 20.6229 11.0697 20.6277 11.0649C20.6229 11.0649 20.6181 11.0553 20.6133 11.0745Z" fill="#232C6A"/>
<path d="M2.52938 5.70882C2.52938 5.70882 2.52937 5.71362 2.51978 5.71842C2.52937 5.71362 2.53418 5.70882 2.54857 5.69922L2.52938 5.70882Z" fill="#232C6A"/>
<path d="M2.50051 5.76674C2.44772 5.80993 2.50051 5.74275 2.5197 5.71875C2.45731 5.76194 2.40932 5.80994 2.36133 5.86753C2.37573 5.87712 2.46691 5.77634 2.50051 5.76674Z" fill="#232C6A"/>
<path d="M10.9377 1.14062L10.9089 1.15022C10.9089 1.15022 10.9281 1.14062 10.9377 1.14062Z" fill="#232C6A"/>
<path d="M12.2672 15.6289C12.2672 15.6289 12.2384 15.6289 12.2192 15.6337C12.2432 15.6337 12.2576 15.6337 12.2672 15.6289Z" fill="#232C6A"/>
<path d="M9.42098 1.39844L9.41138 1.42723C9.41138 1.42723 9.42578 1.40324 9.42098 1.39844Z" fill="#232C6A"/>
<path d="M18.2854 12.7379L18.295 12.7188C18.295 12.7188 18.2854 12.7331 18.2854 12.7379Z" fill="#232C6A"/>
<path d="M22.4897 9.11027C22.4897 9.11027 22.5041 9.11027 22.5137 9.11027L22.5185 9.10547H22.4897V9.11027Z" fill="#232C6A"/>
<path d="M13.8894 0.898438C13.8894 0.898438 13.8894 0.908036 13.8942 0.908036L13.9518 0.898438C13.923 0.898438 13.899 0.898438 13.8894 0.898438Z" fill="#232C6A"/>
<path d="M22.2114 6.30682C22.2114 6.30682 22.197 6.30202 22.197 6.30682C22.2306 6.35961 22.3458 6.48919 22.4802 6.65716L22.5138 6.64757C22.4178 6.53238 22.317 6.422 22.2114 6.31162V6.30682Z" fill="#232C6A"/>
<path d="M19.6725 2.88199L19.9653 3.18914C19.4278 2.7908 19.015 2.52205 18.6215 2.26769C18.4199 2.1477 18.2231 2.03252 18.0167 1.90774C17.8008 1.79736 17.5704 1.69178 17.3064 1.5718L17.3688 1.58619C17.2968 1.543 17.2297 1.5334 16.9657 1.44222C16.7017 1.35583 16.2746 1.13027 15.4059 0.770324C15.3435 0.746327 15.3435 0.755926 15.2235 0.703134C15.3243 0.746327 15.4203 0.79432 15.5211 0.842312C15.3339 0.79432 15.1611 0.779922 14.9116 0.73193C14.8588 0.712733 14.8444 0.693536 14.8444 0.683937L14.2253 0.554358L14.0429 0.482369C13.8461 0.482369 13.9229 0.583153 13.419 0.458373C13.6013 0.549559 13.1598 0.458373 13.2222 0.501566C13.1982 0.487169 13.1406 0.472771 13.0926 0.458373C12.7855 0.448775 12.2143 0.443975 12.0703 0.467972C12.0703 0.467972 12.3583 0.515964 12.6991 0.573555C12.867 0.60715 13.0398 0.631146 13.1934 0.66954C13.3422 0.712733 13.4718 0.755926 13.5485 0.779922C13.1358 0.703134 13.4382 0.770324 13.515 0.803918L13.5437 0.78952C13.7885 0.842312 13.7837 0.880706 13.9037 0.909501C13.9037 0.909501 13.9037 0.899903 13.8989 0.895104H13.8845C13.8845 0.895104 13.8845 0.885505 13.8941 0.885505C13.8941 0.875907 13.9037 0.871108 13.9709 0.885505H13.9565C14.0621 0.890305 14.2397 0.933498 14.3116 0.957494V0.991089C14.4028 0.98149 14.7004 1.07747 15.0028 1.17826C15.3003 1.28864 15.5931 1.44222 15.7131 1.48061C15.9386 1.59099 16.2362 1.65818 16.5145 1.79736C16.9657 1.99893 16.7257 1.93174 16.9321 2.06612C17.1961 2.22449 16.8937 2.00373 17.0041 2.05652L17.3112 2.26289C17.1193 2.1717 17.2105 2.24369 17.2393 2.27248C17.5272 2.41166 17.9256 2.71402 18.0407 2.70922C18.3911 2.95398 18.3815 2.97317 18.5303 3.08356C18.4871 3.04036 18.3911 2.96358 18.3959 2.94918C18.5207 3.06916 18.4679 2.98757 18.4151 2.94438C18.5303 3.00677 18.799 3.21793 19.0438 3.4147C19.2838 3.61627 19.4949 3.80824 19.5429 3.79384L19.5333 3.80344C19.6149 3.79384 19.5717 3.69306 19.7349 3.77945L19.8165 3.87063L19.9749 3.96662C20.0565 4.0578 20.0037 4.03381 19.9989 4.0386C20.2484 4.20658 20.5508 4.50413 20.8052 4.75849L20.6228 4.38415C20.8292 4.61931 21.1891 5.04644 21.2611 5.06084L21.3571 5.22882C21.7218 5.73274 21.6883 5.50717 21.837 5.70394L22.005 5.9679L21.7938 5.74233C21.9858 5.9823 22.0482 6.09268 22.1826 6.29905C22.1826 6.29905 22.1682 6.27505 22.1682 6.27025L22.197 6.30384C22.2402 6.31344 22.365 6.41903 22.4993 6.587C22.6001 6.70698 22.6865 6.81256 22.7873 6.93255C22.8737 7.05253 23.0225 7.2205 23.0897 7.39807C23.1233 7.41727 23.1569 7.44126 23.1857 7.46526C23.2192 7.56604 23.2384 7.67163 23.2432 7.77241L23.2001 7.78201C23.1761 7.63803 23.1089 7.44126 22.9601 7.26369C22.7921 7.05253 22.6097 6.83176 22.461 6.65419H22.4418C22.6193 6.87015 22.8257 7.10532 22.9313 7.24929C22.9889 7.33088 23.0225 7.48446 22.9313 7.40287C22.9649 7.42687 22.9985 7.46046 23.0321 7.48926C23.1809 7.80601 23.1569 7.99798 23.1233 8.17075C23.1041 8.25713 23.0753 8.34352 23.0177 8.43951C22.9889 8.4875 22.9553 8.54029 22.9073 8.59308C22.8449 8.66507 22.7777 8.74186 22.7009 8.83304L22.7681 8.78025C22.6625 8.93863 22.5569 9.0922 22.4945 9.1114C22.1298 9.55293 21.7075 9.96566 21.4099 10.196L21.3955 10.292C21.3091 10.3784 21.1219 10.4456 21.1363 10.5416L20.9684 10.7383C20.8484 10.8535 20.7956 10.9399 20.6372 11.0455C20.6372 11.0455 20.618 11.0599 20.6084 11.0647C20.3156 11.2999 20.642 11.0983 20.306 11.3622C20.1765 11.4198 20.2341 11.511 20.0661 11.6358L19.8549 11.7078C19.5429 11.919 19.5285 12.0053 19.0966 12.3365C18.871 12.4709 18.7223 12.4757 18.8326 12.3365C18.6791 12.5237 18.7702 12.4325 18.5303 12.634C18.4727 12.634 18.4967 12.6148 18.5399 12.5525C18.2903 12.6772 18.4103 12.6676 18.2375 12.7828C18.2135 12.8596 18.1991 12.97 18.1415 13.0084L18.2231 12.9796C18.0455 13.1188 17.8392 13.2531 17.604 13.3635V13.3347C17.5224 13.3875 17.4408 13.4259 17.3592 13.4739L17.3256 13.4499L16.9801 13.6371L17.0329 13.6227C16.9513 13.6707 16.6873 13.8195 16.5145 13.8578V13.8386C16.2746 13.901 16.073 13.9922 15.8618 14.093C15.6459 14.1746 15.4203 14.2706 15.1467 14.3618L15.2043 14.2994C15.0076 14.3186 15.1707 14.381 14.9452 14.4242L14.9212 14.381C14.7388 14.4913 14.662 14.429 14.518 14.4338L14.5948 14.4817L14.3356 14.5297C14.0477 14.5729 14.1485 14.4913 14.1821 14.4482C14.1197 14.4769 14.0621 14.5153 13.9997 14.5393L13.9517 14.4865C13.8221 14.5729 13.8077 14.4961 13.5629 14.5681C13.5389 14.5489 13.6013 14.5297 13.515 14.5297L13.1118 14.6689L13.3566 14.5969L13.3374 14.6833C13.083 14.7889 12.9822 14.7217 12.7998 14.7505L12.9294 14.7217C12.6271 14.7553 12.6079 14.7217 12.4351 14.7121C12.4879 14.7265 12.5695 14.7457 12.4495 14.7601C12.3583 14.7697 12.4015 14.7313 12.3151 14.7265C12.2959 14.7793 12.0751 14.8369 11.8784 14.7889C11.8784 14.7793 11.8832 14.7745 11.8976 14.7697C11.8448 14.7745 11.8208 14.7889 11.7344 14.7697L11.7872 14.7121L11.6144 14.7601C11.504 14.7361 11.336 14.7745 11.3504 14.7313L11.4176 14.7217L10.9905 14.6929L10.5681 14.6257V14.5729C10.4674 14.6257 10.1074 14.4769 10.1218 14.5681C9.96823 14.5153 9.49309 14.4578 9.60828 14.3954C9.33951 14.3234 9.11874 14.2994 8.89317 14.2466C8.6676 14.1842 8.43244 14.117 8.11568 13.9826C8.01489 13.9106 7.81332 13.7955 7.58295 13.6947C7.35258 13.5891 7.09822 13.4835 6.90624 13.3683C6.51749 13.186 6.19594 13.0276 5.88878 12.8452C5.57202 12.6772 5.26966 12.4757 4.90011 12.2261C4.53536 11.823 3.82985 11.4294 3.4459 10.9879L3.30192 10.9111C3.07156 10.5992 2.59642 10.244 2.28926 9.79289C2.18847 9.7065 2.13568 9.65851 2.11648 9.63932C2.13088 9.65851 2.15008 9.69211 2.13568 9.7209C2.04929 9.59132 1.82372 9.37536 1.88611 9.35136L1.91491 9.37536C1.9725 9.35616 1.59335 9.03461 1.53096 8.86664L1.54056 8.97702L1.36778 8.74186L1.42537 8.79465C1.31499 8.67947 1.21421 8.57388 1.12782 8.4635C1.04143 8.35792 0.94544 8.23794 0.916644 8.18995C0.839854 8.05077 0.839855 7.89719 0.883049 7.77241C0.907046 7.70522 0.935841 7.65243 0.983835 7.59004C1.05583 7.49886 1.12302 7.40767 1.19501 7.31169C1.34379 7.11972 1.48777 6.90855 1.65575 6.66379C1.60295 6.82696 1.78053 6.46222 1.84772 6.49581C2.11168 6.32784 2.20287 6.06868 2.34685 5.86711C2.34685 5.86711 2.34685 5.85752 2.34685 5.84792L2.65401 5.54557C2.53883 5.79513 2.81719 5.26721 2.70681 5.49277C3.53229 4.73449 4.61215 3.73145 5.7304 3.07396L5.66801 3.08356C5.95117 2.91558 6.28232 2.67082 6.52229 2.59883C6.75746 2.51725 6.97823 2.29168 7.05982 2.24369C7.29499 2.09491 7.55415 2.07092 7.44377 2.11411C7.70773 1.98933 7.9237 1.78776 8.32205 1.70138C8.39884 1.71577 8.6532 1.61019 8.89797 1.50941C9.14754 1.42782 9.37791 1.35583 9.3971 1.39422V1.38463C9.91063 1.30304 10.381 1.14946 10.9377 1.12067C10.9377 1.12067 10.9281 1.13027 10.9089 1.13507C11.2785 1.01988 11.6528 0.9191 12.0416 0.808717L11.7008 0.530362C11.3552 0.47757 11.0001 0.386384 10.6449 0.367188C10.1746 0.443975 9.70426 0.511165 9.24833 0.650343C8.78279 0.755926 8.34125 0.9191 7.89971 1.08227C7.53496 1.18786 7.1942 1.34143 6.83905 1.47101C6.48869 1.61499 6.15274 1.78776 5.81199 1.94614C4.2282 2.87719 2.81719 4.0626 1.60295 5.41119L1.39178 5.74233C0.998232 6.11188 0.614285 6.5726 0.249534 7.10052C-0.00963126 7.47486 -0.0720229 7.97878 0.0863558 8.40111C0.124751 8.50669 0.172745 8.60748 0.235136 8.69866L0.374316 8.90023C0.455905 9.02021 0.537495 9.14019 0.623883 9.26977L0.681475 9.25538C0.883048 9.50974 0.839855 9.51453 0.883049 9.58172C2.78839 11.9286 5.33685 13.8578 7.9093 14.8657C8.02929 14.9281 8.28366 15.0193 8.52842 15.1056C8.77319 15.2016 9.02755 15.2448 9.11874 15.2976C9.35391 15.3408 9.57948 15.3792 9.79065 15.4176C10.0258 15.4464 10.2514 15.4752 10.477 15.504C10.9329 15.5856 11.3984 15.576 11.8448 15.6096H11.8112C11.9504 15.6192 12.0943 15.6192 12.2335 15.6096C12.2527 15.6096 12.2527 15.6192 12.2383 15.624C12.4783 15.5856 12.7807 15.5712 13.1022 15.5664C13.4142 15.5376 13.7597 15.504 14.0477 15.4752L14.0141 15.4848C15.7083 15.216 17.2345 14.5249 18.6167 13.6755C19.9941 12.8068 21.2275 11.7558 22.3842 10.5608C22.6625 10.292 22.9361 9.99446 23.2001 9.67291C23.3344 9.51454 23.4592 9.34656 23.5888 9.17859C23.7424 8.98662 23.8864 8.70346 23.9487 8.42991C24.0831 7.8732 23.9488 7.2493 23.5984 6.79337C23.3296 6.44302 23.0561 6.08788 22.7729 5.74233C22.6913 5.59836 22.0386 4.85927 21.3091 4.19698C20.9492 3.86103 20.5604 3.55868 20.258 3.31392C19.9413 3.08356 19.7109 2.92038 19.6437 2.87719L19.6725 2.88199Z" fill="#232C6A"/>
<path d="M14.8396 0.686086H14.854C14.854 0.686086 14.8348 0.671689 14.8396 0.686086Z" fill="#232C6A"/>
<path d="M20.8293 4.78092L20.8101 4.76172L20.8533 4.84811L20.8293 4.78092Z" fill="#232C6A"/>
<path d="M17.0759 2.20312C17.2535 2.29911 17.2679 2.29911 17.2439 2.27991C17.1767 2.24632 17.1191 2.21752 17.0759 2.20312Z" fill="#232C6A"/>
<path d="M13.0925 0.432241C12.9773 0.422642 13.0205 0.441839 13.0877 0.461036C13.2029 0.461036 13.2845 0.475434 13.2845 0.475434C13.2221 0.461036 13.1597 0.43704 13.0973 0.432241H13.0925Z" fill="#232C6A"/>
<path d="M13.5101 0.8125L13.4717 0.826898C13.5341 0.826898 13.5341 0.826898 13.5101 0.8125Z" fill="#232C6A"/>
<path d="M10.2852 9.60335C10.2852 9.60335 10.3044 9.59855 10.314 9.59375L10.2852 9.60335Z" fill="#232C6A"/>
<path d="M12.8481 5.60156C12.8481 5.60156 12.8481 5.60636 12.8529 5.61116V5.60156H12.8481Z" fill="#232C6A"/>
<path d="M12.8289 5.6096C12.8289 5.6096 12.8385 5.5952 12.8481 5.5952C12.8337 5.57121 12.8145 5.56641 12.7953 5.56641C12.7905 5.5856 12.8289 5.5952 12.8337 5.6096H12.8289Z" fill="#232C6A"/>
<path d="M8.663 8.06518C8.663 8.06518 8.663 8.05558 8.6582 8.05078C8.6582 8.06038 8.6582 8.06518 8.663 8.06518Z" fill="#232C6A"/>
<path d="M14.8638 8.55859H14.8542L14.8686 8.58259C14.8686 8.57299 14.8686 8.56819 14.8686 8.55859H14.8638Z" fill="#232C6A"/>
<path d="M12.6369 10.4832C12.6369 10.4832 12.6369 10.4784 12.6369 10.4736C12.6177 10.4688 12.5697 10.4832 12.5073 10.4928V10.5264C12.5505 10.5168 12.5937 10.4976 12.6321 10.4832H12.6369Z" fill="#232C6A"/>
<path d="M14.2015 10.5537C14.1487 10.5729 14.0959 10.5825 14.0431 10.5921C14.3886 10.2705 14.5854 10.1409 14.7726 9.77139V9.80018C14.7726 9.80018 14.7774 9.74259 14.8158 9.65141C14.8542 9.56022 14.9502 9.42584 15.1565 9.15229H15.1613C15.1613 9.15229 15.1565 9.12829 15.1901 9.08989L15.1085 9.18108C15.1181 9.10909 15.1085 9.0419 15.1325 8.96032C15.1469 8.94592 15.1613 8.94112 15.1709 8.94592L15.2141 8.72995L15.2765 8.67236C15.2669 8.60037 15.1661 8.61477 15.2477 8.4468C15.1709 8.50439 15.2237 8.35561 15.1853 8.37001C15.1949 8.36041 15.2093 8.34601 15.2237 8.32682C15.2237 8.22123 15.2141 8.02446 15.1853 7.97647C15.1853 7.97647 15.0317 8.37481 14.9358 8.4564C14.9742 8.32202 14.9358 8.418 14.907 8.442L14.9214 8.4516C14.8926 8.52838 14.8542 8.52359 14.835 8.55718H14.8398C14.8398 8.55718 14.8542 8.55238 14.8542 8.55718C14.8638 8.55718 14.8686 8.56198 14.8638 8.58597C14.8638 8.61477 14.8398 8.66756 14.8302 8.69156L14.7966 8.68196C14.8542 8.76355 14.5854 9.0275 14.5518 9.08989C14.4798 9.13789 14.4894 9.24827 14.4222 9.32506C14.3358 9.44984 14.3406 9.36345 14.2735 9.41144C14.2063 9.47863 14.3166 9.41624 14.2974 9.44984C14.2639 9.47383 14.2303 9.49783 14.1967 9.51703C14.2303 9.46424 14.1967 9.47863 14.1775 9.48343C14.1151 9.55542 13.9807 9.63701 14.0095 9.6994C13.8991 9.77139 13.8799 9.75219 13.8415 9.79058C13.8607 9.79058 13.8943 9.76659 13.9039 9.77619C13.8463 9.79058 13.8943 9.80018 13.9135 9.79058C13.8847 9.87697 13.5439 9.96816 13.5727 10.0305L13.5631 10.0209C13.5823 10.0785 13.6399 10.1025 13.6159 10.1601H13.5727L13.5439 10.2129C13.5056 10.2225 13.5104 10.1985 13.5056 10.1889C13.4432 10.2561 13.3232 10.2993 13.2224 10.3425C13.28 10.3713 13.3376 10.3953 13.4 10.4193C13.2992 10.4433 13.112 10.4433 13.1216 10.4961L13.0496 10.4721C12.8432 10.4433 12.944 10.5585 12.8624 10.5537C12.8288 10.5489 12.7952 10.5393 12.7569 10.5297C12.7856 10.5249 12.8144 10.5153 12.8432 10.5009C12.7521 10.5057 12.7089 10.4913 12.6321 10.4769C12.6321 10.4769 12.6417 10.4769 12.6417 10.4865H12.6321C12.6321 10.5201 12.5889 10.5537 12.5265 10.5633C12.4353 10.5633 12.3729 10.6257 12.2241 10.5777L12.1905 10.6352L12.0801 10.6065V10.5585C12.1857 10.5585 12.3777 10.5201 12.5073 10.4961V10.4769C12.4305 10.4865 12.3441 10.5201 12.2913 10.5249C12.2673 10.5249 12.1953 10.4721 12.2385 10.4433L12.1953 10.4913C11.941 10.5105 11.9314 10.5105 11.6722 10.4337L11.6914 10.4577C11.6386 10.4625 11.581 10.4673 11.5762 10.4289C11.4226 10.3953 11.2691 10.3233 11.1971 10.2321L11.1587 10.2753C11.1299 10.2609 11.1107 10.1697 11.0675 10.2321C11.0435 10.2321 11.0195 10.2273 10.9955 10.2225C10.9571 10.1985 10.9187 10.2129 10.8851 10.1649L10.8803 10.1553C10.7987 10.0929 10.8563 10.2033 10.7699 10.1169C10.7555 10.0641 10.6979 10.1553 10.6547 10.1169L10.6451 10.0209C10.5875 9.92016 10.5252 9.97775 10.4052 9.88177C10.3668 9.80978 10.3908 9.74259 10.4628 9.72819C10.3668 9.73779 10.41 9.74259 10.3236 9.709C10.3332 9.6802 10.3476 9.6802 10.3764 9.6754C10.3428 9.60341 10.3236 9.661 10.2852 9.61781C10.2324 9.64181 10.1556 9.6898 10.1412 9.6754V9.7042C10.0836 9.6754 10.0164 9.63701 9.99722 9.55542L10.0212 9.54102L9.96363 9.48823L9.98763 9.46424C9.96363 9.43544 9.93483 9.41144 9.91084 9.37785V9.39705C9.91084 9.39705 9.83885 9.31066 9.82925 9.25787L9.84844 9.24827C9.82925 9.09949 9.70926 9.0371 9.64687 8.88353H9.69007C9.70926 8.82114 9.62767 8.89793 9.62287 8.82594L9.66607 8.80674C9.58448 8.77314 9.65167 8.73475 9.66607 8.68676L9.60848 8.72515V8.64836C9.60368 8.56198 9.67087 8.58118 9.70446 8.58118L9.64207 8.54278L9.69487 8.51879C9.62288 8.49479 9.69487 8.48039 9.64687 8.418C9.66607 8.4084 9.68047 8.4228 9.68526 8.3988L9.58928 8.29802L9.63727 8.36041H9.55568C9.48369 8.29802 9.54609 8.26443 9.52209 8.21163C9.53169 8.22123 9.53649 8.23563 9.55088 8.24523C9.52209 8.15884 9.56048 8.15404 9.57488 8.10605C9.56048 8.12045 9.53649 8.14445 9.52689 8.11085C9.52209 8.08685 9.55568 8.09645 9.56528 8.07246C9.51249 8.07246 9.47409 8.00527 9.50289 7.94768C9.51249 7.94768 9.51729 7.94768 9.52209 7.95248C9.51249 7.93808 9.49809 7.92848 9.51249 7.90448L9.57488 7.91888L9.51729 7.87089C9.53649 7.83729 9.49329 7.7893 9.53649 7.7989L9.54609 7.8181C9.54609 7.73651 9.57008 7.65972 9.58928 7.57813H9.63727C9.57488 7.54934 9.68047 7.46295 9.59888 7.45335C9.65647 7.41976 9.61328 7.27098 9.69967 7.32377C9.75246 7.1798 9.69007 7.06462 9.81965 6.91104C9.91564 6.88225 9.98762 6.71907 10.0644 6.62309C10.1748 6.41192 10.2564 6.27754 10.4244 6.09517C10.6067 6.09037 10.6979 5.84081 10.8803 5.82161L10.8995 5.76402C11.0243 5.77842 11.1395 5.63924 11.3074 5.65844C11.3362 5.62964 11.3554 5.62005 11.3602 5.61525C11.3554 5.61525 11.341 5.61045 11.3314 5.58165C11.3794 5.59125 11.4562 5.54326 11.4658 5.60085L11.4562 5.61045C11.461 5.66324 11.5762 5.55286 11.6338 5.60085L11.6002 5.54326H11.6818L11.6626 5.55766C12.0082 5.38488 12.1713 5.57685 12.5073 5.50966C12.4497 5.56725 12.5793 5.48567 12.5697 5.56245C12.6273 5.67284 12.7233 5.57685 12.8 5.57685C12.8 5.57685 12.8 5.57205 12.8096 5.56725L12.92 5.62005C12.8192 5.68244 13.0304 5.57685 12.9392 5.62964C13.208 5.80242 13.5967 5.96559 13.8271 6.26314V6.23435C13.8895 6.30634 13.9951 6.37353 14.0047 6.45511C14.0143 6.5319 14.1487 6.5415 14.1631 6.5655C14.2399 6.61349 14.2063 6.71427 14.1919 6.68548C14.2495 6.74787 14.355 6.78146 14.3742 6.90624C14.3262 6.96863 14.5614 7.1846 14.4846 7.21339H14.4942C14.475 7.37177 14.6094 7.48695 14.5758 7.65972C14.5758 7.65972 14.571 7.65972 14.5614 7.65492C14.667 7.75091 14.7534 7.86129 14.8494 7.98607C14.9454 7.95248 15.0413 7.91408 15.1373 7.87089C15.2141 7.75091 15.2861 7.62613 15.3389 7.49175C15.2765 7.1606 15.1565 6.83905 14.9934 6.5463C14.9118 6.29194 14.7822 6.05198 14.6382 5.81681C14.2063 5.31289 13.6255 4.93855 12.992 4.75618L12.8384 4.78498C12.4881 4.56901 11.9746 4.665 11.5618 4.6458V4.70339C11.4466 4.72259 11.4466 4.68899 11.4178 4.68419C10.8755 4.78018 10.3716 5.04414 9.95883 5.38008C9.54128 5.71603 9.22933 6.13836 8.98456 6.5607C8.90297 6.62789 8.82618 6.90624 8.76379 6.96863C8.73979 7.29978 8.6822 7.62133 8.6678 7.94288V7.92848C8.663 7.97647 8.6678 8.02926 8.6726 8.07726C8.6726 8.08206 8.663 8.08685 8.6582 8.07726C8.711 8.24523 8.6918 8.50919 8.7158 8.72035L8.7062 8.71076C8.83578 9.31066 9.13814 9.83858 9.54609 10.2513C9.94923 10.6736 10.4484 10.976 11.0051 11.2016C11.5282 11.4511 12.2097 11.3839 12.8432 11.2879C12.9056 11.3023 13.2656 11.216 13.5775 11.0336C13.8943 10.8608 14.1679 10.6209 14.1967 10.5729L14.2015 10.5537Z" fill="#232C6A"/>
<path d="M13.2224 10.3317H13.232L13.1936 10.3125L13.2224 10.3317Z" fill="#232C6A"/>
<path d="M14.2062 9.42578C14.1678 9.47377 14.1678 9.47377 14.1822 9.47377C14.1966 9.45938 14.2062 9.44018 14.2062 9.42578Z" fill="#232C6A"/>
<path d="M15.2572 8.33229C15.2668 8.2939 15.2476 8.3083 15.2284 8.33229C15.2284 8.37549 15.2236 8.39948 15.2236 8.39948C15.2332 8.38509 15.2476 8.35149 15.2572 8.33709V8.33229Z" fill="#232C6A"/>
<path d="M14.9118 8.43627L14.8926 8.42188C14.8926 8.42188 14.9022 8.44587 14.9118 8.43627Z" fill="#232C6A"/>
</svg>
