<svg width="21" height="20" viewBox="0 0 21 20" fill="none" xmlns="http://www.w3.org/2000/svg">
<path d="M12.6729 13.5098C12.4448 13.5562 12.2734 13.7582 12.2734 14C12.2734 14.2418 12.4448 14.4438 12.6729 14.4902L12.7734 14.5H16.0459C16.322 14.5 16.5459 14.2761 16.5459 14C16.5459 13.7239 16.322 13.5 16.0459 13.5H12.7734L12.6729 13.5098ZM4.49023 13.5098C4.26214 13.5562 4.09082 13.7582 4.09082 14C4.09082 14.2418 4.26214 14.4438 4.49023 14.4902L4.59082 14.5H7.86328C8.13942 14.5 8.36328 14.2761 8.36328 14C8.36328 13.7239 8.13942 13.5 7.86328 13.5H4.59082L4.49023 13.5098ZM12.6729 11.5098C12.4448 11.5562 12.2734 11.7582 12.2734 12C12.2734 12.2418 12.4448 12.4438 12.6729 12.4902L12.7734 12.5H16.0459C16.322 12.5 16.5459 12.2761 16.5459 12C16.5459 11.7239 16.322 11.5 16.0459 11.5H12.7734L12.6729 11.5098ZM4.39941 11.5098C4.17145 11.5563 4 11.7583 4 12C4 12.2417 4.17145 12.4437 4.39941 12.4902L4.5 12.5H7.77246C8.0486 12.5 8.27246 12.2761 8.27246 12C8.27246 11.7239 8.0486 11.5 7.77246 11.5H4.5L4.39941 11.5098ZM12.6729 9.50879C12.4448 9.55522 12.2734 9.75722 12.2734 9.99902C12.2734 10.2408 12.4448 10.4428 12.6729 10.4893L12.7734 10.499H16.0459C16.3218 10.4988 16.5459 10.275 16.5459 9.99902C16.5459 9.72303 16.3218 9.49926 16.0459 9.49902H12.7734L12.6729 9.50879ZM12.6729 7.50977C12.4448 7.55619 12.2734 7.7582 12.2734 8C12.2734 8.2418 12.4448 8.44381 12.6729 8.49023L12.7734 8.5H16.0459C16.322 8.5 16.5459 8.27614 16.5459 8C16.5459 7.72386 16.322 7.5 16.0459 7.5H12.7734L12.6729 7.50977Z" fill="#232C6A"/>
<rect x="2.13672" y="1" width="16.3636" height="18" rx="2" stroke="#232C6A" stroke-linejoin="round"/>
<path d="M10.3184 1V19" stroke="#232C6A"/>
<circle cx="6.22718" cy="5.9098" r="1.13636" stroke="#232C6A"/>
</svg>
