<svg width="24" height="24" viewBox="0 0 24 24" fill="none" xmlns="http://www.w3.org/2000/svg">
<g clip-path="url(#clip0_993_2562)">
<path d="M13.5762 22.694C13.5762 22.694 13.5887 22.694 13.6013 22.694C13.6264 22.6814 13.639 22.6688 13.6641 22.6562L13.5762 22.694Z" fill="#232C6A"/>
<path d="M18.1226 22.779H18.1477C18.1477 22.779 18.1477 22.7664 18.1226 22.779Z" fill="#232C6A"/>
<path d="M3.81794 1.19837C3.71746 1.19837 3.84305 1.1732 3.89329 1.1732C3.78026 1.14803 3.66723 1.14803 3.5542 1.16061C3.5542 1.18578 3.7677 1.18578 3.81794 1.19837Z" fill="#232C6A"/>
<path d="M16.6281 1.08203L16.603 1.11979C16.603 1.11979 16.6281 1.09462 16.6281 1.08203Z" fill="#232C6A"/>
<path d="M23.0454 2.05165C23.0454 2.05165 23.0454 2.05165 23.0454 2.06423L23.1082 2.12716C23.1082 2.12716 23.0705 2.06423 23.058 2.03906L23.0454 2.05165Z" fill="#232C6A"/>
<path d="M22.9074 17.4588L22.8949 17.4336C22.8949 17.5343 22.8823 17.7986 22.8823 18.1258L22.9326 18.151V17.4588H22.9074Z" fill="#232C6A"/>
<path d="M23.9498 11.1518L23.8619 11.7685C23.8242 9.7926 23.9121 8.87388 23.8367 7.18746L23.8619 7.27556C23.887 7.02386 23.6735 6.88542 23.9246 4.16701C23.9246 4.07892 23.8995 4.07892 23.9246 3.89014L23.8744 4.35579C23.8493 4.07892 23.8116 3.82721 23.7991 3.44966C23.7991 3.37414 23.8242 3.33639 23.8367 3.33639C23.8367 3.02176 23.7991 2.60645 23.6735 2.25406C23.6484 2.14079 23.6358 2.02753 23.5981 1.91426C23.3972 1.6248 23.4348 1.78841 22.9074 1.05846C23.0832 1.36051 22.5557 0.78159 22.5934 0.907442C22.5557 0.869687 22.4929 0.794175 22.4301 0.743834C22.0031 0.404034 20.9984 0.215255 20.7598 0.303352C20.7598 0.303352 21.2747 0.328522 21.7771 0.592812C22.2794 0.844516 22.6813 1.31017 22.7943 1.5367C22.3548 1.04588 22.6688 1.41085 22.7316 1.5367H22.7818C23.0078 1.8765 22.9451 1.91426 23.0204 2.09045C23.0204 2.09045 23.0204 2.09045 23.0204 2.07787H23.0078C23.0078 2.07787 23.0078 2.04011 23.033 2.06528C23.033 2.06528 23.0581 2.06528 23.0958 2.16596H23.0832C23.1711 2.29182 23.2339 2.55611 23.259 2.68196H23.2213C23.4097 2.95883 23.1334 4.56974 23.146 4.9473C23.0832 5.32485 23.1586 5.7905 23.1334 6.26874C23.1209 7.02385 23.0706 6.6463 23.033 7.02385C23.0078 7.48951 23.0832 6.92317 23.0832 7.11195L23.0204 7.67829C23.0204 7.35107 22.9827 7.52726 22.9702 7.59019C22.9702 8.08101 22.8823 8.84871 22.9702 8.99973C22.9325 9.65416 22.8948 9.65416 22.8823 9.94362C22.8948 9.84294 22.9074 9.66675 22.9325 9.65416C22.8948 9.91845 22.9325 9.78002 22.9451 9.66675C22.9827 10.0695 22.7818 11.7559 22.8823 11.8314H22.8697C22.9451 11.9195 23.0204 11.7811 23.0581 12.0579L23.0204 12.2467L23.0581 12.5236C23.033 12.7124 23.0204 12.6243 23.0078 12.6243C23.0455 13.0899 23.0078 13.7192 22.9953 14.2855L23.1962 13.694C23.146 14.1597 23.0581 15.0155 23.1209 15.1036L23.0581 15.3804C22.9325 16.3243 23.1083 16.0349 23.0706 16.4124L22.9953 16.8907V16.425C22.9576 16.8907 22.9325 17.0794 22.8823 17.457V17.4192V17.4822C22.8823 17.4822 22.9451 17.7842 22.9451 18.1114C22.9451 18.5771 22.9827 18.9546 22.9074 19.6972L22.9827 19.8859L22.9325 20.4523H22.8697C22.8697 19.8985 22.8571 18.854 22.8446 18.1492H22.8195C22.8195 18.5393 22.832 19.0301 22.8446 19.3196C22.8446 19.458 22.7692 19.7978 22.7316 19.5461L22.7943 19.8104C22.7943 20.5026 22.8195 20.8928 22.7692 21.157C22.7064 21.4339 22.6311 21.7486 22.2292 22.1765L22.3171 22.1261C22.179 22.3149 22.0031 22.4785 21.9278 22.4785C21.6389 22.6924 21.2873 22.7931 20.9733 22.8057C20.6845 22.8057 20.2323 22.768 19.9686 22.7302L19.843 22.8057C19.6546 22.8057 19.3783 22.6924 19.2904 22.8057L18.8885 22.8309C18.6374 22.8309 18.4741 22.8686 18.1852 22.8309C18.1852 22.8309 18.1476 22.8309 18.135 22.8309C17.5573 22.8057 18.135 22.8938 17.4819 22.8561C17.2684 22.8057 17.2433 22.9441 16.9294 22.9316L16.6028 22.8309C16.0251 22.768 15.9246 22.8686 15.0832 22.8686C14.6813 22.8309 14.4804 22.7428 14.7567 22.6673C14.3925 22.7554 14.5934 22.7302 14.1036 22.768C14.0283 22.7302 14.0785 22.7176 14.1915 22.6924C13.752 22.6421 13.9278 22.7302 13.6013 22.7302C13.5008 22.8057 13.4003 22.919 13.2873 22.919L13.4129 22.9441C13.0612 22.9819 12.6845 22.9945 12.2826 22.9693V22.9316L11.8681 22.9441L11.843 22.8938H11.2276L11.3155 22.919C11.1774 22.919 10.7002 22.9441 10.4364 22.919V22.8938C9.68289 22.8183 9.05494 22.919 8.16327 22.9316L8.27629 22.8812C7.97488 22.8309 8.18838 22.9567 7.83673 22.9316V22.8686C7.49764 22.9567 7.40973 22.8561 7.18367 22.8183L7.28414 22.9064H6.8697C6.41758 22.8561 6.59341 22.7805 6.6562 22.7428L6.34223 22.8057L6.27943 22.7302C6.05337 22.8183 6.05337 22.7176 5.65149 22.768C5.61381 22.7428 5.71429 22.7176 5.5887 22.7176L4.93564 22.8183L5.32496 22.768L5.27472 22.8812C4.86028 22.9693 4.72213 22.8812 4.42072 22.8938L4.62166 22.8561C4.14443 22.8812 4.11931 22.8309 3.84301 22.8183C3.93093 22.8435 4.05651 22.8686 3.85557 22.8812C3.71743 22.8812 3.78022 22.8435 3.64207 22.8309C3.62951 22.8938 3.22763 22.9441 2.98901 22.8938C2.98901 22.8938 2.98901 22.8686 3.01413 22.8686C2.95133 22.8686 2.91366 22.8938 2.81319 22.8686L2.88854 22.7931C2.81319 22.8057 2.73783 22.8309 2.67504 22.8309C2.54945 22.7805 2.33595 22.7554 2.37363 22.7176H2.44898C2.12245 22.6043 1.83359 22.3778 1.62009 22.1009L1.65777 22.0506C1.50706 22.038 1.40659 21.5598 1.33124 21.6353C1.281 21.4465 1.1303 20.8802 1.26845 20.9809C1.26845 20.1628 1.15542 19.6342 1.21821 18.5771C1.31868 18.1995 1.29356 17.1424 1.30612 16.4502C1.25589 15.1036 1.23077 14.1597 1.19309 12.8508C1.3438 12.0202 1.14286 10.7742 1.23077 9.8807L1.16797 9.64158C1.25589 9.05007 1.14286 8.14394 1.24333 7.31331C1.21821 7.0742 1.20565 6.9861 1.20565 6.94834C1.20565 6.9861 1.19309 7.04903 1.15542 7.06161C1.18053 6.82249 1.15542 6.34425 1.21821 6.38201V6.44493C1.30612 6.48269 1.19309 5.72758 1.25589 5.46329L1.18053 5.61431V5.16124L1.20565 5.2871C1.15542 4.79627 1.14286 4.38096 1.14286 3.99082C1.14286 3.60068 1.14286 3.23571 1.19309 2.984C1.30612 2.44284 1.59498 1.95201 2.1978 1.49895C2.05965 1.67514 2.43642 1.32275 2.49921 1.42344C2.87598 1.41085 3.1146 1.27241 3.5416 1.24724C3.5416 1.24724 3.5416 1.24724 3.56672 1.23466H4.23234C3.83046 1.36051 4.70958 1.14656 4.34537 1.24724C6.07849 1.33534 8.32653 1.24724 10.3359 1.285L10.248 1.25983C10.7504 1.25983 11.3909 1.22207 11.7677 1.27241C12.157 1.32275 12.6091 1.1969 12.7598 1.18432C13.1868 1.13398 13.5636 1.23466 13.3878 1.23466C13.8399 1.22207 14.2669 1.10881 14.8948 1.15915C15.1083 1.25983 16.6028 1.05846 16.6279 1.17173C17.4317 1.24724 18.1852 1.10881 19.0518 1.17173C19.0518 1.17173 19.0267 1.17173 19.0016 1.18432L20.7598 0.831931L20.2575 0.441789L18.7378 0.127159L14.606 0.190085L11.303 0.0642329L3.30298 0.0390625C3.1146 0.0642329 2.8383 0.114574 2.6248 0.1775C1.64521 0.265596 0.615385 1.04588 0.251177 2.14079C0.0376766 2.68196 0.0627944 3.31122 0.0627944 3.71394C0.0627944 4.16701 0.0627943 4.60749 0.0251177 5.03539L0.100471 5.07315C0.100471 5.55139 0.0627943 5.52621 0.0502355 5.63948C0.0627943 10.1072 0.163265 14.7008 0.0753532 18.7155C0.0251177 19.1057 0.0502355 20.2761 0 20.5781C0 21.2703 0.251177 22.2268 0.803768 22.8183C1.3438 23.4601 2.13501 23.8629 2.93878 23.9258H2.87598C3.15228 23.951 3.35322 23.9258 3.55416 23.9258C3.57928 23.9258 3.57928 23.9384 3.55416 23.951C4.2449 23.888 5.33752 23.951 6.19152 23.9761H6.14129C11.0895 24.0013 15.686 23.8629 20.584 23.9636C21.1994 24.0391 22.0534 23.8503 22.6562 23.3972C23.2841 22.9441 23.7488 22.2268 23.8995 21.4339C23.9372 21.2326 23.9498 21.0312 23.9498 20.8298V20.339V19.3574C23.9498 18.7029 23.9498 18.0485 23.9874 17.3941C24.0628 16.9158 24 11.6049 23.9749 11.1392L23.9498 11.1518Z" fill="#232C6A"/>
<path d="M23.8491 3.33594V3.36111C23.8491 3.36111 23.8742 3.33594 23.8491 3.33594Z" fill="#232C6A"/>
<path d="M22.9952 14.2995V14.2617L22.9575 14.4002L22.9952 14.2995Z" fill="#232C6A"/>
<path d="M22.4678 0.718084C22.3046 0.604817 22.3548 0.667743 22.4427 0.743254C22.606 0.856521 22.719 0.944618 22.719 0.944618C22.6436 0.869107 22.5557 0.793595 22.4678 0.718084Z" fill="#232C6A"/>
<path d="M22.7441 1.53689L22.6938 1.51172C22.7692 1.58723 22.7692 1.57464 22.7441 1.53689Z" fill="#232C6A"/>
<path d="M8.65283 12.786H8.66539L8.65283 12.7734V12.786Z" fill="#232C6A"/>
<path d="M8.66553 12.7578V12.783C8.67809 12.8082 8.7032 12.8082 8.71576 12.7956C8.71576 12.7704 8.67809 12.7704 8.67809 12.7578H8.66553Z" fill="#232C6A"/>
<path d="M16.6028 12.8728C16.6028 12.8728 16.6028 12.8728 16.6028 12.8602C16.5902 12.8602 16.5525 12.8477 16.4897 12.8477V12.898L16.5902 12.8854L16.6028 12.8728Z" fill="#232C6A"/>
<path d="M16.379 13.4215L16.2889 13.3334C16.5591 13.2957 16.6942 13.3837 16.9306 13.3083V13.3334C16.9306 13.3334 16.9756 13.1447 17.3471 13.3963C17.3471 13.3963 17.3583 13.3963 17.3809 13.4089L17.3133 13.3586C17.3133 13.3586 17.3921 13.2957 17.4371 13.2831C17.4484 13.2831 17.4484 13.3083 17.4484 13.3208H17.5722L17.606 13.3586C17.6398 13.3208 17.6285 13.2076 17.7298 13.2705C17.6848 13.1825 17.7861 13.2202 17.7636 13.1699C17.7636 13.1699 17.7861 13.195 17.7861 13.2076C17.8537 13.2076 17.9662 13.1699 18 13.1321C18 13.1321 17.7523 12.956 17.6961 12.8554C17.7861 12.8806 17.7186 12.8554 17.6961 12.8177V12.8428C17.6398 12.8177 17.6398 12.7673 17.606 12.7548C17.606 12.7548 17.606 12.7548 17.606 12.7673C17.606 12.7673 17.606 12.7673 17.606 12.7799C17.606 12.7799 17.606 12.8051 17.5947 12.7925C17.5947 12.7925 17.5385 12.7925 17.5159 12.7925V12.7422C17.4822 12.8302 17.257 12.6164 17.2007 12.6038C17.1445 12.5409 17.0882 12.6164 17.0206 12.5912C16.9193 12.5787 16.9644 12.5283 16.9193 12.4906C16.8518 12.4654 16.9306 12.5409 16.9081 12.5409L16.8293 12.478C16.8293 12.478 16.8518 12.4403 16.8405 12.4277C16.773 12.4277 16.6604 12.3396 16.6492 12.4277C16.5591 12.39 16.5591 12.3522 16.5141 12.3396C16.5253 12.3522 16.5478 12.3648 16.5591 12.39C16.5253 12.3522 16.5366 12.39 16.5591 12.4025C16.5028 12.4403 16.2664 12.239 16.2552 12.3396C16.2552 12.3396 16.2552 12.4654 16.2214 12.5032L16.1989 12.4654L16.1651 12.5032C16.1651 12.5032 16.1538 12.4654 16.1538 12.4529C16.0863 12.4906 15.9962 12.4529 15.9287 12.4403L16.0075 12.6415C15.94 12.5912 15.8274 12.5032 15.8161 12.5661L15.7824 12.5032C15.6473 12.3774 15.6923 12.5535 15.636 12.5158L15.5685 12.4403H15.636C15.5685 12.4025 15.546 12.3774 15.4897 12.3271C15.4897 12.3271 15.4447 12.39 15.3996 12.39C15.3321 12.39 15.2871 12.4277 15.1745 12.3522L15.152 12.4277L15.0732 12.3774V12.3145C15.152 12.3145 15.2983 12.2893 15.3884 12.2893V12.2642C15.3321 12.2642 15.2645 12.2893 15.2308 12.2893C15.2083 12.2893 15.1632 12.2139 15.197 12.1761L15.1632 12.239C14.9719 12.239 14.9606 12.239 14.758 12.1761L14.7805 12.2013C14.7805 12.2013 14.7017 12.239 14.6904 12.1887C14.5666 12.1887 14.4428 12.1384 14.364 12.0629L14.3415 12.1384C14.3415 12.1384 14.2739 12.0252 14.2627 12.1384L14.2064 12.1635C14.2064 12.1635 14.1501 12.2013 14.1051 12.1635C14.0263 12.1384 14.1051 12.2264 14.015 12.1887C13.9812 12.1384 13.9812 12.2767 13.9362 12.2642L13.8912 12.1635C13.8124 12.1006 13.8011 12.2013 13.6773 12.2013C13.621 12.1635 13.5985 12.0755 13.6323 12C13.576 12.0881 13.6098 12.0629 13.5422 12.1006C13.5422 12.0629 13.5422 12.0503 13.5535 12.0252C13.4972 11.9748 13.5197 12.0629 13.4747 12.0629C13.4634 12.1384 13.4409 12.2516 13.4296 12.2516L13.4522 12.2767C13.4522 12.2767 13.3508 12.3271 13.2946 12.3019V12.2642L13.2383 12.2767V12.2264L13.1482 12.239H13.1595C13.1595 12.239 13.0694 12.2767 13.0356 12.239V12.2138C12.9343 12.1384 12.8443 12.239 12.7204 12.2516V12.2013C12.7204 12.2013 12.7204 12.2767 12.6754 12.2516V12.1887C12.6304 12.2767 12.6191 12.1761 12.5854 12.1384V12.2264L12.5403 12.2138C12.4728 12.1887 12.5066 12.1132 12.5066 12.0629L12.4615 12.1258V12.0503C12.4165 12.1384 12.4165 12.0377 12.3715 12.0881C12.3715 12.0629 12.3715 12.0377 12.3715 12.0377L12.2814 12.1384L12.3377 12.0881V12.2013C12.2702 12.2893 12.2589 12.2013 12.2139 12.2138L12.2477 12.1761C12.1801 12.2013 12.1801 12.151 12.1351 12.1384C12.1463 12.1635 12.1689 12.1887 12.1351 12.2013C12.1126 12.2013 12.1351 12.1635 12.1013 12.151C12.1013 12.2264 12.045 12.2642 12 12.2264V12.2013C12 12.2013 11.9887 12.2264 11.9662 12.2138V12.1384L11.9437 12.2138C11.9212 12.1887 11.8874 12.2516 11.8874 12.2013H11.8987L11.7073 12.1635V12.1006C11.6848 12.1887 11.606 12.0629 11.606 12.1761C11.5722 12.1132 11.4709 12.2139 11.4822 12.0881C11.3583 12.0881 11.2908 12.2013 11.1445 12.1384C11.0882 12.0377 10.9418 12.0629 10.8518 12.0503C10.6604 12.1006 10.5478 12.1384 10.3452 12.1635C10.2326 12.0126 10.0525 12.2139 9.92871 12.1258L9.89493 12.1887C9.81613 12.1006 9.68105 12.2138 9.56848 12.1132C9.53471 12.1384 9.52345 12.151 9.52345 12.151C9.52345 12.151 9.53471 12.1635 9.53471 12.2013C9.50094 12.1761 9.4334 12.2013 9.44465 12.1384C9.44465 12.0503 9.34334 12.1635 9.30957 12.1006L9.33208 12.1761H9.26454L9.2758 12.151C9.00563 12.3271 8.8818 12.0755 8.62289 12.239C8.65666 12.151 8.57786 12.2893 8.5666 12.1887C8.49906 12.0629 8.44278 12.2139 8.39775 12.2516C8.39775 12.2516 8.39775 12.2516 8.39775 12.2642H8.30769C8.36398 12.1384 8.24015 12.3522 8.29644 12.2516C8.06004 12.1635 7.74484 12.2516 7.46341 12.2138V12.239C7.40713 12.239 7.31707 12.2767 7.26079 12.2264C7.2045 12.1761 7.14822 12.3019 7.1257 12.3145C7.06942 12.3648 7.01313 12.2642 7.03565 12.2642C6.9681 12.2767 6.91182 12.39 6.82176 12.3396C6.78799 12.239 6.58537 12.4403 6.58537 12.3271C6.4728 12.2516 6.37148 12.39 6.24765 12.3271C6.24765 12.3271 6.24765 12.3271 6.24765 12.3145L6 12.6667L6.06754 13.0567L6.28143 13.3712L6.85553 13.3083L7.31707 13.4341L8.43152 13.3963L8.51032 13.3083C8.73546 13.4592 9.01689 13.2831 9.25328 13.3963V13.3208C9.32083 13.3208 9.32083 13.3586 9.33208 13.3712C9.95122 13.3586 10.5929 13.2579 11.1557 13.346C11.212 13.3963 11.3696 13.3712 11.4146 13.4215C11.5947 13.3334 11.7861 13.3334 11.9662 13.346H12.0563C12.0563 13.346 12.0563 13.3586 12.0563 13.3712C12.1576 13.3083 12.3039 13.3712 12.4278 13.3963C13.1144 13.4215 13.7561 13.2831 14.4428 13.3837C14.758 13.5095 15.1295 13.3334 15.5009 13.4341C15.5685 13.5095 16.3114 13.4466 16.3677 13.4215H16.379Z" fill="#232C6A"/>
<path d="M17.2439 8.42147L17.1463 8.33342C17.439 8.29568 17.5854 8.38373 17.8415 8.30826V8.33342C17.8415 8.33342 17.8902 8.14473 18.2927 8.39631C18.2927 8.39631 18.3049 8.39631 18.3293 8.40889L18.2561 8.35858C18.2561 8.35858 18.3415 8.29568 18.3902 8.2831C18.4024 8.2831 18.4024 8.30826 18.4024 8.32084H18.5366L18.5732 8.35858C18.6098 8.32084 18.5976 8.20762 18.7073 8.27052C18.6585 8.18246 18.7683 8.2202 18.7439 8.16988C18.7439 8.16988 18.7683 8.19504 18.7683 8.20762C18.8415 8.20762 18.9634 8.16988 19 8.13215C19 8.13215 18.7317 7.95603 18.6707 7.8554C18.7683 7.88056 18.6951 7.8554 18.6707 7.81766V7.84282C18.6098 7.81766 18.6098 7.76734 18.5732 7.75476C18.5732 7.75476 18.5732 7.75476 18.5732 7.76734C18.5732 7.76734 18.5732 7.76734 18.5732 7.77992C18.5732 7.77992 18.5732 7.80508 18.561 7.7925C18.561 7.7925 18.5 7.7925 18.4756 7.7925V7.74218C18.439 7.83024 18.1951 7.61639 18.1341 7.60381C18.0732 7.54091 18.0122 7.61639 17.939 7.59123C17.8293 7.57865 17.878 7.52833 17.8293 7.4906C17.7561 7.46544 17.8415 7.54091 17.8171 7.54091L17.7317 7.47802C17.7317 7.47802 17.7561 7.44028 17.7439 7.4277C17.6707 7.4277 17.5488 7.33964 17.5366 7.4277C17.439 7.38996 17.439 7.35222 17.3902 7.33964C17.4024 7.35222 17.4268 7.3648 17.439 7.38996C17.4024 7.35222 17.4146 7.38996 17.439 7.40254C17.378 7.44028 17.122 7.23901 17.1098 7.33964C17.1098 7.33964 17.1098 7.46544 17.0732 7.50318L17.0488 7.46544L17.0122 7.50318C17.0122 7.50318 17 7.46544 17 7.45286C16.9268 7.4906 16.8293 7.45286 16.7561 7.44028L16.8415 7.64155C16.7683 7.59123 16.6463 7.50318 16.6341 7.56607L16.5976 7.50318C16.4512 7.37738 16.5 7.55349 16.439 7.51576L16.3659 7.44028H16.439C16.3659 7.40254 16.3415 7.37738 16.2805 7.32706C16.2805 7.32706 16.2317 7.38996 16.1829 7.38996C16.1098 7.38996 16.061 7.4277 15.939 7.35222L15.9146 7.4277L15.8293 7.37738V7.31448C15.9146 7.31448 16.0732 7.28933 16.1707 7.28933V7.26417C16.1098 7.26417 16.0366 7.28933 16 7.28933C15.9756 7.28933 15.9268 7.21385 15.9634 7.17611L15.9268 7.23901C15.7195 7.23901 15.7073 7.23901 15.4878 7.17611L15.5122 7.20127C15.5122 7.20127 15.4268 7.23901 15.4146 7.18869C15.2805 7.18869 15.1463 7.13837 15.061 7.0629L15.0366 7.13837C15.0366 7.13837 14.9634 7.02516 14.9512 7.13837L14.8902 7.16353C14.8902 7.16353 14.8293 7.20127 14.7805 7.16353C14.6951 7.13837 14.7805 7.22643 14.6829 7.18869C14.6463 7.13837 14.6463 7.27675 14.5976 7.26417L14.5488 7.16353C14.4634 7.10064 14.4512 7.20127 14.3171 7.20127C14.2561 7.16353 14.2317 7.07548 14.2683 7C14.2073 7.08806 14.2439 7.0629 14.1707 7.10064C14.1707 7.0629 14.1707 7.05032 14.1829 7.02516C14.122 6.97484 14.1463 7.0629 14.0976 7.0629C14.0854 7.13837 14.061 7.25159 14.0488 7.25159L14.0732 7.27675C14.0732 7.27675 13.9634 7.32707 13.9024 7.30191V7.26417L13.8415 7.27675V7.22643L13.7439 7.23901H13.7561C13.7561 7.23901 13.6585 7.27675 13.622 7.23901V7.21385C13.5122 7.13837 13.4146 7.23901 13.2805 7.25159V7.20127C13.2805 7.20127 13.2805 7.27675 13.2317 7.25159V7.18869C13.1829 7.27675 13.1707 7.17611 13.1341 7.13837V7.22643L13.0854 7.21385C13.0122 7.18869 13.0488 7.11321 13.0488 7.0629L13 7.12579V7.05032C12.9512 7.13837 12.9512 7.03774 12.9024 7.08806C12.9024 7.0629 12.9024 7.03774 12.9024 7.03774L12.8049 7.13837L12.8659 7.08806V7.20127C12.7927 7.28933 12.7805 7.20127 12.7317 7.21385L12.7683 7.17611C12.6951 7.20127 12.6951 7.15095 12.6463 7.13837C12.6585 7.16353 12.6829 7.18869 12.6463 7.20127C12.622 7.20127 12.6463 7.16353 12.6098 7.15095C12.6098 7.22643 12.5488 7.26417 12.5 7.22643V7.20127C12.5 7.20127 12.4878 7.22643 12.4634 7.21385V7.13837L12.439 7.21385C12.4146 7.18869 12.378 7.25159 12.378 7.20127H12.3902L12.1829 7.16353V7.10064C12.1585 7.18869 12.0732 7.0629 12.0732 7.17611C12.0366 7.11321 11.9268 7.21385 11.939 7.08806C11.8049 7.08806 11.7317 7.20127 11.5732 7.13837C11.5122 7.03774 11.3537 7.0629 11.2561 7.05032C11.0488 7.10064 10.9268 7.13837 10.7073 7.16353C10.5854 7.01258 10.3902 7.21385 10.2561 7.12579L10.2195 7.18869C10.1341 7.10064 9.9878 7.21385 9.86585 7.11321C9.82927 7.13837 9.81707 7.15095 9.81707 7.15095C9.81707 7.15095 9.82927 7.16353 9.82927 7.20127C9.79268 7.17611 9.71951 7.20127 9.73171 7.13837C9.73171 7.05032 9.62195 7.16353 9.58537 7.10064L9.60976 7.17611H9.53659L9.54878 7.15095C9.2561 7.32707 9.12195 7.07548 8.84146 7.23901C8.87805 7.15095 8.79268 7.28933 8.78049 7.18869C8.70732 7.0629 8.64634 7.21385 8.59756 7.25159C8.59756 7.25159 8.59756 7.25159 8.59756 7.26417H8.5C8.56098 7.13837 8.42683 7.35222 8.4878 7.25159C8.23171 7.16353 7.89024 7.25159 7.58537 7.21385V7.23901C7.52439 7.23901 7.42683 7.27675 7.36585 7.22643C7.30488 7.17611 7.2439 7.30191 7.21951 7.31448C7.15854 7.3648 7.09756 7.26417 7.12195 7.26417C7.04878 7.27675 6.9878 7.38996 6.89024 7.33964C6.85366 7.23901 6.63415 7.44028 6.63415 7.32706C6.5122 7.25159 6.40244 7.38996 6.26829 7.32706C6.26829 7.32706 6.26829 7.32706 6.26829 7.31448L6 7.66671L6.07317 8.05667L6.30488 8.37115L6.92683 8.30826L7.42683 8.43405L8.63415 8.39631L8.71951 8.30826C8.96341 8.45921 9.26829 8.2831 9.52439 8.39631V8.32084C9.59756 8.32084 9.59756 8.35857 9.60976 8.37115C10.2805 8.35857 10.9756 8.25794 11.5854 8.346C11.6463 8.39631 11.8171 8.37115 11.8659 8.42147C12.061 8.33342 12.2683 8.33342 12.4634 8.346H12.561C12.561 8.346 12.561 8.35857 12.561 8.37115C12.6707 8.30826 12.8293 8.37115 12.9634 8.39631C13.7073 8.42147 14.4024 8.2831 15.1463 8.38373C15.4878 8.50953 15.8902 8.33342 16.2927 8.43405C16.3659 8.50953 17.1707 8.44663 17.2317 8.42147H17.2439Z" fill="#232C6A"/>
<path d="M17.0926 12.9596L17.0801 12.9219L17.0926 12.9596Z" fill="#232C6A"/>
<path d="M19.1899 13.7682C19.1899 13.7682 19.2024 13.7556 19.1899 13.7305C19.1648 13.7305 19.1396 13.7305 19.1396 13.7305C19.1522 13.7305 19.1648 13.7556 19.1773 13.7682H19.1899Z" fill="#232C6A"/>
<path d="M8.13818 16.5634H8.15074L8.13818 16.5508V16.5634Z" fill="#232C6A"/>
<path d="M8.15039 16.5391V16.5642C8.16295 16.5894 8.17551 16.5894 8.18807 16.5768C8.18807 16.5516 8.16295 16.5516 8.15039 16.5391Z" fill="#232C6A"/>
<path d="M14.5181 16.6502C14.5181 16.6502 14.5181 16.6502 14.5181 16.6376C14.5181 16.6376 14.4679 16.625 14.4302 16.625V16.6753L14.5181 16.6628V16.6502Z" fill="#232C6A"/>
<path d="M13.7488 17.4215L13.6857 17.3334C13.896 17.2957 13.9907 17.3837 14.1694 17.3083V17.3334C14.1694 17.3334 14.2009 17.1447 14.4848 17.3963C14.4848 17.3963 14.4848 17.3963 14.5164 17.4089L14.4638 17.3586C14.4638 17.3586 14.5164 17.2957 14.5584 17.2831C14.5584 17.2831 14.5689 17.3083 14.5689 17.3208H14.6636L14.6951 17.3586C14.7266 17.3208 14.7161 17.2076 14.7897 17.2705C14.7582 17.1825 14.8318 17.2202 14.8213 17.1699C14.8213 17.1699 14.8318 17.195 14.8423 17.2076C14.8843 17.2076 14.979 17.1699 15 17.1321C15 17.1321 14.8213 16.956 14.7687 16.8554C14.8318 16.8806 14.7897 16.8554 14.7687 16.8177V16.8428C14.7687 16.8428 14.7266 16.7673 14.7056 16.7548C14.7056 16.7548 14.7056 16.7548 14.7056 16.7673C14.7056 16.7673 14.7056 16.7673 14.7056 16.7799C14.7056 16.7799 14.7056 16.8051 14.6951 16.7925C14.6951 16.7925 14.653 16.7925 14.6425 16.7925V16.7422C14.611 16.8302 14.4428 16.6164 14.4112 16.6038C14.3692 16.5409 14.3271 16.6164 14.2745 16.5912C14.2009 16.5787 14.2325 16.5283 14.2009 16.4906C14.1484 16.4654 14.2009 16.5409 14.2009 16.5409L14.1379 16.478C14.1379 16.478 14.1484 16.4403 14.1379 16.4277C14.0853 16.4277 14.0117 16.3396 13.9907 16.4277C13.9171 16.39 13.9171 16.3522 13.896 16.3396C13.896 16.3522 13.9276 16.3648 13.9276 16.39C13.896 16.3522 13.9171 16.39 13.9276 16.4025C13.8855 16.4403 13.7068 16.239 13.6963 16.3396C13.6963 16.3396 13.6963 16.4654 13.6752 16.5032L13.6542 16.4654L13.6227 16.5032C13.6227 16.5032 13.6227 16.4654 13.6227 16.4529C13.5701 16.4906 13.507 16.4529 13.4544 16.4403L13.5175 16.6415C13.5175 16.6415 13.3808 16.5032 13.3703 16.5661L13.3388 16.5032C13.2442 16.3774 13.2652 16.5535 13.2336 16.5158L13.1811 16.4403H13.2336C13.2336 16.4403 13.16 16.3774 13.1285 16.3271C13.1285 16.3271 13.097 16.39 13.0654 16.39C13.0129 16.39 12.9813 16.4277 12.8972 16.3522L12.8762 16.4277L12.8131 16.3774V16.3145C12.8657 16.3145 12.9813 16.2893 13.0549 16.2893V16.2642C13.0549 16.2642 12.9603 16.2893 12.9287 16.2893C12.9182 16.2893 12.8762 16.2139 12.9077 16.1761L12.8762 16.239C12.729 16.239 12.729 16.239 12.5713 16.1761V16.2013C12.5713 16.2013 12.5292 16.239 12.5187 16.1887C12.4241 16.1887 12.3294 16.1384 12.2664 16.0629V16.1384C12.2664 16.1384 12.2033 16.0252 12.1928 16.1384L12.1507 16.1635C12.1507 16.1635 12.1086 16.2013 12.0771 16.1635C12.014 16.1384 12.0771 16.2264 12.014 16.1887C11.993 16.1384 11.993 16.2767 11.9614 16.2642L11.9299 16.1635C11.8668 16.1006 11.8563 16.2013 11.7722 16.2013C11.7301 16.1635 11.7091 16.0755 11.7407 16C11.6986 16.0881 11.7196 16.0629 11.6671 16.1006C11.6671 16.0629 11.6671 16.0503 11.6671 16.0252C11.625 15.9748 11.6355 16.0629 11.604 16.0629C11.604 16.1384 11.5829 16.2516 11.5724 16.2516V16.2767C11.5724 16.2767 11.5093 16.3271 11.4673 16.3019V16.2642L11.4252 16.2767V16.2264L11.3622 16.239C11.3622 16.239 11.2991 16.2767 11.2675 16.239V16.2138C11.1939 16.1384 11.1203 16.239 11.0257 16.2516V16.2013C11.0257 16.2013 11.0257 16.2767 10.9942 16.2516V16.1887C10.9626 16.2767 10.9521 16.1761 10.9311 16.1384V16.2264L10.8995 16.2138C10.847 16.1887 10.868 16.1132 10.8785 16.0629L10.847 16.1258V16.0503C10.8154 16.1384 10.8154 16.0377 10.7734 16.0881C10.7734 16.0629 10.7734 16.0377 10.7734 16.0377L10.6998 16.1384L10.7418 16.0881V16.2013C10.6893 16.2893 10.6787 16.2013 10.6472 16.2138L10.6682 16.1761C10.6682 16.1761 10.6157 16.151 10.5841 16.1384C10.5841 16.1635 10.6051 16.1887 10.5841 16.2013C10.5736 16.2013 10.5841 16.1635 10.5631 16.151C10.5631 16.2264 10.521 16.2642 10.4895 16.2264V16.2013C10.4895 16.2013 10.479 16.2264 10.4579 16.2138V16.1384L10.4369 16.2138C10.4159 16.1887 10.3949 16.2516 10.3949 16.2013H10.4054L10.2687 16.1635V16.1006C10.2582 16.1887 10.1951 16.0629 10.1951 16.1761C10.1636 16.1132 10.09 16.2139 10.111 16.0881C10.0164 16.0881 9.96378 16.2013 9.85864 16.1384C9.81659 16.0377 9.71145 16.0629 9.63785 16.0503C9.50117 16.1006 9.40654 16.1384 9.25935 16.1635C9.17523 16.0126 9.03855 16.2139 8.95444 16.1258L8.93341 16.1887C8.87033 16.1006 8.7757 16.2138 8.69159 16.1132C8.67056 16.1384 8.66005 16.151 8.64953 16.151C8.64953 16.151 8.64953 16.1635 8.66005 16.2013C8.63902 16.1761 8.58645 16.2013 8.58645 16.1384C8.58645 16.0503 8.51285 16.1635 8.48131 16.1006V16.1761L8.44977 16.1635H8.46028C8.26051 16.3271 8.16589 16.0755 7.97664 16.239C7.99766 16.151 7.93458 16.2893 7.93458 16.1887C7.88201 16.0629 7.83995 16.2139 7.80841 16.2516C7.80841 16.2516 7.80841 16.2516 7.80841 16.2642H7.73481C7.77687 16.1384 7.68224 16.3522 7.7243 16.2516C7.54556 16.1635 7.30374 16.2516 7.09346 16.2138V16.239C7.09346 16.239 6.98832 16.2767 6.94626 16.2264C6.90421 16.1761 6.86215 16.3019 6.84112 16.3145C6.79907 16.3648 6.75701 16.2642 6.77804 16.2642C6.73598 16.2767 6.68341 16.39 6.62033 16.3396C6.5993 16.239 6.44159 16.4403 6.44159 16.3271C6.35748 16.2516 6.27336 16.39 6.18925 16.3271C6.18925 16.3271 6.18925 16.3271 6.18925 16.3145L6 16.6667L6.05257 17.0567L6.21028 17.3712L6.64135 17.3083L6.98832 17.4341L7.82944 17.3963L7.89252 17.3083C8.06075 17.4592 8.27103 17.2831 8.44977 17.3963V17.3208C8.50234 17.3208 8.50234 17.3586 8.51285 17.3712C8.97547 17.3586 9.45911 17.2579 9.87967 17.346C9.92173 17.3963 10.0479 17.3712 10.0794 17.4215C10.2161 17.3334 10.3633 17.3334 10.5 17.346H10.5631C10.5631 17.346 10.5631 17.3586 10.5631 17.3712C10.6367 17.3083 10.7523 17.3712 10.8364 17.3963C11.3516 17.4215 11.8353 17.2831 12.3505 17.3837C12.5923 17.5095 12.8657 17.3334 13.139 17.4341C13.1916 17.5095 13.7383 17.4466 13.7909 17.4215H13.7488Z" fill="#232C6A"/>
<path d="M14.9198 16.737L14.9072 16.6992L14.9198 16.737Z" fill="#232C6A"/>
<path d="M16.6026 17.5456C16.6026 17.5456 16.6152 17.533 16.6026 17.5078C16.5775 17.5078 16.5649 17.5078 16.5649 17.5078C16.5649 17.5078 16.5901 17.533 16.6026 17.5456Z" fill="#232C6A"/>
<path d="M7.25879 7.70095C7.25879 7.70095 7.28391 7.68837 7.28391 7.67578L7.25879 7.70095Z" fill="#232C6A"/>
<path d="M8.26354 6.06597L8.27609 6.0408C8.27609 6.01562 8.27609 6.01562 8.25098 6.01562C8.25098 6.0408 8.25098 6.0408 8.25098 6.05338L8.26354 6.06597Z" fill="#232C6A"/>
<path d="M9.49449 7.39844H9.48193L9.49449 7.41102V7.39844Z" fill="#232C6A"/>
<path d="M8.20049 8.21653C8.20049 8.21653 8.16281 8.20395 8.1377 8.21653V8.26687L8.20049 8.22912V8.21653Z" fill="#232C6A"/>
<path d="M8.50217 8.20486L8.47705 8.17969L8.50217 8.20486Z" fill="#232C6A"/>
<path d="M8.95403 7.76562C8.95403 7.76562 8.92892 7.7908 8.95403 7.7908C8.95403 7.7908 8.95403 7.77821 8.95403 7.76562Z" fill="#232C6A"/>
<path d="M9.97127 7.29856C9.97127 7.29856 9.95871 7.28598 9.93359 7.29856C9.93359 7.32373 9.93359 7.33632 9.93359 7.33632C9.93359 7.33632 9.95871 7.31115 9.97127 7.29856Z" fill="#232C6A"/>
</g>
<defs>
<clipPath id="clip0_993_2562">
<rect width="24" height="24" fill="white"/>
</clipPath>
</defs>
</svg>
