<svg width="276" height="256" viewBox="0 0 276 256" fill="none" xmlns="http://www.w3.org/2000/svg">
<path d="M3.40851 39.0564C3.4409 38.7924 3.75309 38.8337 3.46163 38.8567L3.19833 38.8427C2.21821 38.9109 3.36026 39.0528 2.74304 38.1226C2.58111 37.8788 2.95848 37.6881 2.78513 37.4513C2.27554 36.7569 2.13648 35.9432 2.14505 35.0893C2.14695 34.9227 2.16505 34.7551 2.18601 34.5896C2.26125 33.9845 2.19267 33.4537 1.57165 33.1828C1.48783 33.1456 1.42401 33.0593 1.34781 32.9991C0.353401 32.2124 0.119086 31.198 0.510563 29.9788C0.712492 29.3497 0.873464 28.7075 1.06301 28.0743C1.18207 27.679 1.16493 27.3047 1.06587 26.8983C0.75345 25.6059 0.412455 24.3195 0.200048 23.001C0.151471 22.698 0.133373 22.413 0.182903 22.111C0.319111 21.2882 0.438173 20.4624 0.565808 19.6386C0.638197 19.172 0.626767 18.7335 0.4677 18.2659C0.212431 17.5153 0.286726 16.7337 0.66582 16.0433C1.13445 15.1884 1.22875 14.3184 1.08111 13.3501C0.924899 12.3236 0.690585 11.3292 0.386738 10.3429C0.212431 9.77592 0.118133 3.89953 0.0181212 3.30952C-0.0514112 2.89812 0.0771761 2.66332 0.438173 2.52484C0.822982 2.37734 1.21541 2.22482 1.61737 2.16261C2.65178 2.00206 3.69286 1.89369 4.73013 1.75622C6.3027 1.54751 7.8829 1.38696 9.44309 1.104C10.9966 0.822037 12.4015 2.39484 13.5693 1.24692C13.7503 1.06931 13.9274 0.979007 14.1599 1.01011C16.1201 1.27502 18.0889 1.4945 20.053 1.52862C20.2111 1.53163 20.3711 1.53765 20.5283 1.52561C21.1274 1.48146 21.716 1.48447 22.3218 1.55471C23.1676 1.65204 24.0315 1.58782 24.8878 1.56073C26.0918 1.5216 27.2986 1.49049 28.4978 1.38112C29.2836 1.30987 30.058 1.10819 30.8371 0.962691C31.1172 0.910513 31.3934 0.838267 31.6744 0.797126C32.0602 0.740935 32.3992 0.558311 32.7383 0.379702C33.0669 0.20611 33.2727 0.671175 33.3756 0.299909C33.4822 -0.0844021 33.5784 1.4134 33.7032 1.03612C33.9442 0.305624 34.3233 0.0959085 35.0596 0.0808572C35.672 0.0678127 36.0854 0.33974 36.415 0.82941C36.8569 1.48565 37.376 0.184515 37.9037 0.762486C38.139 1.02037 38.3724 1.13375 38.7248 1.14178C39.7468 1.16385 40.7498 0.993273 41.7556 0.868849C43.3282 0.674185 44.8903 2.26932 46.4648 2.0877C47.5306 1.96428 48.5908 1.66526 49.6785 1.8539C49.9595 1.90207 50.1719 1.76059 50.3443 1.55087C50.4891 1.37427 50.6234 1.18663 50.7425 0.989958C51.1158 0.375863 51.674 0.100926 52.335 0.0346998C52.9056 -0.0224953 53.4828 -0.0154713 54.0419 0.104939C55.2506 0.362819 56.4517 0.661839 57.6576 0.93778C57.8729 0.986948 58.0967 1.04214 58.3139 1.0311C59.7483 0.962865 61.159 1.24583 62.583 1.32209C62.9306 1.34116 63.2783 1.39333 63.625 1.38932C64.287 1.38129 64.7775 1.69436 65.1556 2.23721C65.2871 2.42585 65.4062 1.49245 65.5167 1.69515C65.9215 2.43968 66.4949 0.961321 67.1969 1.38778C67.9369 1.83631 68.6332 1.47898 69.4848 1.67666C69.9543 1.78603 70.2734 2.07602 70.543 2.46033C70.6535 2.61686 70.7497 1.65236 70.8925 1.87712C71.7136 0.955981 72.7775 1.0597 73.831 0.640269C74.793 0.256962 75.6512 1.97225 76.4609 1.32103C77.0152 0.874504 77.5867 1.36227 78.242 1.08533C78.4859 0.981974 78.7278 0.899693 78.9802 0.978964C79.827 1.24587 80.6795 1.06425 81.531 1.03917C81.5624 1.03917 81.5939 1.03215 81.6253 1.02412C82.9083 0.699009 84.2066 0.785303 85.5039 0.872601C85.8515 0.895679 86.2049 0.90471 86.5459 0.973947C88.3242 1.33919 90.1121 1.57901 91.9294 1.47566C92.218 1.4596 92.5419 1.40943 92.7533 1.61513C93.141 1.99142 93.4496 1.91516 93.8382 1.61614C94.2459 1.30307 94.7098 1.07329 95.1451 0.800354C95.8918 0.330753 96.7205 0.866057 97.5596 0.687448C98.1445 0.563023 98.7045 0.774745 99.2351 0.956365C99.7285 1.12594 100.141 1.12895 100.599 0.893149C100.879 0.748656 101.201 0.696478 101.503 0.60015C101.792 0.507835 102.055 0.519876 102.311 0.722568C102.635 0.980447 103.046 0.877095 103.412 0.979444C104.118 1.17812 104.838 1.30255 105.576 1.24535C105.702 1.23532 105.834 1.23732 105.955 1.27044C107.233 1.61361 108.542 1.436 109.834 1.53634C110.83 1.61361 111.786 1.42496 112.744 1.21123C113.518 1.03865 114.288 1.60606 115.054 1.39835C115.484 1.28195 115.868 1.3241 116.225 1.60104C116.352 1.69938 116.482 1.79671 116.608 1.89805C116.869 2.10978 117.143 2.13687 117.38 1.88802C117.718 1.53281 118.067 0.480001 118.422 0.683696C118.699 0.842236 118.98 1.00379 119.227 1.20648C119.83 1.70117 120.512 1.91891 121.263 1.90787C121.644 1.90185 122.015 1.92794 122.393 2.01122C123.31 2.2109 124.229 2.0925 125.117 1.8286C125.627 1.67708 125.938 2.35562 126.186 1.87397C126.337 1.58097 126.475 1.28095 126.642 0.998989C126.764 0.79429 126.982 0.746126 127.118 0.932763C127.394 1.31607 127.757 1.3261 128.141 1.29098C128.71 1.23881 129.276 1.16054 129.845 1.11338C130.54 1.05618 131.262 1.12241 131.926 0.9438C132.602 0.762181 133.281 0.623709 133.964 0.498281C134.434 0.411987 134.919 0.384894 135.383 0.505305C135.852 0.626719 136.325 0.678897 136.798 0.660835C137.626 0.628726 138.435 0.885602 139.264 0.797301C140.407 1.17559 141.594 0.963869 142.757 1.08127C143.924 1.19867 145.093 1.30503 146.261 1.41742C146.45 1.43548 146.645 1.43648 146.828 1.48264C149.291 2.10175 151.778 0.359372 154.21 1.10592C155.029 1.35677 155.822 1.69794 156.625 2.00097C156.959 2.1274 157.118 2.39833 157.166 2.75655C157.228 3.21913 157.288 3.68271 157.355 4.14528C157.388 4.37607 157.527 4.50351 157.747 4.47742C158.153 4.43026 158.56 4.42925 158.945 4.21051C159.529 3.87737 160.142 1.7143 160.743 1.41327C161.89 0.83831 163.071 2.62785 164.318 2.3489C165.247 2.14119 166.14 1.77695 167.092 1.67058C167.627 1.61038 168.165 1.56723 168.696 1.48294C170.638 1.1759 172.582 0.884904 174.546 0.786568C175.719 0.727367 176.886 0.69024 178.034 1.06351C178.387 1.1779 178.787 1.15181 179.165 1.15382C180.56 1.15884 181.957 1.12573 183.352 1.15081C184.397 1.16988 185.44 1.25717 186.484 1.31336C186.737 1.32641 186.991 1.33544 187.244 1.34648C188.093 1.3836 188.779 2.91352 189.351 2.27133C189.611 1.97933 189.925 1.72848 190.135 1.40136C190.581 0.707996 191.322 0.86754 191.902 1.25486C192.302 1.52278 192.691 1.81477 193.048 2.14289C193.364 2.43388 193.708 2.50011 194.102 2.48205C194.99 2.44291 195.877 1.28976 196.765 1.25765C197.629 1.22554 198.464 1.34495 199.292 1.63193C200.192 1.94399 201.125 2.15672 201.957 2.66144C202.171 2.79088 202.373 2.78888 202.587 2.66847C202.867 2.51193 203.14 2.33232 203.436 2.22194C203.793 2.08949 204.165 1.9751 204.538 1.92894C205.798 1.77341 207.06 1.651 208.322 1.51553C208.449 1.50249 208.578 1.5045 208.7 1.47239C210.28 1.05597 211.896 2.12483 213.511 2.05258C214.02 2.03051 214.523 2.00642 215.002 1.78667C215.472 1.57094 215.934 1.71142 216.394 1.86193C216.892 2.02449 216.894 2.01847 217.17 1.62211C217.774 0.75315 218.379 0.588589 219.308 1.04113C219.394 1.08328 219.492 1.11238 219.56 1.17659C220.246 1.81276 221.093 1.94321 221.952 2.01546C223.086 2.11078 224.216 2.27233 225.364 2.10476C226.02 2.00843 226.695 2.02649 227.359 2.03954C228.482 2.06061 229.56 1.76059 230.655 1.58398C231.813 1.39735 232.971 1.19767 234.134 1.0602C235.551 0.892626 236.974 0.78526 238.394 0.650801C238.552 0.63575 238.708 0.594609 238.867 0.593606C239.29 0.590596 239.662 0.695955 239.981 1.04314C240.419 1.51976 240.851 2.01345 241.404 2.39274C241.818 2.14991 242.229 1.90608 242.642 1.66827C243.356 1.25687 244.105 1.08528 244.928 1.18663C245.84 1.29901 246.759 1.33815 247.674 1.40638C249.288 1.52679 250.9 1.65322 252.514 1.75958C253.114 1.79872 253.718 1.77865 254.32 1.79872C254.7 1.81176 255.079 1.84387 255.458 1.87598C255.584 1.88702 255.725 1.97833 255.83 1.9412C256.575 1.6773 257.262 2.04455 257.969 2.15292C258.831 2.28437 259.664 2.32351 260.479 1.90006C260.907 1.67831 261.385 1.60104 261.868 1.61609C262.085 1.62312 262.193 1.50672 262.29 1.29901C262.461 0.930756 262.507 0.918715 262.76 1.13345C263.001 1.33714 263.245 1.4114 263.545 1.40236C264.02 1.38832 264.496 1.40437 264.973 1.4134C265.226 1.41842 265.485 1.40638 265.732 1.45555C266.757 1.66024 266.762 1.76159 266.845 2.62654C266.89 3.09112 266.958 0.914526 267.002 1.37911C267.032 1.67813 267.17 1.87681 267.437 1.97213C267.826 2.11161 268.21 2.29724 268.612 2.36547C269.158 2.45679 269.642 2.67252 270.112 2.95448C271.066 3.52643 272.089 2.32337 273.191 2.3294C273.476 2.3314 273.763 2.34946 274.043 2.40164C274.298 2.44981 274.53 2.45783 274.788 2.3886C275.195 2.27922 275.498 2.46887 275.592 2.85318C275.978 4.42253 276.108 10.1723 275.904 11.7717C275.814 12.4811 275.46 13.1534 275.231 13.8438C274.856 14.9757 274.481 16.1095 274.113 17.2444C274.018 17.5374 274.058 17.8414 274.1 18.1384C274.215 18.9342 274.189 19.7389 274.25 20.5376C274.388 22.3659 274.341 24.2122 274.685 26.0213C274.834 26.805 275.013 27.5817 275.17 28.3633C275.418 29.6025 275.688 30.8378 275.889 32.086C275.984 32.673 275.962 33.2851 275.954 33.8852C275.948 34.2634 275.699 34.5625 275.522 34.8735C275.263 35.3311 274.963 35.7636 274.685 36.2101C274.506 36.4981 274.387 36.776 274.6 37.1312C274.711 37.3138 274.737 37.5808 274.732 37.8075C274.719 38.4076 274.705 39.0116 274.625 39.6047C274.407 41.2232 274.15 42.8357 274.062 44.4713C274.052 44.6679 273.985 44.8616 273.944 45.0563C273.834 45.581 273.763 46.1108 273.877 46.6437C273.978 47.1163 273.916 47.5718 273.797 48.0274C273.495 49.1883 273.578 50.3493 273.878 51.4872C274.063 52.1956 274.158 52.9181 274.299 53.6325C274.425 54.2667 274.276 54.8938 274.167 55.5129C274.127 55.7407 274.058 55.9614 274.054 56.1972C274.018 58.2372 274.045 60.2742 274.313 62.2991C274.326 62.3984 274.361 62.4967 274.359 62.5951C274.338 63.6025 274.526 64.5869 274.669 65.5742C274.781 66.3479 274.73 67.0974 274.497 67.838C274.467 67.9323 274.444 68.0326 274.438 68.131C274.372 69.1033 274.19 70.0435 273.803 70.9385C273.641 71.3138 273.658 71.7302 273.747 72.1236C274.053 73.4932 274.139 74.898 274.354 76.2817C274.389 76.5125 274.39 76.7473 274.502 76.9591C274.566 77.0805 274.594 77.2129 274.528 77.3394C274.316 77.7467 274.386 78.1852 274.393 78.6157C274.416 80.2874 274.319 81.9471 274.144 83.6128C273.997 85.0125 273.755 86.3862 273.464 87.7509C273.229 88.8546 272.783 89.8942 272.32 90.9167C271.912 91.8177 271.512 92.7248 271.09 93.6189C270.939 93.937 270.926 94.254 270.956 94.5912C271.053 95.6548 271.143 96.7195 271.241 97.7831C271.296 98.3781 271.336 98.9591 271.779 99.4437C272.067 99.7588 271.979 100.286 271.696 100.643C270.633 101.982 269.773 103.441 269.286 105.124C269.259 105.219 269.241 105.334 269.18 105.399C268.747 105.861 268.878 106.405 269.025 106.905C269.585 108.809 269.989 110.786 271.239 112.382C271.344 112.516 271.398 112.667 271.407 112.839C271.424 113.206 271.453 113.572 271.46 113.939C271.489 115.643 271.513 117.347 271.534 119.051C271.538 119.351 271.565 119.664 271.496 119.948C271.319 120.675 271.361 121.398 271.403 122.135C271.451 122.997 271.56 123.871 271.306 124.724C271.255 124.893 271.287 125.049 271.345 125.21C271.553 125.791 271.388 126.331 271.152 126.851C270.85 127.52 270.415 128.099 269.963 128.657C269.531 129.189 270.341 129.708 269.863 130.195C268.686 131.394 269.786 132.845 269.438 134.516C269.397 134.711 269.355 134.91 269.346 135.107C269.259 137.344 268.941 139.565 268.942 141.807C268.942 142.173 268.905 142.544 268.841 142.903C268.759 143.366 268.718 143.826 268.712 144.296C268.703 145.035 268.619 145.756 268.221 146.402C268.103 146.594 268.04 146.827 267.969 147.048C267.257 149.24 268.198 151.513 267.958 153.803C267.943 153.936 267.93 154.071 267.937 154.204C267.977 154.916 268.072 156.032 268.01 156.138C267.903 156.236 267.98 156.382 268.101 156.461C268.126 156.478 268.161 156.481 268.191 156.49C268.275 156.612 268.006 157.428 268.651 158.252C269.374 159.178 269.817 160.233 270.218 161.316C270.493 162.058 269.424 162.84 269.598 163.619C269.728 164.203 269.982 164.675 270.442 165.012C270.721 165.217 270.923 165.453 270.92 165.823C270.905 167.132 269.693 168.185 270.319 169.239C270.487 169.52 270.632 169.816 270.791 170.102C271.07 170.601 271.071 171.116 270.876 171.643C270.772 171.922 270.664 172.193 270.629 172.501C270.576 172.974 270.536 173.428 270.791 173.858C270.857 173.968 270.877 174.108 270.917 174.235C270.961 174.373 270.939 174.493 270.83 174.591C270.733 174.677 270.657 174.594 270.57 174.567C270.28 174.476 270.2 174.499 270.17 174.734C270.111 175.196 270.069 175.662 270.036 176.127C270.009 176.494 270.021 176.863 269.99 177.229C269.946 177.765 269.865 178.294 269.484 178.705C269.147 179.068 269.172 179.471 269.344 179.908C269.67 180.745 270.063 181.547 270.537 182.295C270.9 182.867 271.066 183.404 270.743 184.063C270.468 184.625 270.55 185.251 270.669 185.834C271.129 188.104 271.2 190.404 271.25 192.711C271.267 193.511 271.34 194.311 271.434 195.106C271.533 195.939 271.554 196.771 271.535 197.607C271.518 198.376 271.564 199.137 271.71 199.897C271.841 200.582 271.893 201.27 271.576 201.95C271.364 202.406 271.428 202.931 271.492 203.432C271.613 204.363 271.617 205.297 271.584 206.234C271.569 206.66 271.377 206.909 271.038 207.088C270.665 207.284 270.282 207.43 269.86 207.443C269.639 207.45 269.417 207.466 269.198 207.496C269.155 207.502 269.1 207.587 269.093 207.641C269.086 207.695 269.121 207.768 269.159 207.812C269.2 207.859 269.268 207.876 269.321 207.914C269.686 208.178 270.051 208.442 270.415 208.707C270.708 208.92 270.928 209.211 271.123 209.513C271.628 210.296 271.932 211.18 272.133 212.09C272.254 212.638 272.205 213.196 272.014 213.762C271.708 214.677 271.612 215.625 271.781 216.612C271.979 217.769 272.267 218.891 272.694 219.973C273.145 221.118 273.159 222.311 273.101 223.515C273.079 223.97 272.8 224.184 272.379 224.014C271.917 223.827 271.44 223.645 271.076 223.243C270.827 222.967 270.851 223.048 270.49 223.357C269.946 223.822 269.914 224.299 270.195 224.92C270.328 225.213 270.398 225.519 270.599 225.797C270.97 226.306 271.066 226.964 271.207 227.569C271.501 228.83 271.71 230.113 271.951 231.388C272.007 231.687 272.095 231.779 272.383 231.8C272.886 231.835 273.389 231.861 273.891 231.91C274.092 231.929 274.192 232.204 274.074 232.365C273.72 232.85 273.299 233.256 272.758 233.486C272.088 233.772 272.664 234.025 271.986 234.29C271.928 234.313 271.854 234.339 271.801 234.321C271.167 234.1 270.828 234.551 270.443 234.945C270.101 235.295 271.049 235.666 270.779 236.08C270.636 236.299 270.689 236.423 270.96 236.492C271.884 236.727 271.548 236.965 272.475 237.186C273.162 237.349 272.417 237.762 272.821 238.35C273.064 238.703 273.29 239.061 273.222 239.542C273.2 239.698 273.26 239.87 273.294 240.031C273.395 240.534 273.359 241.033 273.231 241.519C272.942 242.609 272.651 243.697 272.331 244.776C272.222 245.142 272.189 245.479 272.277 245.852C272.384 246.305 272.464 246.767 272.513 247.231C272.569 247.768 272.679 248.289 272.882 248.78C273.229 249.619 273.198 250.469 273.002 251.329C272.891 251.814 272.752 252.294 272.628 252.777C272.501 253.271 272.45 253.733 272.783 254.2C273.033 254.549 272.937 254.883 272.618 255.163C272.436 255.322 272.227 255.401 272.011 255.233C271.469 254.814 270.845 255.554 270.205 255.499C268.91 255.39 267.622 255.573 266.333 255.411C266.176 255.391 266.021 255.333 265.865 255.327C264.123 255.268 262.391 255.026 260.645 255.011C258.585 254.992 256.525 254.919 254.465 254.854C253.482 254.823 252.501 254.758 251.519 254.708C251.233 254.693 250.955 254.661 250.683 254.542C250.381 254.409 250.161 255.007 250.011 254.658C249.727 254.002 249.147 254.176 248.508 254.436C248.273 254.531 248.057 254.678 247.838 254.81C246.191 255.802 246.801 254.772 244.891 254.992C244.64 255.021 244.381 254.995 244.132 255.039C243.626 255.131 243.136 253.765 242.896 254.323C242.783 254.583 242.574 254.637 242.343 254.596C242.095 254.552 241.843 254.495 241.61 254.398C240.427 253.915 239.209 255.051 237.995 254.675C236.803 254.306 235.579 254.122 234.341 254.077C233.327 254.04 232.31 254.462 231.296 254.064C230.432 254.046 229.602 254.314 228.744 254.346C228.651 254.35 228.559 254.402 228.465 254.404C226.91 254.439 225.371 254.673 223.826 254.836C222.723 254.952 221.612 254.991 220.513 255.137C219.404 255.283 218.385 254.205 217.512 254.969C217.464 255.011 217.426 255.067 217.381 255.114C217.397 255.434 216.116 255.726 216.137 255.434C216.137 255.434 215.822 255.434 215.575 255.442C215.575 255.442 214.675 255.714 214.095 254.969C213.752 254.529 213.738 254.35 213.421 254.815C213.402 254.842 213.377 254.873 213.377 254.902C213.377 255.209 212.968 254.464 212.97 254.772C212.971 255.044 213.143 255.167 213.143 255.167C213.369 255.648 213.086 255.247 212.848 255.592C212.761 255.718 212.577 255.775 212.412 255.731C212.228 255.682 212.038 255.254 211.874 255.159C211.506 254.949 211.137 254.768 210.703 254.818C210.642 254.825 210.57 254.822 210.515 254.795C209.379 254.237 208.089 255.812 206.937 255.338C206.269 255.064 205.642 255.159 205.008 255.418C204.86 255.478 204.713 255.541 204.567 255.605C203.657 256.006 202.84 255.817 202.094 255.173C201.85 254.962 201.602 254.752 201.362 254.533C201.15 254.34 200.929 254.316 200.657 254.394C200.009 254.577 199.374 254.809 198.818 255.191C197.871 255.842 196.882 255.776 195.893 255.443C195.041 255.156 194.183 254.98 193.295 254.882C192.351 254.778 191.414 254.97 190.478 254.793C189.91 254.685 189.347 254.621 188.776 254.713C188.418 254.771 188.096 254.69 187.76 254.548C186.613 254.059 185.423 253.718 184.2 253.513C183.919 253.466 183.632 253.453 183.347 253.441C182.301 253.396 181.256 254.491 180.21 254.448C179.893 254.435 179.578 254.407 179.275 254.285C178.216 253.861 177.097 253.893 175.992 253.814C175.658 253.79 175.378 253.957 175.076 254.046C174.333 254.267 173.996 254.149 173.586 253.416C173.37 253.029 173.092 253.738 172.674 253.723C171.946 253.697 171.22 253.582 170.491 253.698C170.206 253.743 169.928 253.702 169.647 253.616C168.449 253.251 167.236 253.938 165.985 254.145C165.688 254.194 165.435 254.012 165.152 253.974C164.981 253.951 164.879 253.807 164.873 253.622C164.859 253.262 164.658 253.177 164.362 253.205C164.109 253.229 163.883 252.937 163.633 253.088C163.382 253.241 163.254 253.527 163.113 253.788C162.746 254.465 162.268 253.369 161.64 253.799C161.305 254.029 160.985 254.178 160.576 254.043C160.368 253.974 160.102 254.04 159.927 253.93C159.431 253.617 158.979 253.797 158.47 253.89C156.91 254.178 155.402 253.83 153.821 253.985C152.809 254.084 151.81 254.263 150.808 254.427C149.431 254.654 148.051 254.867 146.673 255.092C145.985 255.205 145.297 254.945 144.613 255.083C144.055 255.195 143.534 255.458 142.957 255.516C142.702 255.542 142.457 255.588 142.209 255.512C141.009 255.142 139.77 255.124 138.536 255.038C137.777 254.984 137.015 253.432 136.262 253.33C134.999 253.158 133.734 254.026 132.463 254.082C132.273 254.09 132.082 254.068 131.892 254.076C131.431 254.096 131.08 253.946 130.945 253.435C130.936 253.403 130.918 253.375 130.905 253.345C130.408 252.216 129.778 251.914 128.616 252.317C126.635 253.005 124.625 252.7 122.594 253.218C121.796 253.422 121.028 253.756 120.244 254.022C119.552 254.257 118.869 254.52 118.152 254.675C117.62 254.79 117.098 254.892 116.551 254.842C115.89 254.781 115.331 255.162 114.732 255.359C114.159 255.547 113.592 253.125 113.034 253.358C112.645 253.52 112.292 253.508 111.957 253.244C111.358 252.774 110.722 252.828 110.059 253.057C108.577 253.568 107.048 253.83 105.501 253.995C103.924 254.161 102.35 254.343 100.772 254.5C99.1913 254.657 97.6435 254.999 96.0947 255.352C95.227 255.55 94.3564 255.734 93.4829 255.898C93.141 255.963 92.7876 255.954 92.4409 255.987C91.8123 256.046 91.2846 255.919 90.8198 255.382C90.4369 254.938 89.8863 254.781 89.2786 254.725C88.0804 254.617 86.8726 254.62 85.6839 254.375C85.0248 254.24 84.4028 254.01 83.7818 253.762C82.9302 253.422 82.0968 253.451 81.3129 253.937C80.9433 254.166 80.6442 254.26 80.2823 253.938C79.7775 253.488 79.165 253.47 78.5649 253.616C77.7486 253.813 76.9209 253.86 76.1065 253.765C75.195 253.658 74.3311 253.808 73.4833 254.08C72.2365 254.481 70.984 254.47 69.7162 254.281C69.3714 254.23 69.0276 254.163 68.6818 254.121C68.096 254.049 67.5321 254.153 67.0454 254.508C66.1682 255.148 65.4976 255.061 64.8737 254.06C64.5099 253.476 64.0908 253.276 63.4678 253.323C62.7354 253.377 62.0181 253.205 61.298 253.083C60.6275 252.968 59.9798 253.049 59.3664 253.366C59.1959 253.454 59.0187 253.536 58.8673 253.654C58.4463 253.979 58.0214 254.01 57.5214 253.84C57.1366 253.71 56.7108 253.711 56.3031 253.661C55.5478 253.568 54.7925 253.468 54.0352 253.395C53.2666 253.321 52.517 253.49 51.7816 253.691C50.1138 254.147 48.4279 254.379 46.702 254.337C45.5285 254.308 44.3588 254.283 43.1901 254.138C41.2337 253.897 39.3268 253.427 37.4408 252.846C36.1302 252.443 34.7891 254.822 33.4422 254.612C31.6249 254.329 29.7989 254.097 27.9739 253.87C27.031 253.752 26.0766 254.516 25.1345 254.344C24.5278 254.232 23.9468 254.05 23.4629 253.671C22.9695 253.286 22.4475 252.997 21.8694 252.811C21.2655 252.617 20.6559 252.441 20.0453 252.271C19.4948 252.118 18.9395 251.96 18.4004 252.319C16.363 252.802 14.3456 253.369 12.3558 254.038C12.0844 254.129 11.8091 254.211 11.53 254.273C11.249 254.336 10.9595 254.366 10.6918 254.218C9.99459 253.835 9.2164 253.856 8.46964 253.738C7.84385 253.638 7.21424 253.568 6.59226 253.436C5.90456 253.289 5.20733 253.273 4.50915 253.342C4.32056 253.361 4.13006 253.382 3.94241 253.371C3.6881 253.355 3.54617 253.198 3.52141 252.922C3.47093 252.364 3.60142 248.388 3.31567 247.862C3.38996 247.54 3.42521 247.201 3.54522 246.898C3.93289 245.92 3.83859 244.952 3.55189 243.98C3.50522 243.821 3.4433 243.665 3.37091 243.518C3.21661 243.206 3.16136 242.91 3.32424 242.568C3.54332 242.106 3.50426 241.59 3.51188 241.09C3.5195 240.622 3.50426 240.154 3.4814 239.687C3.44521 238.938 3.55379 238.231 3.92622 237.574C4.0529 237.349 4.09481 237.073 4.19483 236.829C4.33675 236.484 4.25674 236.177 4.07957 235.88C4.02909 235.796 3.96908 235.718 3.91193 235.637C3.33472 234.842 3.33186 233.976 3.63285 233.074C3.69572 232.885 3.74239 232.68 3.84526 232.518C4.27769 231.841 4.04528 231.193 3.67095 230.659C3.29376 230.121 3.19089 229.568 3.27566 228.967C3.40806 228.036 3.18518 227.101 3.35853 226.172C3.39854 225.958 3.31376 225.71 3.25852 225.486C3.1347 224.984 3.12041 224.504 3.36425 224.028C3.62237 223.523 3.48617 222.973 3.44711 222.449C3.35186 221.167 3.41949 219.928 4.05862 218.784C4.18625 218.555 4.27007 218.299 4.38056 218.059C4.45962 217.888 4.45772 217.741 4.29484 217.628C4.00814 217.428 3.88336 217.135 3.83859 216.787C3.80811 216.552 3.71762 216.341 3.58999 216.143C3.25471 215.624 3.36329 215.134 3.69572 214.665C3.84526 214.453 4.02719 214.273 4.12529 214.012C4.25674 213.664 4.25388 213.371 3.9948 213.103C3.85859 212.963 3.72715 212.815 3.57665 212.695C3.04707 212.271 2.87276 211.698 2.90324 211.021C2.93657 210.287 2.9061 209.546 2.9823 208.818C3.13088 207.383 3.09755 205.949 3.07754 204.512C3.05754 203.008 3.11564 201.508 3.28519 200.013C3.32996 199.619 3.30043 199.211 3.26138 198.815C3.14327 197.615 3.11564 196.406 3.18994 195.209C3.30805 193.308 3.29567 191.406 3.2309 189.509C3.16898 187.705 3.17565 185.903 3.15851 184.098C3.15565 183.836 3.08231 183.534 3.25852 183.322C3.55951 182.962 3.61666 182.649 3.27185 182.282C3.13565 182.138 3.14803 181.904 3.16422 181.705C3.26614 180.426 2.96325 179.182 2.87466 177.919C2.82799 177.253 2.75084 176.588 2.73465 175.922C2.67559 173.483 2.64035 171.044 2.58891 168.606C2.57653 168.005 2.53557 167.405 2.50605 166.804C2.49271 166.538 2.45366 166.271 2.46128 166.005C2.48319 165.189 2.70036 164.449 3.1347 163.752C4.21292 162.024 4.40794 160.25 5.33377 158.423C5.75478 157.591 5.18119 156.7 5.27263 155.81C5.2974 155.565 5.17452 155.354 5.01069 155.187C4.23727 154.396 4.90158 153.585 4.09481 152.835C3.77096 152.534 3.35472 152.328 2.92229 152.195C2.58796 152.091 2.26316 151.957 1.93169 151.843C1.60117 151.73 1.41163 151.531 1.37067 151.135C1.2878 150.339 1.1554 149.551 1.05063 148.757C1.02777 148.586 1.00872 148.415 0.852509 148.329C0.488655 148.133 0.497228 147.787 0.568665 147.462C0.74583 146.662 0.652485 145.862 0.595335 145.066C0.38769 142.131 0.233386 139.197 0.421028 136.254C0.461033 135.621 0.466748 134.984 0.445793 134.35C0.388643 132.653 0.856319 131.126 1.72785 129.718C1.88216 129.468 2.03265 129.215 2.17267 128.984C2.05742 128.701 1.81548 128.662 1.63451 128.55C1.10873 128.223 0.797265 127.739 0.6582 127.132C0.472463 126.319 0.324826 125.5 0.361973 124.654C0.434363 123.019 0.39912 121.381 0.602955 119.751C0.67344 119.192 0.648675 118.616 0.636292 118.049C0.614385 117.011 0.657247 115.984 0.834412 114.957C0.998242 114.005 1.07063 113.037 1.18112 112.075C1.19255 111.975 1.20398 111.871 1.18779 111.775C0.970619 110.496 0.826792 109.196 0.50199 107.949C0.272438 107.067 0.301013 106.312 0.779167 105.572C1.49068 104.469 2.18505 103.351 2.93277 102.275C3.64523 101.25 3.07362 100.213 3.65464 99.0976C4.12803 98.1895 4.68143 97.3356 5.24626 96.4887C5.60821 95.9458 5.94921 95.3869 6.18733 94.7608C5.88158 94.4708 5.52249 94.545 5.18054 94.53C4.64714 94.5049 4.50522 94.3815 4.4957 93.8115C4.48903 93.3801 4.52427 92.9416 4.59571 92.5171C4.72239 91.7555 4.76525 90.9899 4.76525 90.2213C4.76525 88.4743 5.62071 86.8478 4.62916 85.4239C3.80525 84.2409 3.31853 82.9274 3.1185 81.4835C3.07754 81.1875 2.98039 80.9005 2.94991 80.6045C2.91943 80.3075 2.84514 79.9573 2.95658 79.7155C3.21185 79.1576 3.04135 78.703 2.82513 78.2133C2.70512 77.9424 2.66607 77.6434 2.73846 77.3333C2.88514 76.7002 2.79084 76.075 2.66702 75.4479C2.2584 73.3869 1.98693 71.3068 1.79834 69.2086C1.65451 67.6112 1.63261 66.0087 1.47544 64.4113C1.29733 62.5991 0.330422 62.0623 2.00872 61.39C2.18589 61.3187 2.35353 61.2214 2.53164 61.1501C2.76501 61.0568 2.88788 60.8792 2.91455 60.6274C2.93931 60.3996 2.76596 60.1738 2.47068 60.0494C2.35353 60.0002 2.22494 59.9812 2.10588 59.937C1.92681 59.8708 1.75155 59.7925 1.57248 59.7243C0.877155 59.4564 1.75548 58.9697 1.72595 58.1559C1.70595 57.595 1.60403 57.0471 1.28209 56.5474C1.09635 56.2585 1.09635 55.8812 1.20398 55.4928C1.5145 54.366 1.62784 53.2071 1.61737 52.029C1.59927 49.9911 1.61546 47.9531 1.62403 45.9152C1.62594 45.3442 1.62403 44.7924 1.23827 44.3147C1.00015 44.0197 1.08301 43.6976 1.30971 43.4046C1.49068 43.1708 1.72595 43.0384 1.97646 43.1628C2.13201 43.31 1.90776 43.31 2.00923 43.5034C2.00923 43.5034 2.27059 43.9029 2.9783 43.8668C3.16975 43.8568 2.7425 43.8919 2.89966 43.7765C3.13207 43.6059 3.10813 43.8267 3.10813 43.8267C3.10813 43.8267 3.01544 44.0344 3.46312 43.8046C3.89555 43.5829 3.98032 43.3671 3.72315 42.9387C3.58123 42.7018 3.5698 42.5373 3.67076 42.3075C3.73553 42.159 3.77458 41.9914 3.79363 41.8279C3.81268 41.6603 3.77458 41.5509 3.57075 41.4757C3.46312 41.4757 3.30704 40.9898 3.39454 40.8716C3.47645 40.7703 3.59266 40.694 3.65552 40.5826C3.72998 40.4507 3.67076 40.0756 3.57456 39.9615C3.40787 39.7638 3.67076 39.5895 3.55837 39.3554L3.40851 39.0564Z" fill="#F8F0E2"/>
</svg>
