<svg width="118" height="41" viewBox="0 0 118 41" fill="none" xmlns="http://www.w3.org/2000/svg">
<path d="M57.3763 2.73339C58.0639 2.51565 58.7382 2.13461 59.439 2.10558C63.3089 1.93502 67.1831 1.83704 71.0574 1.74268C76.0467 1.61567 81.0317 1.45235 86.021 1.4088C90.2699 1.37251 94.5276 1.44509 98.7765 1.58662C99.3583 1.58662 99.9489 2.25435 100.473 2.67531C101.2 3.20447 101.865 3.78759 102.461 4.41724C104.418 6.6527 107.68 6.16279 110.276 7.04826C111.232 7.37124 112.312 7.80309 112.894 8.45631C116.499 12.499 118.333 16.8973 116.636 21.9851C116.367 22.7871 116.592 23.7996 116.922 24.6198C117.804 26.7972 117.738 28.7641 116.297 30.789C115.913 31.337 116.49 32.3386 116.609 33.1334C116.839 34.6902 117.235 36.2471 117.231 37.8039C117.231 39.0196 116.001 39.4841 114.613 39.5349C102.545 39.9958 90.4859 40.5728 78.4136 40.8704C69.8541 41.0808 61.277 41.001 52.7131 40.8704C44.2947 40.7542 35.8542 40.6817 27.471 40.1119C21.6354 39.7164 15.888 38.4716 10.0832 37.695C8.00725 37.4156 7.3329 36.3269 6.67177 34.8898C6.15955 33.8993 5.33284 33.0406 4.27846 32.404C1.99535 30.985 2.21571 28.8875 1.75732 26.9605C1.71766 26.8044 1.98212 26.5649 1.9072 26.4488C-0.212839 23.1827 1.54579 19.6045 0.651055 16.2513C0.258783 14.7998 0.65105 13.6457 1.58986 12.2848C2.56393 10.8587 2.81955 8.97524 2.86804 7.28051C2.89889 6.15915 3.62173 5.66559 4.19031 4.85633C6.52191 1.44871 10.5548 0.802763 14.5701 0.0588213C15.2083 -0.068875 15.8818 0.0131354 16.4477 0.287451C18.2769 1.48502 20.2999 1.13298 22.3583 1.07491C26.0165 0.973301 29.6792 1.04591 33.3419 1.01688C39.5125 0.969704 45.6478 1.71727 51.8272 0.824537C53.1142 0.63583 54.7362 1.78258 56.1113 2.44668C56.4551 2.60998 56.4463 3.27408 56.5962 3.70593L57.3763 2.73339Z" fill="#232C6A"/>
</svg>
