<svg width="53" height="56" viewBox="0 0 53 56" fill="none" xmlns="http://www.w3.org/2000/svg">
<path fill-rule="evenodd" clip-rule="evenodd" d="M36.4734 0.876796C32.2548 2.49677 25.3015 9.02157 23.7582 21.3372C23.2617 21.2749 22.7521 21.2402 22.2353 21.2402C22.0051 21.2402 21.7749 21.2474 21.5433 21.2604C20.1404 6.32595 25.8603 0.16887 25.8603 0.16887C25.8603 0.16887 31.3978 -0.517341 36.4734 0.876796Z" fill="white"/>
<path fill-rule="evenodd" clip-rule="evenodd" d="M52.2606 11.2008C46.8476 10.3423 38.755 10.6217 29.6258 23.7191C29.0742 23.2992 28.4937 22.9301 27.8726 22.6159C35.3254 4.97132 42.6927 3.25 42.6927 3.25C42.6927 3.25 48.2896 5.87034 52.2621 11.2022L52.2606 11.2008Z" fill="white"/>
<path fill-rule="evenodd" clip-rule="evenodd" d="M17.4926 22.1942C16.6616 22.5373 15.8784 22.9702 15.1603 23.487C8.46761 13.1215 10.1151 7.10484 10.1151 7.10484C10.1151 7.10484 14.0384 3.46387 18.9041 1.85547C16.3894 4.96368 14.1672 12.6944 17.4911 22.1942H17.4926Z" fill="white"/>
<path fill-rule="evenodd" clip-rule="evenodd" d="M12.2056 26.4496C11.7452 27.0997 11.3457 27.7974 11.0257 28.5387C1.44774 23.5919 1.29718 20.6501 1.29718 20.6501C1.29718 20.6501 3.00113 15.353 5.43182 12.2578C4.88748 15.7091 5.62581 20.6994 12.2056 26.4482V26.4496Z" fill="white"/>
<path fill-rule="evenodd" clip-rule="evenodd" d="M10.3815 36.6478C0.993134 37.1227 0.826648 35.9949 0.826648 35.9949C0.826648 35.9949 -0.267814 32.2888 0.0608139 27.8125C1.12922 30.5993 2.78105 33.0995 10.0253 34.5602C10.0818 35.2725 10.2063 35.9717 10.3815 36.6493V36.6478Z" fill="white"/>
<path fill-rule="evenodd" clip-rule="evenodd" d="M14.0138 42.5942C6.88962 47.5613 5.62867 46.3915 5.62867 46.3915C5.62867 46.3915 3.4325 43.4368 2.24249 40.3633C4.26783 42.005 6.56678 44.0129 12.9729 41.5258C13.3015 41.9036 13.6431 42.2598 14.0138 42.5942Z" fill="white"/>
<path fill-rule="evenodd" clip-rule="evenodd" d="M19.6236 45.4768C16.3967 52.5459 13.8357 52.7428 13.8357 52.7428C11.6671 52.433 11.0663 52.2071 8.84839 50.1036C11.1111 50.4598 14.6624 50.0457 18.4553 45.1641C18.8332 45.29 19.2241 45.3942 19.6222 45.4782L19.6236 45.4768Z" fill="white"/>
<path fill-rule="evenodd" clip-rule="evenodd" d="M24.831 52.4238C24.831 52.4238 22.0457 53.8208 19.4268 53.2895C21.1379 52.6322 24.0594 50.4954 24.7094 45.5081C25.0091 45.4459 25.3175 45.3749 25.6099 45.2852C26.2382 51.5436 24.831 52.4252 24.831 52.4252V52.4238Z" fill="white"/>
<path fill-rule="evenodd" clip-rule="evenodd" d="M32.1332 49.5597C32.1332 49.5597 31.3153 50.5455 29.2407 50.9495C30.1484 49.8318 31.0923 47.3939 29.2407 43.5517C29.3797 43.4605 29.5201 43.3635 29.6533 43.2578C32.8108 47.3447 32.1332 49.5582 32.1332 49.5582V49.5597Z" fill="white"/>
<path fill-rule="evenodd" clip-rule="evenodd" d="M29.1972 36.6122C28.8512 37.4938 28.346 38.3002 27.6815 39.0385C28.2924 39.121 28.9135 39.2151 29.5432 39.328C30.0036 38.7041 30.3713 38.0454 30.658 37.3432L29.1958 36.6122H29.1972ZM28.5168 26.7388C29.468 27.703 30.1831 28.7671 30.6594 29.9368L29.1972 30.6679C28.7977 29.6502 28.1867 28.728 27.3645 27.8926C25.7734 26.3118 23.8552 25.5242 21.6156 25.5242C19.376 25.5242 17.4636 26.3147 15.8755 27.9028C14.2903 29.488 13.4969 31.399 13.4969 33.6386C13.4969 35.6929 14.1614 37.4663 15.4918 38.969C14.836 39.0544 14.2164 39.1485 13.633 39.2499C12.4575 37.6241 11.8755 35.7566 11.8755 33.6386C11.8755 30.9458 12.8237 28.6483 14.7231 26.749C16.6225 24.8496 18.9229 23.8984 21.6156 23.8984C24.3084 23.8984 26.6116 24.8467 28.5183 26.7403L28.5168 26.7388Z" fill="white"/>
<path fill-rule="evenodd" clip-rule="evenodd" d="M14.3598 40.1501C14.0949 39.8576 13.8502 39.558 13.6316 39.2496C14.215 39.1483 14.8346 39.0542 15.4904 38.9688C15.6135 39.1077 15.7394 39.2424 15.8741 39.3784C16.0507 39.5551 16.2302 39.7216 16.4155 39.8765C17.8893 41.1331 19.6222 41.757 21.6128 41.757C23.6034 41.757 25.2827 41.1519 26.7449 39.9358C26.9562 39.7621 27.1604 39.5739 27.3616 39.3712C27.4716 39.2612 27.5759 39.1512 27.6801 39.0368C28.291 39.1193 28.9121 39.2134 29.5418 39.3263C29.3174 39.6318 29.0728 39.9315 28.805 40.2181C28.7137 40.3224 28.6153 40.4222 28.5154 40.5236C26.6102 42.4302 24.3098 43.3813 21.6128 43.3813C18.9157 43.3813 16.6196 42.4302 14.7203 40.5308C14.5943 40.4049 14.4742 40.2789 14.3583 40.1501H14.3598Z" fill="white"/>
</svg>
