<svg width="140" height="26" viewBox="0 0 140 26" fill="none" xmlns="http://www.w3.org/2000/svg">
<path fill-rule="evenodd" clip-rule="evenodd" d="M71.0253 13.3943L76.7734 10.9982C76.454 10.1902 75.5099 9.63301 74.3853 9.63301C72.9482 9.62605 70.9558 10.9007 71.0253 13.3943ZM77.773 15.7137L79.9668 17.1764C79.2587 18.2282 77.5578 20.0392 74.6074 20.0392C70.9558 20.0392 68.3178 17.2043 68.3178 13.5893C68.3178 9.75143 70.9767 7.13944 74.295 7.13944C77.6342 7.13944 79.2656 9.80018 79.8001 11.242L80.0917 11.9734L71.4973 15.5396C72.1568 16.8351 73.1773 17.4968 74.6144 17.4968C76.0444 17.4968 77.0441 16.7864 77.773 15.7137ZM63.8401 19.6491H66.6656V0.689565H63.8401V19.6491ZM59.2305 13.6102C59.2305 11.3395 57.7171 9.67481 55.7942 9.67481C53.8503 9.67481 52.212 11.3395 52.212 13.6102C52.212 15.86 53.8434 17.4968 55.7942 17.4968C57.7241 17.4968 59.2305 15.86 59.2305 13.6102ZM61.7158 7.52949V19.1128C61.7158 23.8771 58.9181 25.8343 55.6067 25.8343C52.4897 25.8343 50.6153 23.7308 49.9072 22.0243L52.3647 21.0004C52.8021 22.0522 53.8781 23.2989 55.6067 23.2989C57.7241 23.2989 59.0431 21.9825 59.0431 19.5098V18.5834H58.939C58.3072 19.3635 57.0854 20.0531 55.5512 20.0531C52.337 20.0531 49.3865 17.2461 49.3865 13.6241C49.3865 9.98128 52.33 7.1464 55.5512 7.1464C57.0854 7.1464 58.3072 7.829 58.939 8.58822H59.0361V7.53646C59.0361 7.52949 61.7158 7.52949 61.7158 7.52949ZM30.8857 13.5893C30.8857 11.2699 29.2334 9.68177 27.3244 9.68177C25.4083 9.68177 23.763 11.2699 23.763 13.5893C23.763 15.8879 25.4153 17.4968 27.3244 17.4968C29.2334 17.4968 30.8857 15.8809 30.8857 13.5893ZM33.6625 13.5893C33.6625 17.3018 30.8163 20.0392 27.3244 20.0392C23.8324 20.0392 20.9862 17.3018 20.9862 13.5893C20.9862 9.84894 23.8324 7.13944 27.3244 7.13944C30.8163 7.13944 33.6625 9.84894 33.6625 13.5893ZM45.0893 13.5893C45.0893 11.2699 43.4371 9.68177 41.528 9.68177C39.612 9.68177 37.9667 11.2699 37.9667 13.5893C37.9667 15.8879 39.6189 17.4968 41.528 17.4968C43.4371 17.4968 45.0893 15.8809 45.0893 13.5893ZM47.8662 13.5893C47.8662 17.3018 45.0199 20.0392 41.528 20.0392C38.0361 20.0392 35.1898 17.3018 35.1898 13.5893C35.1898 9.84894 38.0361 7.13944 41.528 7.13944C45.0199 7.13944 47.8662 9.84894 47.8662 13.5893ZM10.1286 20.0392C4.63042 20.0392 0 15.5396 0 10.0231C0 4.49959 4.63042 0 10.1286 0C13.1762 0 15.3422 1.19803 16.9736 2.76523L15.0506 4.69461C13.8843 3.5941 12.3015 2.73736 10.1286 2.73736C6.1091 2.73736 2.9643 5.99016 2.9643 10.0161C2.9643 14.049 6.1091 17.2948 10.1286 17.2948C12.7319 17.2948 14.2175 16.2431 15.1686 15.2888C15.9461 14.5087 16.4599 13.3803 16.6542 11.841H10.1286V9.10365H19.3062C19.4033 9.59122 19.4519 10.1763 19.4519 10.8102C19.4519 12.8649 18.8896 15.4073 17.0916 17.2113C15.3422 19.0571 13.0999 20.0392 10.1286 20.0392Z" fill="#232C6A"/>
<path d="M86.7507 19.4573V2.61719H88.9182L94.7468 12.8741H94.8347L100.663 2.61719H102.831V19.4573H100.663V9.46489L100.751 6.64353H100.663L95.4205 15.8718H94.161L88.9182 6.64353H88.8303L88.9182 9.46489V19.4573H86.7507Z" fill="#232C6A"/>
<path d="M109.45 19.8387C108.22 19.8387 107.224 19.4861 106.404 18.7807C105.584 18.0754 105.174 17.135 105.174 15.9889C105.174 14.7252 105.672 13.7554 106.638 13.0501C107.605 12.3448 108.806 11.9921 110.212 11.9921C111.471 11.9921 112.525 12.2272 113.316 12.6974V12.3741C113.316 11.5219 113.023 10.846 112.438 10.3464C111.852 9.84677 111.149 9.58228 110.299 9.58228C109.684 9.58228 109.099 9.72922 108.601 10.0231C108.103 10.317 107.751 10.7284 107.546 11.2574L105.584 10.4051C105.847 9.72922 106.375 9.08268 107.165 8.49492C107.956 7.90716 108.981 7.61328 110.27 7.61328C111.735 7.61328 112.965 8.0541 113.931 8.90635C114.898 9.75861 115.396 10.9929 115.396 12.5505V19.5154H113.346V17.9285H113.258C112.379 19.1628 111.12 19.8387 109.45 19.8387ZM109.802 17.8403C110.68 17.8403 111.5 17.5171 112.233 16.8411C112.965 16.1652 113.316 15.4011 113.316 14.4901C112.701 13.9905 111.793 13.726 110.563 13.726C109.509 13.726 108.718 13.9611 108.191 14.4019C107.663 14.8427 107.4 15.4011 107.4 15.9889C107.4 16.5472 107.634 16.9881 108.132 17.3407C108.63 17.6934 109.186 17.8403 109.802 17.8403Z" fill="#232C6A"/>
<path d="M123.801 19.8389C122.922 19.8389 122.132 19.6625 121.458 19.2805C120.784 18.8984 120.257 18.4282 119.906 17.8699H119.788L119.876 19.4568V24.5409H117.738V7.93674H119.788V9.52368H119.876C120.228 8.96531 120.726 8.49511 121.429 8.11307C122.132 7.73102 122.922 7.55469 123.772 7.55469C125.266 7.55469 126.525 8.14245 127.609 9.31797C128.692 10.4935 129.22 11.9629 129.22 13.6968C129.22 15.4307 128.692 16.9001 127.609 18.0756C126.554 19.2511 125.266 19.8389 123.801 19.8389ZM123.45 17.8405C124.445 17.8405 125.295 17.4584 126.027 16.6943C126.759 15.9303 127.111 14.9311 127.111 13.6674C127.111 12.4037 126.759 11.4045 126.027 10.6404C125.295 9.87634 124.445 9.4943 123.45 9.4943C122.424 9.4943 121.575 9.87634 120.872 10.611C120.169 11.3751 119.818 12.3743 119.818 13.638C119.818 14.9017 120.169 15.9303 120.872 16.665C121.575 17.4878 122.424 17.8405 123.45 17.8405Z" fill="#232C6A"/>
<path d="M135.489 19.84C134.2 19.84 133.146 19.5167 132.326 18.8996C131.476 18.2825 130.89 17.4891 130.48 16.5487L132.413 15.7552C133.028 17.1952 134.054 17.9299 135.518 17.9299C136.192 17.9299 136.748 17.7829 137.158 17.4891C137.598 17.1952 137.803 16.8132 137.803 16.3136C137.803 15.5495 137.275 15.05 136.221 14.7855L133.907 14.2271C133.175 14.0508 132.472 13.6688 131.828 13.1692C131.183 12.6696 130.832 11.935 130.832 11.0534C130.832 10.0249 131.271 9.20202 132.179 8.5849C133.087 7.93839 134.141 7.64453 135.372 7.64453C136.397 7.64453 137.305 7.87962 138.096 8.34981C138.886 8.82 139.472 9.4665 139.794 10.3481L137.92 11.1122C137.51 10.0836 136.631 9.58405 135.284 9.58405C134.639 9.58405 134.112 9.73098 133.673 9.99546C133.234 10.2599 133.028 10.6126 133.028 11.0828C133.028 11.7293 133.526 12.1995 134.552 12.4346L136.836 12.9635C137.92 13.228 138.711 13.6394 139.238 14.2565C139.765 14.8736 139.999 15.5495 139.999 16.3136C139.999 17.3421 139.589 18.2237 138.74 18.8996C137.92 19.4873 136.836 19.84 135.489 19.84Z" fill="#232C6A"/>
</svg>
