<svg width="9" height="14" viewBox="0 0 9 14" fill="none" xmlns="http://www.w3.org/2000/svg">
<path d="M4.45578 4.45892C3.62417 3.63276 2.81931 2.77391 1.84502 2.1221C1.41215 1.83592 1.00664 1.51552 0.603013 1.19301C0.891836 0.840099 1.44694 0.534805 1.64696 0.631767C1.97877 0.848734 2.43543 0.913148 2.70481 1.20639C3.06719 1.61214 3.53658 1.88712 4.03171 2.12859C4.5805 2.39577 5.01234 2.80378 5.43527 3.22268C6.1174 3.92651 6.71927 4.7284 7.22203 5.64933C7.38073 5.94296 7.56821 6.20557 7.60894 6.6392C7.61136 6.75035 7.73393 6.81427 7.30462 7.31809C6.81977 7.88563 6.96497 7.5132 6.94472 7.42384C6.80186 6.39717 5.96036 6.21794 5.40525 5.69085C5.04052 5.33777 4.81949 4.81117 4.45578 4.45892Z" fill="#232C6A"/>
<path d="M4.4559 9.53718C3.62429 10.3633 2.81944 11.2222 1.84514 11.874C1.41227 12.1602 1.00676 12.4806 0.603135 12.8031C0.891958 13.156 1.44706 13.4613 1.64709 13.3643C1.97889 13.1474 2.43555 13.0829 2.70493 12.7897C3.06731 12.384 3.5367 12.109 4.03183 11.8675C4.58063 11.6003 5.01247 11.1923 5.43539 10.7734C6.11752 10.0696 6.7194 9.26769 7.22216 8.34676C7.38085 8.05313 7.56834 7.79052 7.60906 7.35689C7.61148 7.24574 7.73405 7.18182 7.30474 6.678C6.81989 6.11046 6.96509 6.4829 6.94484 6.57226C6.80198 7.59893 5.96048 7.77816 5.40537 8.30524C5.04064 8.65833 4.81961 9.18492 4.4559 9.53718Z" fill="#232C6A"/>
</svg>
