<svg width="12" height="8" viewBox="0 0 12 8" fill="none" xmlns="http://www.w3.org/2000/svg">
<path d="M7.64733 4.1269C8.30968 3.46017 8.99824 2.8149 9.52082 2.03378C9.75026 1.68674 10.0071 1.36163 10.2657 1.03803C10.5486 1.26959 10.7934 1.71463 10.7157 1.87499C10.5417 2.14101 10.4901 2.50713 10.255 2.72309C9.92967 3.01362 9.70921 3.38995 9.51562 3.78691C9.30141 4.22689 8.9743 4.57311 8.63845 4.91218C8.07418 5.45907 7.43128 5.94161 6.69294 6.34468C6.45753 6.47191 6.24699 6.62222 5.89934 6.65488C5.81022 6.65682 5.75897 6.75508 5.35505 6.41089C4.90004 6.02217 5.19863 6.13859 5.27027 6.12235C6.09338 6.00782 6.23707 5.33316 6.65965 4.88811C6.94273 4.5957 7.36492 4.4185 7.64733 4.1269Z" fill="white"/>
<path d="M3.57545 4.1269C2.9131 3.46017 2.22453 2.8149 1.70196 2.03378C1.47252 1.68674 1.21564 1.36163 0.957077 1.03803C0.674141 1.26959 0.429378 1.71463 0.507116 1.87499C0.681064 2.14101 0.732707 2.50713 0.967808 2.72309C1.29311 3.01362 1.51357 3.38995 1.70716 3.78691C1.92137 4.22689 2.24848 4.57311 2.58432 4.91218C3.1486 5.45907 3.7915 5.94161 4.52984 6.34468C4.76525 6.47191 4.97579 6.62222 5.32344 6.65488C5.41256 6.65682 5.4638 6.75508 5.86773 6.41089C6.32274 6.02217 6.02415 6.13859 5.95251 6.12235C5.1294 6.00782 4.98571 5.33316 4.56312 4.88811C4.28005 4.5957 3.85786 4.4185 3.57545 4.1269Z" fill="white"/>
</svg>
