<svg width="21" height="22" viewBox="0 0 21 22" fill="none" xmlns="http://www.w3.org/2000/svg">
<path d="M6.18386 4.87355C9.57923 8.15062 12.9261 11.8795 16.3126 15.1482C18.6134 17.6368 20.0584 21.0678 19.3389 21.3737C18.8861 21.1273 17.3015 19.5984 16.2026 18.5261C11.161 13.6066 6.13269 8.53286 1.12406 3.28214C0.219625 2.33667 1.33655 1.37196 2.00807 1.0078C3.40239 2.27095 4.79636 3.53884 6.18386 4.87355Z" fill="white"/>
<path d="M4.83575 14.7816C8.08222 11.3625 11.7466 7.9861 14.9849 4.57593C17.4343 2.25568 17.8004 1.72608 20.3605 2.15107C20.5444 2.54381 20.5444 2.54381 18.1243 4.643C13.2539 9.72047 8.24059 14.7866 3.06365 19.8354C2.13132 20.7471 1.29696 19.648 0.996316 18.9845C2.25258 17.5814 3.51324 16.1787 4.83575 14.7816Z" fill="white"/>
</svg>
