<svg width="25" height="24" viewBox="0 0 25 24" fill="none" xmlns="http://www.w3.org/2000/svg">
<path d="M23.9498 11.1127L23.8619 11.7294C23.8242 9.75354 23.9121 8.83482 23.8367 7.1484L23.8619 7.2365C23.887 6.98479 23.6735 6.84636 23.9246 4.12795C23.9246 4.03985 23.8995 4.03985 23.9246 3.85107L23.8744 4.31673C23.8493 4.03985 23.8116 3.78815 23.7991 3.41059C23.7991 3.33508 23.8242 3.29733 23.8367 3.29733C23.8367 2.9827 23.7991 2.56738 23.6735 2.215C23.6484 2.10173 23.6358 1.98846 23.5981 1.8752C23.3972 1.58574 23.4348 1.74934 22.9074 1.0194C23.0832 1.32145 22.5557 0.742528 22.5934 0.86838C22.5557 0.830624 22.4929 0.755113 22.4301 0.704772C22.0031 0.364971 20.9984 0.176193 20.7598 0.264289C20.7598 0.264289 21.2747 0.28946 21.7771 0.553749C22.2794 0.805454 22.6813 1.27111 22.7943 1.49764C22.3548 1.00682 22.6688 1.37179 22.7316 1.49764H22.7818C23.0078 1.83744 22.9451 1.8752 23.0204 2.05139C23.0204 2.05139 23.0204 2.05139 23.0204 2.0388H23.0078C23.0078 2.0388 23.0078 2.00105 23.033 2.02622C23.033 2.02622 23.0581 2.02622 23.0958 2.1269H23.0832C23.1711 2.25275 23.2339 2.51704 23.259 2.64289H23.2213C23.4097 2.91977 23.1334 4.53068 23.146 4.90823C23.0832 5.28579 23.1586 5.75144 23.1334 6.22968C23.1209 6.98479 23.0706 6.60724 23.033 6.98479C23.0078 7.45045 23.0832 6.88411 23.0832 7.07289L23.0204 7.63922C23.0204 7.31201 22.9827 7.4882 22.9702 7.55113C22.9702 8.04195 22.8823 8.80965 22.9702 8.96067C22.9325 9.6151 22.8948 9.6151 22.8823 9.90456C22.8948 9.80388 22.9074 9.62769 22.9325 9.6151C22.8948 9.87939 22.9325 9.74095 22.9451 9.62769C22.9827 10.0304 22.7818 11.7168 22.8823 11.7923H22.8697C22.9451 11.8804 23.0204 11.742 23.0581 12.0189L23.0204 12.2077L23.0581 12.4845C23.033 12.6733 23.0204 12.5852 23.0078 12.5852C23.0455 13.0509 23.0078 13.6801 22.9953 14.2465L23.1962 13.655C23.146 14.1206 23.0581 14.9764 23.1209 15.0645L23.0581 15.3414C22.9325 16.2853 23.1083 15.9958 23.0706 16.3734L22.9953 16.8516V16.3859C22.9576 16.8516 22.9325 17.0404 22.8823 17.4179V17.3802V17.4431C22.8823 17.4431 22.9451 17.7451 22.9451 18.0724C22.9451 18.538 22.9827 18.9156 22.9074 19.6581L22.9827 19.8469L22.9325 20.4132H22.8697C22.8697 19.8595 22.8571 18.8149 22.8446 18.1101H22.8195C22.8195 18.5003 22.832 18.9911 22.8446 19.2805C22.8446 19.419 22.7692 19.7588 22.7316 19.5071L22.7943 19.7714C22.7943 20.4636 22.8195 20.8537 22.7692 21.118C22.7064 21.3949 22.6311 21.7095 22.2292 22.1374L22.3171 22.087C22.179 22.2758 22.0031 22.4394 21.9278 22.4394C21.6389 22.6534 21.2873 22.7541 20.9733 22.7666C20.6845 22.7666 20.2323 22.7289 19.9686 22.6911L19.843 22.7666C19.6546 22.7666 19.3783 22.6534 19.2904 22.7666L18.8885 22.7918C18.6374 22.7918 18.4741 22.8296 18.1852 22.7918C18.1852 22.7918 18.1476 22.7918 18.135 22.7918C17.5573 22.7666 18.135 22.8547 17.4819 22.817C17.2684 22.7666 17.2433 22.9051 16.9294 22.8925L16.6028 22.7918C16.0251 22.7289 15.9246 22.8296 15.0832 22.8296C14.6813 22.7918 14.4804 22.7037 14.7567 22.6282C14.3925 22.7163 14.5934 22.6911 14.1036 22.7289C14.0283 22.6911 14.0785 22.6786 14.1915 22.6534C13.752 22.603 13.9278 22.6911 13.6013 22.6911C13.5008 22.7666 13.4003 22.8799 13.2873 22.8799L13.4129 22.9051C13.0612 22.9428 12.6845 22.9554 12.2826 22.9303V22.8925L11.8681 22.9051L11.843 22.8547H11.2276L11.3155 22.8799C11.1774 22.8799 10.7002 22.9051 10.4364 22.8799V22.8547C9.68289 22.7792 9.05494 22.8799 8.16326 22.8925L8.27629 22.8422C7.97488 22.7918 8.18838 22.9177 7.83673 22.8925V22.8296C7.49764 22.9177 7.40973 22.817 7.18367 22.7792L7.28414 22.8673H6.8697C6.41758 22.817 6.59341 22.7415 6.6562 22.7037L6.34223 22.7666L6.27943 22.6911C6.05337 22.7792 6.05337 22.6786 5.65149 22.7289C5.61381 22.7037 5.71429 22.6786 5.5887 22.6786L4.93564 22.7792L5.32496 22.7289L5.27472 22.8422C4.86028 22.9303 4.72213 22.8422 4.42072 22.8547L4.62166 22.817C4.14443 22.8422 4.11931 22.7918 3.84301 22.7792C3.93093 22.8044 4.05651 22.8296 3.85557 22.8422C3.71743 22.8422 3.78022 22.8044 3.64207 22.7918C3.62951 22.8547 3.22763 22.9051 2.98901 22.8547C2.98901 22.8547 2.98901 22.8296 3.01413 22.8296C2.95133 22.8296 2.91366 22.8547 2.81319 22.8296L2.88854 22.7541C2.81319 22.7666 2.73783 22.7918 2.67504 22.7918C2.54945 22.7415 2.33595 22.7163 2.37363 22.6786H2.44898C2.12245 22.5653 1.83359 22.3387 1.62009 22.0619L1.65777 22.0115C1.50706 21.999 1.40659 21.5207 1.33124 21.5962C1.281 21.4074 1.1303 20.8411 1.26845 20.9418C1.26845 20.1238 1.15542 19.5952 1.21821 18.538C1.31868 18.1605 1.29356 17.1033 1.30612 16.4111C1.25589 15.0645 1.23077 14.1206 1.19309 12.8117C1.3438 11.9811 1.14286 10.7352 1.23077 9.84164L1.16797 9.60252C1.25589 9.01101 1.14286 8.10488 1.24333 7.27425C1.21821 7.03513 1.20565 6.94704 1.20565 6.90928C1.20565 6.94704 1.19309 7.00996 1.15542 7.02255C1.18053 6.78343 1.15542 6.30519 1.21821 6.34295V6.40587C1.30612 6.44363 1.19309 5.68852 1.25589 5.42423L1.18053 5.57525V5.12218L1.20565 5.24803C1.15542 4.75721 1.14286 4.3419 1.14286 3.95176C1.14286 3.56162 1.14286 3.19664 1.19309 2.94494C1.30612 2.40378 1.59498 1.91295 2.1978 1.45988C2.05965 1.63608 2.43642 1.28369 2.49921 1.38437C2.87598 1.37179 3.1146 1.23335 3.5416 1.20818C3.5416 1.20818 3.5416 1.20818 3.56672 1.1956H4.23234C3.83045 1.32145 4.70958 1.1075 4.34537 1.20818C6.07849 1.29628 8.32653 1.20818 10.3359 1.24594L10.248 1.22077C10.7504 1.22077 11.3909 1.18301 11.7677 1.23335C12.157 1.28369 12.6091 1.15784 12.7598 1.14525C13.1868 1.09491 13.5636 1.1956 13.3878 1.1956C13.8399 1.18301 14.2669 1.06974 14.8948 1.12008C15.1083 1.22077 16.6028 1.0194 16.6279 1.13267C17.4317 1.20818 18.1852 1.06974 19.0518 1.13267C19.0518 1.13267 19.0267 1.13267 19.0016 1.14525L20.7598 0.792868L20.2575 0.402727L18.7378 0.0880965L14.606 0.151023L11.303 0.0251704L3.30298 0C3.1146 0.0251704 2.8383 0.0755113 2.6248 0.138437C1.64521 0.226534 0.615385 1.00682 0.251177 2.10173C0.0376766 2.64289 0.0627943 3.27216 0.0627943 3.67488C0.0627943 4.12795 0.0627943 4.56843 0.0251177 4.99633L0.100471 5.03408C0.100471 5.51232 0.0627943 5.48715 0.0502355 5.60042C0.0627943 10.0682 0.163265 14.6618 0.0753532 18.6765C0.0251177 19.0666 0.0502355 20.237 0 20.5391C0 21.2313 0.251177 22.1877 0.803768 22.7792C1.3438 23.4211 2.13501 23.8238 2.93878 23.8867H2.87598C3.15228 23.9119 3.35322 23.8867 3.55416 23.8867C3.57928 23.8867 3.57928 23.8993 3.55416 23.9119C4.2449 23.849 5.33752 23.9119 6.19152 23.9371H6.14129C11.0895 23.9622 15.686 23.8238 20.584 23.9245C21.1994 24 22.0534 23.8112 22.6562 23.3582C23.2841 22.9051 23.7488 22.1877 23.8995 21.3949C23.9372 21.1935 23.9498 20.9921 23.9498 20.7908V20.2999V19.3183C23.9498 18.6639 23.9498 18.0094 23.9874 17.355C24.0628 16.8768 24 11.5658 23.9749 11.1002L23.9498 11.1127Z" fill="#232C6A"/>
</svg>
