<svg width="23" height="23" viewBox="0 0 23 23" fill="none" xmlns="http://www.w3.org/2000/svg">
<path d="M19.0001 0C21.2092 5.79496e-05 23.0001 1.7909 23.0001 4V19C23.0001 21.2091 21.2092 22.9999 19.0001 23H4.00012C1.79098 23 0.000122111 21.2091 0.00012207 19V4C0.000122296 1.79086 1.79098 0 4.00012 0H19.0001ZM11.5001 6C8.46256 6 6.00012 8.46243 6.00012 11.5C6.00012 14.5376 8.46256 17 11.5001 17C14.5376 16.9999 17.0001 14.5375 17.0001 11.5C17.0001 8.46247 14.5376 6.00006 11.5001 6ZM18.5001 3C17.6717 3 17.0001 3.67157 17.0001 4.5C17.0001 5.32843 17.6717 6 18.5001 6C19.3285 5.99994 20.0001 5.32839 20.0001 4.5C20.0001 3.67161 19.3285 3.00006 18.5001 3Z" fill="white"/>
</svg>
