<svg width="21" height="20" viewBox="0 0 21 20" fill="none" xmlns="http://www.w3.org/2000/svg">
<path d="M3.5 5.5L17.5 5M3.5 8.5L17.5 8M7.99044 13.1243L7.53624 19.0289C7.52795 19.1367 7.67275 19.1792 7.72399 19.084L10.9717 13.0526C10.9891 13.0202 11.0229 13 11.0597 13H19.8957C19.9526 13 19.998 12.9526 19.9957 12.8958L19.5041 1.09846C19.5018 1.04385 19.4561 1.00119 19.4015 1.00266L1.0973 1.49737C1.04314 1.49883 1 1.54316 1 1.59733V13.8847C1 13.9456 1.0539 13.9923 1.11414 13.9837L7.87659 13.0176C7.93992 13.0086 7.99535 13.0605 7.99044 13.1243Z" stroke="white" stroke-linecap="round"/>
</svg>
