<svg width="22" height="20" viewBox="0 0 22 20" fill="none" xmlns="http://www.w3.org/2000/svg">
<g clip-path="url(#clip0_385_1215)">
<path d="M5.0661 1.17495C8.14708 1.17495 11.2281 0.880836 14.3091 0.733778C15.7762 0.733778 17.39 0.733778 18.8572 0.586719C19.1506 0.586719 19.5907 0.586719 19.8842 0.586719C20.1776 0.586719 20.3243 1.0279 20.471 1.32201C20.6177 2.05731 20.7645 2.64554 20.9112 3.38084C21.0579 4.85143 21.2046 6.32201 21.2046 7.7926C21.2046 8.52789 21.2046 9.26319 21.2046 9.99848C21.2046 10.5867 21.2046 11.322 20.6177 11.6161C20.1776 11.9102 19.444 12.0573 18.8572 12.0573C18.1236 12.0573 17.39 12.2044 16.6565 12.2044C15.9229 12.2044 15.1893 12.2044 14.3091 12.2044C13.5755 12.2044 12.8419 12.2044 12.1083 12.2044C11.3748 12.2044 10.7879 12.6455 10.3478 13.2338C9.76093 13.822 9.17408 14.4102 8.58722 15.1455C7.41351 16.4691 6.23981 17.7926 4.91938 18.9691C5.0661 19.1161 5.35952 19.2632 5.50624 19.4102C6.82666 17.2044 8.00037 14.9985 8.88065 12.6455C8.88065 12.3514 8.73394 12.0573 8.44051 12.2044C6.97337 12.6455 5.50624 12.9397 4.0391 13.0867C3.30553 13.0867 2.57196 13.2338 1.98511 13.0867C1.69168 13.0867 1.69168 12.6455 1.69168 12.3514C1.69168 11.9102 1.69168 11.6161 1.69168 11.175C1.69168 9.70437 1.69168 8.08672 1.8384 6.61613C1.8384 5.88084 1.8384 4.99848 1.8384 4.26319C1.8384 3.82201 1.8384 3.5279 1.8384 3.08672C1.8384 2.7926 1.8384 2.49848 1.98511 2.20437C2.42525 1.17495 4.0391 1.46907 4.91938 1.46907C5.21281 1.46907 5.50624 1.0279 5.0661 0.880836C4.0391 0.586719 2.57196 0.43966 1.69168 1.17495C1.10483 1.61613 0.958115 2.20437 0.958115 2.93966C0.958115 3.82201 0.958115 4.70437 0.958115 5.58672C0.958115 7.35142 0.958115 9.26319 0.811401 11.0279C0.811401 11.4691 0.811401 11.9102 0.811401 12.3514C0.811401 12.6455 0.811401 13.0867 0.811401 13.5279C1.10483 14.1161 2.13182 13.9691 2.71868 13.9691C4.62596 13.9691 6.53323 13.5279 8.44051 12.9397C8.2938 12.7926 8.14708 12.6455 8.00037 12.4985C7.12009 14.8514 5.94638 17.0573 4.62596 19.1161C4.33253 19.4102 4.91938 19.8514 5.21281 19.5573C6.38652 18.3808 7.41351 17.2044 8.44051 15.8808C9.02736 15.2926 9.61422 14.7044 10.2011 13.9691C10.7879 13.3808 11.2281 12.9397 11.9616 12.7926C12.6952 12.7926 13.4288 12.7926 14.3091 12.7926C15.0426 12.7926 15.9229 12.7926 16.6565 12.7926C17.39 12.7926 18.2703 12.7926 19.0039 12.4985C19.5907 12.4985 20.1776 12.3514 20.7645 11.9102C21.9382 11.0279 21.6447 9.41025 21.6447 8.08672C21.6447 6.46907 21.6447 4.99848 21.3513 3.38084C21.3513 2.64554 21.2046 1.91025 20.9112 1.17495C20.9112 0.586719 20.6177 -0.00151652 20.1776 -0.295634C19.5907 -0.736811 18.8572 -0.589752 18.2703 -0.589752C17.39 -0.589752 16.6565 -0.589752 15.7762 -0.589752C12.1083 -0.442693 8.44051 -0.295634 4.77267 -0.00151652C4.47924 -0.00151652 4.47924 0.586719 4.77267 0.43966H5.0661V1.17495Z" fill="white"/>
<path d="M3.43835 5.17256C3.43835 5.17256 4.61206 5.17256 5.19892 5.17256C5.78577 5.17256 6.37263 5.17256 7.10619 5.17256C8.42662 5.17256 9.60033 5.17256 10.9207 4.87845C12.0945 4.87845 13.4149 4.73139 14.5886 4.58433C15.1754 4.58433 15.7623 4.58433 16.4959 4.43727C17.0827 4.43727 17.6696 4.43727 18.2564 4.29021C18.4031 4.29021 18.2564 3.99609 18.2564 3.99609C17.6696 3.99609 17.0827 3.99609 16.3492 3.99609C15.7623 3.99609 15.1754 3.99609 14.4419 3.99609C13.1215 3.99609 11.9477 4.14315 10.6273 4.29021C9.45361 4.29021 8.13319 4.43727 6.95948 4.58433C6.37263 4.58433 5.78577 4.58433 5.0522 4.58433C4.46535 4.58433 3.8785 4.58433 3.43835 4.73139V5.17256Z" fill="white"/>
<path d="M3.89248 7.29422C3.89248 7.29422 3.30563 7.29422 3.15891 7.29422C2.86549 7.29422 2.86549 7.7354 3.15891 7.7354C5.65304 7.7354 8.14718 7.7354 10.788 7.58834C11.9617 7.58834 13.2822 7.58834 14.4559 7.44128C15.0427 7.44128 15.6296 7.44128 16.3631 7.44128C16.95 7.44128 17.6836 7.44128 18.1237 7.14716C18.2704 7.14716 18.1237 6.85304 18.1237 6.70598C17.5368 6.55893 16.95 6.70598 16.3631 6.70598C15.7763 6.70598 15.1894 6.70598 14.4559 6.70598C13.1354 6.70598 11.9617 6.85304 10.6413 6.85304C8.14718 6.85304 5.65304 7.14716 3.15891 7.14716C3.15891 7.14716 3.15891 7.44128 3.15891 7.58834C3.45234 7.58834 3.59905 7.58834 3.89248 7.58834V7.44128V7.29422Z" fill="white"/>
<path d="M2.59312 10.0294C5.08726 9.88235 7.7281 9.73529 10.2222 9.58824C11.5427 9.58824 12.7164 9.44118 14.0368 9.44118C14.6236 9.44118 15.2105 9.44118 15.9441 9.44118C16.5309 9.44118 17.2645 9.44118 17.8513 9.44118C17.9981 9.44118 17.9981 9 17.8513 9C17.2645 9 16.5309 9 15.9441 9C15.3572 9 14.7704 9 14.0368 9C12.7164 9 11.5427 9 10.2222 9.29412C9.04852 9.29412 7.7281 9.29412 6.40768 9.58824C5.08726 9.73529 3.76683 9.88235 2.44641 10.1765H2.59312V10.0294Z" fill="white"/>
</g>
<defs>
<clipPath id="clip0_385_1215">
<rect width="20.8333" height="20" fill="white" transform="translate(0.958374)"/>
</clipPath>
</defs>
</svg>
