 <svg
                    width="26"
                    height="14"
                    viewBox="0 0 26 14"
                    fill="none"
                    xmlns="http://www.w3.org/2000/svg"
                  >
                    <path
                      d="M9.60191 12.0959C9.89622 12.1035 10.1803 12.0576 10.4617 11.9747C10.7779 11.8815 11.0863 11.768 11.3884 11.6328C11.5413 11.5651 11.6865 11.4822 11.8279 11.3903C12.0772 11.2296 12.333 11.0765 12.5887 10.9272C12.9319 10.7282 13.2455 10.4871 13.5514 10.2332C13.7891 10.0354 14.0372 9.85425 14.3225 9.73815C14.5243 9.65649 14.7363 9.61311 14.9484 9.57484C15.2388 9.52253 15.5332 9.53019 15.8275 9.53401C15.9444 9.53529 16.0562 9.56974 16.1655 9.60929C16.4842 9.72666 16.8094 9.81852 17.1268 9.93717C17.4121 10.0431 17.6769 10.1911 17.9159 10.3824C18.3259 10.7103 18.7745 10.9629 19.2461 11.1786C19.5237 11.3049 19.7975 11.4414 20.0879 11.5358C20.3707 11.6264 20.6599 11.671 20.9542 11.6876C21.251 11.7042 21.5479 11.7016 21.8448 11.7042C22.0877 11.7068 22.3062 11.6277 22.5093 11.5001C22.6995 11.3814 22.8678 11.227 23.0478 11.0931C23.3318 10.8838 23.5966 10.6504 23.8626 10.4194C24.0579 10.2498 24.2713 10.1094 24.5001 9.99204C24.5707 9.95631 24.644 9.92824 24.7198 9.91038C24.7635 9.90018 24.7892 9.91293 24.8059 9.95886C24.8638 10.1171 24.9255 10.274 24.9833 10.4322C25.0077 10.4985 25.0064 10.5024 24.946 10.5394C24.743 10.6631 24.5476 10.7971 24.3651 10.9515C24.2276 11.0688 24.0978 11.1977 23.9551 11.3087C23.6634 11.5383 23.3781 11.7782 23.0709 11.9849C22.819 12.1546 22.5594 12.3128 22.2676 12.4008C22.1147 12.4467 21.9592 12.4774 21.7998 12.4914C21.5094 12.5182 21.2189 12.5092 20.9285 12.5016C20.5982 12.4927 20.2666 12.485 19.9414 12.411C19.7306 12.3638 19.5237 12.2987 19.3245 12.2107C18.9505 12.0461 18.5791 11.8726 18.2205 11.6736C17.9905 11.546 17.7746 11.3967 17.5753 11.2219C17.2348 10.9247 15.9431 10.422 15.7028 10.3403C15.5858 10.3008 15.4676 10.2816 15.3442 10.2778C15.0795 10.2676 14.8211 10.297 14.5667 10.3735C14.4639 10.4041 13.9241 10.8009 13.7441 10.9425C13.4961 11.1365 12.2931 11.8713 11.959 12.0755C11.648 12.2668 10.3036 12.7376 9.95791 12.7938C9.83453 12.8142 9.70987 12.8244 9.5852 12.8231C9.33202 12.8231 9.07883 12.8269 8.82564 12.8154C8.58917 12.8052 8.35269 12.7785 8.11749 12.7466C7.79491 12.7032 7.47489 12.647 7.16001 12.5641C6.98394 12.5182 6.81172 12.4595 6.64336 12.3906C6.42744 12.3026 6.25137 12.1635 6.11642 11.967C5.97505 11.7603 5.83368 11.5524 5.64989 11.3814C5.4237 11.1709 5.20135 10.9553 4.9713 10.7499C4.74896 10.5521 4.48806 10.4399 4.19246 10.4335C3.9894 10.4296 3.78634 10.4258 3.58328 10.4335C3.23755 10.445 2.9034 10.5228 2.57696 10.6376C2.1734 10.7805 1.24034 11.2653 1.15423 11.31C1.07969 11.3482 1.07326 11.3457 1.05655 11.2628C1.03985 11.1735 1.02442 11.0841 1.00515 10.9961C0.994864 10.9464 1.009 10.9145 1.0437 10.8775C1.25191 10.6593 1.49867 10.5049 1.76599 10.3786C2.16569 10.1898 2.57182 10.0239 2.9985 9.91931C3.26968 9.85297 3.54472 9.81852 3.82232 9.80194C4.05109 9.7879 4.27857 9.79045 4.50606 9.78663C4.81836 9.78025 5.09982 9.87721 5.3453 10.0737C5.68716 10.348 6.01746 10.6376 6.31563 10.9642C6.41331 11.0701 6.49813 11.1875 6.57781 11.3087C6.68706 11.472 6.831 11.5855 7.00579 11.6595C7.18572 11.7348 7.37079 11.7922 7.55971 11.842C7.89644 11.93 8.2383 11.9913 8.58145 12.0346C8.73568 12.0538 9.42841 12.0921 9.60063 12.0972L9.60191 12.0959Z"
                      fill="white"
                      stroke="white"
                    />
                    <path
                      d="M19.3322 4.98216C19.1883 4.98088 19.0443 4.98854 18.9017 4.97195C18.7218 4.95026 18.5572 4.88009 18.403 4.78185C18.1061 4.5943 17.317 3.94491 17.2206 3.81605C16.9456 3.44988 16.0549 2.55808 15.9393 2.42029C15.8532 2.31695 15.7748 2.20595 15.6694 2.12302C15.5139 2.00054 15.3429 1.92527 15.1424 1.92527C14.9214 1.92527 14.7093 1.95971 14.496 2.02095C14.059 2.14726 13.6323 2.30164 13.2121 2.48025C12.9974 2.57084 12.8098 2.70352 12.6414 2.86555C12.4615 3.03779 12.2996 3.22917 12.1325 3.41288C11.9346 3.63105 11.7379 3.85049 11.5387 4.06611C11.3562 4.26386 11.1699 4.45651 10.9604 4.62237C10.6519 4.86733 10.3036 5.03447 9.93349 5.15312C9.6199 5.25391 9.29988 5.26284 8.97858 5.24625C8.83464 5.2386 8.69841 5.18374 8.56603 5.12377C8.21131 4.96174 7.91443 4.72571 7.68438 4.40038C7.4479 4.06356 7.18571 3.74715 6.9441 3.41544C6.831 3.25979 6.72175 3.10031 6.5958 2.95486C6.3439 2.66397 5.86581 2.31822 5.0844 2.14216C4.82479 2.13578 4.56646 2.1345 4.30942 2.18809C3.97526 2.25698 3.69509 2.43687 3.42134 2.63463C2.84299 3.0531 1.8084 4.357 1.79169 4.38124C1.76727 4.41696 1.74799 4.42845 1.70815 4.40038C1.61562 4.33403 1.52051 4.27024 1.43312 4.19625C1.37785 4.14904 1.37528 4.14138 1.41384 4.07504C1.50123 3.92449 2.104 3.14113 2.33148 2.91659C2.7556 2.49811 3.21699 2.13068 3.75035 1.87296C4.01253 1.74537 4.29142 1.67265 4.57803 1.63438C4.83892 1.59993 5.10111 1.59355 5.36329 1.59738C5.46096 1.59865 5.55735 1.61141 5.64989 1.64076C6.02903 1.76068 6.39146 1.91634 6.70762 2.17278C6.90168 2.3297 7.07005 2.51215 7.21913 2.71501C7.51601 3.11817 7.83989 3.49964 8.13034 3.90791C8.26401 4.09545 8.42851 4.25111 8.62129 4.37103C8.80122 4.48331 8.98629 4.58793 9.19321 4.63513C9.38085 4.67723 9.57106 4.67851 9.7587 4.6262C10.0492 4.5471 10.3216 4.43227 10.5517 4.22304C10.7894 4.00615 11.0092 3.76884 11.2161 3.52133C11.477 3.20875 11.7392 2.89873 12.0027 2.58997C12.2533 2.29526 12.5605 2.07964 12.901 1.91378C13.3432 1.69817 13.7994 1.51955 14.2685 1.38049C14.4459 1.32818 14.6207 1.26566 14.8032 1.23504C15.0885 1.18656 15.3751 1.16615 15.6617 1.18911C15.884 1.20697 16.0729 1.32052 16.2246 1.49021C16.3287 1.60758 16.4302 1.72624 16.5292 1.84872C16.6217 1.96354 18.146 3.58385 18.4814 3.80329C18.6266 3.89898 19.2757 4.22559 19.4685 4.22942C19.5867 4.23197 19.7062 4.22942 19.8245 4.22942C19.872 4.22942 20.5416 3.99722 20.8064 3.83136C20.9362 3.75098 21.7356 3.16027 22.0273 2.97655C22.3679 2.76221 22.7188 2.57084 23.0658 2.37053C23.1622 2.31439 23.2585 2.26591 23.3755 2.27612C23.4256 2.28122 23.4475 2.29781 23.4603 2.34501C23.4989 2.48663 23.5439 2.6257 23.5978 2.75966C23.6158 2.80431 23.6055 2.82983 23.5631 2.8528C23.4012 2.94338 23.2431 3.04417 23.0786 3.13093C22.7637 3.29806 22.4643 3.49454 22.1597 3.67953C21.9451 3.80967 20.8436 4.59558 20.4491 4.75634C20.3758 4.78568 20.3013 4.80992 20.2293 4.84054C19.9915 4.94133 19.3811 4.97833 19.3284 4.97833L19.3322 4.98216Z"
                      fill="white"
                      stroke="white"
                    />
                  </svg>