<svg width="18" height="21" viewBox="0 0 18 21" fill="none" xmlns="http://www.w3.org/2000/svg">
<path d="M1.68789 8C-0.282869 5.24094 2.4394 2.25532 4.11406 1.05236C4.15627 1.02204 4.21282 1.0299 4.24606 1.06986C5.09511 2.09051 6.95111 4.35811 8.12801 5.92038C8.16133 5.96461 8.15027 6.02796 8.10593 6.06113C5.49747 8.01224 5.37779 8.60133 5.68787 9C6.85453 10.5 9.38787 13.8 10.1879 15C10.9737 16.1787 12.4465 14.5595 13.92 13.0801C13.9625 13.0375 14.0326 13.0419 14.0695 13.0894L17.4394 17.4221C17.473 17.4653 17.4657 17.5274 17.4233 17.562C16.606 18.2295 15.6269 19.2244 13.6879 20C12 20.6751 9.85453 19 9.18787 18C7.52121 15.8333 3.68789 10.8 1.68789 8Z" stroke="white"/>
</svg>
