<svg width="18" height="21" viewBox="0 0 18 21" fill="none" xmlns="http://www.w3.org/2000/svg">
<path d="M3.00246 1.9704C1.8409 3.56869 0.63109 5.45744 0.72865 7.56372C0.825905 8.77421 1.40734 9.76684 2.134 10.7834C2.98177 11.9695 3.82952 13.1553 4.76201 14.2807C5.54923 15.3821 6.39705 16.568 7.26898 17.6087C7.93509 18.5406 8.77047 19.3516 9.79961 19.896C11.8579 20.9847 14.085 20.1609 16.0457 19.1434C16.2999 18.9617 16.5542 18.7799 16.8084 18.5982C17.0625 18.4166 17.3166 18.2349 17.5708 18.0533C17.958 17.5205 17.4734 16.843 17.2553 16.3588C16.3711 14.9428 15.4023 13.5873 14.4092 12.3771C14.2881 12.2077 13.9978 12.1593 13.8889 12.3651C13.3323 13.019 12.7756 13.6727 12.0737 14.3025C11.6501 14.6052 11.1538 15.344 10.5486 15.3926C10.258 15.3443 9.99176 15.1508 9.81009 14.8966C9.56787 14.5578 9.24087 14.2792 8.91394 14.0009C8.42949 13.3231 7.71516 12.6817 7.23072 12.004C6.50405 10.9874 5.32945 9.52331 6.12799 8.31251C6.43046 7.8403 7.0599 7.64638 7.48348 7.34361C7.65291 7.2225 7.84657 6.95608 7.89489 6.66554C7.94321 6.37499 7.78554 5.97536 7.60387 5.72121C7.05888 4.95876 6.45333 4.11161 5.90833 3.34916C5.36334 2.58672 4.75763 1.73969 4.0432 1.09835C3.92209 0.92892 3.63148 0.88066 3.5226 1.08649C3.26846 1.26815 3.07501 1.53468 2.88142 1.80106C2.54255 2.04328 3.07547 2.43033 3.41433 2.18811C3.66848 2.00644 3.92254 1.82471 4.11613 1.55833C3.97086 1.53417 3.74081 1.57063 3.59554 1.54647C4.14053 2.30891 4.70966 2.92624 5.33937 3.62813C5.88437 4.39057 6.4293 5.15292 6.97429 5.91537C7.0954 6.0848 7.2165 6.25421 7.33761 6.42364C7.39816 6.50836 7.45889 6.59294 7.43473 6.73821C7.32585 6.94404 7.01108 7.04103 6.84165 7.16214C6.24864 7.58603 5.82517 7.88883 5.5591 8.59103C5.00278 10.1407 6.03222 11.5808 6.96471 12.7063C7.50971 13.4687 8.22419 14.1101 8.79334 14.7273C9.03557 15.0662 9.36238 15.3445 9.68932 15.6228C9.87098 15.877 10.2827 16.0946 10.5732 16.1429C11.3601 16.3485 12.062 15.7189 12.5945 15.2103C13.3205 14.4353 14.1069 13.7449 14.833 12.97C14.6877 12.9458 14.4579 12.9821 14.3126 12.9579C15.0998 14.0592 15.8871 15.1607 16.6744 16.262C16.856 16.5161 17.0377 16.7703 17.28 17.1092C17.4011 17.2786 17.5826 17.5326 17.7037 17.702C17.7401 17.932 17.486 18.1139 17.2319 18.2955C17.0624 18.4166 16.8082 18.5983 16.6388 18.7195C14.9081 19.7006 12.8869 20.6331 10.9256 19.8591C9.95702 19.3994 9.18196 18.6736 8.43114 17.8022C7.70448 16.7856 6.97764 15.769 6.16626 14.8129C5.37904 13.7116 4.5921 12.6103 3.72016 11.5696C3.05406 10.6377 2.09736 9.65745 1.85483 8.4228C1.46673 6.2682 2.84598 4.25834 3.94699 2.57534C4.14058 2.30896 3.7529 1.94583 3.5593 2.21222L3.00246 1.9704Z" fill="white"/>
</svg>
