<svg width="13" height="12" viewBox="0 0 13 12" fill="none" xmlns="http://www.w3.org/2000/svg">
<path d="M2.04838 1.41832L2.01847 1.54067C1.84839 1.32739 1.85537 1.16629 1.67001 1.00129L1.69166 0.988479C1.69166 0.988479 1.50634 1.04583 1.53365 0.598004C1.53365 0.598004 1.52792 0.588316 1.52728 0.562534L1.51838 0.646288C1.51838 0.646288 1.42411 0.61051 1.39035 0.578167C1.38462 0.568479 1.40627 0.555665 1.4171 0.549258L1.35403 0.442695L1.36931 0.394412C1.31963 0.38457 1.22793 0.45192 1.23046 0.332698C1.17761 0.416296 1.15849 0.309889 1.12665 0.354892C1.12665 0.354892 1.13684 0.322702 1.14766 0.316295C1.11326 0.25817 1.02345 0.180515 0.973776 0.170673C0.973776 0.170673 0.948354 0.473497 0.890417 0.57319C0.8662 0.482876 0.87895 0.553815 0.857941 0.592411L0.879591 0.579597C0.886607 0.640849 0.843305 0.666476 0.84968 0.701946C0.84968 0.701946 0.84968 0.701946 0.860506 0.695539C0.860506 0.695539 0.860506 0.695539 0.871332 0.689132C0.871332 0.689132 0.892982 0.676318 0.88789 0.692413C0.88789 0.692413 0.916557 0.74085 0.928024 0.760225L0.884722 0.785853C0.977701 0.770067 0.908337 1.07274 0.926178 1.12758C0.900718 1.20805 0.994338 1.21805 1.00709 1.28899C1.04786 1.38258 0.981627 1.36946 0.972084 1.42743C0.984834 1.49837 1.00965 1.39212 1.02112 1.41149L1.00713 1.51134C1.00713 1.51134 0.963183 1.51119 0.95809 1.52728C0.992491 1.58541 0.974047 1.72713 1.05556 1.69197C1.06895 1.78869 1.03647 1.80791 1.04858 1.85307C1.05367 1.83697 1.05303 1.81119 1.06895 1.78869C1.05367 1.83697 1.08042 1.80806 1.07978 1.78228C1.14092 1.8115 1.08811 2.11745 1.18045 2.07588C1.18045 2.07588 1.28871 2.01181 1.33838 2.02165L1.31737 2.06025L1.36705 2.07009C1.36705 2.07009 1.34031 2.099 1.32948 2.1054C1.39636 2.14431 1.40975 2.24103 1.43332 2.30556L1.5664 2.13524C1.5575 2.21899 1.53905 2.36072 1.59892 2.33837L1.56199 2.39947C1.52253 2.57979 1.65116 2.45134 1.64735 2.519L1.61679 2.61556L1.58239 2.55744C1.58432 2.63479 1.57413 2.66697 1.5595 2.74104C1.5595 2.74104 1.63656 2.74775 1.65949 2.7865C1.69389 2.84463 1.74931 2.86416 1.74169 2.99948L1.81811 2.98041L1.81494 3.07385L1.76081 3.10589C1.72068 3.03807 1.62449 2.92495 1.57862 2.84745L1.55697 2.86026C1.58564 2.9087 1.64169 2.95401 1.65889 2.98307C1.67036 3.00245 1.62834 3.07964 1.57866 3.0698L1.64999 3.06683C1.74746 3.23152 1.75319 3.2412 1.80227 3.44761L1.81245 3.41542C1.81245 3.41542 1.88506 3.46402 1.84749 3.49933C1.91056 3.60589 1.93033 3.73809 1.90551 3.84434L1.98193 3.82527C1.98193 3.82527 1.9189 3.94106 2.02206 3.89309L2.07238 3.92871C2.07238 3.92871 2.13352 3.95793 2.12398 4.0159C2.14246 4.09653 2.17811 3.98386 2.1915 4.08058C2.1654 4.13527 2.28448 4.0648 2.29659 4.10996L2.23292 4.19996C2.21892 4.29981 2.31126 4.25824 2.37433 4.3648C2.37052 4.43246 2.30621 4.49669 2.22405 4.50606C2.3285 4.50965 2.28965 4.49341 2.35653 4.53231C2.32405 4.55153 2.31322 4.55794 2.28584 4.56106C2.2712 4.63513 2.33552 4.57091 2.35845 4.60966C2.42914 4.5809 2.53803 4.54261 2.54377 4.5523L2.55395 4.52011C2.55395 4.52011 2.64885 4.58167 2.65587 4.64292L2.62339 4.66215L2.66289 4.70418L2.61958 4.7298L2.67628 4.8009L2.67054 4.79121C2.67054 4.79121 2.74889 4.84949 2.73361 4.89777L2.71196 4.91059C2.69861 5.03622 2.83108 5.06246 2.90497 5.16262L2.86167 5.18824C2.86167 5.18824 2.92662 5.1498 2.92791 5.20137L2.87378 5.2334C2.97249 5.2273 2.89162 5.28825 2.87635 5.33653L2.95212 5.29168L2.96423 5.33684C2.97698 5.40778 2.89483 5.41716 2.85153 5.44278L2.92859 5.4495L2.86363 5.48794C2.96235 5.48184 2.87574 5.5331 2.94198 5.54622C2.92033 5.55904 2.89868 5.57185 2.89868 5.57185L3.03115 5.59809L2.95918 5.57528L3.05661 5.51762C3.16679 5.5309 3.09674 5.58543 3.1305 5.61778L3.08082 5.60794C3.13688 5.65325 3.09357 5.67887 3.10568 5.72403C3.1216 5.70153 3.13179 5.66934 3.15981 5.692C3.17128 5.71137 3.12733 5.71122 3.13371 5.74669C3.19866 5.70825 3.25981 5.73746 3.25026 5.79543L3.22861 5.80825C3.22861 5.80825 3.256 5.80512 3.25664 5.8309L3.19168 5.86934L3.2681 5.85028C3.25792 5.88247 3.32925 5.87949 3.28595 5.90512L3.28021 5.89543L3.3452 6.07934L3.29108 6.11138C3.37832 6.0859 3.3102 6.21779 3.40763 6.16013C3.3707 6.22122 3.50891 6.25716 3.39492 6.31154C3.45799 6.4181 3.58982 6.41856 3.61023 6.57653C3.55229 6.67623 3.64847 6.78935 3.68352 6.87326C3.82429 7.01232 3.9141 7.08997 4.03895 7.25154C3.96638 7.4253 4.23132 7.47778 4.21861 7.6292L4.28994 7.62622C4.2543 7.73889 4.42053 7.79747 4.39126 7.94561C4.43011 7.96185 4.44667 7.96513 4.44667 7.96513C4.44667 7.96513 4.45176 7.94904 4.48424 7.92982C4.47979 7.9717 4.53584 8.01701 4.47598 8.03935C4.4002 8.0842 4.54923 8.11373 4.5123 8.17483L4.56579 8.11701L4.60019 8.17513L4.5728 8.17826C4.86196 8.32106 4.70852 8.55577 4.98112 8.69529C4.88814 8.71108 5.04736 8.70841 4.96649 8.76935C4.89263 8.89155 5.05121 8.8631 5.10662 8.88263C5.10662 8.88263 5.10662 8.88263 5.11744 8.87623L5.16331 8.95373C5.02639 8.96936 5.27349 8.967 5.15822 8.96982C5.20284 9.21811 5.43916 9.44451 5.55001 9.70592L5.57167 9.69311C5.60033 9.74154 5.67868 9.79982 5.66404 9.87389C5.64941 9.94795 5.78633 9.93232 5.80862 9.94529C5.88059 9.9681 5.82265 10.0678 5.81119 10.0484C5.85641 10.1001 5.98251 10.0909 5.98508 10.194C5.91567 10.2744 6.19208 10.3462 6.09465 10.4039C6.08703 10.5392 6.25772 10.5559 6.26666 10.6945C6.26666 10.6945 6.26666 10.6945 6.25583 10.7009L6.68508 10.7347L6.98627 10.4779L7.14798 10.1337L6.80144 9.67164L6.67463 9.21038L6.07454 8.27054L5.95863 8.24757C5.97386 7.97694 5.67897 7.82445 5.656 7.56335L5.59104 7.60179C5.55664 7.54366 5.58912 7.52444 5.59421 7.50835C5.26805 6.98194 4.85464 6.48101 4.64374 5.95178C4.65838 5.87772 4.55646 5.7549 4.57683 5.69053C4.40931 5.58037 4.31185 5.41569 4.23094 5.25428L4.18507 5.17678C4.18507 5.17678 4.19589 5.17037 4.20672 5.16396C4.10099 5.10881 4.08058 4.95084 4.03917 4.83146C3.71108 4.22771 3.26519 3.74599 3.00205 3.1038C2.94977 2.76848 2.60901 2.53848 2.50641 2.16754C2.53696 2.07097 2.10443 1.46363 2.05411 1.42801L2.04838 1.41832Z" fill="#232C6A"/>
<path d="M11.8339 5.67734L11.7261 5.6674C11.8352 5.48372 11.9637 5.46981 12.0236 5.28528L12.0426 5.30174C12.0426 5.30174 11.9206 5.1544 12.2966 5.10444C12.2966 5.10444 12.2966 5.10444 12.3268 5.08882L12.2543 5.09564C12.2543 5.09564 12.2412 5.01472 12.2592 4.97469C12.2592 4.97469 12.2851 4.98321 12.2946 4.99144L12.3565 4.9199L12.4057 4.92075C12.3978 4.87221 12.3054 4.80606 12.4011 4.79158C12.3139 4.75779 12.3906 4.72685 12.3456 4.70186C12.3456 4.70186 12.3715 4.71038 12.3879 4.71067C12.4155 4.67887 12.4489 4.58263 12.4341 4.54203C12.4341 4.54203 12.184 4.5619 12.0735 4.53577C12.1338 4.50455 12.0872 4.51988 12.0449 4.51107L12.064 4.52754C12.064 4.52754 11.9794 4.50994 11.9561 4.5176C11.9561 4.5176 11.9561 4.5176 11.9656 4.52584C11.9656 4.52584 11.9656 4.52584 11.9751 4.53407C11.9751 4.53407 11.9941 4.55054 11.9777 4.55025C11.9777 4.55025 11.9502 4.58205 11.9433 4.59L11.9053 4.55706C11.9512 4.63855 11.6794 4.62576 11.6493 4.64138C11.5742 4.63201 11.6037 4.7132 11.5503 4.73648C11.4926 4.78389 11.4752 4.72711 11.426 4.72626C11.3726 4.74954 11.4641 4.75919 11.4641 4.75919L11.3752 4.76572C11.3752 4.76572 11.3536 4.73307 11.3372 4.73279C11.3028 4.77253 11.1881 4.77054 11.2409 4.84407C11.1642 4.87502 11.1356 4.85032 11.1124 4.85798C11.1219 4.86622 11.152 4.8506 11.171 4.86707C11.1219 4.86622 11.1642 4.87502 11.1806 4.8753C11.1816 4.9318 10.9124 4.9352 10.9816 5.00902C10.9816 5.00902 11.0767 5.09135 11.0915 5.13195L11.0492 5.12315L11.0571 5.17169C11.0571 5.17169 11.0285 5.14699 11.019 5.13876C11.0132 5.20321 10.9433 5.2262 10.8994 5.25771L11.0929 5.34175C11.0929 5.34175 10.8988 5.35452 10.9395 5.40364L10.8713 5.38632C10.7142 5.37553 10.8611 5.4749 10.812 5.47405L10.7205 5.46439L10.7549 5.42464C10.7549 5.42464 10.6592 5.43912 10.6005 5.43003C10.6005 5.43003 10.6274 5.49505 10.6068 5.5189C10.5723 5.55864 10.5802 5.60719 10.4681 5.62138L10.5114 5.68668L10.4321 5.70144L10.3845 5.66028C10.4189 5.62053 10.4756 5.51662 10.5238 5.46098L10.5048 5.44451C10.5048 5.44451 10.4619 5.53252 10.4412 5.55637C10.4343 5.56432 10.3497 5.54671 10.3418 5.49817L10.3688 5.56318C10.2724 5.67447 10.2724 5.67447 10.1216 5.75254L10.1407 5.76901C10.1407 5.76901 10.1417 5.8255 10.0967 5.80052C10.0348 5.87206 9.93483 5.91067 9.83647 5.90896L9.89354 5.95836C9.89354 5.95836 9.76665 5.93196 9.84537 6.01401L9.83686 6.06227C9.83686 6.06227 9.83787 6.11877 9.78869 6.11791C9.72838 6.14914 9.83624 6.15908 9.76642 6.18207C9.71462 6.16504 9.81923 6.25561 9.78908 6.27122L9.69235 6.2292C9.60351 6.23573 9.67271 6.30954 9.61766 6.37314C9.5616 6.38023 9.48126 6.3385 9.44484 6.26525C9.48389 6.35468 9.47863 6.32232 9.47276 6.38676C9.44423 6.36206 9.43471 6.35383 9.41569 6.33736C9.35012 6.33622 9.42358 6.38591 9.40293 6.40976C9.46 6.45916 9.53183 6.54916 9.52495 6.5571L9.54397 6.57357C9.54397 6.57357 9.54073 6.6542 9.49418 6.66953L9.46564 6.64483L9.44763 6.68486L9.40959 6.65193L9.37781 6.70785C9.37781 6.70785 9.36505 6.78025 9.31587 6.7794L9.29685 6.76293C9.19162 6.76917 9.21953 6.89068 9.16711 6.97046L9.12907 6.93753C9.12907 6.93753 9.18613 6.98693 9.14646 6.99431L9.09891 6.95314C9.14484 7.03462 9.06187 6.9767 9.01958 6.9679L9.08615 7.02553L9.056 7.04115C9.00257 7.06443 8.95927 6.99913 8.92811 6.95824L8.95502 7.02326L8.89795 6.97386C8.94388 7.05534 8.8678 6.98947 8.87831 7.0542C8.85929 7.03774 8.84027 7.02127 8.84027 7.02127L8.86818 7.14278L8.85767 7.07805L8.94326 7.15215C8.97543 7.24953 8.90197 7.19985 8.89084 7.23193L8.87607 7.19133C8.87607 7.19133 8.82264 7.21461 8.79249 7.23022C8.81151 7.24669 8.84429 7.24726 8.84004 7.27139C8.83316 7.27934 8.81151 7.24669 8.78823 7.25435C8.8453 7.30375 8.8463 7.36025 8.79713 7.3594L8.77811 7.34293C8.77811 7.34293 8.79024 7.36735 8.76697 7.37501L8.70991 7.32561L8.75321 7.39091C8.72042 7.39034 8.75421 7.44741 8.71617 7.41447L8.72305 7.40652L8.60506 7.48516L8.55751 7.44399C8.6172 7.50958 8.4808 7.47494 8.5664 7.54904C8.4982 7.53172 8.52612 7.65323 8.44477 7.555C8.38284 7.62654 8.43403 7.74039 8.31766 7.77871C8.21405 7.74464 8.16425 7.8406 8.10657 7.88801C8.05515 8.02428 8.02175 8.12052 7.94443 8.24828C7.77525 8.21307 7.83796 8.44814 7.71633 8.4541L7.75012 8.51117C7.64226 8.50123 7.66592 8.64687 7.53478 8.6446C7.54004 8.67696 7.54267 8.69314 7.53579 8.70109C7.53579 8.70109 7.5453 8.70933 7.58071 8.72608C7.54793 8.72551 7.53254 8.78172 7.48499 8.74055C7.41841 8.68292 7.45584 8.81266 7.38764 8.79535L7.4447 8.84474L7.41455 8.86036L7.42143 8.85241C7.41432 9.11048 7.16217 9.01735 7.16194 9.26747C7.10913 9.19394 7.17246 9.3322 7.09637 9.26633C6.96686 9.22374 7.05346 9.35434 7.06135 9.40289C7.06135 9.40289 7.06134 9.40289 7.07085 9.41112L7.02268 9.46677C6.9551 9.35264 7.05485 9.56415 7.00629 9.46648C6.82273 9.54398 6.73103 9.78445 6.56487 9.91873L6.58389 9.9352C6.58389 9.9352 6.5436 10.0394 6.47803 10.0382C6.41246 10.0371 6.48004 10.1512 6.47579 10.1754C6.48631 10.2401 6.3827 10.206 6.39646 10.1901C6.37844 10.2302 6.42963 10.344 6.3503 10.3588C6.26045 10.3088 6.3094 10.5598 6.2238 10.4857C6.11169 10.4999 6.16125 10.654 6.05865 10.6765C6.05865 10.6765 6.05864 10.6765 6.04913 10.6682L6.19156 11.0418L6.5208 11.2573L6.86179 11.3439L7.09638 10.9768L7.41858 10.7969L7.94058 10.1362L7.91529 10.0309C8.13952 10.0025 8.14401 9.72827 8.34659 9.66723L8.28953 9.61783C8.32393 9.57809 8.35247 9.60279 8.36886 9.60307C8.66214 9.24508 8.9026 8.81355 9.24444 8.55322C9.31001 8.55436 9.37357 8.4425 9.43226 8.45159C9.45514 8.29061 9.55148 8.17933 9.65046 8.08422L9.69174 8.03653C9.69174 8.03653 9.70125 8.04476 9.71077 8.05299C9.71138 7.95618 9.83463 7.90991 9.90871 7.86278C10.2649 7.48974 10.4769 7.03352 10.8901 6.70988C11.1435 6.60938 11.1893 6.28744 11.4443 6.14663C11.5358 6.15628 11.8461 5.70176 11.8615 5.64555L11.8339 5.67734Z" fill="#232C6A"/>
</svg>
