<svg width="24" height="24" viewBox="0 0 24 24" fill="none" xmlns="http://www.w3.org/2000/svg">
<path d="M8.18386 6.87355C11.5792 10.1506 14.9261 13.8795 18.3126 17.1482C20.6134 19.6368 22.0584 23.0678 21.3389 23.3737C20.8861 23.1273 19.3015 21.5984 18.2026 20.5261C13.161 15.6066 8.13269 10.5329 3.12406 5.28214C2.21963 4.33667 3.33655 3.37196 4.00807 3.0078C5.40239 4.27095 6.79636 5.53884 8.18386 6.87355Z" fill="#232C6A"/>
<path d="M6.83575 16.7816C10.0822 13.3625 13.7466 9.9861 16.9849 6.57593C19.4343 4.25568 19.8004 3.72608 22.3605 4.15107C22.5444 4.54381 22.5444 4.54381 20.1243 6.643C15.2539 11.7205 10.2406 16.7866 5.06365 21.8354C4.13132 22.7471 3.29696 21.648 2.99632 20.9845C4.25258 19.5814 5.51324 18.1787 6.83575 16.7816Z" fill="#232C6A"/>
</svg>
