<svg width="24" height="24" viewBox="0 0 24 24" fill="none" xmlns="http://www.w3.org/2000/svg">
<g clip-path="url(#clip0_1128_3777)">
<path d="M10.7954 10.4166C10.7954 10.4166 10.818 10.4166 10.8255 10.4166C10.8481 10.4092 10.8481 10.3942 10.8406 10.3867C10.8105 10.3867 10.818 10.4092 10.7954 10.4092V10.4166Z" fill="#232C6A"/>
<path d="M10.931 5.5C10.931 5.5 10.9235 5.5 10.9159 5.5C10.9009 5.50748 10.9009 5.53741 10.9009 5.56733H10.9536L10.931 5.5Z" fill="#232C6A"/>
<path d="M12.1805 4.89431L12.0751 4.95416C12.0224 4.76712 12.1353 4.67735 12.045 4.51276H12.0676C12.0676 4.51276 11.8493 4.48284 12.1429 4.22099H12.1504C12.1504 4.22099 12.1278 4.21351 12.1504 4.19107L12.0826 4.23595C12.0826 4.23595 12.0074 4.18358 11.9998 4.14618C12.0149 4.1387 12.0375 4.1387 12.0525 4.1387L12.0375 4.04892L12.1052 4.019C12.0676 3.98907 11.917 4.00403 11.9998 3.92922C11.8944 3.95915 11.9396 3.89181 11.8869 3.89929C11.902 3.89929 11.917 3.88433 11.9396 3.88433C11.9245 3.83944 11.902 3.75715 11.8493 3.74219C11.8493 3.74219 11.6309 3.91426 11.5255 3.95915C11.5557 3.89929 11.5105 3.94418 11.4804 3.95915H11.503C11.4804 3.99655 11.4126 3.99655 11.3976 4.019H11.4126H11.4051H11.4277C11.4427 4.019 11.4503 4.019 11.4503 4.02648C11.4503 4.02648 11.4503 4.06388 11.4503 4.07885H11.3976C11.503 4.10877 11.2395 4.2584 11.2395 4.2958C11.1717 4.33321 11.2545 4.3781 11.2244 4.42299C11.2094 4.4978 11.1491 4.46039 11.0964 4.4978C11.0663 4.54269 11.1567 4.49032 11.1642 4.50528L11.0889 4.55765C11.0889 4.55765 11.0513 4.54269 11.0287 4.55017C11.0212 4.59506 10.9233 4.66987 11.0287 4.68483C10.976 4.74468 10.9308 4.74468 10.9308 4.77461C10.9534 4.76713 10.9685 4.74468 10.991 4.74468C10.9459 4.76713 11.0061 4.75964 11.0136 4.74468C11.0588 4.78209 10.8179 4.94668 10.9383 4.95416H10.9158C11.0061 4.96164 11.0889 4.95416 11.1416 4.9766L11.104 4.99156L11.1416 5.02149C11.1416 5.02149 11.0889 5.02897 11.0814 5.02897C11.119 5.07386 11.0739 5.13371 11.0588 5.18608L11.2997 5.12623C11.247 5.17111 11.1341 5.25341 11.2094 5.26089L11.1265 5.29082C10.976 5.38059 11.1943 5.35067 11.1491 5.38807L11.0588 5.43296V5.38807C11.0136 5.43296 10.9835 5.44792 10.9308 5.48533C10.9308 5.48533 10.9383 5.48533 10.9459 5.48533C10.991 5.50029 11.0212 5.52274 11.0136 5.55266C10.9986 5.59755 11.0663 5.63496 10.976 5.70229L11.0663 5.71725L11.0136 5.76962H10.9383C10.9383 5.71725 10.9158 5.61999 10.9082 5.54518H10.8781C10.8781 5.58259 10.9082 5.62747 10.9007 5.6574C10.8856 5.67236 10.8104 5.70229 10.7652 5.67984L10.8329 5.70229C10.8405 5.83695 10.848 5.83695 10.7652 5.9791L10.8028 5.96413C10.8028 5.96413 10.848 6.0165 10.7878 6.03146C10.7727 6.11376 10.7276 6.20353 10.6372 6.2559L10.72 6.27087C10.72 6.27087 10.5845 6.31575 10.705 6.32323L10.7426 6.36064C10.7426 6.36064 10.7878 6.39805 10.7426 6.42797C10.7426 6.42797 10.7426 6.42797 10.7351 6.42797C10.6974 6.48034 10.8104 6.42797 10.7652 6.48782C10.705 6.51027 10.8706 6.51027 10.8555 6.54019L10.7351 6.57012C10.6673 6.62249 10.7878 6.63745 10.7878 6.71974C10.7426 6.75715 10.6447 6.77959 10.5469 6.74967C10.6598 6.78707 10.6222 6.76463 10.6749 6.80952C10.6297 6.80952 10.6222 6.80952 10.577 6.80204C10.5243 6.84693 10.6146 6.82448 10.6146 6.86189C10.6974 6.86937 10.8405 6.88433 10.8405 6.89181L10.8706 6.87685C10.9158 6.90678 10.9383 6.94418 10.8932 6.98907H10.848L10.8706 7.02648H10.8179L10.8329 7.08633H10.848C10.848 7.08633 10.8706 7.1387 10.848 7.16114H10.8179C10.72 7.23595 10.848 7.2958 10.8555 7.3781L10.7953 7.36313C10.7351 7.39306 10.8932 7.37062 10.8631 7.40802H10.7878C10.8856 7.43795 10.7652 7.45291 10.7276 7.46787H10.8254L10.8028 7.4978C10.7727 7.54269 10.6749 7.52772 10.6222 7.52024L10.705 7.55017H10.6146C10.72 7.58009 10.5996 7.58009 10.6523 7.6175C10.6222 7.6175 10.5996 7.6175 10.5845 7.6175L10.7125 7.67735L10.6598 7.63994H10.7878C10.8856 7.68483 10.7727 7.69979 10.8104 7.72972L10.7727 7.70727C10.8028 7.75216 10.7501 7.75964 10.72 7.78209C10.7426 7.77461 10.7803 7.75964 10.7953 7.78209C10.7953 7.79705 10.7501 7.78957 10.7351 7.80453C10.8254 7.80453 10.8706 7.84194 10.8254 7.87186C10.8104 7.87186 10.8028 7.87186 10.7953 7.87186C10.8104 7.87934 10.8329 7.88683 10.8104 7.89431H10.7125L10.8028 7.90927C10.7727 7.92423 10.848 7.95416 10.7803 7.94668H10.7577L10.7351 8.06638H10.6598C10.7652 8.08134 10.6222 8.14119 10.7501 8.13371C10.6749 8.15615 10.8028 8.23097 10.6523 8.216C10.6372 8.2983 10.7878 8.35067 10.7125 8.44792C10.5845 8.48533 10.6297 8.58259 10.6146 8.64992C10.6673 8.7771 10.7125 8.86688 10.7577 8.99406C10.577 9.07635 10.8179 9.19605 10.72 9.27835L10.7878 9.30079C10.6749 9.36064 10.8104 9.44294 10.705 9.52523C10.7351 9.54767 10.7426 9.55515 10.7501 9.56264C10.7501 9.56264 10.7652 9.55515 10.8104 9.55515C10.7803 9.5776 10.8179 9.62249 10.7276 9.62249H10.72C10.6297 9.61501 10.7652 9.68982 10.6824 9.71226L10.7803 9.6973L10.7652 9.74219L10.7501 9.72722C10.9609 9.91426 10.6598 10.004 10.8555 10.1761C10.7501 10.1537 10.9082 10.2135 10.7953 10.2135C10.6523 10.2584 10.8254 10.2958 10.8631 10.3332C10.8631 10.3332 10.8781 10.3332 10.8856 10.3332L10.8706 10.4005C10.7276 10.3631 10.991 10.4454 10.8706 10.408C10.7652 10.5726 10.8706 10.7896 10.8254 10.9841H10.8631C10.8631 11.0215 10.9007 11.0888 10.8405 11.1262C10.7803 11.1636 10.9308 11.2085 10.9383 11.2235C10.9986 11.2609 10.8781 11.2983 10.8856 11.2833C10.9007 11.3282 11.0362 11.3656 10.976 11.4255C10.8555 11.4479 11.0964 11.5901 10.9609 11.5901H10.976C10.8781 11.6649 11.0437 11.7397 10.9534 11.822C10.9534 11.822 10.9459 11.822 10.9308 11.822L11.3449 11.9941L11.8041 11.9492L12.1805 11.7995L12.0977 11.403L12.2407 11.0888L12.188 10.3182L12.0826 10.2659C12.2633 10.1163 12.0525 9.92174 12.188 9.75715H12.0977C12.0977 9.70478 12.1504 9.71226 12.1654 9.6973C12.1429 9.27086 12.0299 8.82199 12.1429 8.44044C12.2031 8.40304 12.1654 8.29082 12.2332 8.26089C12.1203 8.13371 12.1278 7.99905 12.1353 7.87934H12.1429L12.1278 7.82697C12.1278 7.82697 12.1429 7.82697 12.1504 7.82697C12.0751 7.75964 12.1504 7.65491 12.1805 7.57261H12.188C12.2031 7.10129 12.0375 6.65989 12.1654 6.18109C12.3085 5.96413 12.1127 5.70229 12.2332 5.4554C12.3235 5.41052 12.2558 4.90179 12.2106 4.8569L12.1805 4.89431Z" fill="#232C6A"/>
<path d="M11.0366 5.19531L10.9839 5.21028L11.0366 5.19531Z" fill="#232C6A"/>
<path d="M11.0063 4.51953C11.0063 4.51953 11.0063 4.54946 11.0214 4.54946C11.0214 4.54198 11.0214 4.52701 11.0063 4.51953Z" fill="#232C6A"/>
<path d="M11.9924 3.89004C11.9924 3.89004 11.9699 3.88256 11.9473 3.89004C11.9473 3.90501 11.9473 3.91997 11.9473 3.91997C11.9548 3.91249 11.9774 3.90501 11.9849 3.89004H11.9924Z" fill="#232C6A"/>
<path d="M13.3325 11.3867C13.3325 11.3867 13.3325 11.4092 13.3325 11.4166C13.34 11.4391 13.3551 11.4391 13.3626 11.4316C13.3626 11.4017 13.34 11.4092 13.34 11.3867H13.3325Z" fill="#232C6A"/>
<path d="M18.2787 11.5143C18.2787 11.5143 18.2787 11.5068 18.2787 11.4993C18.2712 11.4844 18.2411 11.4844 18.2109 11.4844V11.5367L18.2787 11.5143Z" fill="#232C6A"/>
<path d="M18.2258 13.3109L18.1656 13.2062C18.3538 13.1538 18.4442 13.2661 18.6098 13.1763V13.1987C18.6098 13.1987 18.6399 12.9818 18.9034 13.2735C18.9034 13.2735 18.9109 13.2586 18.9335 13.2885L18.8883 13.2212C18.8883 13.2212 18.941 13.1464 18.9787 13.1389C18.9862 13.1538 18.9862 13.1763 18.9862 13.1912L19.0765 13.1763L19.1066 13.2436C19.1368 13.2062 19.1217 13.0566 19.197 13.1389C19.1669 13.0341 19.2346 13.079 19.2271 13.0267C19.2271 13.0416 19.2421 13.0566 19.2421 13.079C19.2873 13.0641 19.3701 13.0416 19.3852 12.9892C19.3852 12.9892 19.212 12.7723 19.1669 12.6676C19.2271 12.6975 19.1819 12.6526 19.1669 12.6227V12.6451C19.1292 12.6227 19.1292 12.5553 19.1066 12.5404V12.5553C19.1066 12.5553 19.1066 12.5628 19.1066 12.5703C19.1066 12.5853 19.1066 12.5927 19.0991 12.5927C19.0991 12.5927 19.0539 12.5853 19.0464 12.5778V12.5254C19.0163 12.6301 18.8657 12.3683 18.8281 12.3683C18.7905 12.301 18.7453 12.3833 18.7001 12.3533C18.6248 12.3384 18.6625 12.2785 18.6248 12.2262C18.5797 12.1887 18.6324 12.286 18.6173 12.2935L18.5646 12.2187C18.5646 12.2187 18.5797 12.1813 18.5721 12.1588C18.527 12.1513 18.4517 12.0541 18.4366 12.1588C18.3764 12.1065 18.3764 12.0616 18.3463 12.0616C18.3538 12.084 18.3764 12.099 18.3764 12.1214C18.3538 12.0765 18.3613 12.1364 18.3764 12.1439C18.3388 12.1887 18.1731 11.9493 18.1656 12.069V12.0466C18.1581 12.1364 18.1656 12.2187 18.143 12.271L18.128 12.2336L18.0979 12.271C18.0979 12.271 18.0903 12.2187 18.0903 12.2112C18.0452 12.2486 17.9849 12.2037 17.9322 12.1887L17.9925 12.4281C17.9473 12.3758 17.8645 12.2636 17.857 12.3384L17.8268 12.2561C17.7365 12.1065 17.7666 12.3234 17.729 12.2785L17.6838 12.1887H17.729C17.6838 12.1439 17.6687 12.1139 17.6311 12.0616C17.6311 12.0616 17.6311 12.069 17.6311 12.0765C17.6311 12.1214 17.601 12.1513 17.5709 12.1513C17.5257 12.1364 17.4881 12.2037 17.4203 12.1139L17.4053 12.2037L17.3526 12.1513V12.0765C17.4053 12.0765 17.5107 12.0541 17.5784 12.0466V12.0167C17.5408 12.0167 17.4956 12.0466 17.4655 12.0391C17.4504 12.0242 17.4203 11.9493 17.4429 11.9045L17.4203 11.9718C17.2848 11.9793 17.2848 11.9868 17.1418 11.9045L17.1568 11.9419C17.1568 11.9419 17.1041 11.9868 17.0891 11.9269C17.0063 11.9119 16.9159 11.8671 16.8632 11.7773L16.8482 11.8596C16.8482 11.8596 16.803 11.7249 16.7955 11.8446L16.7578 11.882C16.7578 11.882 16.7202 11.9269 16.6901 11.882C16.6901 11.882 16.6901 11.882 16.6901 11.8745C16.6374 11.8371 16.6901 11.9493 16.6298 11.9045C16.6073 11.8446 16.6073 12.0092 16.5772 11.9942L16.547 11.8745C16.4943 11.8072 16.4793 11.9269 16.3965 11.9269C16.3588 11.882 16.3362 11.7848 16.3664 11.6875C16.3287 11.7997 16.3513 11.7623 16.3061 11.8147C16.3061 11.7698 16.3061 11.7623 16.3137 11.7174C16.2685 11.6651 16.2911 11.7548 16.2534 11.7548C16.2459 11.8371 16.2309 11.9793 16.2233 11.9793L16.2384 12.0092C16.2083 12.0541 16.1706 12.0765 16.1255 12.0316V11.9868L16.0878 12.0092V11.9568L16.0276 11.9718V11.9868C16.0276 11.9868 15.9749 12.0167 15.9523 11.9868V11.9568C15.877 11.8596 15.8168 11.9868 15.734 11.9942L15.749 11.9344C15.7189 11.8745 15.7415 12.0316 15.7039 12.0017V11.9269C15.6738 12.0242 15.6587 11.9045 15.6437 11.8671V11.9643L15.6135 11.9419C15.5684 11.9119 15.5834 11.8147 15.591 11.7623L15.5608 11.8446V11.7548C15.5307 11.8596 15.5307 11.7399 15.4931 11.7922C15.4931 11.7623 15.4931 11.7399 15.4931 11.7249L15.4329 11.8521L15.4705 11.7997V11.9269C15.4253 12.0242 15.4103 11.9119 15.3802 11.9493L15.4027 11.9119C15.3576 11.9419 15.3501 11.8895 15.3275 11.8596C15.335 11.882 15.3501 11.9194 15.3275 11.9344C15.3124 11.9344 15.3199 11.8895 15.3049 11.8745C15.3049 11.9643 15.2672 12.0092 15.2371 11.9643C15.2371 11.9493 15.2371 11.9419 15.2371 11.9344C15.2296 11.9493 15.2221 11.9718 15.2145 11.9493V11.8521L15.1995 11.9419C15.1844 11.9119 15.1543 11.9868 15.1618 11.9194V11.897L15.0414 11.8745V11.7997C15.0263 11.9045 14.9661 11.7623 14.9736 11.8895C14.9511 11.8147 14.8758 11.9419 14.8908 11.7922C14.808 11.7773 14.7553 11.9269 14.6575 11.8521C14.6198 11.7249 14.5219 11.7698 14.4542 11.7548C14.3262 11.8072 14.2359 11.8521 14.1079 11.897C14.0251 11.7174 13.9046 11.9568 13.8218 11.8596L13.7992 11.9269C13.739 11.8147 13.6562 11.9493 13.5734 11.8446C13.5508 11.8745 13.5433 11.882 13.5357 11.8895C13.5357 11.8895 13.5433 11.9045 13.5433 11.9493C13.5207 11.9194 13.4755 11.9568 13.4755 11.8671C13.4755 11.7698 13.4078 11.897 13.3777 11.8222L13.3927 11.9194L13.3475 11.9045L13.3626 11.8895C13.1744 12.099 13.0841 11.7997 12.9109 11.9942C12.9335 11.8895 12.8733 12.0466 12.8733 11.9344C12.8281 11.7922 12.7905 11.9643 12.7528 12.0017C12.7528 12.0017 12.7528 12.0167 12.7528 12.0242L12.6851 12.0092C12.7227 11.8671 12.6399 12.1289 12.6775 12.0092C12.5119 11.9045 12.2936 12.0092 12.0979 11.9643V12.0017C12.0602 12.0017 11.9925 12.0391 11.9548 11.9793C11.9172 11.9194 11.872 12.069 11.857 12.0765C11.8193 12.1364 11.7817 12.0167 11.7967 12.0167C11.7516 12.0316 11.7139 12.1663 11.6537 12.1065C11.6311 11.9868 11.4881 12.2262 11.4881 12.0915V12.1065C11.4128 12.0092 11.3375 12.1738 11.2547 12.084C11.2547 12.084 11.2547 12.0765 11.2547 12.0616L11.0815 12.473L11.1267 12.9294L11.2773 13.3035L11.6763 13.2212L11.9925 13.3633L12.7679 13.3109L12.8206 13.2062C12.9711 13.3858 13.1669 13.1763 13.3325 13.3109V13.2212C13.3852 13.2212 13.3777 13.2735 13.3927 13.2885C13.8218 13.2661 14.2735 13.1538 14.6575 13.2661C14.6951 13.3259 14.808 13.2885 14.8381 13.3558C14.9661 13.2436 15.1016 13.2511 15.2221 13.2586H15.2823C15.2823 13.2586 15.2823 13.2735 15.2823 13.281C15.3501 13.2062 15.4554 13.281 15.5383 13.3109C16.0201 13.3334 16.4642 13.1688 16.9385 13.296C17.1568 13.4381 17.4203 13.2436 17.6687 13.3633C17.7139 13.4531 18.2258 13.3858 18.271 13.3409L18.2258 13.3109Z" fill="#232C6A"/>
<path d="M18.5871 11.6266H18.5946L18.5796 11.5742L18.5871 11.6266Z" fill="#232C6A"/>
<path d="M19.265 11.5977C19.265 11.5977 19.2349 11.5977 19.2349 11.6126C19.2424 11.6126 19.2574 11.6126 19.265 11.5977Z" fill="#232C6A"/>
<path d="M19.8973 12.5761C19.8973 12.5761 19.9048 12.5537 19.8973 12.5312C19.8822 12.5312 19.8672 12.5312 19.8672 12.5312C19.8747 12.5387 19.8822 12.5612 19.8973 12.5687V12.5761Z" fill="#232C6A"/>
<path d="M4.41162 19.1602L4.42668 19.1751C4.42668 19.1751 4.47185 19.1751 4.4869 19.1751L4.41162 19.1602Z" fill="#232C6A"/>
<path d="M7.12939 21.3516L7.14445 21.3665C7.14445 21.3665 7.15951 21.3516 7.12939 21.3516Z" fill="#232C6A"/>
<path d="M15.6435 1.90234C15.6435 1.90234 15.6359 1.90234 15.6284 1.90234C15.6359 1.90983 15.651 1.91731 15.6585 1.92479L15.6435 1.90234Z" fill="#232C6A"/>
<path d="M15.5681 1.90128C15.5004 1.86388 15.5983 1.88632 15.6284 1.8938C15.5531 1.84143 15.4703 1.81151 15.3875 1.78906C15.3799 1.81899 15.538 1.87136 15.5681 1.90128Z" fill="#232C6A"/>
<path d="M22.7953 10.5921L22.7803 10.5547C22.7803 10.5547 22.7878 10.5771 22.7953 10.5921Z" fill="#232C6A"/>
<path d="M0.00752823 12.2903C0.00752823 12.2903 0.00752823 12.2529 0 12.2305C0 12.2604 0 12.2754 0.00752823 12.2903Z" fill="#232C6A"/>
<path d="M10.2007 22.4141C10.2007 22.4141 10.2007 22.4365 10.2157 22.4515H10.2233L10.2007 22.4141Z" fill="#232C6A"/>
<path d="M23.2021 14.238H23.187L23.2021 14.3128C23.2021 14.3128 23.2096 14.2529 23.2021 14.2305V14.238Z" fill="#232C6A"/>
<path d="M14.6952 22.4368L14.7103 22.4219C14.6275 22.4219 14.4317 22.4817 14.1758 22.5341V22.5865C14.3489 22.5491 14.5221 22.4892 14.6952 22.4368Z" fill="#232C6A"/>
<path d="M19.9047 21.1426C19.7542 21.2398 19.581 21.3146 19.4154 21.3969C20.0779 20.8433 20.5446 20.4244 20.9511 19.983C21.3727 19.5565 21.719 19.0927 22.0954 18.4718L22.0729 18.554C22.1406 18.4718 22.1406 18.367 22.3062 18.0603C22.4718 17.7535 22.8031 17.2373 23.3677 16.1825H23.3752C23.4053 16.1077 23.3752 16.1002 23.4656 15.958L23.2623 16.3171C23.3225 16.0777 23.3451 15.8608 23.4505 15.554C23.4882 15.4942 23.5107 15.4718 23.5258 15.4718L23.7065 14.6937L23.8345 14.4693C23.8495 14.2224 23.6764 14.3047 23.857 13.6762C23.7215 13.9007 23.842 13.3471 23.7818 13.4219C23.7968 13.3845 23.8269 13.3171 23.857 13.2648C23.8796 12.8832 23.8796 12.1575 23.8345 11.978C23.8345 11.978 23.7592 12.3371 23.6764 12.7635C23.6086 13.1825 23.4279 13.6239 23.3527 13.8109C23.458 13.2947 23.3602 13.6762 23.315 13.766L23.3376 13.8034C23.2623 14.1102 23.2021 14.0952 23.1569 14.2448C23.1569 14.2448 23.172 14.2448 23.1795 14.2448V14.2224C23.1795 14.2224 23.1946 14.2224 23.1946 14.2373C23.2096 14.2373 23.2171 14.2523 23.1946 14.3346V14.3196C23.172 14.4468 23.1042 14.6638 23.0741 14.7535L23.0214 14.7386C23.0967 15.0004 22.4192 16.16 22.2761 16.4219C22.0729 16.6613 22.0051 17.0503 21.7868 17.3645C21.4555 17.8732 21.5609 17.5815 21.3652 17.8134C21.1394 18.1201 21.4555 17.7835 21.3803 17.9107C21.2824 18.0304 21.1845 18.1426 21.0641 18.2473C21.2146 18.0378 21.1017 18.1276 21.0641 18.1575C20.8156 18.4568 20.3941 18.8982 20.379 19.0403C19.9875 19.392 19.9574 19.362 19.7993 19.5266C19.8671 19.4817 19.98 19.3845 19.9951 19.3994C19.8219 19.5191 19.9348 19.4817 19.9951 19.4219C19.8294 19.7136 18.6626 20.4019 18.6701 20.5067L18.655 20.4917C18.655 20.6039 18.7981 20.6039 18.6475 20.776L18.5045 20.8358L18.3464 21.0004C18.2109 21.0678 18.256 21.0004 18.2485 21.0004C17.9549 21.2249 17.5032 21.4718 17.0967 21.6513C17.2774 21.6588 17.4505 21.6513 17.6312 21.6363C17.2774 21.8009 16.5998 21.958 16.5697 22.0703L16.3288 22.0927C15.5609 22.2049 15.8545 22.3321 15.5534 22.392C15.4254 22.4069 15.2974 22.4294 15.1695 22.4219C15.2899 22.3994 15.4104 22.3545 15.5308 22.3097C15.1695 22.4069 15.0038 22.3845 14.7027 22.4069H14.7404L14.6877 22.4219C14.6575 22.4742 14.4769 22.5565 14.2134 22.6089C13.8445 22.6463 13.5584 22.781 12.9562 22.7361L12.8131 22.8333L12.3614 22.8034V22.7286C12.5798 22.7136 12.8959 22.7062 13.2197 22.6688C13.5434 22.6164 13.8897 22.5565 14.1607 22.5117V22.4817C13.837 22.5341 13.4681 22.6164 13.2498 22.6463C13.1444 22.6613 12.8658 22.579 13.054 22.5266L12.8583 22.6089C12.3087 22.6388 12.0302 22.6688 11.7441 22.6314C11.4656 22.5939 11.172 22.6089 10.6074 22.4742L10.6977 22.5266C10.4718 22.5117 10.2385 22.4967 10.1858 22.4294C9.84701 22.392 9.51576 22.2648 9.20711 22.1675C8.89845 22.0777 8.64249 21.9431 8.45428 21.8234L8.33383 21.8683C8.19832 21.8159 8.04776 21.6214 7.93484 21.7112C7.83697 21.6887 7.7391 21.6438 7.64123 21.6139C7.46808 21.5241 7.33258 21.5166 7.1519 21.3745L7.12179 21.3446C6.73785 21.1201 7.08415 21.4269 6.66256 21.1276C6.54964 20.9929 6.45177 21.1276 6.24851 20.978L6.09795 20.7461C5.77423 20.4244 5.63873 20.4842 5.12681 20.0727C4.92354 19.8259 4.87837 19.6538 5.09669 19.7211C4.81062 19.6164 4.95366 19.6912 4.63747 19.4742C4.62994 19.3994 4.66006 19.4219 4.75039 19.4518C4.5396 19.1974 4.57724 19.3396 4.4041 19.1526C4.29117 19.1526 4.13308 19.19 4.07285 19.1301L4.11802 19.2199C3.90723 19.0478 3.66633 18.8533 3.52329 18.569L3.56093 18.554L3.34261 18.2997L3.37273 18.2473C3.27486 18.1201 3.16947 18.0004 3.07913 17.8732L3.10171 17.9406C3.03396 17.8508 2.8307 17.5441 2.74036 17.3496H2.77047C2.65002 17.0728 2.52957 16.8333 2.38653 16.5865C2.24349 16.3396 2.07787 16.0927 1.96495 15.7635L2.05529 15.8234C2.0327 15.5765 1.94236 15.7934 1.87461 15.5241L1.94236 15.4867C1.76169 15.2847 1.8445 15.18 1.83697 15.0079L1.76169 15.1127L1.70146 14.7984C1.64876 14.4468 1.76921 14.559 1.83697 14.5964L1.70146 14.387L1.77674 14.3196C1.63371 14.17 1.7391 14.155 1.64123 13.8633C1.67135 13.8333 1.70146 13.9082 1.70146 13.8034L1.4982 13.3246L1.59607 13.6164L1.46056 13.6014C1.31752 13.3022 1.40033 13.175 1.34763 12.9506C1.36269 13.0029 1.37775 13.0553 1.40033 13.1002C1.34011 12.7336 1.40033 12.7037 1.41539 12.5017C1.3928 12.569 1.36269 12.6663 1.34011 12.5166C1.32505 12.4044 1.38527 12.4568 1.3928 12.3521C1.30999 12.3296 1.22718 12.0603 1.28741 11.8209C1.30246 11.8209 1.30999 11.8284 1.31752 11.8433C1.30999 11.7835 1.28741 11.7461 1.31752 11.6413L1.40786 11.7087L1.32505 11.4992C1.35516 11.3645 1.30246 11.155 1.36269 11.1775L1.37775 11.2598C1.38527 10.9082 1.46056 10.5715 1.52078 10.2274H1.59607C1.4982 10.1077 1.72405 9.68123 1.59607 9.68871C1.71652 9.51664 1.7391 8.92562 1.85203 9.08273C1.92731 8.75355 2.01765 8.50667 2.0854 8.22986C2.14563 7.95305 2.25855 7.66876 2.47687 7.31714C2.70272 7.10018 3.07913 6.38946 3.38778 5.96302C3.67386 5.52911 3.90723 5.17749 4.19331 4.85579C4.44927 4.51165 4.77298 4.2124 5.15692 3.83834C5.46558 3.70367 5.77423 3.46427 6.09042 3.20243C6.42919 2.97799 6.7529 2.71614 7.09167 2.60392L7.23471 2.46178C7.6864 2.34208 8.29619 1.96053 8.94362 1.87076C9.08665 1.80342 9.16947 1.7735 9.19958 1.75854C9.16947 1.75854 9.1243 1.75854 9.09418 1.72113C9.28239 1.70617 9.63622 1.5715 9.62869 1.66876L9.58352 1.6912C9.58352 1.73609 9.7115 1.6912 9.87712 1.63884C10.0427 1.60143 10.2385 1.55654 10.3439 1.57899L10.2159 1.50417L10.5622 1.46677L10.4718 1.49669C10.8407 1.37699 11.172 1.33958 11.4731 1.32462C11.7742 1.30218 12.0528 1.2947 12.3238 1.3321C12.6023 1.35455 12.8734 1.37699 13.1519 1.39943C13.438 1.44432 13.7466 1.47425 14.1155 1.47425C13.9047 1.54158 14.4091 1.47425 14.3941 1.60143C14.7102 1.83335 15.049 1.72113 15.3501 1.78846C15.3501 1.78846 15.3501 1.78098 15.3727 1.7735L15.8545 1.96801C15.5082 1.99794 16.2535 1.98298 15.9373 1.99794C17.1569 2.56652 18.7454 3.41938 19.7767 4.61639L19.7542 4.54158C20.0176 4.84083 20.3941 5.17001 20.5145 5.4543C20.6425 5.7311 20.9963 5.91814 21.0565 6.02288C21.2824 6.27724 21.3351 6.59893 21.2673 6.47175C21.4781 6.75604 21.7416 6.99544 21.8997 7.47425C21.8997 7.6538 22.4944 8.6937 22.3815 8.74607H22.3966C22.4267 9.06776 22.5245 9.35953 22.6149 9.65878C22.7052 9.95804 22.7579 10.2797 22.7655 10.6164C22.7655 10.6164 22.7504 10.6014 22.7429 10.5865C22.9612 11.0204 23.0816 11.4842 23.2623 11.963L23.699 11.5366C23.8043 11.1027 23.9097 10.6538 23.9474 10.1974C23.7592 9.00791 23.3677 7.84831 22.8106 6.78597C22.4568 5.88821 21.9373 5.07275 21.3803 4.27973C20.6048 3.38946 19.7165 2.59644 18.7378 1.93809C17.7441 1.2947 16.6601 0.808412 15.5308 0.456791L15.0114 0.426866C13.7617 -0.104306 11.9399 -0.0220121 10.4568 0.0602822L10.4417 0.150058C10.0277 0.217389 10.0503 0.157539 9.93734 0.157539C7.99506 0.479235 6.15817 1.39195 4.645 2.574C3.11677 3.75604 1.98001 5.29719 1.16696 6.84582C0.933581 7.11514 0.624923 8.10268 0.474359 8.3346C0.25604 9.46427 0.0452496 10.6463 0.0226649 11.791V11.7461C0.00760849 11.9256 0.022665 12.1052 0.0377214 12.2847C0.0377214 12.3072 0.0226649 12.3072 0.0151367 12.2922C0.0753626 12.5915 0.0678343 12.9805 0.113004 13.3845C0.165701 13.7885 0.180758 14.2149 0.25604 14.5815L0.233455 14.5441C0.707734 16.6688 1.74663 18.569 3.19205 20.0727C4.60736 21.6064 6.43672 22.7136 8.46934 23.4393C10.374 24.1501 12.7981 24.1501 15.049 23.6638C15.2598 23.6563 16.5245 23.3496 17.6538 22.7286C18.7905 22.1301 19.7767 21.3072 19.9123 21.1501L19.9047 21.1426Z" fill="#232C6A"/>
<path d="M23.5332 15.4625V15.4774C23.5332 15.4774 23.5558 15.455 23.5332 15.4625Z" fill="#232C6A"/>
<path d="M17.0818 21.6673L17.1043 21.6523H16.9839L17.0818 21.6673Z" fill="#232C6A"/>
<path d="M21.1845 17.9688C21.0414 18.1707 21.0264 18.1782 21.064 18.1633C21.1242 18.0959 21.1619 18.0286 21.1845 17.9688Z" fill="#232C6A"/>
<path d="M23.9171 13.2645C23.9397 13.1224 23.9171 13.1747 23.8719 13.257C23.8569 13.3992 23.8418 13.5039 23.8418 13.5039C23.8644 13.4366 23.8945 13.3318 23.9171 13.272V13.2645Z" fill="#232C6A"/>
<path d="M23.3224 13.7675L23.2998 13.7227C23.2998 13.805 23.2998 13.805 23.3224 13.7675Z" fill="#232C6A"/>
</g>
<defs>
<clipPath id="clip0_1128_3777">
<rect width="24" height="24" fill="white"/>
</clipPath>
</defs>
</svg>
