<svg width="24" height="22" viewBox="0 0 24 22" fill="none" xmlns="http://www.w3.org/2000/svg">
<g clip-path="url(#clip0_1128_3833)">
<path d="M6.62305 18.7074C6.62305 18.7074 6.63386 18.7074 6.63927 18.7074C6.65008 18.6969 6.66089 18.6863 6.67171 18.6758L6.62305 18.7074Z" fill="#232C6A"/>
<path d="M9.28857 18.7857C9.28857 18.7857 9.29939 18.7857 9.30479 18.7857C9.30479 18.7804 9.30479 18.7699 9.28857 18.7857Z" fill="#232C6A"/>
<path d="M0.286799 19.543C0.270579 19.5693 0.265172 19.5851 0.259766 19.601C0.265172 19.5851 0.270579 19.5641 0.286799 19.543Z" fill="#232C6A"/>
<path d="M14.0787 21.8412C14.0787 21.8412 14.0733 21.8412 14.0679 21.8412C14.0787 21.8412 14.0841 21.8412 14.0949 21.8465L14.0787 21.8359V21.8412Z" fill="#232C6A"/>
<path d="M14.0303 21.8629C13.9708 21.8524 14.0465 21.8471 14.0735 21.8418C14.0087 21.826 13.9438 21.826 13.8789 21.8313C13.8789 21.8524 14.0033 21.8471 14.0303 21.8629Z" fill="#232C6A"/>
<path d="M1.20564 19.918L1.19482 19.9338C1.19482 19.9338 1.20564 19.9232 1.20564 19.918Z" fill="#232C6A"/>
<path d="M21.5401 21.7695L21.5239 21.8012C21.5239 21.8012 21.5401 21.7801 21.5401 21.7695Z" fill="#232C6A"/>
<path d="M6.67188 18.6746L6.6935 18.6641C6.6935 18.6641 6.68269 18.6693 6.67188 18.6746Z" fill="#232C6A"/>
<path d="M11.7486 18.8047C11.7486 18.8047 11.754 18.8205 11.7594 18.8258H11.7648L11.7432 18.8047H11.7486Z" fill="#232C6A"/>
<path d="M23.8596 19.8937C23.8596 19.8937 23.865 19.8885 23.8704 19.8832L23.8271 19.8516C23.8271 19.8516 23.8488 19.8885 23.8596 19.8937Z" fill="#232C6A"/>
<path d="M15.1223 18.9391C15.1223 18.9391 15.1331 18.9338 15.1331 18.9285C15.0736 18.918 14.9222 18.918 14.7276 18.918L14.7168 18.9549L15.1223 18.9391Z" fill="#232C6A"/>
<path d="M18.8151 19.8184L18.4528 19.7446C19.6099 19.7077 20.1451 19.7868 21.1345 19.7235L21.0805 19.7394C21.2264 19.7552 21.3075 19.5865 22.8971 19.7921C22.9566 19.7973 22.9457 19.7868 22.9944 19.8079C22.9728 19.7973 22.962 19.7921 22.9241 19.7815L22.789 19.7604C22.9836 19.7446 23.016 19.6972 23.1458 19.7394C23.1674 19.7552 23.1674 19.7763 23.162 19.7868C23.2485 19.8184 23.3296 19.8817 23.3891 19.9555C23.3891 19.9871 23.3891 20.0188 23.3891 20.0504C23.4377 20.1189 23.5621 20.0188 23.5134 20.3298C23.5891 20.1664 23.5567 20.5407 23.5945 20.488C23.5837 20.5143 23.5729 20.5565 23.5567 20.5987C23.5675 20.8517 23.5837 21.3368 23.6216 21.4528C23.6216 21.4528 23.7784 20.4458 23.8541 20.1927C23.8378 20.5407 23.8703 20.2771 23.8865 20.2138L23.8649 20.1927C23.8649 19.9977 23.8865 19.9819 23.8649 19.8764C23.8649 19.8764 23.8595 19.8817 23.8541 19.887L23.8649 19.8975C23.8649 19.8975 23.8541 19.9081 23.8432 19.8975C23.8324 19.9028 23.827 19.8975 23.8 19.8448H23.8108C23.7676 19.7763 23.6865 19.6497 23.6432 19.6023L23.6702 19.5759C23.5891 19.5443 23.4107 19.3387 23.1242 19.2543C22.8322 19.1805 22.5511 19.1594 22.4375 19.1542C22.2159 19.1067 21.9455 19.1647 21.6698 19.1436C21.2318 19.1331 21.4481 19.0909 21.2318 19.054C20.9561 19.0276 21.2859 19.0962 21.1778 19.1014L20.848 19.0487C21.0372 19.0487 20.9345 19.0224 20.902 19.0066C20.6155 19.0013 20.1667 18.9327 20.0802 19.0066C19.6964 18.9696 19.6964 18.938 19.5288 18.938C19.5828 18.9538 19.6964 18.9644 19.6964 18.9802C19.5396 18.9486 19.6207 18.9907 19.6856 18.996C19.4477 19.0276 18.4637 18.8589 18.415 18.9433V18.9275C18.3609 18.9907 18.4474 19.0487 18.2852 19.0856L18.1771 19.0593L18.0095 19.0856C17.9014 19.0645 17.9554 19.0487 17.9554 19.0435C17.6851 19.0698 17.312 19.0382 16.9876 19.0276L17.3337 19.1963C17.0579 19.1594 16.5659 19.0804 16.5065 19.1331L16.3389 19.0751C15.7874 18.9696 15.955 19.1225 15.7333 19.0909L15.4576 19.0276H15.7333C15.4576 18.996 15.3494 18.9749 15.1278 18.938C15.1278 18.938 15.1548 18.9433 15.1548 18.9486H15.117C15.0845 18.9802 14.9385 19.0013 14.7439 19.0013C14.4682 18.9907 14.2519 19.0382 13.814 18.9749L13.7058 19.0382L13.376 19.0013V18.9486C13.7004 18.9486 14.3114 18.938 14.7223 18.9275V18.9064C14.4844 18.9064 14.2032 18.9275 14.041 18.9222C13.9599 18.9117 13.7599 18.8589 13.9059 18.8273L13.7545 18.8748C12.9327 18.88 12.9273 18.8853 12.0676 18.8273L12.1433 18.8537C11.9703 18.8695 11.8027 18.8853 11.754 18.8431C11.2404 18.8326 10.7052 18.8009 10.3699 18.7377L10.2942 18.7957C10.1861 18.7957 10.0239 18.7008 9.96985 18.7851L9.73736 18.8115C9.58598 18.8115 9.49947 18.8431 9.32646 18.8115C9.32646 18.8115 9.30483 18.8115 9.29402 18.8062C8.95881 18.7851 9.29402 18.8642 8.91015 18.8326C8.7858 18.7904 8.77499 18.9064 8.58575 18.8958L8.39652 18.8115C8.0559 18.764 7.99643 18.8484 7.50443 18.8484C7.26654 18.8168 7.153 18.7482 7.30979 18.6797C7.09353 18.7588 7.21247 18.7324 6.92592 18.7693C6.88267 18.7377 6.9097 18.7324 6.97458 18.7008C6.72047 18.6639 6.81779 18.7271 6.62856 18.7271C6.57449 18.7851 6.50961 18.8853 6.44473 18.8853L6.52042 18.9064C6.31497 18.938 6.0933 18.9538 5.86082 18.9222L5.87163 18.8906L5.62292 18.9064L5.6067 18.8695L5.24987 18.88L5.29853 18.8906C5.21202 18.8906 4.93628 18.9064 4.77949 18.8906V18.8695C4.34155 18.8009 3.9739 18.8906 3.44946 18.8958L3.51975 18.8537C3.34133 18.8115 3.47109 18.9222 3.26023 18.9011L3.24942 18.8484C3.06018 18.9169 3.00612 18.8326 2.88177 18.8062L2.94124 18.8748L2.69794 18.8589C2.43302 18.8378 2.53574 18.7693 2.57359 18.7324L2.38976 18.7904L2.35192 18.7271C2.21675 18.8009 2.21675 18.7166 1.98427 18.7535C1.96264 18.7324 2.02211 18.7166 1.94642 18.706L1.56255 18.7957L1.79503 18.7588L1.768 18.8484C1.55174 18.9169 1.38954 18.8326 1.15705 18.9169C1.21112 18.8958 1.25978 18.8695 1.31925 18.8537C0.929975 18.9591 0.902942 18.9644 0.692083 19.0593C0.762369 19.0329 0.870502 19.0013 0.735336 19.0962C0.643424 19.17 0.659644 19.1067 0.567731 19.17C0.583951 19.2332 0.400126 19.4389 0.26496 19.655C0.259553 19.6497 0.254147 19.6392 0.254147 19.6234C0.23252 19.6866 0.23252 19.7183 0.178454 19.8237L0.135201 19.7341C0.124388 19.8132 0.124388 19.887 0.135201 19.9661C0.0811349 20.1031 0.129795 20.3245 0.0811349 20.2929C0.0811349 20.2771 0.0757283 20.2402 0.0703216 20.2138L0.0486951 21.1048L-0.00537109 21.1364C0.0703216 21.2471 -0.0324042 21.9325 0.0595084 21.8112C0.0541018 21.8482 0.0486951 21.8903 0.0486951 21.9378C0.362279 21.9589 0.967821 21.9009 0.800216 21.9958C0.924568 21.9958 1.0327 21.9958 1.14624 21.9958C1.20031 21.9958 1.25978 21.9905 1.31385 21.9852C1.41657 21.9747 1.5247 21.9694 1.63284 21.9589C1.84369 21.943 2.07618 21.9272 2.38976 21.9589C2.61143 22.0485 3.22779 22.0169 3.63329 22.0274C4.42265 21.9905 4.95791 21.9641 5.74187 21.9272C6.22847 22.0538 6.95295 21.8851 7.4774 21.9536L7.61797 21.9061C7.96399 21.9852 8.49384 21.8903 8.98584 21.9641C9.10479 21.943 9.16967 21.9378 9.1967 21.9325C9.17508 21.9325 9.14264 21.922 9.13182 21.8903C9.27239 21.9114 9.55354 21.8851 9.53191 21.9483H9.49407C9.47244 22.0169 9.91578 21.9272 10.0726 21.98L9.98607 21.9114L10.251 21.922L10.1807 21.9325C11.3269 21.7849 11.8459 21.9958 12.9165 21.8587C12.7759 21.9325 13.1273 21.8218 13.1435 21.9009C13.4139 22.001 13.6464 21.8798 13.868 21.8534C13.868 21.8534 13.868 21.8429 13.8842 21.8376L14.2735 21.8482C14.041 21.9483 14.5547 21.7638 14.3384 21.8482C15.3548 21.922 16.6741 21.8482 17.8473 21.8798L17.7932 21.8534C18.0906 21.8534 18.4637 21.8271 18.6853 21.8692C18.9124 21.9114 19.1773 21.806 19.2692 21.8007C19.5179 21.7585 19.7396 21.8429 19.6369 21.8429C19.9018 21.8323 20.1505 21.7374 20.5182 21.7796C20.6425 21.864 21.5184 21.6953 21.5292 21.7902V21.7796C22.005 21.8482 22.4483 21.7322 22.9512 21.7954C22.9512 21.7954 22.9403 21.8007 22.9241 21.8112L23.9568 21.5213L23.6648 21.1997L22.7727 20.9361L20.3506 20.9941L18.4204 20.8939L13.7166 20.9308L13.3814 21.0046C12.4569 20.8781 11.2728 21.0257 10.278 20.9308L10.2564 20.9941C9.97526 20.9941 9.99688 20.9572 9.9266 20.9466C7.3152 20.9625 4.62811 21.0415 2.27622 20.9625C2.04915 20.9203 1.3625 20.9466 1.18409 20.8992C1.14624 20.8992 1.14083 20.9045 1.14624 20.9045H1.14083C1.14083 20.9045 1.13002 20.9203 1.12461 20.9256C1.10839 20.9361 1.09217 20.9414 1.07055 20.9466C1.06514 20.9361 1.05973 20.9203 1.05433 20.8992C1.05433 20.8834 1.05433 20.8939 1.05433 20.8517V20.6461V20.256C1.05433 20.1875 1.07595 20.1242 1.10839 20.0662V20.082C1.13002 20.0293 1.15705 19.9766 1.20031 19.9344C1.21112 19.9344 1.21653 19.9344 1.21653 19.945C1.26519 19.8553 1.39494 19.7815 1.53011 19.7868C1.77881 19.7973 2.06537 19.8132 2.29785 19.8237H2.27082C5.16877 19.8395 7.86127 19.7235 10.7376 19.8132C12.073 19.9133 13.6301 19.7763 15.1656 19.8606C15.4468 19.9239 18.5502 19.8764 18.8259 19.8448L18.8151 19.8184Z" fill="#232C6A"/>
<path d="M23.1675 19.7812H23.1621C23.1621 19.7812 23.1621 19.7971 23.1675 19.7812Z" fill="#232C6A"/>
<path d="M16.9715 19.0174H16.9932L16.9175 18.9805L16.9715 19.0174Z" fill="#232C6A"/>
<path d="M21.0805 18.9966C20.8967 18.986 20.8859 18.9966 20.9129 19.0071C20.9778 19.0071 21.0373 19.0071 21.0805 18.9966Z" fill="#232C6A"/>
<path d="M23.5298 20.5931C23.5298 20.688 23.546 20.6511 23.5622 20.5931C23.5622 20.4982 23.5622 20.4297 23.5622 20.4297C23.5568 20.4719 23.5406 20.5457 23.5352 20.5878L23.5298 20.5931Z" fill="#232C6A"/>
<path d="M23.8975 20.2104L23.9191 20.2368C23.9083 20.184 23.9029 20.1893 23.8975 20.2104Z" fill="#232C6A"/>
<path d="M11.8242 9.72539C11.8242 9.72539 11.8404 9.72539 11.8458 9.72539C11.8621 9.72539 11.8621 9.72012 11.8567 9.71484C11.835 9.71484 11.8404 9.72012 11.8242 9.72539Z" fill="#232C6A"/>
<path d="M11.9215 8.12109C11.9215 8.12109 11.9161 8.12109 11.9107 8.12109C11.8999 8.12109 11.8999 8.13164 11.8999 8.14218H11.9377L11.9215 8.12109Z" fill="#232C6A"/>
<path d="M12.8246 7.92627L12.7489 7.94735C12.711 7.88409 12.7921 7.85773 12.7273 7.80501H12.7435C12.7435 7.80501 12.5867 7.79447 12.7975 7.71012H12.8029C12.8029 7.71012 12.7867 7.71012 12.8029 7.69957L12.7543 7.71539C12.7543 7.71539 12.7002 7.69957 12.6948 7.68903C12.7056 7.68903 12.7218 7.68903 12.7327 7.68903L12.7218 7.66267L12.7705 7.65212C12.7435 7.64158 12.6353 7.65212 12.6948 7.62576C12.6191 7.63631 12.6516 7.61522 12.6137 7.61522C12.6245 7.61522 12.6353 7.61522 12.6516 7.60995C12.6407 7.59413 12.6245 7.56777 12.5867 7.5625C12.5867 7.5625 12.4299 7.61522 12.3542 7.63104C12.3758 7.60995 12.3434 7.63104 12.3218 7.63104H12.338C12.338 7.63104 12.2731 7.64158 12.2623 7.65212H12.2731H12.2677H12.2839C12.2947 7.65212 12.3001 7.65212 12.3001 7.65212C12.3001 7.65212 12.3001 7.66267 12.3001 7.66794H12.2623C12.338 7.67848 12.1487 7.72593 12.1487 7.73648C12.1001 7.74702 12.1596 7.76284 12.1379 7.77865C12.1271 7.79974 12.0839 7.7892 12.046 7.79974C12.0244 7.81556 12.0893 7.79974 12.0947 7.79974L12.0406 7.81556C12.0406 7.81556 12.0136 7.81556 11.9974 7.81556C11.9919 7.83137 11.9217 7.85246 11.9974 7.85773C11.9595 7.87882 11.9271 7.87882 11.9271 7.88936C11.9433 7.88936 11.9541 7.87882 11.9703 7.87882C11.9379 7.88936 11.9811 7.87882 11.9865 7.87882C12.019 7.88936 11.846 7.94208 11.9325 7.94735H11.9163C11.9811 7.94735 12.0406 7.94735 12.0785 7.95263H12.0514L12.0785 7.96844C12.0568 7.97371 12.0406 7.96844 12.0352 7.96844C12.0622 7.98426 12.0298 8.00535 12.019 8.02116L12.192 8.00007C12.1541 8.01589 12.073 8.04225 12.1271 8.04225L12.0676 8.05279C11.9541 8.08443 12.1163 8.07388 12.0839 8.08443L12.019 8.10024V8.08443C11.9865 8.10024 11.9649 8.10551 11.9271 8.11606C11.9271 8.11606 11.9325 8.11606 11.9379 8.11606C11.9703 8.11606 11.9919 8.1266 11.9865 8.13715C11.9757 8.15296 12.0244 8.16351 11.9595 8.18459H12.0244L11.9865 8.20568H11.9379C11.9379 8.20568 11.9217 8.15823 11.9163 8.13187H11.8946C11.8946 8.13187 11.9163 8.15823 11.9109 8.16878C11.9 8.16878 11.846 8.18459 11.8135 8.17405L11.8622 8.18459C11.8676 8.22677 11.873 8.22677 11.8135 8.27422H11.8406C11.8406 8.27422 11.873 8.29003 11.8298 8.29003C11.8189 8.31639 11.7865 8.34803 11.7216 8.36384H11.7811C11.7811 8.36384 11.6838 8.38493 11.7703 8.38493L11.7973 8.39547C11.7973 8.39547 11.8298 8.40602 11.7973 8.41656C11.7973 8.41656 11.7973 8.41656 11.7919 8.41656C11.7649 8.43238 11.846 8.41656 11.8135 8.43765C11.7703 8.44292 11.8892 8.44292 11.8784 8.45347L11.7919 8.46401C11.7432 8.47983 11.8298 8.4851 11.8298 8.51146C11.7973 8.522 11.727 8.53255 11.6567 8.522C11.7378 8.53255 11.7108 8.52727 11.7487 8.54309C11.7162 8.54309 11.7108 8.54309 11.6784 8.54309C11.6405 8.55891 11.7054 8.55363 11.7054 8.56418C11.7649 8.56418 11.8676 8.56945 11.8676 8.57472H11.8892C11.9217 8.57999 11.9379 8.59581 11.9054 8.60635H11.873L11.8892 8.6169H11.8514L11.8622 8.63798H11.873C11.873 8.63798 11.8892 8.6538 11.873 8.66435H11.8514C11.7811 8.68543 11.873 8.70652 11.8784 8.73815H11.8352C11.7919 8.74342 11.9054 8.73815 11.8838 8.7487H11.8298C11.9 8.75924 11.8135 8.76451 11.7865 8.76978H11.8568L11.8406 8.78033C11.8189 8.79614 11.7487 8.79087 11.7108 8.7856L11.7703 8.79614H11.7054C11.7811 8.80669 11.6946 8.80669 11.7324 8.81723C11.7108 8.81723 11.6946 8.81723 11.6838 8.81723L11.7757 8.83832L11.7378 8.82778H11.8298C11.9 8.84359 11.8189 8.84887 11.846 8.85414H11.8189C11.8189 8.85414 11.8027 8.86468 11.7811 8.86995C11.7973 8.86995 11.8243 8.86468 11.8352 8.86995C11.8352 8.86995 11.8027 8.86995 11.7919 8.87522C11.8568 8.87522 11.8892 8.88577 11.8568 8.89631C11.846 8.89631 11.8406 8.89631 11.8352 8.89631C11.846 8.89631 11.8622 8.89631 11.846 8.90686H11.7757L11.8406 8.91213C11.8243 8.9174 11.873 8.92794 11.8243 8.92267H11.8081L11.7919 8.95958H11.7378C11.8135 8.95958 11.7108 8.98066 11.8027 8.98066C11.7487 8.99121 11.8406 9.0123 11.7324 9.00702C11.7216 9.03338 11.8298 9.0492 11.7757 9.0861C11.6838 9.09665 11.7162 9.13355 11.7054 9.15464C11.7432 9.19682 11.7757 9.22318 11.8081 9.26535C11.6784 9.29171 11.8514 9.32862 11.7811 9.36025H11.8298C11.7487 9.38661 11.846 9.41297 11.7703 9.43933C11.7919 9.4446 11.7973 9.44987 11.8027 9.44987C11.8027 9.44987 11.8135 9.44987 11.846 9.44987C11.8243 9.45514 11.8514 9.47096 11.7865 9.47096H11.7811C11.7162 9.47096 11.8135 9.49205 11.7541 9.50259H11.8243L11.8135 9.51314H11.8027C11.9541 9.57113 11.7378 9.59749 11.8784 9.65548C11.8027 9.65021 11.9163 9.66602 11.8352 9.66602C11.7324 9.68184 11.8568 9.69238 11.8838 9.70293C11.8838 9.70293 11.8946 9.70293 11.9 9.70293L11.8892 9.72401C11.9757 9.73983 11.7865 9.71347 11.8892 9.72401C11.8135 9.77673 11.8892 9.85054 11.8568 9.91381H11.8838C11.8838 9.91381 11.9109 9.94544 11.8676 9.96125C11.8243 9.9718 11.9325 9.98761 11.9379 9.99289C11.9811 10.0087 11.8946 10.0192 11.9 10.014C11.9108 10.0298 12.0082 10.0403 11.9649 10.0614C11.8784 10.0667 12.0514 10.1141 11.9541 10.1141H11.9649C11.8946 10.1405 12.0136 10.1616 11.9487 10.1879C11.9487 10.1879 11.9433 10.1879 11.9325 10.1879L12.2298 10.2407L12.5596 10.2249L12.83 10.1774L12.7705 10.0456L12.8732 9.94017L12.8354 9.68711L12.7597 9.67129C12.8894 9.62385 12.7381 9.56058 12.8354 9.50259H12.7705C12.7705 9.50259 12.8083 9.48677 12.8192 9.4815C12.8029 9.33916 12.7218 9.19682 12.8029 9.07029C12.8462 9.05974 12.8192 9.02284 12.8678 9.0123C12.7867 8.97012 12.7921 8.92794 12.7975 8.88577H12.8029L12.7921 8.86995C12.7921 8.86995 12.8029 8.86995 12.8083 8.86995C12.7543 8.84886 12.8083 8.81196 12.83 8.7856H12.8354C12.8462 8.63271 12.7272 8.4851 12.8192 8.33221C12.9219 8.2584 12.7813 8.17932 12.8678 8.09497C12.9327 8.07915 12.884 7.91572 12.8516 7.89991L12.8246 7.92627Z" fill="#232C6A"/>
<path d="M11.9973 8.0248L12.0027 8.01953L11.9648 8.0248H11.9973Z" fill="#232C6A"/>
<path d="M11.9761 7.80469C11.9761 7.80469 11.9761 7.81523 11.9869 7.81523C11.9869 7.81523 11.9869 7.80996 11.9761 7.80469Z" fill="#232C6A"/>
<path d="M12.6843 7.59766C12.6843 7.59766 12.6681 7.59766 12.6519 7.59766C12.6519 7.60293 12.6519 7.6082 12.6519 7.6082C12.6573 7.6082 12.6735 7.60293 12.6789 7.59766H12.6843Z" fill="#232C6A"/>
<path d="M12.2461 6.86719C12.2461 6.86719 12.2461 6.86719 12.2407 6.87246L12.2461 6.86719Z" fill="#232C6A"/>
<path d="M10.2076 7.00137L10.1968 6.99609L10.2076 7.00137Z" fill="#232C6A"/>
<path d="M10.2075 6.97656C10.2075 6.97656 10.2075 6.99238 10.2075 6.99765C10.2237 7.00819 10.2346 7.00819 10.2454 6.99765C10.24 6.98183 10.2183 6.98711 10.2075 6.97656Z" fill="#232C6A"/>
<path d="M9.42401 7.91289L9.39697 7.90234C9.39697 7.90234 9.4186 7.91289 9.42401 7.91289Z" fill="#232C6A"/>
<path d="M14.1494 7.02909V7.01855C14.1494 7.01855 14.1224 6.99746 14.0899 6.99219L14.0791 7.02909H14.1494Z" fill="#232C6A"/>
<path d="M14.0789 7.9725L14.1113 7.89869C14.1924 7.92505 14.1546 7.99886 14.2411 8.01467H14.2248C14.2248 8.01467 14.3816 7.96723 14.2248 8.1412H14.2194C14.2194 8.1412 14.2357 8.1412 14.2194 8.15175L14.2573 8.12011C14.2573 8.12011 14.3168 8.12011 14.3276 8.13066C14.3222 8.13593 14.3059 8.1412 14.2951 8.14647L14.3168 8.17811L14.2681 8.19919C14.2951 8.19919 14.3979 8.18338 14.3438 8.22028C14.4141 8.19919 14.3925 8.23083 14.4249 8.22028C14.4141 8.22028 14.4033 8.23083 14.3925 8.23083C14.3925 8.24137 14.4033 8.25191 14.4141 8.26773C14.4195 8.273 14.4249 8.27827 14.4357 8.28355H14.4465L14.4519 8.29409H14.7925H14.4573C14.4573 8.29409 14.4681 8.28882 14.4736 8.28355C14.4898 8.273 14.5114 8.26246 14.533 8.24664C14.5763 8.21501 14.6358 8.17811 14.6682 8.15702C14.652 8.19919 14.679 8.16756 14.7006 8.15702H14.6844C14.7006 8.13066 14.7439 8.12011 14.7547 8.1043H14.7439H14.7493C14.7439 8.1043 14.7385 8.1043 14.7331 8.1043C14.7223 8.1043 14.7169 8.1043 14.7169 8.1043C14.7169 8.1043 14.7114 8.07794 14.7114 8.06739L14.7493 8.05685C14.679 8.05685 14.8196 7.89342 14.8034 7.86179C14.8358 7.81434 14.7655 7.80907 14.7655 7.76162C14.7439 7.70363 14.7979 7.7089 14.8088 7.66672C14.8088 7.61928 14.7763 7.69836 14.7655 7.68254L14.7871 7.614C14.7871 7.614 14.8196 7.614 14.825 7.59819C14.8034 7.56128 14.8196 7.46112 14.7493 7.49802C14.7385 7.42948 14.7601 7.4084 14.7439 7.38731C14.7439 7.40312 14.7439 7.42421 14.7331 7.43476C14.7439 7.39258 14.7169 7.43476 14.7223 7.4453C14.679 7.4453 14.679 7.20806 14.6141 7.26605L14.6249 7.25551C14.5763 7.29768 14.5492 7.35568 14.5114 7.36622V7.33459L14.479 7.33986C14.479 7.3135 14.4952 7.30296 14.5006 7.29768C14.4519 7.29768 14.4195 7.23969 14.3816 7.20806C14.3708 7.26605 14.3546 7.32404 14.3384 7.37676C14.333 7.32404 14.3005 7.22388 14.2681 7.26605V7.20279C14.2357 7.07099 14.1978 7.22388 14.1816 7.1817L14.1654 7.10789L14.2032 7.12371C14.1762 7.08153 14.1654 7.05517 14.1383 7.00773C14.1383 7.00773 14.1383 7.013 14.1383 7.01827H14.1329C14.1167 7.04463 14.0897 7.06045 14.0626 7.0499C14.0194 7.02881 13.9816 7.07099 13.9221 6.99718L13.9005 7.05517L13.8518 7.013V6.96028C13.9059 6.96028 14.0086 6.96028 14.0789 6.97082V6.94973C14.0464 6.93919 13.9924 6.95501 13.9653 6.94973C13.9545 6.93919 13.9275 6.8812 13.9545 6.84957L13.9221 6.89701C13.7761 6.89701 13.7707 6.89701 13.668 6.83902L13.6788 6.86538C13.6788 6.86538 13.6355 6.89701 13.6301 6.85484C13.5652 6.84429 13.5004 6.81266 13.4571 6.7494L13.4463 6.80739C13.4463 6.80739 13.4139 6.71249 13.4084 6.79685L13.3814 6.82321C13.3814 6.82321 13.349 6.85484 13.3328 6.82321C13.3328 6.82321 13.3328 6.82321 13.3328 6.81793C13.2895 6.79685 13.3328 6.87593 13.2841 6.84429C13.2679 6.80212 13.2679 6.9181 13.2462 6.90756L13.2246 6.82321C13.1814 6.77576 13.176 6.86011 13.1111 6.86011C13.0841 6.82848 13.0678 6.75994 13.0895 6.69141C13.0624 6.77049 13.0786 6.74413 13.0408 6.78103C13.0354 6.7494 13.0408 6.74413 13.0462 6.71249C13.0138 6.67559 13.0246 6.73885 13.003 6.73885C12.9975 6.79685 12.9867 6.89701 12.9813 6.89701L12.9921 6.9181C12.9651 6.94973 12.9381 6.96555 12.911 6.93392V6.90229L12.8786 6.9181V6.8812L12.8299 6.89174V6.90229C12.8299 6.90229 12.7921 6.92337 12.7705 6.90229V6.8812C12.7164 6.81266 12.6677 6.90229 12.6029 6.90756L12.6137 6.86538C12.592 6.82321 12.6083 6.93392 12.5812 6.91283V6.86011C12.5542 6.92865 12.5488 6.84429 12.5326 6.81793V6.88647L12.5109 6.87065C12.4785 6.84957 12.4893 6.78103 12.4947 6.74413L12.4731 6.80212V6.73885C12.4515 6.81266 12.4515 6.72831 12.4244 6.76521C12.4244 6.74413 12.4244 6.72831 12.4244 6.71777L12.3758 6.80739L12.4028 6.77049V6.86011C12.3704 6.92865 12.3596 6.84957 12.3379 6.87593L12.3542 6.84957C12.3217 6.87065 12.3163 6.83375 12.3001 6.81266C12.3055 6.82848 12.3163 6.85484 12.3001 6.86538C12.2893 6.86538 12.2947 6.83375 12.2839 6.82321C12.2839 6.88647 12.2568 6.9181 12.2352 6.88647C12.2352 6.87593 12.2352 6.87065 12.2352 6.86538C12.2298 6.87593 12.2244 6.89174 12.219 6.87593V6.80739L12.2082 6.87065C12.1974 6.84957 12.1757 6.90229 12.1757 6.85484V6.83902L12.0838 6.82321V6.77049C12.073 6.84429 12.0298 6.74413 12.0298 6.83375C12.0135 6.78103 11.9595 6.87065 11.9703 6.76521C11.9054 6.75467 11.873 6.86011 11.7919 6.80739C11.7648 6.71777 11.6891 6.7494 11.6351 6.73885C11.5378 6.77576 11.4729 6.80739 11.3702 6.83902C11.3107 6.71249 11.2188 6.8812 11.1539 6.81266L11.1377 6.86011C11.0944 6.78103 11.0295 6.87593 10.9701 6.80212C10.9538 6.82321 10.9484 6.82848 10.943 6.83375C10.943 6.83375 10.9484 6.84429 10.9538 6.87593C10.9376 6.85484 10.8998 6.8812 10.9052 6.81793C10.9052 6.7494 10.8511 6.83902 10.8349 6.7863L10.8457 6.85484L10.8133 6.84429L10.8241 6.83375C10.7051 6.98137 10.5483 6.77049 10.397 6.94446C10.4024 6.86538 10.3699 6.99191 10.3483 6.91283C10.2726 6.82848 10.2672 6.95501 10.2402 6.99718C10.2402 6.99718 10.2402 7.00773 10.2402 7.013L10.1753 7.02881C10.1753 6.92337 10.1645 7.12371 10.1645 7.02881C9.96443 7.02881 9.80764 7.22388 9.65084 7.34513L9.67788 7.35568C9.64003 7.38731 9.62381 7.45584 9.56434 7.46112C9.50487 7.46639 9.56434 7.56656 9.56434 7.58237C9.58056 7.64036 9.48324 7.62455 9.49946 7.614C9.48324 7.65618 9.55353 7.73526 9.49405 7.77216C9.40214 7.75635 9.51568 7.95141 9.42377 7.91978H9.42917C9.34267 7.97777 9.43999 8.07267 9.3697 8.1412C9.3697 8.1412 9.36429 8.1412 9.35889 8.13593C9.40214 8.16756 9.4508 8.19919 9.49946 8.23083L9.57515 8.26773L9.613 8.28355L9.62922 8.29409H9.64003V8.29936H9.65084H9.67247L9.71572 8.29409H9.79682L9.96443 8.27827C10.0563 8.25719 10.1428 8.24137 10.2348 8.2361C10.2185 8.18865 10.2185 8.13593 10.2239 8.08321C10.2726 8.06212 10.3267 8.05158 10.3699 8.04631C10.4132 7.97777 10.4781 7.91451 10.5538 7.8776V7.8038C10.6511 7.90924 10.6294 7.76162 10.797 7.85652V7.79325C10.8349 7.79325 10.8295 7.83016 10.8403 7.8407C11.1647 7.82488 11.4999 7.7458 11.7919 7.82488C11.8189 7.86706 11.9054 7.8407 11.927 7.88815C12.0244 7.80907 12.1217 7.81434 12.219 7.81961H12.2622C12.2622 7.81961 12.2622 7.83016 12.2622 7.83543C12.3109 7.78271 12.392 7.83543 12.4515 7.85652C12.8137 7.87233 13.1489 7.75635 13.5058 7.84597C13.5869 7.89869 13.6788 7.88815 13.7707 7.8776C13.8085 7.86706 13.8626 7.85652 13.8896 7.90924C13.8896 7.96196 14.0356 7.98831 14.0681 7.98831L14.0789 7.9725Z" fill="#232C6A"/>
<path d="M14.3926 7.20878L14.398 7.21405L14.4034 7.17188L14.3926 7.20878Z" fill="#232C6A"/>
<path d="M14.8737 7.61225C14.8629 7.58589 14.8575 7.58589 14.8521 7.59643C14.8521 7.60698 14.8629 7.61225 14.8737 7.61225Z" fill="#232C6A"/>
<path d="M14.3652 8.23711C14.3652 8.23711 14.3815 8.23711 14.3977 8.23711C14.3977 8.23183 14.3923 8.22656 14.3923 8.22656C14.3869 8.22656 14.376 8.23711 14.3652 8.24238V8.23711Z" fill="#232C6A"/>
<path d="M13.1758 2.69414C13.1758 2.69414 13.1974 2.68359 13.2028 2.68359L13.1704 2.69414H13.1758Z" fill="#232C6A"/>
<path d="M12.0135 1.30742L11.9973 1.29688C11.981 1.29688 11.9756 1.29687 11.981 1.30215C11.9973 1.31269 12.0027 1.30215 12.0135 1.30215V1.30742Z" fill="#232C6A"/>
<path d="M12.3813 0.769531L12.3976 0.795891C12.3976 0.795891 12.3868 0.780075 12.3813 0.769531Z" fill="#232C6A"/>
<path d="M13.403 3.4375C13.403 3.4375 13.3868 3.4375 13.3813 3.44277L13.403 3.4375Z" fill="#232C6A"/>
<path d="M12.4893 4.74101H12.5001L12.4839 4.73047C12.4839 4.73047 12.4839 4.73574 12.4839 4.74101H12.4893Z" fill="#232C6A"/>
<path d="M13.2789 3.93163H13.2897C13.2897 3.93163 13.3059 3.90527 13.3059 3.87891H13.2681L13.2789 3.93163Z" fill="#232C6A"/>
<path d="M12.311 4.04361H12.3921C12.3921 4.14905 12.2948 4.14905 12.3056 4.25449L12.2948 4.24395C12.2948 4.24395 12.4137 4.34939 12.1596 4.34412H12.1542C12.1542 4.34412 12.165 4.35466 12.1434 4.34412L12.1974 4.35466C12.1974 4.35466 12.2245 4.40738 12.2191 4.42847C12.2083 4.42847 12.1974 4.41792 12.1866 4.41265L12.165 4.4601L12.1163 4.43901C12.1272 4.46537 12.2137 4.52864 12.1434 4.52336C12.2083 4.555 12.165 4.56554 12.1974 4.58663C12.1866 4.58663 12.1758 4.57608 12.165 4.57081C12.1542 4.59717 12.138 4.64462 12.1596 4.67625C12.1596 4.67625 12.3434 4.69734 12.4245 4.7237C12.3813 4.73952 12.4245 4.73952 12.4462 4.74479L12.4353 4.72897C12.4624 4.7237 12.5002 4.75006 12.5164 4.75006H12.5056C12.5002 4.75006 12.4948 4.73952 12.4894 4.73952C12.484 4.73424 12.4786 4.72897 12.484 4.7237C12.484 4.7237 12.5002 4.70788 12.511 4.70261L12.5435 4.7237C12.4948 4.66571 12.7111 4.69734 12.7273 4.67098C12.7814 4.67625 12.7489 4.61826 12.7868 4.60772C12.8246 4.57081 12.8462 4.61826 12.8895 4.60772C12.9273 4.5919 12.8462 4.5919 12.8516 4.57608H12.9165C12.9165 4.57608 12.9327 4.5919 12.949 4.59717C12.9706 4.57081 13.0625 4.555 13.003 4.50755C13.0571 4.48119 13.0841 4.497 13.1004 4.48119C13.0841 4.48119 13.0679 4.48646 13.0517 4.48119C13.0895 4.48119 13.0517 4.47064 13.0355 4.47064C13.0193 4.43374 13.2301 4.38629 13.1544 4.34939H13.1706C13.1166 4.32303 13.0517 4.31249 13.0301 4.28085H13.0625L13.0463 4.24922C13.0679 4.24395 13.0841 4.25449 13.0895 4.25977C13.0733 4.21759 13.122 4.18596 13.1436 4.14905L12.9652 4.13851C13.0138 4.12269 13.1058 4.08579 13.0571 4.0647H13.1166C13.2409 4.01725 13.0787 4.00144 13.1166 3.98035L13.1869 3.95926V3.99617C13.2193 3.96453 13.2409 3.95399 13.2842 3.9329C13.2842 3.9329 13.2788 3.9329 13.2734 3.9329C13.2409 3.91709 13.2247 3.896 13.2301 3.86964C13.2463 3.83273 13.1977 3.8011 13.268 3.74311L13.2031 3.72729L13.2409 3.68512H13.295C13.295 3.72729 13.3112 3.81692 13.3058 3.87491H13.3274C13.3274 3.84328 13.3112 3.8011 13.3166 3.78001C13.3274 3.76947 13.3815 3.73784 13.4139 3.7642L13.3653 3.74311C13.3599 3.62185 13.3545 3.62185 13.3977 3.48478L13.3761 3.5006C13.3761 3.5006 13.3382 3.45315 13.3761 3.44261C13.3707 3.36353 13.3761 3.27918 13.4248 3.21064H13.3653C13.3653 3.21064 13.441 3.14738 13.3599 3.16846L13.322 3.14738C13.322 3.14738 13.2788 3.12629 13.3004 3.08938C13.3004 3.08938 13.3004 3.08938 13.3004 3.08411C13.3004 3.03139 13.2517 3.11047 13.2571 3.04194C13.2896 3.00503 13.1815 3.05775 13.1815 3.02612L13.2463 2.96286C13.2626 2.89432 13.1869 2.93122 13.149 2.86796C13.1598 2.82051 13.2085 2.76779 13.2788 2.75198C13.1923 2.76779 13.2247 2.76779 13.1706 2.75198C13.1923 2.73089 13.2031 2.73089 13.2301 2.72035C13.2409 2.66763 13.1923 2.72035 13.176 2.69399C13.122 2.72035 13.0355 2.77307 13.0247 2.76779L13.0138 2.78888C12.9706 2.78888 12.9436 2.77307 12.949 2.72562L12.976 2.7098L12.9436 2.69399L12.9706 2.66763L12.9327 2.64127V2.65181C12.9327 2.65181 12.8841 2.63072 12.8841 2.59909L12.9003 2.58327C12.9111 2.49365 12.8138 2.52001 12.7651 2.47783L12.803 2.45147C12.8192 2.40403 12.7489 2.49365 12.7489 2.46202L12.7868 2.42511C12.7165 2.45675 12.776 2.39348 12.7868 2.36185L12.7435 2.41457L12.7327 2.38294C12.7273 2.34603 12.7814 2.30386 12.8138 2.28277L12.7597 2.30913L12.803 2.26168C12.7381 2.30386 12.803 2.24059 12.7489 2.25114C12.7651 2.23005 12.7814 2.23005 12.776 2.21423L12.6786 2.24587L12.7273 2.23532L12.6624 2.29859C12.5921 2.33022 12.6408 2.26695 12.6084 2.27223L12.6354 2.26168C12.5975 2.25641 12.6192 2.22478 12.6192 2.19842C12.6138 2.21423 12.6029 2.24059 12.5813 2.24059C12.5705 2.24059 12.5975 2.21423 12.5975 2.19842C12.5543 2.24059 12.5164 2.25114 12.5164 2.21423C12.5218 2.20896 12.5273 2.20369 12.5327 2.19842C12.5218 2.19842 12.511 2.21423 12.511 2.19842L12.5597 2.15097L12.5002 2.18787C12.5002 2.18787 12.457 2.18787 12.4894 2.16151H12.5056L12.4516 2.08771L12.4894 2.04553C12.4299 2.09298 12.4732 1.99281 12.4137 2.06662C12.4353 2.01917 12.3434 2.0508 12.4245 1.98227C12.3921 1.94009 12.2948 1.99281 12.2894 1.91373C12.338 1.83465 12.2731 1.81884 12.2623 1.7872C12.1866 1.76612 12.138 1.75557 12.0785 1.72394C12.1704 1.62904 11.9974 1.68176 12.0515 1.62377L12.0028 1.63432C12.0623 1.59214 11.9758 1.59741 12.0407 1.55524C12.019 1.55524 12.0082 1.55524 12.0082 1.55524C12.0082 1.55524 11.9974 1.55524 11.965 1.56578C11.9866 1.55524 11.9596 1.54469 12.0244 1.53942H12.0298C12.0947 1.53415 11.9974 1.52888 12.0515 1.51833H11.9812H11.992H12.0082C11.8568 1.45507 12.0731 1.46034 11.9596 1.37072C12.0244 1.40235 11.9271 1.34436 12.0028 1.37072C12.1055 1.3918 11.992 1.33381 11.9758 1.30745C11.9758 1.30745 11.9704 1.30745 11.965 1.30218L11.9866 1.28109C12.0731 1.34436 11.9217 1.2231 11.9866 1.28109C12.0839 1.25473 12.0839 1.12821 12.1812 1.07549L12.1596 1.05967C12.1596 1.05967 12.1812 0.996405 12.2245 1.01222C12.2677 1.02804 12.2083 0.933142 12.2137 0.922598C12.1974 0.87515 12.2785 0.922598 12.2677 0.92787C12.2785 0.90151 12.2353 0.817158 12.2894 0.82243C12.3542 0.880422 12.311 0.695902 12.3759 0.76971C12.457 0.790798 12.4191 0.669542 12.5002 0.69063C12.5002 0.69063 12.5002 0.695902 12.5056 0.701174C12.4732 0.601007 12.4516 0.500839 12.4245 0.400671L12.2137 0.152888L11.9704 0C11.9001 0.0738078 11.8298 0.152888 11.7595 0.231967C11.673 0.258327 11.5865 0.289959 11.4946 0.332135C11.3486 0.495567 11.2026 0.69063 11.1053 0.933142L11.154 1.01222C10.9701 1.11239 11.0675 1.36017 10.981 1.53415H11.0458C11.0512 1.58687 11.0134 1.58687 11.0026 1.59741C11.0242 1.8452 11.1486 2.06662 11.2729 2.21951C11.3973 2.37767 11.5162 2.49892 11.5919 2.62545C11.5865 2.67817 11.6622 2.71507 11.646 2.76252C11.7703 2.76779 11.8352 2.82578 11.8893 2.88905H11.8839L11.9217 2.91014C11.9217 2.91014 11.9163 2.92068 11.9109 2.92595C11.9812 2.91541 11.992 2.99976 12.0136 3.04721H12.0082C12.2029 3.24227 12.4299 3.35298 12.4029 3.55859C12.3218 3.64821 12.4732 3.71675 12.3759 3.80637C12.3164 3.80637 12.311 4.00144 12.3164 4.03834L12.311 4.04361Z" fill="#232C6A"/>
<path d="M13.1489 4.15625V4.16152H13.1868L13.1489 4.15625Z" fill="#232C6A"/>
<path d="M12.9489 4.63046C12.9489 4.63046 12.9651 4.60938 12.9489 4.60938C12.9435 4.61465 12.9435 4.62519 12.9489 4.63046Z" fill="#232C6A"/>
<path d="M12.1324 4.55078C12.1324 4.55078 12.1378 4.5666 12.154 4.57187C12.154 4.56133 12.1594 4.55605 12.1594 4.55605C12.154 4.55605 12.1378 4.55605 12.127 4.55605L12.1324 4.55078Z" fill="#232C6A"/>
<path d="M12.4409 4.75L12.4571 4.76582C12.4571 4.76582 12.4517 4.75527 12.4409 4.75Z" fill="#232C6A"/>
<path d="M8.9639 2.69414C8.9639 2.69414 8.98553 2.68359 8.99094 2.68359L8.9585 2.69414H8.9639Z" fill="#232C6A"/>
<path d="M7.80156 1.30742L7.78534 1.29688C7.76912 1.29688 7.76371 1.29687 7.76912 1.30215C7.78534 1.31269 7.79074 1.30215 7.80156 1.30215V1.30742Z" fill="#232C6A"/>
<path d="M8.16943 0.769531L8.18565 0.795891C8.18565 0.795891 8.17484 0.780075 8.16943 0.769531Z" fill="#232C6A"/>
<path d="M9.19106 3.4375C9.19106 3.4375 9.17484 3.4375 9.16943 3.44277L9.19106 3.4375Z" fill="#232C6A"/>
<path d="M8.27738 4.74101H8.28819L8.27197 4.73047C8.27197 4.73047 8.27197 4.73574 8.27197 4.74101H8.27738Z" fill="#232C6A"/>
<path d="M9.06697 3.93163H9.07778C9.07778 3.93163 9.094 3.90527 9.094 3.87891H9.05615L9.06697 3.93163Z" fill="#232C6A"/>
<path d="M8.09907 4.04361H8.18017C8.18017 4.14905 8.08285 4.14905 8.09367 4.25449L8.08285 4.24395C8.08285 4.24395 8.2018 4.34939 7.94769 4.34412H7.94228C7.94228 4.34412 7.95309 4.35466 7.93147 4.34412L7.98553 4.35466C7.98553 4.35466 8.01257 4.40738 8.00716 4.42847C7.99635 4.42847 7.98553 4.41792 7.97472 4.41265L7.95309 4.4601L7.90443 4.43901C7.91525 4.46537 8.00175 4.52864 7.93147 4.52336C7.99635 4.555 7.95309 4.56554 7.98553 4.58663C7.97472 4.58663 7.96391 4.57608 7.95309 4.57081C7.94228 4.59717 7.92606 4.64462 7.94769 4.67625C7.94769 4.67625 8.13151 4.69734 8.21261 4.7237C8.16936 4.73952 8.21261 4.73952 8.23424 4.74479L8.22342 4.72897C8.25046 4.7237 8.2883 4.75006 8.30452 4.75006H8.29371C8.2883 4.75006 8.2829 4.73952 8.27749 4.73952C8.27208 4.73424 8.26668 4.72897 8.27208 4.7237C8.27208 4.7237 8.2883 4.70788 8.29912 4.70261L8.33156 4.7237C8.2829 4.66571 8.49916 4.69734 8.51538 4.67098C8.56945 4.67625 8.53701 4.61826 8.57485 4.60772C8.6127 4.57081 8.63433 4.61826 8.67758 4.60772C8.71543 4.5919 8.63433 4.5919 8.63973 4.57608H8.70461C8.70461 4.57608 8.72083 4.5919 8.73705 4.59717C8.75868 4.57081 8.85059 4.555 8.79112 4.50755C8.84519 4.48119 8.87222 4.497 8.88844 4.48119C8.87222 4.48119 8.856 4.48646 8.83978 4.48119C8.87763 4.48119 8.83978 4.47064 8.82356 4.47064C8.80734 4.43374 9.0182 4.38629 8.94251 4.34939H8.95872C8.90466 4.32303 8.83978 4.31249 8.81815 4.28085H8.85059L8.83437 4.24922C8.856 4.24395 8.87222 4.25449 8.87763 4.25977C8.86141 4.21759 8.91007 4.18596 8.93169 4.14905L8.75327 4.13851C8.80193 4.12269 8.89385 4.08579 8.84519 4.0647H8.90466C9.02901 4.01725 8.86681 4.00144 8.90466 3.98035L8.97495 3.95926V3.99617C9.00738 3.96453 9.02901 3.95399 9.07226 3.9329C9.07226 3.9329 9.06686 3.9329 9.06145 3.9329C9.02901 3.91709 9.01279 3.896 9.0182 3.86964C9.03442 3.83273 8.98576 3.8011 9.05604 3.74311L8.99116 3.72729L9.02901 3.68512H9.07767C9.07767 3.72729 9.09389 3.81692 9.08848 3.87491H9.11011C9.11011 3.84328 9.09389 3.8011 9.0993 3.78001C9.11011 3.76947 9.16418 3.73784 9.19662 3.7642L9.14796 3.74311C9.14255 3.62185 9.13714 3.62185 9.1804 3.48478L9.15877 3.5006C9.15877 3.5006 9.12092 3.45315 9.15877 3.44261C9.15336 3.36353 9.15877 3.27918 9.20743 3.21064H9.14796C9.14796 3.21064 9.22365 3.14738 9.14255 3.16846L9.1047 3.14738C9.1047 3.14738 9.06145 3.12629 9.08308 3.08938C9.08308 3.08938 9.08308 3.08938 9.08308 3.08411C9.08308 3.03139 9.03442 3.11047 9.03982 3.04194C9.07226 3.00503 8.96413 3.05775 8.96413 3.02612L9.02901 2.96286C9.04523 2.89432 8.96954 2.93122 8.93169 2.86796C8.94251 2.82051 8.99116 2.76779 9.06145 2.75198C8.97494 2.76779 9.00738 2.76779 8.95332 2.75198C8.97494 2.73089 8.98576 2.73089 9.01279 2.72035C9.0236 2.66763 8.97494 2.72035 8.95872 2.69399C8.90466 2.72035 8.81815 2.77307 8.80734 2.76779L8.79653 2.78888C8.75327 2.78888 8.72624 2.77307 8.73165 2.72562L8.75868 2.7098L8.72624 2.69399L8.75327 2.66763L8.71543 2.64127V2.65181C8.71543 2.65181 8.66677 2.63072 8.66677 2.59909L8.68299 2.58327C8.6938 2.49365 8.59648 2.52001 8.54782 2.47783L8.58567 2.45147C8.60189 2.40403 8.5316 2.49365 8.5316 2.46202L8.56945 2.42511C8.49916 2.45675 8.55864 2.39348 8.56945 2.36185L8.5262 2.41457L8.51538 2.38294C8.50998 2.34603 8.56404 2.30386 8.59648 2.28277L8.54242 2.30913L8.58567 2.26168C8.52079 2.30386 8.58567 2.24059 8.5316 2.25114C8.54782 2.23005 8.56404 2.23005 8.56404 2.21423L8.46672 2.24587L8.51538 2.23532L8.4505 2.29859C8.38022 2.33022 8.42888 2.26695 8.39644 2.27223L8.42347 2.26168C8.38562 2.25641 8.40725 2.22478 8.40725 2.19842C8.40184 2.21423 8.39103 2.24059 8.3694 2.24059C8.35859 2.24059 8.38562 2.21423 8.38562 2.19842C8.34237 2.24059 8.30452 2.25114 8.30452 2.21423C8.30993 2.20896 8.31534 2.20369 8.32074 2.19842C8.30993 2.19842 8.29912 2.21423 8.29912 2.19842L8.34778 2.15097L8.2883 2.18787C8.2883 2.18787 8.24505 2.18787 8.27749 2.16151H8.29371L8.23964 2.08771L8.27749 2.04553C8.21802 2.09298 8.26127 1.99281 8.2018 2.06662C8.22342 2.01917 8.13151 2.0508 8.21261 1.98227C8.18017 1.94009 8.08285 1.99281 8.07745 1.91373C8.1261 1.83465 8.06123 1.81884 8.05041 1.7872C7.97472 1.76612 7.92606 1.75557 7.86659 1.72394C7.9585 1.62904 7.78549 1.68176 7.83955 1.62377L7.79089 1.63432C7.85037 1.59214 7.76386 1.59741 7.82874 1.55524C7.80711 1.55524 7.7963 1.55524 7.7963 1.55524C7.7963 1.55524 7.78549 1.55524 7.75305 1.56578C7.77467 1.55524 7.74764 1.54469 7.81252 1.53942H7.81793C7.88281 1.53415 7.78549 1.52888 7.83955 1.51833H7.76927H7.78008H7.7963C7.64492 1.45507 7.86118 1.46034 7.74764 1.37072C7.81252 1.40235 7.7152 1.34436 7.79089 1.37072C7.89362 1.3918 7.78008 1.33381 7.76386 1.30745C7.76386 1.30745 7.75845 1.30745 7.75305 1.30218L7.77467 1.28109C7.86118 1.34436 7.7098 1.2231 7.77467 1.28109C7.87199 1.25473 7.87199 1.12821 7.96931 1.07549L7.94769 1.05967C7.94769 1.05967 7.96931 0.996405 8.01257 1.01222C8.05582 1.02804 7.99635 0.933142 8.00175 0.922598C7.98553 0.87515 8.06663 0.922598 8.05582 0.92787C8.06663 0.90151 8.02338 0.817158 8.07745 0.82243C8.14232 0.880422 8.09907 0.695902 8.16395 0.76971C8.24505 0.790798 8.2072 0.669542 8.2883 0.69063C8.2883 0.69063 8.2883 0.695902 8.29371 0.701174C8.26127 0.601007 8.23964 0.500839 8.21261 0.400671L8.00175 0.152888L7.75845 0C7.68817 0.0738078 7.61788 0.152888 7.5476 0.231967C7.46109 0.258327 7.37458 0.289959 7.28267 0.332135C7.13669 0.495567 6.99071 0.69063 6.8934 0.933142L6.94205 1.01222C6.75823 1.11239 6.85014 1.36017 6.76904 1.53415H6.83392C6.83933 1.58687 6.80148 1.58687 6.79067 1.59741C6.8123 1.8452 6.93665 2.06662 7.061 2.21951C7.18535 2.37767 7.3043 2.49892 7.37999 2.62545C7.37458 2.67817 7.45028 2.71507 7.43406 2.76252C7.55841 2.76779 7.62329 2.82578 7.67736 2.88905H7.67195L7.7098 2.91014C7.7098 2.91014 7.70439 2.92068 7.69898 2.92595C7.76927 2.91541 7.78008 2.99976 7.80171 3.04721H7.7963C7.99094 3.24227 8.21802 3.35298 8.19098 3.55859C8.10988 3.64821 8.26127 3.71675 8.16395 3.80637C8.10448 3.80637 8.09907 4.00144 8.10448 4.03834L8.09907 4.04361Z" fill="#232C6A"/>
<path d="M8.93701 4.15625V4.16152H8.97486L8.93701 4.15625Z" fill="#232C6A"/>
<path d="M8.73697 4.63046C8.73697 4.63046 8.75318 4.60938 8.73697 4.60938C8.73156 4.61465 8.73156 4.62519 8.73697 4.63046Z" fill="#232C6A"/>
<path d="M7.92045 4.55078C7.92045 4.55078 7.92585 4.5666 7.94207 4.57187C7.94207 4.56133 7.94748 4.55605 7.94748 4.55605C7.94207 4.55605 7.92585 4.55605 7.91504 4.55605L7.92045 4.55078Z" fill="#232C6A"/>
<path d="M8.229 4.75L8.24522 4.76582C8.24522 4.76582 8.23982 4.75527 8.229 4.75Z" fill="#232C6A"/>
<path d="M17.3877 2.69414C17.3877 2.69414 17.4094 2.68359 17.4148 2.68359L17.3823 2.69414H17.3877Z" fill="#232C6A"/>
<path d="M16.2254 1.30742L16.2092 1.29688C16.1929 1.29688 16.1875 1.29687 16.1929 1.30215C16.2092 1.31269 16.2146 1.30215 16.2254 1.30215V1.30742Z" fill="#232C6A"/>
<path d="M16.5933 0.769531L16.6095 0.795891C16.6095 0.795891 16.5987 0.780075 16.5933 0.769531Z" fill="#232C6A"/>
<path d="M17.6149 3.4375C17.6149 3.4375 17.5987 3.4375 17.5933 3.44277L17.6149 3.4375Z" fill="#232C6A"/>
<path d="M16.7012 4.74101H16.712L16.6958 4.73047C16.6958 4.73047 16.6958 4.73574 16.6958 4.74101H16.7012Z" fill="#232C6A"/>
<path d="M17.4908 3.93163H17.5016C17.5016 3.93163 17.5178 3.90527 17.5178 3.87891H17.48L17.4908 3.93163Z" fill="#232C6A"/>
<path d="M16.5229 4.04361H16.604C16.604 4.14905 16.5066 4.14905 16.5175 4.25449L16.5066 4.24395C16.5066 4.24395 16.6256 4.34939 16.3715 4.34412H16.3661C16.3661 4.34412 16.3769 4.35466 16.3553 4.34412L16.4093 4.35466C16.4093 4.35466 16.4364 4.40738 16.431 4.42847C16.4201 4.42847 16.4093 4.41792 16.3985 4.41265L16.3769 4.4601L16.3282 4.43901C16.339 4.46537 16.4255 4.52864 16.3553 4.52336C16.4201 4.555 16.3769 4.56554 16.4093 4.58663C16.3985 4.58663 16.3877 4.57608 16.3769 4.57081C16.3661 4.59717 16.3499 4.64462 16.3715 4.67625C16.3715 4.67625 16.5553 4.69734 16.6364 4.7237C16.5932 4.73952 16.6364 4.73952 16.6634 4.74479L16.6526 4.72897C16.6797 4.7237 16.7175 4.75006 16.7337 4.75006H16.7229C16.7175 4.75006 16.7121 4.73952 16.7067 4.73952C16.7013 4.73424 16.6959 4.72897 16.7013 4.7237C16.7013 4.7237 16.7175 4.70788 16.7283 4.70261L16.7608 4.7237C16.7121 4.66571 16.9284 4.69734 16.9446 4.67098C16.9986 4.67625 16.9662 4.61826 17.0041 4.60772C17.0419 4.57081 17.0635 4.61826 17.1068 4.60772C17.1446 4.5919 17.0635 4.5919 17.0689 4.57608H17.1338C17.1338 4.57608 17.15 4.5919 17.1663 4.59717C17.1879 4.57081 17.2798 4.555 17.2203 4.50755C17.2744 4.48119 17.3014 4.497 17.3176 4.48119C17.3014 4.48119 17.2852 4.48646 17.269 4.48119C17.3068 4.48119 17.269 4.47064 17.2528 4.47064C17.2365 4.43374 17.4474 4.38629 17.3717 4.34939H17.3879C17.3339 4.32303 17.269 4.31249 17.2474 4.28085H17.2798L17.2636 4.24922C17.2852 4.24395 17.3014 4.25449 17.3068 4.25977C17.2906 4.21759 17.3393 4.18596 17.3609 4.14905L17.1825 4.13851C17.2311 4.12269 17.323 4.08579 17.2744 4.0647H17.3339C17.4582 4.01725 17.296 4.00144 17.3339 3.98035L17.4041 3.95926V3.99617C17.4366 3.96453 17.4582 3.95399 17.5015 3.9329C17.5015 3.9329 17.4961 3.9329 17.4906 3.9329C17.4582 3.91709 17.442 3.896 17.4474 3.86964C17.4636 3.83273 17.415 3.8011 17.4852 3.74311L17.4204 3.72729L17.4582 3.68512H17.5123C17.5123 3.72729 17.5285 3.81692 17.5231 3.87491H17.5447C17.5447 3.84328 17.5285 3.8011 17.5339 3.78001C17.5447 3.76947 17.5988 3.73784 17.6312 3.7642L17.5826 3.74311C17.5772 3.62185 17.5718 3.62185 17.615 3.48478L17.5934 3.5006C17.5934 3.5006 17.5555 3.45315 17.5934 3.44261C17.588 3.36353 17.5934 3.27918 17.642 3.21064H17.5826C17.5826 3.21064 17.6583 3.14738 17.5772 3.16846L17.5393 3.14738C17.5393 3.14738 17.4961 3.12629 17.5177 3.08938C17.5177 3.08938 17.5177 3.08938 17.5177 3.08411C17.5177 3.03139 17.469 3.11047 17.4744 3.04194C17.5069 3.00503 17.3987 3.05775 17.3987 3.02612L17.4636 2.96286C17.4798 2.89432 17.4041 2.93122 17.3663 2.86796C17.3771 2.82051 17.4258 2.76779 17.4961 2.75198C17.4096 2.76779 17.442 2.76779 17.3879 2.75198C17.4096 2.73089 17.4204 2.73089 17.4474 2.72035C17.4582 2.66763 17.4095 2.72035 17.3933 2.69399C17.3393 2.72035 17.2528 2.77307 17.2419 2.76779L17.2311 2.78888C17.1879 2.78888 17.1608 2.77307 17.1663 2.72562L17.1933 2.7098L17.1608 2.69399L17.1879 2.66763L17.15 2.64127V2.65181C17.15 2.65181 17.1014 2.63072 17.1014 2.59909L17.1176 2.58327C17.1284 2.49365 17.0311 2.52001 16.9824 2.47783L17.0203 2.45147C17.0365 2.40403 16.9662 2.49365 16.9662 2.46202L17.0041 2.42511C16.9338 2.45675 16.9932 2.39348 17.0041 2.36185L16.9608 2.41457L16.95 2.38294C16.9446 2.34603 16.9986 2.30386 17.0311 2.28277L16.977 2.30913L17.0203 2.26168C16.9554 2.30386 17.0203 2.24059 16.9662 2.25114C16.9824 2.23005 16.9986 2.23005 16.9932 2.21423L16.8959 2.24587L16.9446 2.23532L16.8797 2.29859C16.8094 2.33022 16.8581 2.26695 16.8256 2.27223L16.8527 2.26168C16.8148 2.25641 16.8364 2.22478 16.8364 2.19842C16.831 2.21423 16.8202 2.24059 16.7986 2.24059C16.7878 2.24059 16.8148 2.21423 16.8148 2.19842C16.7716 2.24059 16.7337 2.25114 16.7337 2.21423C16.7391 2.20896 16.7445 2.20369 16.7499 2.19842C16.7391 2.19842 16.7283 2.21423 16.7283 2.19842L16.777 2.15097L16.7175 2.18787C16.7175 2.18787 16.6742 2.18787 16.7067 2.16151H16.7229L16.6688 2.08771L16.7067 2.04553C16.6472 2.09298 16.6905 1.99281 16.631 2.06662C16.6526 2.01917 16.5607 2.0508 16.6418 1.98227C16.6094 1.94009 16.5121 1.99281 16.5066 1.91373C16.5553 1.83465 16.4904 1.81884 16.4796 1.7872C16.4039 1.76612 16.3553 1.75557 16.2958 1.72394C16.3877 1.62904 16.2147 1.68176 16.2688 1.62377L16.2201 1.63432C16.2796 1.59214 16.1931 1.59741 16.2579 1.55524C16.2363 1.55524 16.2255 1.55524 16.2255 1.55524C16.2255 1.55524 16.2147 1.55524 16.1822 1.56578C16.2039 1.55524 16.1768 1.54469 16.2417 1.53942H16.2471C16.312 1.53415 16.2147 1.52888 16.2688 1.51833H16.1985H16.2093H16.2255C16.0741 1.45507 16.2904 1.46034 16.1768 1.37072C16.2417 1.40235 16.1444 1.34436 16.2201 1.37072C16.3228 1.3918 16.2093 1.33381 16.1931 1.30745C16.1931 1.30745 16.1877 1.30745 16.1822 1.30218L16.2039 1.28109C16.2904 1.34436 16.139 1.2231 16.2039 1.28109C16.3012 1.25473 16.3012 1.12821 16.3985 1.07549L16.3769 1.05967C16.3769 1.05967 16.3985 0.996405 16.4418 1.01222C16.485 1.02804 16.4255 0.933142 16.431 0.922598C16.4147 0.87515 16.4958 0.922598 16.485 0.92787C16.4958 0.90151 16.4526 0.817158 16.5066 0.82243C16.5715 0.880422 16.5283 0.695902 16.5932 0.76971C16.6743 0.790798 16.6364 0.669542 16.7175 0.69063C16.7175 0.69063 16.7175 0.695902 16.7229 0.701174C16.6905 0.601007 16.6688 0.500839 16.6418 0.400671L16.431 0.152888L16.1877 0C16.1174 0.0738078 16.0471 0.152888 15.9768 0.231967C15.8903 0.258327 15.8038 0.289959 15.7119 0.332135C15.5659 0.495567 15.4199 0.69063 15.3226 0.933142L15.3713 1.01222C15.1874 1.11239 15.2847 1.36017 15.1982 1.53415H15.2631C15.2685 1.58687 15.2307 1.58687 15.2199 1.59741C15.2415 1.8452 15.3658 2.06662 15.4902 2.21951C15.6146 2.37767 15.7335 2.49892 15.8092 2.62545C15.8038 2.67817 15.8795 2.71507 15.8633 2.76252C15.9876 2.76779 16.0525 2.82578 16.1066 2.88905H16.1011L16.139 2.91014C16.139 2.91014 16.1336 2.92068 16.1282 2.92595C16.1985 2.91541 16.2093 2.99976 16.2309 3.04721H16.2255C16.4201 3.24227 16.6472 3.35298 16.6202 3.55859C16.5391 3.64821 16.6905 3.71675 16.5932 3.80637C16.5337 3.80637 16.5283 4.00144 16.5337 4.03834L16.5229 4.04361Z" fill="#232C6A"/>
<path d="M17.3608 4.15625V4.16152H17.3987L17.3608 4.15625Z" fill="#232C6A"/>
<path d="M17.1608 4.63046C17.1608 4.63046 17.177 4.60938 17.1608 4.60938C17.1554 4.61465 17.1554 4.62519 17.1608 4.63046Z" fill="#232C6A"/>
<path d="M16.3443 4.55078C16.3443 4.55078 16.3497 4.5666 16.3659 4.57187C16.3659 4.56133 16.3713 4.55605 16.3713 4.55605C16.3659 4.55605 16.3497 4.55605 16.3389 4.55605L16.3443 4.55078Z" fill="#232C6A"/>
<path d="M16.6528 4.75L16.6691 4.76582C16.6691 4.76582 16.6636 4.75527 16.6528 4.75Z" fill="#232C6A"/>
<path d="M9.05619 11.4141H9.05078C9.05078 11.4141 9.05078 11.4457 9.05078 11.451L9.06159 11.4141H9.05619Z" fill="#232C6A"/>
<path d="M7.73689 11.9727H7.72607C7.72607 11.9727 7.73148 11.9885 7.73689 11.9727Z" fill="#232C6A"/>
<path d="M19.3934 14.2875C19.3826 14.2558 19.4151 14.2875 19.4259 14.2927C19.4205 14.2558 19.3988 14.2242 19.3718 14.2031C19.3556 14.2137 19.3988 14.2664 19.3988 14.2875H19.3934Z" fill="#232C6A"/>
<path d="M21.0479 18.7033L21.0371 18.6875C21.0371 18.6875 21.0425 18.698 21.0479 18.7033Z" fill="#232C6A"/>
<path d="M12.1216 9.74746C12.1216 9.74746 12.1378 9.74746 12.1432 9.74219C12.1324 9.74219 12.1216 9.74219 12.1216 9.74746Z" fill="#232C6A"/>
<path d="M6.6393 12.7137C6.6393 12.7137 6.62308 12.7031 6.61768 12.7031L6.6393 12.7137Z" fill="#232C6A"/>
<path d="M3.08161 18.3519H3.09243L3.0708 18.3203C3.0708 18.3361 3.0708 18.3467 3.08161 18.3519Z" fill="#232C6A"/>
<path d="M5.26615 13.9267V13.9373C5.29318 13.9162 5.34725 13.8529 5.40672 13.7685L5.37969 13.7422L5.26074 13.9267H5.26615Z" fill="#232C6A"/>
<path d="M3.38995 15.2579L3.55756 15.0997C3.41699 15.4107 3.30345 15.6322 3.22235 15.8589C3.14125 16.0803 3.03312 16.2859 2.99527 16.5759V16.539C2.95742 16.6233 3.07637 16.6918 2.68709 17.5723H2.68169C2.68169 17.6039 2.6925 17.6039 2.66006 17.6672L2.73035 17.5143C2.73035 17.6144 2.75738 17.7041 2.74116 17.8306C2.73035 17.8569 2.70872 17.8622 2.69791 17.8622L2.66006 18.1785C2.63843 18.2102 2.61681 18.2365 2.60059 18.2682C2.62221 18.3683 2.73034 18.3314 2.66006 18.5845C2.74116 18.4949 2.69791 18.7163 2.73575 18.6847C2.72494 18.6952 2.70872 18.7268 2.69791 18.7479C2.69791 18.9008 2.69791 19.1908 2.74116 19.254C2.74116 19.254 2.78441 19.1064 2.84388 18.943C2.90336 18.7795 2.96824 18.595 3.01149 18.5212C2.97905 18.7268 3.0169 18.5739 3.04393 18.537L3.02771 18.5212C3.05474 18.4 3.098 18.4 3.11422 18.342H3.1034V18.3525C3.1034 18.3525 3.09259 18.3525 3.09259 18.3472C3.08178 18.3472 3.07637 18.342 3.08178 18.3103C3.07637 18.2629 3.1034 18.1785 3.10881 18.1416H3.14665C3.08718 18.0415 3.35211 17.5564 3.37373 17.4405C3.44943 17.3298 3.43321 17.1716 3.49268 17.0292C3.56837 16.7973 3.57918 16.9238 3.63866 16.8184C3.69813 16.6813 3.59 16.8342 3.60081 16.7762L3.69813 16.618C3.6765 16.7182 3.71435 16.6708 3.73057 16.6602C3.78464 16.5126 3.94143 16.3123 3.88736 16.2384C3.99549 16.0539 4.02253 16.0645 4.06037 15.9854C4.03875 16.0065 4.00631 16.0592 3.99009 16.0539C4.04956 15.9854 3.99549 16.0118 3.97927 16.0434C3.97927 15.901 4.37936 15.4951 4.31449 15.4371H4.33071C4.28745 15.3897 4.21176 15.4055 4.21717 15.3106L4.27123 15.2684L4.28745 15.1735C4.33071 15.1261 4.33611 15.163 4.34152 15.1682C4.37396 15.0206 4.52534 14.8677 4.62266 14.7201L4.37396 14.7939C4.4875 14.6832 4.70376 14.4934 4.67132 14.4354L4.76864 14.388C5.02816 14.1982 4.85515 14.1929 4.95247 14.1086L5.09845 14.0242L5.00653 14.1455C5.12548 14.0453 5.17955 14.0084 5.28227 13.9399C5.28227 13.9399 5.27146 13.9451 5.26605 13.9399L5.27686 13.924C5.26064 13.8924 5.29308 13.8133 5.35796 13.7343C5.45528 13.6235 5.50935 13.5128 5.72561 13.3758V13.2914L5.87159 13.186L5.90944 13.2229C5.79049 13.3494 5.57423 13.6025 5.42825 13.7764L5.44447 13.7922C5.52557 13.6868 5.61748 13.5656 5.68236 13.5023C5.72021 13.4759 5.83375 13.4338 5.80671 13.5128L5.82293 13.4179C6.11489 13.0858 6.13111 13.0911 6.51498 12.8222H6.46632C6.52579 12.7589 6.58527 12.6851 6.62852 12.7009C6.84479 12.527 7.10971 12.3952 7.28813 12.3372V12.2634C7.33679 12.2317 7.45573 12.2528 7.43411 12.1685L7.52602 12.0841C7.59631 12.0472 7.62334 11.9945 7.72066 11.9734H7.73688C7.90448 11.8996 7.70984 11.926 7.90448 11.8469C7.98558 11.8469 7.93152 11.7414 8.02343 11.7045C8.06668 11.7098 8.10993 11.7204 8.15319 11.7309C8.34242 11.694 8.33161 11.6096 8.5749 11.4937C8.70466 11.4673 8.79117 11.5042 8.74251 11.5991C8.8128 11.4778 8.76954 11.5306 8.8939 11.4304C8.92634 11.4515 8.91552 11.462 8.8939 11.5042C9.03447 11.4884 8.95877 11.4462 9.05609 11.4146C9.05609 11.3513 9.05609 11.2459 9.08853 11.2353H9.04528C9.13719 11.1668 9.25073 11.1088 9.38049 11.093V11.1246L9.51025 11.0614L9.53188 11.093C9.59135 11.0666 9.65082 11.0403 9.7157 11.0192H9.68867C9.73192 10.9981 9.87249 10.9506 9.96441 10.9506V10.9717C10.2239 10.9876 10.3861 10.8241 10.6727 10.7819L10.6456 10.8294C10.7484 10.8558 10.6619 10.7609 10.7808 10.7661L10.797 10.8188C10.8835 10.7345 10.9322 10.8188 11.0025 10.8294L10.9592 10.7661H11.0944C11.2404 10.7661 11.1917 10.8347 11.1755 10.8768L11.2674 10.8083L11.2944 10.8663C11.3593 10.7872 11.3647 10.8663 11.4891 10.8188C11.4999 10.8399 11.4729 10.8558 11.5161 10.8663L11.7162 10.7661L11.5918 10.8136V10.724C11.727 10.6501 11.781 10.724 11.8729 10.6976L11.8081 10.7292C11.9595 10.6976 11.9703 10.7398 12.0568 10.7556C12.0297 10.7398 11.9865 10.7187 12.0514 10.7029C12.0946 10.6976 12.0784 10.7345 12.1216 10.7398C12.1325 10.6818 12.2406 10.6343 12.3433 10.6712C12.3433 10.6818 12.3433 10.687 12.3325 10.6923C12.3595 10.6818 12.3704 10.6712 12.4136 10.687L12.3866 10.7556L12.4731 10.6976C12.5271 10.7187 12.6137 10.6765 12.6028 10.7187L12.5704 10.7292L12.9975 10.7661V10.8188C13.0462 10.745 13.23 10.861 13.2246 10.7714C13.3003 10.8347 13.5436 10.7819 13.4841 10.8821C13.7544 10.9401 13.9329 10.8294 14.2519 10.977C14.3492 11.093 14.6736 11.1404 14.8844 11.209C15.2899 11.325 15.5765 11.3513 15.9766 11.5306C16.0685 11.6413 16.2199 11.6993 16.3767 11.7573C16.5335 11.8205 16.6848 11.8891 16.7876 11.9892H16.8795C16.9389 12.0683 17.0417 12.121 17.1552 12.1843C17.2633 12.2581 17.3769 12.3319 17.458 12.4426C17.5229 12.4637 17.5553 12.4795 17.5661 12.4848C17.5553 12.4743 17.5499 12.4584 17.5661 12.4321C17.6148 12.4953 17.7554 12.5639 17.7067 12.6061H17.6851C17.6364 12.6377 17.8851 12.7115 17.9067 12.8117L17.9175 12.7326L18.0149 12.838L17.977 12.8222C18.5555 13.1174 18.5826 13.4759 19.0746 13.8133C18.9718 13.7975 19.1773 13.8819 19.1178 13.9346C19.1232 14.1138 19.2962 14.1349 19.3936 14.214C19.3936 14.214 19.399 14.214 19.4098 14.214L19.5287 14.388C19.3665 14.3458 19.6909 14.4618 19.5503 14.4196C19.6639 14.6727 19.8315 14.9363 19.9991 15.2104C20.1397 15.5004 20.3235 15.7851 20.41 16.0908L20.4262 16.0539C20.4749 16.2068 20.5776 16.3808 20.5776 16.5073C20.583 16.6338 20.729 16.734 20.7452 16.7815C20.8209 16.8974 20.7668 17.0398 20.756 16.9818C20.8047 17.1136 20.929 17.2243 20.9398 17.4246C20.875 17.5037 21.1129 17.9466 21.0155 17.9677H21.0264C21.0101 18.0995 21.0426 18.2154 21.075 18.342C21.0966 18.4685 21.1129 18.595 21.0912 18.7321C21.0912 18.7321 21.0858 18.7321 21.075 18.7163C21.1831 18.8955 21.2967 19.08 21.3994 19.2698L21.7238 19.1011L21.9671 18.5687C21.9509 18.3314 21.913 18.0942 21.859 17.8622C21.8049 17.6303 21.7779 17.393 21.7022 17.1663C21.6319 16.792 21.5941 16.4072 21.4751 16.0381C21.1615 15.1577 20.6803 14.3353 20.1072 13.5972L19.9234 13.4812C19.8153 13.2176 19.5936 12.9909 19.3665 12.7642C19.1503 12.527 18.8853 12.3319 18.6961 12.0947L18.642 12.1316C18.5123 12.0209 18.5501 11.9998 18.5231 11.9681C17.2958 10.9717 15.7603 10.3707 14.3978 9.99115C14.2789 9.90152 13.8572 9.87516 13.7544 9.81717C13.2841 9.80663 12.7975 9.79608 12.3379 9.76445H12.3541C12.2838 9.75391 12.2082 9.76445 12.1379 9.76972C12.1271 9.76972 12.1271 9.75918 12.1379 9.75391C11.8946 9.82244 11.5053 9.78027 11.2025 9.78554L11.2187 9.77499C9.46159 9.9806 7.93152 10.6554 6.49335 11.6044C5.75805 11.984 5.17954 12.7431 4.54697 13.4021C4.47668 13.4548 4.13607 13.8397 3.89277 14.2878C3.61162 14.7148 3.43861 15.1946 3.40617 15.2684L3.38995 15.2579Z" fill="#232C6A"/>
<path d="M4.61722 14.7098L4.61182 14.715L4.66588 14.6992L4.61722 14.7098Z" fill="#232C6A"/>
<path d="M3.71436 16.7498C3.7468 16.6549 3.74139 16.6496 3.73058 16.6601C3.71976 16.697 3.71436 16.7234 3.71436 16.7498Z" fill="#232C6A"/>
<path d="M2.66016 18.7486C2.66016 18.8066 2.67097 18.7855 2.6926 18.7486C2.6926 18.6906 2.6926 18.6484 2.6926 18.6484C2.68719 18.6748 2.67097 18.717 2.66016 18.7433V18.7486Z" fill="#232C6A"/>
<path d="M3.03857 18.5415L3.0602 18.5626C3.0602 18.5309 3.04939 18.5309 3.03857 18.5415Z" fill="#232C6A"/>
</g>
<defs>
<clipPath id="clip0_1128_3833">
<rect width="24" height="22" fill="white"/>
</clipPath>
</defs>
</svg>
