
<svg xmlns="http://www.w3.org/2000/svg" width="48" height="48" fill="none"><path d="M 0.514 24.036 C 0.514 24.036 0.684 28.191 0.513 24.016 C 0.341 19.841 1.897 15.367 4.577 11.39 C 6.315 8.878 8.483 6.674 10.987 4.875 L 10.987 4.875 L 10.99 4.873 C 12.75 3.589 14.828 2.72 16.954 1.832 C 17.563 1.578 18.176 1.322 18.787 1.054 L 18.788 1.053 C 20.977 0.082 23.185 0.576 25.559 1.108 C 25.773 1.156 25.989 1.204 26.205 1.251 L 26.206 1.251 C 26.729 1.365 27.249 1.507 27.781 1.654 C 27.815 1.664 27.849 1.673 27.884 1.683 C 28.38 1.82 28.888 1.961 29.402 2.079 L 29.402 2.08 L 29.408 2.081 C 29.587 2.12 29.741 2.075 29.834 2.037 C 29.931 1.998 30.015 1.944 30.076 1.902 C 30.128 1.867 30.182 1.827 30.224 1.795 C 30.232 1.789 30.24 1.783 30.247 1.777 C 30.299 1.739 30.333 1.715 30.359 1.698 C 30.731 1.471 31.016 1.475 31.3 1.568 C 31.567 1.656 31.815 1.811 32.128 2.007 C 32.214 2.061 32.306 2.119 32.404 2.178 C 32.836 2.441 33.291 2.659 33.72 2.863 L 33.726 2.866 C 34.161 3.073 34.568 3.267 34.949 3.497 L 34.949 3.497 C 36.368 4.351 37.766 5.224 39.092 6.168 C 39.21 6.253 39.307 6.411 39.47 6.704 C 39.476 6.715 39.482 6.727 39.489 6.739 C 39.622 6.98 39.818 7.336 40.138 7.563 C 43.345 9.892 45.21 13.158 46.399 16.795 C 47.287 19.518 47.721 22.364 47.388 25.241 C 47.039 28.198 46.241 31.087 45.021 33.817 L 45.019 33.82 C 43.134 38.122 39.895 41.214 36.057 43.906 L 36.057 43.906 C 33.761 45.522 31.273 46.803 28.509 47.289 C 27.164 47.525 25.79 47.563 24.433 47.404 C 24.433 47.404 22.032 47.651 20 47.5 C 17.968 47.349 16.304 46.8 14.5 46.5 C 10.892 45.899 12.375 45.875 11 44.5 C 9.625 43.125 9.25 41.875 8 41 C 6.75 40.125 7.125 41.875 6 41 C 4.875 40.125 4 39.5 3 37 C 2 34.5 1.622 34.491 1 31 C 0.378 27.509 0.514 24.036 0.514 24.036 Z" fill="transparent" stroke="#232c6a" stroke-miterlimit="10" stroke-dasharray=""></path></svg>