<svg width="322" height="4" viewBox="0 0 322 4" fill="none" xmlns="http://www.w3.org/2000/svg">
<path opacity="0.1" d="M290.116 0.897126C296.334 0.798128 302.552 0.456756 308.769 0.200726L308.752 0.197313L308.936 0.189751C313.484 0.00259495 322.428 -0.365463 321.984 0.999538C320.997 1.62425 319.681 1.39382 318.503 1.43137C308.787 1.7352 299.053 2.0595 289.32 2.27798C283.05 2.41794 276.746 2.22336 270.494 2.47768C262.354 2.81052 254.231 2.63983 246.108 2.55108C237.05 2.45208 228.061 3.10069 219.021 3.07508C211.261 3.05289 203.502 3.23211 195.743 3.36525C190.097 3.46254 184.468 3.54618 178.822 3.57007C171.496 3.6025 164.17 3.79026 156.827 3.75442C153.675 3.73905 150.349 4.03263 147.214 3.90291C141.863 3.68102 136.546 3.71174 131.211 3.65371C124.89 3.58544 118.586 3.6008 112.264 3.44889C107.778 3.34135 103.258 3.38744 98.7549 3.44035C93.5591 3.5018 88.3633 3.78685 83.1675 3.71857C76.0839 3.62469 69.0003 3.71516 61.934 3.87731C54.1057 4.05653 46.2946 4.00703 38.4836 3.93193C25.65 3.80733 12.8163 3.51375 0 3.03412C-9.90625e-06 2.05112 0.711661 1.70134 2.56759 1.69706C7.77174 1.70025 12.9808 1.58811 18.1853 1.62254C24.8533 1.66692 31.5039 1.99635 38.1545 2.05097C53.5341 2.17727 68.9137 2.37015 84.2933 2.23531C95.2045 2.13972 106.133 2.17045 117.044 2.1329C126.882 2.10046 136.684 1.56013 146.487 1.56354C160.983 1.56866 175.48 1.37237 189.976 1.11634C198.359 0.967846 206.724 1.83419 215.089 1.75568C222.467 1.6857 229.862 1.75226 237.223 1.44674C244.792 1.13267 252.343 1.37846 259.894 1.34091C264.518 1.31872 269.177 1.06099 273.802 0.977349C279.223 0.880058 284.678 0.984176 290.116 0.897126Z" fill="#232C6A"/>
</svg>
