<svg width="668" height="4" viewBox="0 0 668 4" fill="none" xmlns="http://www.w3.org/2000/svg">
<path opacity="0.1" d="M601.551 0.734815C614.443 0.630639 627.336 0.271409 640.228 0.00198686L664.192 0C666.978 0 667.628 0.840345 667.628 0.842584C668.465 1.5 667.628 3 667.628 3C647.482 3.31971 620.082 1.95799 599.899 2.1879C586.899 2.33518 573.828 2.13042 560.864 2.39805C543.985 2.7483 527.143 2.56868 510.301 2.47528C491.519 2.37111 472.881 3.05364 454.135 3.0267C438.047 3.00335 421.958 3.19195 405.87 3.33205C394.163 3.43443 382.492 3.52244 370.785 3.54759C355.594 3.58171 340.404 3.77929 325.177 3.74157C318.642 3.7254 311.747 4.03434 305.247 3.89783C294.15 3.66433 283.125 3.69667 272.064 3.6356C258.957 3.56375 245.885 3.57992 232.777 3.42006C223.476 3.3069 214.104 3.3554 204.767 3.41108C193.993 3.47574 183.22 3.7757 172.446 3.70385C157.759 3.60506 143.071 3.70026 128.419 3.87089C112.187 4.05949 95.9911 4.0074 79.7951 3.92837C53.1847 3.79725 26.5744 3.48831 0 2.98359C-2.05404e-05 1.94918 1.47562 1.5811 5.32385 1.57659C16.1146 1.57995 26.9156 1.46195 37.7069 1.49818C51.5328 1.54488 65.3228 1.89154 79.1127 1.94901C111.002 2.08193 142.891 2.28489 174.781 2.143C197.405 2.04241 220.065 2.07474 242.689 2.03523C263.087 2.0011 283.412 2.45732 303.738 2.46091C333.796 2.4663 363.854 2.25975 393.912 1.99032C411.293 1.83406 428.638 1.7209 445.983 1.63828C461.281 1.56464 476.616 1.63469 491.878 1.31318C507.571 0.982684 523.427 0.774331 539.084 0.734815C548.673 0.711465 558.123 0.822827 567.712 0.734815C578.952 0.632435 590.275 0.826419 601.551 0.734815Z" fill="#232C6A"/>
</svg>
