<svg width="130" height="2" viewBox="0 0 130 2" fill="none" xmlns="http://www.w3.org/2000/svg">
<path d="M57.5896 0.693309C74.32 0.78362 91.0505 0.907798 107.781 0.817487C115.183 0.775247 122.592 0.768129 130 0.76328C130 1.12889 126.613 1.60017 123.513 1.64158C117.861 1.67544 112.208 1.86736 106.556 1.8222C98.8505 1.75447 91.1447 1.8222 83.4577 1.9238C74.9418 2.03669 66.4447 2.00282 57.9476 1.95767C43.9867 1.86736 30.0258 1.67544 16.0838 1.35935C11.6563 1.25775 7.19104 1.19002 2.80119 0.941665C1.76495 0.873932 -0.175625 0.896509 0.0127809 0.365931C0.238868 -0.232381 2.00988 0.0724194 3.04611 0.117575C13.9548 0.68202 24.92 0.365931 35.8664 0.411086C43.12 0.444953 50.3548 0.659442 57.5896 0.693309Z" fill="white"/>
</svg>
