
<svg width="69" height="2" viewBox="0 0 69 2" fill="none" xmlns="http://www.w3.org/2000/svg">
<path d="M30.5668 0.693309C39.4468 0.78362 48.3268 0.907798 57.2068 0.817487C61.1356 0.775247 65.0683 0.768129 69 0.76328C69 1.12889 67.2022 1.60017 65.5568 1.64158C62.5568 1.67544 59.5568 1.86736 56.5568 1.8222C52.4668 1.75447 48.3768 1.8222 44.2968 1.9238C39.7768 2.03669 35.2668 2.00282 30.7568 1.95767C23.3468 1.86736 15.9368 1.67544 8.53678 1.35935C6.18678 1.25775 3.81678 1.19002 1.48678 0.941665C0.936784 0.873932 -0.0932163 0.896509 0.00678369 0.365931C0.126784 -0.232381 1.06678 0.0724194 1.61678 0.117575C7.40678 0.68202 13.2268 0.365931 19.0368 0.411086C22.8868 0.444953 26.7268 0.659442 30.5668 0.693309Z" fill="white"/>
</svg>
