<svg width="68" height="5" viewBox="0 0 68 5" fill="none" xmlns="http://www.w3.org/2000/svg">
<path d="M19.8016 4.19602C19.6428 4.19461 19.4839 4.20305 19.3265 4.18475C19.128 4.16082 18.9464 4.08338 18.7762 3.97498C18.4486 3.76802 17.5778 3.05141 17.4715 2.90922C17.168 2.50516 16.1851 1.52105 16.0575 1.369C15.9625 1.25496 15.876 1.13248 15.7597 1.04097C15.5881 0.905809 15.3994 0.822744 15.1782 0.822744C14.9343 0.822744 14.7003 0.860757 14.4648 0.928335C13.9826 1.06771 13.5118 1.23807 13.048 1.43517C12.8112 1.53513 12.6041 1.68155 12.4183 1.86035C12.2198 2.05041 12.0411 2.26159 11.8567 2.46433C11.6383 2.70507 11.4213 2.94723 11.2015 3.18516C11.0001 3.40338 10.7945 3.61597 10.5633 3.79899C10.2229 4.06931 9.83858 4.25374 9.43013 4.38467C9.08408 4.49589 8.73094 4.50575 8.37639 4.48745C8.21755 4.479 8.06721 4.41846 7.92114 4.35229C7.52971 4.17349 7.2021 3.91303 6.94824 3.55402C6.68728 3.18234 6.39796 2.83319 6.13134 2.46714C6.00653 2.29538 5.88599 2.1194 5.747 1.9589C5.46903 1.6379 4.94145 1.25637 4.07917 1.06208C3.79269 1.05504 3.50762 1.05364 3.22398 1.11277C2.85524 1.18879 2.54607 1.3873 2.24398 1.60552C1.60578 2.06731 0.464111 3.50616 0.445674 3.53291C0.418728 3.57233 0.397455 3.585 0.35349 3.55402C0.251378 3.48081 0.146429 3.41042 0.0499895 3.32876C-0.0109942 3.27667 -0.0138306 3.26822 0.0287161 3.19502C0.125155 3.02889 0.790303 2.16445 1.04133 1.91666C1.50934 1.45488 2.01849 1.04941 2.60705 0.765021C2.89637 0.624234 3.20412 0.543985 3.52039 0.501749C3.80829 0.463736 4.0976 0.456696 4.38692 0.46092C4.49471 0.462328 4.60107 0.476407 4.70319 0.508788C5.12156 0.641128 5.5215 0.812889 5.87038 1.09587C6.08454 1.26904 6.27032 1.47037 6.43484 1.69422C6.76245 2.13911 7.11984 2.56006 7.44036 3.01058C7.58786 3.21754 7.76939 3.3893 7.98212 3.52164C8.18067 3.64554 8.3849 3.76098 8.61323 3.81307C8.82029 3.85953 9.03019 3.86094 9.23725 3.80322C9.55777 3.71593 9.85843 3.58922 10.1123 3.35833C10.3747 3.11899 10.6172 2.85713 10.8455 2.584C11.1334 2.23907 11.4227 1.89695 11.7135 1.55625C11.99 1.23103 12.329 0.993097 12.7048 0.810073C13.1927 0.572142 13.6962 0.37504 14.2138 0.221581C14.4095 0.163858 14.6024 0.0948723 14.8038 0.0610833C15.1186 0.00758404 15.4349 -0.014942 15.7512 0.0103998C15.9965 0.0301101 16.205 0.155411 16.3723 0.342659C16.4872 0.472183 16.5993 0.603116 16.7085 0.738272C16.8106 0.864981 18.4926 2.65298 18.8627 2.89514C19.023 3.00073 19.7392 3.36114 19.9519 3.36537C20.0824 3.36818 20.2143 3.36537 20.3448 3.36537C20.3973 3.36537 21.1362 3.10913 21.4283 2.92611C21.5716 2.83741 22.4537 2.18557 22.7756 1.98283C23.1515 1.74631 23.5393 1.36478 23.9222 1.14374C24.0286 1.08179 24.135 1.02829 24.264 1.03956C24.3193 1.04519 24.3434 1.06349 24.3576 1.11558C24.4002 1.27186 24.2557 1.40464 24.3152 1.55247C24.3351 1.60175 24.3237 1.6299 24.2769 1.65525C24.0982 1.75521 24.1179 1.8871 23.9364 1.98283C23.5889 2.16727 23.2578 2.55443 22.9217 2.75857C22.6849 2.90218 21.4694 3.76943 21.034 3.94682C20.9532 3.9792 20.871 4.00595 20.7915 4.03974C20.5292 4.15096 19.8555 4.19179 19.7974 4.19179L19.8016 4.19602Z" fill="red"/>
<path d="M41.8716 4.19602C41.7127 4.19461 41.5539 4.20305 41.3965 4.18475C41.1979 4.16082 41.0164 4.08338 40.8462 3.97498C40.5186 3.76802 39.6478 3.05141 39.5414 2.90922C39.2379 2.50516 38.2551 1.52105 38.1275 1.369C38.0325 1.25496 37.9459 1.13248 37.8297 1.04097C37.658 0.905809 37.4694 0.822744 37.2482 0.822744C37.0042 0.822744 36.7702 0.860757 36.5348 0.928335C36.0526 1.06771 35.5818 1.23807 35.118 1.43517C34.8812 1.53513 34.6741 1.68155 34.4883 1.86035C34.2898 2.05041 34.1111 2.26159 33.9267 2.46433C33.7083 2.70507 33.4913 2.94723 33.2715 3.18516C33.0701 3.40338 32.8644 3.61597 32.6333 3.79899C32.2929 4.06931 31.9086 4.25374 31.5001 4.38467C31.1541 4.49589 30.8009 4.50575 30.4464 4.48745C30.2875 4.479 30.1372 4.41846 29.9911 4.35229C29.5997 4.17349 29.2721 3.91303 29.0182 3.55402C28.7573 3.18234 28.4679 2.83319 28.2013 2.46714C28.0765 2.29538 27.956 2.1194 27.817 1.9589C27.539 1.6379 27.0114 1.25637 26.1491 1.06208C25.8627 1.05504 25.5776 1.05364 25.294 1.11277C24.9252 1.18879 24.616 1.3873 24.314 1.60552C23.6758 2.06731 22.0884 3.28374 22.07 3.31049C22.0431 3.34991 22.0218 3.36258 21.9778 3.33161C21.8757 3.2584 21.7708 3.18801 21.6743 3.10635C21.6133 3.05426 21.6105 3.04581 21.653 2.9726C21.7495 2.80647 22.8603 2.16445 23.1113 1.91666C23.5793 1.45488 24.0885 1.04941 24.677 0.765021C24.9663 0.624234 25.2741 0.543985 25.5904 0.501749C25.8783 0.463736 26.1676 0.456696 26.4569 0.46092C26.5647 0.462328 26.6711 0.476407 26.7732 0.508788C27.1915 0.641128 27.5915 0.812889 27.9404 1.09587C28.1545 1.26904 28.3403 1.47037 28.5048 1.69422C28.8324 2.13911 29.1898 2.56006 29.5103 3.01058C29.6578 3.21754 29.8394 3.3893 30.0521 3.52164C30.2507 3.64554 30.4549 3.76098 30.6832 3.81307C30.8903 3.85953 31.1002 3.86094 31.3072 3.80322C31.6278 3.71593 31.9284 3.58922 32.1823 3.35833C32.4446 3.11899 32.6872 2.85713 32.9155 2.584C33.2034 2.23907 33.4927 1.89695 33.7835 1.55625C34.06 1.23103 34.399 0.993097 34.7748 0.810073C35.2627 0.572142 35.7661 0.37504 36.2838 0.221581C36.4795 0.163858 36.6724 0.0948723 36.8738 0.0610833C37.1886 0.00758404 37.5049 -0.014942 37.8211 0.0103998C38.0665 0.0301101 38.275 0.155411 38.4423 0.342659C38.5572 0.472183 38.6692 0.603116 38.7784 0.738272C38.8806 0.864981 40.5626 2.65298 40.9327 2.89514C41.093 3.00073 41.8092 3.36114 42.0219 3.36537C42.1524 3.36818 42.2843 3.36537 42.4148 3.36537C42.4672 3.36537 43.2061 3.10913 43.4983 2.92611C43.6415 2.83741 44.5237 2.18557 44.8456 1.98283C45.2214 1.74631 45.6086 1.53513 45.9915 1.31409C46.0979 1.25215 46.2043 1.19865 46.3333 1.20991C46.3886 1.21554 46.4127 1.23384 46.4269 1.28594C46.4695 1.44221 46.5191 1.59567 46.5787 1.7435C46.5985 1.79277 46.5872 1.82093 46.5404 1.84627C46.3617 1.94623 46.1872 2.05745 46.0057 2.15319C45.6583 2.33762 45.3278 2.55443 44.9917 2.75857C44.7548 2.90218 43.5394 3.76943 43.104 3.94682C43.0232 3.9792 42.9409 4.00595 42.8615 4.03974C42.5991 4.15096 41.9255 4.19179 41.8673 4.19179L41.8716 4.19602Z" fill="red"/>
<path d="M63.2835 4.19602C63.1247 4.19461 62.9659 4.20305 62.8084 4.18475C62.6099 4.16082 62.4283 4.08338 62.2582 3.97498C61.9305 3.76802 61.0598 3.05141 60.9534 2.90922C60.6499 2.50516 59.6671 1.52105 59.5394 1.369C59.4444 1.25496 59.3579 1.13248 59.2416 1.04097C59.07 0.905809 58.8814 0.822744 58.6601 0.822744C58.4162 0.822744 58.1822 0.860757 57.9468 0.928335C57.4646 1.06771 56.9937 1.23807 56.5299 1.43517C56.2931 1.53513 56.086 1.68155 55.9003 1.86035C55.7017 2.05041 55.523 2.26159 55.3386 2.46433C55.1202 2.70507 54.9032 2.94723 54.6834 3.18516C54.482 3.40338 54.2764 3.61597 54.0452 3.79899C53.7048 4.06931 53.3205 4.25374 52.9121 4.38467C52.566 4.49589 52.2129 4.50575 51.8583 4.48745C51.6995 4.479 51.5491 4.41846 51.4031 4.35229C51.0116 4.17349 50.684 3.91303 50.4302 3.55402C50.1692 3.18234 49.8799 2.83319 49.6133 2.46714C49.4885 2.29538 49.3679 2.1194 49.2289 1.9589C48.951 1.6379 48.7311 1.51034 47.8688 1.31605C47.5824 1.30901 47.4504 1.65525 46.8986 1.65525C46.5299 1.73127 46.4406 1.9589 45.7951 2.20699C45.1569 2.66878 43.5696 3.63712 43.5511 3.66387C43.5242 3.70329 43.5029 3.71596 43.459 3.68499C43.3569 3.61178 43.2519 3.54138 43.1555 3.45973C43.0945 3.40764 43.0916 3.39919 43.1342 3.32598C43.2306 3.15985 44.3414 2.51783 44.5925 2.27004C45.0605 1.80826 45.5696 1.40279 46.1582 1.1184C46.4475 0.977611 46.686 0.543985 47.0023 0.501749C47.2902 0.463736 47.5795 0.456696 47.8688 0.46092C47.9766 0.462328 48.083 0.476407 48.1851 0.508788C48.6035 0.641128 49.0034 0.812889 49.3523 1.09587C49.5665 1.26904 49.7523 1.47037 49.9168 1.69422C50.2444 2.13911 50.6018 2.56006 50.9223 3.01058C51.0698 3.21754 51.2513 3.3893 51.464 3.52164C51.6626 3.64554 51.8668 3.76098 52.0952 3.81307C52.3022 3.85953 52.5121 3.86094 52.7192 3.80322C53.0397 3.71593 53.3404 3.58922 53.5942 3.35833C53.8566 3.11899 54.0991 2.85713 54.3274 2.584C54.6153 2.23907 54.9047 1.89695 55.1954 1.55625C55.472 1.23103 55.8109 0.993097 56.1867 0.810073C56.6746 0.572142 57.1781 0.37504 57.6957 0.221581C57.8914 0.163858 58.0843 0.0948723 58.2857 0.0610833C58.6006 0.00758404 58.9168 -0.014942 59.2331 0.0103998C59.4784 0.0301101 59.6869 0.155411 59.8543 0.342659C59.9691 0.472183 60.0812 0.603116 60.1904 0.738272C60.2925 0.864981 61.9745 2.65298 62.3447 2.89514C62.5049 3.00073 63.2211 3.36114 63.4339 3.36537C63.5643 3.36818 63.6962 3.36537 63.8267 3.36537C63.8792 3.36537 64.6181 3.10913 64.9102 2.92611C65.0535 2.83741 65.9356 2.18557 66.2576 1.98283C66.6334 1.74631 67.0206 1.53513 67.4035 1.31409C67.5098 1.25215 67.6162 1.19865 67.7453 1.20991C67.8006 1.21554 67.8247 1.23384 67.8389 1.28594C67.8814 1.44221 67.9311 1.59567 67.9906 1.7435C68.0105 1.79277 67.9991 1.82093 67.9523 1.84627C67.7736 1.94623 67.5992 2.05745 67.4177 2.15319C67.0702 2.33762 66.7397 2.55443 66.4036 2.75857C66.1668 2.90218 64.9514 3.76943 64.516 3.94682C64.4351 3.9792 64.3529 4.00595 64.2735 4.03974C64.0111 4.15096 63.3374 4.19179 63.2793 4.19179L63.2835 4.19602Z" fill="red"/>
</svg>
