<svg width="1402" height="5989" viewBox="0 0 1402 5989" fill="none" xmlns="http://www.w3.org/2000/svg">
<path d="M635.5 5988C275.5 5525.5 436.5 5458.5 1101.5 5231C1297.36 5163.99 1389 4792 809 4607.5C338.413 4457.8 889.501 4141.02 1246.79 3703.5C1546.16 3336.9 1711.5 2881.08 1007 2997C28.4999 3158 -129.5 2140.18 119 1999C335.5 1876 819.5 1921.5 1004.5 1642.5C1134.62 1446.26 1454 801.581 1050.5 710.999C767.501 647.469 1 939.765 1 750.5C1 650 29.8 353 501 179C529.5 168 689.5 138 680.5 1" stroke="#232C6A" stroke-width="1.2" stroke-linecap="round" stroke-dasharray="8 8"/>
</svg>
