<svg width="109" height="56" viewBox="0 0 109 56" fill="none" xmlns="http://www.w3.org/2000/svg">
<g clip-path="url(#clip0_649_2565)">
<path fill-rule="evenodd" clip-rule="evenodd" d="M106.982 32.0535C105.817 30.8881 104.408 30.3047 102.755 30.3047C101.102 30.3047 99.6902 30.8881 98.5248 32.0535C97.3594 33.2218 96.7759 34.6304 96.7759 36.2837C96.7759 36.8063 96.8324 37.3072 96.9526 37.7835C97.2797 37.7647 97.62 37.7459 97.9732 37.7328C97.8415 37.2754 97.772 36.7947 97.772 36.2837C97.772 34.9098 98.2598 33.7357 99.2341 32.7614C100.207 31.7886 101.38 31.3022 102.756 31.3022C104.133 31.3022 105.304 31.7871 106.279 32.7614C107.252 33.7343 107.736 34.9098 107.736 36.2837C107.736 36.8758 107.648 37.4332 107.463 37.9529C107.819 37.9847 108.159 38.0195 108.484 38.0542C108.65 37.4998 108.733 36.9077 108.733 36.2837C108.733 34.6304 108.149 33.2218 106.984 32.0535H106.982Z" fill="white"/>
<path fill-rule="evenodd" clip-rule="evenodd" d="M108.482 38.0558C108.381 38.396 108.249 38.7203 108.083 39.033C107.809 39.5657 107.44 40.0594 106.984 40.5169C105.818 41.6823 104.41 42.2657 102.756 42.2657C101.103 42.2657 99.6916 41.6823 98.5262 40.5169C98.0007 39.9913 97.591 39.4137 97.3044 38.784C97.1567 38.4626 97.0395 38.1325 96.954 37.785C97.2812 37.7662 97.6214 37.7474 97.9747 37.7344C98.0789 38.0847 98.2208 38.4148 98.4032 38.7333C98.6203 39.114 98.8983 39.4731 99.2342 39.8075C100.207 40.7803 101.38 41.2653 102.756 41.2653C104.133 41.2653 105.304 40.7803 106.279 39.8075C106.555 39.531 106.793 39.2371 106.988 38.9287C107.189 38.6204 107.347 38.2961 107.463 37.9559C107.819 37.9877 108.159 38.0225 108.484 38.0572L108.482 38.0558Z" fill="white"/>
<path fill-rule="evenodd" clip-rule="evenodd" d="M36.4734 0.876796C32.2548 2.49677 25.3015 9.02157 23.7582 21.3372C23.2617 21.2749 22.7521 21.2402 22.2353 21.2402C22.0051 21.2402 21.7749 21.2474 21.5433 21.2604C20.1404 6.32595 25.8603 0.16887 25.8603 0.16887C25.8603 0.16887 31.3978 -0.517341 36.4734 0.876796Z" fill="white"/>
<path fill-rule="evenodd" clip-rule="evenodd" d="M52.2606 11.2008C46.8476 10.3423 38.755 10.6217 29.6258 23.7191C29.0742 23.2992 28.4937 22.9301 27.8726 22.6159C35.3254 4.97132 42.6927 3.25 42.6927 3.25C42.6927 3.25 48.2896 5.87034 52.2621 11.2022L52.2606 11.2008Z" fill="white"/>
<path fill-rule="evenodd" clip-rule="evenodd" d="M17.4926 22.1942C16.6616 22.5373 15.8784 22.9702 15.1603 23.487C8.46761 13.1215 10.1151 7.10484 10.1151 7.10484C10.1151 7.10484 14.0384 3.46387 18.9041 1.85547C16.3894 4.96368 14.1672 12.6944 17.4911 22.1942H17.4926Z" fill="white"/>
<path fill-rule="evenodd" clip-rule="evenodd" d="M12.2056 26.4496C11.7452 27.0997 11.3457 27.7974 11.0257 28.5387C1.44774 23.5919 1.29718 20.6501 1.29718 20.6501C1.29718 20.6501 3.00113 15.353 5.43182 12.2578C4.88748 15.7091 5.62581 20.6994 12.2056 26.4482V26.4496Z" fill="white"/>
<path fill-rule="evenodd" clip-rule="evenodd" d="M10.3815 36.6478C0.993134 37.1227 0.826648 35.9949 0.826648 35.9949C0.826648 35.9949 -0.267814 32.2888 0.0608139 27.8125C1.12922 30.5993 2.78105 33.0995 10.0253 34.5602C10.0818 35.2725 10.2063 35.9717 10.3815 36.6493V36.6478Z" fill="white"/>
<path fill-rule="evenodd" clip-rule="evenodd" d="M14.0138 42.5942C6.88962 47.5613 5.62867 46.3915 5.62867 46.3915C5.62867 46.3915 3.4325 43.4368 2.24249 40.3633C4.26783 42.005 6.56678 44.0129 12.9729 41.5258C13.3015 41.9036 13.6431 42.2598 14.0138 42.5942Z" fill="white"/>
<path fill-rule="evenodd" clip-rule="evenodd" d="M19.6236 45.4768C16.3967 52.5459 13.8357 52.7428 13.8357 52.7428C11.6671 52.433 11.0663 52.2071 8.84839 50.1036C11.1111 50.4598 14.6624 50.0457 18.4553 45.1641C18.8332 45.29 19.2241 45.3942 19.6222 45.4782L19.6236 45.4768Z" fill="white"/>
<path fill-rule="evenodd" clip-rule="evenodd" d="M24.831 52.4238C24.831 52.4238 22.0457 53.8208 19.4268 53.2895C21.1379 52.6322 24.0594 50.4954 24.7094 45.5081C25.0091 45.4459 25.3175 45.3749 25.6099 45.2852C26.2382 51.5436 24.831 52.4252 24.831 52.4252V52.4238Z" fill="white"/>
<path fill-rule="evenodd" clip-rule="evenodd" d="M32.1332 49.5597C32.1332 49.5597 31.3153 50.5455 29.2407 50.9495C30.1484 49.8318 31.0923 47.3939 29.2407 43.5517C29.3797 43.4605 29.5201 43.3635 29.6533 43.2578C32.8108 47.3447 32.1332 49.5582 32.1332 49.5582V49.5597Z" fill="white"/>
<path fill-rule="evenodd" clip-rule="evenodd" d="M29.1972 36.6122C28.8512 37.4938 28.346 38.3002 27.6815 39.0385C28.2924 39.121 28.9135 39.2151 29.5432 39.328C30.0036 38.7041 30.3713 38.0454 30.658 37.3432L29.1958 36.6122H29.1972ZM28.5168 26.7388C29.468 27.703 30.1831 28.7671 30.6594 29.9368L29.1972 30.6679C28.7977 29.6502 28.1867 28.728 27.3645 27.8926C25.7734 26.3118 23.8552 25.5242 21.6156 25.5242C19.376 25.5242 17.4636 26.3147 15.8755 27.9028C14.2903 29.488 13.4969 31.399 13.4969 33.6386C13.4969 35.6929 14.1614 37.4663 15.4918 38.969C14.836 39.0544 14.2164 39.1485 13.633 39.2499C12.4575 37.6241 11.8755 35.7566 11.8755 33.6386C11.8755 30.9458 12.8237 28.6483 14.7231 26.749C16.6225 24.8496 18.9229 23.8984 21.6156 23.8984C24.3084 23.8984 26.6116 24.8467 28.5183 26.7403L28.5168 26.7388Z" fill="white"/>
<path fill-rule="evenodd" clip-rule="evenodd" d="M14.3598 40.1501C14.0949 39.8576 13.8502 39.558 13.6316 39.2496C14.215 39.1483 14.8346 39.0542 15.4904 38.9688C15.6135 39.1077 15.7394 39.2424 15.8741 39.3784C16.0507 39.5551 16.2302 39.7216 16.4155 39.8765C17.8893 41.1331 19.6222 41.757 21.6128 41.757C23.6034 41.757 25.2827 41.1519 26.7449 39.9358C26.9562 39.7621 27.1604 39.5739 27.3616 39.3712C27.4716 39.2612 27.5759 39.1512 27.6801 39.0368C28.291 39.1193 28.9121 39.2134 29.5418 39.3263C29.3174 39.6318 29.0728 39.9315 28.805 40.2181C28.7137 40.3224 28.6153 40.4222 28.5154 40.5236C26.6102 42.4302 24.3098 43.3813 21.6128 43.3813C18.9157 43.3813 16.6196 42.4302 14.7203 40.5308C14.5943 40.4049 14.4742 40.2789 14.3583 40.1501H14.3598Z" fill="white"/>
<path fill-rule="evenodd" clip-rule="evenodd" d="M41.9095 32.2488C40.7441 31.0834 39.3355 30.5 37.6823 30.5C36.029 30.5 34.6175 31.0834 33.4521 32.2488C32.2867 33.4142 31.7032 34.8257 31.7032 36.479C31.7032 37.7168 32.0304 38.817 32.6833 39.7812C33.1596 39.8435 33.6316 39.8985 34.1035 39.9419C33.1683 38.9806 32.7022 37.8254 32.7022 36.4805C32.7022 35.1355 33.1871 33.9325 34.16 32.9582C35.1329 31.9853 36.3084 31.496 37.6823 31.496C39.0561 31.496 40.2302 31.9839 41.2045 32.9582C42.1774 33.9311 42.6638 35.1037 42.6638 36.4805C42.6638 37.8572 42.1817 39.0226 41.2146 39.9926C41.6808 39.9636 42.147 39.9289 42.6073 39.8854C43.3124 38.8967 43.6627 37.7617 43.6627 36.4805C43.6627 34.8272 43.0807 33.4157 41.911 32.2503L41.9095 32.2488Z" fill="white"/>
<path fill-rule="evenodd" clip-rule="evenodd" d="M41.6128 40.9857C40.5067 41.9687 39.1965 42.4566 37.6808 42.4566C36.1651 42.4566 34.7926 41.9427 33.6707 40.9191C33.5983 40.8525 33.523 40.7802 33.4506 40.7078C33.1582 40.4153 32.899 40.1055 32.6819 39.7812C33.1582 39.8435 33.6301 39.8971 34.1021 39.9419C34.1209 39.9637 34.1397 39.9825 34.1585 40.0013C34.6348 40.4732 35.1546 40.8323 35.725 41.0755H35.7307C36.3301 41.3332 36.9787 41.4606 37.6808 41.4606C38.3829 41.4606 39.004 41.3375 39.5932 41.0958C40.1795 40.8525 40.7152 40.4877 41.2031 40.0027C41.206 39.9999 41.2088 39.997 41.2132 39.9941C41.6794 39.9651 42.1455 39.9304 42.6059 39.8869C42.4046 40.1736 42.1716 40.4472 41.9095 40.7092C41.8125 40.8062 41.7141 40.8989 41.6128 40.9872V40.9857ZM41.2986 41.0089C41.3826 41.0031 41.4665 40.9973 41.5491 40.9915C41.4651 40.9973 41.3826 41.0031 41.2986 41.0089Z" fill="white"/>
<path fill-rule="evenodd" clip-rule="evenodd" d="M50.3467 37.9504C50.0412 37.0817 49.4737 36.4419 48.6428 36.0293L46.5002 34.9739C46.0369 34.7466 45.7445 34.46 45.6243 34.1168C45.5041 33.7708 45.4448 33.4987 45.4448 33.2974C45.4448 33.0195 45.5114 32.7459 45.6431 32.4809C45.8762 32.0177 46.1629 31.7252 46.506 31.6051C46.8462 31.4849 47.1169 31.4256 47.3181 31.4256C47.5946 31.4256 47.8726 31.4922 48.1433 31.6239C48.5747 31.828 48.8773 32.1538 49.051 32.591L49.8979 32.0336C49.6171 31.4545 49.1799 31.0188 48.5805 30.7263C48.1679 30.5222 47.7553 30.418 47.3369 30.418C47.0257 30.418 46.713 30.4744 46.4017 30.5873C45.6489 30.8465 45.0973 31.3315 44.747 32.0423C44.5458 32.4491 44.4473 32.8588 44.4473 33.2772C44.4473 33.5884 44.5038 33.904 44.6167 34.2254C44.8686 34.9753 45.3478 35.5226 46.0601 35.8671L48.2027 36.9254C48.789 37.2091 49.1857 37.6623 49.3999 38.2804C49.4824 38.5164 49.5288 38.7466 49.536 38.9739C49.8704 38.9232 50.2005 38.8725 50.5248 38.8233C50.506 38.5367 50.4423 38.2471 50.3453 37.9504H50.3467Z" fill="white"/>
<path fill-rule="evenodd" clip-rule="evenodd" d="M50.4321 39.8564C50.3757 40.0794 50.2932 40.3009 50.186 40.5209C49.7763 41.3591 49.1306 41.9252 48.2548 42.2249C47.8827 42.3508 47.5121 42.4145 47.1401 42.4145C46.6493 42.4145 46.16 42.2987 45.675 42.0685C45.0423 41.7573 44.5631 41.3027 44.2418 40.7106C44.1592 40.5687 44.0912 40.421 44.0304 40.2632L44.8874 39.6871C44.9005 39.7247 44.9091 39.7652 44.9164 39.8072C45.0177 40.104 45.1625 40.3617 45.3478 40.5817C45.5519 40.8249 45.8082 41.0204 46.1136 41.1709C46.451 41.3374 46.797 41.4199 47.1502 41.4199C47.4079 41.4199 47.7582 41.3447 48.1998 41.1898C48.6442 41.0392 49.0061 40.67 49.2928 40.0837C49.3029 40.0649 49.3116 40.0461 49.3174 40.0273C49.4651 39.716 49.5403 39.3903 49.5403 39.0573C49.5403 39.0283 49.5403 39.0037 49.5375 38.9748C49.8719 38.9241 50.2019 38.8734 50.5262 38.8242C50.532 38.9024 50.5364 38.9791 50.5364 39.0573C50.5364 39.3251 50.5016 39.593 50.4321 39.8579V39.8564Z" fill="white"/>
<path fill-rule="evenodd" clip-rule="evenodd" d="M81.6996 30.3906V39.9295C82.0428 39.9136 82.3743 39.8919 82.6957 39.8731V30.3906H81.6996Z" fill="white"/>
<path fill-rule="evenodd" clip-rule="evenodd" d="M82.6957 40.8913V42.3506H81.6996V40.9492V39.9315C82.0428 39.9155 82.3743 39.8938 82.6957 39.875V40.8927V40.8913Z" fill="white"/>
<path fill-rule="evenodd" clip-rule="evenodd" d="M94.2917 32.0076C93.1234 30.8451 91.7119 30.2617 90.0572 30.2617C88.4024 30.2617 86.9953 30.8451 85.8299 32.0105C84.6645 33.1788 84.0811 34.5875 84.0811 36.2407C84.0811 37.4698 84.4024 38.5628 85.0452 39.5227C85.4419 39.4792 85.8169 39.4315 86.186 39.3808C85.4462 38.4861 85.0771 37.4409 85.0771 36.2393C85.0771 34.8654 85.5621 33.6913 86.5364 32.717C87.5092 31.7442 88.6848 31.2577 90.0586 31.2577C91.4325 31.2577 92.6109 31.7427 93.5867 32.7098C94.0905 33.2237 94.4654 33.7898 94.7115 34.4137L95.6091 33.9664C95.3167 33.2483 94.878 32.5969 94.2917 32.0033V32.0076ZM90.0572 36.2422H96.0362C96.0362 36.8068 95.9696 37.3453 95.8321 37.852C95.4571 37.8868 95.0981 37.9244 94.7477 37.9678C94.8331 37.7319 94.8983 37.4886 94.949 37.2367H90.0572V36.2407V36.2422Z" fill="white"/>
<path fill-rule="evenodd" clip-rule="evenodd" d="M87.0011 40.2856C86.7376 40.3261 86.4683 40.3638 86.1918 40.4014C86.4683 40.3652 86.7376 40.3261 87.0011 40.2856ZM85.8125 40.4492H85.8096C85.5201 40.1567 85.2653 39.8469 85.0467 39.5226C85.4434 39.4792 85.8183 39.4314 86.1875 39.3808H86.1904C86.2975 39.5125 86.4148 39.6385 86.5364 39.7615C86.7217 39.9468 86.9171 40.1148 87.1198 40.2653H87.1227C87.9696 40.9052 88.9497 41.2194 90.0586 41.2194C91.4354 41.2194 92.6109 40.7315 93.5867 39.7543C93.8096 39.5313 94.008 39.2968 94.1846 39.0521C94.4206 38.709 94.6073 38.35 94.7477 37.9649C95.0981 37.9215 95.4571 37.8824 95.8321 37.8477C95.7351 38.2125 95.6019 38.5657 95.4296 38.903C95.1516 39.4676 94.768 39.9903 94.2888 40.4694C93.1234 41.6348 91.7119 42.2183 90.0586 42.2183C88.4054 42.2183 86.9967 41.6348 85.8313 40.4694C85.8256 40.4637 85.8154 40.4535 85.8125 40.4477V40.4492Z" fill="white"/>
<path fill-rule="evenodd" clip-rule="evenodd" d="M50.3105 30.4609V31.457H53.2972V38.3654C53.6345 38.3176 53.9689 38.2742 54.2961 38.2336V31.457H57.2827V30.4609H50.3105Z" fill="white"/>
<path fill-rule="evenodd" clip-rule="evenodd" d="M78.8201 32.3325L78.49 30.4766L77.7937 32.1617L74.6059 39.8041L71.418 32.1617L70.7188 30.4766L70.3916 32.3325L70.0195 34.5822L69.8994 35.3162L69.329 38.7719L69.4549 39.0803C69.7097 39.128 69.966 39.1744 70.2208 39.2221L71.0966 34.0654L73.4911 39.7679C74.1904 39.8649 74.8997 39.9474 75.6207 40.0068L78.1122 34.0654L79.1386 40.1009C79.4947 40.098 79.8378 40.0879 80.1723 40.0821L78.8201 32.3325Z" fill="white"/>
<path fill-rule="evenodd" clip-rule="evenodd" d="M66.1368 36.1664C65.7401 36.2286 65.3391 36.2576 64.9468 36.2489C64.194 36.217 63.4542 36.0506 62.7666 35.7046L62.5089 35.5728L62.2599 35.4223L61.992 35.2616L61.6996 35.0922C61.6431 35.0632 61.5896 35.0328 61.5389 34.9981C61.397 34.9199 61.2552 34.8316 61.1075 34.7679L60.5964 34.5594L63.2428 28.026L66.5132 36.0998C66.3873 36.1287 66.2642 36.1505 66.1382 36.1693L66.1368 36.1664ZM70.0181 34.5811C69.8328 34.7071 69.646 34.8244 69.4549 34.93C69.0858 35.1284 68.7238 35.3238 68.3489 35.4903C68.1477 35.5728 67.945 35.6539 67.7437 35.7292L63.9377 26.3162L63.2414 24.6094L62.5581 26.3162L59.3645 34.1975C58.8925 34.1092 58.4104 34.0716 57.9341 34.1063C57.0742 34.1468 56.2302 34.3843 55.4455 34.7549C55.0489 34.9503 54.6609 35.1805 54.296 35.4512C53.9457 35.7089 53.6156 36.0086 53.3188 36.3517C53.6402 36.1722 53.9674 36.0115 54.296 35.8797C55.4933 35.3788 56.7311 35.1704 57.9283 35.25C58.2526 35.2659 58.5682 35.3137 58.8824 35.389L57.8458 37.9442C58.3438 37.9253 58.8259 37.9195 59.2979 37.9195L60.1795 35.8059L60.6992 36.0419C60.8787 36.1201 61.0423 36.2373 61.219 36.3343L61.4622 36.4791L61.759 36.6528L62.0557 36.8294L62.3641 36.9843C63.1864 37.3882 64.0811 37.5489 64.9497 37.52C65.384 37.5012 65.8154 37.4346 66.2381 37.3347C66.4683 37.2724 66.6985 37.1986 66.9215 37.1175L67.5758 38.7404C68.0796 38.8287 68.5747 38.9199 69.0655 39.0082L68.0883 36.5891C68.6558 36.2779 69.1886 35.9029 69.6981 35.4903C69.7647 35.4338 69.8299 35.3774 69.8965 35.3166C70.5074 34.7722 71.0619 34.1164 71.557 33.436C71.0474 33.8327 70.5393 34.2395 70.0166 34.5826L70.0181 34.5811Z" fill="white"/>
<path fill-rule="evenodd" clip-rule="evenodd" d="M54.2961 38.2305V39.2482V42.4143H53.2972V39.3814V38.3637C53.6345 38.3159 53.9675 38.2725 54.2961 38.2319V38.2305Z" fill="white"/>
<path fill-rule="evenodd" clip-rule="evenodd" d="M75.6193 40.0084L75.2067 40.9914L75.1532 41.1202L74.6045 42.4376L74.0558 41.1202L73.9429 40.8495L73.4897 39.7695C74.189 39.8665 74.8984 39.949 75.6193 40.0084Z" fill="white"/>
<path fill-rule="evenodd" clip-rule="evenodd" d="M70.2208 39.2239L70.05 40.2098L70.0123 40.44L69.9081 40.1852L69.455 39.082C69.7098 39.1298 69.966 39.1761 70.2208 39.2239Z" fill="white"/>
<path fill-rule="evenodd" clip-rule="evenodd" d="M58.8694 38.9425L57.4202 42.4141H56.0377L57.4275 38.983L57.8458 37.9465C58.3439 37.9277 58.8259 37.9219 59.2979 37.9219L58.8694 38.9425Z" fill="white"/>
<path fill-rule="evenodd" clip-rule="evenodd" d="M70.4437 42.415H69.0641L68.0217 39.8381L67.5773 38.7422C68.0811 38.8305 68.5762 38.9217 69.067 39.01L69.5143 40.1132L70.4437 42.4165V42.415ZM68.0217 39.8381L69.5143 40.1117L69.4911 40.1074L69.468 40.103L69.4448 40.0987L69.4216 40.0943L69.3985 40.09L69.3753 40.0857L69.3522 40.0813L69.329 40.077L69.3058 40.0726L69.2827 40.0683L69.2595 40.0639L69.2363 40.0596L69.2132 40.0553L69.19 40.0509L69.1668 40.0466L69.1437 40.0422L69.1205 40.0379L69.0974 40.0335L69.0742 40.0292L69.051 40.0249L69.0279 40.0205L69.0047 40.0162L68.9815 40.0118L68.9584 40.0075L68.9352 40.0031L68.9121 39.9988L68.8889 39.9945L68.8657 39.9901L68.8426 39.9858L68.8194 39.9814L68.7962 39.9771L68.7731 39.9727L68.7499 39.9684L68.7267 39.964L68.7036 39.9597L68.6804 39.9554L68.6573 39.951L68.6341 39.9467L68.6109 39.9423L68.5878 39.938L68.5646 39.9336L68.5414 39.9293L68.5183 39.925L68.4951 39.9206L68.4719 39.9163L68.4488 39.9119L68.4256 39.9076L68.4025 39.9032L68.3793 39.8989L68.3561 39.8946L68.333 39.8902L68.3098 39.8859L68.2866 39.8815L68.2635 39.8772L68.2403 39.8728L68.2172 39.8685L68.194 39.8642L68.1708 39.8598L68.1477 39.8555L68.1245 39.8511L68.1013 39.8468L68.0782 39.8424L68.055 39.8381L68.0318 39.8338L68.0217 39.8381Z" fill="white"/>
<path fill-rule="evenodd" clip-rule="evenodd" d="M80.582 42.436H79.5353L79.3124 41.1186L79.1387 40.1009C79.4948 40.098 79.8379 40.0878 80.1723 40.082L80.3489 41.094L80.582 42.436Z" fill="white"/>
</g>
<defs>
<clipPath id="clip0_649_2565">
<rect width="108.731" height="56" fill="white"/>
</clipPath>
</defs>
</svg>
