<svg width="257" height="132" viewBox="0 0 257 132" fill="none" xmlns="http://www.w3.org/2000/svg">
<g clip-path="url(#clip0_718_480)">
<path fill-rule="evenodd" clip-rule="evenodd" d="M252.172 75.5558C249.425 72.8088 246.105 71.4336 242.208 71.4336C238.311 71.4336 234.984 72.8088 232.237 75.5558C229.49 78.3097 228.115 81.63 228.115 85.527C228.115 86.7589 228.248 87.9396 228.531 89.0623C229.302 89.0179 230.104 88.9735 230.937 88.9428C230.626 87.8645 230.463 86.7316 230.463 85.527C230.463 82.2886 231.613 79.5211 233.909 77.2245C236.202 74.9313 238.966 73.7848 242.212 73.7848C245.457 73.7848 248.217 74.9279 250.514 77.2245C252.807 79.5177 253.95 82.2886 253.95 85.527C253.95 86.9227 253.742 88.2365 253.305 89.4615C254.145 89.5366 254.947 89.6185 255.711 89.7004C256.104 88.3934 256.298 86.9977 256.298 85.527C256.298 81.63 254.923 78.3097 252.176 75.5558H252.172Z" fill="#2A3580"/>
<path fill-rule="evenodd" clip-rule="evenodd" d="M255.708 89.699C255.469 90.5009 255.158 91.2653 254.766 92.0024C254.121 93.2581 253.251 94.4218 252.176 95.5001C249.429 98.2471 246.109 99.6224 242.212 99.6224C238.315 99.6224 234.987 98.2471 232.24 95.5001C231.002 94.2614 230.036 92.8998 229.36 91.4154C229.012 90.6579 228.736 89.8798 228.535 89.0608C229.306 89.0165 230.108 88.9721 230.94 88.9414C231.186 89.7672 231.52 90.5453 231.95 91.296C232.462 92.1935 233.117 93.0397 233.909 93.828C236.202 96.1212 238.966 97.2644 242.212 97.2644C245.457 97.2644 248.217 96.1212 250.514 93.828C251.166 93.1762 251.725 92.4835 252.186 91.7567C252.66 91.0298 253.032 90.2654 253.305 89.4635C254.145 89.5386 254.947 89.6205 255.711 89.7024L255.708 89.699Z" fill="#0084AE"/>
<path fill-rule="evenodd" clip-rule="evenodd" d="M85.9731 2.06673C76.0293 5.88525 59.6393 21.2651 56.0016 50.2947C54.8312 50.148 53.63 50.0661 52.4118 50.0661C51.8692 50.0661 51.3266 50.0832 50.7806 50.1139C47.474 14.9112 60.9565 0.398051 60.9565 0.398051C60.9565 0.398051 74.0091 -1.21945 85.9731 2.06673Z" fill="#30A4A2"/>
<path fill-rule="evenodd" clip-rule="evenodd" d="M123.186 26.4013C110.427 24.3777 91.351 25.0363 69.8322 55.9086C68.532 54.919 67.1636 54.0489 65.6997 53.3084C83.2669 11.7175 100.633 7.66016 100.633 7.66016C100.633 7.66016 113.825 13.8367 123.189 26.4047L123.186 26.4013Z" fill="#2A3580"/>
<path fill-rule="evenodd" clip-rule="evenodd" d="M41.2326 52.3203C39.2739 53.129 37.4277 54.1493 35.7352 55.3676C19.9595 30.9345 23.8428 16.7524 23.8428 16.7524C23.8428 16.7524 33.0905 8.17013 44.5597 4.37891C38.6323 11.7054 33.3942 29.9278 41.2292 52.3203H41.2326Z" fill="#F68B33"/>
<path fill-rule="evenodd" clip-rule="evenodd" d="M28.7703 62.3428C27.6852 63.875 26.7434 65.5198 25.9892 67.2669C3.41251 55.6066 3.05762 48.6725 3.05762 48.6725C3.05762 48.6725 7.07406 36.1864 12.8035 28.8906C11.5205 37.0259 13.2608 48.7886 28.7703 62.3394V62.3428Z" fill="#2A3580"/>
<path fill-rule="evenodd" clip-rule="evenodd" d="M24.4706 86.3847C2.34098 87.504 1.94855 84.8457 1.94855 84.8457C1.94855 84.8457 -0.631259 76.1099 0.143365 65.5586C2.66175 72.1275 6.55534 78.0208 23.6312 81.464C23.7643 83.1429 24.0577 84.7911 24.4706 86.3881V86.3847Z" fill="#30A4A2"/>
<path fill-rule="evenodd" clip-rule="evenodd" d="M33.0324 100.395C16.2398 112.103 13.2676 109.346 13.2676 109.346C13.2676 109.346 8.09091 102.381 5.28589 95.1367C10.0599 99.0064 15.4788 103.739 30.5789 97.8769C31.3535 98.7676 32.1589 99.607 33.0324 100.395Z" fill="#F68B33"/>
<path fill-rule="evenodd" clip-rule="evenodd" d="M46.2556 107.198C38.6493 123.861 32.6127 124.325 32.6127 124.325C27.5008 123.595 26.0847 123.062 20.8568 118.104C26.1905 118.944 34.5612 117.968 43.5018 106.461C44.3924 106.758 45.3138 107.004 46.2522 107.201L46.2556 107.198Z" fill="#2A3580"/>
<path fill-rule="evenodd" clip-rule="evenodd" d="M58.5301 123.565C58.5301 123.565 51.9646 126.858 45.7915 125.606C49.825 124.056 56.7113 119.02 58.2435 107.264C58.9499 107.117 59.6767 106.95 60.366 106.738C61.847 121.49 58.5301 123.568 58.5301 123.568V123.565Z" fill="#30A4A2"/>
<path fill-rule="evenodd" clip-rule="evenodd" d="M75.7425 116.815C75.7425 116.815 73.8145 119.139 68.9244 120.091C71.064 117.457 73.2889 111.71 68.9244 102.654C69.252 102.439 69.583 102.21 69.897 101.961C77.3395 111.594 75.7425 116.812 75.7425 116.812V116.815Z" fill="#F68B33"/>
<path fill-rule="evenodd" clip-rule="evenodd" d="M68.8221 86.304C68.0066 88.3822 66.8156 90.2829 65.2493 92.0232C66.6894 92.2178 68.1533 92.4396 69.6377 92.7057C70.7229 91.235 71.5896 89.6823 72.2653 88.0273L68.8187 86.304H68.8221ZM67.2183 63.0311C69.4603 65.3038 71.146 67.812 72.2687 70.5692L68.8221 72.2925C67.8803 69.8936 66.4403 67.7198 64.502 65.7509C60.7517 62.0245 56.2302 60.1681 50.9512 60.1681C45.6722 60.1681 41.1643 62.0313 37.4209 65.7747C33.6843 69.5114 31.8142 74.0158 31.8142 79.2948C31.8142 84.1371 33.3806 88.3173 36.5166 91.8594C34.9708 92.0608 33.5102 92.2826 32.135 92.5215C29.3641 88.6893 27.9923 84.2872 27.9923 79.2948C27.9923 72.9477 30.2275 67.5322 34.7046 63.055C39.1817 58.5779 44.6041 56.3359 50.9512 56.3359C57.2983 56.3359 62.7275 58.5711 67.2217 63.0346L67.2183 63.0311Z" fill="#2A3580"/>
<path fill-rule="evenodd" clip-rule="evenodd" d="M33.848 94.6439C33.2236 93.9546 32.6469 93.2482 32.1316 92.5214C33.5068 92.2825 34.9673 92.0607 36.5132 91.8594C36.8032 92.187 37.1001 92.5043 37.4175 92.8251C37.8338 93.2414 38.2569 93.6338 38.6937 93.999C42.1676 96.961 46.2523 98.4317 50.9444 98.4317C55.6365 98.4317 59.5949 97.0053 63.0415 94.1389C63.5397 93.7294 64.0208 93.2858 64.4952 92.808C64.7545 92.5487 65.0002 92.2893 65.2459 92.0198C66.686 92.2143 68.1499 92.4361 69.6343 92.7022C69.1054 93.4223 68.5287 94.1286 67.8974 94.8043C67.6824 95.05 67.4503 95.2855 67.2149 95.5243C62.7241 100.019 57.3017 102.26 50.9444 102.26C44.587 102.26 39.1749 100.019 34.6977 95.5414C34.4009 95.2445 34.1176 94.9476 33.8446 94.6439H33.848Z" fill="#0084AE"/>
<path fill-rule="evenodd" clip-rule="evenodd" d="M98.7867 76.0207C96.0397 73.2737 92.7194 71.8984 88.8224 71.8984C84.9254 71.8984 81.5982 73.2737 78.8512 76.0207C76.1042 78.7677 74.729 82.0948 74.729 85.9918C74.729 88.9095 75.5002 91.5029 77.0392 93.7756C78.1619 93.9223 79.2744 94.052 80.3868 94.1544C78.1824 91.8885 77.0836 89.1654 77.0836 85.9952C77.0836 82.8251 78.2268 79.9893 80.5199 77.6928C82.8131 75.3996 85.584 74.2462 88.8224 74.2462C92.0608 74.2462 94.8283 75.3962 97.1248 77.6928C99.418 79.9859 100.565 82.75 100.565 85.9952C100.565 89.2405 99.4282 91.9875 97.1487 94.2738C98.2475 94.2056 99.3463 94.1237 100.431 94.0213C102.093 91.6906 102.919 89.0152 102.919 85.9952C102.919 82.0982 101.547 78.7711 98.7901 76.0241L98.7867 76.0207Z" fill="#2A3580"/>
<path fill-rule="evenodd" clip-rule="evenodd" d="M98.0872 96.6087C95.4801 98.9257 92.3919 100.076 88.819 100.076C85.2462 100.076 82.0112 98.8643 79.3666 96.4517C79.196 96.2947 79.0185 96.1241 78.8479 95.9535C78.1586 95.2642 77.5478 94.5339 77.0359 93.7695C78.1586 93.9163 79.271 94.0425 80.3835 94.1483C80.4279 94.1995 80.4722 94.2439 80.5166 94.2882C81.6393 95.4007 82.8643 96.247 84.2088 96.8203H84.2225C85.6352 97.4277 87.164 97.728 88.819 97.728C90.4741 97.728 91.938 97.4379 93.3269 96.868C94.7089 96.2947 95.9715 95.4348 97.1215 94.2916C97.1283 94.2848 97.1352 94.278 97.1454 94.2712C98.2442 94.2029 99.343 94.121 100.428 94.0186C99.9538 94.6943 99.4044 95.3393 98.7868 95.9569C98.5581 96.1855 98.3261 96.4039 98.0872 96.6121V96.6087ZM97.3467 96.6633C97.5446 96.6496 97.7426 96.636 97.9371 96.6223C97.7392 96.636 97.5446 96.6496 97.3467 96.6633Z" fill="#0084AE"/>
<path fill-rule="evenodd" clip-rule="evenodd" d="M118.674 89.4541C117.954 87.4067 116.617 85.8984 114.658 84.9258L109.608 82.4382C108.516 81.9024 107.826 81.2268 107.543 80.418C107.26 79.6024 107.12 78.9609 107.12 78.4866C107.12 77.8314 107.277 77.1864 107.587 76.5619C108.137 75.47 108.813 74.7807 109.621 74.4974C110.423 74.2142 111.061 74.0743 111.536 74.0743C112.187 74.0743 112.843 74.2312 113.481 74.5418C114.498 75.0229 115.211 75.7907 115.62 76.8213L117.617 75.5075C116.955 74.1425 115.924 73.1154 114.511 72.4261C113.539 71.9449 112.566 71.6992 111.58 71.6992C110.846 71.6992 110.109 71.8323 109.376 72.0985C107.601 72.7093 106.301 73.8525 105.475 75.528C105.001 76.4869 104.769 77.4526 104.769 78.4388C104.769 79.1725 104.902 79.9164 105.168 80.6739C105.762 82.4416 106.891 83.7315 108.57 84.5436L113.621 87.0381C115.003 87.707 115.938 88.7751 116.443 90.2322C116.637 90.7884 116.746 91.331 116.764 91.8667C117.552 91.7473 118.33 91.6279 119.094 91.5118C119.05 90.8362 118.9 90.1537 118.671 89.4541H118.674Z" fill="#2A3580"/>
<path fill-rule="evenodd" clip-rule="evenodd" d="M118.876 93.9448C118.743 94.4703 118.548 94.9924 118.296 95.5111C117.33 97.4869 115.808 98.8212 113.744 99.5275C112.867 99.8244 111.993 99.9746 111.116 99.9746C109.959 99.9746 108.806 99.7016 107.663 99.159C106.171 98.4253 105.042 97.3538 104.284 95.9581C104.09 95.6237 103.929 95.2756 103.786 94.9037L105.806 93.5455C105.837 93.6343 105.857 93.7298 105.874 93.8288C106.113 94.5283 106.455 95.1357 106.891 95.6544C107.372 96.2277 107.976 96.6884 108.697 97.0433C109.492 97.4357 110.307 97.6302 111.14 97.6302C111.747 97.6302 112.573 97.4528 113.614 97.0876C114.661 96.7327 115.515 95.8626 116.19 94.4805C116.214 94.4362 116.235 94.3918 116.248 94.3475C116.596 93.6138 116.774 92.846 116.774 92.0611C116.774 91.9929 116.774 91.9349 116.767 91.8666C117.555 91.7472 118.333 91.6277 119.098 91.5117C119.111 91.696 119.122 91.8769 119.122 92.0611C119.122 92.6924 119.04 93.3237 118.876 93.9482V93.9448Z" fill="#0084AE"/>
<path fill-rule="evenodd" clip-rule="evenodd" d="M192.578 71.6367V94.1213C193.386 94.0838 194.168 94.0326 194.925 93.9882V71.6367H192.578Z" fill="#2A3580"/>
<path fill-rule="evenodd" clip-rule="evenodd" d="M194.925 96.3916V99.8314H192.578V96.5281V94.1292C193.386 94.0916 194.168 94.0405 194.925 93.9961V96.395V96.3916Z" fill="#0084AE"/>
<path fill-rule="evenodd" clip-rule="evenodd" d="M222.259 75.4474C219.505 72.7072 216.178 71.332 212.278 71.332C208.377 71.332 205.06 72.7072 202.313 75.4543C199.566 78.2081 198.191 81.5284 198.191 85.4254C198.191 88.3226 198.949 90.899 200.464 93.1614C201.399 93.059 202.283 92.9464 203.153 92.827C201.409 90.7181 200.539 88.2543 200.539 85.422C200.539 82.1836 201.682 79.4161 203.979 77.1195C206.272 74.8264 209.043 73.6798 212.281 73.6798C215.519 73.6798 218.297 74.823 220.597 77.1025C221.785 78.3139 222.668 79.6481 223.249 81.1189L225.364 80.0645C224.675 78.3719 223.641 76.8363 222.259 75.4372V75.4474ZM212.278 85.4288H226.371C226.371 86.7597 226.214 88.0291 225.89 89.2235C225.006 89.3054 224.16 89.3941 223.334 89.4964C223.535 88.9402 223.689 88.3669 223.808 87.7732H212.278V85.4254V85.4288Z" fill="#2A3580"/>
<path fill-rule="evenodd" clip-rule="evenodd" d="M205.074 94.9614C204.453 95.0569 203.818 95.1457 203.166 95.2344C203.818 95.1491 204.453 95.0569 205.074 94.9614ZM202.272 95.347H202.266C201.583 94.6577 200.982 93.9274 200.467 93.163C201.402 93.0607 202.286 92.9481 203.156 92.8286H203.163C203.415 93.1391 203.692 93.436 203.979 93.7261C204.415 94.1629 204.876 94.5587 205.354 94.9136H205.361C207.357 96.4219 209.667 97.1624 212.281 97.1624C215.526 97.1624 218.297 96.0124 220.597 93.709C221.123 93.1835 221.59 92.6341 222.006 92.054C222.563 91.2452 223.003 90.399 223.334 89.4913C224.16 89.3889 225.006 89.2967 225.89 89.2148C225.661 90.0748 225.347 90.9074 224.941 91.7025C224.286 93.0334 223.382 94.2652 222.252 95.3948C219.505 98.1418 216.178 99.517 212.281 99.517C208.384 99.517 205.064 98.1418 202.317 95.3948C202.303 95.3811 202.279 95.3572 202.272 95.3436V95.347Z" fill="#0084AE"/>
<path fill-rule="evenodd" clip-rule="evenodd" d="M118.589 71.7969V74.1446H125.629V90.4288C126.424 90.3162 127.212 90.2138 127.984 90.1183V74.1446H135.023V71.7969H118.589Z" fill="#2A3580"/>
<path fill-rule="evenodd" clip-rule="evenodd" d="M185.79 76.2107L185.012 71.8359L183.371 75.808L175.857 93.8223L168.342 75.808L166.694 71.8359L165.923 76.2107L165.046 81.5136L164.763 83.2437L163.418 91.3892L163.715 92.1161C164.316 92.2287 164.92 92.3379 165.52 92.4505L167.585 80.2954L173.229 93.737C174.877 93.9656 176.549 94.1601 178.249 94.3L184.122 80.2954L186.541 94.5218C187.38 94.515 188.189 94.4911 188.977 94.4775L185.79 76.2107Z" fill="#2A3580"/>
<path fill-rule="evenodd" clip-rule="evenodd" d="M155.894 85.2532C154.959 85.4 154.014 85.4682 153.089 85.4477C151.314 85.3727 149.571 84.9802 147.95 84.1647L147.342 83.8541L146.755 83.4992L146.124 83.1205L145.435 82.7212C145.302 82.6529 145.175 82.5813 145.056 82.4994C144.722 82.3151 144.387 82.107 144.039 81.9568L142.835 81.4654L149.072 66.0651L156.781 85.0963C156.484 85.1645 156.194 85.2157 155.897 85.2601L155.894 85.2532ZM165.043 81.5166C164.606 81.8135 164.166 82.0899 163.715 82.339C162.845 82.8065 161.992 83.2672 161.108 83.6596C160.634 83.8541 160.156 84.0452 159.682 84.2227L150.71 62.035L149.069 58.0117L147.458 62.035L139.931 80.6123C138.818 80.4041 137.682 80.3154 136.559 80.3973C134.532 80.4929 132.543 81.0525 130.693 81.9261C129.758 82.3868 128.844 82.9294 127.984 83.5675C127.158 84.1749 126.38 84.8813 125.68 85.69C126.438 85.2669 127.209 84.8881 127.984 84.5776C130.806 83.3969 133.723 82.9055 136.545 83.0932C137.31 83.1307 138.054 83.2433 138.794 83.4207L136.351 89.4437C137.525 89.3993 138.661 89.3857 139.774 89.3857L141.852 84.4035L143.077 84.9598C143.5 85.144 143.886 85.4204 144.302 85.6491L144.875 85.9903L145.575 86.3998L146.274 86.8161L147.001 87.1813C148.939 88.1333 151.048 88.5121 153.096 88.4439C154.119 88.3995 155.136 88.2425 156.133 88.0071C156.675 87.8603 157.218 87.6863 157.743 87.4952L159.286 91.3205C160.473 91.5287 161.64 91.7437 162.797 91.9518L160.494 86.2497C161.832 85.516 163.087 84.6322 164.289 83.6596C164.445 83.5265 164.599 83.3934 164.756 83.2501C166.196 81.967 167.503 80.4212 168.67 78.8174C167.469 79.7524 166.271 80.7113 165.039 81.52L165.043 81.5166Z" fill="#F68B33"/>
<path fill-rule="evenodd" clip-rule="evenodd" d="M127.984 90.1133V92.5122V99.9752H125.629V92.8262V90.4272C126.424 90.3146 127.209 90.2122 127.984 90.1167V90.1133Z" fill="#0084AE"/>
<path fill-rule="evenodd" clip-rule="evenodd" d="M178.245 94.3013L177.273 96.6184L177.147 96.9221L175.853 100.027L174.56 96.9221L174.294 96.284L173.226 93.7383C174.874 93.9703 176.546 94.1614 178.245 94.3013Z" fill="#0084AE"/>
<path fill-rule="evenodd" clip-rule="evenodd" d="M165.52 92.4555L165.118 94.7794L165.029 95.322L164.783 94.7214L163.715 92.1211C164.316 92.2337 164.92 92.3429 165.52 92.4555Z" fill="#0084AE"/>
<path fill-rule="evenodd" clip-rule="evenodd" d="M138.763 91.7964L135.348 99.9794H132.089L135.365 91.8919L136.351 89.4486C137.525 89.4043 138.661 89.3906 139.774 89.3906L138.763 91.7964Z" fill="#0084AE"/>
<path fill-rule="evenodd" clip-rule="evenodd" d="M166.046 99.9777H162.794L160.337 93.9035L159.289 91.3203C160.477 91.5285 161.644 91.7435 162.801 91.9516L163.855 94.5519L166.046 99.9811V99.9777ZM160.337 93.9035L163.855 94.5485L163.801 94.5383L163.746 94.528L163.691 94.5178L163.637 94.5075L163.582 94.4973L163.528 94.4871L163.473 94.4768L163.418 94.4666L163.364 94.4563L163.309 94.4461L163.255 94.4359L163.2 94.4256L163.145 94.4154L163.091 94.4052L163.036 94.3949L162.982 94.3847L162.927 94.3745L162.872 94.3642L162.818 94.354L162.763 94.3437L162.709 94.3335L162.654 94.3233L162.599 94.313L162.545 94.3028L162.49 94.2926L162.436 94.2823L162.381 94.2721L162.326 94.2618L162.272 94.2516L162.217 94.2414L162.163 94.2311L162.108 94.2209L162.053 94.2106L161.999 94.2004L161.944 94.1902L161.89 94.1799L161.835 94.1697L161.78 94.1595L161.726 94.1492L161.671 94.139L161.617 94.1288L161.562 94.1185L161.507 94.1083L161.453 94.098L161.398 94.0878L161.344 94.0776L161.289 94.0673L161.234 94.0571L161.18 94.0469L161.125 94.0366L161.071 94.0264L161.016 94.0161L160.961 94.0059L160.907 93.9957L160.852 93.9854L160.798 93.9752L160.743 93.965L160.688 93.9547L160.634 93.9445L160.579 93.9342L160.525 93.924L160.47 93.9138L160.415 93.9035L160.361 93.8933L160.337 93.9035Z" fill="#0084AE"/>
<path fill-rule="evenodd" clip-rule="evenodd" d="M189.943 100.029H187.476L186.95 96.9238L186.541 94.5248C187.38 94.518 188.189 94.4941 188.977 94.4805L189.394 96.8658L189.943 100.029Z" fill="#0084AE"/>
<path fill-rule="evenodd" clip-rule="evenodd" d="M127.042 115.818C127.335 115.849 127.615 115.863 127.779 115.863C129.134 115.863 130.045 115.112 130.045 113.979C130.045 112.846 129.178 112.17 127.69 112.17C127.499 112.17 127.366 112.184 127.042 112.215V115.822V115.818ZM127.042 111.669C129.396 111.829 129.734 110.433 129.734 109.829C129.734 108.932 128.997 108.342 127.837 108.342C127.646 108.342 127.424 108.372 127.042 108.43V111.669ZM128.512 107.871C130.089 107.871 131.027 108.591 131.027 109.799C131.027 111.344 129.526 111.696 128.966 111.843C129.953 111.989 130.499 112.242 130.925 112.727C131.263 113.109 131.44 113.58 131.44 114.126C131.44 114.641 131.205 115.201 130.823 115.583C130.321 116.098 129.587 116.333 128.468 116.333L124.656 116.347C124.568 116.347 124.554 116.316 124.554 116.258L124.54 115.948C124.54 115.903 124.598 115.859 124.673 115.859H125.144C125.602 115.859 125.82 115.491 125.82 114.695V109.324C125.82 108.649 125.615 108.307 125.185 108.307H124.759C124.67 108.307 124.626 108.277 124.626 108.219V107.912C124.626 107.881 124.656 107.867 124.759 107.867H128.512V107.871Z" fill="#231F20"/>
<path fill-rule="evenodd" clip-rule="evenodd" d="M141.541 116.494C141.452 116.463 141.292 116.023 141.026 115.214C140.613 113.993 139.937 112.181 139.009 109.812L138.716 110.532L137.818 112.918L137.228 114.521C136.832 115.654 136.668 116.098 136.624 116.272C136.58 116.449 136.549 116.494 136.508 116.494H135.979C135.89 116.494 135.859 116.463 135.832 116.374C135.788 116.272 135.716 116.037 135.583 115.637C135.273 114.637 134.406 112.15 134.095 111.266L133.846 110.59C133.14 108.632 133.007 108.324 132.389 108.324C132.287 108.324 132.229 108.294 132.229 108.249V107.97C132.229 107.912 132.273 107.867 132.317 107.867H135.88C135.938 107.867 135.982 107.912 135.982 107.97V108.219C135.982 108.277 135.911 108.321 135.761 108.321C135.112 108.321 134.73 108.396 134.73 108.881C134.73 109.219 135.04 110.28 136.027 113.252L136.511 114.665C136.672 114.283 136.733 114.149 136.893 113.723C137.187 112.959 137.644 111.648 138.293 109.809L138.603 108.911L138.883 108.161C138.972 107.894 138.972 107.867 139.016 107.867H139.576C139.634 107.867 139.709 108.103 139.797 108.369L140.504 110.328L142.094 114.668C142.756 112.665 142.933 112.105 143.729 109.621C143.831 109.297 143.906 109.034 143.906 108.799C143.906 108.475 143.626 108.328 142.964 108.328C142.831 108.328 142.773 108.297 142.773 108.239V107.959C142.773 107.884 142.817 107.871 142.906 107.871H145.571C145.646 107.871 145.691 107.901 145.691 108.004V108.195C145.691 108.297 145.66 108.328 145.571 108.328C145.1 108.328 144.94 108.43 144.66 109.167L144.278 110.154C143.967 110.935 142.763 114.627 142.497 115.467L142.306 116.054C142.203 116.378 142.159 116.494 142.084 116.494H141.555H141.541Z" fill="#231F20"/>
<path fill-rule="evenodd" clip-rule="evenodd" d="M152.802 112.064C153.802 112.108 155.863 112.197 155.863 110.15C155.863 108.102 153.904 108.28 152.802 108.338V112.061V112.064ZM154.628 107.87C156.16 107.87 157.249 108.812 157.249 110.136C157.249 111.665 155.894 112.593 153.672 112.593C153.423 112.593 153.232 112.579 152.806 112.549V114.006C152.806 115.801 152.819 115.818 153.867 115.859C154.235 115.872 154.266 115.872 154.266 115.961V116.254C154.266 116.299 154.208 116.326 154.164 116.326L150.28 116.34C150.178 116.34 150.178 116.309 150.178 116.22V115.985C150.178 115.865 150.192 115.865 150.502 115.852C150.987 115.852 151.28 115.807 151.369 115.705C151.516 115.541 151.591 114.514 151.591 112.453V110.6C151.591 109.453 151.56 108.641 151.369 108.45C151.28 108.361 150.987 108.303 150.588 108.303C150.188 108.303 150.161 108.303 150.161 108.187V107.966C150.161 107.877 150.205 107.863 150.28 107.863H154.638L154.628 107.87Z" fill="#231F20"/>
<path fill-rule="evenodd" clip-rule="evenodd" d="M160.163 115.813C160.518 115.888 160.736 115.902 161.135 115.902C161.429 115.902 161.504 115.902 161.504 115.977V116.24C161.504 116.315 161.49 116.315 161.313 116.328L158.194 116.342C158.091 116.342 158.047 116.298 158.047 116.24V115.991C158.047 115.916 158.091 115.902 158.296 115.902C158.931 115.888 159.047 115.608 159.047 113.902C159.047 112.343 158.975 110.988 158.87 110.886C158.812 110.811 158.709 110.811 158.238 110.811C158.091 110.811 158.047 110.797 158.047 110.722V110.456C158.047 110.425 158.105 110.398 158.225 110.398C158.46 110.384 158.607 110.384 158.682 110.384L159.05 110.353C159.477 110.323 159.77 110.309 159.917 110.278L160.02 110.265C160.064 110.265 160.091 110.34 160.091 110.456V111.691C160.917 110.572 161.504 110.176 162.401 110.176C162.814 110.176 162.872 110.22 162.872 110.367L162.828 111.619C162.828 111.65 162.797 111.739 162.77 111.739H162.476C162.432 111.739 162.401 111.694 162.388 111.592C162.285 111.254 162.081 111.09 161.739 111.09C161.091 111.09 160.091 111.988 160.091 113.032C160.091 113.841 160.105 114.636 160.149 115.445L160.163 115.813Z" fill="#231F20"/>
<path fill-rule="evenodd" clip-rule="evenodd" d="M167.452 112.272C167.541 112.272 167.585 112.17 167.585 111.934C167.585 111.197 167.039 110.641 166.319 110.641C165.497 110.641 164.848 111.289 164.684 112.275H167.452V112.272ZM164.596 112.712C164.48 115.258 165.995 115.715 166.728 115.715C167.274 115.715 167.906 115.422 168.216 114.92C168.288 114.801 168.305 114.773 168.394 114.801L168.585 114.92C168.616 114.934 168.629 114.964 168.629 114.995C168.629 115.347 167.745 116.541 166.217 116.541C164.688 116.541 163.435 115.306 163.435 113.582C163.435 111.712 164.773 110.184 166.421 110.184C167.745 110.184 168.807 111.081 168.807 112.214C168.807 112.596 168.718 112.712 168.455 112.712H164.599H164.596Z" fill="#231F20"/>
<path fill-rule="evenodd" clip-rule="evenodd" d="M171.751 115.858C172.001 115.871 172.178 115.888 172.311 115.888C172.738 115.902 172.782 115.902 172.782 115.991V116.195C172.782 116.284 172.751 116.328 172.68 116.328L169.796 116.342C169.663 116.342 169.649 116.328 169.649 116.253V115.987C169.649 115.912 169.663 115.898 169.721 115.898C170.503 115.868 170.649 115.694 170.649 113.295C170.649 111.647 170.591 111.087 170.427 110.909C170.325 110.807 170.103 110.807 169.823 110.807C169.735 110.807 169.721 110.793 169.721 110.705V110.469C169.721 110.411 169.765 110.394 169.926 110.394C170.206 110.394 171.414 110.261 171.632 110.261C171.69 110.261 171.704 110.292 171.704 110.381V111.397C172.335 110.602 173.13 110.176 173.956 110.176C174.676 110.176 175.191 110.544 175.488 111.278C176.328 110.439 176.856 110.176 177.638 110.176C178.668 110.176 179.197 110.78 179.197 111.971L179.184 112.81C179.153 114.018 179.17 114.636 179.214 115.52L179.228 115.83C179.464 115.875 179.685 115.888 179.89 115.902C179.965 115.902 180.037 115.902 180.037 115.991V116.24C180.037 116.315 180.006 116.328 179.89 116.328L177.256 116.342C177.167 116.342 177.109 116.298 177.109 116.209V116.018C177.109 115.898 177.123 115.898 177.286 115.898C177.948 115.898 178.126 115.53 178.126 113.691C178.126 112.616 178.068 111.971 177.935 111.66C177.771 111.264 177.42 110.985 177.068 110.985C176.464 110.985 175.904 111.367 175.464 112.104C175.434 113.206 175.434 113.899 175.451 115.37V115.827C175.672 115.871 175.979 115.885 176.29 115.898C176.467 115.898 176.512 115.898 176.512 115.956V116.236C176.512 116.294 176.467 116.325 176.334 116.325L173.523 116.339C173.434 116.339 173.403 116.294 173.403 116.206V115.984C173.403 115.895 173.417 115.895 173.536 115.895C174.27 115.895 174.389 115.585 174.389 113.629C174.389 112.483 174.389 111.008 173.212 111.008C172.697 111.008 172.27 111.333 171.711 112.111V112.568C171.697 113.363 171.711 114.612 171.741 115.407L171.755 115.847L171.751 115.858Z" fill="#231F20"/>
<path fill-rule="evenodd" clip-rule="evenodd" d="M183.026 108.178C183.026 108.591 182.688 108.916 182.292 108.916C181.897 108.916 181.555 108.578 181.555 108.178C181.555 107.779 181.88 107.441 182.292 107.441C182.705 107.441 183.026 107.779 183.026 108.178ZM182.937 110.489C182.907 110.888 182.879 112.004 182.879 113.079C182.879 114.225 182.893 115.123 182.951 115.816C183.378 115.874 183.613 115.904 183.76 115.904C183.862 115.904 183.924 115.904 183.924 115.993V116.198C183.924 116.3 183.893 116.331 183.746 116.331L180.801 116.344C180.699 116.344 180.655 116.3 180.641 116.211V116.007C180.641 115.932 180.699 115.904 180.818 115.904C181.702 115.904 181.818 115.788 181.818 113.99V111.929C181.818 110.809 181.805 110.809 181.037 110.809C180.788 110.809 180.743 110.796 180.743 110.663V110.472C180.743 110.397 180.774 110.397 181.009 110.397C181.289 110.397 182.671 110.281 182.774 110.281C182.92 110.281 182.937 110.311 182.937 110.397V110.485V110.489Z" fill="#231F20"/>
<path fill-rule="evenodd" clip-rule="evenodd" d="M188.766 112.272C188.855 112.272 188.899 112.17 188.899 111.934C188.899 111.197 188.353 110.641 187.633 110.641C186.807 110.641 186.162 111.289 185.998 112.275H188.766V112.272ZM185.91 112.712C185.79 115.258 187.309 115.715 188.043 115.715C188.588 115.715 189.22 115.422 189.527 114.92C189.602 114.801 189.616 114.773 189.704 114.801L189.895 114.92C189.926 114.934 189.94 114.964 189.94 114.995C189.94 115.347 189.056 116.541 187.527 116.541C185.998 116.541 184.746 115.306 184.746 113.582C184.746 111.712 186.087 110.184 187.735 110.184C189.059 110.184 190.117 111.081 190.117 112.214C190.117 112.596 190.029 112.712 189.766 112.712H185.91Z" fill="#231F20"/>
<path fill-rule="evenodd" clip-rule="evenodd" d="M192.99 115.813C193.345 115.888 193.564 115.902 193.963 115.902C194.257 115.902 194.332 115.902 194.332 115.977V116.24C194.332 116.315 194.318 116.315 194.14 116.328L191.022 116.342C190.919 116.342 190.875 116.298 190.875 116.24V115.991C190.875 115.916 190.919 115.902 191.124 115.902C191.759 115.888 191.875 115.608 191.875 113.902C191.875 112.343 191.803 110.988 191.697 110.886C191.639 110.811 191.537 110.811 191.066 110.811C190.919 110.811 190.875 110.797 190.875 110.722V110.456C190.875 110.425 190.933 110.398 191.052 110.398C191.288 110.384 191.434 110.384 191.509 110.384L191.878 110.353C192.305 110.323 192.598 110.309 192.745 110.278L192.847 110.265C192.892 110.265 192.919 110.34 192.919 110.456V111.691C193.741 110.572 194.332 110.176 195.229 110.176C195.642 110.176 195.7 110.22 195.7 110.367L195.656 111.619C195.656 111.65 195.625 111.739 195.598 111.739H195.304C195.26 111.739 195.229 111.694 195.215 111.592C195.113 111.254 194.905 111.09 194.567 111.09C193.919 111.09 192.919 111.988 192.919 113.032C192.919 113.841 192.932 114.636 192.977 115.445L192.99 115.813Z" fill="#231F20"/>
<path fill-rule="evenodd" clip-rule="evenodd" d="M138.535 121.805C138.535 122.102 138.579 122.369 138.671 122.604C138.76 122.839 138.883 123.041 139.04 123.205C139.197 123.368 139.381 123.491 139.596 123.58C139.811 123.669 140.04 123.71 140.292 123.71C140.439 123.71 140.582 123.679 140.722 123.621C140.862 123.563 140.992 123.488 141.111 123.396C141.231 123.304 141.336 123.198 141.429 123.082C141.521 122.966 141.599 122.85 141.661 122.73L141.961 122.921C141.872 123.065 141.77 123.201 141.65 123.334C141.531 123.467 141.394 123.583 141.237 123.682C141.08 123.781 140.903 123.863 140.705 123.925C140.507 123.986 140.289 124.017 140.043 124.017C139.692 124.017 139.371 123.959 139.084 123.839C138.794 123.72 138.548 123.563 138.344 123.358C138.139 123.157 137.982 122.921 137.869 122.655C137.757 122.389 137.702 122.106 137.702 121.805C137.702 121.505 137.76 121.222 137.873 120.952C137.989 120.683 138.149 120.444 138.357 120.239C138.566 120.034 138.818 119.871 139.108 119.751C139.402 119.632 139.722 119.57 140.077 119.57C140.302 119.57 140.511 119.601 140.702 119.662C140.893 119.724 141.063 119.802 141.22 119.905C141.377 120.007 141.517 120.12 141.64 120.253C141.763 120.386 141.869 120.522 141.957 120.666L141.647 120.87C141.466 120.526 141.268 120.273 141.05 120.116C140.831 119.959 140.579 119.881 140.292 119.881C140.05 119.881 139.818 119.925 139.603 120.014C139.388 120.103 139.2 120.229 139.043 120.396C138.886 120.563 138.76 120.765 138.668 121.004C138.576 121.242 138.531 121.512 138.531 121.809L138.535 121.805Z" fill="#231F20"/>
<path fill-rule="evenodd" clip-rule="evenodd" d="M145.442 123.795C145.684 123.795 145.899 123.744 146.086 123.641C146.271 123.539 146.428 123.399 146.557 123.218C146.684 123.037 146.783 122.822 146.847 122.573C146.912 122.324 146.946 122.051 146.946 121.758C146.946 121.464 146.912 121.201 146.847 120.956C146.783 120.713 146.687 120.502 146.557 120.328C146.428 120.15 146.274 120.014 146.086 119.918C145.902 119.823 145.687 119.772 145.442 119.772C145.196 119.772 144.977 119.819 144.79 119.918C144.602 120.014 144.445 120.154 144.315 120.328C144.189 120.502 144.094 120.713 144.029 120.956C143.964 121.198 143.933 121.468 143.933 121.758C143.933 122.048 143.964 122.324 144.029 122.573C144.094 122.822 144.189 123.037 144.315 123.218C144.442 123.399 144.599 123.539 144.79 123.641C144.977 123.744 145.196 123.795 145.442 123.795ZM145.442 124.01C145.114 124.01 144.807 123.952 144.52 123.832C144.234 123.713 143.984 123.553 143.776 123.348C143.565 123.143 143.401 122.904 143.281 122.635C143.162 122.362 143.101 122.072 143.101 121.761C143.101 121.451 143.162 121.171 143.281 120.905C143.401 120.638 143.568 120.406 143.776 120.208C143.988 120.011 144.234 119.857 144.52 119.741C144.807 119.625 145.114 119.57 145.442 119.57C145.769 119.57 146.076 119.628 146.363 119.741C146.65 119.857 146.895 120.011 147.107 120.208C147.318 120.406 147.482 120.638 147.602 120.905C147.721 121.171 147.782 121.457 147.782 121.761C147.782 122.065 147.721 122.362 147.602 122.635C147.482 122.908 147.315 123.143 147.107 123.348C146.895 123.553 146.65 123.713 146.363 123.832C146.076 123.948 145.769 124.01 145.442 124.01Z" fill="#231F20"/>
<path fill-rule="evenodd" clip-rule="evenodd" d="M149.11 119.664H149.823V123.633H151.963V123.909H149.11V119.664Z" fill="#231F20"/>
<path fill-rule="evenodd" clip-rule="evenodd" d="M153 119.664H153.713V123.633H155.853V123.909H153V119.664Z" fill="#231F20"/>
<path fill-rule="evenodd" clip-rule="evenodd" d="M159.842 119.664V119.937H157.603V121.456H159.102V121.732H157.603V123.633H159.842V123.909H156.89V119.664H159.842Z" fill="#231F20"/>
<path fill-rule="evenodd" clip-rule="evenodd" d="M161.733 121.805C161.733 122.102 161.777 122.369 161.866 122.604C161.954 122.839 162.081 123.041 162.238 123.205C162.395 123.368 162.579 123.491 162.794 123.58C163.009 123.669 163.237 123.71 163.49 123.71C163.637 123.71 163.783 123.679 163.92 123.621C164.06 123.563 164.189 123.488 164.309 123.396C164.428 123.304 164.534 123.198 164.626 123.082C164.718 122.966 164.797 122.85 164.858 122.73L165.159 122.921C165.07 123.065 164.968 123.201 164.848 123.334C164.729 123.467 164.592 123.583 164.435 123.682C164.278 123.781 164.101 123.863 163.903 123.925C163.705 123.986 163.487 124.017 163.241 124.017C162.889 124.017 162.569 123.959 162.282 123.839C161.992 123.72 161.746 123.563 161.541 123.358C161.337 123.157 161.18 122.921 161.067 122.655C160.954 122.389 160.9 122.106 160.9 121.805C160.9 121.505 160.958 121.222 161.071 120.952C161.187 120.683 161.347 120.444 161.555 120.239C161.763 120.034 162.016 119.871 162.306 119.751C162.599 119.632 162.92 119.57 163.275 119.57C163.5 119.57 163.708 119.601 163.899 119.662C164.091 119.724 164.265 119.802 164.422 119.905C164.579 120.007 164.718 120.12 164.841 120.253C164.964 120.386 165.07 120.522 165.159 120.666L164.848 120.87C164.667 120.526 164.469 120.273 164.251 120.116C164.033 119.959 163.78 119.881 163.493 119.881C163.251 119.881 163.019 119.925 162.804 120.014C162.589 120.103 162.401 120.229 162.244 120.396C162.087 120.563 161.961 120.765 161.869 121.004C161.777 121.242 161.733 121.512 161.733 121.809V121.805Z" fill="#231F20"/>
<path fill-rule="evenodd" clip-rule="evenodd" d="M169.861 119.664V119.937H168.325V123.909H167.609V119.937H166.073V119.664H169.861Z" fill="#231F20"/>
<path d="M171.673 119.664H170.96V123.909H171.673V119.664Z" fill="#231F20"/>
<path fill-rule="evenodd" clip-rule="evenodd" d="M175.345 123.795C175.587 123.795 175.802 123.744 175.99 123.641C176.174 123.539 176.331 123.399 176.461 123.218C176.587 123.037 176.686 122.822 176.751 122.573C176.816 122.324 176.85 122.051 176.85 121.758C176.85 121.464 176.816 121.201 176.751 120.956C176.686 120.713 176.59 120.502 176.461 120.328C176.334 120.15 176.177 120.014 175.99 119.918C175.806 119.823 175.591 119.772 175.345 119.772C175.099 119.772 174.881 119.819 174.693 119.918C174.505 120.014 174.348 120.154 174.219 120.328C174.092 120.502 173.997 120.713 173.932 120.956C173.867 121.198 173.837 121.468 173.837 121.758C173.837 122.048 173.867 122.324 173.932 122.573C173.997 122.822 174.092 123.037 174.219 123.218C174.345 123.399 174.502 123.539 174.693 123.641C174.881 123.744 175.099 123.795 175.345 123.795ZM175.345 124.01C175.017 124.01 174.71 123.952 174.423 123.832C174.137 123.713 173.888 123.553 173.68 123.348C173.468 123.143 173.304 122.904 173.185 122.635C173.065 122.362 173.004 122.072 173.004 121.761C173.004 121.451 173.065 121.171 173.185 120.905C173.304 120.638 173.471 120.406 173.68 120.208C173.891 120.011 174.137 119.857 174.423 119.741C174.71 119.625 175.017 119.57 175.345 119.57C175.672 119.57 175.98 119.628 176.266 119.741C176.553 119.857 176.802 120.011 177.01 120.208C177.222 120.406 177.385 120.638 177.505 120.905C177.624 121.171 177.686 121.457 177.686 121.761C177.686 122.065 177.624 122.362 177.505 122.635C177.385 122.908 177.218 123.143 177.01 123.348C176.799 123.553 176.553 123.713 176.266 123.832C175.98 123.948 175.672 124.01 175.345 124.01Z" fill="#231F20"/>
<path fill-rule="evenodd" clip-rule="evenodd" d="M179.013 119.664H179.416L182.197 122.766H182.228V119.664H182.542V124.008H182.374L179.361 120.555H179.337V123.909H179.013V119.664Z" fill="#231F20"/>
<path fill-rule="evenodd" clip-rule="evenodd" d="M132.669 122.377C132.546 122.36 132.406 122.342 132.249 122.325C132.092 122.305 131.877 122.281 131.601 122.247C131.328 122.216 131.113 122.185 130.956 122.162C130.84 122.141 130.679 122.11 130.475 122.08C130.27 122.046 130.079 122.015 129.901 121.984C129.724 121.957 129.55 121.926 129.372 121.902C129.178 121.957 129.007 122.005 128.864 122.049C128.721 122.093 128.57 122.145 128.413 122.203C128.253 122.261 128.11 122.322 127.98 122.377C128.267 122.383 128.533 122.407 128.782 122.455C129.014 122.489 129.468 122.574 130.147 122.711C130.792 122.844 131.249 122.909 131.515 122.909C131.826 122.909 132.075 122.865 132.259 122.779C132.444 122.694 132.58 122.557 132.669 122.373V122.377ZM131.434 121.093H131.314C130.928 121.093 130.495 121.046 130.014 120.95C129.819 120.906 129.447 120.831 128.895 120.718C128.683 120.674 128.403 120.65 128.059 120.65C127.765 120.65 127.523 120.691 127.332 120.773C127.141 120.855 126.963 120.995 126.799 121.189C126.98 121.203 127.168 121.216 127.366 121.237C127.567 121.254 127.728 121.268 127.85 121.281C127.973 121.291 128.093 121.308 128.205 121.326C128.396 121.353 128.574 121.38 128.741 121.404C128.908 121.428 129.079 121.452 129.253 121.476C129.427 121.5 129.601 121.527 129.772 121.551C129.949 121.517 130.222 121.445 130.597 121.343C130.969 121.237 131.246 121.155 131.427 121.097L131.434 121.093ZM132.734 122.059C132.662 121.81 132.525 121.684 132.328 121.684C132.263 121.684 132.184 121.711 132.096 121.762C132.106 121.657 132.13 121.571 132.16 121.506C132.194 121.442 132.252 121.37 132.334 121.295C132.676 121.373 132.867 121.633 132.908 122.069L133.065 122.097C133.563 122.168 133.996 122.203 134.368 122.203C134.805 122.203 135.15 122.155 135.395 122.059C135.644 121.964 135.767 121.831 135.767 121.663C135.767 121.578 135.733 121.506 135.662 121.452C135.593 121.397 135.505 121.37 135.399 121.37C135.368 121.37 135.317 121.377 135.242 121.387C135.354 121.25 135.487 121.138 135.641 121.049C135.795 121.097 135.907 121.158 135.975 121.233C136.044 121.308 136.078 121.404 136.078 121.523C136.078 121.715 135.986 121.885 135.801 122.032C135.617 122.175 135.354 122.288 135.013 122.366C134.672 122.445 134.269 122.486 133.809 122.486C133.566 122.486 133.249 122.462 132.856 122.418C132.785 122.602 132.665 122.749 132.498 122.861C132.147 123.093 131.724 123.213 131.232 123.213C130.956 123.213 130.662 123.189 130.352 123.141C130.041 123.093 129.526 122.994 128.806 122.844C128.202 122.711 127.786 122.643 127.564 122.636C127.41 122.636 127.291 122.677 127.209 122.759C127.127 122.841 127.069 122.97 127.038 123.155C126.97 123.083 126.926 123.028 126.909 122.994C126.888 122.957 126.871 122.895 126.854 122.807C126.926 122.704 127.018 122.615 127.137 122.54C127.257 122.465 127.438 122.377 127.683 122.274C128.161 122.09 128.588 121.95 128.963 121.854C127.953 121.67 127.175 121.558 126.625 121.52C126.625 121.674 126.673 121.79 126.772 121.875C126.871 121.96 127.008 122.005 127.182 122.005C127.12 122.087 127.062 122.145 127.014 122.179C126.967 122.213 126.881 122.257 126.765 122.305C126.516 122.168 126.39 121.967 126.39 121.701C126.39 121.667 126.397 121.602 126.414 121.5C126.062 121.483 125.731 121.476 125.421 121.476C124.96 121.476 124.639 121.506 124.465 121.564C124.353 121.605 124.261 121.66 124.192 121.735C124.124 121.807 124.09 121.882 124.09 121.96C124.09 122.039 124.121 122.097 124.179 122.145C124.237 122.192 124.315 122.216 124.418 122.216C124.506 122.216 124.605 122.196 124.714 122.151C124.663 122.264 124.609 122.349 124.551 122.414C124.493 122.479 124.411 122.547 124.305 122.619C124.155 122.585 124.042 122.523 123.964 122.428C123.885 122.332 123.844 122.213 123.844 122.066C123.844 121.814 123.977 121.612 124.247 121.465C124.438 121.36 124.66 121.285 124.912 121.24C125.165 121.196 125.496 121.172 125.912 121.172C126.038 121.172 126.148 121.172 126.25 121.172C126.349 121.172 126.458 121.175 126.574 121.179C126.694 121.029 126.82 120.899 126.95 120.793C127.079 120.687 127.226 120.602 127.386 120.53C127.547 120.459 127.721 120.411 127.915 120.38C128.106 120.35 128.315 120.336 128.543 120.336C128.946 120.336 129.505 120.408 130.222 120.548C130.679 120.643 131.055 120.711 131.355 120.756C131.485 120.776 131.631 120.786 131.799 120.786C132.191 120.786 132.416 120.657 132.481 120.397L132.73 120.541C132.693 120.629 132.635 120.704 132.563 120.766C132.488 120.827 132.369 120.899 132.205 120.977C132 121.073 131.713 121.182 131.338 121.302C130.966 121.425 130.594 121.53 130.229 121.619C130.874 121.738 131.273 121.81 131.43 121.834C131.57 121.858 131.778 121.892 132.051 121.94C132.324 121.984 132.549 122.025 132.73 122.059H132.734Z" fill="#231F20"/>
<path fill-rule="evenodd" clip-rule="evenodd" d="M193.1 122.375C192.977 122.358 192.837 122.341 192.68 122.323C192.523 122.303 192.308 122.279 192.032 122.245C191.759 122.214 191.544 122.184 191.39 122.16C191.274 122.139 191.114 122.108 190.909 122.078C190.704 122.044 190.513 122.013 190.336 121.986C190.158 121.958 189.984 121.928 189.807 121.904C189.612 121.958 189.442 122.006 189.298 122.05C189.155 122.095 189.005 122.146 188.848 122.204C188.687 122.262 188.544 122.32 188.414 122.378C188.701 122.385 188.967 122.409 189.216 122.457C189.448 122.487 189.902 122.576 190.581 122.712C191.226 122.846 191.684 122.91 191.95 122.91C192.26 122.91 192.509 122.866 192.694 122.781C192.878 122.695 193.014 122.559 193.103 122.375H193.1ZM191.864 121.092H191.745C191.359 121.092 190.926 121.044 190.445 120.948C190.25 120.904 189.878 120.829 189.326 120.716C189.114 120.672 188.834 120.648 188.49 120.648C188.196 120.648 187.954 120.689 187.763 120.771C187.572 120.853 187.394 120.993 187.23 121.187C187.408 121.201 187.599 121.214 187.797 121.235C187.998 121.252 188.159 121.266 188.281 121.276C188.404 121.286 188.524 121.303 188.636 121.32C188.827 121.347 189.005 121.375 189.172 121.399C189.339 121.423 189.51 121.446 189.684 121.47C189.858 121.494 190.032 121.518 190.203 121.542C190.38 121.508 190.653 121.436 191.028 121.334C191.4 121.228 191.677 121.146 191.858 121.088L191.864 121.092ZM193.165 122.057C193.093 121.808 192.956 121.682 192.758 121.682C192.694 121.682 192.615 121.709 192.526 121.76C192.537 121.655 192.561 121.569 192.591 121.504C192.625 121.44 192.683 121.368 192.765 121.293C193.107 121.371 193.298 121.631 193.339 122.068L193.499 122.095C193.997 122.166 194.431 122.201 194.803 122.201C195.239 122.201 195.584 122.153 195.83 122.057C196.079 121.962 196.202 121.829 196.202 121.661C196.202 121.576 196.168 121.504 196.099 121.45C196.031 121.395 195.942 121.368 195.837 121.368C195.806 121.368 195.755 121.375 195.68 121.385C195.789 121.249 195.925 121.136 196.079 121.047C196.232 121.095 196.345 121.156 196.413 121.231C196.481 121.307 196.516 121.402 196.516 121.522C196.516 121.713 196.423 121.883 196.239 122.03C196.055 122.177 195.792 122.289 195.451 122.368C195.11 122.446 194.707 122.487 194.246 122.487C194.004 122.487 193.687 122.463 193.294 122.419C193.223 122.603 193.103 122.753 192.936 122.863C192.584 123.095 192.161 123.214 191.67 123.214C191.394 123.214 191.1 123.19 190.79 123.142C190.479 123.095 189.964 122.996 189.244 122.846C188.64 122.712 188.223 122.644 188.002 122.637C187.848 122.637 187.729 122.678 187.647 122.76C187.565 122.842 187.507 122.975 187.476 123.156C187.408 123.084 187.363 123.033 187.346 122.996C187.326 122.958 187.309 122.897 187.292 122.808C187.363 122.706 187.456 122.617 187.575 122.542C187.694 122.467 187.875 122.378 188.124 122.276C188.602 122.091 189.029 121.951 189.404 121.856C188.394 121.672 187.616 121.559 187.067 121.522C187.067 121.675 187.114 121.791 187.217 121.88C187.316 121.965 187.452 122.01 187.626 122.01C187.565 122.091 187.507 122.149 187.459 122.184C187.411 122.218 187.326 122.259 187.21 122.31C186.961 122.173 186.835 121.972 186.835 121.706C186.835 121.675 186.841 121.607 186.858 121.508C186.507 121.491 186.176 121.484 185.865 121.484C185.405 121.484 185.084 121.515 184.91 121.573C184.797 121.614 184.705 121.672 184.637 121.743C184.569 121.815 184.535 121.89 184.535 121.969C184.535 122.047 184.565 122.105 184.623 122.153C184.681 122.201 184.76 122.224 184.862 122.224C184.951 122.224 185.05 122.204 185.159 122.16C185.108 122.272 185.053 122.358 184.995 122.422C184.937 122.487 184.855 122.556 184.75 122.627C184.599 122.593 184.487 122.532 184.408 122.436C184.33 122.341 184.289 122.221 184.289 122.074C184.289 121.822 184.422 121.624 184.691 121.477C184.883 121.371 185.104 121.296 185.357 121.252C185.609 121.208 185.94 121.184 186.357 121.184C186.483 121.184 186.592 121.184 186.695 121.184C186.794 121.184 186.903 121.187 187.019 121.191C187.138 121.037 187.264 120.911 187.394 120.805C187.524 120.699 187.671 120.614 187.831 120.542C187.991 120.47 188.165 120.423 188.36 120.392C188.551 120.361 188.763 120.348 188.988 120.348C189.39 120.348 189.947 120.419 190.667 120.559C191.124 120.655 191.499 120.723 191.8 120.767C191.926 120.788 192.076 120.798 192.243 120.798C192.636 120.798 192.861 120.668 192.926 120.409L193.175 120.552C193.137 120.638 193.083 120.716 193.008 120.778C192.933 120.842 192.813 120.911 192.653 120.989C192.448 121.085 192.161 121.194 191.786 121.317C191.414 121.44 191.042 121.545 190.677 121.634C191.322 121.754 191.721 121.825 191.878 121.849C192.018 121.873 192.226 121.907 192.499 121.951C192.772 121.996 192.997 122.037 193.178 122.071L193.165 122.057Z" fill="#231F20"/>
<path fill-rule="evenodd" clip-rule="evenodd" d="M183.46 120.026C183.432 120.009 183.384 120.002 183.323 120.002H183.228V120.234H183.33C183.378 120.234 183.412 120.231 183.436 120.22C183.48 120.203 183.501 120.169 183.501 120.121C183.501 120.074 183.487 120.043 183.46 120.029V120.026ZM183.337 119.923C183.415 119.923 183.473 119.93 183.511 119.947C183.576 119.975 183.61 120.029 183.61 120.108C183.61 120.166 183.589 120.207 183.548 120.234C183.528 120.248 183.494 120.258 183.456 120.265C183.507 120.271 183.541 120.292 183.565 120.326C183.589 120.36 183.599 120.394 183.599 120.425V120.473C183.599 120.473 183.599 120.504 183.599 120.521C183.599 120.538 183.599 120.548 183.606 120.555V120.562H183.504C183.504 120.562 183.504 120.558 183.504 120.555C183.504 120.555 183.504 120.551 183.504 120.548V120.527V120.476C183.504 120.401 183.483 120.353 183.443 120.329C183.419 120.316 183.378 120.309 183.316 120.309H183.228V120.562H183.115V119.923H183.34H183.337ZM182.995 119.889C183.094 119.79 183.21 119.743 183.35 119.743C183.49 119.743 183.606 119.79 183.705 119.889C183.804 119.988 183.852 120.104 183.852 120.244C183.852 120.384 183.804 120.504 183.705 120.602C183.606 120.701 183.49 120.749 183.35 120.749C183.21 120.749 183.094 120.701 182.995 120.602C182.9 120.504 182.849 120.384 182.849 120.244C182.849 120.104 182.897 119.988 182.995 119.889ZM183.76 120.657C183.647 120.77 183.507 120.828 183.347 120.828C183.187 120.828 183.05 120.77 182.934 120.657C182.821 120.544 182.767 120.405 182.767 120.244C182.767 120.084 182.825 119.947 182.937 119.835C183.05 119.722 183.187 119.664 183.347 119.664C183.507 119.664 183.647 119.722 183.76 119.835C183.872 119.947 183.93 120.084 183.93 120.244C183.93 120.405 183.872 120.544 183.76 120.657Z" fill="#231F20"/>
<path fill-rule="evenodd" clip-rule="evenodd" d="M140.548 129.375C140.517 129.263 140.47 129.164 140.408 129.075C140.343 128.986 140.265 128.918 140.166 128.867C140.067 128.816 139.951 128.788 139.818 128.788C139.685 128.788 139.559 128.816 139.463 128.87C139.364 128.925 139.286 128.997 139.224 129.085C139.163 129.174 139.118 129.276 139.091 129.389C139.064 129.502 139.05 129.618 139.05 129.734C139.05 129.857 139.064 129.976 139.094 130.092C139.125 130.208 139.17 130.31 139.234 130.396C139.299 130.484 139.381 130.553 139.48 130.607C139.579 130.662 139.702 130.689 139.845 130.689C139.989 130.689 140.108 130.662 140.204 130.607C140.299 130.553 140.378 130.478 140.436 130.389C140.494 130.297 140.535 130.194 140.562 130.078C140.589 129.962 140.599 129.843 140.599 129.717C140.599 129.601 140.582 129.485 140.552 129.372L140.548 129.375ZM139.06 127.522V128.823H139.071C139.139 128.683 139.245 128.58 139.391 128.519C139.538 128.454 139.698 128.423 139.873 128.423C140.067 128.423 140.238 128.457 140.381 128.529C140.524 128.601 140.647 128.696 140.743 128.819C140.838 128.942 140.91 129.082 140.961 129.242C141.009 129.403 141.033 129.57 141.033 129.747C141.033 129.925 141.009 130.095 140.961 130.252C140.913 130.413 140.842 130.549 140.746 130.669C140.651 130.788 140.531 130.88 140.384 130.949C140.241 131.017 140.07 131.051 139.879 131.051C139.818 131.051 139.75 131.044 139.671 131.03C139.596 131.017 139.521 130.996 139.446 130.966C139.371 130.935 139.299 130.897 139.234 130.846C139.17 130.795 139.112 130.734 139.067 130.658H139.057V130.993H138.644V127.516H139.057L139.06 127.522Z" fill="#231F20"/>
<path fill-rule="evenodd" clip-rule="evenodd" d="M142.51 131.333C142.463 131.456 142.415 131.561 142.367 131.643C142.319 131.729 142.268 131.797 142.21 131.851C142.152 131.906 142.091 131.944 142.019 131.967C141.951 131.991 141.869 132.005 141.777 132.005C141.729 132.005 141.678 132.002 141.63 131.995C141.582 131.988 141.534 131.978 141.49 131.961V131.582C141.524 131.599 141.568 131.613 141.613 131.623C141.661 131.633 141.698 131.64 141.732 131.64C141.818 131.64 141.886 131.619 141.944 131.578C142.002 131.538 142.043 131.48 142.073 131.404L142.244 130.981L141.244 128.477H141.712L142.449 130.538H142.459L143.165 128.477H143.602L142.507 131.329L142.51 131.333Z" fill="#231F20"/>
<path fill-rule="evenodd" clip-rule="evenodd" d="M147.001 130.604C147.206 130.604 147.366 130.549 147.482 130.437C147.598 130.327 147.656 130.174 147.656 129.979C147.656 129.867 147.636 129.771 147.591 129.696C147.55 129.621 147.492 129.563 147.424 129.519C147.356 129.474 147.274 129.444 147.182 129.427C147.09 129.41 146.998 129.399 146.899 129.399H145.841V130.604H147.001ZM146.766 129.01C147.028 129.01 147.219 128.962 147.332 128.87C147.448 128.778 147.506 128.638 147.506 128.454C147.506 128.331 147.486 128.232 147.448 128.161C147.411 128.089 147.356 128.034 147.288 127.993C147.219 127.956 147.141 127.929 147.052 127.918C146.963 127.908 146.868 127.901 146.766 127.901H145.841V129.007H146.766V129.01ZM146.639 127.516C146.714 127.516 146.793 127.516 146.882 127.516C146.967 127.516 147.052 127.522 147.138 127.529C147.223 127.536 147.301 127.55 147.373 127.567C147.445 127.584 147.509 127.608 147.561 127.638C147.673 127.707 147.772 127.802 147.851 127.922C147.929 128.041 147.97 128.191 147.97 128.365C147.97 128.55 147.926 128.71 147.837 128.846C147.748 128.98 147.619 129.082 147.455 129.147V129.157C147.67 129.201 147.834 129.3 147.946 129.45C148.059 129.601 148.117 129.781 148.117 129.996C148.117 130.123 148.093 130.246 148.049 130.365C148.004 130.484 147.936 130.59 147.847 130.686C147.759 130.781 147.646 130.853 147.516 130.911C147.383 130.969 147.233 130.996 147.062 130.996H145.384V127.519H146.646L146.639 127.516Z" fill="#231F20"/>
<path fill-rule="evenodd" clip-rule="evenodd" d="M151.116 127.52V127.909H149.178V129.014H150.987V129.403H149.178V130.608H151.13V130.997H148.714V127.52H151.116Z" fill="#231F20"/>
<path fill-rule="evenodd" clip-rule="evenodd" d="M153.434 127.995C153.28 127.882 153.082 127.828 152.843 127.828C152.744 127.828 152.649 127.838 152.557 127.858C152.461 127.879 152.379 127.909 152.304 127.957C152.232 128.002 152.171 128.063 152.13 128.141C152.086 128.217 152.065 128.312 152.065 128.428C152.065 128.534 152.096 128.623 152.161 128.687C152.225 128.756 152.307 128.807 152.413 128.851C152.519 128.892 152.638 128.93 152.771 128.957C152.905 128.984 153.041 129.015 153.178 129.046C153.314 129.08 153.451 129.117 153.584 129.162C153.717 129.206 153.836 129.264 153.942 129.339C154.048 129.414 154.133 129.506 154.194 129.622C154.259 129.735 154.29 129.878 154.29 130.052C154.29 130.237 154.249 130.397 154.167 130.527C154.085 130.66 153.979 130.766 153.85 130.848C153.72 130.929 153.573 130.991 153.413 131.028C153.253 131.066 153.092 131.083 152.932 131.083C152.737 131.083 152.553 131.059 152.379 131.011C152.205 130.964 152.051 130.888 151.922 130.79C151.789 130.691 151.686 130.564 151.611 130.411C151.536 130.257 151.495 130.073 151.495 129.861H151.932C151.932 130.008 151.959 130.134 152.017 130.24C152.075 130.346 152.15 130.431 152.243 130.499C152.335 130.568 152.444 130.619 152.567 130.65C152.69 130.684 152.816 130.697 152.946 130.697C153.048 130.697 153.154 130.687 153.259 130.667C153.365 130.646 153.461 130.615 153.546 130.568C153.631 130.52 153.7 130.455 153.751 130.377C153.802 130.295 153.829 130.192 153.829 130.066C153.829 129.947 153.799 129.848 153.734 129.773C153.669 129.698 153.587 129.636 153.481 129.588C153.375 129.541 153.256 129.503 153.123 129.472C152.99 129.442 152.853 129.414 152.717 129.384C152.58 129.353 152.444 129.315 152.311 129.278C152.178 129.237 152.058 129.182 151.953 129.117C151.847 129.049 151.761 128.964 151.7 128.858C151.635 128.752 151.604 128.619 151.604 128.462C151.604 128.288 151.639 128.135 151.71 128.008C151.782 127.879 151.877 127.773 151.997 127.691C152.116 127.609 152.249 127.548 152.4 127.507C152.55 127.466 152.707 127.445 152.864 127.445C153.041 127.445 153.208 127.466 153.362 127.51C153.515 127.551 153.648 127.619 153.765 127.711C153.881 127.804 153.969 127.916 154.038 128.056C154.102 128.193 154.14 128.36 154.147 128.551H153.71C153.683 128.302 153.594 128.121 153.44 128.008L153.434 127.995Z" fill="#231F20"/>
<path fill-rule="evenodd" clip-rule="evenodd" d="M154.478 127.909V127.52H157.259V127.909H156.099V130.997H155.638V127.909H154.478Z" fill="#231F20"/>
<path fill-rule="evenodd" clip-rule="evenodd" d="M161.658 130.997L160.862 128.072H160.856L160.05 130.997H159.569L158.675 127.52H159.149L159.832 130.41H159.842L160.62 127.52H161.122L161.893 130.41H161.9L162.606 127.52H163.07L162.139 130.997H161.658Z" fill="#231F20"/>
<path fill-rule="evenodd" clip-rule="evenodd" d="M165.909 127.52V127.909H163.971V129.014H165.78V129.403H163.971V130.608H165.926V130.997H163.51V127.52H165.909Z" fill="#231F20"/>
<path fill-rule="evenodd" clip-rule="evenodd" d="M168.226 127.995C168.073 127.882 167.875 127.828 167.636 127.828C167.541 127.828 167.442 127.838 167.349 127.858C167.254 127.879 167.172 127.909 167.097 127.957C167.025 128.002 166.964 128.063 166.923 128.141C166.879 128.217 166.858 128.312 166.858 128.428C166.858 128.534 166.889 128.623 166.954 128.687C167.018 128.756 167.1 128.807 167.206 128.851C167.312 128.892 167.431 128.93 167.564 128.957C167.698 128.984 167.834 129.015 167.971 129.046C168.107 129.08 168.244 129.117 168.377 129.162C168.51 129.206 168.629 129.264 168.735 129.339C168.841 129.414 168.926 129.506 168.987 129.622C169.052 129.735 169.083 129.878 169.083 130.052C169.083 130.237 169.042 130.397 168.96 130.527C168.878 130.66 168.772 130.766 168.639 130.848C168.51 130.929 168.363 130.991 168.203 131.028C168.042 131.066 167.882 131.083 167.721 131.083C167.527 131.083 167.343 131.059 167.169 131.011C166.995 130.964 166.841 130.888 166.711 130.79C166.578 130.691 166.476 130.564 166.401 130.411C166.326 130.257 166.285 130.073 166.285 129.861H166.722C166.722 130.008 166.749 130.134 166.807 130.24C166.865 130.346 166.937 130.431 167.032 130.499C167.124 130.568 167.233 130.619 167.356 130.65C167.479 130.684 167.605 130.697 167.735 130.697C167.837 130.697 167.943 130.687 168.049 130.667C168.155 130.646 168.25 130.615 168.336 130.568C168.421 130.52 168.489 130.455 168.54 130.377C168.592 130.295 168.619 130.192 168.619 130.066C168.619 129.947 168.588 129.848 168.523 129.773C168.459 129.698 168.377 129.636 168.271 129.588C168.165 129.541 168.046 129.503 167.913 129.472C167.779 129.442 167.643 129.414 167.506 129.384C167.37 129.353 167.233 129.315 167.1 129.278C166.967 129.237 166.848 129.182 166.742 129.117C166.636 129.049 166.551 128.964 166.49 128.858C166.425 128.752 166.394 128.619 166.394 128.462C166.394 128.288 166.432 128.135 166.5 128.008C166.571 127.879 166.667 127.773 166.783 127.691C166.902 127.609 167.036 127.548 167.186 127.507C167.336 127.466 167.493 127.445 167.65 127.445C167.827 127.445 167.994 127.466 168.148 127.51C168.302 127.551 168.435 127.619 168.551 127.711C168.667 127.804 168.755 127.916 168.824 128.056C168.892 128.193 168.926 128.36 168.933 128.551H168.496C168.469 128.302 168.38 128.121 168.226 128.008V127.995Z" fill="#231F20"/>
<path fill-rule="evenodd" clip-rule="evenodd" d="M169.271 127.909V127.52H172.052V127.909H170.895V130.997H170.431V127.909H169.271Z" fill="#231F20"/>
<path fill-rule="evenodd" clip-rule="evenodd" d="M174.84 127.52V127.909H172.901V129.014H174.707V129.403H172.901V130.608H174.853V130.997H172.437V127.52H174.84Z" fill="#231F20"/>
<path fill-rule="evenodd" clip-rule="evenodd" d="M177.147 129.096C177.246 129.079 177.331 129.048 177.403 129C177.474 128.952 177.536 128.891 177.577 128.809C177.621 128.73 177.641 128.625 177.641 128.498C177.641 128.324 177.594 128.181 177.495 128.068C177.396 127.959 177.239 127.905 177.024 127.905H175.874V129.116H176.839C176.945 129.116 177.048 129.109 177.147 129.092V129.096ZM177.048 127.516C177.379 127.516 177.638 127.598 177.826 127.758C178.013 127.922 178.105 128.144 178.105 128.427C178.105 128.638 178.058 128.823 177.962 128.983C177.867 129.143 177.713 129.249 177.501 129.311V129.321C177.604 129.341 177.686 129.372 177.747 129.42C177.812 129.464 177.86 129.519 177.897 129.584C177.935 129.648 177.962 129.717 177.979 129.795C177.996 129.874 178.01 129.956 178.02 130.037C178.027 130.123 178.03 130.208 178.034 130.297C178.034 130.385 178.044 130.471 178.058 130.556C178.071 130.641 178.088 130.72 178.112 130.798C178.136 130.873 178.174 130.942 178.222 131H177.706C177.676 130.966 177.652 130.914 177.641 130.853C177.631 130.792 177.624 130.723 177.621 130.645C177.621 130.57 177.614 130.488 177.611 130.399C177.611 130.31 177.597 130.225 177.58 130.14C177.566 130.054 177.549 129.976 177.532 129.898C177.512 129.822 177.481 129.754 177.44 129.696C177.399 129.638 177.341 129.594 177.273 129.56C177.205 129.526 177.112 129.508 177 129.508H175.87V130.993H175.406V127.516H177.044H177.048Z" fill="#231F20"/>
<path fill-rule="evenodd" clip-rule="evenodd" d="M179.238 127.52L181.071 130.338H181.078V127.52H181.518V130.997H181.009L179.194 128.205H179.184V130.997H178.747V127.52H179.238Z" fill="#231F20"/>
<path d="M196.12 125.938H124.141V126.03H196.12V125.938Z" fill="#231F20"/>
</g>
<defs>
<clipPath id="clip0_718_480">
<rect width="256.295" height="132" fill="white"/>
</clipPath>
</defs>
</svg>
