<svg width="109" height="20" viewBox="0 0 109 20" fill="none" xmlns="http://www.w3.org/2000/svg">
<path fill-rule="evenodd" clip-rule="evenodd" d="M54.9852 10.3694L59.4352 8.51442C59.188 7.88892 58.4571 7.45754 57.5864 7.45754C56.4739 7.45214 54.9315 8.43893 54.9852 10.3694ZM60.2091 12.165L61.9074 13.2974C61.3592 14.1116 60.0425 15.5136 57.7584 15.5136C54.9315 15.5136 52.8892 13.319 52.8892 10.5204C52.8892 7.54921 54.9476 5.5271 57.5166 5.5271C60.1016 5.5271 61.3646 7.58695 61.7784 8.70315L62.0042 9.26934L55.3507 12.0302C55.8612 13.0332 56.6513 13.5454 57.7638 13.5454C58.8709 13.5454 59.6448 12.9954 60.2091 12.165ZM49.4227 15.2116H51.6101V0.533837H49.4227V15.2116ZM45.8542 10.5365C45.8542 8.77865 44.6825 7.48989 43.1938 7.48989C41.689 7.48989 40.4207 8.77865 40.4207 10.5365C40.4207 12.2782 41.6836 13.5454 43.1938 13.5454C44.6879 13.5454 45.8542 12.2782 45.8542 10.5365ZM47.7782 5.82906V14.7964C47.7782 18.4848 45.6123 20 43.0487 20C40.6356 20 39.1846 18.3715 38.6364 17.0504L40.5389 16.2578C40.8775 17.072 41.7105 18.0372 43.0487 18.0372C44.6879 18.0372 45.7091 17.0181 45.7091 15.1038V14.3866H45.6284C45.1394 14.9906 44.1935 15.5244 43.0057 15.5244C40.5174 15.5244 38.2333 13.3513 38.2333 10.5473C38.2333 7.72715 40.512 5.53249 43.0057 5.53249C44.1935 5.53249 45.1394 6.06093 45.6284 6.64869H45.7037V5.83446C45.7037 5.82906 47.7782 5.82906 47.7782 5.82906ZM23.9106 10.5204C23.9106 8.72472 22.6315 7.49528 21.1535 7.49528C19.6702 7.49528 18.3965 8.72472 18.3965 10.5204C18.3965 12.2998 19.6756 13.5454 21.1535 13.5454C22.6315 13.5454 23.9106 12.2944 23.9106 10.5204ZM26.0603 10.5204C26.0603 13.3944 23.8568 15.5136 21.1535 15.5136C18.4502 15.5136 16.2467 13.3944 16.2467 10.5204C16.2467 7.6247 18.4502 5.5271 21.1535 5.5271C23.8568 5.5271 26.0603 7.6247 26.0603 10.5204ZM34.9066 10.5204C34.9066 8.72472 33.6275 7.49528 32.1495 7.49528C30.6662 7.49528 29.3925 8.72472 29.3925 10.5204C29.3925 12.2998 30.6716 13.5454 32.1495 13.5454C33.6275 13.5454 34.9066 12.2944 34.9066 10.5204ZM37.0563 10.5204C37.0563 13.3944 34.8528 15.5136 32.1495 15.5136C29.4462 15.5136 27.2427 13.3944 27.2427 10.5204C27.2427 7.6247 29.4462 5.5271 32.1495 5.5271C34.8528 5.5271 37.0563 7.6247 37.0563 10.5204ZM7.84121 15.5136C3.58471 15.5136 0 12.0302 0 7.7595C0 3.48342 3.58471 0 7.84121 0C10.2006 0 11.8774 0.927474 13.1403 2.14074L11.6516 3.6344C10.7487 2.78242 9.52339 2.11917 7.84121 2.11917C4.72945 2.11917 2.29486 4.63737 2.29486 7.75411C2.29486 10.8762 4.72945 13.3891 7.84121 13.3891C9.8566 13.3891 11.0067 12.5748 11.743 11.8361C12.3449 11.2321 12.7426 10.3586 12.8931 9.16689H7.84121V7.04772H14.9461C15.0214 7.42518 15.059 7.87813 15.059 8.36883C15.059 9.95956 14.6237 11.9277 13.2317 13.3243C11.8774 14.7533 10.1414 15.5136 7.84121 15.5136Z" fill="#232C6A"/>
<path d="M67.1593 15.0643V2.02734H68.8373L73.3496 9.96784H73.4176L77.93 2.02734H79.6079V15.0643H77.93V7.32859L77.998 5.14439H77.93L73.8711 12.2886H72.8961L68.8373 5.14439H68.7692L68.8373 7.32859V15.0643H67.1593Z" fill="#232C6A"/>
<path d="M84.7323 15.359C83.78 15.359 83.009 15.086 82.3741 14.54C81.7392 13.994 81.4218 13.2659 81.4218 12.3786C81.4218 11.4003 81.8072 10.6495 82.5555 10.1035C83.3038 9.55747 84.2334 9.28446 85.3218 9.28446C86.2969 9.28446 87.1132 9.46646 87.7254 9.83048V9.58023C87.7254 8.92044 87.4986 8.39716 87.0451 8.01039C86.5916 7.62362 86.0474 7.41886 85.3899 7.41886C84.9137 7.41886 84.4602 7.53262 84.0747 7.76013C83.6892 7.98764 83.4172 8.30616 83.2584 8.71568L81.7392 8.05589C81.9433 7.53262 82.3514 7.03209 82.9636 6.57707C83.5759 6.12204 84.3695 5.89453 85.3672 5.89453C86.5009 5.89453 87.4533 6.2358 88.2016 6.89558C88.9498 7.55537 89.3353 8.51091 89.3353 9.71673V15.1088H87.7481V13.8802H87.68C86.9998 14.8357 86.0248 15.359 84.7323 15.359ZM85.0044 13.8119C85.6846 13.8119 86.3195 13.5617 86.8864 13.0384C87.4533 12.5151 87.7254 11.9236 87.7254 11.2183C87.2492 10.8315 86.5463 10.6268 85.5939 10.6268C84.7776 10.6268 84.1654 10.8088 83.7573 11.1501C83.3491 11.4913 83.1451 11.9236 83.1451 12.3786C83.1451 12.8109 83.3265 13.1522 83.7119 13.4252C84.0974 13.6982 84.5282 13.8119 85.0044 13.8119Z" fill="#232C6A"/>
<path d="M95.8424 15.3615C95.1621 15.3615 94.5499 15.225 94.0284 14.9293C93.5069 14.6335 93.0987 14.2695 92.8266 13.8372H92.7359L92.8039 15.0658V19.0017H91.1487V6.14733H92.7359V7.37589H92.8039C93.076 6.94362 93.4615 6.5796 94.0057 6.28384C94.5499 5.98807 95.1621 5.85156 95.8197 5.85156C96.9761 5.85156 97.9512 6.30658 98.7901 7.21663C99.6291 8.12667 100.037 9.26424 100.037 10.6066C100.037 11.9489 99.6291 13.0864 98.7901 13.9965C97.9738 14.9065 96.9761 15.3615 95.8424 15.3615ZM95.5703 13.8145C96.3412 13.8145 96.9988 13.5187 97.5657 12.9272C98.1326 12.3356 98.4047 11.5621 98.4047 10.5838C98.4047 9.6055 98.1326 8.83196 97.5657 8.24043C96.9988 7.6489 96.3412 7.35314 95.5703 7.35314C94.7767 7.35314 94.1191 7.64891 93.5749 8.21768C93.0307 8.80921 92.7586 9.58275 92.7586 10.561C92.7586 11.5393 93.0307 12.3356 93.5749 12.9044C94.1191 13.5414 94.7767 13.8145 95.5703 13.8145Z" fill="#232C6A"/>
<path d="M104.891 15.3593C103.893 15.3593 103.077 15.109 102.442 14.6313C101.784 14.1535 101.331 13.5392 101.013 12.8112L102.51 12.197C102.986 13.3118 103.78 13.8805 104.913 13.8805C105.435 13.8805 105.866 13.7668 106.183 13.5393C106.523 13.3117 106.682 13.016 106.682 12.6292C106.682 12.0377 106.274 11.651 105.457 11.4462L103.666 11.014C103.099 10.8775 102.555 10.5817 102.056 10.195C101.557 9.80823 101.285 9.23948 101.285 8.55698C101.285 7.76073 101.625 7.12372 102.328 6.64597C103.031 6.14547 103.848 5.91797 104.8 5.91797C105.594 5.91797 106.296 6.09997 106.909 6.46397C107.521 6.82797 107.974 7.32847 108.224 8.01097L106.773 8.60248C106.455 7.80622 105.775 7.41948 104.732 7.41948C104.233 7.41948 103.825 7.53323 103.485 7.73798C103.145 7.94273 102.986 8.21572 102.986 8.57973C102.986 9.08023 103.371 9.44423 104.165 9.62623L105.934 10.0357C106.773 10.2405 107.385 10.559 107.793 11.0367C108.201 11.5145 108.383 12.0377 108.383 12.6292C108.383 13.4255 108.065 14.108 107.408 14.6313C106.773 15.0863 105.934 15.3593 104.891 15.3593Z" fill="#232C6A"/>
</svg>
