<svg width="30" height="30" viewBox="0 0 30 30" fill="none" xmlns="http://www.w3.org/2000/svg">
<path d="M27.532 20.8401C28.2589 19.2175 28.7329 17.5106 28.933 15.7511C29.1332 14.0231 28.8698 12.3163 28.3431 10.7042C27.6374 8.54426 26.5208 6.57398 24.5826 5.17265C24.3192 4.983 24.235 4.55099 23.9716 4.36133C23.1921 3.80291 22.3705 3.28664 21.5383 2.79144C21.0643 2.50696 20.5271 2.31732 20.0531 2.02231C19.579 1.73783 19.1471 1.37957 18.5573 1.73781C18.4414 1.81156 18.315 1.94853 18.2202 1.92745C17.5987 1.77995 16.9772 1.57973 16.3557 1.44276C14.8599 1.11614 13.3431 0.684185 11.8473 1.34797C10.2777 2.03283 8.60287 2.62288 7.24401 3.60275C5.75875 4.66692 4.46311 5.98395 3.4308 7.4801C1.8402 9.84023 0.902693 12.5059 1.00803 15.0241C0.89216 18.2165 2.33528 22.6418 5.14779 24.6858C5.44273 24.9071 5.67448 25.2126 5.93782 25.476C6.53825 26.045 7.11761 26.6245 7.7391 27.1619C7.90764 27.2989 8.11831 27.3726 8.33952 27.3515C9.06635 27.2672 9.5509 27.5095 10.0039 28.1101C10.2145 28.3735 10.8466 28.3419 11.2995 28.3946C11.4786 28.4262 11.6893 28.2366 11.8473 28.2682C12.9744 28.4789 14.0804 28.795 15.2075 28.9425C16.0292 29.0373 16.8613 29.0163 17.6724 28.8688C19.3368 28.5737 20.8326 27.8046 22.1914 26.8458C24.4667 25.2548 26.4049 23.411 27.532 20.8401Z" fill="white" stroke="#232C6A" stroke-miterlimit="10"/>
</svg>
