<svg width="1440" height="215" viewBox="0 0 1440 215" fill="none" xmlns="http://www.w3.org/2000/svg">
<path d="M1505 170L-66 215L-63 167.754C-62.4115 168.271 -61.3547 168.367 -60.5381 168.018C-59.5893 167.574 -58.8447 166.565 -57.824 166.721C-57.2715 166.793 -56.8872 167.202 -56.3228 167.274C-55.6623 167.346 -55.0258 166.877 -54.3292 166.769C-52.792 166.529 -51.3029 168.042 -49.9818 167.322C-49.5135 167.046 -49.2853 166.565 -48.7929 166.325C-48.0723 165.953 -47.1836 166.265 -46.4511 166.517C-45.7065 166.781 -44.6617 166.937 -44.1453 166.397C-43.6289 165.869 -43.869 164.944 -43.1004 164.692C-42.524 164.511 -42.0196 164.956 -41.6113 165.292C-40.4944 166.277 -38.3087 167.07 -36.6634 166.529C-35.3063 166.085 -34.0333 167.033 -33.2768 167.946C-32.5082 168.871 -31.5474 169.952 -30.1183 169.82C-29.1095 169.724 -28.2929 169.003 -27.3201 168.751C-25.927 168.379 -24.4979 168.955 -23.0448 168.943C-21.5916 168.931 -19.8743 167.574 -20.823 166.769C-19.2978 166.661 -17.8087 167.226 -17.004 168.198C-16.8119 167.67 -16.6317 167.154 -16.4396 166.625C-16.1634 167.202 -15.0585 166.601 -14.6862 166.049C-13.4012 164.211 -12.1162 162.362 -10.8432 160.524C-9.58222 162.386 -8.04502 164.103 -6.24361 165.64C-5.65516 166.145 -5.00664 166.637 -4.16599 166.817C-2.05233 167.286 0.0853348 165.64 1.3223 164.067C2.58329 162.494 3.86829 160.62 6.10204 160.164C7.75934 159.828 9.42864 160.44 10.5335 161.401C11.6144 162.362 12.2148 163.599 12.7913 164.824C13.0074 164.475 13.3797 164.187 13.8001 164.007C14.5807 164.596 15.3733 165.184 16.1779 165.772C16.8024 164.559 19.3484 164.463 19.9008 165.616C20.057 165.232 20.4292 164.872 20.8856 164.692C21.5221 165.292 22.1466 165.88 22.7831 166.481C23.0113 165.472 24.2362 164.752 25.4372 164.415C26.6621 164.091 27.9471 164.043 29.1721 163.743C30.9975 163.322 32.5948 162.374 34.3962 161.905C36.1976 161.425 38.4914 161.605 39.272 162.902C40.0886 161.425 42.5145 160.584 44.2919 161.173C45.1566 161.461 46.2134 162.013 46.946 161.449C47.3183 161.185 47.3783 160.728 47.6906 160.416C48.9275 159.107 51.7617 161.221 53.323 160.104C54.2837 159.431 53.8634 157.99 54.9322 157.414C56.2893 156.669 58.2348 158.278 59.4718 157.39C60.2644 156.825 60.0002 155.624 60.9609 155.264C61.8016 154.976 62.5102 155.66 63.0626 156.177C64.804 157.786 68.6109 159.059 71.0608 157.882C72.55 158.098 74.1953 157.666 75.3122 156.765C75.8406 156.345 76.2609 155.828 76.8614 155.48C78.4226 154.567 80.5122 155.144 82.1695 155.744C82.77 154.904 84.2111 154.651 85.292 154.952C86.3488 155.24 87.1654 155.912 87.91 156.585C87.5017 154.567 90.0477 152.814 92.2814 151.601C94.5512 150.364 96.833 149.115 99.1028 147.878C97.7097 150.316 96.5328 152.802 95.584 155.348C99.1508 154.447 102.874 154.027 106.525 154.135C106.657 153.174 106.777 152.201 106.909 151.241C108.074 151.301 109.191 151.541 110.223 151.913C110.103 150.772 110.115 149.607 110.284 148.43C111.256 148.49 112.229 148.562 113.226 148.622C113.13 148.202 113.202 147.758 113.442 147.373C113.958 147.529 114.487 147.673 115.015 147.83C115.039 146.677 116.576 145.716 118.042 145.56C119.495 145.428 120.888 145.86 122.209 146.292C121.5 144.851 121.092 143.29 121.008 141.705C120.984 141.128 121.008 140.48 121.464 139.987C122.041 139.399 123.037 139.243 123.926 139.11C126.16 138.822 128.418 138.522 130.651 138.246C132.177 138.042 134.014 137.645 134.518 136.468C134.795 135.844 134.795 134.967 135.587 134.799C135.9 134.739 136.212 134.835 136.464 134.931C137.749 135.399 138.938 135.988 140.019 136.697C141.604 135.724 143.273 135.087 144.859 134.114C145.063 132.697 147.693 132.625 149.29 133.118C150.911 133.634 153.253 134.042 154.082 132.733C154.37 132.277 154.43 131.628 155.043 131.472C155.427 131.376 155.787 131.556 156.087 131.724C157.048 132.265 157.985 132.805 158.946 133.334C160.207 132.433 162.152 132.217 163.497 132.865C163.701 132.217 163.881 131.568 164.062 130.92C164.578 131.472 165.719 131.58 166.475 131.136C167.7 132.301 170.042 132.157 172.024 131.917C177.404 131.292 183.229 130.487 187.264 127.377C187.768 126.993 188.369 126.536 189.029 126.632C189.534 126.704 189.822 127.077 190.074 127.425C192.284 130.619 195.142 134.162 199.802 134.439C199.417 133.334 199.453 132.133 199.886 131.016C201.375 132.037 202.852 133.058 204.329 134.09C204.821 133.49 205.314 132.901 205.794 132.325C206.635 132.769 207.464 133.214 208.304 133.658C209.253 132.337 211.547 132.469 213.384 132.385C216.206 132.277 219.053 131.184 220.998 129.455C221.274 131.076 222.007 132.625 223.16 133.946C224.769 131.965 228.24 131.064 230.762 131.953C231.554 132.229 232.275 132.661 233.116 132.841C236.406 133.514 239.24 130.295 242.627 129.479C244.356 129.07 246.17 129.322 247.899 128.926C249.628 128.554 251.31 126.98 250.481 125.792C253.856 126.08 257.867 126.764 258.708 129.358C259.02 128.542 259.344 127.737 259.68 126.921C260.593 127.053 261.41 127.437 261.986 127.977C262.394 126.896 264.412 126.704 265.529 127.317C266.646 127.941 267.198 128.986 268.075 129.815C268.928 130.643 270.489 131.232 271.702 130.595C273.083 129.887 273.287 128.025 274.836 127.725C276.722 127.365 278.451 129.875 279.916 128.794C280.481 128.362 280.445 127.629 280.865 127.113C281.886 125.876 284.264 126.848 284.972 128.109C285.657 129.37 285.945 131.028 287.566 131.544C288.827 131.929 290.292 131.4 291.685 131.22C293.09 131.028 295.612 131.797 295.42 132.901C296.453 133.298 297.726 133.514 298.819 133.094C299.9 132.673 300.56 131.412 299.804 130.728C304.968 128.83 310.54 127.737 316.076 127.509C317.914 127.449 319.956 127.401 321.337 126.344C322.069 125.804 322.55 124.987 323.486 124.735C325.42 124.182 326.405 126.368 328.05 127.197C330.236 128.29 333.166 126.74 335.352 125.383C340.78 122.02 346.784 119.282 353.113 117.325C353.137 115.511 353.173 113.698 353.198 111.896C354.434 111.896 355.659 112.208 356.632 112.749C356.476 112.268 356.296 111.776 356.14 111.284C356.656 111.488 357.281 111.5 357.833 111.344C357.989 109.686 358.121 108.017 358.265 106.336C360.715 108.137 363.237 109.89 365.795 111.572C366.336 111.92 366.912 112.28 367.597 112.4C369.554 112.737 371.488 111.151 373.517 111.224C375.211 111.296 376.352 112.509 376.976 113.734C377.613 114.947 377.997 116.316 379.126 117.265C380.507 118.417 382.669 118.694 384.722 118.91C391.976 119.703 399.254 120.495 406.507 121.288C406.94 121.336 407.408 121.372 407.828 121.264C408.957 120.964 409.558 119.679 410.698 119.691C411.899 119.691 412.08 121.036 412.944 121.684C414.662 122.981 418.192 121.048 420.27 121.984C422.42 121.852 424.497 122.777 425.422 124.254C425.794 123.486 427.211 123.125 427.968 123.618C428.52 122.957 429.073 122.285 429.613 121.636C429.169 122.957 431.078 124.194 432.664 123.618C433.697 123.245 434.309 122.345 435.27 121.852C437.047 120.939 439.449 121.744 440.434 123.113C441.418 124.494 441.382 126.224 441.31 127.857C443.484 129.118 446.727 127.113 449.441 127.413C451.038 127.593 452.287 128.542 453.884 128.686C455.325 128.818 456.767 128.229 458.208 127.881C459.649 127.533 461.402 127.449 462.279 128.338C463.66 129.695 462.351 132.649 464.525 133.046C464.981 133.142 465.461 133.069 465.93 133.118C467.119 133.286 467.755 134.379 467.611 135.363C467.443 136.36 466.71 137.261 466.002 138.114C467.431 138.81 469.689 138.234 470.505 136.937C471.31 135.628 470.89 133.778 472.451 133.021C473.496 132.505 474.901 132.829 475.801 132.169C476.462 131.712 476.534 130.968 476.582 130.295C476.678 128.626 476.786 126.968 476.882 125.299C478.359 127.016 480.449 128.398 482.839 129.262C483.872 128.47 483.115 126.656 484.46 126.332C485.157 126.176 485.757 126.644 486.406 126.824C487.703 127.161 489.156 126.308 490.057 125.395C490.981 124.482 492.122 123.666 493.467 123.233C495.317 123.462 497.358 122.993 498.883 121.996C499.652 121.492 500.325 120.843 501.261 120.579C502.835 120.123 504.588 121.264 504.324 122.573C506.654 122.177 508.731 123.438 510.256 124.771C511.757 126.104 513.175 127.677 515.372 128.206C517.57 128.722 520.729 127.365 520.44 125.539C520.777 126.416 522.506 126.164 523.347 125.467C524.187 124.759 524.644 123.762 525.64 123.221C526.757 122.609 528.258 122.729 529.327 123.245C530.42 123.774 531.177 124.615 531.897 125.431C534.743 124.014 537.974 122.789 541.132 123.149C543.006 123.342 545.42 123.906 546.501 122.585C547.221 121.744 546.933 120.435 548.014 119.895C548.674 119.558 549.503 119.727 550.248 119.847C552.301 120.147 554.535 119.847 556.456 119.006C556.336 120.579 555.892 122.177 555.147 123.678C558.342 124.807 562.317 124.675 565.632 123.33C566.436 123.005 567.385 122.609 568.118 122.933C568.994 123.293 568.922 124.362 569.691 124.867C570.087 125.119 570.64 125.167 571.156 125.191C572.873 125.311 574.603 125.419 576.32 125.539C577.569 125.623 578.854 125.707 580.055 125.371C581.736 124.927 583.778 123.786 584.919 124.771C584.654 124.446 585.075 123.954 585.555 123.87C586.06 123.762 586.552 123.93 586.984 124.086C587.909 124.41 588.822 124.747 589.747 125.071C589.374 123.774 591.812 122.513 593.061 123.353C592.761 122.453 594.382 121.72 595.511 121.936C596.652 122.141 597.493 122.849 598.597 123.125C600.207 123.558 602.128 123.029 603.473 122.056C604.806 121.084 605.611 119.739 606.127 118.382C606.367 117.745 606.62 117.024 607.34 116.712C608.974 115.979 611.483 118.562 613.273 118.141C614.714 117.793 616.167 117.445 617.62 117.096C616.659 115.607 617.272 113.505 619.001 112.34C619.794 111.836 620.815 111.416 621.115 110.671C621.559 109.506 619.974 108.329 620.695 107.248C622.16 106.948 623.709 107.032 625.018 107.488C625.811 107.753 626.531 108.161 627.384 108.209C628.116 108.233 628.849 108.017 629.558 107.777C632.704 106.732 635.971 105.639 638.421 103.693C640.078 102.372 641.699 100.547 643.957 100.583C645.314 100.607 646.419 101.363 647.728 101.604C649.073 101.832 650.538 101.495 651.919 101.159C654.405 100.523 656.903 99.9103 659.389 99.2978C661.923 98.6613 664.625 97.9527 666.366 96.3194C666.739 95.9591 667.063 95.5746 667.519 95.3224C668.9 94.5298 670.654 95.1543 672.119 95.6467C673.584 96.1391 675.758 96.2593 676.49 95.0703C676.682 94.746 676.742 94.3856 676.971 94.0854C677.679 93.1486 679.397 93.3408 680.622 93.6651C680.573 93.0526 680.73 92.428 681.09 91.8516C682.663 91.167 683.78 93.3288 685.509 93.3288C686.638 93.3288 687.467 92.4281 688.307 91.7676C690.253 90.2303 693.303 89.7018 695.657 90.5065C695.357 89.2094 695.393 87.8524 695.777 86.5433C697.759 86.7114 699.128 88.9211 701.026 88.2246C703.007 87.492 701.914 84.9098 703.343 83.5767C704.22 82.7721 705.841 82.7361 706.79 83.3486C707.751 83.9491 708.075 85.042 707.871 86.0508C708.952 85.5945 710.093 85.1381 711.258 85.1862C712.446 85.2462 713.575 86.0509 713.299 86.9756C713.023 87.9604 711.45 89.1014 712.398 89.6658C712.783 89.894 713.359 89.7739 713.828 89.6298C715.125 89.2214 716.314 88.5369 717.262 87.6842C717.55 88.7651 718.751 89.5937 720.156 89.6418C721.562 89.7138 722.847 89.2094 723.519 88.1646C722.438 87.9604 722.667 86.5553 723.651 86.0629C724.612 85.5704 725.825 85.7266 726.918 85.8827C727.062 85.3783 727.218 84.8738 727.35 84.3574C728.839 84.1773 730.316 83.9852 731.806 83.817C731.806 83.1805 731.818 82.5679 731.806 81.9434C733.487 82.5079 735.144 83.0844 736.802 83.6368C737.366 82.4118 737.966 81.1628 738.999 80.1419C740.056 79.1211 741.689 78.3525 743.251 78.5326C744.968 78.7128 746.757 79.9018 748.186 79.0131C749.183 78.3886 749.147 77.1275 750.096 76.455C750.973 75.8184 752.342 75.9866 753.254 76.455C754.167 76.9353 754.828 77.6799 755.704 78.2084C757.542 79.3493 760.376 79.4093 762.526 78.3645C761.169 77.9201 762.081 76.1426 763.39 75.4701C765.264 74.4973 767.654 74.2331 769.623 74.7856C770.416 75.0258 771.16 75.35 772.025 75.3981C773.634 75.4581 775.063 74.4253 776.252 73.4525C776.613 74.4013 777.189 75.266 778.006 76.0106C779.255 75.29 780.492 74.5694 781.765 73.8488C782.785 76.9473 787.925 78.4126 791.624 76.7552C793.282 76.0226 795.191 76.7552 796.728 77.4637C799.587 78.8089 802.469 80.154 805.327 81.5231C806.672 82.1716 808.089 82.8201 809.663 83.0123C811.26 83.1925 813.121 82.8082 814.154 81.7514C814.971 80.9227 815.295 79.7216 816.484 79.3013C817.421 78.965 818.465 79.3373 819.282 79.7697C821.131 80.7545 822.657 82.1116 823.665 83.697C824.914 83.0124 826.163 82.3277 827.388 81.6432C827.845 81.391 828.349 81.1267 828.878 81.1868C830.319 81.3429 829.958 83.5288 831.411 83.6849C832.216 82.1837 834.702 81.8714 836.696 81.8113C839.758 81.7272 842.832 81.6432 845.895 81.5592C846.135 79.7337 846.219 77.9201 846.111 76.1307C848.044 76.8272 849.75 77.8721 851.095 79.1572C853.761 78.2324 855.61 76.2027 857.88 74.7255C860.174 73.2362 863.765 72.3955 865.602 73.9809C865.602 73.3683 865.638 72.7439 865.65 72.1314C868.292 73.0562 871.979 73.7528 873.877 71.8312C874.597 71.0866 874.97 70.0417 876.038 69.7054C877.263 69.3451 878.753 70.1498 879.725 69.4412C880.158 69.141 880.29 68.6364 880.614 68.2641C881.383 67.3634 883.04 67.3754 884.277 67.6757C885.538 67.9879 886.835 68.4564 888.096 68.0841C889.129 67.8079 889.909 67.0272 890.942 66.739C892.575 66.2946 894.065 67.2313 895.518 67.8318C898.712 69.1769 902.663 69.0448 906.398 68.8646C908.668 68.7445 910.998 68.6245 913.051 67.7358C914.589 67.0752 915.862 66.0183 917.459 65.4659C919.068 64.9374 920.893 66.1744 922.058 67.0872C923.692 68.3963 926.622 67.1113 928.519 65.8142C930.393 64.5051 933.083 63.0639 934.992 64.1208C935.113 62.9919 935.233 61.8389 935.353 60.71C937.298 60.8661 939.4 60.0735 940.577 58.7404C940.313 60.5659 942.775 61.9349 945.068 61.6587C947.35 61.3825 949.272 59.9654 950.617 58.4281C951.409 59.461 951.722 60.722 951.53 61.983C952.911 61.983 954.34 61.5506 955.408 60.758C956.357 61.4906 957.006 62.4754 957.21 63.5323C959.396 63.4482 961.281 61.4666 960.753 59.8093C961.389 60.0735 962.098 60.3496 962.782 60.1575C963.491 59.9893 963.911 59.1006 963.299 58.8364C967.346 61.0102 972.99 58.332 978.046 57.6234C982.79 56.9508 987.69 58.1158 992.301 56.8547C994.079 56.3623 995.724 55.5578 997.549 55.1735C1000.11 54.633 1002.88 55.0653 1004.84 56.3144C1006.54 57.3832 1008.62 59.1246 1010.56 58.0437C1009.4 56.6626 1009.41 54.657 1010.6 53.1678C1011.8 51.6545 1014.11 50.7177 1016.24 50.8618C1015.01 49.6128 1014.1 48.1236 1013.59 46.5383C1017.17 45.4814 1019.75 49.5888 1023.49 49.4207C1025.41 49.3366 1027.9 48.2557 1028.87 49.5047C1029.27 50.0211 1029.12 50.7058 1029.46 51.2462C1030.11 52.2671 1032.17 52.1109 1033.27 51.2582C1034.37 50.4055 1034.73 49.1564 1035.04 47.9914C1037.79 51.7625 1041.14 55.2335 1045 58.308C1047.4 57.3112 1050.46 57.6835 1052.2 59.1487C1052.77 59.6291 1053.22 60.2176 1053.96 60.5058C1054.69 60.782 1055.55 60.722 1056.4 60.6619C1059.64 60.4097 1062.88 60.0854 1066.12 59.7251C1065.57 58.7283 1065.08 57.4073 1066.15 56.6146C1066.76 56.1582 1067.67 56.0862 1068.49 56.0622C1074.46 55.858 1080.43 55.9061 1086.36 56.2183C1087.72 56.2784 1089.21 56.3985 1090.23 57.095C1091.9 56.0141 1093.31 55.0533 1095.19 54.2247C1096.63 53.5881 1098.06 52.9396 1099.5 52.3031C1099.92 52.123 1100.37 51.9308 1100.82 51.9668C1101.51 52.0148 1101.95 52.5433 1102.28 53.0116C1103.45 54.657 1105.49 56.3865 1107.87 55.7499C1108.65 55.5337 1109.34 55.0773 1110.16 54.9332C1112.2 54.5849 1113.52 56.3264 1114.28 57.8036C1117.49 57.3952 1120.69 57.1671 1123.91 57.083C1123.91 59.5931 1124.43 62.0671 1125.38 64.385C1127.56 64.1808 1129.58 62.7036 1130.06 60.9502C1130.3 60.0254 1130.15 59.0406 1130.48 58.1158C1130.83 57.1911 1132.05 56.2903 1133.15 56.6026C1132.61 55.4977 1132.49 54.2367 1132.81 53.0237C1134.04 54.1406 1135.81 54.8371 1137.71 54.9332C1137.65 52.8795 1137.98 50.3334 1140.35 49.3846C1141.82 48.7841 1143.49 49.0964 1145.08 48.9884C1146.67 48.9043 1148.6 47.9795 1148.41 46.7305C1150.18 46.6104 1150.99 48.6641 1152.73 48.6761C1153.36 48.6761 1153.95 48.4239 1154.5 48.1957C1156.66 47.2589 1158.84 46.2981 1161 45.3614C1161.32 46.7665 1162.95 47.7033 1164.7 47.9555C1166.45 48.2077 1168.3 47.8834 1170.06 47.5351C1172.27 47.0787 1174.62 46.5023 1176.18 45.1212C1176.56 46.5864 1179.47 46.5384 1180.86 45.4094C1181.88 44.5567 1182.95 43.2236 1184.26 43.5599C1185.06 43.764 1185.39 44.5447 1186.16 44.7849C1187.39 45.1572 1188.62 44.0162 1189.33 43.0434C1190.43 41.5301 1191.59 40.4613 1192.69 38.9361C1192.47 38.828 1192.67 38.5277 1192.92 38.4677C1193.18 38.4076 1193.45 38.4917 1193.71 38.4917C1194.43 38.4557 1194.86 37.7831 1194.98 37.2186C1195.13 36.6542 1195.14 36.0176 1195.64 35.5853C1196.77 35.6694 1197.45 37.0505 1198.51 36.6542C1198.84 36.5341 1199.04 36.2698 1199.22 36.0176C1199.81 35.237 1200.38 34.4804 1200.95 33.6998C1201.26 33.2915 1201.76 32.799 1202.35 32.859C1202.72 32.9191 1202.95 33.1833 1203.13 33.4475C1203.64 34.12 1204.16 34.7927 1204.68 35.4652C1204.76 35.5973 1204.87 35.7054 1205.04 35.7414C1205.17 35.7775 1205.32 35.7415 1205.46 35.6694C1206.57 35.165 1206.73 33.952 1207.46 33.1113C1208.7 31.7422 1211.54 31.2857 1211.87 29.6764C1212.69 30.445 1213.48 31.2137 1214.27 31.9943C1214.68 31.3458 1214.98 30.6493 1215.16 29.9647C1215.98 31.1057 1216.88 32.1986 1217.84 33.2554C1218.22 32.763 1218.67 32.3067 1219.17 31.8983C1219.6 32.7991 1219.52 33.8798 1218.94 34.7926C1220.31 34.6245 1221.7 34.5405 1223.09 34.5765C1222.91 34.8287 1222.62 35.0329 1222.31 35.177C1222.38 35.3692 1222.74 35.3691 1222.99 35.2971C1223.24 35.213 1223.58 35.1289 1223.75 35.2971C1223.83 35.3811 1223.75 35.4771 1223.63 35.5252C1225.43 35.9455 1227.45 35.8735 1229.32 35.3811C1229.37 36.3178 1230.23 37.0505 1231.26 37.4349C1232.28 37.7952 1233.47 37.8551 1234.63 37.9272C1235.79 37.9752 1236.94 38.0353 1238.09 38.0953C1238.43 38.1073 1238.77 38.1193 1239.06 38.2514C1239.27 38.3595 1239.45 38.5397 1239.72 38.5637C1240.42 38.6238 1240.9 37.639 1241.54 37.8071C1241.8 37.8551 1241.95 38.1074 1242.2 38.1554C1242.88 38.3116 1243.29 37.2667 1243.98 37.3028C1244.62 37.3388 1244.69 38.2394 1245.35 38.2514C1245.64 38.2514 1245.89 38.0834 1246.11 37.9033C1246.91 37.2427 1247.63 36.2819 1248.67 35.8855C1249.65 35.4892 1250.6 34.9969 1251.66 34.7326C1252.65 34.4564 1253.72 34.4084 1254.75 34.2883C1262.96 33.4836 1270.96 29.9526 1276.41 24.7524C1281.63 23.2992 1286.59 21.1495 1291.01 18.3992C1291.36 17.5705 1291.68 16.7418 1292.03 15.9011C1292.79 15.817 1293.56 15.733 1294.33 15.6609C1295.26 13.7153 1297.86 12.5984 1299.57 10.9891C1301.3 9.37975 1301.46 6.26923 1298.95 6.07707C1303.36 4.50378 1307.52 2.45002 1311.29 0C1311.73 1.41717 1312.17 2.83437 1312.6 4.23952C1317.17 4.03536 1321.66 5.44054 1324.63 8.02267C1327.14 7.0859 1329.63 6.14902 1332.16 5.21225C1331.91 7.78236 1336.56 9.31975 1338.98 7.43419C1339.67 6.89375 1340.21 6.13709 1341.14 5.89689C1342.77 5.48856 1343.86 6.95376 1344.79 7.99862C1346.87 10.3406 1350.99 11.3373 1354.62 10.3766C1353.87 11.8418 1353.1 13.3311 1352.34 14.7963C1356.33 12.6105 1360.81 16.4416 1365.44 16.5737C1369.13 16.6818 1372.81 13.9435 1372.97 10.9891C1374.49 11.8658 1376.03 12.7185 1377.56 13.5712C1378.38 12.4903 1379.22 11.4334 1380.06 10.3766C1380.84 10.857 1381.65 11.3373 1382.41 11.8057C1383.75 9.99217 1387.53 9.81205 1388.77 11.5295C1389.45 12.4662 1389.44 13.7874 1390.54 14.4359C1391.27 14.8562 1392.25 14.8563 1393.19 14.9283C1396.83 15.1806 1400.14 16.7898 1402.01 19.2158C1403.06 18.3991 1404.1 17.5944 1405.15 16.7778C1406.54 19.1557 1410.83 18.9876 1414.22 18.5672C1417.63 18.1469 1421.96 18.207 1423.03 20.705C1429.12 18.5432 1436.34 19.0357 1441.34 21.9902C1445.6 17.4024 1456.32 21.1494 1460.51 16.5256C1461.42 16.8739 1462.35 17.1981 1463.26 17.5464C1467.44 17.7386 1471.9 15.913 1474.27 13.0066C1478.72 13.3309 1483.15 13.6432 1487.59 13.9675L1505 170Z" fill="#F8F0E2"/>
</svg>
