<svg width="1440" height="104" viewBox="0 0 1440 104" fill="none" xmlns="http://www.w3.org/2000/svg">
<path d="M-62 0L674.282 7L696.5 18L717.396 7.41395L1507.5 15L1454.98 99.1268C1454.48 98.5356 1453.46 98.2928 1452.63 98.525C1451.66 98.8206 1450.82 99.7073 1449.85 99.4117C1449.33 99.2639 1449 98.81 1448.45 98.6622C1447.81 98.4933 1447.15 98.8734 1446.46 98.8839C1444.94 98.8945 1443.66 97.2054 1442.3 97.7333C1441.81 97.9339 1441.53 98.3772 1441.03 98.5461C1440.29 98.8101 1439.46 98.3772 1438.78 98.0183C1438.08 97.6488 1437.09 97.3532 1436.54 97.8177C1435.97 98.2611 1436.1 99.2006 1435.33 99.3484C1434.75 99.4434 1434.31 98.9367 1433.95 98.5461C1432.99 97.4166 1430.95 96.3292 1429.29 96.6459C1427.93 96.8992 1426.81 95.7802 1426.17 94.7773C1425.53 93.7639 1424.72 92.571 1423.32 92.4971C1422.33 92.4443 1421.46 93.0355 1420.48 93.1622C1419.08 93.3311 1417.76 92.571 1416.35 92.381C1414.94 92.191 1413.11 93.2783 1413.95 94.1967C1412.45 94.0911 1411.07 93.3205 1410.41 92.2543C1410.17 92.7399 1409.93 93.2255 1409.69 93.7217C1409.48 93.1199 1408.35 93.5528 1407.91 94.0384C1406.45 95.6641 1405 97.2898 1403.55 98.9156C1402.55 96.9098 1401.25 95.0096 1399.66 93.2466C1399.15 92.6766 1398.58 92.0959 1397.78 91.8004C1395.78 91.0508 1393.52 92.3598 1392.14 93.7322C1390.74 95.1046 1389.28 96.7515 1387.07 96.8887C1385.43 96.9837 1383.87 96.1497 1382.92 95.0518C1381.99 93.9538 1381.54 92.666 1381.11 91.3781C1380.85 91.6842 1380.47 91.9165 1380.03 92.0326C1379.33 91.3464 1378.65 90.6602 1377.93 89.974C1377.2 91.0719 1374.7 90.808 1374.31 89.6045C1374.12 89.9634 1373.72 90.2591 1373.25 90.3646C1372.71 89.689 1372.16 89.0239 1371.62 88.3377C1371.29 89.2878 1370.01 89.8368 1368.81 89.9846C1367.57 90.1324 1366.33 89.9951 1365.11 90.1112C1363.3 90.259 1361.63 90.9664 1359.84 91.1775C1358.04 91.3886 1355.83 90.903 1355.21 89.52C1354.25 90.8502 1351.81 91.3358 1350.15 90.5018C1349.34 90.1007 1348.38 89.4145 1347.6 89.8578C1347.21 90.069 1347.11 90.5018 1346.76 90.7657C1345.41 91.8848 1342.9 89.4039 1341.27 90.2696C1340.26 90.7974 1340.51 92.2648 1339.4 92.6765C1337.99 93.2149 1336.29 91.3675 1334.99 92.0537C1334.16 92.4971 1334.26 93.7111 1333.31 93.9222C1332.47 94.0911 1331.85 93.3205 1331.38 92.7294C1329.87 90.9136 1326.32 89.1189 1323.81 89.9318C1322.4 89.5095 1320.74 89.6996 1319.56 90.428C1319 90.7658 1318.53 91.2092 1317.92 91.4625C1316.3 92.1382 1314.33 91.283 1312.8 90.4596C1312.12 91.1986 1310.7 91.2514 1309.67 90.7974C1308.67 90.3646 1307.97 89.5939 1307.32 88.8233C1307.49 90.8608 1304.81 92.212 1302.51 93.0988C1300.17 93.9961 1297.81 94.8934 1295.47 95.7908C1297.1 93.595 1298.53 91.3253 1299.72 88.95C1296.16 89.3301 1292.5 89.2245 1288.97 88.6016C1288.74 89.5306 1288.49 90.4596 1288.27 91.3886C1287.14 91.1669 1286.08 90.7763 1285.13 90.259C1285.1 91.3992 1284.97 92.5393 1284.67 93.6583C1283.73 93.4577 1282.8 93.2572 1281.84 93.0566C1281.89 93.4789 1281.77 93.9011 1281.49 94.2495C1281.01 94.0278 1280.51 93.8062 1280.02 93.5845C1279.86 94.7141 1278.26 95.4319 1276.82 95.3791C1275.4 95.3052 1274.09 94.6823 1272.86 94.07C1273.39 95.5796 1273.61 97.1737 1273.5 98.7466C1273.46 99.3167 1273.37 99.9502 1272.86 100.372C1272.23 100.869 1271.25 100.879 1270.37 100.879C1268.18 100.847 1265.94 100.826 1263.74 100.784C1262.25 100.774 1260.41 100.9 1259.78 101.977C1259.45 102.547 1259.35 103.413 1258.57 103.466C1258.26 103.476 1257.96 103.339 1257.73 103.212C1256.54 102.579 1255.45 101.819 1254.47 100.985C1252.83 101.724 1251.13 102.104 1249.49 102.843C1249.12 104.205 1246.56 103.909 1245.07 103.191C1243.56 102.463 1241.32 101.724 1240.37 102.896C1240.04 103.307 1239.9 103.93 1239.3 103.993C1238.91 104.036 1238.58 103.803 1238.32 103.592C1237.45 102.927 1236.6 102.262 1235.73 101.608C1234.42 102.315 1232.5 102.252 1231.26 101.428C1230.99 102.04 1230.74 102.642 1230.48 103.254C1230.05 102.642 1228.95 102.368 1228.16 102.695C1227.11 101.386 1224.82 101.196 1222.86 101.154C1217.58 101.006 1211.83 100.974 1207.57 103.455C1207.04 103.761 1206.4 104.12 1205.77 103.941C1205.29 103.793 1205.04 103.392 1204.84 103.012C1203.05 99.5702 1200.69 95.6852 1196.18 94.7668C1196.44 95.8964 1196.26 97.0787 1195.71 98.1133C1194.38 96.9098 1193.06 95.6852 1191.75 94.4712C1191.21 94.9885 1190.65 95.4952 1190.13 95.9913C1189.37 95.4424 1188.61 94.8829 1187.85 94.3339C1186.79 95.4952 1184.57 95.0518 1182.78 94.8618C1180.03 94.5662 1177.14 95.2418 1175.05 96.667C1174.97 95.0413 1174.44 93.4155 1173.46 91.9587C1171.67 93.6689 1168.21 94.07 1165.85 92.8455C1165.12 92.4549 1164.47 91.9376 1163.67 91.642C1160.55 90.5124 1157.44 93.2783 1154.06 93.595C1152.33 93.7534 1150.61 93.2572 1148.88 93.3944C1147.17 93.5211 1145.34 94.8196 1146.02 96.097C1142.78 95.3369 1138.97 94.1017 1138.44 91.4414C1138.05 92.1909 1137.63 92.951 1137.22 93.7006C1136.34 93.4472 1135.6 92.951 1135.1 92.3387C1134.59 93.3416 1132.62 93.2466 1131.59 92.4971C1130.58 91.737 1130.15 90.618 1129.41 89.689C1128.67 88.76 1127.22 87.9577 1125.98 88.4116C1124.55 88.9183 1124.15 90.713 1122.61 90.7869C1120.74 90.8713 1119.34 88.1688 1117.8 89.0239C1117.21 89.3723 1117.16 90.1007 1116.69 90.5441C1115.56 91.6103 1113.36 90.3329 1112.83 88.9816C1112.31 87.6515 1112.21 85.973 1110.7 85.2446C1109.52 84.6851 1108.04 85.0018 1106.67 84.9807C1105.28 84.9807 1102.93 83.8616 1103.24 82.806C1102.29 82.2676 1101.08 81.877 1099.96 82.1409C1098.86 82.4048 1098.08 83.5449 1098.73 84.3261C1093.5 85.4557 1087.97 85.7513 1082.57 85.1918C1080.79 84.9912 1078.81 84.759 1077.33 85.593C1076.56 86.0258 1076.01 86.7542 1075.06 86.8703C1073.13 87.1342 1072.42 84.854 1070.91 83.8088C1068.91 82.4365 1065.89 83.5344 1063.62 84.5584C1057.98 87.092 1051.82 88.9395 1045.47 89.9635C1045.24 91.737 1045.01 93.5211 1044.77 95.2841C1043.57 95.1046 1042.42 94.6296 1041.54 93.9645C1041.63 94.4501 1041.75 94.9568 1041.85 95.4635C1041.38 95.1996 1040.78 95.0941 1040.22 95.168C1039.88 96.7726 1039.57 98.3983 1039.23 100.013C1037.06 97.9021 1034.81 95.833 1032.52 93.8167C1032.04 93.3944 1031.52 92.9616 1030.86 92.7504C1029.01 92.1381 1026.94 93.4261 1024.98 93.0777C1023.35 92.7716 1022.38 91.4098 1021.91 90.1324C1021.42 88.8445 1021.21 87.4615 1020.22 86.3636C1019.01 85.044 1016.94 84.4739 1014.98 83.9567C1008.02 82.162 1001.06 80.3568 994.101 78.5621C993.691 78.446 993.244 78.351 992.822 78.4038C991.687 78.541 990.963 79.7234 989.852 79.5439C988.681 79.375 988.656 78.0238 987.896 77.2742C986.387 75.7541 982.729 77.1686 980.821 75.944C978.72 75.7751 976.801 74.5717 976.076 72.9882C975.63 73.6955 974.217 73.8538 973.529 73.2521C972.925 73.8327 972.309 74.4028 971.706 74.9623C972.285 73.7377 970.571 72.2492 968.977 72.5976C967.939 72.8193 967.239 73.6215 966.249 73.9594C964.414 74.6139 962.18 73.4844 961.383 71.9958C960.586 70.4968 960.816 68.8076 961.069 67.2136C959.101 65.6723 955.733 67.1819 953.137 66.5063C951.604 66.1051 950.505 64.9967 948.972 64.6272C947.583 64.2999 946.123 64.6694 944.686 64.8066C943.249 64.9439 941.535 64.7856 940.786 63.7932C939.591 62.2625 941.197 59.5494 939.132 58.8527C938.71 58.6943 938.227 58.7049 937.78 58.5887C936.645 58.2615 936.15 57.1002 936.404 56.1501C936.682 55.1894 937.49 54.4188 938.275 53.6799C936.971 52.7931 934.701 53.0465 933.772 54.1971C932.842 55.3584 933.035 57.2375 931.442 57.7653C930.367 58.1242 929.039 57.6175 928.097 58.1242C927.409 58.4831 927.252 59.201 927.132 59.845C926.854 61.4707 926.552 63.0753 926.274 64.701C925.031 62.8008 923.159 61.1646 920.938 59.9717C919.851 60.5945 920.371 62.4947 919.03 62.6214C918.342 62.6742 917.811 62.1358 917.195 61.8613C915.976 61.344 914.467 61.9775 913.489 62.7481C912.487 63.5188 911.291 64.1522 909.939 64.3844C908.164 63.8988 906.136 64.0677 904.555 64.8383C903.746 65.2184 903.034 65.7673 902.092 65.894C900.522 66.1157 898.941 64.7433 899.339 63.5082C897.033 63.5715 895.162 62.0408 893.834 60.5101C892.53 58.9899 891.334 57.248 889.258 56.4246C887.181 55.6117 883.97 56.4879 884.042 58.3248C883.813 57.4169 882.11 57.4275 881.217 57.987C880.324 58.5676 879.768 59.4755 878.73 59.8661C877.583 60.3095 876.134 59.9822 875.156 59.3171C874.154 58.6415 873.514 57.7125 872.911 56.8046C869.989 57.797 866.717 58.536 863.687 57.7442C861.888 57.2903 859.618 56.4034 858.411 57.533C857.626 58.2509 857.747 59.581 856.636 59.9611C855.96 60.2039 855.175 59.9188 854.463 59.6971C852.507 59.1165 850.298 59.0955 848.342 59.6444C848.632 58.1137 849.247 56.6146 850.141 55.2422C847.171 53.6798 843.295 53.2576 839.939 54.1021C839.13 54.3027 838.164 54.556 837.488 54.1443C836.679 53.6587 836.872 52.6241 836.184 52.033C835.822 51.7268 835.303 51.6107 834.796 51.5051C833.142 51.1462 831.476 50.7873 829.834 50.4389C828.638 50.1855 827.395 49.9216 826.188 50.0694C824.497 50.27 822.396 51.104 821.406 49.9744C821.624 50.3334 821.165 50.7556 820.694 50.7767C820.199 50.8084 819.74 50.5761 819.33 50.3544C818.461 49.9005 817.628 49.4466 816.758 48.9927C816.976 50.3228 814.464 51.2096 813.354 50.2172C813.535 51.1357 811.893 51.6318 810.818 51.2518C809.744 50.8928 808.995 50.08 807.957 49.6472C806.436 48.9926 804.528 49.246 803.104 50.006C801.703 50.7661 800.773 51.9802 800.109 53.2365C799.807 53.8276 799.469 54.4927 798.733 54.7039C797.067 55.2 794.918 52.3075 793.143 52.4658C791.706 52.6031 790.258 52.7403 788.797 52.8775C789.569 54.4821 788.736 56.4562 786.925 57.343C786.104 57.7231 785.054 57.987 784.692 58.6838C784.124 59.7606 785.537 61.1329 784.716 62.0936C783.267 62.1886 781.77 61.8824 780.551 61.249C779.814 60.8795 779.162 60.3728 778.341 60.2144C777.629 60.0877 776.893 60.2039 776.18 60.3306C773.005 60.9113 769.709 61.5235 767.125 63.0859C765.363 64.1522 763.588 65.7146 761.403 65.3557C760.087 65.134 759.097 64.2366 757.853 63.8249C756.573 63.4132 755.113 63.5293 753.736 63.6771C751.249 63.941 748.762 64.1943 746.275 64.4477C743.752 64.7116 741.047 65.0284 739.176 66.3902C738.777 66.6858 738.415 67.0236 737.944 67.2031C736.52 67.7837 734.878 66.9286 733.526 66.2318C732.161 65.5456 730.061 65.1128 729.216 66.179C728.986 66.4746 728.89 66.8124 728.648 67.0764C727.851 67.8998 726.209 67.467 725.062 66.9708C725.038 67.5726 724.809 68.1742 724.398 68.681C722.793 69.1349 721.947 66.8547 720.281 66.6119C719.195 66.4535 718.277 67.2242 717.396 67.752C715.343 68.9872 712.313 69.0716 710.116 67.9631C710.261 69.2722 710.079 70.6023 709.56 71.8269C707.653 71.3835 706.566 69.0188 704.659 69.4411C702.654 69.8845 703.427 72.5659 701.894 73.6638C700.952 74.3289 699.371 74.1389 698.525 73.3999C697.656 72.6715 697.475 71.5525 697.777 70.6024C696.678 70.8979 695.519 71.1829 694.384 70.9718C693.237 70.7501 692.235 69.8 692.597 68.9238C692.984 68.0053 694.638 67.0975 693.769 66.4008C693.43 66.1263 692.851 66.1579 692.368 66.2424C691.064 66.4641 689.833 66.9603 688.819 67.6676C688.662 66.5697 687.587 65.5879 686.235 65.3345C684.883 65.0706 683.567 65.3767 682.806 66.3163C683.832 66.6752 683.458 68.0159 682.444 68.3643C681.454 68.7127 680.295 68.3959 679.257 68.0792C679.051 68.5543 678.846 69.0294 678.665 69.515C677.204 69.4833 675.743 69.4622 674.282 69.4094C674.198 70.0323 674.126 70.634 674.065 71.2463C672.508 70.4545 670.962 69.6628 669.417 68.8922C668.729 70.0112 668.016 71.1513 666.894 72.0064C665.759 72.8615 664.081 73.3788 662.596 72.9882C660.954 72.5659 659.348 71.1513 657.863 71.8269C656.825 72.302 656.728 73.5477 655.714 74.065C654.784 74.5612 653.48 74.2127 652.647 73.6215C651.814 73.0198 651.259 72.1965 650.462 71.5525C648.808 70.1801 646.055 69.7261 643.87 70.444C645.138 71.0668 644.039 72.682 642.699 73.157C640.767 73.8432 638.425 73.7694 636.578 72.9565C635.841 72.6187 635.141 72.1858 634.32 72.0275C632.763 71.7319 631.266 72.5553 629.998 73.3365C629.757 72.3548 629.286 71.4152 628.585 70.5812C627.294 71.109 626.002 71.6475 624.698 72.1753C624.058 68.9871 619.241 66.8336 615.462 67.9315C613.772 68.4277 611.997 67.4353 610.596 66.5168C607.976 64.7961 605.332 63.0648 602.712 61.3229C601.469 60.4995 600.177 59.6655 598.668 59.2538C597.135 58.8526 595.287 58.9582 594.165 59.8555C593.283 60.5523 592.825 61.6819 591.629 61.9247C590.688 62.1147 589.71 61.6185 588.973 61.0801C587.283 59.8555 585.967 58.3037 585.158 56.6146C583.866 57.1108 582.586 57.6069 581.319 58.1031C580.848 58.2931 580.329 58.4726 579.822 58.3459C578.433 57.987 579.037 55.8967 577.648 55.5378C576.707 56.8996 574.256 56.8469 572.312 56.6357C569.33 56.2874 566.336 55.939 563.354 55.5906C562.919 57.3431 562.629 59.1165 562.533 60.8901C560.734 59.9294 559.201 58.6732 558.042 57.2164C555.349 57.7442 553.333 59.4755 550.955 60.6051C548.564 61.7452 544.991 62.0619 543.373 60.2462C543.3 60.8479 543.204 61.4497 543.119 62.0514C540.656 60.774 537.167 59.5705 535.103 61.1857C534.318 61.8086 533.835 62.7903 532.76 62.9592C531.529 63.1387 530.177 62.1464 529.151 62.6953C528.692 62.9276 528.511 63.4026 528.148 63.7193C527.303 64.4899 525.698 64.2472 524.539 63.7827C523.355 63.297 522.148 62.6637 520.88 62.8431C519.842 62.9698 519.009 63.6243 517.971 63.7615C516.341 63.9621 514.989 62.8325 513.661 62.0408C510.715 60.2672 506.863 59.845 503.229 59.4966C501.02 59.296 498.738 59.0849 496.637 59.6655C495.068 60.0984 493.716 60.9534 492.098 61.2701C490.48 61.5657 488.85 60.0878 487.812 59.0321C486.375 57.5225 483.393 58.367 481.401 59.3699C479.433 60.3939 476.668 61.4179 474.93 60.1194C474.688 61.2174 474.447 62.3258 474.193 63.4237C472.322 62.9909 470.197 63.4765 468.905 64.6272C469.364 62.8748 467.143 61.1857 464.885 61.1329C462.651 61.0802 460.611 62.2097 459.138 63.5293C458.486 62.3997 458.329 61.1224 458.655 59.9083C457.315 59.7077 455.878 59.9294 454.755 60.5628C453.922 59.7183 453.403 58.6626 453.319 57.5964C451.182 57.3641 449.141 59.0532 449.455 60.7529C448.876 60.4045 448.212 60.035 447.524 60.1194C446.811 60.1933 446.304 60.9956 446.872 61.344C443.189 58.6415 437.406 60.4678 432.432 60.4573C427.76 60.4573 423.124 58.6204 418.512 59.201C416.725 59.4333 415.035 59.9928 413.224 60.1194C410.688 60.2989 408.044 59.4754 406.282 57.9764C404.748 56.6885 402.925 54.6827 400.933 55.4744C401.899 56.9946 401.658 58.9582 400.329 60.2462C398.989 61.5552 396.647 62.1569 394.607 61.7136C395.657 63.1176 396.37 64.7011 396.671 66.3268C393.086 66.8547 391.033 62.4631 387.387 62.1147C385.516 61.9247 382.98 62.632 382.183 61.2701C381.857 60.7106 382.075 60.0561 381.809 59.4755C381.29 58.3882 379.274 58.2403 378.115 58.9265C376.944 59.6127 376.449 60.7845 376.014 61.8824C373.78 57.797 370.919 53.9226 367.527 50.365C365.088 50.9984 362.154 50.2172 360.633 48.5281C360.138 47.9686 359.763 47.3352 359.087 46.9446C358.411 46.5752 357.554 46.5012 356.745 46.4484C353.57 46.2373 350.383 46.1001 347.195 45.9945C347.618 47.0502 347.944 48.412 346.821 49.0349C346.169 49.3938 345.276 49.341 344.491 49.246C338.684 48.602 332.889 47.7152 327.166 46.5751C325.85 46.3217 324.425 45.9944 323.52 45.1816C321.769 46.005 320.296 46.744 318.377 47.3035C316.904 47.7258 315.455 48.1587 313.982 48.5809C313.559 48.6971 313.089 48.8237 312.666 48.7287C311.99 48.5915 311.628 48.0108 311.362 47.4935C310.42 45.72 308.621 43.7354 306.255 44.0204C305.47 44.1154 304.746 44.4743 303.937 44.4954C301.921 44.5482 300.822 42.6585 300.267 41.0961C297.116 41.0433 293.977 40.8217 290.85 40.4522C291.127 37.9925 290.91 35.5011 290.258 33.0836C288.121 32.978 285.984 34.1393 285.332 35.7861C284.994 36.6623 285.042 37.6546 284.596 38.5097C284.149 39.3648 282.857 40.0722 281.843 39.6182C282.241 40.7795 282.217 42.0357 281.759 43.1758C280.696 41.909 279.054 40.98 277.219 40.6105C277.05 42.6374 276.446 45.0866 274.032 45.6778C272.547 46.0578 270.965 45.5194 269.396 45.3928C267.85 45.2555 265.87 45.8784 265.919 47.1452C264.192 47.008 263.637 44.8966 261.946 44.6221C261.343 44.5271 260.739 44.696 260.184 44.8544C257.974 45.4667 255.765 46.1 253.556 46.7123C253.399 45.2977 251.926 44.1471 250.26 43.6509C248.581 43.1548 246.758 43.2181 244.996 43.3131C242.798 43.4398 240.468 43.6931 238.79 44.8227C238.585 43.3236 235.76 42.9752 234.275 43.8831C233.188 44.5693 232.005 45.7412 230.761 45.2239C230.001 44.9072 229.771 44.0943 229.047 43.7565C227.888 43.2075 226.572 44.1576 225.775 45.0127C224.532 46.3428 223.288 47.2191 222.044 48.5704C222.25 48.6971 222.02 48.9821 221.767 48.9927C221.501 49.0138 221.26 48.887 220.994 48.8659C220.294 48.8026 219.799 49.3937 219.618 49.9321C219.413 50.4705 219.328 51.0828 218.797 51.4418C217.71 51.2095 217.215 49.7527 216.141 49.985C215.815 50.0589 215.585 50.2911 215.38 50.5128C214.728 51.1884 214.088 51.8535 213.436 52.5397C213.086 52.8987 212.543 53.3103 211.988 53.1625C211.637 53.057 211.444 52.7509 211.287 52.4764C210.865 51.7374 210.43 51.0089 210.008 50.27C209.935 50.1327 209.851 50.0061 209.682 49.9533C209.549 49.9005 209.404 49.9216 209.259 49.9533C208.112 50.2911 207.834 51.4629 207.025 52.1702C205.673 53.342 202.86 53.3842 202.353 54.9255C201.653 54.0599 200.965 53.1836 200.289 52.318C199.818 52.8986 199.443 53.5321 199.19 54.1866C198.526 52.9514 197.777 51.7479 196.956 50.5867C196.534 51.0195 196.051 51.4101 195.508 51.7268C195.194 50.7873 195.387 49.7316 196.051 48.9188C194.699 48.8976 193.346 48.7814 192.006 48.5492C192.212 48.3275 192.501 48.1692 192.839 48.0742C192.791 47.8736 192.441 47.8314 192.187 47.863C191.934 47.9158 191.596 47.9369 191.451 47.768C191.379 47.673 191.487 47.5886 191.596 47.5674C189.894 46.9024 187.926 46.6807 186.054 46.9023C186.115 45.9839 185.354 45.1394 184.4 44.6221C183.446 44.1154 182.3 43.8937 181.189 43.672C180.066 43.4609 178.955 43.2391 177.845 43.0175C177.507 42.9541 177.193 42.8908 176.915 42.7324C176.71 42.6057 176.553 42.3946 176.311 42.3418C175.635 42.1834 175.068 43.0808 174.452 42.8275C174.21 42.743 174.09 42.4791 173.848 42.3841C173.22 42.1413 172.701 43.102 172.025 42.9753C171.41 42.8486 171.446 41.9618 170.806 41.8563C170.528 41.814 170.263 41.9513 170.033 42.0885C169.176 42.6163 168.367 43.4609 167.317 43.7142C166.315 43.9676 165.337 44.316 164.286 44.4216C163.284 44.5483 162.246 44.4532 161.232 44.4216C153.179 44.0626 145.017 46.3851 139.15 50.7345C133.91 51.4207 128.864 52.8353 124.252 54.9044C123.817 55.6751 123.406 56.4352 122.972 57.2058C122.235 57.1847 121.475 57.1636 120.714 57.1213C119.591 58.8949 116.935 59.6338 115.1 60.964C113.241 62.2941 112.734 65.3345 115.16 65.8624C110.705 66.7914 106.432 68.206 102.484 70.0851C102.218 68.6283 101.952 67.1819 101.687 65.7357C97.2318 65.3028 93.0303 63.276 90.4466 60.3306C87.8992 60.9007 85.3759 61.4707 82.8284 62.0197C83.3596 59.5283 79.0133 57.3642 76.4659 58.8738C75.7294 59.3066 75.1136 59.9717 74.1961 60.0773C72.5662 60.2567 71.6728 58.6626 70.888 57.5014C69.1374 54.915 65.2498 53.3526 61.6158 53.7854C62.5213 52.4552 63.4268 51.104 64.3323 49.7632C60.2153 51.3468 56.3036 46.9657 51.8124 46.174C48.2387 45.5511 44.3753 47.7258 43.8803 50.5972C42.5039 49.531 41.1155 48.4754 39.715 47.4091C38.7975 48.3487 37.8678 49.267 36.9261 50.196C36.2259 49.6154 35.5015 49.0348 34.8012 48.4648C33.3042 50.0589 29.6098 49.6999 28.6077 47.8525C28.0523 46.839 28.2093 45.5405 27.2193 44.7488C26.5673 44.2315 25.6135 44.0943 24.708 43.8937C21.2068 43.1441 18.1644 41.0855 16.6311 38.4464C15.5203 39.1009 14.4217 39.7449 13.3109 40.3994C12.2244 37.8763 8.04702 37.433 4.71481 37.3696C1.35846 37.3063 -2.84301 36.6412 -3.60362 34.0336C-9.74888 35.3004 -16.703 33.7908 -21.2305 30.2015C-25.8787 34.1075 -35.8511 28.9136 -40.451 32.8619C-41.2961 32.3974 -42.1534 31.9434 -42.9985 31.4789C-47.0309 30.6977 -51.5584 31.8589 -54.1903 34.382C-58.4643 33.4425 -62.7382 32.5135 -67 31.5634L-62 0Z" fill="#F8F0E2"/>
</svg>
