<svg width="41" height="41" viewBox="0 0 41 41" fill="none" xmlns="http://www.w3.org/2000/svg">
<path d="M13.9425 2.40814C9.72561 3.19913 6.29936 6.36309 4.1909 9.79071C1.81888 13.7457 0.764648 18.4916 0.764648 22.9739C1.02821 27.1925 2.60955 31.4111 5.50869 34.5751C8.40782 37.739 12.0976 39.8483 16.3146 40.3756C20.5315 40.903 25.012 40.3756 28.9653 38.0027C32.6551 35.8934 35.5543 32.7294 37.3992 29.0381C41.089 21.9192 41.6161 12.4273 36.3449 5.83576C33.4458 2.40814 29.2289 0.826163 25.012 0.5625C22.6399 0.5625 20.5315 0.5625 18.1595 0.5625C16.051 0.5625 13.679 1.08983 11.5705 2.14448C10.5163 2.67181 9.72561 3.19913 8.93494 3.99012C8.67138 4.51745 8.93494 5.04477 9.46205 4.78111C13.1519 2.67181 17.3688 2.14448 21.3221 1.88082C25.2755 1.88082 29.756 2.40814 32.9187 5.04477C38.717 9.79071 39.2441 18.7553 36.8721 25.6105C35.5543 29.3018 33.4458 32.4657 30.2831 35.1024C27.1204 37.739 23.1671 39.0573 19.2137 39.321C15.2603 39.321 11.307 38.2663 8.14426 35.6297C5.24513 33.2567 3.13667 29.8291 2.08244 25.8742C1.02821 21.6556 1.55532 17.1733 3.40023 13.2183C4.98157 9.52705 7.35359 6.09943 11.0434 3.99012C11.8341 3.4628 12.8883 3.19913 13.9425 2.93547C14.4696 2.93547 14.2061 2.14448 13.9425 2.14448V2.40814Z" fill="#232C6A"/>
</svg>
