<svg width="80" height="80" viewBox="0 0 80 80" fill="none" xmlns="http://www.w3.org/2000/svg">
<path d="M26.4049 41.7153C26.4049 41.7153 26.4313 41.7153 26.4576 41.7153C26.4972 41.7022 26.5236 41.689 26.5499 41.6758L26.4049 41.7153Z" fill="#232C6A"/>
<path d="M34.1964 41.8066C34.1964 41.8066 34.2228 41.8066 34.2491 41.8066C34.2491 41.8066 34.2491 41.7935 34.1964 41.8066Z" fill="#232C6A"/>
<path d="M8.47472 43.4688C8.43517 43.5347 8.422 43.5874 8.40881 43.6138C8.422 43.5742 8.44835 43.5215 8.47472 43.4688Z" fill="#232C6A"/>
<path d="M42.8322 54.7943C42.6608 54.7943 42.8849 54.7679 42.9508 54.7679C42.7663 54.7416 42.5685 54.7416 42.3839 54.7548C42.3839 54.7811 42.7531 54.7811 42.8322 54.7943Z" fill="#232C6A"/>
<path d="M9.87219 43.6133C9.87219 43.6133 9.83264 43.6528 9.81946 43.6792C9.84583 43.6528 9.859 43.6396 9.87219 43.6133Z" fill="#232C6A"/>
<path d="M64.7834 54.6758L64.7439 54.7153C64.7439 54.7153 64.7966 54.689 64.7834 54.6758Z" fill="#232C6A"/>
<path d="M41.3951 41.832C41.3951 41.832 41.4083 41.8584 41.4347 41.8584H41.4611L41.4083 41.832H41.3951Z" fill="#232C6A"/>
<path d="M71.8501 49.5488C71.8501 49.5488 71.8501 49.5488 71.8633 49.5357L71.8369 49.3906C71.8369 49.4697 71.8369 49.5225 71.8369 49.5488H71.8501Z" fill="#232C6A"/>
<path d="M51.2697 42.0068L51.3092 41.9937C51.1379 41.9937 50.6896 41.9805 50.1227 41.9805L50.0831 42.0332L51.2697 42.0068Z" fill="#232C6A"/>
<path d="M62.0543 43.1182L60.9996 43.0259C64.3615 42.9864 65.9699 43.0787 68.8176 43.0128H68.6858C68.8704 43.0523 69.0022 42.96 69.556 43.105C69.8196 43.1841 70.202 43.3555 70.5975 43.7643C70.9798 44.1993 71.3226 44.819 71.2039 45.8737C71.2039 46.0319 71.2303 46.0319 71.2039 46.3615L71.2567 45.5573C71.2831 46.0319 71.3226 46.4538 71.3358 47.0999C71.3358 47.2317 71.3094 47.2844 71.2962 47.2976V48.8665L71.2567 49.3543C71.2962 49.829 71.4149 49.618 71.349 50.8969C71.4413 50.4091 71.4017 51.5297 71.4544 51.3715C71.4544 51.4506 71.4281 51.5825 71.4149 51.7011C71.4149 52.4658 71.4544 53.9029 71.494 54.2589C71.494 54.2589 71.6786 51.2661 71.784 50.4618C71.7577 51.5429 71.784 50.7519 71.8236 50.5277L71.7972 50.4618C71.8236 49.8158 71.8763 49.8158 71.8895 49.4994C71.8895 49.4994 71.8895 49.4994 71.8763 49.5126V49.5521C71.8763 49.5521 71.8763 49.5521 71.8631 49.5257C71.8631 49.5257 71.8368 49.4994 71.85 49.328V49.3675C71.85 49.0775 71.85 48.6424 71.85 48.4315H71.9027C71.8631 48.1941 71.9027 47.3899 71.9422 46.5593C72.0082 45.7419 72.0477 44.8585 71.8895 44.5421C71.7445 43.8697 71.1776 43.1842 70.4656 42.7227C69.8856 42.3799 69.701 42.3667 69.6351 42.314C69.5559 42.2744 69.5691 42.2349 69.2264 42.169C68.3562 42.0767 69.3978 42.2217 69.055 42.2085C68.699 42.1558 68.3958 42.1558 68.0794 42.1294C68.6463 42.1294 68.3298 42.0899 68.2376 42.0767C67.407 42.0767 66.0886 41.9844 65.8381 42.0767C64.7174 42.0371 64.7043 41.9976 64.2296 41.9844C64.3878 41.9976 64.7174 42.0239 64.7174 42.0371C64.2692 41.9976 64.5065 42.0371 64.6911 42.0635C64.0055 42.103 61.1182 41.8921 60.9732 41.9976C60.815 42.0503 61.0655 42.1294 60.5908 42.169L60.2744 42.1294L59.7866 42.169C59.457 42.1426 59.6284 42.1294 59.6284 42.1162C58.8374 42.1558 57.7431 42.1162 56.7939 42.103L57.7959 42.314C56.9916 42.2613 55.5414 42.169 55.3832 42.2349L54.8954 42.169C53.2869 42.0371 53.7747 42.2217 53.1287 42.1822L52.3245 42.103H53.1287C52.3245 42.0635 52.0081 42.0371 51.3621 41.9844C51.3621 41.9844 51.4412 41.9844 51.4412 41.9976H51.3225C51.2302 42.0371 50.8084 42.0635 50.2414 42.0635C49.4372 42.0635 48.8044 42.1162 47.5256 42.0239L47.2091 42.103L46.2467 42.0503V41.9844C47.1828 41.9844 48.9758 41.9712 50.1887 41.958L50.2151 41.9317C49.5031 41.9317 48.6726 41.9448 48.1979 41.958C47.9606 41.958 47.3673 41.8789 47.8024 41.8394L47.3542 41.9053C44.9547 41.9053 44.9283 41.9053 42.4233 41.8394L42.6475 41.8657C42.1465 41.8789 41.6587 41.9053 41.5136 41.8525C40.0107 41.8525 38.4418 41.7998 37.4662 41.7207L37.2552 41.7998C36.9388 41.7998 36.4642 41.6812 36.306 41.7998L35.6204 41.8262C35.1854 41.8262 34.9217 41.8657 34.4207 41.8262C34.3943 41.8262 34.3548 41.8262 34.3284 41.8262C33.3396 41.7998 34.3284 41.9053 33.2078 41.8525C32.8518 41.7998 32.8122 41.9448 32.2585 41.9317L31.7048 41.8262C30.7028 41.7603 30.5446 41.8657 29.0943 41.8789C28.3956 41.8394 28.066 41.7471 28.5274 41.668C27.8946 41.7603 28.2374 41.7339 27.4068 41.7734C27.275 41.7339 27.3673 41.7207 27.5518 41.6943C26.8135 41.6416 27.0904 41.7339 26.5367 41.7339C26.3785 41.813 26.1807 41.9317 26.0093 41.9317L26.2203 41.958C25.627 41.9976 24.981 42.0239 24.2954 41.9844L24.3218 41.9448H23.5835L23.5439 41.9185H22.4892L22.6342 41.9448C22.3837 41.9448 21.5795 41.9712 21.1181 41.9448V41.9185C19.826 41.8394 18.7581 41.9448 17.2288 41.958L17.4265 41.9053C16.9124 41.8525 17.2815 41.9844 16.6619 41.958L16.6355 41.8921C16.095 41.9844 15.9236 41.8789 15.5544 41.8394L15.7258 41.9317H15.0139C14.236 41.8789 14.5393 41.7998 14.6447 41.7471L14.1174 41.813L14.0119 41.7339C13.6296 41.8262 13.6296 41.7207 12.944 41.7734C12.8913 41.7471 13.0626 41.7207 12.8253 41.7075L11.7047 41.813L12.3771 41.7603L12.298 41.8789C11.5861 41.9844 11.3751 41.8262 10.7555 41.9448C10.8873 41.9053 11.0323 41.8789 11.1642 41.8657C10.1886 41.9976 10.1358 42.0635 9.62164 42.2876C9.77985 42.2085 10.0303 42.1162 9.68755 42.3272C9.43705 42.4854 9.52935 42.3799 9.29204 42.5381C9.29204 42.6436 8.76467 43.1182 8.47462 43.6983C8.47462 43.6983 8.47462 43.672 8.47462 43.6324C8.4087 43.817 8.39552 43.8434 8.29005 44.1334L8.2637 43.9488C8.22414 44.1334 8.19777 44.318 8.19777 44.5026C8.14504 44.674 8.14502 44.9113 8.14502 45.0827C8.14502 45.2277 8.14504 45.3332 8.11867 45.3068V45.1354L8.07912 47.4426L8.0132 47.469C8.10548 47.6931 7.97364 48.7215 8.0923 48.6556C8.02638 49.0907 8.13184 50.3695 8 50.1058C8 50.8573 8.02638 51.4506 8.05275 52.0703C8.05275 52.4131 8.06594 52.7295 8.07912 53.0591C8.07912 53.27 8.07912 53.4678 8.07912 53.7051C8.06594 54.0611 8.19777 54.4303 8.52737 54.6808C8.63284 54.773 8.77786 54.8653 8.97562 54.9181C9.14701 54.9708 9.47661 54.9576 9.5689 54.9708C9.88531 54.9708 10.1886 54.984 10.505 54.9972C11.1905 54.9972 11.9156 54.9972 12.5221 54.9972C14.8293 54.9444 16.385 54.9181 18.6922 54.8785C20.1161 55.0367 22.2387 54.8258 23.768 54.9181L24.1899 54.8521C25.2051 54.9444 26.7608 54.8258 28.1847 54.9313C28.5802 54.9049 28.7384 54.8917 28.8043 54.8917C28.7384 54.8917 28.6461 54.8785 28.6065 54.839C29.0153 54.8653 29.8327 54.839 29.7799 54.9049H29.6744C29.6085 54.9972 30.9137 54.8785 31.362 54.9444L31.1115 54.8653H31.8762L31.6652 54.8917C35.014 54.7071 36.5301 54.9708 39.6679 54.7994C39.246 54.8917 40.2875 54.7467 40.3271 54.8521C41.1181 54.984 41.7905 54.8258 42.4497 54.7862C42.4497 54.7862 42.4497 54.7862 42.4893 54.773H43.6231C42.9507 54.9181 44.4405 54.6808 43.8208 54.7862C46.7872 54.8785 50.6502 54.7862 54.078 54.8258L53.933 54.7994C54.8031 54.7994 55.8842 54.7599 56.5434 54.8126C57.2026 54.8653 57.9936 54.7335 58.2441 54.7203C58.9692 54.6676 59.6284 54.773 59.312 54.773C60.0899 54.7599 60.815 54.6412 61.8829 54.6939C62.252 54.7994 64.8097 54.5885 64.8493 54.7071C66.2204 54.7862 67.5256 54.6412 69.0022 54.7071C69.0022 54.7071 68.9627 54.7071 68.9231 54.7203L71.9422 54.3512L71.0853 53.9424L68.4749 53.6128L61.3951 53.6788L55.7392 53.5469L41.9883 53.5865L40.9995 53.6788C38.2968 53.5205 34.8294 53.7051 31.9157 53.5865L31.8498 53.6656C31.0324 53.6656 31.0851 53.626 30.8874 53.6128C27.0772 53.626 23.1879 53.6524 19.4173 53.6656C17.5188 53.6656 15.6599 53.6656 13.8405 53.6656C12.9308 53.6656 12.0343 53.6656 11.1378 53.6656C10.3336 53.6392 9.04155 53.7051 9.29204 53.5865C9.30523 53.7579 9.3184 52.9009 9.3184 52.2812C9.3184 51.6352 9.3184 51.0024 9.35795 50.7387C9.30521 49.618 9.29203 48.471 9.27885 47.324C9.27885 46.7439 9.27885 46.177 9.27885 45.61C9.27885 44.9772 9.27885 44.6212 9.46342 44.2125L9.43707 44.2784C9.52936 44.0279 9.68755 43.8038 9.87212 43.6192C9.89849 43.606 9.91168 43.606 9.89849 43.6192C10.2017 43.2764 10.7291 42.9996 11.4147 43.0391C12.1925 43.0523 13.0495 43.0787 13.7746 43.0919H13.6955C22.1728 43.1182 30.0436 42.9732 38.455 43.0787C42.3706 43.2105 46.9191 43.0259 51.4016 43.1314C52.219 43.2105 61.3028 43.1446 62.107 43.1182H62.0543Z" fill="#232C6A"/>
<path d="M71.283 47.2896V47.25C71.283 47.25 71.2566 47.3027 71.283 47.2896Z" fill="#232C6A"/>
<path d="M56.6753 42.1021H56.728L56.5039 42.0625L56.6753 42.1021Z" fill="#232C6A"/>
<path d="M71.3489 51.6948C71.3489 51.9849 71.3621 51.8662 71.3884 51.6948C71.3884 51.4048 71.3884 51.207 71.3884 51.207C71.3884 51.3389 71.3621 51.5498 71.3489 51.6817V51.6948Z" fill="#232C6A"/>
<path d="M71.7971 50.5454L71.8235 50.6377C71.8235 50.4663 71.8103 50.4795 71.7971 50.5454Z" fill="#232C6A"/>
<path d="M18.3495 56.9521C18.3363 56.9521 18.3231 56.939 18.3099 56.9258L18.3363 56.9521H18.3495Z" fill="#232C6A"/>
<path d="M16.8201 60.3843C16.8201 60.3843 16.8333 60.3843 16.8333 60.3975C16.8596 60.3975 16.8596 60.3975 16.8596 60.3711C16.8332 60.3711 16.8333 60.3711 16.8069 60.3711L16.8201 60.3843Z" fill="#232C6A"/>
<path d="M16.3456 61.6201L16.306 61.5938C16.306 61.5938 16.3324 61.6069 16.3456 61.6201Z" fill="#232C6A"/>
<path d="M20.3798 54.5469C20.3798 54.5469 20.3798 54.5469 20.3666 54.5469L20.393 54.5732C20.393 54.5732 20.393 54.5732 20.393 54.5601L20.3798 54.5469Z" fill="#232C6A"/>
<path d="M19.2722 55.7539C19.259 55.7539 19.2458 55.7803 19.2327 55.8066L19.2722 55.833V55.7671V55.7539Z" fill="#232C6A"/>
<path d="M20.5511 55.6793H20.4325C20.4852 55.4947 20.6171 55.4551 20.6171 55.2574H20.6302C20.6302 55.2574 20.472 55.1519 20.8412 55.02C20.8412 55.02 20.828 55.0069 20.8544 55.0069H20.7753C20.7753 55.0069 20.7357 54.9409 20.7489 54.9014C20.7621 54.9014 20.7753 54.9014 20.7885 54.9014L20.8148 54.8091H20.8807C20.8807 54.8091 20.7357 54.73 20.8412 54.6904C20.7489 54.6773 20.8148 54.6377 20.7621 54.6245C20.7621 54.6245 20.7885 54.6245 20.8148 54.6245C20.8148 54.585 20.8412 54.4927 20.8148 54.4531C20.8148 54.4531 20.5643 54.5322 20.4589 54.5322C20.5116 54.4795 20.4589 54.5059 20.4193 54.5059H20.4325C20.4325 54.5059 20.3402 54.5059 20.327 54.5322C20.327 54.5322 20.327 54.5322 20.3402 54.5322C20.3402 54.5322 20.3534 54.5322 20.3666 54.5322C20.3666 54.5322 20.3798 54.5322 20.3666 54.5454L20.3402 54.585L20.3006 54.5586C20.3666 54.6245 20.0897 54.6641 20.0765 54.7036C20.0106 54.7036 20.0502 54.7827 19.9974 54.8223C19.9447 54.8882 19.9183 54.8223 19.8656 54.8355C19.8128 54.8618 19.9183 54.8487 19.9183 54.875L19.8392 54.9014C19.8392 54.9014 19.8129 54.875 19.7997 54.875C19.7733 54.9146 19.6546 54.9409 19.7337 55.0069C19.6678 55.0464 19.6283 55.0332 19.6151 55.0596C19.6415 55.0596 19.6546 55.0596 19.681 55.0596C19.6283 55.0596 19.681 55.0728 19.6942 55.0596C19.7074 55.1123 19.4437 55.1783 19.536 55.231H19.5228C19.5228 55.231 19.6678 55.2837 19.6942 55.3365H19.6546L19.6678 55.376C19.6415 55.376 19.6283 55.376 19.6151 55.3628C19.6151 55.4156 19.5624 55.4551 19.5228 55.5079L19.7337 55.5474C19.7337 55.5474 19.536 55.6001 19.6019 55.6397H19.5228C19.3646 55.6529 19.5492 55.7188 19.4964 55.732H19.4041L19.4305 55.6924C19.3778 55.7188 19.3382 55.7188 19.2855 55.732C19.2855 55.732 19.325 55.7979 19.3119 55.8243C19.2855 55.8638 19.3118 55.9166 19.2064 55.9561L19.2723 56.0089L19.2064 56.0352L19.1536 56.0089C19.1536 56.0089 19.2064 55.8506 19.2327 55.7847H19.2064C19.2064 55.7847 19.1932 55.8638 19.1668 55.8902C19.1536 55.8902 19.0745 55.8902 19.0482 55.8506L19.0877 55.9034C19.035 56.0352 19.035 56.0352 18.9032 56.1407H18.9427C18.9427 56.1407 18.9427 56.2066 18.9032 56.1934C18.8504 56.2725 18.7713 56.3385 18.679 56.3516L18.7449 56.3912C18.7449 56.3912 18.6131 56.3912 18.7054 56.4308V56.4835C18.7054 56.4835 18.7318 56.5362 18.679 56.5494C18.6263 56.589 18.7449 56.5758 18.679 56.6153C18.6263 56.6153 18.7581 56.6813 18.7186 56.6944H18.6131C18.534 56.6944 18.6131 56.7604 18.5867 56.8395C18.534 56.8658 18.4417 56.8395 18.389 56.7735C18.4549 56.8526 18.4417 56.8131 18.4549 56.879C18.4153 56.879 18.4153 56.8526 18.389 56.8395C18.3231 56.8526 18.4153 56.879 18.389 56.9054C18.4549 56.9449 18.5604 57.0109 18.5604 57.024H18.5867C18.5867 57.024 18.6131 57.1163 18.5604 57.1295H18.5208V57.1559H18.4813L18.4681 57.1954H18.4813C18.4813 57.1954 18.4813 57.2614 18.4417 57.2745H18.4153C18.3099 57.2877 18.3758 57.4064 18.3362 57.4855L18.2967 57.4459C18.2967 57.4459 18.3626 57.4855 18.3231 57.5119L18.2571 57.4855C18.323 57.5514 18.2176 57.5119 18.178 57.525L18.2571 57.5514L18.2176 57.5778C18.2176 57.5778 18.0989 57.5514 18.0594 57.525L18.1121 57.591L18.033 57.5646C18.0989 57.6305 18.0066 57.5778 18.033 57.6437C18.0066 57.6437 17.9935 57.6173 17.9803 57.6173L18.0462 57.7228L18.0198 57.6701L18.1253 57.7228C18.178 57.8019 18.0857 57.7624 18.0989 57.8151L18.0726 57.7755C18.0726 57.7755 18.033 57.8151 17.9935 57.8283C18.0198 57.8283 18.0462 57.8283 18.0594 57.8546C18.0594 57.8678 18.0198 57.8546 18.0067 57.8546C18.0726 57.8942 18.0989 57.9469 18.0462 57.9601C18.0462 57.9601 18.033 57.9601 18.0198 57.9469C18.0198 57.9469 18.0462 57.9733 18.0198 57.9733L17.9539 57.9337L18.0198 57.9997C18.0198 57.9997 18.033 58.0524 17.9803 58.026L17.9012 58.1183L17.8353 58.092C17.9144 58.1447 17.7693 58.1447 17.8748 58.1974C17.8089 58.1974 17.8748 58.3029 17.7562 58.237C17.7034 58.3161 17.7957 58.4084 17.6902 58.4875C17.5716 58.4743 17.5584 58.5798 17.5188 58.6457C17.4925 58.7907 17.4925 58.883 17.4661 59.028C17.2947 59.028 17.4134 59.239 17.2947 59.2785L17.3343 59.3313C17.2156 59.3313 17.2815 59.4763 17.1629 59.5159C17.1761 59.5422 17.1761 59.5554 17.1761 59.5686C17.1761 59.5686 17.1892 59.5686 17.2288 59.5818C17.1892 59.5818 17.2024 59.6477 17.1365 59.6081C17.0706 59.5554 17.1365 59.6872 17.0574 59.6741L17.1365 59.7004L17.097 59.74C17.1761 59.9905 16.8992 59.9509 16.9651 60.1882C16.8992 60.1223 16.9915 60.241 16.8992 60.1882C16.7673 60.1751 16.886 60.2805 16.8992 60.3333C16.8992 60.3333 16.8992 60.3333 16.9124 60.3333L16.8728 60.386C16.7805 60.2937 16.9387 60.4783 16.8728 60.386C16.7146 60.5047 16.6882 60.7552 16.5564 60.9134H16.596C16.596 60.9134 16.5696 61.0452 16.5037 61.0452C16.4378 61.0452 16.5432 61.1639 16.5432 61.1771C16.5696 61.243 16.4509 61.2298 16.4641 61.2166C16.4641 61.2693 16.5432 61.3616 16.4641 61.388C16.3586 61.3616 16.4773 61.5858 16.3718 61.5462C16.2532 61.5858 16.3586 61.7176 16.24 61.7703C16.24 61.7703 16.24 61.7703 16.2268 61.7703L16.4773 62.0999L16.8596 62.2318H17.2288L17.3606 61.8231L17.6243 61.5726L17.9539 60.8211L17.9012 60.7288C18.1121 60.6497 18.0462 60.386 18.2308 60.2805L18.1649 60.241C18.1649 60.241 18.2308 60.2146 18.244 60.2146C18.4285 59.7927 18.5472 59.3313 18.824 59.0017C18.89 59.0017 18.9163 58.8698 18.9823 58.8698C18.9559 58.7116 19.0218 58.5798 19.0877 58.4611L19.1009 58.4084C19.1009 58.4084 19.1141 58.4084 19.1273 58.4084C19.1009 58.3161 19.2064 58.2502 19.2723 58.1842C19.5096 57.7492 19.5887 57.2614 19.9183 56.8526C20.1424 56.6944 20.1029 56.378 20.3138 56.1803C20.4061 56.1803 20.5907 55.6529 20.5907 55.6001L20.5511 55.6793Z" fill="#232C6A"/>
<path d="M19.5095 55.5249V55.5117H19.4568L19.5095 55.5249Z" fill="#232C6A"/>
<path d="M19.7997 54.8594C19.7997 54.8594 19.7865 54.8857 19.7997 54.8857V54.8594Z" fill="#232C6A"/>
<path d="M20.8807 54.6538C20.8807 54.6538 20.8807 54.6406 20.8412 54.6406C20.8412 54.6538 20.8412 54.667 20.8412 54.667C20.8412 54.667 20.8676 54.667 20.8807 54.667V54.6538Z" fill="#232C6A"/>
<path d="M62.7266 60.856H62.7529C62.7661 60.8296 62.7529 60.8296 62.7529 60.8164C62.7265 60.8164 62.7529 60.8428 62.7266 60.856Z" fill="#232C6A"/>
<path d="M60.6038 56.7202C60.6038 56.7202 60.6169 56.7202 60.6301 56.707H60.6038V56.7202Z" fill="#232C6A"/>
<path d="M60.4988 56.1265C60.4988 56.1396 60.4988 56.166 60.512 56.1924H60.5515L60.4988 56.1133V56.1265Z" fill="#232C6A"/>
<path d="M61.1975 55.0445L61.1448 55.15C61.013 54.9917 61.0525 54.8599 60.9075 54.7412H60.9339C60.9339 54.7412 60.7493 54.794 60.8548 54.4248C60.8548 54.4248 60.8284 54.4248 60.8548 54.3985L60.8284 54.4644C60.8284 54.4644 60.7361 54.4512 60.7229 54.4116C60.7229 54.4116 60.7493 54.3853 60.7625 54.3853L60.7097 54.3062L60.7493 54.2534C60.7493 54.2534 60.5911 54.3062 60.6306 54.2139C60.5647 54.2798 60.5647 54.2139 60.5252 54.2271C60.5252 54.2271 60.5383 54.2007 60.5515 54.1875C60.5251 54.148 60.4592 54.082 60.4065 54.082C60.4065 54.082 60.3142 54.3325 60.2483 54.4116C60.2483 54.3457 60.2351 54.4116 60.2087 54.4248H60.2351C60.2351 54.4248 60.1824 54.4907 60.1824 54.5171C60.1824 54.5171 60.1824 54.5171 60.1956 54.5171C60.1956 54.5171 60.2087 54.5171 60.2219 54.5171H60.2483C60.2483 54.5171 60.2615 54.5567 60.2747 54.5698L60.2351 54.5962C60.3274 54.583 60.1955 54.8335 60.2087 54.8599C60.1692 54.9258 60.2615 54.9258 60.2615 54.9917C60.2878 55.0708 60.2219 55.0577 60.1956 55.1104C60.1956 55.1631 60.2351 55.0708 60.2483 55.0972L60.2087 55.1763C60.2087 55.1763 60.1692 55.1763 60.156 55.1895C60.1692 55.2422 60.1296 55.3477 60.2219 55.3213C60.2219 55.4005 60.1824 55.4136 60.1824 55.4532C60.1824 55.44 60.1955 55.4136 60.2219 55.4004C60.1955 55.44 60.2351 55.4004 60.2351 55.4004C60.2878 55.4136 60.1692 55.6641 60.2747 55.6246H60.2615C60.3406 55.6114 60.3933 55.5587 60.446 55.5718L60.4197 55.5982H60.4592L60.4197 55.6378C60.4724 55.6641 60.4592 55.7432 60.4856 55.796L60.6438 55.6509C60.6438 55.6509 60.5647 55.8355 60.6438 55.8223L60.5911 55.8751C60.512 56.0201 60.6702 55.9146 60.657 55.9674L60.6043 56.0465L60.5779 56.0069C60.5779 56.0069 60.5515 56.0992 60.5252 56.1519C60.5252 56.1519 60.5911 56.1519 60.6043 56.1915C60.6043 56.2442 60.6834 56.2442 60.6438 56.3497H60.7229L60.7097 56.4024L60.657 56.4288C60.657 56.4288 60.5647 56.297 60.5252 56.2311H60.4988C60.4988 56.2311 60.5647 56.3102 60.5779 56.3365C60.5779 56.3497 60.5252 56.4156 60.4856 56.4156H60.5515C60.6174 56.5343 60.6306 56.5343 60.6306 56.7057L60.657 56.6793C60.657 56.6793 60.7229 56.7189 60.6702 56.7452C60.6965 56.8243 60.7097 56.9298 60.6702 57.0221L60.7361 56.9957C60.7361 56.9957 60.657 57.088 60.7493 57.0485L60.802 57.0748C60.802 57.0748 60.8547 57.1012 60.8284 57.1408C60.8284 57.2067 60.8943 57.1144 60.8811 57.1935C60.8416 57.2331 60.9734 57.1671 60.9734 57.2067L60.8943 57.2858C60.8679 57.3649 60.9602 57.3253 60.9998 57.4044C60.9866 57.4572 60.9075 57.5231 60.8284 57.5231C60.9339 57.5231 60.8943 57.5099 60.9602 57.5231C60.9338 57.5495 60.9207 57.5495 60.8811 57.5495C60.8547 57.6154 60.9207 57.5495 60.9339 57.589C60.9998 57.5627 61.1184 57.5231 61.1316 57.5231V57.4967C61.1975 57.5099 61.2371 57.5363 61.2239 57.589H61.1844L61.2239 57.6418L61.1844 57.6681L61.2239 57.7209C61.2239 57.7209 61.2766 57.7472 61.2635 57.7868H61.2371C61.1975 57.9054 61.3294 57.9186 61.3689 57.9977H61.3162C61.2766 58.0637 61.3953 57.9846 61.3821 58.0241L61.3162 58.0505C61.4085 58.0505 61.3162 58.1032 61.303 58.1296L61.3821 58.0768V58.1296C61.3821 58.1296 61.303 58.2087 61.2503 58.2219H61.3294L61.2635 58.2614C61.3557 58.235 61.2634 58.2878 61.3162 58.301C61.2898 58.3142 61.2766 58.3142 61.2635 58.3273H61.3953H61.3294L61.4348 58.2746C61.5271 58.2746 61.448 58.3273 61.4876 58.3405H61.448C61.448 58.3405 61.448 58.3933 61.448 58.4328C61.4612 58.4196 61.4876 58.3933 61.514 58.4064C61.514 58.4064 61.4876 58.4328 61.4744 58.446C61.5403 58.4196 61.593 58.4328 61.5799 58.4724C61.5799 58.4724 61.5667 58.4724 61.5535 58.4724C61.5667 58.4724 61.593 58.4724 61.5799 58.4856L61.5008 58.5119H61.5799C61.5799 58.5119 61.6326 58.5119 61.5799 58.5515H61.5535L61.5931 58.6833L61.5271 58.7097C61.6194 58.6833 61.5271 58.7888 61.6326 58.736C61.5931 58.7888 61.7249 58.802 61.5931 58.8547C61.6194 58.947 61.7644 58.9338 61.7513 59.0525C61.6722 59.1316 61.7512 59.2239 61.7644 59.2898C61.8699 59.3953 61.949 59.448 62.0413 59.5667C61.9358 59.7117 62.1863 59.738 62.1468 59.8567H62.2127C62.1468 59.949 62.305 59.9754 62.2523 60.094C62.2918 60.094 62.2918 60.094 62.305 60.1072C62.305 60.1072 62.305 60.094 62.3445 60.0676C62.3313 60.1072 62.3841 60.1336 62.3182 60.1599C62.2523 60.1863 62.3841 60.2127 62.3314 60.2654L62.3973 60.2127V60.2654C62.661 60.3577 62.45 60.5555 62.6873 60.6478C62.595 60.6609 62.7532 60.6478 62.661 60.7005C62.5687 60.806 62.7269 60.7664 62.7664 60.7928C62.7664 60.7928 62.7664 60.7928 62.7796 60.7928V60.8587C62.6609 60.8851 62.9114 60.8587 62.806 60.8587C62.806 61.0565 62.9905 61.2279 63.0433 61.4256L63.0697 61.3993C63.0697 61.3993 63.1488 61.4915 63.1224 61.5443C63.096 61.597 63.241 61.5838 63.241 61.597C63.307 61.6102 63.241 61.7025 63.2279 61.6761C63.2674 61.7157 63.3861 61.7025 63.3729 61.7816C63.2806 61.8475 63.5443 61.8871 63.4388 61.953C63.3992 62.0585 63.5575 62.0716 63.5311 62.1771C63.5311 62.1771 63.5311 62.1771 63.5179 62.1771H63.9266L64.2694 61.9398L64.4935 61.6498L64.243 61.307L64.2035 60.951L63.7948 60.239H63.6893C63.7552 60.0149 63.5047 59.9094 63.5311 59.6985L63.4652 59.7249C63.4652 59.7249 63.4784 59.6589 63.4915 59.6458C63.2674 59.2502 62.9642 58.8679 62.8719 58.4592C62.8983 58.4064 62.8192 58.301 62.8587 58.2482C62.7137 58.1691 62.6478 58.0505 62.595 57.9186L62.5555 57.8659C62.5555 57.8659 62.5555 57.8659 62.5687 57.8659C62.4764 57.8395 62.4896 57.7077 62.4764 57.6154C62.2654 57.1539 61.9226 56.798 61.7908 56.297C61.7908 56.0333 61.5139 55.8619 61.5008 55.5718C61.5535 55.4927 61.2503 55.0313 61.1975 55.0049V55.0445Z" fill="#232C6A"/>
<path d="M60.4329 55.7852L60.3933 55.8247L60.4329 55.7852Z" fill="#232C6A"/>
<path d="M60.0898 55.1602C60.0898 55.1602 60.103 55.1865 60.1162 55.1865C60.1162 55.1865 60.1162 55.1733 60.0898 55.1602Z" fill="#232C6A"/>
<path d="M60.5647 54.1758C60.5647 54.1758 60.5383 54.1758 60.5251 54.189C60.5251 54.2021 60.5383 54.2153 60.5383 54.2153C60.5383 54.2153 60.5515 54.189 60.5515 54.1758H60.5647Z" fill="#232C6A"/>
<path d="M29.4767 19.3711C29.4767 19.3711 29.4635 19.3711 29.4503 19.3711C29.4239 19.3843 29.4108 19.3975 29.3976 19.4106L29.4899 19.3711H29.4767Z" fill="#232C6A"/>
<path d="M24.7699 19.2773H24.7435C24.7435 19.2773 24.7435 19.2905 24.7699 19.2773Z" fill="#232C6A"/>
<path d="M63.4385 24.8638C63.4385 24.7715 63.4649 24.8901 63.4649 24.9297C63.478 24.8242 63.478 24.7188 63.4649 24.6133C63.4517 24.6133 63.4648 24.8242 63.4385 24.8638Z" fill="#232C6A"/>
<path d="M63.5701 38.1162L63.5305 38.0898C63.5305 38.0898 63.5569 38.1162 63.5701 38.1162Z" fill="#232C6A"/>
<path d="M20.7228 19.7358C20.7228 19.7358 20.7096 19.7227 20.6964 19.7227L20.736 19.7358H20.7228Z" fill="#232C6A"/>
<path d="M16.4772 39.5454C16.4772 39.5454 16.4772 39.5454 16.4904 39.5454L16.464 39.4531C16.464 39.4531 16.464 39.5322 16.464 39.5586L16.4772 39.5454Z" fill="#232C6A"/>
<path d="M17.1232 23.6929V23.7193C17.1627 23.627 17.2155 23.3897 17.3341 23.0864L17.2946 23.0469C17.2155 23.2578 17.1495 23.4688 17.11 23.6929H17.1232Z" fill="#232C6A"/>
<path d="M15.8047 30.1031L15.897 29.4702C15.9365 31.5138 15.8443 32.463 15.9234 34.2165L15.897 34.1243C15.8706 34.3748 16.0947 34.5198 15.8311 37.328C15.8311 37.4203 15.8574 37.4203 15.8311 37.6181L15.8838 37.1302C15.9102 37.4203 15.9497 37.6708 15.9629 38.0663C15.9629 38.1454 15.9365 38.1718 15.9234 38.185V39.1342L15.8838 39.4243C15.9234 39.7143 16.042 39.5825 15.9761 40.3604C16.0684 40.0703 16.0288 40.7427 16.0816 40.6504C16.0816 40.7032 16.0552 40.7823 16.042 40.8482C16.042 41.3096 16.0816 42.1798 16.1211 42.4039C16.1211 42.4039 16.3057 40.5977 16.4112 40.1099C16.3848 40.7559 16.4112 40.2813 16.4507 40.1494L16.4243 40.1099C16.4507 39.7143 16.5034 39.7143 16.5166 39.5298C16.5166 39.5298 16.5166 39.5298 16.5035 39.5298V39.5561C16.5035 39.5561 16.5034 39.5561 16.4903 39.543C16.4903 39.543 16.4639 39.5298 16.4771 39.4243V39.4507C16.4771 39.2925 16.4771 39.0024 16.4771 38.8837H16.5298C16.4375 38.5937 16.6748 36.9325 16.6748 36.5501C16.7408 36.1546 16.6617 35.68 16.688 35.1922C16.7012 34.4143 16.7539 34.8098 16.7935 34.4143C16.8199 33.9265 16.7408 34.5066 16.7408 34.322L16.8067 33.7419C16.8067 34.0847 16.8462 33.9001 16.8594 33.8342C16.8594 33.3332 16.9517 32.529 16.8594 32.3839C16.899 31.6984 16.9385 31.6984 16.9517 31.4083C16.9385 31.5006 16.9121 31.6984 16.899 31.6984C16.9385 31.4215 16.899 31.5665 16.8858 31.6852C16.8462 31.2633 17.0572 29.523 16.9517 29.4439H16.9649C16.8858 29.3516 16.8067 29.4966 16.7671 29.2066L16.8067 29.0088L16.7671 28.7187C16.7935 28.521 16.8067 28.6133 16.8199 28.6133C16.7803 28.1386 16.8199 27.4794 16.8331 26.8993L16.6221 27.5058C16.6748 27.018 16.7671 26.1478 16.7012 26.0424L16.7671 25.7523C16.899 24.7767 16.7276 25.0931 16.7671 24.7107C16.8067 24.5525 16.8594 24.4075 16.9122 24.2493C16.8858 24.4075 16.8594 24.5525 16.8462 24.7107C16.9517 24.2625 16.9913 24.0779 17.1363 23.7351L17.1099 23.7747V23.7088C17.1099 23.7088 17.1231 23.4055 17.2549 23.1023C17.4263 22.6804 17.5318 22.3112 18.0064 21.7443L18.046 21.5465C18.1646 21.4015 18.2833 21.2697 18.4283 21.151L18.4811 21.1906C18.1119 21.5729 17.5713 22.4431 17.3604 23.1023L17.3868 23.1286C17.5186 22.7463 17.7164 22.3244 17.8614 22.1003C17.9405 21.9948 18.1646 21.7443 18.0723 21.9816C18.0987 21.9025 18.1383 21.8234 18.1646 21.7443C18.5601 21.1906 18.8106 20.9664 19.0743 20.7423C19.338 20.5182 19.6281 20.3072 20.2477 19.9908L20.129 20.0304C20.3532 19.8722 20.6037 19.7535 20.6959 19.7667C21.4606 19.4239 22.3439 19.3316 22.8713 19.3975L22.99 19.3184C23.1614 19.3184 23.4646 19.4371 23.5569 19.3184L23.9656 19.292C24.2292 19.292 24.3875 19.2525 24.6907 19.292C24.6907 19.292 24.7303 19.292 24.7434 19.292C25.3367 19.3184 24.7434 19.2129 25.4158 19.2657C25.6399 19.3184 25.6531 19.1734 25.9959 19.1866L26.3255 19.292C26.932 19.358 27.0243 19.2525 27.9076 19.2393C28.3295 19.2789 28.5272 19.3712 28.2504 19.4503C28.6327 19.358 28.4218 19.3843 28.9359 19.3448C29.015 19.3843 28.9623 19.3975 28.8436 19.4239C29.2919 19.4766 29.1205 19.3843 29.4633 19.3843C29.5556 19.3052 29.6742 19.1866 29.7797 19.1866L29.6479 19.1602C30.0038 19.1207 30.3994 19.0943 30.8212 19.1338V19.1734L31.2431 19.1602L31.2695 19.2129H31.9023L31.81 19.1866C31.9551 19.1866 32.4429 19.1602 32.7329 19.1866V19.2129C33.5108 19.292 34.1568 19.1866 35.0797 19.1734L34.961 19.2261C35.2774 19.2789 35.0533 19.147 35.4224 19.1734V19.2393C35.7652 19.147 35.8707 19.2525 36.0948 19.292L35.9894 19.1998H36.4112C36.8859 19.2525 36.7013 19.3316 36.6354 19.3843L36.9518 19.3184L37.0177 19.3975C37.255 19.3052 37.255 19.4107 37.6637 19.358C37.7033 19.3843 37.5978 19.4107 37.7296 19.4239L38.402 19.3184L37.9933 19.3712L38.0461 19.2525C38.4679 19.1602 38.6261 19.2525 38.9294 19.2393L38.7184 19.2789C39.2194 19.2525 39.2458 19.3052 39.5227 19.3316C39.4304 19.3052 39.2985 19.2789 39.5095 19.2657C39.6545 19.2657 39.5886 19.3052 39.7336 19.3184C39.7732 19.2393 40.1291 19.1998 40.4455 19.2393C40.4455 19.2393 40.4455 19.2657 40.4192 19.2657C40.4983 19.2657 40.5378 19.2393 40.6828 19.2525L40.6037 19.3316L40.8806 19.2525C41.0652 19.2789 41.3289 19.2129 41.3025 19.2657H41.197L42.5945 19.3052V19.3712C42.7527 19.2789 43.3724 19.4107 43.3328 19.292C43.5965 19.358 44.3743 19.2525 44.2161 19.3843C45.139 19.3843 45.6268 19.2657 46.7475 19.3316C47.143 19.4371 48.2373 19.4107 48.9492 19.4239C50.3467 19.3712 51.3223 19.3448 52.6802 19.3052C53.5372 19.4634 54.8292 19.2525 55.7521 19.3448L56.0026 19.2789C56.6091 19.3843 57.5847 19.2129 58.323 19.4239C58.5207 19.4239 58.6262 19.4239 58.6658 19.4371C58.6262 19.4239 58.5867 19.4107 58.5735 19.358C58.7844 19.4239 59.2327 19.5162 59.18 19.5821H59.1272C59.1272 19.5821 59.7864 19.7535 59.971 19.9381L59.8787 19.8062L60.261 20.004L60.1556 19.9644C61.0257 20.3072 61.5399 20.795 61.9618 21.3092C62.3705 21.8234 62.7264 22.364 63.122 23.155C62.9506 22.9704 63.2802 23.4583 63.2011 23.511C63.2011 23.9593 63.4252 24.2889 63.5043 24.658C63.5043 24.658 63.5043 24.658 63.5307 24.6844L63.557 25.3172C63.4252 24.9217 63.6625 25.805 63.557 25.4359C63.4647 27.2289 63.557 29.5625 63.5175 31.6456L63.5438 31.5533C63.5438 32.0807 63.5834 32.7399 63.5307 33.1354C63.4779 33.531 63.6098 34.0056 63.6229 34.1638C63.6757 34.5989 63.5702 34.9944 63.5702 34.8098C63.5834 35.2713 63.702 35.7195 63.6493 36.3656C63.5438 36.5897 63.7548 38.1322 63.6361 38.1586C63.557 39.0024 63.702 39.7803 63.6229 40.6768C63.6229 40.6768 63.6229 40.6504 63.6098 40.6241L63.9789 42.4435L64.3876 41.9293L64.7172 40.3472L64.6513 36.0623L64.7831 32.6476L64.7568 28.4946V26.4115L64.7436 25.37C64.7172 25.0008 64.7304 24.6053 64.6513 24.2361C64.5854 24.0252 64.5326 23.8142 64.4404 23.6165C64.3085 22.7331 63.8734 21.7575 63.2406 20.9401C62.6078 20.1095 61.7772 19.4371 60.9466 18.9229L60.8675 18.9756C60.3797 18.7383 60.4324 18.7119 60.3138 18.646C59.7205 18.4219 59.114 18.2109 58.468 18.145C57.822 18.0527 57.2023 18.0791 56.6354 18.0791C55.4752 18.0791 54.3151 18.1055 53.1812 18.1055C50.9004 18.1187 48.6723 18.1187 46.5893 18.0791C46.1937 18.0264 44.9676 18.0527 44.6512 18C43.3064 18.0923 41.8694 18.0923 40.5246 18.0791H40.5774H39.9445C39.9182 18.0791 39.9182 18.0659 39.9445 18.0527C39.2326 18.1187 38.0988 18.0527 37.2155 18.0264H37.2682C32.1528 18.0527 27.5912 18.0791 22.2121 18.1187C20.9069 18.2241 19.5358 18.8042 18.4415 19.7667C17.3472 20.7291 16.5035 22.0475 16.1079 23.511C16.0552 23.6428 15.9233 24.1175 15.8706 24.7635C15.8179 25.4622 15.8574 26.1346 15.8443 26.8993C15.8443 28.3891 15.8838 29.8921 15.897 30.1294L15.8047 30.1031Z" fill="#232C6A"/>
<path d="M15.9102 38.1826V38.1562C15.9102 38.1562 15.8838 38.1826 15.9102 38.1826Z" fill="#232C6A"/>
<path d="M16.8201 26.8423V26.8818L16.8728 26.75L16.8201 26.8423Z" fill="#232C6A"/>
<path d="M15.9763 40.8486C15.9763 41.02 15.9895 40.9541 16.0159 40.8486C16.0159 40.6773 16.0159 40.5586 16.0159 40.5586C16.0159 40.6377 15.9895 40.7695 15.9763 40.8486Z" fill="#232C6A"/>
<path d="M16.4244 40.1502L16.4508 40.2029C16.4508 40.0974 16.4376 40.1106 16.4244 40.1502Z" fill="#232C6A"/>
<path d="M32.4563 41.7153H32.4695C32.4695 41.7022 32.4958 41.689 32.4958 41.6758L32.4431 41.7153H32.4563Z" fill="#232C6A"/>
<path d="M35.0536 41.8066H35.0668C35.0668 41.8066 35.0668 41.7935 35.0536 41.8066Z" fill="#232C6A"/>
<path d="M28.4614 32.3802C28.4614 32.3802 28.4746 32.3539 28.501 32.3539C28.4351 32.3275 28.3691 32.3275 28.3164 32.3407C28.3164 32.3671 28.4351 32.3671 28.4614 32.3802Z" fill="#232C6A"/>
<path d="M37.4398 41.832V41.8584L37.4266 41.832H37.4398Z" fill="#232C6A"/>
<path d="M39.6018 32.3945L39.6546 32.4209C39.6282 32.4077 39.615 32.3945 39.6018 32.3945Z" fill="#232C6A"/>
<path d="M39.7468 40.8765C39.6809 40.9819 39.6545 41.0347 39.6018 41.1401L39.6414 41.1665C39.6941 41.0742 39.7337 40.9688 39.76 40.8633L39.7468 40.8765Z" fill="#232C6A"/>
<path d="M40.9467 37.4148L40.8544 37.7708C40.8148 36.6502 40.9071 36.1228 40.828 35.1603L40.8544 35.2131C40.8544 35.1472 40.8148 35.0944 40.8016 34.8571C40.8016 34.7384 40.8016 34.5802 40.8016 34.3561C40.8016 34.2638 40.828 34.132 40.8412 33.9606C40.8544 33.7628 40.8675 33.5387 40.8412 33.2882C40.8148 33.2223 40.8016 33.2223 40.7885 33.0772C40.8148 33.1959 40.8148 33.3146 40.828 33.4332C40.7621 33.2354 40.6698 33.0772 40.5511 32.8267C40.5379 32.774 40.5511 32.7476 40.5511 32.7344C40.4457 32.5367 40.3138 32.3521 40.1688 32.1939L40.0765 31.9961C39.8919 31.8907 39.9051 32.0225 39.4964 31.6665C39.6282 31.8379 39.2459 31.5874 39.2723 31.6665C39.2459 31.6402 39.2064 31.6006 39.1668 31.5742C38.8768 31.4292 38.2835 31.3897 38.1385 31.4424C38.1385 31.4424 38.4417 31.482 38.7449 31.627C39.0482 31.7588 39.3118 31.9961 39.4041 32.1148C39.0877 31.8907 39.3118 32.0752 39.3646 32.1412H39.4041C39.5755 32.2862 39.536 32.3389 39.6019 32.418L39.5887 32.4048C39.5887 32.3917 39.5887 32.3917 39.6151 32.4048C39.6151 32.4048 39.6414 32.4048 39.681 32.4312C39.7469 32.484 39.8524 32.6158 39.8919 32.6685L39.8524 32.6949C39.9447 32.7213 40.0633 32.9849 40.1161 33.2486C40.1688 33.5255 40.1424 33.7892 40.1424 33.8947C40.0897 34.0924 40.1556 34.3693 40.1424 34.633C40.1292 35.0549 40.0765 34.8439 40.037 35.0549C40.0106 35.3185 40.0897 35.0021 40.0897 35.1076L40.0238 35.424C40.0238 35.2394 39.9842 35.3449 39.971 35.3713C39.971 35.6482 39.8787 36.0832 39.971 36.1755C39.9315 36.5447 39.8919 36.5447 39.8788 36.7161C39.8919 36.6633 39.9183 36.5579 39.9315 36.5579C39.8919 36.7029 39.9315 36.6238 39.9447 36.5579C39.9842 36.782 39.7733 37.7444 39.8788 37.7972H39.8656C39.9447 37.8499 40.0238 37.7708 40.0633 37.929L40.0238 38.0345L40.0633 38.1927C40.037 38.2982 40.0238 38.2454 40.0106 38.2454C40.0501 38.5091 40.0106 38.8783 39.9974 39.1947L40.2084 38.8651C40.1556 39.1288 40.0633 39.6166 40.1293 39.6693L40.0633 39.8275C39.9315 40.3549 40.1292 40.2099 40.0633 40.4076C40.037 40.4867 39.9974 40.5659 39.9579 40.6318C39.9579 40.5527 39.9842 40.4867 39.9842 40.4076C39.9315 40.6318 39.8788 40.7109 39.7733 40.8559L39.7865 40.8427V40.8691C39.7865 40.8691 39.7865 41.0273 39.7074 41.1591C39.5887 41.3437 39.5228 41.5415 39.18 41.6865C39.18 41.7261 39.1668 41.7656 39.1536 41.8052C39.0613 41.8447 38.9822 41.8711 38.89 41.8975L38.8636 41.8447C39.1009 41.7524 39.4701 41.4228 39.6151 41.1328H39.5887C39.4964 41.2778 39.3778 41.4624 39.2723 41.5415C39.2195 41.581 39.0613 41.6074 39.1141 41.5151L39.0614 41.6338C38.8109 41.8052 38.6526 41.8447 38.4944 41.8711C38.323 41.8975 38.2176 41.8843 37.7693 41.8447L37.8352 41.8711C37.6638 41.8843 37.5056 41.9106 37.4529 41.8579C36.9519 41.8579 36.4377 41.8052 36.1081 41.7261L36.0422 41.8052C35.9367 41.8052 35.7785 41.6865 35.7258 41.8052L35.5017 41.8315C35.3566 41.8315 35.2644 41.8711 35.1062 41.8315H35.0798C34.7502 41.792 35.0798 41.8975 34.7106 41.8579C34.592 41.8052 34.5788 41.9502 34.3942 41.937L34.2096 41.8315C33.88 41.7656 33.8273 41.8711 33.3395 41.8843C33.1154 41.8447 32.9967 41.7524 33.1549 41.6733C32.944 41.7656 33.0626 41.7392 32.7858 41.7788C32.7462 41.7392 32.7726 41.7261 32.8385 41.6997C32.588 41.647 32.6803 41.7392 32.4957 41.7392C32.443 41.8184 32.3771 41.937 32.3243 41.937L32.3903 41.9634C32.1925 42.0029 31.9816 42.0293 31.7442 41.9897V41.9502L31.5069 41.9634V41.9106L31.1378 41.9238H31.1905C31.1114 41.937 30.8346 41.9634 30.6895 41.9238V41.8975C30.2676 41.8183 29.8985 41.9238 29.3975 41.937L29.4634 41.8843C29.292 41.8315 29.4107 41.9634 29.2129 41.937V41.8711C29.0152 41.9634 28.9624 41.8579 28.8438 41.8184L28.8965 41.9106H28.6592C28.3955 41.8579 28.501 41.7788 28.5405 41.7261L28.3692 41.792L28.3296 41.7129C28.1977 41.8052 28.1978 41.6997 27.9736 41.7524C27.9605 41.7261 28.0132 41.6997 27.9341 41.6865L27.5649 41.792L27.7891 41.7392L27.7627 41.8579C27.5254 41.9502 27.4463 41.8579 27.2749 41.8711L27.3935 41.8315C27.1167 41.8579 27.1035 41.8052 26.9453 41.7788C26.998 41.8052 27.0639 41.8315 26.9453 41.8447C26.8662 41.8447 26.9057 41.8052 26.8266 41.792C26.8266 41.8711 26.5893 41.9106 26.4575 41.8711C26.4575 41.8711 26.4575 41.8447 26.4707 41.8447C26.4311 41.8447 26.4179 41.8711 26.3652 41.8447L26.4047 41.7656C26.4047 41.7656 26.3256 41.8052 26.2861 41.8315C26.2202 41.8052 26.1015 41.8315 26.1147 41.7788H26.1542C25.9697 41.7261 25.8115 41.6338 25.6532 41.5283L25.6928 41.4624C25.5873 41.5019 25.495 41.2514 25.4291 41.3437C25.3896 41.2382 25.1391 41.0405 25.2841 41.0141C25.1259 40.6845 24.9545 40.6054 25.0204 40.0253C25.1259 39.8012 25.0995 39.2079 25.1127 38.8124C25.06 38.0477 25.0336 37.4544 24.994 36.7556C25.1523 36.281 24.9413 35.5822 25.0336 35.0681L24.9677 34.923C25.0204 34.7516 25.0072 34.5407 25.0072 34.3034C25.0072 34.1847 25.0072 34.0792 25.0072 33.9474C25.0072 33.8551 25.0204 33.7628 25.0732 33.6837C25.06 33.5914 25.0732 33.5519 25.0732 33.5387C25.0732 33.5519 25.0468 33.5782 25.0072 33.5651C25.0468 33.4728 25.0995 33.275 25.1654 33.3146V33.3409C25.1654 33.3409 25.2577 33.0509 25.3896 33.0113H25.2841C25.2841 33.0113 25.3632 32.919 25.4159 32.8663L25.3896 32.919C25.5873 32.5499 25.9301 32.418 26.207 32.3785C26.4575 32.3389 26.8794 32.3917 27.3935 32.2994C27.2485 32.3917 27.6045 32.2466 27.6177 32.3521C27.8813 32.484 28.1055 32.3257 28.3164 32.2862C28.3164 32.2862 28.3164 32.2862 28.3296 32.273H28.7119C28.4878 32.418 28.9888 32.1807 28.7779 32.2862C29.7667 32.3785 31.0455 32.2862 32.1925 32.3257L32.1398 32.2994C32.4298 32.2994 32.7858 32.2598 33.0099 32.3126C33.234 32.3653 33.4845 32.2335 33.5768 32.2203C33.8141 32.1675 34.0382 32.273 33.9328 32.273C34.1965 32.2598 34.4338 32.1412 34.7897 32.1939C34.9084 32.2994 35.7654 32.0884 35.7785 32.2071C36.24 32.2862 36.6619 32.1412 37.1629 32.2071C37.1629 32.2071 37.1497 32.2071 37.1365 32.2203L38.1385 31.8511L37.8484 31.4424L36.9783 31.1128L34.6183 31.1787L32.733 31.0469L28.1582 31.0864L27.8286 31.1787C27.354 31.0996 26.9189 31.0996 26.2861 31.126C25.6005 31.1919 24.9677 31.5347 24.4931 31.9566L24.5326 32.0357C24.3085 32.2994 24.2953 32.2598 24.2294 32.3257C23.9921 32.6685 23.8471 33.0772 23.7943 33.4859C23.7416 33.9474 23.7943 34.1979 23.7811 34.5407C23.7811 35.1867 23.8075 35.8195 23.8075 36.4392C23.8207 37.6917 23.8207 38.9178 23.7811 40.0649C23.7548 40.144 23.7416 40.4604 23.7943 40.7372C23.8471 41.0141 23.9393 41.291 23.9657 41.3965C24.4535 42.2666 25.3896 42.8863 26.3784 42.939H26.3388C26.5102 42.939 26.6157 42.939 26.7343 42.939C26.7475 42.939 26.7475 42.9522 26.7343 42.9654C27.1299 42.8995 27.7495 42.9654 28.2373 42.9917H28.2109C31.0323 43.0181 33.6559 42.8731 36.4509 42.9786C36.7805 43.0049 37.1101 43.0181 37.4661 43.0313C37.8089 43.0313 38.1385 43.0577 38.6658 42.9654C39.6283 42.7676 40.4588 42.0557 40.8148 41.1064C40.8675 41.0273 40.9862 40.7109 40.9994 40.2758C40.9994 39.933 40.9994 39.5375 40.9994 39.1024C40.9994 38.285 40.9598 37.4544 40.9467 37.3225V37.4148Z" fill="#232C6A"/>
<path d="M39.9315 39.2124L39.9447 39.1992L39.892 39.2783L39.9315 39.2124Z" fill="#232C6A"/>
<path d="M39.1801 31.5378C39.0746 31.4851 39.101 31.5378 39.1669 31.5774C39.2856 31.6301 39.3515 31.6565 39.3515 31.6565C39.3119 31.6301 39.2328 31.5642 39.1801 31.5378Z" fill="#232C6A"/>
<path d="M39.3514 32.1445H39.3119C39.3119 32.1445 39.3646 32.1709 39.3514 32.1445Z" fill="#232C6A"/>
<path d="M48.2771 41.7153H48.2903C48.2903 41.7022 48.3166 41.689 48.3166 41.6758L48.2639 41.7153H48.2771Z" fill="#232C6A"/>
<path d="M50.8741 41.8066H50.8873C50.8873 41.8066 50.8873 41.7935 50.8741 41.8066Z" fill="#232C6A"/>
<path d="M44.2824 32.3802C44.2824 32.3802 44.2955 32.3539 44.3219 32.3539C44.256 32.3275 44.1901 32.3275 44.1373 32.3407C44.1373 32.3671 44.256 32.3671 44.2824 32.3802Z" fill="#232C6A"/>
<path d="M53.2606 41.832V41.8584L53.2474 41.832H53.2606Z" fill="#232C6A"/>
<path d="M55.4227 32.3945L55.4755 32.4209C55.4491 32.4077 55.4359 32.3945 55.4227 32.3945Z" fill="#232C6A"/>
<path d="M55.5678 40.8765C55.5018 40.9819 55.4755 41.0347 55.4227 41.1401L55.4623 41.1665C55.515 41.0742 55.5546 40.9688 55.581 40.8633L55.5678 40.8765Z" fill="#232C6A"/>
<path d="M56.7673 37.4148L56.675 37.7708C56.6355 36.6502 56.7278 36.1228 56.6487 35.1603L56.675 35.2131C56.675 35.1472 56.6355 35.0944 56.6223 34.8571C56.6223 34.7384 56.6223 34.5802 56.6223 34.3561C56.6223 34.2638 56.6487 34.132 56.6619 33.9606C56.675 33.7628 56.6882 33.5387 56.6619 33.2882C56.6355 33.2223 56.6223 33.2223 56.6091 33.0772C56.6355 33.1959 56.6355 33.3146 56.6487 33.4332C56.5828 33.2354 56.4905 33.0772 56.3718 32.8267C56.3586 32.774 56.3718 32.7476 56.3718 32.7344C56.2663 32.5367 56.1345 32.3521 55.9895 32.1939L55.8972 31.9961C55.7126 31.8907 55.7258 32.0225 55.3171 31.6665C55.4489 31.8379 55.0666 31.5874 55.093 31.6665C55.0666 31.6402 55.027 31.6006 54.9875 31.5742C54.6974 31.4292 54.1042 31.3897 53.9591 31.4424C53.9591 31.4424 54.2624 31.482 54.5656 31.627C54.8688 31.7588 55.1325 31.9961 55.2248 32.1148C54.9084 31.8907 55.1325 32.0752 55.1853 32.1412H55.2248C55.3962 32.2862 55.3566 32.3389 55.4226 32.418L55.4094 32.4048C55.4094 32.3917 55.4094 32.3917 55.4358 32.4048C55.4358 32.4048 55.4621 32.4048 55.5017 32.4312C55.5676 32.484 55.6731 32.6158 55.7126 32.6685L55.6731 32.6949C55.7653 32.7213 55.884 32.9849 55.9367 33.2486C55.9895 33.5255 55.9631 33.7892 55.9631 33.8947C55.9104 34.0924 55.9763 34.3693 55.9631 34.633C55.9499 35.0549 55.8972 34.8439 55.8576 35.0549C55.8313 35.3185 55.9104 35.0021 55.9104 35.1076L55.8445 35.424C55.8445 35.2394 55.8049 35.3449 55.7917 35.3713C55.7917 35.6482 55.6994 36.0832 55.7917 36.1755C55.7522 36.5447 55.7126 36.5447 55.6994 36.7161C55.7126 36.6633 55.739 36.5579 55.7522 36.5579C55.7126 36.7029 55.7522 36.6238 55.7654 36.5579C55.8049 36.782 55.594 37.7444 55.6994 37.7972H55.6862C55.7653 37.8499 55.8445 37.7708 55.884 37.929L55.8445 38.0345L55.884 38.1927C55.8576 38.2982 55.8444 38.2454 55.8313 38.2454C55.8708 38.5091 55.8313 38.8783 55.8181 39.1947L56.029 38.8651C55.9763 39.1288 55.884 39.6166 55.9499 39.6693L55.884 39.8275C55.7522 40.3549 55.9499 40.2099 55.884 40.4076C55.8576 40.4867 55.8181 40.5659 55.7785 40.6318C55.7785 40.5527 55.8049 40.4867 55.8049 40.4076C55.7522 40.6318 55.6994 40.7109 55.594 40.8559L55.6071 40.8427V40.8691C55.6071 40.8691 55.6071 41.0273 55.528 41.1591C55.4094 41.3437 55.3435 41.5415 55.0007 41.6865C55.0007 41.7261 54.9875 41.7656 54.9743 41.8052C54.882 41.8447 54.8029 41.8711 54.7106 41.8975L54.6843 41.8447C54.9216 41.7524 55.2907 41.4228 55.4358 41.1328H55.4094C55.3171 41.2778 55.1984 41.4624 55.093 41.5415C55.0402 41.581 54.882 41.6074 54.9348 41.5151L54.882 41.6338C54.6315 41.8052 54.4733 41.8447 54.3151 41.8711C54.1437 41.8975 54.0382 41.8843 53.59 41.8447L53.6559 41.8711C53.4845 41.8843 53.3263 41.9106 53.2736 41.8579C52.7726 41.8579 52.2584 41.8052 51.9288 41.7261L51.8629 41.8052C51.7574 41.8052 51.5992 41.6865 51.5465 41.8052L51.3223 41.8315C51.1773 41.8315 51.0851 41.8711 50.9268 41.8315H50.9005C50.5709 41.792 50.9005 41.8975 50.5313 41.8579C50.4127 41.8052 50.3995 41.9502 50.2149 41.937L50.0303 41.8315C49.7007 41.7656 49.648 41.8711 49.1602 41.8843C48.936 41.8447 48.8174 41.7524 48.9756 41.6733C48.7647 41.7656 48.8833 41.7392 48.6065 41.7788C48.5669 41.7392 48.5933 41.7261 48.6592 41.6997C48.4087 41.647 48.501 41.7392 48.3164 41.7392C48.2637 41.8184 48.1978 41.937 48.145 41.937L48.2109 41.9634C48.0132 42.0029 47.8022 42.0293 47.5649 41.9897V41.9502L47.3276 41.9634V41.9106L46.9585 41.9238H47.0112C46.9321 41.937 46.6552 41.9634 46.5102 41.9238V41.8975C46.0883 41.8183 45.7192 41.9238 45.2182 41.937L45.2841 41.8843C45.1127 41.8315 45.2314 41.9634 45.0336 41.937V41.8711C44.8358 41.9634 44.7831 41.8579 44.6645 41.8184L44.7172 41.9106H44.4799C44.2162 41.8579 44.3217 41.7788 44.3612 41.7261L44.1898 41.792L44.1503 41.7129C44.0184 41.8052 44.0184 41.6997 43.7943 41.7524C43.7811 41.7261 43.8339 41.6997 43.7548 41.6865L43.3856 41.792L43.6097 41.7392L43.5834 41.8579C43.3461 41.9502 43.267 41.8579 43.0956 41.8711L43.2142 41.8315C42.9374 41.8579 42.9242 41.8052 42.766 41.7788C42.8187 41.8052 42.8846 41.8315 42.766 41.8447C42.6869 41.8447 42.7264 41.8052 42.6473 41.792C42.6473 41.8711 42.41 41.9106 42.2781 41.8711C42.2781 41.8711 42.2782 41.8447 42.2913 41.8447C42.2518 41.8447 42.2386 41.8711 42.1859 41.8447L42.2254 41.7656C42.2254 41.7656 42.1463 41.8052 42.1068 41.8315C42.0408 41.8052 41.9222 41.8315 41.9354 41.7788H41.9749C41.7903 41.7261 41.6321 41.6338 41.4739 41.5283L41.5135 41.4624C41.408 41.5019 41.3157 41.2514 41.2498 41.3437C41.2102 41.2382 40.9597 41.0405 41.1048 41.0141C40.9466 40.6845 40.7752 40.6054 40.8411 40.0253C40.9466 39.8012 40.9202 39.2079 40.9334 38.8124C40.8807 38.0477 40.8543 37.4544 40.8147 36.7556C40.9729 36.281 40.762 35.5822 40.8543 35.0681L40.7884 34.923C40.8411 34.7516 40.8279 34.5407 40.8279 34.3034C40.8279 34.1847 40.8279 34.0792 40.8279 33.9474C40.8279 33.8551 40.8411 33.7628 40.8938 33.6837C40.8807 33.5914 40.8938 33.5519 40.8938 33.5387C40.8938 33.5519 40.8675 33.5782 40.8279 33.5651C40.8675 33.4728 40.9202 33.275 40.9861 33.3146V33.3409C40.9861 33.3409 41.0784 33.0509 41.2102 33.0113H41.1048C41.1048 33.0113 41.1839 32.919 41.2366 32.8663L41.2102 32.919C41.408 32.5499 41.7508 32.418 42.0277 32.3785C42.2782 32.3389 42.7 32.3917 43.2142 32.2994C43.0692 32.3917 43.4252 32.2466 43.4383 32.3521C43.702 32.484 43.9261 32.3257 44.1371 32.2862C44.1371 32.2862 44.1371 32.2862 44.1503 32.273H44.5326C44.3085 32.418 44.8095 32.1807 44.5985 32.2862C45.5873 32.3785 46.8662 32.2862 48.0132 32.3257L47.9605 32.2994C48.2505 32.2994 48.6065 32.2598 48.8306 32.3126C49.0547 32.3653 49.3052 32.2335 49.3975 32.2203C49.6348 32.1675 49.8589 32.273 49.7535 32.273C50.0171 32.2598 50.2545 32.1412 50.6104 32.1939C50.7291 32.2994 51.586 32.0884 51.5992 32.2071C52.0607 32.2862 52.4825 32.1412 52.9835 32.2071C52.9835 32.2071 52.9703 32.2071 52.9572 32.2203L53.9591 31.8511L53.6691 31.4424L52.799 31.1128L50.439 31.1787L48.5537 31.0469L43.9789 31.0864L43.6493 31.1787C43.1747 31.0996 42.7396 31.0996 42.1068 31.126C41.4212 31.1919 40.7884 31.5347 40.3137 31.9566L40.3533 32.0357C40.1292 32.2994 40.116 32.2598 40.0501 32.3257C39.8128 32.6685 39.6677 33.0772 39.615 33.4859C39.5623 33.9474 39.615 34.1979 39.6018 34.5407C39.6018 35.1867 39.6282 35.8195 39.6282 36.4392C39.6414 37.6917 39.6414 38.9178 39.6018 40.0649C39.5754 40.144 39.5623 40.4604 39.615 40.7372C39.6677 41.0141 39.76 41.291 39.7864 41.3965C40.2742 42.2666 41.2102 42.8863 42.199 42.939H42.1595C42.3309 42.939 42.4364 42.939 42.555 42.939C42.5682 42.939 42.5682 42.9522 42.555 42.9654C42.9505 42.8995 43.5702 42.9654 44.058 42.9917H44.0316C46.853 43.0181 49.4766 42.8731 52.2716 42.9786C52.6012 43.0049 52.9308 43.0181 53.2868 43.0313C53.6295 43.0313 53.9592 43.0577 54.4865 42.9654C55.4489 42.7676 56.2795 42.0557 56.6355 41.1064C56.6882 41.0273 56.8069 40.7109 56.8201 40.2758C56.8201 39.933 56.8201 39.5375 56.8201 39.1024C56.8201 38.285 56.7805 37.4544 56.7673 37.3225V37.4148Z" fill="#232C6A"/>
<path d="M55.7522 39.2124L55.7654 39.1992L55.7126 39.2783L55.7522 39.2124Z" fill="#232C6A"/>
<path d="M55.0009 31.5378C54.8954 31.4851 54.9218 31.5378 54.9877 31.5774C55.1064 31.6301 55.1723 31.6565 55.1723 31.6565C55.1327 31.6301 55.0536 31.5642 55.0009 31.5378Z" fill="#232C6A"/>
<path d="M55.1724 32.1445H55.1328C55.1328 32.1445 55.1855 32.1709 55.1724 32.1445Z" fill="#232C6A"/>
</svg>
